<svg width="51" height="51" viewBox="0 0 51 51" fill="none" xmlns="http://www.w3.org/2000/svg">
<g clip-path="url(#clip0_149_5248)">
<rect x="0.398438" y="0.5" width="50" height="50" rx="25" fill="white"/>
<path d="M24.8188 22.2238C24.7873 23.5003 23.784 24.2722 23.3047 24.4877L23.3416 25.9571C23.8661 25.5756 24.9535 24.7724 25.1072 24.612C25.2994 24.4115 25.7422 24.1943 26.0096 24.5285C26.2234 24.7958 27.1235 25.4642 27.5468 25.765L27.6251 24.2795C26.6308 23.8784 26.0582 23.0282 26.0582 22.2238V16.5892C26.0582 16.2484 25.7819 15.973 25.4411 15.973C25.0983 15.973 24.8212 16.2518 24.8236 16.5946C24.8355 18.3034 24.8465 21.0981 24.8188 22.2238Z" fill="url(#paint0_linear_149_5248)"/>
<path d="M20.7864 15.4454C19.017 16.0509 17.5113 17.4208 16.9797 18.0301C13.421 21.6151 12.0936 26.6668 12.5005 29.3546C12.9074 32.0424 13.5113 33.7438 16.8525 33.2013C20.1938 32.6588 21.8412 31.3561 22.7279 30.2066C23.6146 29.0571 23.3383 25.3959 23.3098 24.8543C23.2813 24.3128 23.3692 24.2719 22.7279 23.7602C22.2149 23.3508 22.0412 23.1526 22.0185 23.1047C22.8645 22.4368 23.2653 21.947 23.3692 21.3087C23.4731 20.6705 23.3989 17.7017 23.3692 16.9744C23.3395 16.247 22.5083 14.9409 20.7864 15.4454Z" fill="url(#paint1_linear_149_5248)"/>
<path d="M30.1004 15.4454C31.8698 16.0509 33.3754 17.4208 33.907 18.0301C37.4657 21.6151 38.7931 26.6668 38.3862 29.3546C37.9794 32.0424 37.3754 33.7438 34.0342 33.2013C30.693 32.6588 29.0455 31.3561 28.1588 30.2066C27.2722 29.0571 27.5485 25.3959 27.577 24.8543C27.6055 24.3128 27.5176 24.2719 28.1588 23.7602C28.6718 23.3508 28.8455 23.1526 28.8683 23.1047C28.0222 22.4368 27.6215 21.947 27.5176 21.3087C27.4136 20.6705 27.4879 17.7017 27.5176 16.9744C27.5472 16.247 28.3784 14.9409 30.1004 15.4454Z" fill="url(#paint2_linear_149_5248)" stroke="#B0B0B0" stroke-width="0.0156649"/>
<path d="M23.4324 20.9046C23.4434 21.9899 22.4763 22.8332 21.9913 23.1191C21.1944 22.099 20.9655 21.741 21.0203 21.0284C21.0752 20.3157 21.4452 20.1513 21.9913 19.2194C22.5375 18.2875 22.473 17.6708 22.1441 16.643C21.881 15.8207 21.0478 15.551 20.6641 15.5189C22.6375 14.7926 23.3227 16.4919 23.3638 16.8482C23.4049 17.2046 23.4186 19.548 23.4324 20.9046Z" fill="url(#paint3_linear_149_5248)" stroke="#B0B0B0" stroke-width="0.0156649"/>
<path d="M27.4543 20.9046C27.4434 21.9899 28.4105 22.8332 28.8954 23.1191C29.6923 22.099 29.9212 21.741 29.8664 21.0284C29.8116 20.3157 29.4415 20.1513 28.8954 19.2194C28.3492 18.2875 28.4137 17.6708 28.7426 16.643C29.0057 15.8207 29.8389 15.551 30.2227 15.5189C28.2492 14.7926 27.564 16.4919 27.5229 16.8482C27.4818 17.2046 27.4681 19.548 27.4543 20.9046Z" fill="url(#paint4_linear_149_5248)" stroke="#B0B0B0" stroke-width="0.0156649"/>
<circle cx="25.4451" cy="25.9381" r="15.9369" transform="rotate(-90 25.4451 25.9381)" stroke="url(#paint5_linear_149_5248)" stroke-width="0.313297"/>
<circle cx="25.4448" cy="25.9569" r="19.8231" stroke="url(#paint6_linear_149_5248)" stroke-width="0.469946"/>
<path d="M10.4621 36.0113C10.4083 35.9216 10.3746 35.8326 10.361 35.7441C10.3475 35.6557 10.3563 35.5728 10.3874 35.4955C10.4193 35.4193 10.4747 35.356 10.5536 35.3054L10.7444 35.6231C10.7019 35.655 10.6764 35.6917 10.668 35.7332C10.6608 35.7739 10.6702 35.8158 10.696 35.8589C10.7226 35.9031 10.7535 35.9321 10.7886 35.9458C10.8249 35.9588 10.8611 35.9545 10.8972 35.9328C10.9275 35.9146 10.9462 35.8891 10.9534 35.8563C10.9613 35.8246 10.9626 35.7898 10.9572 35.7519C10.9525 35.7151 10.9419 35.6644 10.9253 35.6C10.9022 35.5061 10.8879 35.4269 10.8823 35.3621C10.8766 35.2974 10.8868 35.2327 10.9129 35.1679C10.9389 35.1032 10.9904 35.0478 11.0672 35.0016C11.1812 34.9331 11.2951 34.9209 11.4087 34.9651C11.5235 35.0086 11.6208 35.0967 11.7005 35.2293C11.7816 35.3643 11.8143 35.4927 11.7988 35.6145C11.7844 35.7356 11.7214 35.8336 11.6097 35.9087L11.4157 35.5857C11.4538 35.5596 11.4759 35.5266 11.482 35.4865C11.4892 35.4458 11.4802 35.4044 11.455 35.3625C11.4333 35.3265 11.406 35.3033 11.3729 35.2931C11.341 35.2822 11.307 35.2875 11.2709 35.3092C11.2314 35.333 11.2117 35.3701 11.212 35.4206C11.2122 35.4712 11.2233 35.5437 11.2453 35.6382C11.266 35.7334 11.2789 35.8128 11.2838 35.8764C11.2894 35.9411 11.2798 36.0055 11.2549 36.0695C11.23 36.1336 11.1809 36.1876 11.1076 36.2316C11.0378 36.2736 10.9635 36.2937 10.8848 36.2918C10.8068 36.2912 10.7307 36.2672 10.6564 36.22C10.5821 36.1728 10.5173 36.1032 10.4621 36.0113Z" fill="#875DD8"/>
<path d="M12.3627 36.7381L11.4365 37.3964L11.2348 37.1126L11.3609 37.0229C11.2996 37.0232 11.2384 37.0075 11.1776 36.9758C11.1186 36.9445 11.0679 36.8989 11.0254 36.8391C10.9751 36.7683 10.9462 36.6948 10.9386 36.6185C10.9322 36.5415 10.9482 36.4668 10.9867 36.3945C11.0252 36.3221 11.0849 36.2572 11.1657 36.1998L11.7068 35.8152L11.9073 36.0974L11.4044 36.4548C11.3424 36.4989 11.3057 36.5491 11.2942 36.6056C11.2827 36.6621 11.2962 36.7174 11.3348 36.7717C11.3741 36.827 11.4223 36.8585 11.4794 36.8662C11.5365 36.8739 11.5961 36.8558 11.6581 36.8117L12.161 36.4542L12.3627 36.7381Z" fill="#875DD8"/>
<path d="M12.619 37.1881C12.6814 37.1803 12.7442 37.1889 12.8075 37.2139C12.8707 37.239 12.928 37.2823 12.9793 37.3438C13.0392 37.4158 13.0753 37.4962 13.0874 37.585C13.0996 37.6739 13.0856 37.7632 13.0456 37.8531C13.0065 37.944 12.9421 38.0268 12.8524 38.1015C12.7627 38.1762 12.669 38.2251 12.5715 38.248C12.4759 38.2711 12.385 38.2691 12.2988 38.2419C12.2136 38.2139 12.1411 38.1639 12.0811 38.092C12.0307 38.0314 11.9985 37.9673 11.9844 37.8995C11.9712 37.8328 11.9736 37.7698 11.9915 37.7107L11.4532 38.1591L11.2304 37.8915L12.5197 36.8176L12.7426 37.0851L12.619 37.1881ZM12.6256 37.8292C12.6923 37.7736 12.7289 37.7114 12.7351 37.6426C12.7433 37.5739 12.7248 37.5125 12.6796 37.4582C12.6353 37.405 12.5782 37.3757 12.5084 37.3703C12.4393 37.366 12.3715 37.3916 12.3047 37.4472C12.2379 37.5028 12.2005 37.5649 12.1923 37.6336C12.185 37.7033 12.2035 37.7648 12.2478 37.818C12.2921 37.8712 12.3492 37.9005 12.4191 37.9059C12.49 37.9104 12.5588 37.8849 12.6256 37.8292Z" fill="#875DD8"/>
<path d="M13.4752 38.0942C13.5368 38.0815 13.6001 38.085 13.6652 38.1049C13.7303 38.1249 13.7908 38.1634 13.8468 38.2207C13.9123 38.2877 13.9547 38.3649 13.9739 38.4525C13.9931 38.5401 13.9864 38.6302 13.9537 38.723C13.9219 38.8167 13.8643 38.9044 13.7809 38.9861C13.6974 39.0677 13.608 39.1239 13.5126 39.1545C13.4192 39.1852 13.3284 39.1904 13.2403 39.1703C13.1532 39.1492 13.0768 39.1051 13.0113 39.0382C12.9563 38.9819 12.919 38.9205 12.8996 38.8541C12.8811 38.7886 12.8784 38.7257 12.8915 38.6653L12.3908 39.1553L12.1473 38.9064L13.3467 37.7328L13.5902 37.9817L13.4752 38.0942ZM13.5331 38.7328C13.5952 38.672 13.6266 38.6071 13.6274 38.538C13.63 38.4689 13.6067 38.4091 13.5573 38.3587C13.5089 38.3092 13.4496 38.2845 13.3796 38.2847C13.3104 38.2859 13.2448 38.3169 13.1827 38.3776C13.1206 38.4384 13.0882 38.5033 13.0855 38.5724C13.0838 38.6425 13.1072 38.7023 13.1556 38.7517C13.204 38.8012 13.2633 38.8259 13.3333 38.8257C13.4044 38.8245 13.471 38.7936 13.5331 38.7328Z" fill="#875DD8"/>
<path d="M13.8964 39.8256C13.8124 39.7525 13.7522 39.6686 13.7158 39.5739C13.6805 39.4801 13.6723 39.383 13.6914 39.2826C13.7114 39.183 13.7602 39.0887 13.8378 38.9996C13.9145 38.9116 14.0012 38.8512 14.0981 38.8185C14.1958 38.7848 14.2941 38.7795 14.3929 38.8025C14.4916 38.8255 14.583 38.8735 14.667 38.9466C14.7509 39.0197 14.8111 39.1036 14.8475 39.1983C14.8839 39.293 14.8921 39.391 14.8722 39.4925C14.8531 39.5929 14.8053 39.6872 14.7286 39.7752C14.6519 39.8633 14.5642 39.9237 14.4655 39.9565C14.3686 39.9892 14.2703 39.9936 14.1705 39.9697C14.0717 39.9467 13.9803 39.8987 13.8964 39.8256ZM14.0943 39.5982C14.1444 39.6419 14.203 39.6605 14.2699 39.6539C14.3378 39.6483 14.4016 39.6111 14.4614 39.5425C14.5211 39.4739 14.5496 39.406 14.5469 39.3389C14.5452 39.2726 14.5192 39.2176 14.4691 39.1739C14.4179 39.1294 14.3593 39.1108 14.2934 39.1182C14.2285 39.1247 14.1657 39.1627 14.105 39.2323C14.0453 39.3009 14.0158 39.3679 14.0165 39.4333C14.0182 39.4996 14.0441 39.5546 14.0943 39.5982Z" fill="#875DD8"/>
<path d="M15.1126 39.636C15.1829 39.611 15.253 39.603 15.323 39.6119C15.3938 39.6197 15.4589 39.6463 15.5183 39.6915L15.295 39.9848L15.2188 39.9268C15.1497 39.8741 15.0863 39.8498 15.0288 39.8537C14.972 39.8566 14.9152 39.8952 14.8585 39.9698L14.5389 40.3894L14.2619 40.1784L14.9503 39.2744L15.2274 39.4853L15.1126 39.636Z" fill="#875DD8"/>
<path d="M15.6787 40.9283L15.512 41.1721L15.3658 41.0721C15.2615 41.0008 15.1975 40.9201 15.1737 40.8298C15.1507 40.7384 15.1786 40.635 15.2575 40.5195L15.5127 40.1463L15.3984 40.0682L15.5616 39.8294L15.6759 39.9076L15.8322 39.679L16.1197 39.8755L15.9634 40.1041L16.1516 40.2328L15.9884 40.4715L15.8002 40.3428L15.5427 40.7194C15.5236 40.7474 15.5165 40.7722 15.5215 40.7937C15.5265 40.8152 15.5448 40.8367 15.5761 40.8582L15.6787 40.9283Z" fill="#875DD8"/>
<path d="M17.0157 41.6177L16.8693 41.8742L16.7155 41.7863C16.6058 41.7237 16.5355 41.6484 16.5045 41.5603C16.4741 41.4711 16.4936 41.3657 16.563 41.2443L16.7872 40.8517L16.6669 40.783L16.8103 40.5319L16.9306 40.6006L17.0679 40.3601L17.3703 40.5328L17.233 40.7733L17.431 40.8864L17.2876 41.1375L17.0896 41.0244L16.8634 41.4205C16.8465 41.45 16.8415 41.4752 16.8482 41.4963C16.855 41.5173 16.8748 41.5373 16.9079 41.5561L17.0157 41.6177Z" fill="#875DD8"/>
<path d="M17.8216 42.374C17.7216 42.325 17.6419 42.2594 17.5824 42.1773C17.5241 42.0958 17.4912 42.004 17.4837 41.9021C17.4775 41.8007 17.5004 41.697 17.5524 41.591C17.6038 41.4862 17.6721 41.4055 17.7572 41.349C17.843 41.2913 17.9366 41.2608 18.038 41.2576C18.1393 41.2544 18.24 41.2773 18.34 41.3263C18.4399 41.3753 18.5196 41.4409 18.5792 41.523C18.6387 41.6051 18.6719 41.6978 18.6787 41.8009C18.6862 41.9029 18.6642 42.0063 18.6128 42.1111C18.5614 42.2159 18.4922 42.2969 18.4052 42.354C18.32 42.4106 18.2261 42.4401 18.1236 42.4427C18.0222 42.4459 17.9215 42.423 17.8216 42.374ZM17.9543 42.1034C18.014 42.1327 18.0754 42.1356 18.1383 42.112C18.2025 42.0891 18.2546 42.0367 18.2947 41.9551C18.3347 41.8734 18.3448 41.8005 18.3249 41.7363C18.3062 41.6727 18.267 41.6262 18.2072 41.5969C18.1463 41.567 18.0849 41.5642 18.0232 41.5883C17.9621 41.6112 17.9112 41.6641 17.8705 41.747C17.8304 41.8287 17.8192 41.901 17.8366 41.9641C17.8553 42.0277 17.8946 42.0741 17.9543 42.1034Z" fill="#875DD8"/>
<path d="M20.1031 42.0216L20.0056 42.2939L20.4446 42.4511L20.354 42.7042L19.915 42.5469L19.8092 42.8422L20.3058 43.02L20.2117 43.2827L19.3873 42.9874L19.8694 41.6416L20.6937 41.9368L20.5997 42.1995L20.1031 42.0216Z" fill="#875DD8"/>
<path d="M21.2574 42.3756C21.3856 42.4114 21.4759 42.4817 21.5284 42.5865C21.5825 42.6904 21.5893 42.815 21.5488 42.9601L21.3703 43.5996L21.0369 43.5065L21.2028 42.9122C21.2232 42.8389 21.2201 42.7768 21.1935 42.7256C21.1669 42.6745 21.1216 42.64 21.0575 42.6221C20.9934 42.6042 20.9368 42.6103 20.8875 42.6402C20.8383 42.6702 20.8035 42.7218 20.783 42.795L20.6171 43.3893L20.2817 43.2957L20.5872 42.2012L20.9226 42.2948L20.8821 42.44C20.9296 42.4011 20.986 42.3759 21.0512 42.3645C21.1168 42.3518 21.1855 42.3555 21.2574 42.3756Z" fill="#875DD8"/>
<path d="M21.3411 43.0445C21.3702 42.9314 21.4168 42.8376 21.4809 42.763C21.5464 42.6887 21.6218 42.6381 21.7073 42.611C21.7928 42.584 21.8809 42.5822 21.9716 42.6056C22.0439 42.6242 22.1057 42.6563 22.1571 42.7018C22.2097 42.7476 22.2466 42.8005 22.2675 42.8606L22.3992 42.3499L22.7364 42.4368L22.3602 43.8961L22.023 43.8091L22.0636 43.6514C22.0185 43.6958 21.9623 43.7262 21.895 43.7425C21.8291 43.7591 21.7573 43.7575 21.6797 43.7375C21.589 43.7141 21.5128 43.6699 21.451 43.6049C21.3896 43.5386 21.3482 43.4571 21.3269 43.3605C21.3072 43.2629 21.3119 43.1575 21.3411 43.0445ZM22.1648 43.259C22.1865 43.1748 22.18 43.1023 22.1452 43.0415C22.1117 42.981 22.0615 42.9421 21.9944 42.9248C21.9274 42.9075 21.8639 42.9171 21.804 42.9535C21.7458 42.989 21.7059 43.0488 21.6842 43.1329C21.6625 43.2171 21.6682 43.29 21.7013 43.3519C21.7361 43.4127 21.787 43.4518 21.8541 43.4691C21.9211 43.4863 21.9839 43.4766 22.0425 43.4398C22.1024 43.4034 22.1431 43.3431 22.1648 43.259Z" fill="#875DD8"/>
<path d="M24.8377 42.6032L24.819 42.8816L24.4411 42.8563L24.3642 44.0043L24.0168 43.981L24.0936 42.833L23.7157 42.8077L23.7344 42.5293L24.8377 42.6032Z" fill="#875DD8"/>
<path d="M25.231 42.6091L25.2145 43.4642C25.2129 43.5497 25.2326 43.616 25.2738 43.663C25.315 43.7099 25.3763 43.7342 25.4578 43.7358C25.5392 43.7373 25.6021 43.7155 25.6464 43.6701C25.6907 43.6248 25.7137 43.5594 25.7154 43.4739L25.7319 42.6188L26.08 42.6255L26.0636 43.4786C26.0611 43.6062 26.0319 43.7136 25.9759 43.8007C25.9199 43.8879 25.8453 43.953 25.7521 43.996C25.6603 44.0391 25.5581 44.0595 25.4454 44.0573C25.3328 44.0552 25.2321 44.0315 25.1433 43.9863C25.056 43.9398 24.9873 43.872 24.9375 43.7827C24.8876 43.6922 24.8639 43.5831 24.8664 43.4555L24.8828 42.6024L25.231 42.6091Z" fill="#875DD8"/>
<path d="M26.6318 43.0287C26.661 42.9739 26.7051 42.9283 26.7641 42.892C26.823 42.8557 26.8918 42.8351 26.9704 42.8303C27.0639 42.8245 27.1501 42.843 27.2289 42.8857C27.3077 42.9284 27.3715 42.9925 27.4203 43.0779C27.4705 43.1632 27.4992 43.2641 27.5064 43.3807C27.5136 43.4972 27.4976 43.6016 27.4584 43.6938C27.4205 43.7845 27.3651 43.8566 27.2922 43.9101C27.2193 43.9622 27.136 43.9912 27.0425 43.997C26.9626 44.0019 26.8918 43.9906 26.8303 43.9631C26.7687 43.9343 26.7193 43.8945 26.6821 43.8438L26.6919 44.0023L26.3444 44.0238L26.2514 42.5197L26.599 42.4982L26.6318 43.0287ZM27.1527 43.4025C27.1473 43.3158 27.1188 43.2496 27.067 43.2038C27.0164 43.1566 26.9559 43.1352 26.8855 43.1395C26.8164 43.1438 26.759 43.1725 26.7133 43.2257C26.669 43.2787 26.6495 43.3486 26.6548 43.4353C26.6602 43.5221 26.6881 43.589 26.7387 43.6362C26.7906 43.6834 26.851 43.7048 26.9202 43.7005C26.9893 43.6962 27.0467 43.6675 27.0923 43.6144C27.1379 43.5599 27.1581 43.4893 27.1527 43.4025Z" fill="#875DD8"/>
<path d="M28.6912 43.1753C28.6957 43.2076 28.6984 43.2415 28.6992 43.277L27.9187 43.386C27.9339 43.4551 27.9635 43.5058 28.0078 43.538C28.0532 43.5687 28.1048 43.58 28.1626 43.5719C28.2487 43.5599 28.3034 43.5153 28.3269 43.438L28.694 43.3867C28.6855 43.4633 28.6605 43.5347 28.619 43.6008C28.5789 43.6667 28.5242 43.7216 28.4549 43.7656C28.3856 43.8095 28.3053 43.8378 28.2139 43.8506C28.1036 43.866 28.0022 43.8562 27.9095 43.8211C27.8169 43.7861 27.7403 43.7282 27.6797 43.6476C27.6191 43.5669 27.5806 43.4681 27.5643 43.3511C27.548 43.2342 27.5572 43.1287 27.5921 43.0347C27.6283 42.9406 27.6862 42.864 27.7656 42.8049C27.8451 42.7458 27.9407 42.7085 28.0523 42.6929C28.1612 42.6777 28.2612 42.6871 28.3523 42.7209C28.4434 42.7548 28.5184 42.8109 28.5772 42.889C28.6375 42.967 28.6755 43.0624 28.6912 43.1753ZM28.3256 43.1338C28.3173 43.0747 28.2906 43.0304 28.2454 43.0011C28.2002 42.9718 28.1473 42.9613 28.0868 42.9698C28.029 42.9779 27.9823 43.0015 27.9466 43.0408C27.9123 43.0798 27.8948 43.1309 27.894 43.1941L28.3256 43.1338Z" fill="#875DD8"/>
<path d="M28.7652 42.7429C28.7927 42.6736 28.8329 42.6156 28.8858 42.5689C28.9384 42.5208 29.0013 42.4894 29.0744 42.4745L29.1476 42.8358L29.0538 42.8548C28.9687 42.8721 28.9086 42.9036 28.8736 42.9495C28.8383 42.9941 28.8299 43.0623 28.8485 43.1541L28.9533 43.671L28.612 43.7401L28.3863 42.6265L28.7276 42.5573L28.7652 42.7429Z" fill="#875DD8"/>
<path d="M29.6494 42.9015C29.6189 42.7874 29.6153 42.6816 29.6384 42.5841C29.6629 42.4862 29.7103 42.4033 29.7807 42.3353C29.8524 42.267 29.942 42.2185 30.0496 42.1898C30.1873 42.153 30.3117 42.1584 30.4228 42.2061C30.5352 42.2534 30.6233 42.3387 30.6872 42.4622L30.3291 42.5578C30.2765 42.4819 30.2069 42.4555 30.1203 42.4786C30.0587 42.4951 30.016 42.5325 29.9922 42.5908C29.9681 42.6478 29.9679 42.7209 29.9917 42.8101C30.0155 42.8993 30.0523 42.9633 30.102 43.002C30.1513 43.0394 30.2068 43.0499 30.2684 43.0335C30.355 43.0103 30.4022 42.9528 30.4099 42.8608L30.768 42.7652C30.7735 42.9015 30.7395 43.0187 30.6659 43.117C30.5924 43.2154 30.4874 43.2827 30.351 43.3191C30.2435 43.3478 30.1416 43.3505 30.0454 43.327C29.9505 43.3031 29.868 43.2548 29.7981 43.1822C29.7294 43.1092 29.6798 43.0156 29.6494 42.9015Z" fill="#875DD8"/>
<path d="M31.644 41.7468L32.0192 42.8194L31.6904 42.9344L31.6394 42.7883C31.6226 42.8474 31.5906 42.9017 31.5432 42.9514C31.4967 42.9993 31.4388 43.0353 31.3696 43.0595C31.2876 43.0882 31.2089 43.0956 31.1336 43.0817C31.0578 43.0665 30.9905 43.0303 30.9317 42.9732C30.8729 42.9161 30.8271 42.8408 30.7944 42.7472L30.5753 42.1206L30.902 42.0063L31.1057 42.5887C31.1308 42.6605 31.1689 42.7098 31.22 42.7365C31.271 42.7632 31.3279 42.7656 31.3907 42.7436C31.4548 42.7212 31.4985 42.6837 31.5218 42.6309C31.545 42.5782 31.5441 42.516 31.519 42.4442L31.3153 41.8618L31.644 41.7468Z" fill="#875DD8"/>
<path d="M31.8142 41.2301L32.3857 42.6245L32.0634 42.7566L31.492 41.3622L31.8142 41.2301Z" fill="#875DD8"/>
<path d="M33.2303 42.2688C33.1298 42.3167 33.0289 42.3385 32.9276 42.3341C32.8275 42.3292 32.7352 42.298 32.6506 42.2406C32.5673 42.1825 32.5003 42.1002 32.4494 41.9936C32.3992 41.8882 32.3784 41.7846 32.387 41.6827C32.395 41.5796 32.4292 41.4873 32.4896 41.4059C32.5501 41.3244 32.6305 41.2598 32.731 41.2119C32.8315 41.164 32.9324 41.1422 33.0337 41.1465C33.1351 41.1508 33.2283 41.1824 33.3134 41.241C33.398 41.2985 33.4654 41.3799 33.5156 41.4853C33.5658 41.5907 33.5863 41.6952 33.5771 41.7989C33.5685 41.9008 33.5334 41.9927 33.4717 42.0747C33.4113 42.1562 33.3308 42.2209 33.2303 42.2688ZM33.1006 41.9967C33.1607 41.9681 33.201 41.9218 33.2217 41.8578C33.2435 41.7932 33.2349 41.7199 33.1958 41.6378C33.1566 41.5557 33.1057 41.5025 33.043 41.4782C32.9815 41.4534 32.9208 41.4553 32.8607 41.4839C32.7994 41.5131 32.7591 41.5594 32.7397 41.6228C32.7197 41.685 32.7296 41.7578 32.7693 41.8411C32.8084 41.9232 32.8581 41.977 32.9184 42.0024C32.9798 42.0272 33.0406 42.0253 33.1006 41.9967Z" fill="#875DD8"/>
<path d="M34.4615 41.6285C34.3754 41.6777 34.2903 41.7067 34.2063 41.7156C34.1223 41.7245 34.0463 41.7147 33.9785 41.6862C33.91 41.6566 33.8552 41.6113 33.8141 41.5503L34.113 41.3796C34.136 41.4118 34.1677 41.4304 34.2082 41.4355C34.2486 41.4406 34.2894 41.4313 34.3307 41.4077C34.3684 41.3862 34.3932 41.3626 34.4052 41.337C34.4177 41.3096 34.4172 41.2841 34.4037 41.2605C34.3876 41.2322 34.361 41.22 34.3242 41.2239C34.2866 41.2265 34.2301 41.2385 34.1547 41.2597C34.0745 41.2836 34.0058 41.3001 33.9485 41.3094C33.8906 41.3174 33.8334 41.3118 33.777 41.2924C33.72 41.2718 33.6722 41.228 33.6339 41.1608C33.6015 41.1042 33.5876 41.0441 33.592 40.9806C33.5969 40.9153 33.6217 40.8519 33.6663 40.7905C33.7121 40.7283 33.7769 40.6734 33.8606 40.6256C33.9844 40.5549 34.0991 40.53 34.2049 40.5509C34.3118 40.5712 34.3995 40.6289 34.468 40.7243L34.1886 40.8838C34.1644 40.8523 34.1336 40.834 34.0962 40.8287C34.06 40.8228 34.0213 40.8317 33.98 40.8552C33.9446 40.8754 33.9215 40.898 33.9108 40.9229C33.8993 40.9466 33.9003 40.9703 33.9138 40.9939C33.9299 41.0222 33.9568 41.035 33.9943 41.0323C34.0331 41.0289 34.0883 41.0162 34.16 40.994C34.2439 40.9711 34.3142 40.9559 34.371 40.9485C34.427 40.94 34.484 40.9466 34.5417 40.9683C34.6 40.9882 34.6492 41.032 34.6894 41.0997C34.7224 41.1575 34.7355 41.2188 34.7288 41.2836C34.7225 41.3466 34.6962 41.4085 34.6497 41.4695C34.6044 41.5297 34.5416 41.5828 34.4615 41.6285Z" fill="#875DD8"/>
<path d="M34.2971 40.2038C34.2456 40.2366 34.1937 40.2486 34.1416 40.24C34.0898 40.2295 34.0497 40.2019 34.0213 40.1572C33.9922 40.1114 33.9841 40.0634 33.9973 40.0132C34.0108 39.9611 34.0433 39.9187 34.0949 39.8859C34.1453 39.8539 34.1964 39.8431 34.2481 39.8536C34.3003 39.8622 34.3409 39.8895 34.3701 39.9353C34.3985 39.98 34.4059 40.0283 34.3924 40.0804C34.3793 40.1306 34.3475 40.1717 34.2971 40.2038ZM34.5066 40.2105L35.1166 41.1692L34.8228 41.3562L34.2128 40.3974L34.5066 40.2105Z" fill="#875DD8"/>
<path d="M35.776 40.7632C35.6952 40.8207 35.6135 40.858 35.5307 40.8751C35.448 40.8923 35.3715 40.8901 35.3011 40.8684C35.23 40.8457 35.171 40.806 35.1241 40.7494L35.4046 40.55C35.4307 40.5798 35.4642 40.5952 35.5049 40.5962C35.5456 40.5972 35.5853 40.584 35.624 40.5565C35.6594 40.5313 35.6818 40.5054 35.6912 40.4787C35.7009 40.4502 35.6979 40.4249 35.6822 40.4027C35.6633 40.3762 35.6357 40.3666 35.5994 40.3741C35.5623 40.3805 35.5072 40.398 35.4342 40.4265C35.3568 40.4582 35.2901 40.4815 35.234 40.4964C35.1772 40.5101 35.1197 40.5102 35.0617 40.4964C35.0029 40.4816 34.951 40.4427 34.9062 40.3796C34.8685 40.3265 34.8486 40.2681 34.8467 40.2045C34.8451 40.139 34.8635 40.0735 34.9019 40.0079C34.9413 39.9416 35.0003 39.8805 35.0789 39.8246C35.1951 39.7421 35.3068 39.7059 35.4141 39.7163C35.5225 39.7259 35.6155 39.7747 35.6931 39.8628L35.4309 40.0492C35.4036 40.0202 35.3711 40.005 35.3334 40.0035C35.2968 40.0012 35.2592 40.0138 35.2204 40.0413C35.1872 40.0649 35.1665 40.0897 35.1582 40.1155C35.1492 40.1403 35.1525 40.1637 35.1682 40.1859C35.1871 40.2124 35.2151 40.2225 35.2522 40.2161C35.2904 40.209 35.3441 40.1908 35.4133 40.1616C35.4945 40.1305 35.563 40.1085 35.6187 40.0955C35.6737 40.0815 35.731 40.0824 35.7906 40.0983C35.8505 40.1123 35.9038 40.151 35.9506 40.2144C35.9891 40.2687 36.0082 40.3284 36.0079 40.3935C36.0079 40.4568 35.9878 40.5211 35.9476 40.5863C35.9084 40.6508 35.8513 40.7098 35.776 40.7632Z" fill="#875DD8"/>
<path d="M37.4156 39.8501C37.2335 39.8387 37.0501 39.7805 36.8652 39.6754C36.6804 39.5703 36.5135 39.4296 36.3645 39.2534C36.2138 39.075 36.1021 38.8841 36.0296 38.6805C35.9562 38.4759 35.9317 38.2798 35.9561 38.092L36.2173 37.8712L36.2384 37.896C36.2207 38.0959 36.2462 38.2965 36.3151 38.4978C36.3831 38.6981 36.4846 38.8781 36.6196 39.0378C36.7537 39.1964 36.9115 39.3252 37.0929 39.4242C37.2744 39.5233 37.4626 39.5829 37.6574 39.603L37.6784 39.6279L37.4156 39.8501Z" fill="#875DD8"/>
<path d="M38.1427 38.809C38.0672 38.8813 37.9878 38.9339 37.9045 38.9666C37.8212 38.9994 37.7384 39.0091 37.6562 38.9958C37.5748 38.9815 37.5008 38.9415 37.4341 38.8757L37.7018 38.6194C37.7423 38.6539 37.7837 38.6706 37.826 38.6696C37.8673 38.6677 37.9062 38.6493 37.9424 38.6146C37.9797 38.5789 38.0012 38.5424 38.0068 38.5051C38.0114 38.4667 37.9992 38.4324 37.9701 38.402C37.9457 38.3765 37.9167 38.3639 37.8831 38.3641C37.8505 38.3634 37.8162 38.3698 37.7804 38.3835C37.7456 38.3961 37.6985 38.4177 37.6393 38.4481C37.5529 38.4913 37.4787 38.5228 37.4169 38.5426C37.355 38.5624 37.2896 38.5667 37.2207 38.5556C37.1518 38.5445 37.0864 38.5066 37.0244 38.4419C36.9324 38.3458 36.8954 38.2374 36.9134 38.1168C36.9304 37.9952 36.9949 37.8809 37.1067 37.7739C37.2204 37.665 37.3384 37.6047 37.4606 37.5929C37.5819 37.5802 37.6914 37.6201 37.7893 37.7125L37.5171 37.973C37.4833 37.9415 37.4461 37.9273 37.4057 37.9302C37.3644 37.9322 37.3261 37.9501 37.2908 37.9839C37.2604 38.013 37.2438 38.0448 37.2412 38.0793C37.2375 38.1128 37.2503 38.1448 37.2794 38.1752C37.3113 38.2085 37.3519 38.2195 37.4011 38.2081C37.4503 38.1967 37.5186 38.1699 37.6059 38.1276C37.6942 38.0863 37.7688 38.0562 37.8297 38.0374C37.8916 38.0176 37.9565 38.0128 38.0245 38.0229C38.0924 38.0331 38.156 38.069 38.2151 38.1308C38.2715 38.1896 38.3074 38.2576 38.323 38.3348C38.3396 38.411 38.3331 38.4906 38.3034 38.5735C38.2738 38.6563 38.2202 38.7349 38.1427 38.809Z" fill="#875DD8"/>
<path d="M38.0962 37.1516L38.3115 37.3447L38.6228 36.9974L38.8229 37.1769L38.5116 37.5241L38.7451 37.7335L39.0972 37.3407L39.305 37.527L38.7204 38.179L37.656 37.2247L38.2405 36.5727L38.4483 36.7589L38.0962 37.1516Z" fill="#875DD8"/>
<path d="M38.9962 35.5287L39.2163 35.7001L38.9835 35.999L39.8912 36.706L39.6773 36.9807L38.7695 36.2737L38.5368 36.5725L38.3167 36.4011L38.9962 35.5287Z" fill="#875DD8"/>
<path d="M39.2212 35.1785L39.9325 35.6534C40.0037 35.7009 40.0701 35.72 40.1319 35.7106C40.1936 35.7012 40.2471 35.6627 40.2923 35.5949C40.3376 35.5272 40.3531 35.4624 40.3388 35.4007C40.3245 35.3389 40.2818 35.2843 40.2107 35.2368L39.4993 34.7619L39.6927 34.4723L40.4023 34.9461C40.5085 35.0169 40.5832 35.0994 40.6264 35.1936C40.6696 35.2877 40.6843 35.3857 40.6703 35.4873C40.657 35.5878 40.6191 35.685 40.5566 35.7787C40.494 35.8724 40.4198 35.9445 40.3339 35.9949C40.2476 36.0434 40.1535 36.0646 40.0514 36.0585C39.9483 36.0516 39.8436 36.0128 39.7375 35.9419L39.0278 35.4682L39.2212 35.1785Z" fill="#875DD8"/>
<path d="M40.9688 35.8593L40.9424 35.8403C40.907 35.6476 40.8329 35.4647 40.72 35.2915C40.6072 35.1183 40.4664 34.9711 40.2978 34.8498C40.1281 34.7277 39.9407 34.6405 39.7357 34.5884C39.5296 34.5355 39.3277 34.5256 39.1298 34.5589L39.1034 34.5398L39.3032 34.2621C39.4884 34.2231 39.6859 34.2323 39.8956 34.2895C40.1042 34.3459 40.3033 34.4423 40.4928 34.5787C40.6802 34.7134 40.8335 34.8689 40.9526 35.0449C41.0718 35.221 41.1442 35.3993 41.1698 35.58L40.9688 35.8593Z" fill="#875DD8"/>
<path d="M17.7737 35.6176H17.2915L16.4851 34.3966V35.6176H16.0029V33.6381H16.4851L17.2915 34.8647V33.6381H17.7737V35.6176ZM18.3657 33.8806C18.2811 33.8806 18.2116 33.8562 18.157 33.8073C18.1044 33.7566 18.0781 33.6945 18.0781 33.6212C18.0781 33.546 18.1044 33.484 18.157 33.4351C18.2116 33.3844 18.2811 33.359 18.3657 33.359C18.4484 33.359 18.5161 33.3844 18.5687 33.4351C18.6232 33.484 18.6505 33.546 18.6505 33.6212C18.6505 33.6945 18.6232 33.7566 18.5687 33.8073C18.5161 33.8562 18.4484 33.8806 18.3657 33.8806ZM18.6054 34.0442V35.6176H18.1232V34.0442H18.6054ZM20.1673 34.4277V34.828H18.9266V34.4277H20.1673ZM21.5519 35.6176L21.0726 34.9577V35.6176H20.5904V33.531H21.0726V34.6842L21.5491 34.0442H22.1441L21.4899 34.8337L22.1497 35.6176H21.5519ZM22.9735 35.6401C22.8363 35.6401 22.7141 35.6166 22.607 35.5696C22.4998 35.5226 22.4152 35.4587 22.3532 35.3779C22.2912 35.2952 22.2564 35.2031 22.2489 35.1016H22.7254C22.731 35.1561 22.7564 35.2002 22.8015 35.2341C22.8466 35.2679 22.9021 35.2848 22.9679 35.2848C23.028 35.2848 23.0741 35.2736 23.106 35.251C23.1399 35.2266 23.1568 35.1955 23.1568 35.1579C23.1568 35.1128 23.1333 35.0799 23.0863 35.0593C23.0393 35.0367 22.9632 35.0123 22.8579 34.9859C22.7451 34.9596 22.6511 34.9324 22.5759 34.9042C22.5007 34.8741 22.4359 34.828 22.3814 34.766C22.3269 34.7021 22.2996 34.6166 22.2996 34.5094C22.2996 34.4192 22.324 34.3374 22.3729 34.2641C22.4237 34.1889 22.497 34.1297 22.5929 34.0865C22.6906 34.0432 22.8062 34.0216 22.9397 34.0216C23.1371 34.0216 23.2921 34.0705 23.4049 34.1682C23.5196 34.266 23.5854 34.3957 23.6023 34.5574H23.1568C23.1493 34.5028 23.1248 34.4596 23.0835 34.4277C23.044 34.3957 22.9914 34.3797 22.9256 34.3797C22.8692 34.3797 22.8259 34.391 22.7959 34.4136C22.7658 34.4342 22.7508 34.4634 22.7508 34.501C22.7508 34.5461 22.7743 34.5799 22.8212 34.6025C22.8701 34.625 22.9453 34.6476 23.0468 34.6701C23.1634 34.7002 23.2583 34.7303 23.3316 34.7604C23.4049 34.7886 23.4688 34.8356 23.5233 34.9014C23.5797 34.9653 23.6089 35.0517 23.6108 35.1608C23.6108 35.2529 23.5844 35.3356 23.5318 35.4089C23.4811 35.4803 23.4068 35.5367 23.3091 35.5781C23.2132 35.6194 23.1013 35.6401 22.9735 35.6401ZM24.8729 34.0273C25.0534 34.0273 25.1981 34.0874 25.3071 34.2077C25.4162 34.3261 25.4707 34.4897 25.4707 34.6983V35.6176H24.9913V34.7632C24.9913 34.6579 24.9641 34.5762 24.9095 34.5179C24.855 34.4596 24.7817 34.4305 24.6896 34.4305C24.5975 34.4305 24.5242 34.4596 24.4697 34.5179C24.4152 34.5762 24.3879 34.6579 24.3879 34.7632V35.6176H23.9057V33.531H24.3879V34.2557C24.4368 34.1861 24.5035 34.1306 24.5881 34.0893C24.6727 34.0479 24.7676 34.0273 24.8729 34.0273ZM25.7099 34.828C25.7099 34.6664 25.7399 34.5245 25.8001 34.4023C25.8621 34.2801 25.9458 34.1861 26.051 34.1203C26.1563 34.0545 26.2738 34.0216 26.4035 34.0216C26.5144 34.0216 26.6112 34.0442 26.6939 34.0893C26.7785 34.1344 26.8434 34.1936 26.8885 34.2669V34.0442H27.3706V35.6176H26.8885V35.3948C26.8415 35.4681 26.7757 35.5273 26.6911 35.5724C26.6084 35.6176 26.5116 35.6401 26.4007 35.6401C26.2728 35.6401 26.1563 35.6072 26.051 35.5414C25.9458 35.4738 25.8621 35.3788 25.8001 35.2566C25.7399 35.1326 25.7099 34.9897 25.7099 34.828ZM26.8885 34.8309C26.8885 34.7106 26.8546 34.6156 26.787 34.5461C26.7212 34.4765 26.6403 34.4417 26.5445 34.4417C26.4486 34.4417 26.3668 34.4765 26.2992 34.5461C26.2334 34.6137 26.2005 34.7077 26.2005 34.828C26.2005 34.9484 26.2334 35.0442 26.2992 35.1157C26.3668 35.1852 26.4486 35.22 26.5445 35.22C26.6403 35.22 26.7212 35.1852 26.787 35.1157C26.8546 35.0461 26.8885 34.9512 26.8885 34.8309ZM29.3267 34.0442L28.3398 36.3648H27.821L28.1819 35.564L27.5418 34.0442H28.0804L28.4441 35.0282L28.805 34.0442H29.3267ZM30.8148 35.6373C30.67 35.6373 30.5403 35.6138 30.4256 35.5668C30.311 35.5198 30.2189 35.4503 30.1493 35.3581C30.0816 35.266 30.0459 35.1551 30.0422 35.0254H30.5554C30.5629 35.0987 30.5882 35.1551 30.6315 35.1946C30.6747 35.2322 30.7311 35.251 30.8007 35.251C30.8721 35.251 30.9285 35.235 30.9698 35.2031C31.0112 35.1692 31.0319 35.1232 31.0319 35.0649C31.0319 35.016 31.015 34.9756 30.9811 34.9437C30.9492 34.9117 30.9088 34.8854 30.8599 34.8647C30.8129 34.844 30.7452 34.8205 30.6569 34.7942C30.529 34.7547 30.4247 34.7153 30.3439 34.6758C30.263 34.6363 30.1935 34.578 30.1352 34.501C30.0769 34.4239 30.0478 34.3233 30.0478 34.1993C30.0478 34.015 30.1145 33.8712 30.248 33.7678C30.3815 33.6626 30.5554 33.6099 30.7696 33.6099C30.9877 33.6099 31.1635 33.6626 31.2969 33.7678C31.4304 33.8712 31.5018 34.016 31.5112 34.2021H30.9896C30.9858 34.1382 30.9623 34.0883 30.9191 34.0526C30.8759 34.015 30.8204 33.9962 30.7527 33.9962C30.6945 33.9962 30.6475 34.0122 30.6117 34.0442C30.576 34.0743 30.5582 34.1184 30.5582 34.1767C30.5582 34.2406 30.5882 34.2904 30.6484 34.3261C30.7086 34.3619 30.8025 34.4004 30.9304 34.4417C31.0582 34.485 31.1616 34.5263 31.2405 34.5658C31.3214 34.6053 31.3909 34.6626 31.4492 34.7378C31.5075 34.813 31.5366 34.9098 31.5366 35.0282C31.5366 35.141 31.5075 35.2435 31.4492 35.3356C31.3928 35.4277 31.3101 35.501 31.2011 35.5555C31.092 35.61 30.9633 35.6373 30.8148 35.6373ZM32.3155 34.0244V34.4248H32.9612V34.797H32.3155V35.2313H33.0458V35.6176H31.8333V33.6381H33.0458V34.0244H32.3155ZM34.7828 33.6381V34.0244H34.2583V35.6176H33.7761V34.0244H33.2517V33.6381H34.7828ZM35.4984 33.6381V34.8224C35.4984 34.9408 35.5276 35.032 35.5859 35.0959C35.6441 35.1598 35.7297 35.1918 35.8424 35.1918C35.9552 35.1918 36.0417 35.1598 36.1019 35.0959C36.162 35.032 36.1921 34.9408 36.1921 34.8224V33.6381H36.6742V34.8196C36.6742 34.9963 36.6367 35.1457 36.5615 35.2679C36.4863 35.3901 36.3848 35.4822 36.2569 35.5442C36.131 35.6063 35.99 35.6373 35.834 35.6373C35.678 35.6373 35.5379 35.6072 35.4139 35.5471C35.2917 35.485 35.1949 35.3929 35.1234 35.2707C35.052 35.1467 35.0163 34.9963 35.0163 34.8196V33.6381H35.4984Z" fill="black"/>
<path d="M17.7737 35.6176H17.2915L16.4851 34.3966V35.6176H16.0029V33.6381H16.4851L17.2915 34.8647V33.6381H17.7737V35.6176ZM18.3657 33.8806C18.2811 33.8806 18.2116 33.8562 18.157 33.8073C18.1044 33.7566 18.0781 33.6945 18.0781 33.6212C18.0781 33.546 18.1044 33.484 18.157 33.4351C18.2116 33.3844 18.2811 33.359 18.3657 33.359C18.4484 33.359 18.5161 33.3844 18.5687 33.4351C18.6232 33.484 18.6505 33.546 18.6505 33.6212C18.6505 33.6945 18.6232 33.7566 18.5687 33.8073C18.5161 33.8562 18.4484 33.8806 18.3657 33.8806ZM18.6054 34.0442V35.6176H18.1232V34.0442H18.6054ZM20.1673 34.4277V34.828H18.9266V34.4277H20.1673ZM21.5519 35.6176L21.0726 34.9577V35.6176H20.5904V33.531H21.0726V34.6842L21.5491 34.0442H22.1441L21.4899 34.8337L22.1497 35.6176H21.5519ZM22.9735 35.6401C22.8363 35.6401 22.7141 35.6166 22.607 35.5696C22.4998 35.5226 22.4152 35.4587 22.3532 35.3779C22.2912 35.2952 22.2564 35.2031 22.2489 35.1016H22.7254C22.731 35.1561 22.7564 35.2002 22.8015 35.2341C22.8466 35.2679 22.9021 35.2848 22.9679 35.2848C23.028 35.2848 23.0741 35.2736 23.106 35.251C23.1399 35.2266 23.1568 35.1955 23.1568 35.1579C23.1568 35.1128 23.1333 35.0799 23.0863 35.0593C23.0393 35.0367 22.9632 35.0123 22.8579 34.9859C22.7451 34.9596 22.6511 34.9324 22.5759 34.9042C22.5007 34.8741 22.4359 34.828 22.3814 34.766C22.3269 34.7021 22.2996 34.6166 22.2996 34.5094C22.2996 34.4192 22.324 34.3374 22.3729 34.2641C22.4237 34.1889 22.497 34.1297 22.5929 34.0865C22.6906 34.0432 22.8062 34.0216 22.9397 34.0216C23.1371 34.0216 23.2921 34.0705 23.4049 34.1682C23.5196 34.266 23.5854 34.3957 23.6023 34.5574H23.1568C23.1493 34.5028 23.1248 34.4596 23.0835 34.4277C23.044 34.3957 22.9914 34.3797 22.9256 34.3797C22.8692 34.3797 22.8259 34.391 22.7959 34.4136C22.7658 34.4342 22.7508 34.4634 22.7508 34.501C22.7508 34.5461 22.7743 34.5799 22.8212 34.6025C22.8701 34.625 22.9453 34.6476 23.0468 34.6701C23.1634 34.7002 23.2583 34.7303 23.3316 34.7604C23.4049 34.7886 23.4688 34.8356 23.5233 34.9014C23.5797 34.9653 23.6089 35.0517 23.6108 35.1608C23.6108 35.2529 23.5844 35.3356 23.5318 35.4089C23.4811 35.4803 23.4068 35.5367 23.3091 35.5781C23.2132 35.6194 23.1013 35.6401 22.9735 35.6401ZM24.8729 34.0273C25.0534 34.0273 25.1981 34.0874 25.3071 34.2077C25.4162 34.3261 25.4707 34.4897 25.4707 34.6983V35.6176H24.9913V34.7632C24.9913 34.6579 24.9641 34.5762 24.9095 34.5179C24.855 34.4596 24.7817 34.4305 24.6896 34.4305C24.5975 34.4305 24.5242 34.4596 24.4697 34.5179C24.4152 34.5762 24.3879 34.6579 24.3879 34.7632V35.6176H23.9057V33.531H24.3879V34.2557C24.4368 34.1861 24.5035 34.1306 24.5881 34.0893C24.6727 34.0479 24.7676 34.0273 24.8729 34.0273ZM25.7099 34.828C25.7099 34.6664 25.7399 34.5245 25.8001 34.4023C25.8621 34.2801 25.9458 34.1861 26.051 34.1203C26.1563 34.0545 26.2738 34.0216 26.4035 34.0216C26.5144 34.0216 26.6112 34.0442 26.6939 34.0893C26.7785 34.1344 26.8434 34.1936 26.8885 34.2669V34.0442H27.3706V35.6176H26.8885V35.3948C26.8415 35.4681 26.7757 35.5273 26.6911 35.5724C26.6084 35.6176 26.5116 35.6401 26.4007 35.6401C26.2728 35.6401 26.1563 35.6072 26.051 35.5414C25.9458 35.4738 25.8621 35.3788 25.8001 35.2566C25.7399 35.1326 25.7099 34.9897 25.7099 34.828ZM26.8885 34.8309C26.8885 34.7106 26.8546 34.6156 26.787 34.5461C26.7212 34.4765 26.6403 34.4417 26.5445 34.4417C26.4486 34.4417 26.3668 34.4765 26.2992 34.5461C26.2334 34.6137 26.2005 34.7077 26.2005 34.828C26.2005 34.9484 26.2334 35.0442 26.2992 35.1157C26.3668 35.1852 26.4486 35.22 26.5445 35.22C26.6403 35.22 26.7212 35.1852 26.787 35.1157C26.8546 35.0461 26.8885 34.9512 26.8885 34.8309ZM29.3267 34.0442L28.3398 36.3648H27.821L28.1819 35.564L27.5418 34.0442H28.0804L28.4441 35.0282L28.805 34.0442H29.3267ZM30.8148 35.6373C30.67 35.6373 30.5403 35.6138 30.4256 35.5668C30.311 35.5198 30.2189 35.4503 30.1493 35.3581C30.0816 35.266 30.0459 35.1551 30.0422 35.0254H30.5554C30.5629 35.0987 30.5882 35.1551 30.6315 35.1946C30.6747 35.2322 30.7311 35.251 30.8007 35.251C30.8721 35.251 30.9285 35.235 30.9698 35.2031C31.0112 35.1692 31.0319 35.1232 31.0319 35.0649C31.0319 35.016 31.015 34.9756 30.9811 34.9437C30.9492 34.9117 30.9088 34.8854 30.8599 34.8647C30.8129 34.844 30.7452 34.8205 30.6569 34.7942C30.529 34.7547 30.4247 34.7153 30.3439 34.6758C30.263 34.6363 30.1935 34.578 30.1352 34.501C30.0769 34.4239 30.0478 34.3233 30.0478 34.1993C30.0478 34.015 30.1145 33.8712 30.248 33.7678C30.3815 33.6626 30.5554 33.6099 30.7696 33.6099C30.9877 33.6099 31.1635 33.6626 31.2969 33.7678C31.4304 33.8712 31.5018 34.016 31.5112 34.2021H30.9896C30.9858 34.1382 30.9623 34.0883 30.9191 34.0526C30.8759 34.015 30.8204 33.9962 30.7527 33.9962C30.6945 33.9962 30.6475 34.0122 30.6117 34.0442C30.576 34.0743 30.5582 34.1184 30.5582 34.1767C30.5582 34.2406 30.5882 34.2904 30.6484 34.3261C30.7086 34.3619 30.8025 34.4004 30.9304 34.4417C31.0582 34.485 31.1616 34.5263 31.2405 34.5658C31.3214 34.6053 31.3909 34.6626 31.4492 34.7378C31.5075 34.813 31.5366 34.9098 31.5366 35.0282C31.5366 35.141 31.5075 35.2435 31.4492 35.3356C31.3928 35.4277 31.3101 35.501 31.2011 35.5555C31.092 35.61 30.9633 35.6373 30.8148 35.6373ZM32.3155 34.0244V34.4248H32.9612V34.797H32.3155V35.2313H33.0458V35.6176H31.8333V33.6381H33.0458V34.0244H32.3155ZM34.7828 33.6381V34.0244H34.2583V35.6176H33.7761V34.0244H33.2517V33.6381H34.7828ZM35.4984 33.6381V34.8224C35.4984 34.9408 35.5276 35.032 35.5859 35.0959C35.6441 35.1598 35.7297 35.1918 35.8424 35.1918C35.9552 35.1918 36.0417 35.1598 36.1019 35.0959C36.162 35.032 36.1921 34.9408 36.1921 34.8224V33.6381H36.6742V34.8196C36.6742 34.9963 36.6367 35.1457 36.5615 35.2679C36.4863 35.3901 36.3848 35.4822 36.2569 35.5442C36.131 35.6063 35.99 35.6373 35.834 35.6373C35.678 35.6373 35.5379 35.6072 35.4139 35.5471C35.2917 35.485 35.1949 35.3929 35.1234 35.2707C35.052 35.1467 35.0163 34.9963 35.0163 34.8196V33.6381H35.4984Z" fill="url(#paint7_linear_149_5248)"/>
<mask id="mask0_149_5248" style="mask-type:luminance" maskUnits="userSpaceOnUse" x="32" y="27" width="7" height="7">
<mask id="mask1_149_5248" style="mask-type:luminance" maskUnits="userSpaceOnUse" x="32" y="27" width="7" height="7">
<path d="M32.9336 33.2347L38.4461 33.2347L38.4461 27.3091L32.9336 27.3091L32.9336 33.2347Z" fill="white"/>
</mask>
<g mask="url(#mask1_149_5248)">
<path fill-rule="evenodd" clip-rule="evenodd" d="M32.9336 33.2347L38.4461 33.2347L38.4461 27.3091L32.9336 27.3091L32.9336 33.2347Z" fill="url(#paint8_linear_149_5248)"/>
</g>
</mask>
<g mask="url(#mask0_149_5248)">
<path fill-rule="evenodd" clip-rule="evenodd" d="M37.6445 32.4174C36.8539 32.7319 36.0776 33.0022 35.3181 33.2291L35.3021 32.0034L33.3748 31.9951C32.8445 31.8927 32.9539 31.3852 32.954 30.8706C32.9545 30.3338 32.8243 29.7981 33.3748 29.6867L35.3165 29.6613L35.3274 27.7342C35.4311 27.2057 35.9383 27.315 36.4518 27.3152C36.9746 27.3154 37.5297 27.1932 37.6358 27.7342L37.6611 29.6783L38.4534 29.6818C38.3943 30.4398 38.3019 31.2173 38.1778 32.0135L37.6467 32.0204L37.6445 32.4174Z" fill="white"/>
</g>
<mask id="mask2_149_5248" style="mask-type:luminance" maskUnits="userSpaceOnUse" x="32" y="27" width="7" height="7">
<mask id="mask3_149_5248" style="mask-type:luminance" maskUnits="userSpaceOnUse" x="32" y="27" width="7" height="7">
<path d="M32.9336 33.2347L38.4461 33.2347L38.4461 27.3091L32.9336 27.3091L32.9336 33.2347Z" fill="white"/>
</mask>
<g mask="url(#mask3_149_5248)">
<path fill-rule="evenodd" clip-rule="evenodd" d="M32.9336 33.2347L38.4461 33.2347L38.4461 27.3091L32.9336 27.3091L32.9336 33.2347Z" fill="url(#paint9_linear_149_5248)"/>
</g>
</mask>
<g mask="url(#mask2_149_5248)">
<path fill-rule="evenodd" clip-rule="evenodd" d="M37.6445 32.4174C36.8539 32.7319 36.0776 33.0022 35.3181 33.2291L35.3021 32.0034L33.3748 31.9951C32.8445 31.8927 32.9539 31.3852 32.954 30.8706C32.9545 30.3338 32.8243 29.7981 33.3748 29.6867L35.3165 29.6613L35.3274 27.7342C35.4311 27.2057 35.9383 27.315 36.4518 27.3152C36.9746 27.3154 37.5297 27.1932 37.6358 27.7342L37.6611 29.6783L38.4534 29.6818C38.3943 30.4398 38.3019 31.2173 38.1778 32.0135L37.6467 32.0204L37.6445 32.4174Z" fill="white"/>
</g>
<mask id="mask4_149_5248" style="mask-type:luminance" maskUnits="userSpaceOnUse" x="32" y="27" width="7" height="7">
<mask id="mask5_149_5248" style="mask-type:luminance" maskUnits="userSpaceOnUse" x="32" y="27" width="7" height="7">
<path d="M32.9336 33.2347L38.4461 33.2347L38.4461 27.3091L32.9336 27.3091L32.9336 33.2347Z" fill="white"/>
</mask>
<g mask="url(#mask5_149_5248)">
<path fill-rule="evenodd" clip-rule="evenodd" d="M32.9336 33.2347L38.4461 33.2347L38.4461 27.3091L32.9336 27.3091L32.9336 33.2347Z" fill="url(#paint10_linear_149_5248)"/>
</g>
</mask>
<g mask="url(#mask4_149_5248)">
<path fill-rule="evenodd" clip-rule="evenodd" d="M37.6445 32.4174C36.8539 32.7319 36.0776 33.0022 35.3181 33.2291L35.3021 32.0034L33.3748 31.9951C32.8445 31.8927 32.9539 31.3852 32.954 30.8706C32.9545 30.3338 32.8243 29.7981 33.3748 29.6867L35.3165 29.6613L35.3274 27.7342C35.4311 27.2057 35.9383 27.315 36.4518 27.3152C36.9746 27.3154 37.5297 27.1932 37.6358 27.7342L37.6611 29.6783L38.4534 29.6818C38.3943 30.4398 38.3019 31.2173 38.1778 32.0135L37.6467 32.0204L37.6445 32.4174Z" fill="white"/>
</g>
<g clip-path="url(#clip1_149_5248)">
<path d="M19.0786 27.9839H18.8632V31.6455C18.8632 31.7312 18.8292 31.8134 18.7686 31.874C18.708 31.9346 18.6258 31.9686 18.5401 31.9686H17.2176C16.9334 31.9689 16.6532 32.0352 16.3991 32.1625L16.2074 32.2573C16.1628 32.2801 16.1133 32.292 16.0631 32.2917C15.9865 32.2872 15.9124 32.2631 15.8477 32.2217C15.8187 32.2056 15.7842 32.1873 15.74 32.1668H15.7293C15.4752 32.0395 15.195 31.9732 14.9108 31.9729H13.5861C13.5004 31.9729 13.4183 31.9389 13.3577 31.8783C13.2971 31.8177 13.263 31.7355 13.263 31.6499V27.9839H13.0476C13.0191 27.9839 12.9917 27.9952 12.9715 28.0154C12.9513 28.0356 12.9399 28.063 12.9399 28.0916V32.3994C12.9399 32.428 12.9513 32.4554 12.9715 32.4756C12.9917 32.4958 13.0191 32.5071 13.0476 32.5071H19.0786C19.1072 32.5071 19.1346 32.4958 19.1548 32.4756C19.175 32.4554 19.1863 32.428 19.1863 32.3994V28.0916C19.1863 28.063 19.175 28.0356 19.1548 28.0154C19.1346 27.9952 19.1072 27.9839 19.0786 27.9839Z" fill="url(#paint11_linear_149_5248)"/>
<path d="M15.92 27.7918C15.6295 27.6462 15.311 27.5646 14.9863 27.5527V30.0297C14.9862 30.0491 14.9808 30.0681 14.9708 30.0848C14.9608 30.1014 14.9465 30.115 14.9294 30.1241C14.9123 30.1333 14.8931 30.1376 14.8737 30.1368C14.8543 30.1359 14.8355 30.1298 14.8193 30.1191L14.5555 29.9436L14.2916 30.1191C14.2754 30.1298 14.2566 30.1359 14.2373 30.1368C14.2179 30.1376 14.1986 30.1333 14.1815 30.1241C14.1644 30.115 14.1501 30.1014 14.1401 30.0848C14.1301 30.0681 14.1248 30.0491 14.1247 30.0297V27.5527H13.5862C13.5576 27.5527 13.5303 27.5641 13.5101 27.5843C13.4899 27.6045 13.4785 27.6319 13.4785 27.6604V31.6452C13.4785 31.6737 13.4899 31.7011 13.5101 31.7213C13.5303 31.7415 13.5576 31.7529 13.5862 31.7529H14.9087C15.2264 31.7526 15.5399 31.8264 15.8241 31.9683C15.8801 31.992 15.9211 32.0146 15.9555 32.0329V27.8091L15.92 27.7918ZM18.5402 27.5527H17.2177C16.8667 27.5533 16.5206 27.6352 16.2065 27.7918L16.1709 27.8091V32.035L16.3023 31.9683C16.5866 31.8264 16.9 31.7526 17.2177 31.7529H18.5402C18.5688 31.7529 18.5962 31.7415 18.6164 31.7213C18.6366 31.7011 18.6479 31.6737 18.6479 31.6452V27.6604C18.6479 27.6319 18.6366 27.6045 18.6164 27.5843C18.5962 27.5641 18.5688 27.5527 18.5402 27.5527ZM16.7094 29.4913H17.585V29.7067H16.7094V29.4913ZM16.7094 30.3528H17.585V30.5682H16.7094V30.3528ZM18.0017 30.999H16.7094V30.7836H18.0017V30.999ZM18.0017 30.1374H16.7094V29.922H18.0017V30.1374ZM18.0017 29.2759H16.7094V29.0605H18.0017V29.2759Z" fill="url(#paint12_linear_149_5248)"/>
</g>
<mask id="mask6_149_5248" style="mask-type:luminance" maskUnits="userSpaceOnUse" x="27" y="20" width="7" height="13">
<mask id="mask7_149_5248" style="mask-type:luminance" maskUnits="userSpaceOnUse" x="27" y="20" width="7" height="13">
<path d="M33.9297 32.7894L27.2802 32.7894L27.2802 20.7195L33.9297 20.7195L33.9297 32.7894Z" fill="white"/>
</mask>
<g mask="url(#mask7_149_5248)">
<path fill-rule="evenodd" clip-rule="evenodd" d="M33.9297 32.7894L27.2802 32.7894L27.2802 20.7195L33.9297 20.7195L33.9297 32.7894Z" fill="url(#paint13_linear_149_5248)"/>
</g>
</mask>
<g mask="url(#mask6_149_5248)">
<path opacity="0.8" fill-rule="evenodd" clip-rule="evenodd" d="M29.6553 26.4899C28.8241 27.9373 29.2935 28.8475 29.9993 29.7359C30.3415 30.094 31.8092 31.9371 33.2771 31.8131L33.9453 32.7487C33.5953 32.7987 33.2338 32.8017 32.8689 32.7631C32.2004 32.6314 31.5185 32.4403 30.8614 32.1604C29.5428 31.5116 28.379 30.4225 27.7852 29.1875C27.5865 28.678 27.4546 28.169 27.3784 27.6674C27.3431 27.3662 27.3158 27.05 27.2974 26.7165C27.2726 25.4887 27.5516 24.3339 27.9543 23.3584C28.0807 23.0524 28.2192 22.764 28.3644 22.4966C28.7879 21.7164 29.2678 21.1142 29.6662 20.7713C29.7134 20.736 29.7571 20.7199 29.7961 20.7196C29.9452 20.7183 30.0265 20.9466 29.978 21.2121C29.8561 22.1221 28.1756 24.8274 29.9993 24.4262L32.5371 23.6847C32.9474 23.62 32.9226 24.0578 32.7187 24.179C31.5096 24.7881 30.2966 25.4668 29.6553 26.4899ZM30.4628 22.1034C29.9963 22.1034 29.6182 22.4815 29.6182 22.9481C29.6182 23.4145 29.9963 23.7926 30.4628 23.7926C30.9293 23.7926 31.3074 23.4145 31.3074 22.9481C31.3074 22.4815 30.9293 22.1034 30.4628 22.1034Z" fill="#B9ADD6"/>
</g>
<mask id="mask8_149_5248" style="mask-type:luminance" maskUnits="userSpaceOnUse" x="16" y="20" width="8" height="13">
<mask id="mask9_149_5248" style="mask-type:luminance" maskUnits="userSpaceOnUse" x="16" y="20" width="8" height="13">
<path d="M23.6055 32.7894L16.9559 32.7894L16.9559 20.7195L23.6055 20.7195L23.6055 32.7894Z" fill="white"/>
</mask>
<g mask="url(#mask9_149_5248)">
<path fill-rule="evenodd" clip-rule="evenodd" d="M23.6055 32.7894L16.9559 32.7894L16.9559 20.7195L23.6055 20.7195L23.6055 32.7894Z" fill="url(#paint14_linear_149_5248)"/>
</g>
</mask>
<g mask="url(#mask8_149_5248)">
<path opacity="0.8" fill-rule="evenodd" clip-rule="evenodd" d="M21.2523 26.4899C22.0835 27.9373 21.6142 28.8475 20.9083 29.7359C20.5661 30.094 19.0985 31.9371 17.6305 31.8131L16.9623 32.7487C17.3124 32.7987 17.6738 32.8017 18.0388 32.7631C18.7072 32.6314 19.3892 32.4403 20.0463 32.1604C21.3648 31.5116 22.5286 30.4225 23.1224 29.1875C23.3212 28.678 23.453 28.169 23.5292 27.6674C23.5644 27.3662 23.5918 27.05 23.6103 26.7165C23.6351 25.4887 23.3561 24.3339 22.9533 23.3584C22.8269 23.0524 22.6884 22.764 22.5432 22.4966C22.1198 21.7164 21.6399 21.1142 21.2414 20.7713C21.1942 20.736 21.1506 20.7199 21.1115 20.7196C20.9624 20.7183 20.881 20.9466 20.9297 21.2121C21.0516 22.1221 22.732 24.8274 20.9083 24.4262L18.3705 23.6847C17.9603 23.62 17.985 24.0578 18.189 24.179C19.398 24.7881 20.6111 25.4668 21.2523 26.4899ZM20.4449 22.1034C20.9114 22.1034 21.2895 22.4815 21.2895 22.9481C21.2895 23.4145 20.9114 23.7926 20.4449 23.7926C19.9783 23.7926 19.6002 23.4145 19.6002 22.9481C19.6002 22.4815 19.9783 22.1034 20.4449 22.1034Z" fill="#B9ADD6"/>
</g>
</g>
<defs>
<linearGradient id="paint0_linear_149_5248" x1="25.4649" y1="25.9571" x2="25.1075" y2="15.9858" gradientUnits="userSpaceOnUse">
<stop stop-color="#9C5ED7"/>
<stop offset="0.5" stop-color="#635AD9"/>
<stop offset="1" stop-color="#E8A0A0"/>
</linearGradient>
<linearGradient id="paint1_linear_149_5248" x1="17.9262" y1="33.302" x2="17.4709" y2="15.3439" gradientUnits="userSpaceOnUse">
<stop stop-color="#9C5ED7"/>
<stop offset="0.5" stop-color="#635AD9"/>
<stop offset="1" stop-color="#E8A0A0"/>
</linearGradient>
<linearGradient id="paint2_linear_149_5248" x1="32.9605" y1="33.302" x2="33.4159" y2="15.3439" gradientUnits="userSpaceOnUse">
<stop stop-color="#9C5ED7"/>
<stop offset="0.5" stop-color="#635AD9"/>
<stop offset="1" stop-color="#E8A0A0"/>
</linearGradient>
<linearGradient id="paint3_linear_149_5248" x1="20.4385" y1="22.2204" x2="21.7459" y2="15.2832" gradientUnits="userSpaceOnUse">
<stop stop-color="#9C5ED7"/>
<stop offset="0.5" stop-color="#635AD9"/>
<stop offset="1" stop-color="#E8A0A0"/>
</linearGradient>
<linearGradient id="paint4_linear_149_5248" x1="28.8385" y1="23.1191" x2="29.1768" y2="15.355" gradientUnits="userSpaceOnUse">
<stop stop-color="#9C5ED7"/>
<stop offset="0.5" stop-color="#635AD9"/>
<stop offset="1" stop-color="#E8A0A0"/>
</linearGradient>
<linearGradient id="paint5_linear_149_5248" x1="25.4451" y1="9.84461" x2="25.4451" y2="42.0316" gradientUnits="userSpaceOnUse">
<stop stop-color="#F48B26"/>
<stop offset="1" stop-color="#EEB57E"/>
</linearGradient>
<linearGradient id="paint6_linear_149_5248" x1="25.4448" y1="51.8019" x2="24.733" y2="5.90984" gradientUnits="userSpaceOnUse">
<stop stop-color="#9C5ED7"/>
<stop offset="0.5" stop-color="#635AD9"/>
<stop offset="1" stop-color="#E8A0A0"/>
</linearGradient>
<linearGradient id="paint7_linear_149_5248" x1="26.8281" y1="36.6176" x2="26.8218" y2="33.6176" gradientUnits="userSpaceOnUse">
<stop stop-color="#9C5ED7"/>
<stop offset="0.5" stop-color="#635AD9"/>
<stop offset="1" stop-color="#E8A0A0"/>
</linearGradient>
<linearGradient id="paint8_linear_149_5248" x1="24.7141" y1="13.3919" x2="37.6403" y2="32.026" gradientUnits="userSpaceOnUse">
<stop stop-color="white"/>
<stop offset="1" stop-color="white" stop-opacity="0"/>
</linearGradient>
<linearGradient id="paint9_linear_149_5248" x1="24.7141" y1="13.3919" x2="37.6403" y2="32.026" gradientUnits="userSpaceOnUse">
<stop stop-color="white"/>
<stop offset="1" stop-color="white" stop-opacity="0"/>
</linearGradient>
<linearGradient id="paint10_linear_149_5248" x1="24.7141" y1="13.3919" x2="37.6403" y2="32.026" gradientUnits="userSpaceOnUse">
<stop offset="0.774" stop-color="white"/>
<stop offset="1" stop-color="white" stop-opacity="0"/>
</linearGradient>
<linearGradient id="paint11_linear_149_5248" x1="6.3393" y1="34.0579" x2="14.8265" y2="25.0612" gradientUnits="userSpaceOnUse">
<stop offset="0.54285" stop-color="white" stop-opacity="0"/>
<stop offset="1" stop-color="white" stop-opacity="0.8"/>
</linearGradient>
<linearGradient id="paint12_linear_149_5248" x1="8.01591" y1="33.5718" x2="16.3785" y2="26.1686" gradientUnits="userSpaceOnUse">
<stop offset="0.54285" stop-color="white" stop-opacity="0"/>
<stop offset="1" stop-color="white" stop-opacity="0.8"/>
</linearGradient>
<linearGradient id="paint13_linear_149_5248" x1="28.5872" y1="24.6157" x2="28.5872" y2="29.9867" gradientUnits="userSpaceOnUse">
<stop stop-color="white"/>
<stop offset="1" stop-color="white" stop-opacity="0"/>
</linearGradient>
<linearGradient id="paint14_linear_149_5248" x1="22.2994" y1="24.6157" x2="22.2994" y2="29.9867" gradientUnits="userSpaceOnUse">
<stop stop-color="white"/>
<stop offset="1" stop-color="white" stop-opacity="0"/>
</linearGradient>
<clipPath id="clip0_149_5248">
<rect x="0.398438" y="0.5" width="50" height="50" rx="25" fill="white"/>
</clipPath>
<clipPath id="clip1_149_5248">
<rect width="6.89254" height="6.89254" fill="white" transform="translate(12.6172 26.6918)"/>
</clipPath>
</defs>
</svg>
