<svg width="87" height="83" viewBox="0 0 87 83" fill="none" xmlns="http://www.w3.org/2000/svg">
<path d="M43.6689 20.2102L43.6934 18.3046M43.6934 18.3046L45.2976 16.741C45.8167 16.2351 46.1135 15.5436 46.1228 14.8188L46.2336 6.18032C46.2505 4.86351 45.1967 3.78232 43.8799 3.76542V3.76542C42.5631 3.74853 41.4819 4.80232 41.465 6.11914L41.3542 14.7576C41.3449 15.4825 41.6239 16.1813 42.1299 16.7004L43.6934 18.3046Z" stroke="url(#paint0_linear_166_5377)" stroke-width="1.3666" stroke-linecap="round" stroke-linejoin="round"/>
<path d="M68.0444 32.6642C68.7842 32.6642 69.4938 32.9581 70.0169 33.4812C70.54 34.0044 70.8339 34.7139 70.8339 35.4537C70.8339 36.1935 70.54 36.903 70.0169 37.4262C69.4938 37.9493 68.7842 38.2432 68.0444 38.2432C67.3046 38.2432 66.5951 37.9493 66.072 37.4262C65.5488 36.903 65.2549 36.1935 65.2549 35.4537C65.2549 34.7139 65.5488 34.0044 66.072 33.4812C66.5951 32.9581 67.3046 32.6642 68.0444 32.6642Z" fill="url(#paint1_linear_166_5377)"/>
<path d="M74.6114 52.2752L75.0479 53.6267H74.175L74.6114 52.2752Z" fill="url(#paint2_linear_166_5377)"/>
<path fill-rule="evenodd" clip-rule="evenodd" d="M73.4071 49.5702C72.8592 49.6439 72.561 49.7797 72.3468 49.9939C72.1327 50.208 71.9968 50.5062 71.9232 51.0541C71.8475 51.6167 71.8464 52.3611 71.8464 53.4224C71.8464 54.4837 71.8475 55.2281 71.9232 55.7908C71.9968 56.3386 72.1327 56.6368 72.3468 56.851C72.561 57.0652 72.8592 57.201 73.4071 57.2746C73.9697 57.3503 74.7141 57.3514 75.7754 57.3514C76.8367 57.3514 77.5811 57.3503 78.1437 57.2746C78.6916 57.201 78.9898 57.0652 79.204 56.851C79.4181 56.6368 79.554 56.3386 79.6276 55.7908C79.7033 55.2281 79.7044 54.4837 79.7044 53.4224C79.7044 52.3611 79.7033 51.6167 79.6276 51.0541C79.554 50.5062 79.4181 50.208 79.204 49.9939C78.9898 49.7797 78.6916 49.6439 78.1437 49.5702C77.5811 49.4945 76.8367 49.4935 75.7754 49.4935C74.7141 49.4935 73.9697 49.4945 73.4071 49.5702ZM75.1922 51.4128C75.0213 51.2949 74.8182 51.2329 74.6107 51.2351C74.4035 51.2332 74.2007 51.2953 74.0301 51.4132C73.8565 51.5332 73.7252 51.7047 73.6546 51.9035L73.6499 51.9175L72.6523 55.0066C72.5653 55.276 72.7131 55.5648 72.9824 55.6518C73.2518 55.7388 73.5406 55.591 73.6276 55.3216L73.844 54.6517H75.3789L75.5952 55.3216C75.6822 55.591 75.971 55.7388 76.2404 55.6518C76.5097 55.5648 76.6575 55.276 76.5706 55.0066L75.573 51.9175L75.5682 51.9035C75.4976 51.7045 75.366 51.5328 75.1922 51.4128ZM77.7911 51.2352C78.0742 51.2352 78.3036 51.4646 78.3036 51.7477V55.1641C78.3036 55.4472 78.0742 55.6766 77.7911 55.6766C77.5081 55.6766 77.2787 55.4472 77.2787 55.1641V51.7477C77.2787 51.4646 77.5081 51.2352 77.7911 51.2352Z" fill="url(#paint3_linear_166_5377)"/>
<path fill-rule="evenodd" clip-rule="evenodd" d="M27.9808 14.0456C18.103 18.1079 6.90698 30.9842 2.97973 42.7994C-1.00004 54.7728 -0.575195 68.2894 3.96853 74.2467C6.1173 77.0631 9.95318 78.1699 15.5055 77.5746C19.683 77.1272 25.9452 75.419 27.0199 74.4349L28.4228 73.8085C30.9808 72.6661 33.2891 71.0315 35.2161 68.9979C39.5228 64.4518 40.6053 60.1227 40.6941 44.3622C40.6946 44.2678 40.6872 44.1749 40.6725 44.0842L40.6975 44.09V41.9739C39.0696 41.5129 37.5372 40.6322 36.2701 39.3322C32.4141 35.376 32.4954 29.0429 36.4516 25.187C40.4078 21.331 46.7409 21.4122 50.5969 25.3684C52.723 27.5498 53.6521 30.4539 53.3946 33.2668L53.6042 33.4766L53.7485 33.3349L53.7501 33.3333C54.0338 33.0569 54.4143 32.9022 54.8105 32.9022C55.2066 32.9022 55.5871 33.0569 55.8708 33.3333L55.8723 33.3348L60.0884 37.476C60.2292 37.6133 60.3421 37.7783 60.4186 37.9595C60.4952 38.1411 60.5347 38.3362 60.5347 38.5333C60.5347 38.7305 60.4952 38.9256 60.4186 39.1072C60.3421 39.2883 60.2303 39.4523 60.0895 39.5896L58.6882 40.9689C58.4047 41.2463 58.0226 41.4028 57.6259 41.4028C57.2292 41.4028 56.8483 41.2474 56.5648 40.97L54.7168 39.1567C54.2095 39.6562 53.7907 40.2396 53.4794 40.8824C53.1005 41.6645 52.8892 42.5171 52.8591 43.3856C52.8289 44.2541 52.9805 45.1193 53.3042 45.9258C53.6279 46.7323 54.1165 47.4623 54.7387 48.069C55.9587 49.26 57.5964 49.9269 59.3014 49.9269C59.3451 49.9269 59.3888 49.9264 59.4324 49.9256C59.4545 49.9226 59.4771 49.9211 59.5 49.9211L59.5165 49.9214L59.5384 49.9226C61.1573 49.8638 62.7001 49.205 63.8634 48.0696C64.4199 47.5237 64.8689 46.8808 65.1896 46.1747H62.7524C62.4694 46.1747 62.2399 45.9453 62.2399 45.6623C62.2399 45.3792 62.4694 45.1498 62.7524 45.1498H68.3195C68.6026 45.1498 68.832 45.3792 68.832 45.6623C68.832 45.9453 68.6026 46.1747 68.3195 46.1747H66.2995C65.9234 47.1628 65.3375 48.0593 64.5807 48.8018C63.3398 50.0131 61.7248 50.7565 60.0124 50.9183V53.102H67.4522C67.7352 53.102 67.9647 53.3315 67.9647 53.6145C67.9647 53.8975 67.7352 54.127 67.4522 54.127H52.3424C52.0594 54.127 51.8299 53.8975 51.8299 53.6145C51.8299 53.3315 52.0594 53.102 52.3424 53.102H58.9875V50.9453C57.1288 50.8681 55.3594 50.1073 54.0229 48.8027C53.2986 48.0963 52.7298 47.2465 52.353 46.3076C51.9762 45.3686 51.7996 44.3612 51.8348 43.35C51.8699 42.3388 52.1159 41.3461 52.5569 40.4355C52.9168 39.6925 53.4002 39.0175 53.9851 38.4387L52.3689 36.8529C51.8831 37.8169 51.2317 38.718 50.4154 39.5137C49.2157 40.6829 47.8002 41.4888 46.3019 41.9356C46.2665 41.9462 46.231 41.9565 46.1954 41.9667V44.0785C46.1801 44.1711 46.1724 44.2658 46.1729 44.3622C46.2617 60.1227 47.3442 64.4518 51.6509 68.9979C51.7104 69.0607 51.7702 69.123 51.8304 69.185V59.1236C51.8304 58.2698 52.1696 57.451 52.7733 56.8473C53.377 56.2435 54.1958 55.9044 55.0496 55.9044H64.0721C64.9259 55.9044 65.7447 56.2435 66.3485 56.8473C66.9522 57.451 67.2913 58.2698 67.2913 59.1236V76.8971C68.705 77.1991 70.1246 77.4421 71.3615 77.5746C76.9138 78.1699 80.7497 77.0631 82.8985 74.2467C87.4422 68.2894 87.8671 54.7728 83.8873 42.7994C79.96 30.9842 68.764 18.1079 58.8862 14.0456C54.5307 12.2542 50.7392 11.9657 48.9314 13.2873C48.0082 13.9622 47.3326 16.3877 46.8804 20.7985C44.6363 20.1311 42.2341 20.1297 39.9865 20.7982C39.5343 16.3876 38.8587 13.9622 37.9356 13.2873C36.1278 11.9657 32.3363 12.2542 27.9808 14.0456ZM69.1072 29.6753C69.1072 29.3922 68.8778 29.1628 68.5947 29.1628H67.4941C67.2111 29.1628 66.9816 29.3922 66.9816 29.6753C66.9816 29.9583 67.2111 30.1877 67.4941 30.1877H67.5319V31.6738C66.8784 31.7624 66.2588 32.0191 65.734 32.4186L64.683 31.3675L64.7097 31.3408C64.9098 31.1407 64.9098 30.8162 64.7097 30.6161C64.5096 30.4159 64.1851 30.4159 63.9849 30.6161L63.2068 31.3942C63.0066 31.5944 63.0066 31.9188 63.2068 32.119C63.4069 32.3191 63.7314 32.3191 63.9315 32.119L63.9582 32.0923L65.0093 33.1433C64.6098 33.668 64.3531 34.2877 64.2645 34.9412H62.7785V34.9034C62.7785 34.6203 62.549 34.3909 62.266 34.3909C61.9829 34.3909 61.7535 34.6203 61.7535 34.9034V36.004C61.7535 36.2871 61.9829 36.5165 62.266 36.5165C62.549 36.5165 62.7785 36.2871 62.7785 36.004V35.9662H64.2645C64.3531 36.6197 64.6098 37.2394 65.0093 37.7641L63.9582 38.8151L63.9315 38.7884C63.7314 38.5883 63.4069 38.5883 63.2068 38.7884C63.0066 38.9886 63.0066 39.313 63.2068 39.5132L63.9849 40.2913C64.1851 40.4915 64.5096 40.4915 64.7097 40.2913C64.9098 40.0912 64.9098 39.7667 64.7097 39.5666L64.683 39.5399L65.734 38.4888C66.2588 38.8883 66.8784 39.145 67.5319 39.2336V40.7197H67.4941C67.2111 40.7197 66.9816 40.9491 66.9816 41.2321C66.9816 41.5152 67.2111 41.7446 67.4941 41.7446H68.5947C68.8778 41.7446 69.1072 41.5152 69.1072 41.2321C69.1072 40.9491 68.8778 40.7197 68.5947 40.7197H68.5569V39.2336C69.2104 39.145 69.8301 38.8883 70.3548 38.4888L71.4059 39.5399L71.3792 39.5666C71.179 39.7667 71.179 40.0912 71.3792 40.2913C71.5793 40.4915 71.9038 40.4915 72.1039 40.2913L72.8821 39.5132C73.0822 39.313 73.0822 38.9886 72.8821 38.7884C72.6819 38.5883 72.3574 38.5883 72.1573 38.7884L72.1306 38.8151L71.0796 37.7641C71.479 37.2394 71.7357 36.6197 71.8243 35.9662H73.3104V36.004C73.3104 36.2871 73.5398 36.5165 73.8229 36.5165C74.1059 36.5165 74.3353 36.2871 74.3353 36.004V34.9034C74.3353 34.6203 74.1059 34.3909 73.8229 34.3909C73.5398 34.3909 73.3104 34.6203 73.3104 34.9034V34.9412H71.8243C71.7357 34.2877 71.479 33.668 71.0796 33.1433L72.1306 32.0923L72.1573 32.119C72.3574 32.3191 72.6819 32.3191 72.8821 32.119C73.0822 31.9188 73.0822 31.5944 72.8821 31.3942L72.1039 30.6161C71.9038 30.4159 71.5793 30.4159 71.3792 30.6161C71.179 30.8162 71.179 31.1407 71.3792 31.3408L71.4059 31.3675L70.3548 32.4186C69.8301 32.0191 69.2104 31.7624 68.5569 31.6738V30.1877H68.5947C68.8778 30.1877 69.1072 29.9583 69.1072 29.6753ZM80.1834 59.7764L76.8637 58.3719C77.4091 58.3645 77.8792 58.3444 78.2803 58.2904C78.9419 58.2015 79.4924 58.0121 79.9287 57.5757C80.365 57.1394 80.5545 56.5889 80.6434 55.9274C80.7293 55.2886 80.7293 54.4752 80.7293 53.4606V53.4493C80.8803 53.4422 80.9925 53.4275 81.0928 53.3971C81.3079 53.3318 81.5036 53.2145 81.6624 53.0555C81.8213 52.8965 81.9385 52.7007 82.0037 52.4856C82.0624 52.2923 82.0624 52.0538 82.0624 51.5768V49.0145C82.1984 49.0145 82.3287 48.9605 82.4248 48.8644C82.5209 48.7683 82.5749 48.6379 82.5749 48.502C82.5749 48.3661 82.5209 48.2357 82.4248 48.1396C82.3287 48.0435 82.1984 47.9895 82.0624 47.9895C81.9265 47.9895 81.7962 48.0435 81.7001 48.1396C81.604 48.2357 81.55 48.3661 81.55 48.502C81.55 48.6379 81.604 48.7683 81.7001 48.8644C81.7962 48.9605 81.9265 49.0145 82.0624 49.0145L80.7224 52.1818C80.7133 51.7006 80.6923 51.2808 80.6434 50.9175C80.5545 50.2559 80.365 49.7054 79.9287 49.2691C79.4924 48.8328 78.9419 48.6434 78.2803 48.5544C77.6414 48.4685 76.8279 48.4685 75.8132 48.4685H75.7353C75.7282 48.3176 75.7136 48.2054 75.6832 48.105C75.6179 47.8899 75.5005 47.6943 75.3415 47.5354C75.1825 47.3765 74.9868 47.2593 74.7717 47.1942C74.5783 47.1354 74.3398 47.1354 73.8629 47.1354H71.3005C71.3005 46.9995 71.2465 46.8691 71.1504 46.773C71.0543 46.6769 70.924 46.6229 70.788 46.6229C70.6521 46.6229 70.5218 46.6769 70.4257 46.773C70.3296 46.8691 70.2756 46.9995 70.2756 47.1354C70.2756 47.2713 70.3296 47.4017 70.4257 47.4978C70.5218 47.5939 70.6521 47.6479 70.788 47.6479C70.924 47.6479 71.0543 47.5939 71.1504 47.4978C71.2465 47.4017 71.3005 47.2713 71.3005 47.1354L74.4708 48.4767C74.0163 48.4864 73.6176 48.5077 73.2705 48.5544C72.6089 48.6434 72.0584 48.8328 71.6221 49.2691C71.1858 49.7054 70.9963 50.2559 70.9074 50.9175C70.8215 51.5564 70.8215 52.3699 70.8215 53.3846V53.4599C70.6358 53.4658 70.5057 53.48 70.391 53.5147C70.176 53.58 69.9803 53.6973 69.8214 53.8563C69.6626 54.0153 69.5454 54.2111 69.4802 54.4262C69.4214 54.6196 69.4214 54.858 69.4214 55.335V57.8973C69.2855 57.8973 69.1552 57.9513 69.0591 58.0474C68.963 58.1436 68.909 58.2739 68.909 58.4098C68.909 58.5457 68.963 58.6761 69.0591 58.7722C69.1552 58.8683 69.2855 58.9223 69.4214 58.9223C69.5574 58.9223 69.6877 58.8683 69.7838 58.7722C69.8799 58.6761 69.9339 58.5457 69.9339 58.4098C69.9339 58.2739 69.8799 58.1436 69.7838 58.0474C69.6877 57.9513 69.5574 57.8973 69.4214 57.8973L70.8269 54.5754C70.835 55.0934 70.8556 55.5421 70.9074 55.9274C70.9963 56.5889 71.1858 57.1394 71.6221 57.5757C72.0584 58.0121 72.6089 58.2015 73.2705 58.2904C73.9093 58.3764 74.7229 58.3763 75.7375 58.3763H75.746C75.7518 58.562 75.766 58.6922 75.8007 58.8068C75.866 59.0219 75.9834 59.2175 76.1424 59.3764C76.3014 59.5353 76.4971 59.6525 76.7122 59.7176C76.9056 59.7764 77.1441 59.7764 77.621 59.7764H80.1834ZM80.1834 59.7764C80.1834 59.9123 80.2374 60.0427 80.3335 60.1388C80.4296 60.2349 80.5599 60.2889 80.6958 60.2889C80.8318 60.2889 80.9621 60.2349 81.0582 60.1388C81.1543 60.0427 81.2083 59.9123 81.2083 59.7764C81.2083 59.6405 81.1543 59.5101 81.0582 59.414C80.9621 59.3179 80.8318 59.2639 80.6958 59.2639C80.5599 59.2639 80.4296 59.3179 80.3335 59.414C80.2374 59.5101 80.1834 59.6405 80.1834 59.7764Z" fill="url(#paint4_linear_166_5377)"/>
<path d="M58.2906 67.4223C58.2151 67.3798 58.0995 67.4276 58.0995 67.5467V70.5502C58.0995 70.6693 58.2152 70.7167 58.2904 70.6742L60.9567 69.1701C60.9734 69.161 60.9898 69.1458 61.0023 69.1243C61.0148 69.1026 61.0222 69.0763 61.0222 69.0483C61.0222 69.0204 61.0148 68.9941 61.0023 68.9724C60.9898 68.9508 60.9734 68.9357 60.9567 68.9265L60.9524 68.9242L58.2906 67.4223Z" fill="url(#paint5_linear_166_5377)"/>
<path fill-rule="evenodd" clip-rule="evenodd" d="M66.2664 76.6677V59.1236C66.2664 58.5416 66.0352 57.9835 65.6237 57.572C65.2122 57.1605 64.6541 56.9293 64.0721 56.9293H62.3138V57.5647C62.3138 57.942 62.0078 58.248 61.6305 58.248H58.0215C57.6441 58.248 57.3382 57.942 57.3382 57.5647V56.9293H55.0496C54.4677 56.9293 53.9095 57.1605 53.498 57.572C53.0865 57.9835 52.8554 58.5416 52.8554 59.1236V70.1727C54.5139 71.6674 56.3992 72.8952 58.4443 73.8085L59.8471 74.4349C60.5264 75.0569 63.2784 75.9683 66.2664 76.6677ZM58.7938 66.5295C58.0121 66.0888 57.0746 66.6699 57.0746 67.5467V70.5502C57.0746 71.4265 58.0119 72.0083 58.794 71.5669L61.4543 70.0662C61.6361 69.9653 61.7857 69.8166 61.8892 69.638C61.9931 69.4586 62.0472 69.2549 62.0472 69.0483C62.0472 68.8418 61.9931 68.638 61.8892 68.4587C61.7857 68.28 61.6361 68.1313 61.4543 68.0304L58.7938 66.5295Z" fill="url(#paint6_linear_166_5377)"/>
<path d="M53.9247 34.5987L53.0614 35.4472L53.0596 35.4489C53.0165 35.4909 52.9822 35.5411 52.9588 35.5966C52.9354 35.652 52.9233 35.7116 52.9233 35.7718C52.9233 35.832 52.9354 35.8916 52.9588 35.947C52.9822 36.0025 53.0165 36.0527 53.0596 36.0947L53.0611 36.0961L57.2817 40.2375C57.3737 40.3274 57.4973 40.3778 57.6259 40.3778C57.7545 40.3778 57.8783 40.3272 57.9703 40.2374L59.3714 38.8582L59.3735 38.8562C59.4166 38.8142 59.4509 38.764 59.4743 38.7086C59.4977 38.6531 59.5098 38.5935 59.5098 38.5333C59.5098 38.4732 59.4977 38.4136 59.4743 38.3581C59.4509 38.3027 59.4166 38.2524 59.3735 38.2105L55.155 34.0669C55.0627 33.9772 54.9391 33.9271 54.8105 33.9271C54.6818 33.9271 54.5576 33.9779 54.4653 34.0674L53.9956 34.5291C53.9859 34.5406 53.9757 34.5517 53.9649 34.5625C53.952 34.5754 53.9386 34.5875 53.9247 34.5987Z" fill="url(#paint7_linear_166_5377)"/>
<defs>
<linearGradient id="paint0_linear_166_5377" x1="43.7897" y1="20.2102" x2="43.7897" y2="3.11529" gradientUnits="userSpaceOnUse">
<stop stop-color="#98CED5"/>
<stop offset="1" stop-color="#2D9BAC"/>
</linearGradient>
<linearGradient id="paint1_linear_166_5377" x1="43.4335" y1="15.4975" x2="42.6748" y2="73.5214" gradientUnits="userSpaceOnUse">
<stop stop-color="#98CED5"/>
<stop offset="1" stop-color="#394F89"/>
</linearGradient>
<linearGradient id="paint2_linear_166_5377" x1="43.4335" y1="15.4975" x2="42.6748" y2="73.5214" gradientUnits="userSpaceOnUse">
<stop stop-color="#98CED5"/>
<stop offset="1" stop-color="#394F89"/>
</linearGradient>
<linearGradient id="paint3_linear_166_5377" x1="43.4335" y1="15.4975" x2="42.6748" y2="73.5214" gradientUnits="userSpaceOnUse">
<stop stop-color="#98CED5"/>
<stop offset="1" stop-color="#394F89"/>
</linearGradient>
<linearGradient id="paint4_linear_166_5377" x1="43.4335" y1="15.4975" x2="42.6748" y2="73.5214" gradientUnits="userSpaceOnUse">
<stop stop-color="#98CED5"/>
<stop offset="1" stop-color="#394F89"/>
</linearGradient>
<linearGradient id="paint5_linear_166_5377" x1="43.4335" y1="15.4975" x2="42.6748" y2="73.5214" gradientUnits="userSpaceOnUse">
<stop stop-color="#98CED5"/>
<stop offset="1" stop-color="#394F89"/>
</linearGradient>
<linearGradient id="paint6_linear_166_5377" x1="43.4335" y1="15.4975" x2="42.6748" y2="73.5214" gradientUnits="userSpaceOnUse">
<stop stop-color="#98CED5"/>
<stop offset="1" stop-color="#394F89"/>
</linearGradient>
<linearGradient id="paint7_linear_166_5377" x1="43.4335" y1="15.4975" x2="42.6748" y2="73.5214" gradientUnits="userSpaceOnUse">
<stop stop-color="#98CED5"/>
<stop offset="1" stop-color="#394F89"/>
</linearGradient>
</defs>
</svg>
