<svg width="51" height="51" viewBox="0 0 51 51" fill="none" xmlns="http://www.w3.org/2000/svg">
<g clip-path="url(#clip0_5133_24706)">
<path d="M24.2526 21.4288C24.2165 22.8932 23.0655 23.7788 22.5156 24.026L22.558 25.7118C23.1597 25.2741 24.4072 24.3527 24.5836 24.1686C24.804 23.9386 25.312 23.6894 25.6187 24.0728C25.8641 24.3795 26.8967 25.1463 27.3823 25.4913L27.472 23.7871C26.3315 23.3271 25.6745 22.3516 25.6745 21.4288V14.9648C25.6745 14.5738 25.3575 14.2578 24.9666 14.2578C24.5732 14.2578 24.2554 14.5776 24.2581 14.9709C24.2719 16.9312 24.2845 20.1374 24.2526 21.4288Z" fill="url(#paint0_linear_5133_24706)"/>
<path d="M19.626 13.6531C17.5961 14.3477 15.8688 15.9193 15.2589 16.6183C11.1763 20.731 9.65353 26.5265 10.1203 29.61C10.5871 32.6934 11.2799 34.6454 15.1131 34.023C18.9462 33.4007 20.8362 31.9062 21.8534 30.5874C22.8706 29.2687 22.5536 25.0684 22.5209 24.4472C22.4882 23.826 22.589 23.779 21.8534 23.1919C21.2648 22.7223 21.0656 22.495 21.0395 22.44C22.0101 21.6737 22.4698 21.1118 22.589 20.3796C22.7082 19.6474 22.6231 16.2415 22.589 15.4071C22.555 14.5727 21.6014 13.0743 19.626 13.6531Z" fill="url(#paint1_linear_5133_24706)"/>
<path d="M30.3154 13.6531C32.3453 14.3477 34.0726 15.9193 34.6825 16.6183C38.7651 20.731 40.2879 26.5265 39.8211 29.61C39.3544 32.6934 38.6615 34.6454 34.8284 34.023C30.9953 33.4007 29.1052 31.9062 28.088 30.5874C27.0708 29.2687 27.3878 25.0684 27.4205 24.4472C27.4532 23.826 27.3524 23.779 28.088 23.1919C28.6766 22.7223 28.8759 22.495 28.9019 22.44C27.9313 21.6737 27.4716 21.1118 27.3524 20.3796C27.2332 19.6474 27.3183 16.2415 27.3524 15.4071C27.3864 14.5727 28.34 13.0743 30.3154 13.6531Z" fill="url(#paint2_linear_5133_24706)" stroke="#B0B0B0" stroke-width="0.017971"/>
<path d="M22.6602 19.9148C22.6728 21.1599 21.5634 22.1273 21.007 22.4554C20.0928 21.285 19.8302 20.8744 19.8931 20.0568C19.956 19.2393 20.3805 19.0506 21.007 17.9815C21.6336 16.9124 21.5596 16.2049 21.1823 15.0258C20.8804 14.0825 19.9246 13.773 19.4844 13.7362C21.7483 12.903 22.5344 14.8525 22.5816 15.2613C22.6288 15.6701 22.6445 18.3585 22.6602 19.9148Z" fill="url(#paint3_linear_5133_24706)" stroke="#B0B0B0" stroke-width="0.017971"/>
<path d="M27.2734 19.9148C27.2608 21.1599 28.3702 22.1273 28.9266 22.4554C29.8408 21.285 30.1034 20.8744 30.0405 20.0568C29.9776 19.2393 29.5531 19.0506 28.9266 17.9815C28.3 16.9124 28.374 16.2049 28.7513 15.0258C29.0532 14.0825 30.009 13.773 30.4492 13.7362C28.1853 12.903 27.3992 14.8525 27.352 15.2613C27.3048 15.6701 27.2891 18.3585 27.2734 19.9148Z" fill="url(#paint4_linear_5133_24706)" stroke="#B0B0B0" stroke-width="0.017971"/>
<circle cx="24.9667" cy="25.6896" r="18.2831" transform="rotate(-90 24.9667 25.6896)" stroke="url(#paint5_linear_5133_24706)" stroke-width="0.359421"/>
<g filter="url(#filter0_d_5133_24706)">
<circle cx="24.9641" cy="25.7141" r="22.7414" stroke="url(#paint6_linear_5133_24706)" stroke-width="0.539131" shape-rendering="crispEdges"/>
</g>
<path d="M7.0995 37.4859C7.03774 37.3831 6.99909 37.2809 6.98355 37.1794C6.968 37.0779 6.9781 36.9828 7.01385 36.8941C7.05039 36.8068 7.11393 36.7341 7.20445 36.6761L7.4234 37.0406C7.37454 37.0772 7.34531 37.1193 7.33572 37.1668C7.32746 37.2136 7.33817 37.2616 7.36785 37.311C7.39833 37.3618 7.43373 37.395 7.47408 37.4107C7.51575 37.4257 7.55728 37.4207 7.59867 37.3959C7.63339 37.375 7.65487 37.3457 7.66313 37.3081C7.6722 37.2717 7.67364 37.2318 7.66748 37.1883C7.66211 37.1461 7.64993 37.088 7.63093 37.014C7.60443 36.9064 7.58795 36.8154 7.5815 36.7412C7.57505 36.6669 7.58677 36.5927 7.61664 36.5184C7.64652 36.4441 7.70552 36.3805 7.79364 36.3276C7.92448 36.249 8.05509 36.235 8.18546 36.2857C8.31717 36.3356 8.42874 36.4366 8.52017 36.5888C8.61321 36.7437 8.65081 36.891 8.63299 37.0307C8.6165 37.1696 8.54417 37.2821 8.41601 37.3682L8.19345 36.9977C8.23724 36.9677 8.26259 36.9298 8.26951 36.8839C8.27777 36.8371 8.26746 36.7897 8.23859 36.7416C8.21372 36.7002 8.18233 36.6737 8.14439 36.662C8.10779 36.6494 8.0688 36.6556 8.02741 36.6804C7.98201 36.7077 7.95946 36.7503 7.95976 36.8083C7.96006 36.8663 7.97279 36.9495 7.99796 37.0579C8.02179 37.1671 8.03652 37.2582 8.04217 37.3311C8.04862 37.4054 8.03757 37.4792 8.00903 37.5527C7.98049 37.6262 7.92416 37.6882 7.84005 37.7387C7.75994 37.7868 7.67475 37.8098 7.58447 37.8077C7.49498 37.807 7.40763 37.7795 7.32239 37.7253C7.23715 37.6712 7.16286 37.5913 7.0995 37.4859Z" fill="#875DD8"/>
<path d="M9.30082 38.3705L8.23826 39.1257L8.00682 38.8001L8.15154 38.6972C8.08111 38.6976 8.01099 38.6796 7.94119 38.6433C7.87355 38.6072 7.81538 38.555 7.76665 38.4864C7.7089 38.4052 7.67569 38.3208 7.66702 38.2333C7.65962 38.145 7.67802 38.0593 7.72221 37.9763C7.7664 37.8933 7.83483 37.8188 7.9275 37.753L8.54827 37.3117L8.77837 37.6355L8.20139 38.0456C8.1303 38.0961 8.08816 38.1538 8.07497 38.2185C8.06179 38.2833 8.0773 38.3468 8.12152 38.409C8.16663 38.4725 8.22195 38.5087 8.28747 38.5175C8.35299 38.5263 8.4213 38.5055 8.49239 38.455L9.06937 38.0449L9.30082 38.3705Z" fill="#875DD8"/>
<path d="M9.61777 38.9375C9.68936 38.9286 9.76144 38.9385 9.83403 38.9672C9.90661 38.9959 9.9723 39.0456 10.0311 39.1162C10.0999 39.1988 10.1413 39.291 10.1552 39.3929C10.1691 39.4948 10.1531 39.5973 10.1073 39.7004C10.0624 39.8047 9.98846 39.8997 9.88554 39.9854C9.78263 40.0711 9.67523 40.1272 9.56335 40.1535C9.45366 40.1799 9.34937 40.1776 9.25047 40.1465C9.15276 40.1144 9.06952 40.057 9.00074 39.9744C8.94292 39.905 8.90595 39.8314 8.88981 39.7537C8.87467 39.6771 8.87738 39.6049 8.89794 39.5371L8.28043 40.0515L8.02475 39.7445L9.50389 38.5124L9.75958 38.8194L9.61777 38.9375ZM9.62538 39.6731C9.70197 39.6093 9.74386 39.5379 9.75106 39.4589C9.76045 39.3802 9.73923 39.3097 9.68739 39.2474C9.63655 39.1864 9.57105 39.1528 9.49089 39.1466C9.41172 39.1416 9.33384 39.171 9.25725 39.2348C9.18066 39.2986 9.13767 39.3698 9.12828 39.4486C9.11989 39.5286 9.14111 39.5991 9.19195 39.6601C9.24279 39.7211 9.30829 39.7548 9.38845 39.761C9.46981 39.7662 9.54879 39.7369 9.62538 39.6731Z" fill="#875DD8"/>
<path d="M10.6304 40.0245C10.701 40.0099 10.7737 40.0139 10.8483 40.0368C10.9229 40.0596 10.9924 40.1039 11.0567 40.1696C11.1318 40.2464 11.1804 40.335 11.2025 40.4355C11.2245 40.536 11.2167 40.6394 11.1792 40.7458C11.1428 40.8534 11.0767 40.954 10.981 41.0476C10.8853 41.1413 10.7827 41.2057 10.6733 41.2409C10.5661 41.2761 10.4619 41.2821 10.3608 41.259C10.2609 41.2347 10.1733 41.1842 10.0982 41.1074C10.035 41.0428 9.99224 40.9724 9.96994 40.8962C9.94874 40.8211 9.94567 40.7489 9.96074 40.6797L9.3863 41.2417L9.10691 40.9562L10.4829 39.6099L10.7623 39.8954L10.6304 40.0245ZM10.6967 40.7571C10.768 40.6874 10.804 40.6129 10.8049 40.5336C10.808 40.4543 10.7812 40.3857 10.7245 40.3279C10.669 40.2711 10.601 40.2428 10.5206 40.243C10.4413 40.2444 10.366 40.2799 10.2948 40.3496C10.2235 40.4193 10.1863 40.4938 10.1833 40.5731C10.1813 40.6534 10.2081 40.722 10.2636 40.7788C10.3192 40.8356 10.3872 40.8639 10.4676 40.8636C10.5491 40.8623 10.6255 40.8268 10.6967 40.7571Z" fill="#875DD8"/>
<path d="M11.1468 42.0587C11.0505 41.9748 10.9814 41.8786 10.9397 41.7699C10.8991 41.6624 10.8898 41.5509 10.9116 41.4357C10.9346 41.3215 10.9906 41.2133 11.0796 41.1111C11.1676 41.0101 11.2671 40.9409 11.3782 40.9034C11.4903 40.8647 11.6031 40.8586 11.7164 40.885C11.8297 40.9113 11.9345 40.9665 12.0309 41.0503C12.1272 41.1342 12.1962 41.2304 12.2379 41.339C12.2797 41.4476 12.2891 41.5601 12.2663 41.6765C12.2444 41.7918 12.1895 41.8999 12.1016 42.0009C12.0136 42.1019 11.913 42.1712 11.7997 42.2089C11.6886 42.2464 11.5758 42.2514 11.4613 42.224C11.3479 42.1976 11.2431 42.1425 11.1468 42.0587ZM11.3738 41.7979C11.4314 41.848 11.4986 41.8693 11.5753 41.8618C11.6532 41.8553 11.7265 41.8127 11.795 41.734C11.8635 41.6553 11.8962 41.5774 11.8931 41.5003C11.8911 41.4243 11.8614 41.3612 11.8038 41.3111C11.7451 41.26 11.6779 41.2387 11.6023 41.2472C11.5278 41.2546 11.4557 41.2982 11.3862 41.3781C11.3177 41.4568 11.2838 41.5336 11.2846 41.6086C11.2865 41.6847 11.3163 41.7478 11.3738 41.7979Z" fill="#875DD8"/>
<path d="M12.6295 41.9267C12.7101 41.898 12.7905 41.8888 12.8708 41.899C12.9521 41.908 13.0268 41.9385 13.0949 41.9904L12.8387 42.3268L12.7514 42.2603C12.6721 42.1999 12.5994 42.172 12.5333 42.1765C12.4682 42.1797 12.4031 42.2241 12.338 42.3096L11.9714 42.791L11.6535 42.549L12.4433 41.5118L12.7611 41.7539L12.6295 41.9267Z" fill="#875DD8"/>
<path d="M13.3088 43.4336L13.1177 43.7132L12.9499 43.5985C12.8303 43.5168 12.7569 43.4241 12.7295 43.3206C12.7031 43.2157 12.7352 43.0971 12.8257 42.9646L13.1184 42.5365L12.9873 42.4468L13.1745 42.1729L13.3056 42.2626L13.4849 42.0003L13.8147 42.2258L13.6354 42.4881L13.8514 42.6357L13.6642 42.9096L13.4482 42.7619L13.1529 43.1939C13.1309 43.2261 13.1228 43.2545 13.1285 43.2792C13.1343 43.3039 13.1552 43.3285 13.1912 43.3531L13.3088 43.4336Z" fill="#875DD8"/>
<path d="M14.8849 44.2596L14.717 44.5538L14.5405 44.453C14.4147 44.3812 14.334 44.2948 14.2984 44.1938C14.2636 44.0914 14.286 43.9705 14.3655 43.8312L14.6227 43.3808L14.4848 43.3021L14.6493 43.014L14.7872 43.0928L14.9448 42.8168L15.2917 43.0149L15.1342 43.2909L15.3614 43.4206L15.1969 43.7087L14.9696 43.5789L14.7101 44.0334C14.6908 44.0672 14.6851 44.0962 14.6928 44.1203C14.7005 44.1445 14.7233 44.1674 14.7612 44.189L14.8849 44.2596Z" fill="#875DD8"/>
<path d="M15.7824 45.1208C15.6677 45.0646 15.5762 44.9894 15.5079 44.8952C15.441 44.8017 15.4033 44.6964 15.3948 44.5795C15.3876 44.4632 15.4139 44.3442 15.4735 44.2226C15.5325 44.1023 15.6109 44.0098 15.7086 43.9449C15.807 43.8787 15.9143 43.8437 16.0306 43.8401C16.1469 43.8364 16.2624 43.8627 16.3771 43.9189C16.4917 43.9751 16.5832 44.0504 16.6515 44.1446C16.7198 44.2388 16.7579 44.3451 16.7657 44.4634C16.7743 44.5804 16.7491 44.699 16.6901 44.8192C16.6311 44.9395 16.5517 45.0324 16.4519 45.0979C16.3542 45.1628 16.2465 45.1967 16.1288 45.1997C16.0125 45.2034 15.897 45.1771 15.7824 45.1208ZM15.9346 44.8104C16.0031 44.844 16.0735 44.8473 16.1458 44.8203C16.2194 44.7939 16.2792 44.7339 16.3251 44.6402C16.3711 44.5465 16.3826 44.4629 16.3598 44.3892C16.3383 44.3162 16.2933 44.263 16.2248 44.2293C16.1549 44.1951 16.0845 44.1918 16.0137 44.2195C15.9435 44.2458 15.8851 44.3065 15.8385 44.4016C15.7925 44.4953 15.7796 44.5782 15.7997 44.6505C15.8211 44.7235 15.8661 44.7768 15.9346 44.8104Z" fill="#875DD8"/>
<path d="M18.4682 44.7604L18.3563 45.0727L18.86 45.2531L18.756 45.5434L18.2524 45.363L18.131 45.7017L18.7007 45.9058L18.5928 46.2071L17.647 45.8683L18.2 44.3244L19.1458 44.6631L19.0379 44.9644L18.4682 44.7604Z" fill="#875DD8"/>
<path d="M19.8331 45.1919C19.9801 45.2329 20.0837 45.3136 20.1439 45.4339C20.206 45.5531 20.2139 45.696 20.1674 45.8625L19.9626 46.5961L19.5801 46.4893L19.7704 45.8075C19.7938 45.7234 19.7903 45.6521 19.7598 45.5935C19.7293 45.5348 19.6772 45.4952 19.6037 45.4747C19.5302 45.4542 19.4652 45.4611 19.4087 45.4955C19.3523 45.5298 19.3123 45.589 19.2888 45.673L19.0985 46.3548L18.7137 46.2474L19.0642 44.9918L19.449 45.0992L19.4025 45.2657C19.457 45.2211 19.5217 45.1923 19.5965 45.1792C19.6717 45.1646 19.7506 45.1689 19.8331 45.1919Z" fill="#875DD8"/>
<path d="M20.0912 46.0006C20.1246 45.8709 20.1781 45.7633 20.2516 45.6777C20.3267 45.5925 20.4132 45.5344 20.5113 45.5034C20.6094 45.4724 20.7104 45.4703 20.8145 45.4971C20.8974 45.5185 20.9684 45.5553 21.0273 45.6075C21.0877 45.66 21.13 45.7208 21.154 45.7897L21.3051 45.2038L21.6919 45.3035L21.2603 46.9776L20.8735 46.8779L20.9201 46.6969C20.8684 46.7479 20.8039 46.7827 20.7267 46.8014C20.651 46.8205 20.5687 46.8186 20.4797 46.7956C20.3756 46.7688 20.2882 46.7181 20.2173 46.6435C20.1469 46.5675 20.0994 46.474 20.0749 46.3631C20.0523 46.2512 20.0577 46.1303 20.0912 46.0006ZM21.0362 46.2467C21.0611 46.1502 21.0536 46.067 21.0137 45.9972C20.9753 45.9278 20.9176 45.8832 20.8407 45.8633C20.7638 45.8435 20.691 45.8545 20.6223 45.8963C20.5555 45.937 20.5097 46.0056 20.4848 46.1021C20.4599 46.1986 20.4665 46.2823 20.5045 46.3533C20.5444 46.4231 20.6028 46.4679 20.6797 46.4877C20.7566 46.5075 20.8287 46.4964 20.8959 46.4542C20.9645 46.4124 21.0113 46.3432 21.0362 46.2467Z" fill="#875DD8"/>
<path d="M24.083 45.5091L24.0616 45.8284L23.628 45.7994L23.5398 47.1164L23.1412 47.0897L23.2294 45.7727L22.7958 45.7437L22.8172 45.4243L24.083 45.5091Z" fill="#875DD8"/>
<path d="M24.5662 45.5219L24.5473 46.503C24.5454 46.6011 24.5681 46.6771 24.6153 46.7309C24.6626 46.7848 24.7329 46.8126 24.8264 46.8144C24.9198 46.8163 24.9919 46.7912 25.0428 46.7392C25.0937 46.6872 25.12 46.6122 25.1219 46.514L25.1409 45.533L25.5403 45.5407L25.5214 46.5194C25.5186 46.6658 25.485 46.789 25.4208 46.889C25.3565 46.989 25.271 47.0637 25.1641 47.113C25.0588 47.1624 24.9415 47.1859 24.8122 47.1834C24.683 47.1809 24.5675 47.1537 24.4657 47.1019C24.3654 47.0486 24.2867 46.9707 24.2295 46.8684C24.1723 46.7644 24.1451 46.6393 24.1479 46.4929L24.1668 45.5142L24.5662 45.5219Z" fill="#875DD8"/>
<path d="M26.2294 46.0146C26.263 45.9517 26.3136 45.8994 26.3812 45.8577C26.4489 45.8161 26.5278 45.7925 26.6179 45.7869C26.7252 45.7803 26.824 45.8015 26.9145 45.8505C27.0049 45.8996 27.0781 45.9731 27.1341 46.071C27.1916 46.1689 27.2245 46.2847 27.2328 46.4184C27.241 46.5521 27.2227 46.6718 27.1777 46.7776C27.1342 46.8817 27.0707 46.9644 26.9871 47.0258C26.9034 47.0855 26.8079 47.1187 26.7007 47.1254C26.609 47.131 26.5278 47.1181 26.4572 47.0866C26.3865 47.0535 26.3298 47.0079 26.2872 46.9496L26.2985 47.1315L25.8997 47.1562L25.7931 45.4306L26.1918 45.406L26.2294 46.0146ZM26.8271 46.4434C26.8209 46.344 26.7881 46.268 26.7287 46.2155C26.6707 46.1613 26.6013 46.1367 26.5205 46.1417C26.4412 46.1466 26.3754 46.1796 26.323 46.2405C26.2721 46.3014 26.2498 46.3816 26.2559 46.4811C26.2621 46.5806 26.2941 46.6574 26.3521 46.7116C26.4116 46.7656 26.481 46.7902 26.5603 46.7853C26.6396 46.7804 26.7054 46.7475 26.7578 46.6865C26.8101 46.6239 26.8332 46.5429 26.8271 46.4434Z" fill="#875DD8"/>
<path d="M28.6472 46.1934C28.6524 46.2304 28.6554 46.2693 28.6564 46.31L27.761 46.435C27.7783 46.5144 27.8124 46.5725 27.8632 46.6095C27.9153 46.6447 27.9745 46.6576 28.0408 46.6484C28.1395 46.6346 28.2023 46.5834 28.2293 46.4947L28.6504 46.4359C28.6406 46.5238 28.612 46.6056 28.5644 46.6814C28.5183 46.7571 28.4555 46.8201 28.3761 46.8705C28.2966 46.9209 28.2045 46.9534 28.0996 46.9681C27.9731 46.9857 27.8567 46.9744 27.7504 46.9342C27.6442 46.894 27.5563 46.8276 27.4868 46.7351C27.4172 46.6426 27.3731 46.5293 27.3544 46.3951C27.3357 46.2609 27.3463 46.1399 27.3863 46.0321C27.4278 45.924 27.4942 45.8362 27.5854 45.7684C27.6766 45.7006 27.7862 45.6578 27.9142 45.6399C28.0391 45.6225 28.1539 45.6332 28.2584 45.6721C28.3629 45.711 28.4489 45.7752 28.5164 45.8649C28.5855 45.9543 28.6291 46.0638 28.6472 46.1934ZM28.2278 46.1458C28.2183 46.0779 28.1876 46.0272 28.1357 45.9935C28.0839 45.9599 28.0232 45.9479 27.9538 45.9576C27.8875 45.9668 27.8339 45.994 27.793 46.039C27.7536 46.0838 27.7335 46.1424 27.7326 46.2149L28.2278 46.1458Z" fill="#875DD8"/>
<path d="M28.8436 45.6814C28.8752 45.6019 28.9213 45.5354 28.9819 45.4818C29.0423 45.4266 29.1144 45.3905 29.1984 45.3735L29.2823 45.788L29.1747 45.8098C29.077 45.8296 29.0081 45.8658 28.9679 45.9184C28.9274 45.9695 28.9178 46.0478 28.9392 46.1531L29.0593 46.7461L28.6678 46.8255L28.4089 45.5478L28.8004 45.4685L28.8436 45.6814Z" fill="#875DD8"/>
<path d="M29.7876 45.8756C29.7526 45.7447 29.7484 45.6233 29.775 45.5114C29.8031 45.3992 29.8575 45.304 29.9382 45.2261C30.0205 45.1477 30.1233 45.092 30.2467 45.0591C30.4047 45.0169 30.5474 45.0232 30.6748 45.0778C30.8037 45.132 30.9049 45.23 30.9781 45.3716L30.5673 45.4813C30.507 45.3942 30.4272 45.3639 30.3279 45.3904C30.2571 45.4093 30.2081 45.4522 30.1809 45.5192C30.1532 45.5846 30.153 45.6684 30.1803 45.7708C30.2076 45.8731 30.2498 45.9465 30.3068 45.9909C30.3634 46.0338 30.427 46.0459 30.4978 46.027C30.5971 46.0005 30.6512 45.9344 30.6601 45.8289L31.0709 45.7192C31.0772 45.8755 31.0381 46.0101 30.9538 46.1229C30.8694 46.2357 30.749 46.313 30.5925 46.3547C30.4691 46.3877 30.3522 46.3907 30.2419 46.3637C30.133 46.3363 30.0384 46.281 29.9582 46.1976C29.8794 46.1139 29.8225 46.0065 29.7876 45.8756Z" fill="#875DD8"/>
<path d="M32.1753 44.5426L32.6056 45.7732L32.2285 45.905L32.1699 45.7374C32.1507 45.8052 32.1139 45.8676 32.0596 45.9245C32.0062 45.9795 31.9398 46.0208 31.8605 46.0486C31.7664 46.0815 31.6761 46.09 31.5897 46.074C31.5027 46.0566 31.4255 46.0151 31.3581 45.9496C31.2906 45.8841 31.2381 45.7977 31.2006 45.6903L30.9492 44.9714L31.324 44.8403L31.5577 45.5085C31.5865 45.5908 31.6302 45.6473 31.6888 45.678C31.7473 45.7087 31.8127 45.7114 31.8847 45.6862C31.9582 45.6605 32.0083 45.6174 32.035 45.5569C32.0617 45.4964 32.0606 45.425 32.0319 45.3427L31.7982 44.6745L32.1753 44.5426Z" fill="#875DD8"/>
<path d="M32.5749 43.8718L33.2305 45.4715L32.8608 45.623L32.2053 44.0233L32.5749 43.8718Z" fill="#875DD8"/>
<path d="M34.1459 45.0821C34.0306 45.1371 33.9149 45.1621 33.7986 45.1571C33.6838 45.1515 33.5779 45.1157 33.4809 45.0498C33.3853 44.9832 33.3083 44.8887 33.25 44.7664C33.1924 44.6455 33.1685 44.5266 33.1784 44.4098C33.1876 44.2915 33.2268 44.1857 33.2962 44.0922C33.3655 43.9988 33.4578 43.9246 33.5731 43.8696C33.6884 43.8147 33.8041 43.7897 33.9204 43.7946C34.0366 43.7996 34.1436 43.8358 34.2412 43.9031C34.3382 43.969 34.4155 44.0624 34.4732 44.1833C34.5308 44.3042 34.5543 44.4241 34.5437 44.5431C34.5339 44.6599 34.4936 44.7654 34.4228 44.8595C34.3535 44.953 34.2612 45.0272 34.1459 45.0821ZM33.9971 44.77C34.066 44.7372 34.1123 44.684 34.136 44.6106C34.161 44.5366 34.1511 44.4524 34.1062 44.3582C34.0613 44.264 34.0029 44.203 33.931 44.1752C33.8605 44.1467 33.7908 44.1489 33.7219 44.1817C33.6516 44.2152 33.6053 44.2684 33.583 44.3411C33.5601 44.4124 33.5714 44.4959 33.617 44.5915C33.6619 44.6857 33.7189 44.7474 33.788 44.7765C33.8585 44.805 33.9282 44.8028 33.9971 44.77Z" fill="#875DD8"/>
<path d="M35.4719 44.3793C35.3732 44.4357 35.2756 44.469 35.1792 44.4792C35.0828 44.4894 34.9957 44.4782 34.9179 44.4455C34.8392 44.4115 34.7764 44.3595 34.7293 44.2896L35.0721 44.0938C35.0986 44.1307 35.135 44.1521 35.1813 44.1579C35.2277 44.1637 35.2746 44.1531 35.3219 44.126C35.3652 44.1013 35.3937 44.0743 35.4074 44.0449C35.4217 44.0134 35.4211 43.9842 35.4057 43.9571C35.3871 43.9247 35.3567 43.9106 35.3144 43.9151C35.2713 43.9181 35.2065 43.9318 35.12 43.9562C35.028 43.9836 34.9492 44.0026 34.8835 44.0132C34.817 44.0224 34.7515 44.0159 34.6867 43.9937C34.6213 43.9701 34.5665 43.9198 34.5225 43.8427C34.4854 43.7778 34.4694 43.7089 34.4744 43.6361C34.4801 43.5611 34.5085 43.4884 34.5597 43.4179C34.6123 43.3466 34.6866 43.2836 34.7826 43.2287C34.9246 43.1476 35.0563 43.1191 35.1776 43.1431C35.3002 43.1663 35.4009 43.2326 35.4795 43.3419L35.1589 43.525C35.1311 43.4889 35.0958 43.4678 35.0529 43.4618C35.0114 43.455 34.9669 43.4651 34.9196 43.4922C34.879 43.5153 34.8525 43.5412 34.8402 43.5698C34.827 43.597 34.8282 43.6242 34.8436 43.6512C34.8621 43.6837 34.893 43.6984 34.936 43.6953C34.9805 43.6915 35.0438 43.6768 35.1261 43.6513C35.2224 43.6251 35.303 43.6077 35.3681 43.5992C35.4325 43.5894 35.4977 43.597 35.564 43.6219C35.6308 43.6447 35.6873 43.695 35.7335 43.7726C35.7713 43.8389 35.7864 43.9092 35.7786 43.9836C35.7714 44.0558 35.7412 44.1269 35.6879 44.1968C35.6359 44.266 35.5639 44.3268 35.4719 44.3793Z" fill="#875DD8"/>
<path d="M35.4405 42.6924C35.3814 42.73 35.3219 42.7438 35.262 42.7339C35.2027 42.7218 35.1567 42.6902 35.1241 42.6389C35.0906 42.5864 35.0814 42.5313 35.0965 42.4737C35.112 42.414 35.1494 42.3653 35.2085 42.3277C35.2663 42.2909 35.3249 42.2786 35.3843 42.2906C35.4441 42.3005 35.4908 42.3318 35.5242 42.3844C35.5568 42.4356 35.5654 42.4911 35.5498 42.5508C35.5348 42.6084 35.4983 42.6556 35.4405 42.6924ZM35.6808 42.7001L36.3806 43.7999L36.0435 44.0144L35.3437 42.9145L35.6808 42.7001Z" fill="#875DD8"/>
<path d="M37.1107 43.3634C37.018 43.4293 36.9242 43.4721 36.8293 43.4918C36.7344 43.5115 36.6466 43.5089 36.5659 43.4841C36.4843 43.458 36.4166 43.4125 36.3628 43.3476L36.6846 43.1188C36.7146 43.1529 36.7529 43.1706 36.7996 43.1718C36.8464 43.173 36.8919 43.1578 36.9364 43.1262C36.977 43.0973 37.0027 43.0676 37.0134 43.037C37.0245 43.0043 37.0211 42.9752 37.003 42.9498C36.9814 42.9194 36.9497 42.9084 36.9081 42.917C36.8655 42.9243 36.8023 42.9444 36.7186 42.9771C36.6298 43.0135 36.5533 43.0402 36.489 43.0573C36.4237 43.073 36.3578 43.0731 36.2912 43.0573C36.2237 43.0404 36.1643 42.9957 36.1128 42.9233C36.0695 42.8624 36.0468 42.7954 36.0446 42.7225C36.0428 42.6473 36.0639 42.5721 36.1079 42.4969C36.1531 42.4208 36.2208 42.3507 36.3109 42.2866C36.4442 42.1919 36.5724 42.1505 36.6955 42.1623C36.8199 42.1733 36.9266 42.2293 37.0156 42.3304L36.7147 42.5442C36.6835 42.511 36.6462 42.4936 36.603 42.4918C36.561 42.4892 36.5178 42.5037 36.4733 42.5352C36.4352 42.5623 36.4115 42.5907 36.402 42.6204C36.3916 42.6488 36.3954 42.6757 36.4135 42.701C36.4351 42.7315 36.4672 42.7431 36.5098 42.7358C36.5536 42.7275 36.6152 42.7067 36.6946 42.6732C36.7878 42.6375 36.8663 42.6123 36.9303 42.5974C36.9933 42.5813 37.059 42.5823 37.1274 42.6006C37.1962 42.6167 37.2574 42.6611 37.311 42.7338C37.3552 42.796 37.3771 42.8645 37.3768 42.9393C37.3768 43.0119 37.3537 43.0856 37.3075 43.1605C37.2626 43.2344 37.197 43.3021 37.1107 43.3634Z" fill="#875DD8"/>
<path d="M39.4865 41.9178C39.2776 41.9047 39.0672 41.8379 38.8551 41.7174C38.6431 41.5968 38.4516 41.4354 38.2807 41.2332C38.1077 41.0286 37.9796 40.8096 37.8964 40.5761C37.8122 40.3413 37.7841 40.1163 37.8121 39.9009L38.1118 39.6475L38.136 39.6761C38.1157 39.9053 38.145 40.1355 38.224 40.3664C38.302 40.5962 38.4184 40.8027 38.5733 40.9859C38.7271 41.1679 38.9081 41.3156 39.1163 41.4292C39.3245 41.5428 39.5404 41.6112 39.7639 41.6344L39.788 41.6629L39.4865 41.9178Z" fill="#875DD8"/>
<path d="M39.9239 41.0715C39.8373 41.1544 39.7462 41.2146 39.6507 41.2522C39.5551 41.2898 39.4601 41.3009 39.3657 41.2857C39.2725 41.2693 39.1875 41.2234 39.111 41.1479L39.4181 40.8539C39.4646 40.8935 39.5121 40.9127 39.5606 40.9115C39.608 40.9092 39.6525 40.8882 39.6942 40.8483C39.7369 40.8074 39.7615 40.7655 39.768 40.7227C39.7733 40.6788 39.7593 40.6394 39.7259 40.6045C39.6979 40.5752 39.6646 40.5607 39.6261 40.561C39.5886 40.5602 39.5494 40.5676 39.5083 40.5832C39.4683 40.5978 39.4143 40.6225 39.3464 40.6573C39.2473 40.707 39.1622 40.7431 39.0912 40.7658C39.0202 40.7885 38.9452 40.7935 38.8662 40.7807C38.7871 40.768 38.7121 40.7245 38.641 40.6502C38.5354 40.54 38.493 40.4157 38.5136 40.2773C38.5332 40.1378 38.6071 40.0067 38.7354 39.8839C38.8659 39.759 39.0012 39.6898 39.1414 39.6763C39.2805 39.6617 39.4062 39.7074 39.5185 39.8134L39.2063 40.1123C39.1674 40.0762 39.1248 40.0599 39.0784 40.0633C39.031 40.0655 38.9871 40.0861 38.9466 40.1248C38.9117 40.1582 38.8927 40.1947 38.8896 40.2343C38.8855 40.2728 38.9001 40.3094 38.9335 40.3443C38.9701 40.3826 39.0167 40.3951 39.0731 40.3821C39.1296 40.369 39.2079 40.3382 39.3081 40.2897C39.4094 40.2423 39.495 40.2078 39.5649 40.1862C39.6359 40.1635 39.7103 40.158 39.7883 40.1696C39.8662 40.1812 39.9392 40.2225 40.007 40.2934C40.0716 40.3609 40.1129 40.4389 40.1308 40.5274C40.1498 40.6148 40.1423 40.7061 40.1083 40.8012C40.0743 40.8963 40.0128 40.9864 39.9239 41.0715Z" fill="#875DD8"/>
<path d="M39.9107 39.1414L40.1577 39.3628L40.5149 38.9645L40.7445 39.1703L40.3874 39.5687L40.6553 39.8088L41.0592 39.3583L41.2975 39.5719L40.6269 40.3199L39.4057 39.2252L40.0763 38.4772L40.3146 38.6908L39.9107 39.1414Z" fill="#875DD8"/>
<path d="M40.9835 37.2454L41.236 37.4421L40.969 37.7849L42.0104 38.596L41.7649 38.9112L40.7235 38.1001L40.4565 38.4429L40.204 38.2462L40.9835 37.2454Z" fill="#875DD8"/>
<path d="M41.2813 36.81L42.0973 37.3548C42.1789 37.4093 42.2552 37.4311 42.326 37.4204C42.3969 37.4096 42.4582 37.3654 42.5101 37.2877C42.562 37.2099 42.5798 37.1357 42.5634 37.0648C42.547 36.9939 42.498 36.9313 42.4164 36.8768L41.6004 36.332L41.8222 35.9997L42.6363 36.5432C42.7581 36.6245 42.8438 36.7192 42.8934 36.8272C42.943 36.9352 42.9597 37.0476 42.9437 37.1642C42.9285 37.2795 42.885 37.3909 42.8132 37.4984C42.7414 37.606 42.6563 37.6886 42.5578 37.7464C42.4588 37.8021 42.3508 37.8264 42.2337 37.8195C42.1154 37.8116 41.9953 37.767 41.8736 37.6857L41.0594 37.1422L41.2813 36.81Z" fill="#875DD8"/>
<path d="M43.6006 37.143L43.5703 37.1212C43.5298 36.9002 43.4447 36.6903 43.3152 36.4916C43.1857 36.2929 43.0243 36.124 42.8308 35.9848C42.6361 35.8448 42.4212 35.7448 42.186 35.685C41.9496 35.6243 41.7179 35.613 41.4909 35.6511L41.4605 35.6293L41.6897 35.3107C41.9023 35.266 42.1288 35.2764 42.3694 35.3421C42.6087 35.4068 42.8371 35.5174 43.0546 35.6738C43.2695 35.8284 43.4453 36.0068 43.5821 36.2087C43.7188 36.4107 43.8019 36.6153 43.8312 36.8225L43.6006 37.143Z" fill="#875DD8"/>
<path d="M16.1695 37.5H15.6164L14.6912 36.0993V37.5H14.1381V35.2292H14.6912L15.6164 36.6363V35.2292H16.1695V37.5ZM16.8487 35.5074C16.7516 35.5074 16.6718 35.4793 16.6093 35.4233C16.5489 35.365 16.5187 35.2939 16.5187 35.2098C16.5187 35.1235 16.5489 35.0523 16.6093 34.9963C16.6718 34.9381 16.7516 34.9089 16.8487 34.9089C16.9435 34.9089 17.0212 34.9381 17.0816 34.9963C17.1441 35.0523 17.1754 35.1235 17.1754 35.2098C17.1754 35.2939 17.1441 35.365 17.0816 35.4233C17.0212 35.4793 16.9435 35.5074 16.8487 35.5074ZM17.1236 35.695V37.5H16.5705V35.695H17.1236ZM18.9154 36.1349V36.5943H17.4921V36.1349H18.9154ZM20.504 37.5L19.954 36.7431V37.5H19.4009V35.1063H19.954V36.4293L20.5007 35.695H21.1833L20.4328 36.6007L21.1897 37.5H20.504ZM22.1348 37.5259C21.9774 37.5259 21.8372 37.4989 21.7143 37.445C21.5914 37.3911 21.4943 37.3178 21.4232 37.225C21.352 37.1302 21.3121 37.0245 21.3035 36.908H21.8502C21.8566 36.9706 21.8857 37.0213 21.9375 37.0601C21.9893 37.0989 22.0529 37.1183 22.1284 37.1183C22.1974 37.1183 22.2502 37.1054 22.2869 37.0795C22.3257 37.0514 22.3451 37.0159 22.3451 36.9727C22.3451 36.921 22.3181 36.8832 22.2642 36.8595C22.2103 36.8336 22.123 36.8056 22.0022 36.7754C21.8728 36.7452 21.765 36.7139 21.6787 36.6816C21.5925 36.6471 21.5181 36.5943 21.4555 36.5231C21.393 36.4498 21.3617 36.3517 21.3617 36.2287C21.3617 36.1252 21.3897 36.0314 21.4458 35.9473C21.504 35.861 21.5881 35.7931 21.6981 35.7435C21.8103 35.6939 21.9429 35.6691 22.096 35.6691C22.3224 35.6691 22.5004 35.7252 22.6297 35.8373C22.7613 35.9495 22.8368 36.0983 22.8562 36.2837H22.3451C22.3365 36.2212 22.3084 36.1716 22.261 36.1349C22.2157 36.0983 22.1553 36.0799 22.0798 36.0799C22.0151 36.0799 21.9655 36.0929 21.931 36.1187C21.8965 36.1425 21.8793 36.1759 21.8793 36.219C21.8793 36.2708 21.9062 36.3096 21.9601 36.3355C22.0162 36.3614 22.1025 36.3872 22.2189 36.4131C22.3526 36.4476 22.4615 36.4821 22.5456 36.5166C22.6297 36.549 22.7031 36.6029 22.7656 36.6784C22.8303 36.7517 22.8637 36.8509 22.8659 36.976C22.8659 37.0816 22.8357 37.1765 22.7753 37.2606C22.7171 37.3426 22.6319 37.4073 22.5198 37.4547C22.4098 37.5022 22.2815 37.5259 22.1348 37.5259ZM24.3138 35.6756C24.5209 35.6756 24.6869 35.7446 24.812 35.8826C24.9371 36.0185 24.9996 36.2061 24.9996 36.4455V37.5H24.4497V36.5199C24.4497 36.3991 24.4184 36.3053 24.3559 36.2384C24.2933 36.1716 24.2092 36.1382 24.1036 36.1382C23.9979 36.1382 23.9138 36.1716 23.8513 36.2384C23.7887 36.3053 23.7574 36.3991 23.7574 36.5199V37.5H23.2043V35.1063H23.7574V35.9376C23.8135 35.8578 23.8901 35.7942 23.9871 35.7467C24.0842 35.6993 24.1931 35.6756 24.3138 35.6756ZM25.274 36.5943C25.274 36.4088 25.3085 36.246 25.3775 36.1058C25.4487 35.9656 25.5447 35.8578 25.6654 35.7823C25.7862 35.7069 25.921 35.6691 26.0698 35.6691C26.197 35.6691 26.3081 35.695 26.4029 35.7467C26.5 35.7985 26.5744 35.8664 26.6261 35.9505V35.695H27.1793V37.5H26.6261V37.2445C26.5722 37.3286 26.4968 37.3965 26.3997 37.4482C26.3048 37.5 26.1938 37.5259 26.0665 37.5259C25.9199 37.5259 25.7862 37.4881 25.6654 37.4127C25.5447 37.335 25.4487 37.2261 25.3775 37.0859C25.3085 36.9436 25.274 36.7797 25.274 36.5943ZM26.6261 36.5975C26.6261 36.4595 26.5873 36.3506 26.5097 36.2708C26.4342 36.191 26.3415 36.1511 26.2315 36.1511C26.1215 36.1511 26.0277 36.191 25.9501 36.2708C25.8746 36.3484 25.8369 36.4562 25.8369 36.5943C25.8369 36.7323 25.8746 36.8423 25.9501 36.9242C26.0277 37.004 26.1215 37.0439 26.2315 37.0439C26.3415 37.0439 26.4342 37.004 26.5097 36.9242C26.5873 36.8444 26.6261 36.7355 26.6261 36.5975ZM29.4233 35.695L28.2911 38.3572H27.6959L28.11 37.4385L27.3757 35.695H27.9935L28.4108 36.8239L28.8249 35.695H29.4233ZM31.1305 37.5226C30.9644 37.5226 30.8156 37.4957 30.6841 37.4418C30.5525 37.3879 30.4468 37.3081 30.367 37.2024C30.2894 37.0967 30.2484 36.9695 30.2441 36.8207H30.8329C30.8415 36.9048 30.8706 36.9695 30.9202 37.0148C30.9698 37.0579 31.0345 37.0795 31.1143 37.0795C31.1962 37.0795 31.2609 37.0611 31.3084 37.0245C31.3558 36.9857 31.3795 36.9328 31.3795 36.866C31.3795 36.8099 31.3601 36.7635 31.3213 36.7269C31.2847 36.6902 31.2383 36.66 31.1822 36.6363C31.1283 36.6126 31.0507 36.5856 30.9493 36.5554C30.8027 36.5102 30.683 36.4649 30.5902 36.4196C30.4975 36.3743 30.4177 36.3074 30.3509 36.219C30.284 36.1306 30.2506 36.0152 30.2506 35.8729C30.2506 35.6616 30.3272 35.4966 30.4803 35.378C30.6334 35.2572 30.8329 35.1968 31.0787 35.1968C31.3289 35.1968 31.5305 35.2572 31.6836 35.378C31.8367 35.4966 31.9187 35.6626 31.9295 35.8761H31.331C31.3267 35.8028 31.2997 35.7457 31.2501 35.7047C31.2005 35.6616 31.1369 35.64 31.0593 35.64C30.9924 35.64 30.9385 35.6583 30.8976 35.695C30.8566 35.7295 30.8361 35.7802 30.8361 35.847C30.8361 35.9203 30.8706 35.9775 30.9396 36.0185C31.0086 36.0594 31.1164 36.1037 31.2631 36.1511C31.4097 36.2007 31.5283 36.2481 31.6189 36.2934C31.7116 36.3387 31.7914 36.4045 31.8583 36.4907C31.9251 36.577 31.9586 36.6881 31.9586 36.8239C31.9586 36.9533 31.9251 37.0709 31.8583 37.1765C31.7936 37.2822 31.6987 37.3663 31.5736 37.4288C31.4485 37.4914 31.3008 37.5226 31.1305 37.5226ZM32.8521 35.6723V36.1317H33.5929V36.5587H32.8521V37.0568H33.6899V37.5H32.299V35.2292H33.6899V35.6723H32.8521ZM35.6826 35.2292V35.6723H35.0809V37.5H34.5278V35.6723H33.9261V35.2292H35.6826ZM36.5037 35.2292V36.5878C36.5037 36.7237 36.5371 36.8282 36.6039 36.9016C36.6708 36.9749 36.7689 37.0115 36.8983 37.0115C37.0277 37.0115 37.1269 36.9749 37.1959 36.9016C37.2649 36.8282 37.2994 36.7237 37.2994 36.5878V35.2292H37.8526V36.5846C37.8526 36.7873 37.8094 36.9587 37.7232 37.0989C37.6369 37.2391 37.5205 37.3447 37.3738 37.4159C37.2293 37.4871 37.0676 37.5226 36.8886 37.5226C36.7096 37.5226 36.549 37.4881 36.4066 37.4191C36.2664 37.348 36.1554 37.2423 36.0734 37.1021C35.9915 36.9598 35.9505 36.7873 35.9505 36.5846V35.2292H36.5037Z" fill="black"/>
<path d="M16.1695 37.5H15.6164L14.6912 36.0993V37.5H14.1381V35.2292H14.6912L15.6164 36.6363V35.2292H16.1695V37.5ZM16.8487 35.5074C16.7516 35.5074 16.6718 35.4793 16.6093 35.4233C16.5489 35.365 16.5187 35.2939 16.5187 35.2098C16.5187 35.1235 16.5489 35.0523 16.6093 34.9963C16.6718 34.9381 16.7516 34.9089 16.8487 34.9089C16.9435 34.9089 17.0212 34.9381 17.0816 34.9963C17.1441 35.0523 17.1754 35.1235 17.1754 35.2098C17.1754 35.2939 17.1441 35.365 17.0816 35.4233C17.0212 35.4793 16.9435 35.5074 16.8487 35.5074ZM17.1236 35.695V37.5H16.5705V35.695H17.1236ZM18.9154 36.1349V36.5943H17.4921V36.1349H18.9154ZM20.504 37.5L19.954 36.7431V37.5H19.4009V35.1063H19.954V36.4293L20.5007 35.695H21.1833L20.4328 36.6007L21.1897 37.5H20.504ZM22.1348 37.5259C21.9774 37.5259 21.8372 37.4989 21.7143 37.445C21.5914 37.3911 21.4943 37.3178 21.4232 37.225C21.352 37.1302 21.3121 37.0245 21.3035 36.908H21.8502C21.8566 36.9706 21.8857 37.0213 21.9375 37.0601C21.9893 37.0989 22.0529 37.1183 22.1284 37.1183C22.1974 37.1183 22.2502 37.1054 22.2869 37.0795C22.3257 37.0514 22.3451 37.0159 22.3451 36.9727C22.3451 36.921 22.3181 36.8832 22.2642 36.8595C22.2103 36.8336 22.123 36.8056 22.0022 36.7754C21.8728 36.7452 21.765 36.7139 21.6787 36.6816C21.5925 36.6471 21.5181 36.5943 21.4555 36.5231C21.393 36.4498 21.3617 36.3517 21.3617 36.2287C21.3617 36.1252 21.3897 36.0314 21.4458 35.9473C21.504 35.861 21.5881 35.7931 21.6981 35.7435C21.8103 35.6939 21.9429 35.6691 22.096 35.6691C22.3224 35.6691 22.5004 35.7252 22.6297 35.8373C22.7613 35.9495 22.8368 36.0983 22.8562 36.2837H22.3451C22.3365 36.2212 22.3084 36.1716 22.261 36.1349C22.2157 36.0983 22.1553 36.0799 22.0798 36.0799C22.0151 36.0799 21.9655 36.0929 21.931 36.1187C21.8965 36.1425 21.8793 36.1759 21.8793 36.219C21.8793 36.2708 21.9062 36.3096 21.9601 36.3355C22.0162 36.3614 22.1025 36.3872 22.2189 36.4131C22.3526 36.4476 22.4615 36.4821 22.5456 36.5166C22.6297 36.549 22.7031 36.6029 22.7656 36.6784C22.8303 36.7517 22.8637 36.8509 22.8659 36.976C22.8659 37.0816 22.8357 37.1765 22.7753 37.2606C22.7171 37.3426 22.6319 37.4073 22.5198 37.4547C22.4098 37.5022 22.2815 37.5259 22.1348 37.5259ZM24.3138 35.6756C24.5209 35.6756 24.6869 35.7446 24.812 35.8826C24.9371 36.0185 24.9996 36.2061 24.9996 36.4455V37.5H24.4497V36.5199C24.4497 36.3991 24.4184 36.3053 24.3559 36.2384C24.2933 36.1716 24.2092 36.1382 24.1036 36.1382C23.9979 36.1382 23.9138 36.1716 23.8513 36.2384C23.7887 36.3053 23.7574 36.3991 23.7574 36.5199V37.5H23.2043V35.1063H23.7574V35.9376C23.8135 35.8578 23.8901 35.7942 23.9871 35.7467C24.0842 35.6993 24.1931 35.6756 24.3138 35.6756ZM25.274 36.5943C25.274 36.4088 25.3085 36.246 25.3775 36.1058C25.4487 35.9656 25.5447 35.8578 25.6654 35.7823C25.7862 35.7069 25.921 35.6691 26.0698 35.6691C26.197 35.6691 26.3081 35.695 26.4029 35.7467C26.5 35.7985 26.5744 35.8664 26.6261 35.9505V35.695H27.1793V37.5H26.6261V37.2445C26.5722 37.3286 26.4968 37.3965 26.3997 37.4482C26.3048 37.5 26.1938 37.5259 26.0665 37.5259C25.9199 37.5259 25.7862 37.4881 25.6654 37.4127C25.5447 37.335 25.4487 37.2261 25.3775 37.0859C25.3085 36.9436 25.274 36.7797 25.274 36.5943ZM26.6261 36.5975C26.6261 36.4595 26.5873 36.3506 26.5097 36.2708C26.4342 36.191 26.3415 36.1511 26.2315 36.1511C26.1215 36.1511 26.0277 36.191 25.9501 36.2708C25.8746 36.3484 25.8369 36.4562 25.8369 36.5943C25.8369 36.7323 25.8746 36.8423 25.9501 36.9242C26.0277 37.004 26.1215 37.0439 26.2315 37.0439C26.3415 37.0439 26.4342 37.004 26.5097 36.9242C26.5873 36.8444 26.6261 36.7355 26.6261 36.5975ZM29.4233 35.695L28.2911 38.3572H27.6959L28.11 37.4385L27.3757 35.695H27.9935L28.4108 36.8239L28.8249 35.695H29.4233ZM31.1305 37.5226C30.9644 37.5226 30.8156 37.4957 30.6841 37.4418C30.5525 37.3879 30.4468 37.3081 30.367 37.2024C30.2894 37.0967 30.2484 36.9695 30.2441 36.8207H30.8329C30.8415 36.9048 30.8706 36.9695 30.9202 37.0148C30.9698 37.0579 31.0345 37.0795 31.1143 37.0795C31.1962 37.0795 31.2609 37.0611 31.3084 37.0245C31.3558 36.9857 31.3795 36.9328 31.3795 36.866C31.3795 36.8099 31.3601 36.7635 31.3213 36.7269C31.2847 36.6902 31.2383 36.66 31.1822 36.6363C31.1283 36.6126 31.0507 36.5856 30.9493 36.5554C30.8027 36.5102 30.683 36.4649 30.5902 36.4196C30.4975 36.3743 30.4177 36.3074 30.3509 36.219C30.284 36.1306 30.2506 36.0152 30.2506 35.8729C30.2506 35.6616 30.3272 35.4966 30.4803 35.378C30.6334 35.2572 30.8329 35.1968 31.0787 35.1968C31.3289 35.1968 31.5305 35.2572 31.6836 35.378C31.8367 35.4966 31.9187 35.6626 31.9295 35.8761H31.331C31.3267 35.8028 31.2997 35.7457 31.2501 35.7047C31.2005 35.6616 31.1369 35.64 31.0593 35.64C30.9924 35.64 30.9385 35.6583 30.8976 35.695C30.8566 35.7295 30.8361 35.7802 30.8361 35.847C30.8361 35.9203 30.8706 35.9775 30.9396 36.0185C31.0086 36.0594 31.1164 36.1037 31.2631 36.1511C31.4097 36.2007 31.5283 36.2481 31.6189 36.2934C31.7116 36.3387 31.7914 36.4045 31.8583 36.4907C31.9251 36.577 31.9586 36.6881 31.9586 36.8239C31.9586 36.9533 31.9251 37.0709 31.8583 37.1765C31.7936 37.2822 31.6987 37.3663 31.5736 37.4288C31.4485 37.4914 31.3008 37.5226 31.1305 37.5226ZM32.8521 35.6723V36.1317H33.5929V36.5587H32.8521V37.0568H33.6899V37.5H32.299V35.2292H33.6899V35.6723H32.8521ZM35.6826 35.2292V35.6723H35.0809V37.5H34.5278V35.6723H33.9261V35.2292H35.6826ZM36.5037 35.2292V36.5878C36.5037 36.7237 36.5371 36.8282 36.6039 36.9016C36.6708 36.9749 36.7689 37.0115 36.8983 37.0115C37.0277 37.0115 37.1269 36.9749 37.1959 36.9016C37.2649 36.8282 37.2994 36.7237 37.2994 36.5878V35.2292H37.8526V36.5846C37.8526 36.7873 37.8094 36.9587 37.7232 37.0989C37.6369 37.2391 37.5205 37.3447 37.3738 37.4159C37.2293 37.4871 37.0676 37.5226 36.8886 37.5226C36.7096 37.5226 36.549 37.4881 36.4066 37.4191C36.2664 37.348 36.1554 37.2423 36.0734 37.1021C35.9915 36.9598 35.9505 36.7873 35.9505 36.5846V35.2292H36.5037Z" fill="url(#paint7_linear_5133_24706)"/>
<mask id="mask0_5133_24706" style="mask-type:luminance" maskUnits="userSpaceOnUse" x="33" y="27" width="7" height="8">
<mask id="mask1_5133_24706" style="mask-type:luminance" maskUnits="userSpaceOnUse" x="33" y="27" width="7" height="8">
<path d="M33.5547 34.0625L39.8787 34.0625L39.8787 27.2645L33.5547 27.2645L33.5547 34.0625Z" fill="white"/>
</mask>
<g mask="url(#mask1_5133_24706)">
<path fill-rule="evenodd" clip-rule="evenodd" d="M33.5547 34.0625L39.8787 34.0625L39.8787 27.2645L33.5547 27.2645L33.5547 34.0625Z" fill="url(#paint8_linear_5133_24706)"/>
</g>
</mask>
<g mask="url(#mask0_5133_24706)">
<path fill-rule="evenodd" clip-rule="evenodd" d="M38.9664 33.1273C38.0593 33.4882 37.1687 33.7983 36.2974 34.0586L36.2791 32.6524L34.0681 32.6429C33.4597 32.5254 33.5852 31.9432 33.5854 31.3529C33.5859 30.737 33.4365 30.1224 34.0681 29.9947L36.2956 29.9655L36.3081 27.7547C36.427 27.1484 37.0089 27.2738 37.5981 27.274C38.1978 27.2742 38.8347 27.134 38.9563 27.7547L38.9854 29.985L39.8943 29.989C39.8265 30.8586 39.7206 31.7506 39.5781 32.664L38.9689 32.6719L38.9664 33.1273Z" fill="white"/>
</g>
<mask id="mask2_5133_24706" style="mask-type:luminance" maskUnits="userSpaceOnUse" x="33" y="27" width="7" height="8">
<mask id="mask3_5133_24706" style="mask-type:luminance" maskUnits="userSpaceOnUse" x="33" y="27" width="7" height="8">
<path d="M33.5547 34.0625L39.8787 34.0625L39.8787 27.2645L33.5547 27.2645L33.5547 34.0625Z" fill="white"/>
</mask>
<g mask="url(#mask3_5133_24706)">
<path fill-rule="evenodd" clip-rule="evenodd" d="M33.5547 34.0625L39.8787 34.0625L39.8787 27.2645L33.5547 27.2645L33.5547 34.0625Z" fill="url(#paint9_linear_5133_24706)"/>
</g>
</mask>
<g mask="url(#mask2_5133_24706)">
<path fill-rule="evenodd" clip-rule="evenodd" d="M38.9664 33.1273C38.0593 33.4882 37.1687 33.7983 36.2974 34.0586L36.2791 32.6524L34.0681 32.6429C33.4597 32.5254 33.5852 31.9432 33.5854 31.3529C33.5859 30.737 33.4365 30.1224 34.0681 29.9947L36.2956 29.9655L36.3081 27.7547C36.427 27.1484 37.0089 27.2738 37.5981 27.274C38.1978 27.2742 38.8347 27.134 38.9563 27.7547L38.9854 29.985L39.8943 29.989C39.8265 30.8586 39.7206 31.7506 39.5781 32.664L38.9689 32.6719L38.9664 33.1273Z" fill="white"/>
</g>
<mask id="mask4_5133_24706" style="mask-type:luminance" maskUnits="userSpaceOnUse" x="33" y="27" width="7" height="8">
<mask id="mask5_5133_24706" style="mask-type:luminance" maskUnits="userSpaceOnUse" x="33" y="27" width="7" height="8">
<path d="M33.5547 34.0625L39.8787 34.0625L39.8787 27.2645L33.5547 27.2645L33.5547 34.0625Z" fill="white"/>
</mask>
<g mask="url(#mask5_5133_24706)">
<path fill-rule="evenodd" clip-rule="evenodd" d="M33.5547 34.0625L39.8787 34.0625L39.8787 27.2645L33.5547 27.2645L33.5547 34.0625Z" fill="url(#paint10_linear_5133_24706)"/>
</g>
</mask>
<g mask="url(#mask4_5133_24706)">
<path fill-rule="evenodd" clip-rule="evenodd" d="M38.9664 33.1273C38.0593 33.4882 37.1687 33.7983 36.2974 34.0586L36.2791 32.6524L34.0681 32.6429C33.4597 32.5254 33.5852 31.9432 33.5854 31.3529C33.5859 30.737 33.4365 30.1224 34.0681 29.9947L36.2956 29.9655L36.3081 27.7547C36.427 27.1484 37.0089 27.2738 37.5981 27.274C38.1978 27.2742 38.8347 27.134 38.9563 27.7547L38.9854 29.985L39.8943 29.989C39.8265 30.8586 39.7206 31.7506 39.5781 32.664L38.9689 32.6719L38.9664 33.1273Z" fill="white"/>
</g>
<g clip-path="url(#clip1_5133_24706)">
<path d="M17.6635 28.0352H17.4164V32.2359C17.4164 32.3342 17.3773 32.4285 17.3078 32.498C17.2383 32.5675 17.144 32.6065 17.0457 32.6065H15.5285C15.2025 32.6068 14.881 32.6829 14.5895 32.8289L14.3696 32.9377C14.3184 32.9639 14.2616 32.9775 14.2041 32.9772C14.1162 32.972 14.0311 32.9443 13.957 32.8969C13.9236 32.8783 13.8841 32.8573 13.8334 32.8339H13.8211C13.5296 32.6879 13.2081 32.6117 12.8821 32.6115H11.3624C11.2641 32.6115 11.1698 32.5724 11.1003 32.5029C11.0308 32.4334 10.9917 32.3391 10.9917 32.2408V28.0352H10.7446C10.7119 28.0352 10.6805 28.0482 10.6573 28.0713C10.6341 28.0945 10.6211 28.1259 10.6211 28.1587V33.1007C10.6211 33.1335 10.6341 33.1649 10.6573 33.1881C10.6805 33.2113 10.7119 33.2243 10.7446 33.2243H17.6635C17.6963 33.2243 17.7277 33.2113 17.7509 33.1881C17.774 33.1649 17.787 33.1335 17.787 33.1007V28.1587C17.787 28.1259 17.774 28.0945 17.7509 28.0713C17.7277 28.0482 17.6963 28.0352 17.6635 28.0352Z" fill="url(#paint11_linear_5133_24706)"/>
<path d="M14.0431 27.8173C13.7098 27.6502 13.3445 27.5566 12.9719 27.543V30.3846C12.9718 30.4069 12.9657 30.4287 12.9542 30.4478C12.9427 30.4668 12.9263 30.4824 12.9067 30.4929C12.8871 30.5034 12.865 30.5084 12.8427 30.5074C12.8205 30.5064 12.799 30.4994 12.7804 30.4872L12.4777 30.2858L12.175 30.4872C12.1564 30.4994 12.1349 30.5064 12.1126 30.5074C12.0904 30.5084 12.0683 30.5034 12.0487 30.4929C12.0291 30.4824 12.0127 30.4668 12.0012 30.4478C11.9897 30.4287 11.9836 30.4069 11.9835 30.3846V27.543H11.3657C11.333 27.543 11.3015 27.556 11.2784 27.5792C11.2552 27.6023 11.2422 27.6338 11.2422 27.6665V32.2379C11.2422 32.2707 11.2552 32.3021 11.2784 32.3253C11.3015 32.3484 11.333 32.3615 11.3657 32.3615H12.8829C13.2474 32.3612 13.607 32.4458 13.9331 32.6086C13.9974 32.6357 14.0443 32.6617 14.0839 32.6827V27.837L14.0431 27.8173ZM17.0491 27.543H15.5319C15.1292 27.5437 14.7321 27.6375 14.3717 27.8173L14.331 27.837V32.6852L14.4817 32.6086C14.8078 32.4458 15.1674 32.3612 15.5319 32.3615H17.0491C17.0818 32.3615 17.1133 32.3484 17.1364 32.3253C17.1596 32.3021 17.1726 32.2707 17.1726 32.2379V27.6665C17.1726 27.6338 17.1596 27.6023 17.1364 27.5792C17.1133 27.556 17.0818 27.543 17.0491 27.543ZM14.9487 29.7669H15.9532V30.014H14.9487V29.7669ZM14.9487 30.7553H15.9532V31.0024H14.9487V30.7553ZM16.4313 31.4966H14.9487V31.2495H16.4313V31.4966ZM16.4313 30.5082H14.9487V30.2611H16.4313V30.5082ZM16.4313 29.5198H14.9487V29.2727H16.4313V29.5198Z" fill="url(#paint12_linear_5133_24706)"/>
</g>
<mask id="mask6_5133_24706" style="mask-type:luminance" maskUnits="userSpaceOnUse" x="27" y="19" width="8" height="15">
<mask id="mask7_5133_24706" style="mask-type:luminance" maskUnits="userSpaceOnUse" x="27" y="19" width="8" height="15">
<path d="M34.7188 33.5625L27.0903 33.5625L27.0903 19.7157L34.7188 19.7157L34.7188 33.5625Z" fill="white"/>
</mask>
<g mask="url(#mask7_5133_24706)">
<path fill-rule="evenodd" clip-rule="evenodd" d="M34.7188 33.5625L27.0903 33.5625L27.0903 19.7157L34.7188 19.7157L34.7188 33.5625Z" fill="url(#paint13_linear_5133_24706)"/>
</g>
</mask>
<g mask="url(#mask6_5133_24706)">
<path opacity="0.8" fill-rule="evenodd" clip-rule="evenodd" d="M29.7972 26.3316C28.8437 27.9922 29.3821 29.0363 30.1919 30.0556C30.5844 30.4663 32.2681 32.5807 33.9521 32.4386L34.7188 33.5119C34.3172 33.5692 33.9025 33.5726 33.4839 33.5284C32.7169 33.3773 31.9346 33.1581 31.1808 32.8369C29.6682 32.0926 28.3329 30.8432 27.6518 29.4264C27.4238 28.8419 27.2725 28.2579 27.185 27.6825C27.1446 27.3369 27.1133 26.9742 27.0921 26.5916C27.0637 25.1831 27.3837 23.8583 27.8458 22.7391C27.9907 22.3881 28.1497 22.0573 28.3162 21.7504C28.802 20.8554 29.3526 20.1645 29.8097 19.7711C29.8638 19.7307 29.9139 19.7122 29.9587 19.7119C30.1298 19.7103 30.2231 19.9723 30.1673 20.2768C30.0275 21.3209 28.0997 24.4244 30.1919 23.9641L33.1033 23.1135C33.5739 23.0392 33.5455 23.5415 33.3116 23.6805C31.9245 24.3794 30.5328 25.158 29.7972 26.3316ZM30.7235 21.2994C30.1884 21.2994 29.7546 21.7332 29.7546 22.2684C29.7546 22.8035 30.1884 23.2373 30.7235 23.2373C31.2587 23.2373 31.6925 22.8035 31.6925 22.2684C31.6925 21.7332 31.2587 21.2994 30.7235 21.2994Z" fill="#B9ADD6"/>
</g>
<mask id="mask8_5133_24706" style="mask-type:luminance" maskUnits="userSpaceOnUse" x="15" y="19" width="8" height="15">
<mask id="mask9_5133_24706" style="mask-type:luminance" maskUnits="userSpaceOnUse" x="15" y="19" width="8" height="15">
<path d="M22.8789 33.5625L15.2504 33.5625L15.2504 19.7157L22.8789 19.7157L22.8789 33.5625Z" fill="white"/>
</mask>
<g mask="url(#mask9_5133_24706)">
<path fill-rule="evenodd" clip-rule="evenodd" d="M22.8789 33.5625L15.2504 33.5625L15.2504 19.7157L22.8789 19.7157L22.8789 33.5625Z" fill="url(#paint14_linear_5133_24706)"/>
</g>
</mask>
<g mask="url(#mask8_5133_24706)">
<path opacity="0.8" fill-rule="evenodd" clip-rule="evenodd" d="M20.1681 26.3316C21.1217 27.9922 20.5833 29.0363 19.7735 30.0556C19.3809 30.4663 17.6972 32.5807 16.0132 32.4386L15.2465 33.5119C15.6482 33.5692 16.0628 33.5726 16.4815 33.5284C17.2483 33.3773 18.0307 33.1581 18.7845 32.8369C20.2971 32.0926 21.6324 30.8432 22.3136 29.4264C22.5416 28.8419 22.6928 28.2579 22.7803 27.6825C22.8207 27.3369 22.852 26.9742 22.8732 26.5916C22.9017 25.1831 22.5817 23.8583 22.1195 22.7391C21.9746 22.3881 21.8156 22.0573 21.6491 21.7504C21.1633 20.8554 20.6127 20.1645 20.1556 19.7711C20.1015 19.7307 20.0514 19.7122 20.0066 19.7119C19.8356 19.7103 19.7422 19.9723 19.798 20.2768C19.9378 21.3209 21.8656 24.4244 19.7735 23.9641L16.862 23.1135C16.3915 23.0392 16.4198 23.5415 16.6538 23.6805C18.0408 24.3794 19.4325 25.158 20.1681 26.3316ZM19.2418 21.2994C19.777 21.2994 20.2108 21.7332 20.2108 22.2684C20.2108 22.8035 19.777 23.2373 19.2418 23.2373C18.7066 23.2373 18.2728 22.8035 18.2728 22.2684C18.2728 21.7332 18.7066 21.2994 19.2418 21.2994Z" fill="#B9ADD6"/>
</g>
</g>
<defs>
<filter id="filter0_d_5133_24706" x="0.695153" y="1.80457" width="48.5394" height="48.5394" filterUnits="userSpaceOnUse" color-interpolation-filters="sRGB">
<feFlood flood-opacity="0" result="BackgroundImageFix"/>
<feColorMatrix in="SourceAlpha" type="matrix" values="0 0 0 0 0 0 0 0 0 0 0 0 0 0 0 0 0 0 127 0" result="hardAlpha"/>
<feOffset dy="0.359421"/>
<feGaussianBlur stdDeviation="0.628986"/>
<feComposite in2="hardAlpha" operator="out"/>
<feColorMatrix type="matrix" values="0 0 0 0 0.166909 0 0 0 0 0.0935 0 0 0 0 0.255 0 0 0 1 0"/>
<feBlend mode="normal" in2="BackgroundImageFix" result="effect1_dropShadow_5133_24706"/>
<feBlend mode="normal" in="SourceGraphic" in2="effect1_dropShadow_5133_24706" result="shape"/>
</filter>
<linearGradient id="paint0_linear_5133_24706" x1="24.9938" y1="25.7118" x2="24.5838" y2="14.2725" gradientUnits="userSpaceOnUse">
<stop stop-color="#9C5ED7"/>
<stop offset="0.5" stop-color="#635AD9"/>
<stop offset="1" stop-color="#E8A0A0"/>
</linearGradient>
<linearGradient id="paint1_linear_5133_24706" x1="16.3447" y1="34.1385" x2="15.8224" y2="13.5367" gradientUnits="userSpaceOnUse">
<stop stop-color="#9C5ED7"/>
<stop offset="0.5" stop-color="#635AD9"/>
<stop offset="1" stop-color="#E8A0A0"/>
</linearGradient>
<linearGradient id="paint2_linear_5133_24706" x1="33.5967" y1="34.1385" x2="34.119" y2="13.5367" gradientUnits="userSpaceOnUse">
<stop stop-color="#9C5ED7"/>
<stop offset="0.5" stop-color="#635AD9"/>
<stop offset="1" stop-color="#E8A0A0"/>
</linearGradient>
<linearGradient id="paint3_linear_5133_24706" x1="19.2257" y1="21.4243" x2="20.7255" y2="13.4659" gradientUnits="userSpaceOnUse">
<stop stop-color="#9C5ED7"/>
<stop offset="0.5" stop-color="#635AD9"/>
<stop offset="1" stop-color="#E8A0A0"/>
</linearGradient>
<linearGradient id="paint4_linear_5133_24706" x1="28.8612" y1="22.4554" x2="29.2494" y2="13.5482" gradientUnits="userSpaceOnUse">
<stop stop-color="#9C5ED7"/>
<stop offset="0.5" stop-color="#635AD9"/>
<stop offset="1" stop-color="#E8A0A0"/>
</linearGradient>
<linearGradient id="paint5_linear_5133_24706" x1="24.9667" y1="7.2268" x2="24.9667" y2="44.1523" gradientUnits="userSpaceOnUse">
<stop stop-color="#F48B26"/>
<stop offset="1" stop-color="#EEB57E"/>
</linearGradient>
<linearGradient id="paint6_linear_5133_24706" x1="24.9641" y1="55.364" x2="24.1475" y2="2.71579" gradientUnits="userSpaceOnUse">
<stop stop-color="#9C5ED7"/>
<stop offset="0.5" stop-color="#635AD9"/>
<stop offset="1" stop-color="#E8A0A0"/>
</linearGradient>
<linearGradient id="paint7_linear_5133_24706" x1="26.4375" y1="38.5" x2="26.4276" y2="34.5" gradientUnits="userSpaceOnUse">
<stop stop-color="#9C5ED7"/>
<stop offset="0.5" stop-color="#635AD9"/>
<stop offset="1" stop-color="#E8A0A0"/>
</linearGradient>
<linearGradient id="paint8_linear_5133_24706" x1="24.1251" y1="11.2984" x2="38.9543" y2="32.6758" gradientUnits="userSpaceOnUse">
<stop stop-color="white"/>
<stop offset="1" stop-color="white" stop-opacity="0"/>
</linearGradient>
<linearGradient id="paint9_linear_5133_24706" x1="24.1251" y1="11.2984" x2="38.9543" y2="32.6758" gradientUnits="userSpaceOnUse">
<stop stop-color="white"/>
<stop offset="1" stop-color="white" stop-opacity="0"/>
</linearGradient>
<linearGradient id="paint10_linear_5133_24706" x1="24.1251" y1="11.2984" x2="38.9543" y2="32.6758" gradientUnits="userSpaceOnUse">
<stop offset="0.774" stop-color="white"/>
<stop offset="1" stop-color="white" stop-opacity="0"/>
</linearGradient>
<linearGradient id="paint11_linear_5133_24706" x1="3.04871" y1="35.0034" x2="12.7854" y2="24.6822" gradientUnits="userSpaceOnUse">
<stop offset="0.54285" stop-color="white" stop-opacity="0"/>
<stop offset="1" stop-color="white" stop-opacity="0.8"/>
</linearGradient>
<linearGradient id="paint12_linear_5133_24706" x1="4.97539" y1="34.4481" x2="14.5691" y2="25.9551" gradientUnits="userSpaceOnUse">
<stop offset="0.54285" stop-color="white" stop-opacity="0"/>
<stop offset="1" stop-color="white" stop-opacity="0.8"/>
</linearGradient>
<linearGradient id="paint13_linear_5133_24706" x1="28.5897" y1="24.1854" x2="28.5897" y2="30.3471" gradientUnits="userSpaceOnUse">
<stop stop-color="white"/>
<stop offset="1" stop-color="white" stop-opacity="0"/>
</linearGradient>
<linearGradient id="paint14_linear_5133_24706" x1="21.3806" y1="24.1854" x2="21.3806" y2="30.3471" gradientUnits="userSpaceOnUse">
<stop stop-color="white"/>
<stop offset="1" stop-color="white" stop-opacity="0"/>
</linearGradient>
<clipPath id="clip0_5133_24706">
<rect width="50" height="50" fill="white" transform="translate(0.160156 0.335938)"/>
</clipPath>
<clipPath id="clip1_5133_24706">
<rect width="7.90725" height="7.90725" fill="white" transform="translate(10.25 26.5547)"/>
</clipPath>
</defs>
</svg>
