<svg width="18" height="20" viewBox="0 0 18 20" fill="none" xmlns="http://www.w3.org/2000/svg">
<path d="M9 2.39885C9.14918 2.39885 9.29226 2.46045 9.39775 2.57011C9.50324 2.67976 9.5625 2.82848 9.5625 2.98355V9.4153H15.75C15.8992 9.4153 16.0423 9.4769 16.1477 9.58655C16.2532 9.69621 16.3125 9.84493 16.3125 10C16.3125 10.1551 16.2532 10.3038 16.1477 10.4135C16.0423 10.5231 15.8992 10.5847 15.75 10.5847H9.5625V17.0164C9.5625 17.1715 9.50324 17.3202 9.39775 17.4299C9.29226 17.5396 9.14918 17.6012 9 17.6012C8.85082 17.6012 8.70774 17.5396 8.60225 17.4299C8.49676 17.3202 8.4375 17.1715 8.4375 17.0164V10.5847H2.25C2.10082 10.5847 1.95774 10.5231 1.85225 10.4135C1.74676 10.3038 1.6875 10.1551 1.6875 10C1.6875 9.84493 1.74676 9.69621 1.85225 9.58655C1.95774 9.4769 2.10082 9.4153 2.25 9.4153H8.4375V2.98355C8.4375 2.82848 8.49676 2.67976 8.60225 2.57011C8.70774 2.46045 8.85082 2.39885 9 2.39885Z" fill="#346BBB"/>
</svg>
