<svg width="40" height="40" viewBox="0 0 40 40" fill="none" xmlns="http://www.w3.org/2000/svg">
<g clip-path="url(#clip0_1053_4219)">
<rect x="0.800781" y="3.2002" width="18.4" height="33.6" fill="#DAD0B6"/>
<path d="M18.3984 16.0002L21.9984 11.2002H35.1984L39.1984 16.0002L38.7984 36.8002H18.3984V16.0002Z" fill="#D9F6FF"/>
<rect x="24" y="19.2002" width="15.2" height="13.6" fill="#FFFCA8"/>
<path d="M1.13281 2.6875C0.664062 2.90625 0.375 3.20312 0.164062 3.67188C0.0078125 4.02344 0 4.09375 0 20V35.9766L0.1875 36.3672C0.40625 36.8359 0.703125 37.125 1.17188 37.3359C1.51562 37.4922 1.64844 37.5 8.67969 37.5C15.7578 37.5 15.8281 37.5 16 37.3438C16.3125 37.0469 16.2891 36.6172 15.9453 36.3516C15.8516 36.2734 14.1953 36.2578 8.80469 36.25C1.57812 36.25 1.58594 36.25 1.35156 35.9453C1.21094 35.7656 1.21094 4.23438 1.35156 4.05469C1.40625 3.98438 1.52344 3.89062 1.61719 3.84375C1.86719 3.70312 18.2656 3.71875 18.4453 3.85156C18.7344 4.07812 18.75 4.22656 18.75 7.25L18.8 14H19.6C19.9281 14.3203 19.7812 12.8141 20 12.4C20.0703 12.2828 20 9.21094 20 7.05469C20 4.03125 20 4.02344 19.8125 3.63281C19.5938 3.16406 19.2969 2.875 18.8281 2.66406C18.4844 2.50781 18.3594 2.5 10 2.5H1.52344L1.13281 2.6875Z" fill="#464646"/>
<path d="M20.8281 3.32812L20.625 3.53906V5.625V7.71094L20.8281 7.92188C20.9453 8.03125 21.0859 8.125 21.1406 8.125C21.2266 8.125 21.25 8.35156 21.25 9.27344V10.4141L19.9297 12.1797C18.3594 14.2891 18.2188 14.5078 17.9453 15.1406C17.5 16.1953 17.5 16.1172 17.5 26.4766V35.9766L17.6875 36.3672C17.9062 36.8359 18.2031 37.125 18.6719 37.3359C19.0156 37.4922 19.1328 37.5 28.75 37.5H38.4766L38.8672 37.3125C39.3281 37.1016 39.6953 36.7109 39.875 36.2422C39.9922 35.9297 40 35.0703 39.9766 26.1328C39.9531 15.5469 39.9766 16.1328 39.5312 15.0781C39.2891 14.5156 39.1172 14.2656 37.5703 12.1797L36.25 10.4141V9.28906V8.16406L36.4688 8.0625C36.8438 7.89844 36.875 7.73438 36.875 5.61719C36.875 3.63281 36.8516 3.4375 36.5703 3.22656C36.4766 3.14844 34.6719 3.13281 28.7422 3.125H21.0391L20.8281 3.32812ZM24.375 5.625V6.875H23.125H21.875V5.625V4.375H23.125H24.375V5.625ZM28.125 5.625V6.875H26.875H25.625V5.625V4.375H26.875H28.125V5.625ZM31.875 5.625V6.875H30.625H29.375V5.625V4.375H30.625H31.875V5.625ZM35.625 5.625V6.875H34.375H33.125V5.625V4.375H34.375H35.625V5.625ZM35 9.0625V10H28.75H22.5V9.0625V8.125H28.75H35V9.0625ZM36.7031 13.1094C37.4766 14.1328 38.1953 15.1719 38.3125 15.4219C38.5938 16.0078 38.75 16.7656 38.75 17.5156V18.125H31.7031C24.7734 18.125 24.6406 18.1328 24.2969 18.2891C23.8281 18.5 23.5312 18.7891 23.3125 19.2578L23.125 19.6484V25.625V31.6016L23.3125 31.9922C23.5312 32.4609 23.8281 32.75 24.2969 32.9609C24.6406 33.1172 24.7734 33.125 31.7031 33.125H38.75V34.4219C38.75 35.7188 38.7109 35.9453 38.4453 36.1484C38.2656 36.2812 19.3672 36.2969 19.1172 36.1562C18.7422 35.9609 18.7578 36.375 18.75 26.3672C18.75 16.1016 18.7422 16.3594 19.1875 15.4219C19.3047 15.1719 20.0234 14.1328 20.7969 13.1094L22.1875 11.25H28.75H35.3125L36.7031 13.1094ZM38.75 25.625V31.875H31.8281C24.7031 31.875 24.7109 31.875 24.4766 31.5703C24.3359 31.3906 24.3359 19.8594 24.4766 19.6797C24.7109 19.3828 24.6953 19.3828 31.8203 19.375H38.75V25.625Z" fill="#464646"/>
<path d="M30.2031 21.4531C30.0078 21.6562 30 21.6797 30 22.7031V23.75H28.9531C27.9297 23.75 27.9062 23.7578 27.7031 23.9531L27.5 24.1641V25.625V27.0859L27.7031 27.2969C27.9062 27.4922 27.9297 27.5 28.9531 27.5H30V28.5469C30 29.5703 30.0078 29.5938 30.2031 29.7969L30.4141 30H31.8672C32.8828 29.9922 33.3594 29.9688 33.4453 29.8984C33.6953 29.7031 33.75 29.4609 33.75 28.4844V27.5H34.7891C36.2656 27.4922 36.25 27.5078 36.25 25.625C36.25 23.7422 36.2656 23.7578 34.7891 23.75H33.75V22.7656C33.75 21.7891 33.6953 21.5469 33.4453 21.3516C33.3594 21.2812 32.8828 21.2578 31.8672 21.25H30.4141L30.2031 21.4531ZM32.5 23.5469C32.5 24.5703 32.5078 24.5938 32.7031 24.7969C32.9062 24.9922 32.9297 25 33.9531 25H35V25.625V26.25H33.9531C32.9297 26.25 32.9062 26.2578 32.7031 26.4531C32.5078 26.6562 32.5 26.6797 32.5 27.7031V28.75H31.875H31.25V27.7656C31.25 26.2891 31.2188 26.2578 29.7891 26.25H28.75V25.625V25H29.7891C31.2188 24.9922 31.25 24.9609 31.25 23.4844V22.5H31.875H32.5V23.5469Z" fill="#FF5F5F"/>
<path d="M5.49142 6.39062C4.63986 6.69531 4.1008 7.26562 3.8508 8.11719C3.62423 8.91406 3.88205 9.89844 4.49142 10.5078C5.44455 11.4531 7.05392 11.4531 8.00705 10.5078C8.95236 9.55469 8.95236 7.94531 8.00705 6.99219C7.36642 6.35938 6.29611 6.10156 5.49142 6.39062ZM6.9758 7.75781C7.74142 8.33594 7.61642 9.46875 6.74923 9.88281C5.9133 10.2734 4.9133 9.54688 5.02267 8.625C5.12423 7.67969 6.23361 7.1875 6.9758 7.75781Z" fill="#6D6D6D"/>
<path d="M12.9914 6.39062C12.1399 6.69531 11.6008 7.26562 11.3508 8.11719C11.1242 8.91406 11.382 9.89844 11.9914 10.5078C12.9445 11.4531 14.5539 11.4531 15.507 10.5078C16.4524 9.55469 16.4524 7.94531 15.507 6.99219C14.8664 6.35938 13.7961 6.10156 12.9914 6.39062ZM14.4758 7.75781C15.2414 8.33594 15.1164 9.46875 14.2492 9.88281C13.4133 10.2734 12.4133 9.54688 12.5227 8.625C12.6242 7.67969 13.7336 7.1875 14.4758 7.75781Z" fill="#6D6D6D"/>
<path d="M5.49142 13.8906C4.63986 14.1953 4.1008 14.7656 3.8508 15.6172C3.62423 16.4141 3.88205 17.3984 4.49142 18.0078C5.44455 18.9531 7.05392 18.9531 8.00705 18.0078C8.95236 17.0547 8.95236 15.4453 8.00705 14.4922C7.36642 13.8594 6.29611 13.6016 5.49142 13.8906ZM6.9758 15.2578C7.74142 15.8359 7.61642 16.9688 6.74923 17.3828C5.9133 17.7734 4.9133 17.0469 5.02267 16.125C5.12423 15.1797 6.23361 14.6875 6.9758 15.2578Z" fill="#6D6D6D"/>
<path d="M12.9914 13.8906C12.1399 14.1953 11.6008 14.7656 11.3508 15.6172C11.1242 16.4141 11.382 17.3984 11.9914 18.0078C12.9445 18.9531 14.5539 18.9531 15.507 18.0078C16.4524 17.0547 16.4524 15.4453 15.507 14.4922C14.8664 13.8594 13.7961 13.6016 12.9914 13.8906ZM14.4758 15.2578C15.2414 15.8359 15.1164 16.9688 14.2492 17.3828C13.4133 17.7734 12.4133 17.0469 12.5227 16.125C12.6242 15.1797 13.7336 14.6875 14.4758 15.2578Z" fill="#6D6D6D"/>
<path d="M5.49142 21.3906C4.63986 21.6953 4.1008 22.2656 3.8508 23.1172C3.62423 23.9141 3.88205 24.8984 4.49142 25.5078C5.44455 26.4531 7.05392 26.4531 8.00705 25.5078C8.95236 24.5547 8.95236 22.9453 8.00705 21.9922C7.36642 21.3594 6.29611 21.1016 5.49142 21.3906ZM6.9758 22.7578C7.74142 23.3359 7.61642 24.4688 6.74923 24.8828C5.9133 25.2734 4.9133 24.5469 5.02267 23.625C5.12423 22.6797 6.23361 22.1875 6.9758 22.7578Z" fill="#6D6D6D"/>
<path d="M12.9914 21.3906C12.1399 21.6953 11.6008 22.2656 11.3508 23.1172C11.1242 23.9141 11.382 24.8984 11.9914 25.5078C12.9445 26.4531 14.5539 26.4531 15.507 25.5078C16.4524 24.5547 16.4524 22.9453 15.507 21.9922C14.8664 21.3594 13.7961 21.1016 12.9914 21.3906ZM14.4758 22.7578C15.2414 23.3359 15.1164 24.4688 14.2492 24.8828C13.4133 25.2734 12.4133 24.5469 12.5227 23.625C12.6242 22.6797 13.7336 22.1875 14.4758 22.7578Z" fill="#6D6D6D"/>
<path d="M5.49142 28.8906C4.63986 29.1953 4.1008 29.7656 3.8508 30.6172C3.62423 31.4141 3.88205 32.3984 4.49142 33.0078C5.44455 33.9531 7.05392 33.9531 8.00705 33.0078C8.95236 32.0547 8.95236 30.4453 8.00705 29.4922C7.36642 28.8594 6.29611 28.6016 5.49142 28.8906ZM6.9758 30.2578C7.74142 30.8359 7.61642 31.9688 6.74923 32.3828C5.9133 32.7734 4.9133 32.0469 5.02267 31.125C5.12423 30.1797 6.23361 29.6875 6.9758 30.2578Z" fill="#6D6D6D"/>
<path d="M12.9914 28.8906C12.1399 29.1953 11.6008 29.7656 11.3508 30.6172C11.1242 31.4141 11.382 32.3984 11.9914 33.0078C12.9445 33.9531 14.5539 33.9531 15.507 33.0078C16.4524 32.0547 16.4524 30.4453 15.507 29.4922C14.8664 28.8594 13.7961 28.6016 12.9914 28.8906ZM14.4758 30.2578C15.2414 30.8359 15.1164 31.9688 14.2492 32.3828C13.4133 32.7734 12.4133 32.0469 12.5227 31.125C12.6242 30.1797 13.7336 29.6875 14.4758 30.2578Z" fill="#6D6D6D"/>
</g>
<defs>
<clipPath id="clip0_1053_4219">
<rect width="40" height="40" fill="white"/>
</clipPath>
</defs>
</svg>
