<svg width="41" height="40" viewBox="0 0 41 40" fill="none" xmlns="http://www.w3.org/2000/svg">
<g style="mix-blend-mode:screen" opacity="0.24">
<path fill-rule="evenodd" clip-rule="evenodd" d="M29.6354 34.4441C30.2491 34.4441 30.7465 34.9416 30.7465 35.5552C30.7465 36.1689 30.2491 36.6663 29.6354 36.6663H19.6354C19.5701 36.6663 19.5061 36.6607 19.4439 36.6499C15.8746 36.4924 12.597 35.2123 9.9555 33.1541C9.74066 32.9867 9.4169 32.7092 9.17695 32.5004C8.97174 32.3218 8.70946 32.2219 8.43743 32.2219H5.74653C5.13288 32.2219 4.63542 31.7244 4.63542 31.1108C4.63542 30.4971 5.13288 29.9997 5.74653 29.9997H6.85764C7.47129 29.9997 7.96875 29.5022 7.96875 28.8886C7.96875 28.2749 7.47129 27.7775 6.85764 27.7775H4.07986C3.46621 27.7775 2.96875 27.28 2.96875 26.6663C2.96875 26.0527 3.46621 25.5552 4.07986 25.5552H4.63542C5.24907 25.5552 5.74653 25.0578 5.74653 24.4441C5.74653 23.8305 5.24907 23.333 4.63542 23.333C4.18614 23.333 3.80187 23.0092 3.72712 22.5661C3.69996 22.4052 3.67838 22.2756 3.67482 22.2492C3.57556 21.5135 3.52431 20.7626 3.52431 19.9997C3.52431 10.7949 10.9862 3.33301 20.191 3.33301C22.9687 3.33301 25.7465 3.33301 28.5243 3.33301C29.138 3.33301 29.6354 3.83047 29.6354 4.44412C29.6354 5.05777 29.138 5.55523 28.5243 5.55523H26.8576C26.244 5.55523 25.7465 6.05269 25.7465 6.66634C25.7465 7.27999 26.244 7.77745 26.8576 7.77745H33.5243C34.138 7.77745 34.6354 8.27491 34.6354 8.88856C34.6354 9.50181 34.1386 9.99901 33.5255 9.99967L31.8576 9.99967C31.244 9.99967 30.7465 10.4971 30.7465 11.1108C30.7465 11.7244 31.244 12.2219 31.8576 12.2219H34.2499C34.6701 12.2219 35.0552 12.4585 35.2374 12.8371C35.3469 13.0647 35.4621 13.3102 35.5374 13.4876C36.3874 15.4882 36.8576 17.689 36.8576 19.9997C36.8576 20.7257 36.8112 21.4409 36.7212 22.1424C36.706 22.2604 36.6828 22.4118 36.6575 22.5668C36.585 23.0115 36.1971 23.333 35.7465 23.333C35.1329 23.333 34.6354 23.8305 34.6354 24.4441C34.6354 25.0578 35.1329 25.5552 35.7465 25.5552H36.3021C36.9157 25.5552 37.4132 26.0527 37.4132 26.6663C37.4132 27.28 36.9157 27.7775 36.3021 27.7775H35.5888C35.1855 27.7775 34.8145 27.9965 34.613 28.3459C34.4821 28.5728 34.3366 28.8197 34.2285 28.9882C33.9751 29.3832 33.7054 29.7668 33.4205 30.138C33.1344 30.5108 32.8328 30.8712 32.5168 31.2182C32.3433 31.4087 32.0624 31.6908 31.8432 31.9075C31.6382 32.1102 31.361 32.2219 31.0727 32.2219H27.9687C27.3551 32.2219 26.8576 32.7194 26.8576 33.333C26.8576 33.9424 27.3482 34.4372 27.9559 34.444L29.6354 34.4441Z" fill="white"/>
</g>
<path fill-rule="evenodd" clip-rule="evenodd" d="M15.7461 20H24.635V37.9645C24.635 38.3836 24.1887 38.6518 23.8187 38.4552L20.1905 36.5278L16.5624 38.4552C16.1923 38.6518 15.7461 38.3836 15.7461 37.9645V20Z" fill="#A1C7FF"/>
<mask id="mask0_3072_18417" style="mask-type:luminance" maskUnits="userSpaceOnUse" x="15" y="20" width="10" height="19">
<path fill-rule="evenodd" clip-rule="evenodd" d="M15.7461 20H24.635V37.9645C24.635 38.3836 24.1887 38.6518 23.8187 38.4552L20.1905 36.5278L16.5624 38.4552C16.1923 38.6518 15.7461 38.3836 15.7461 37.9645V20Z" fill="white"/>
</mask>
<g mask="url(#mask0_3072_18417)">
<path fill-rule="evenodd" clip-rule="evenodd" d="M17.9688 28.8887H22.4132V38.8887H17.9688V28.8887Z" fill="#E7F1FF"/>
</g>
<path fill-rule="evenodd" clip-rule="evenodd" d="M18.8855 8.17083C19.6644 7.60486 20.7192 7.60486 21.4982 8.17083L31.0378 15.1018C31.8168 15.6677 32.1428 16.6709 31.8452 17.5867L28.2014 28.8011C27.9039 29.7169 27.0505 30.3369 26.0876 30.3369H14.296C13.3332 30.3369 12.4798 29.7169 12.1823 28.8011L8.53845 17.5867C8.2409 16.6709 8.56686 15.6677 9.34584 15.1018L18.8855 8.17083Z" fill="#B6D5FF"/>
<path fill-rule="evenodd" clip-rule="evenodd" d="M19.5404 11.5849C19.9299 11.3019 20.4573 11.3019 20.8468 11.5849L27.9942 16.7778C28.3837 17.0608 28.5467 17.5624 28.3979 18.0203L25.6678 26.4226C25.5191 26.8805 25.0924 27.1905 24.6109 27.1905H15.7762C15.2948 27.1905 14.8681 26.8805 14.7193 26.4226L11.9892 18.0203C11.8405 17.5624 12.0034 17.0608 12.3929 16.7778L19.5404 11.5849Z" fill="#D6E7FF"/>
<path fill-rule="evenodd" clip-rule="evenodd" d="M20.1914 23L18.0164 23.7734C17.6485 23.9043 17.264 23.6249 17.2748 23.2346L17.3382 20.9271L15.9305 19.0975C15.6925 18.7881 15.8393 18.3361 16.2138 18.2257L18.4281 17.5729L19.7331 15.6688C19.9538 15.3467 20.429 15.3467 20.6497 15.6688L21.9548 17.5729L24.169 18.2257C24.5435 18.3361 24.6904 18.7881 24.4523 19.0975L23.0446 20.9271L23.108 23.2346C23.1188 23.6249 22.7343 23.9043 22.3664 23.7734L20.1914 23Z" fill="#A1C7FF" stroke="white" stroke-width="1.11128" stroke-linecap="round" stroke-linejoin="round"/>
</svg>
