<svg width="71" height="71" viewBox="0 0 71 71" fill="none" xmlns="http://www.w3.org/2000/svg">
<path fill-rule="evenodd" clip-rule="evenodd" d="M52.1862 60.8439C53.2601 60.8439 54.1306 61.7144 54.1306 62.7883C54.1306 63.8622 53.2601 64.7327 52.1862 64.7327H34.6862C34.5719 64.7327 34.4599 64.7229 34.351 64.704C28.1047 64.4284 22.3689 62.1883 17.7463 58.5863C17.3704 58.2933 16.8038 57.8077 16.3839 57.4423C16.0248 57.1299 15.5658 56.955 15.0897 56.955H10.3806C9.30676 56.955 8.4362 56.0844 8.4362 55.0105C8.4362 53.9366 9.30676 53.0661 10.3806 53.0661H12.3251C13.399 53.0661 14.2695 52.1955 14.2695 51.1216C14.2695 50.0477 13.399 49.1772 12.3251 49.1772H7.46398C6.39009 49.1772 5.51953 48.3066 5.51953 47.2327C5.51953 46.1589 6.39009 45.2883 7.46398 45.2883H8.4362C9.51008 45.2883 10.3806 44.4177 10.3806 43.3439C10.3806 42.27 9.51008 41.3994 8.4362 41.3994C7.64996 41.3994 6.97749 40.8327 6.84667 40.0574C6.79914 39.7757 6.76139 39.5489 6.75516 39.5028C6.58146 38.2153 6.49175 36.9012 6.49175 35.5661C6.49175 19.4578 19.5501 6.39941 35.6584 6.39941C40.5195 6.39941 45.3806 6.39941 50.2418 6.39941C51.3156 6.39941 52.1862 7.26997 52.1862 8.34386C52.1862 9.41775 51.3156 10.2883 50.2418 10.2883H47.3251C46.2512 10.2883 45.3806 11.1589 45.3806 12.2327C45.3806 13.3066 46.2512 14.1772 47.3251 14.1772H58.9918C60.0656 14.1772 60.9362 15.0477 60.9362 16.1216C60.9362 17.1948 60.0668 18.0649 58.9939 18.0661L56.0751 18.0661C55.0012 18.0661 54.1306 18.9366 54.1306 20.0105C54.1306 21.0844 55.0012 21.955 56.0751 21.955H60.2615C60.9968 21.955 61.6708 22.369 61.9896 23.0317C62.1813 23.4299 62.3828 23.8595 62.5148 24.17C64.0022 27.671 64.8251 31.5224 64.8251 35.5661C64.8251 36.8366 64.7438 38.0882 64.5863 39.3159C64.5598 39.5223 64.5191 39.7872 64.4749 40.0585C64.348 40.8368 63.6692 41.3994 62.8806 41.3994C61.8068 41.3994 60.9362 42.27 60.9362 43.3439C60.9362 44.4177 61.8068 45.2883 62.8806 45.2883H63.8529C64.9268 45.2883 65.7973 46.1589 65.7973 47.2327C65.7973 48.3066 64.9268 49.1772 63.8529 49.1772H62.6047C61.8988 49.1772 61.2497 49.5604 60.897 50.172C60.6679 50.5691 60.4133 51.0012 60.2241 51.2961C59.7806 51.9872 59.3087 52.6585 58.8101 53.3081C58.3093 53.9606 57.7816 54.5913 57.2286 55.1986C56.9251 55.5318 56.4333 56.0256 56.0498 56.4047C55.691 56.7595 55.206 56.955 54.7014 56.955H49.2695C48.1956 56.955 47.3251 57.8255 47.3251 58.8994C47.3251 59.9658 48.1835 60.8317 49.2471 60.8437L52.1862 60.8439Z" fill="url(#paint0_linear_3103_25584)"/>
<g opacity="0.1">
<path fill-rule="evenodd" clip-rule="evenodd" d="M33.6951 12.6844C34.8636 11.8354 36.4458 11.8354 37.6143 12.6844L56.8111 26.6316C57.9795 27.4806 58.4685 28.9854 58.0222 30.359L50.6896 52.9262C50.2433 54.2998 48.9633 55.2298 47.519 55.2298H23.7904C22.3461 55.2298 21.0661 54.2998 20.6198 52.9262L13.2872 30.359C12.8409 28.9854 13.3298 27.4806 14.4983 26.6316L33.6951 12.6844Z" fill="#15201A" style="mix-blend-mode:multiply"/>
</g>
<g filter="url(#filter0_d_3103_25584)">
<path fill-rule="evenodd" clip-rule="evenodd" d="M27.8789 35.5664H43.4345V67.6976C43.4345 68.1167 42.9882 68.3849 42.6181 68.1883L35.6567 64.49L28.6952 68.1883C28.3251 68.3849 27.8789 68.1167 27.8789 67.6976V35.5664Z" fill="#7F45F6"/>
</g>
<mask id="mask0_3103_25584" style="mask-type:luminance" maskUnits="userSpaceOnUse" x="27" y="35" width="17" height="34">
<path fill-rule="evenodd" clip-rule="evenodd" d="M27.8789 35.5664H43.4345V67.6976C43.4345 68.1167 42.9882 68.3849 42.6181 68.1883L35.6567 64.49L28.6952 68.1883C28.3251 68.3849 27.8789 68.1167 27.8789 67.6976V35.5664Z" fill="white"/>
</mask>
<g mask="url(#mask0_3103_25584)">
<path fill-rule="evenodd" clip-rule="evenodd" d="M31.7695 51.1221H39.5473V68.6221H31.7695V51.1221Z" fill="white"/>
</g>
<path style="mix-blend-mode:multiply" opacity="0.2" fill-rule="evenodd" clip-rule="evenodd" d="M34.352 16.0995C35.131 15.5335 36.1858 15.5335 36.9648 16.0995L55.6187 29.6523C56.3977 30.2183 56.7236 31.2215 56.4261 32.1372L49.3009 54.0662C49.0034 54.9819 48.15 55.602 47.1871 55.602H24.1296C23.1668 55.602 22.3134 54.9819 22.0159 54.0662L14.8907 32.1372C14.5932 31.2215 14.9191 30.2183 15.6981 29.6523L34.352 16.0995Z" fill="#15201A"/>
<path fill-rule="evenodd" clip-rule="evenodd" d="M34.3516 14.1542C35.1306 13.5883 36.1854 13.5883 36.9644 14.1542L55.6183 27.7071C56.3973 28.273 56.7232 29.2762 56.4257 30.192L49.3005 52.121C49.003 53.0367 48.1496 53.6567 47.1867 53.6567H24.1292C23.1664 53.6567 22.313 53.0367 22.0155 52.121L14.8903 30.192C14.5928 29.2762 14.9187 28.273 15.6977 27.7071L34.3516 14.1542Z" fill="url(#paint1_linear_3103_25584)" stroke="#FEFFFF" stroke-opacity="0.2" stroke-width="0.55564"/>
<mask id="mask1_3103_25584" style="mask-type:luminance" maskUnits="userSpaceOnUse" x="14" y="13" width="43" height="41">
<path fill-rule="evenodd" clip-rule="evenodd" d="M34.3516 14.1542C35.1306 13.5883 36.1854 13.5883 36.9644 14.1542L55.6183 27.7071C56.3973 28.273 56.7232 29.2762 56.4257 30.192L49.3005 52.121C49.003 53.0367 48.1496 53.6567 47.1867 53.6567H24.1292C23.1664 53.6567 22.313 53.0367 22.0155 52.121L14.8903 30.192C14.5928 29.2762 14.9187 28.273 15.6977 27.7071L34.3516 14.1542Z" fill="white" stroke="white" stroke-width="0.55564"/>
</mask>
<g mask="url(#mask1_3103_25584)">
<path d="M37.6606 15.2592C36.468 14.3928 34.8531 14.3928 33.6604 15.2592L16.9654 27.3889C15.7728 28.2554 15.2737 29.7913 15.7293 31.1933L22.1062 50.8195C22.5617 52.2215 23.8683 53.1707 25.3424 53.1707H45.9786C47.4528 53.1707 48.7593 52.2215 49.2149 50.8195L55.5918 31.1933C56.0473 29.7913 55.5483 28.2554 54.3556 27.3889L37.6606 15.2592Z" stroke="#C28831" stroke-width="0.55564" stroke-linecap="round"/>
<path d="M49.2109 50.8195L55.5879 31.1934" stroke="#CD9E58" stroke-width="0.55564" stroke-linecap="round"/>
<path d="M15.7266 31.1934L22.1035 50.8195" stroke="#CD9E58" stroke-width="0.55564" stroke-linecap="round"/>
<path d="M55.5918 31.1933C56.0473 29.7913 55.5483 28.2554 54.3556 27.3889L37.6606 15.2592C36.468 14.3928 34.8531 14.3928 33.6604 15.2592L16.9654 27.3889C15.7728 28.2554 15.2737 29.7913 15.7293 31.1933" stroke="#C28831" stroke-width="0.55564" stroke-linecap="round"/>
<path opacity="0.4" d="M37.6562 15.2592C36.4635 14.3928 34.8486 14.3928 33.656 15.2592L16.9609 27.3889" stroke="#C28831" stroke-width="0.55564" stroke-linecap="round"/>
<path d="M33.6581 15.2598L29.4844 18.2922" stroke="white" stroke-width="0.55564" stroke-linecap="round"/>
</g>
<g filter="url(#filter1_d_3103_25584)">
<path fill-rule="evenodd" clip-rule="evenodd" d="M35.0039 20.4853C35.3934 20.2023 35.9208 20.2023 36.3103 20.4853L49.7981 30.2848C50.1876 30.5678 50.3506 31.0694 50.2018 31.5272L45.0499 47.3831C44.9012 47.841 44.4745 48.151 43.9931 48.151H27.3212C26.8397 48.151 26.4131 47.841 26.2643 47.3831L21.1124 31.5272C20.9636 31.0694 21.1266 30.5678 21.5161 30.2848L35.0039 20.4853Z" fill="url(#paint2_linear_3103_25584)"/>
<path d="M49.9614 30.06L36.4736 20.2606C35.9867 19.9068 35.3275 19.9068 34.8406 20.2606L21.3528 30.06C20.8659 30.4138 20.6622 31.0408 20.8482 31.6131L26.0001 47.469C26.186 48.0413 26.7194 48.4288 27.3212 48.4288H43.9931C44.5948 48.4288 45.1282 48.0413 45.3142 47.469L50.4661 31.6131C50.652 31.0408 50.4483 30.4138 49.9614 30.06Z" stroke="#94A0A4" stroke-opacity="0.06" stroke-width="0.55564"/>
</g>
<mask id="mask2_3103_25584" style="mask-type:luminance" maskUnits="userSpaceOnUse" x="21" y="20" width="30" height="29">
<path fill-rule="evenodd" clip-rule="evenodd" d="M35.0039 20.4853C35.3934 20.2023 35.9208 20.2023 36.3103 20.4853L49.7981 30.2848C50.1876 30.5678 50.3506 31.0694 50.2018 31.5272L45.0499 47.3831C44.9012 47.841 44.4745 48.151 43.9931 48.151H27.3212C26.8397 48.151 26.4131 47.841 26.2643 47.3831L21.1124 31.5272C20.9636 31.0694 21.1266 30.5678 21.5161 30.2848L35.0039 20.4853Z" fill="white"/>
</mask>
<g mask="url(#mask2_3103_25584)">
<g style="mix-blend-mode:multiply" opacity="0.2">
<path fill-rule="evenodd" clip-rule="evenodd" d="M35.6571 35.5663L20.1016 39.4552V31.6774L35.6571 35.5663ZM35.6571 35.5663L39.546 20.0107H31.7682L35.6571 35.5663ZM35.6571 35.5663L51.2127 31.6774V39.4552L35.6571 35.5663ZM35.6571 35.5663L43.9067 21.817L49.4064 27.3167L35.6571 35.5663ZM35.6571 35.5663L43.9067 49.3156L49.4064 43.8159L35.6571 35.5663ZM35.6571 35.5663L31.7682 51.1219H39.546L35.6571 35.5663ZM35.6571 35.5663L27.4075 49.3156L21.9078 43.8159L35.6571 35.5663Z" fill="url(#paint3_linear_3103_25584)"/>
<path d="M27.4075 21.817L21.9078 27.3167L35.6571 35.5663L27.4075 21.817Z" fill="url(#paint4_linear_3103_25584)"/>
</g>
<path d="M33.2355 22.3701C32.5606 22.8605 32.0393 23.2392 31.6719 23.5062" stroke="white" stroke-width="0.55564" stroke-linecap="round"/>
</g>
<g filter="url(#filter2_d_3103_25584)">
<path d="M33.1794 32.1538L35.6588 28.5361L38.1382 32.1538L42.3449 33.3939L39.6705 36.8698L39.7911 41.2539L35.6588 39.7845L31.5265 41.2539L31.6471 36.8698L28.9727 33.3939L33.1794 32.1538Z" fill="white"/>
<path d="M36.1171 28.222C36.0135 28.0709 35.8421 27.9805 35.6588 27.9805C35.4755 27.9805 35.3041 28.0709 35.2005 28.222L32.8328 31.6767L28.8155 32.8609C28.6398 32.9128 28.5008 33.0479 28.4442 33.2222C28.3876 33.3965 28.4205 33.5875 28.5323 33.7327L31.0863 37.0521L30.9711 41.2387C30.9661 41.4218 31.0517 41.5957 31.1999 41.7035C31.3482 41.8112 31.54 41.8389 31.7127 41.7775L35.6588 40.3742L39.6049 41.7775C39.7776 41.8389 39.9694 41.8112 40.1177 41.7035C40.2659 41.5957 40.3515 41.4218 40.3465 41.2387L40.2314 37.0521L42.7853 33.7327C42.8971 33.5875 42.93 33.3965 42.8734 33.2222C42.8168 33.0479 42.6778 32.9128 42.5021 32.8609L38.4848 31.6767L36.1171 28.222Z" stroke="white" stroke-width="1.11128" stroke-linejoin="round"/>
</g>
<g filter="url(#filter3_i_3103_25584)">
<path d="M33.1794 32.1538L35.6588 28.5361L38.1382 32.1538L42.3449 33.3939L39.6705 36.8698L39.7911 41.2539L35.6588 39.7845L31.5265 41.2539L31.6471 36.8698L28.9727 33.3939L33.1794 32.1538Z" fill="url(#paint5_linear_3103_25584)"/>
</g>
<g filter="url(#filter4_d_3103_25584)">
<path fill-rule="evenodd" clip-rule="evenodd" d="M30.4107 48.7107L30.0741 48.5779C29.8682 48.4968 29.7672 48.264 29.8484 48.0582C29.8891 47.9549 29.9708 47.8732 30.0741 47.8324L30.4107 47.6997C30.7989 47.5466 31.1062 47.2393 31.2592 46.8511L31.392 46.5145C31.4732 46.3087 31.7059 46.2076 31.9118 46.2888C32.015 46.3295 32.0968 46.4113 32.1375 46.5145L32.2703 46.8511C32.4234 47.2393 32.7306 47.5466 33.1188 47.6997L33.4554 47.8324C33.6613 47.9136 33.7623 48.1463 33.6812 48.3522C33.6404 48.4555 33.5587 48.5372 33.4554 48.5779L33.1188 48.7107C32.7306 48.8638 32.4234 49.1711 32.2703 49.5592L32.1375 49.8958C32.0563 50.1017 31.8236 50.2028 31.6177 50.1216C31.5145 50.0809 31.4327 49.9991 31.392 49.8958L31.2592 49.5592C31.1062 49.1711 30.7989 48.8638 30.4107 48.7107Z" fill="white"/>
</g>
<g filter="url(#filter5_d_3103_25584)">
<path fill-rule="evenodd" clip-rule="evenodd" d="M47.0896 31.8232L46.6688 31.6572C46.4115 31.5558 46.2851 31.2649 46.3866 31.0075C46.4375 30.8784 46.5397 30.7763 46.6688 30.7254L47.0896 30.5594C47.5748 30.368 47.9589 29.984 48.1502 29.4987L48.3162 29.078C48.4177 28.8206 48.7085 28.6943 48.9659 28.7958C49.095 28.8467 49.1972 28.9489 49.2481 29.078L49.414 29.4987C49.6054 29.984 49.9895 30.368 50.4747 30.5594L50.8954 30.7254C51.1528 30.8268 51.2791 31.1177 51.1776 31.3751C51.1267 31.5042 51.0245 31.6063 50.8954 31.6572L50.4747 31.8232C49.9895 32.0146 49.6054 32.3986 49.414 32.8839L49.2481 33.3046C49.1466 33.5619 48.8557 33.6883 48.5984 33.5868C48.4693 33.5359 48.3671 33.4337 48.3162 33.3046L48.1502 32.8839C47.9589 32.3986 47.5748 32.0146 47.0896 31.8232Z" fill="white"/>
</g>
<g filter="url(#filter6_d_3103_25584)">
<path fill-rule="evenodd" clip-rule="evenodd" d="M23.4584 36.4312L23.206 36.3317C23.0516 36.2708 22.9758 36.0962 23.0367 35.9418C23.0672 35.8644 23.1285 35.8031 23.206 35.7725L23.4584 35.6729C23.7496 35.5581 23.98 35.3277 24.0948 35.0365L24.1944 34.7841C24.2553 34.6297 24.4298 34.5539 24.5842 34.6148C24.6617 34.6453 24.723 34.7066 24.7535 34.7841L24.8531 35.0365C24.9679 35.3277 25.1984 35.5581 25.4895 35.6729L25.7419 35.7725C25.8963 35.8334 25.9721 36.0079 25.9113 36.1623C25.8807 36.2398 25.8194 36.3011 25.7419 36.3317L25.4895 36.4312C25.1984 36.546 24.9679 36.7765 24.8531 37.0676L24.7535 37.3201C24.6926 37.4745 24.5181 37.5503 24.3637 37.4894C24.2862 37.4588 24.2249 37.3975 24.1944 37.3201L24.0948 37.0676C23.98 36.7765 23.7496 36.546 23.4584 36.4312Z" fill="white"/>
</g>
<defs>
<filter id="filter0_d_3103_25584" x="26.7676" y="35.5664" width="17.7772" height="34.9101" filterUnits="userSpaceOnUse" color-interpolation-filters="sRGB">
<feFlood flood-opacity="0" result="BackgroundImageFix"/>
<feColorMatrix in="SourceAlpha" type="matrix" values="0 0 0 0 0 0 0 0 0 0 0 0 0 0 0 0 0 0 127 0" result="hardAlpha"/>
<feOffset dy="1.11128"/>
<feGaussianBlur stdDeviation="0.55564"/>
<feColorMatrix type="matrix" values="0 0 0 0 0.333333 0 0 0 0 0.790431 0 0 0 0 0.819608 0 0 0 0.2 0"/>
<feBlend mode="darken" in2="BackgroundImageFix" result="effect1_dropShadow_3103_25584"/>
<feBlend mode="normal" in="SourceGraphic" in2="effect1_dropShadow_3103_25584" result="shape"/>
</filter>
<filter id="filter1_d_3103_25584" x="19.3926" y="19.1621" width="32.5312" height="31.2118" filterUnits="userSpaceOnUse" color-interpolation-filters="sRGB">
<feFlood flood-opacity="0" result="BackgroundImageFix"/>
<feColorMatrix in="SourceAlpha" type="matrix" values="0 0 0 0 0 0 0 0 0 0 0 0 0 0 0 0 0 0 127 0" result="hardAlpha"/>
<feOffset dy="0.55564"/>
<feGaussianBlur stdDeviation="0.55564"/>
<feColorMatrix type="matrix" values="0 0 0 0 0.0196078 0 0 0 0 0.443137 0 0 0 0 0.643137 0 0 0 0.12 0"/>
<feBlend mode="normal" in2="BackgroundImageFix" result="effect1_dropShadow_3103_25584"/>
<feBlend mode="normal" in="SourceGraphic" in2="effect1_dropShadow_3103_25584" result="shape"/>
</filter>
<filter id="filter2_d_3103_25584" x="26.752" y="26.8692" width="17.8163" height="17.163" filterUnits="userSpaceOnUse" color-interpolation-filters="sRGB">
<feFlood flood-opacity="0" result="BackgroundImageFix"/>
<feColorMatrix in="SourceAlpha" type="matrix" values="0 0 0 0 0 0 0 0 0 0 0 0 0 0 0 0 0 0 127 0" result="hardAlpha"/>
<feOffset dy="0.55564"/>
<feGaussianBlur stdDeviation="0.55564"/>
<feColorMatrix type="matrix" values="0 0 0 0 0.596078 0 0 0 0 0.745098 0 0 0 0 0.780392 0 0 0 0.5 0"/>
<feBlend mode="normal" in2="BackgroundImageFix" result="effect1_dropShadow_3103_25584"/>
<feBlend mode="normal" in="SourceGraphic" in2="effect1_dropShadow_3103_25584" result="shape"/>
</filter>
<filter id="filter3_i_3103_25584" x="28.9727" y="28.5361" width="13.3711" height="13.2734" filterUnits="userSpaceOnUse" color-interpolation-filters="sRGB">
<feFlood flood-opacity="0" result="BackgroundImageFix"/>
<feBlend mode="normal" in="SourceGraphic" in2="BackgroundImageFix" result="shape"/>
<feColorMatrix in="SourceAlpha" type="matrix" values="0 0 0 0 0 0 0 0 0 0 0 0 0 0 0 0 0 0 127 0" result="hardAlpha"/>
<feOffset dy="0.55564"/>
<feGaussianBlur stdDeviation="0.27782"/>
<feComposite in2="hardAlpha" operator="arithmetic" k2="-1" k3="1"/>
<feColorMatrix type="matrix" values="0 0 0 0 0.508286 0 0 0 0 0.694443 0 0 0 0 0.72829 0 0 0 0.4 0"/>
<feBlend mode="normal" in2="shape" result="effect1_innerShadow_3103_25584"/>
</filter>
<filter id="filter4_d_3103_25584" x="28.709" y="45.1495" width="6.11319" height="6.11123" filterUnits="userSpaceOnUse" color-interpolation-filters="sRGB">
<feFlood flood-opacity="0" result="BackgroundImageFix"/>
<feColorMatrix in="SourceAlpha" type="matrix" values="0 0 0 0 0 0 0 0 0 0 0 0 0 0 0 0 0 0 127 0" result="hardAlpha"/>
<feOffset/>
<feGaussianBlur stdDeviation="0.55564"/>
<feColorMatrix type="matrix" values="0 0 0 0 0.705882 0 0 0 0 0.823529 0 0 0 0 0.831373 0 0 0 1 0"/>
<feBlend mode="normal" in2="BackgroundImageFix" result="effect1_dropShadow_3103_25584"/>
<feBlend mode="normal" in="SourceGraphic" in2="effect1_dropShadow_3103_25584" result="shape"/>
</filter>
<filter id="filter5_d_3103_25584" x="45.2403" y="27.6495" width="7.08194" height="7.08389" filterUnits="userSpaceOnUse" color-interpolation-filters="sRGB">
<feFlood flood-opacity="0" result="BackgroundImageFix"/>
<feColorMatrix in="SourceAlpha" type="matrix" values="0 0 0 0 0 0 0 0 0 0 0 0 0 0 0 0 0 0 127 0" result="hardAlpha"/>
<feOffset/>
<feGaussianBlur stdDeviation="0.55564"/>
<feColorMatrix type="matrix" values="0 0 0 0 0.705882 0 0 0 0 0.823529 0 0 0 0 0.831373 0 0 0 1 0"/>
<feBlend mode="normal" in2="BackgroundImageFix" result="effect1_dropShadow_3103_25584"/>
<feBlend mode="normal" in="SourceGraphic" in2="effect1_dropShadow_3103_25584" result="shape"/>
</filter>
<filter id="filter6_d_3103_25584" x="21.9043" y="33.4825" width="5.14053" height="5.13955" filterUnits="userSpaceOnUse" color-interpolation-filters="sRGB">
<feFlood flood-opacity="0" result="BackgroundImageFix"/>
<feColorMatrix in="SourceAlpha" type="matrix" values="0 0 0 0 0 0 0 0 0 0 0 0 0 0 0 0 0 0 127 0" result="hardAlpha"/>
<feOffset/>
<feGaussianBlur stdDeviation="0.55564"/>
<feColorMatrix type="matrix" values="0 0 0 0 0.705882 0 0 0 0 0.823529 0 0 0 0 0.831373 0 0 0 1 0"/>
<feBlend mode="normal" in2="BackgroundImageFix" result="effect1_dropShadow_3103_25584"/>
<feBlend mode="normal" in="SourceGraphic" in2="effect1_dropShadow_3103_25584" result="shape"/>
</filter>
<linearGradient id="paint0_linear_3103_25584" x1="5.51953" y1="6.39941" x2="5.51953" y2="64.7327" gradientUnits="userSpaceOnUse">
<stop stop-color="#59CBF2"/>
<stop offset="1" stop-color="#40A7E8"/>
</linearGradient>
<linearGradient id="paint1_linear_3103_25584" x1="13.2969" y1="13.2051" x2="13.2969" y2="57.9273" gradientUnits="userSpaceOnUse">
<stop stop-color="#AC8140"/>
<stop offset="1" stop-color="#C28831"/>
</linearGradient>
<linearGradient id="paint2_linear_3103_25584" x1="20.1016" y1="20.0107" x2="20.1016" y2="51.1219" gradientUnits="userSpaceOnUse">
<stop stop-color="#F0FBFE"/>
<stop offset="1" stop-color="#C28831"/>
</linearGradient>
<linearGradient id="paint3_linear_3103_25584" x1="21.5401" y1="20.0107" x2="21.5401" y2="48.2447" gradientUnits="userSpaceOnUse">
<stop stop-color="#B7945F"/>
<stop offset="1" stop-color="#AD7F3A" stop-opacity="0.57"/>
</linearGradient>
<linearGradient id="paint4_linear_3103_25584" x1="21.5401" y1="20.0107" x2="21.5401" y2="48.2447" gradientUnits="userSpaceOnUse">
<stop stop-color="#B7945F"/>
<stop offset="1" stop-color="#AD7F3A" stop-opacity="0.57"/>
</linearGradient>
<linearGradient id="paint5_linear_3103_25584" x1="28.9727" y1="28.5361" x2="28.9727" y2="41.2539" gradientUnits="userSpaceOnUse">
<stop stop-color="#FFF1DB"/>
<stop offset="1" stop-color="#76572A"/>
</linearGradient>
</defs>
</svg>
