<svg width="14" height="14" viewBox="0 0 14 14" fill="none" xmlns="http://www.w3.org/2000/svg">
<g clip-path="url(#clip0_1318_203258)">
<path d="M7.75907 1.83594L12.7956 10.5591C12.8724 10.6921 12.9128 10.843 12.9128 10.9966C12.9128 11.1502 12.8724 11.3011 12.7956 11.4341C12.7188 11.5671 12.6083 11.6776 12.4753 11.7544C12.3423 11.8312 12.1914 11.8716 12.0378 11.8716H1.96482C1.81123 11.8716 1.66034 11.8312 1.52733 11.7544C1.39432 11.6776 1.28386 11.5671 1.20707 11.4341C1.13027 11.3011 1.08984 11.1502 1.08984 10.9966C1.08984 10.843 1.13028 10.6921 1.20707 10.5591L6.24357 1.83594C6.58015 1.2526 7.4219 1.2526 7.75907 1.83594ZM7.00132 2.85677L2.46999 10.7049H11.5327L7.00132 2.85677ZM7.00132 8.7496C7.15603 8.7496 7.3044 8.81106 7.4138 8.92046C7.5232 9.02985 7.58465 9.17823 7.58465 9.33294C7.58465 9.48765 7.5232 9.63602 7.4138 9.74542C7.3044 9.85481 7.15603 9.91627 7.00132 9.91627C6.84661 9.91627 6.69824 9.85481 6.58884 9.74542C6.47945 9.63602 6.41799 9.48765 6.41799 9.33294C6.41799 9.17823 6.47945 9.02985 6.58884 8.92046C6.69824 8.81106 6.84661 8.7496 7.00132 8.7496ZM7.00132 4.66627C7.15603 4.66627 7.3044 4.72773 7.4138 4.83713C7.5232 4.94652 7.58465 5.09489 7.58465 5.2496V7.58294C7.58465 7.73765 7.5232 7.88602 7.4138 7.99542C7.3044 8.10481 7.15603 8.16627 7.00132 8.16627C6.84661 8.16627 6.69824 8.10481 6.58884 7.99542C6.47945 7.88602 6.41799 7.73765 6.41799 7.58294V5.2496C6.41799 5.09489 6.47945 4.94652 6.58884 4.83713C6.69824 4.72773 6.84661 4.66627 7.00132 4.66627Z" fill="#C62828"/>
</g>
<defs>
<clipPath id="clip0_1318_203258">
<rect width="14" height="14" fill="white"/>
</clipPath>
</defs>
</svg>
