<svg width="20" height="21" viewBox="0 0 20 21" fill="none" xmlns="http://www.w3.org/2000/svg">
<path d="M17.5462 10.5H15.8796C15.6585 10.5 15.4466 10.5878 15.2903 10.7441C15.134 10.9004 15.0462 11.1123 15.0462 11.3333C15.0462 11.5544 15.134 11.7663 15.2903 11.9226C15.4466 12.0789 15.6585 12.1667 15.8796 12.1667V13.8333H14.8912C14.9902 13.5665 15.0424 13.2846 15.0454 13C15.0454 12.4497 14.8638 11.9148 14.5287 11.4782C14.1937 11.0416 13.724 10.7277 13.1924 10.5853C12.6609 10.4429 12.0972 10.4798 11.5887 10.6904C11.0803 10.901 10.6556 11.2734 10.3804 11.75C10.3248 11.8448 10.2885 11.9497 10.2736 12.0586C10.2588 12.1675 10.2656 12.2782 10.2936 12.3845C10.3217 12.4907 10.3706 12.5904 10.4373 12.6777C10.5041 12.765 10.5874 12.8382 10.6826 12.8931C10.7778 12.9481 10.8829 12.9837 10.9919 12.9978C11.1009 13.012 11.2116 13.0045 11.3176 12.9757C11.4237 12.9469 11.523 12.8974 11.6099 12.8301C11.6967 12.7627 11.7694 12.6789 11.8237 12.5833C11.8969 12.4567 12.0021 12.3515 12.1287 12.2783C12.2554 12.2052 12.3991 12.1667 12.5454 12.1667C12.7664 12.1667 12.9784 12.2545 13.1346 12.4107C13.2909 12.567 13.3787 12.779 13.3787 13C13.3787 13.221 13.2909 13.433 13.1346 13.5893C12.9784 13.7455 12.7664 13.8333 12.5454 13.8333C12.3244 13.8333 12.1124 13.9211 11.9561 14.0774C11.7999 14.2337 11.7121 14.4457 11.7121 14.6667C11.7121 14.8877 11.7999 15.0996 11.9561 15.2559C12.1124 15.4122 12.3244 15.5 12.5454 15.5C12.7664 15.5 12.9784 15.5878 13.1346 15.7441C13.2909 15.9004 13.3787 16.1123 13.3787 16.3333C13.3787 16.5544 13.2909 16.7663 13.1346 16.9226C12.9784 17.0789 12.7664 17.1667 12.5454 17.1667C12.3991 17.1667 12.2554 17.1282 12.1287 17.055C12.0021 16.9819 11.8969 16.8767 11.8237 16.75C11.7694 16.6545 11.6967 16.5706 11.6099 16.5033C11.523 16.4359 11.4237 16.3865 11.3176 16.3577C11.2116 16.3289 11.1009 16.3213 10.9919 16.3355C10.8829 16.3497 10.7778 16.3853 10.6826 16.4402C10.5874 16.4952 10.5041 16.5684 10.4373 16.6557C10.3706 16.743 10.3217 16.8426 10.2936 16.9489C10.2656 17.0551 10.2588 17.1659 10.2736 17.2748C10.2885 17.3837 10.3248 17.4885 10.3804 17.5833C10.6556 18.0599 11.0803 18.4324 11.5887 18.643C12.0972 18.8535 12.6609 18.8905 13.1924 18.748C13.724 18.6056 14.1937 18.2918 14.5287 17.8552C14.8638 17.4186 15.0454 16.8837 15.0454 16.3333C15.0424 16.0488 14.9902 15.7668 14.8912 15.5H15.8787V18C15.8787 18.221 15.9665 18.433 16.1228 18.5893C16.2791 18.7455 16.491 18.8333 16.7121 18.8333C16.9331 18.8333 17.145 18.7455 17.3013 18.5893C17.4576 18.433 17.5454 18.221 17.5454 18V12.1667C17.7664 12.1667 17.9784 12.0789 18.1346 11.9226C18.2909 11.7663 18.3787 11.5544 18.3787 11.3333C18.3787 11.1123 18.2909 10.9004 18.1346 10.7441C17.9784 10.5878 17.7672 10.5 17.5462 10.5ZM7.57039 9.86917C7.59634 9.976 7.64318 10.0766 7.70819 10.1653C7.77321 10.2539 7.85513 10.3288 7.94922 10.3857C8.04332 10.4425 8.14773 10.4802 8.25645 10.4965C8.36516 10.5129 8.47604 10.5075 8.58268 10.4808C8.68932 10.4541 8.78962 10.4065 8.8778 10.3409C8.96598 10.2752 9.0403 10.1928 9.09648 10.0983C9.15266 10.0038 9.18959 9.89911 9.20513 9.79028C9.22068 9.68145 9.21453 9.57062 9.18706 9.46417L7.72289 3.60584C7.62047 3.19432 7.38332 2.8289 7.0492 2.56775C6.71509 2.3066 6.30321 2.16473 5.87914 2.16473C5.45507 2.16473 5.04319 2.3066 4.70908 2.56775C4.37496 2.8289 4.13781 3.19432 4.03539 3.60584L2.57039 9.46417C2.54292 9.57062 2.53677 9.68145 2.55232 9.79028C2.56786 9.89911 2.60479 10.0038 2.66097 10.0983C2.71715 10.1928 2.79147 10.2752 2.87965 10.3409C2.96783 10.4065 3.06813 10.4541 3.17477 10.4808C3.28141 10.5075 3.39229 10.5129 3.501 10.4965C3.60972 10.4802 3.71413 10.4425 3.80823 10.3857C3.90232 10.3288 3.98424 10.2539 4.04925 10.1653C4.11427 10.0766 4.16111 9.976 4.18706 9.86917L4.65372 8H7.10372L7.57039 9.86917ZM5.07122 6.33334L5.65206 4.01084C5.66958 3.96468 5.70072 3.92494 5.74135 3.8969C5.78199 3.86886 5.83019 3.85385 5.87956 3.85385C5.92893 3.85385 5.97713 3.86886 6.01776 3.8969C6.0584 3.92494 6.08954 3.96468 6.10706 4.01084L6.68789 6.33334H5.07122ZM11.7129 6.33334H12.5462C12.7672 6.33356 12.979 6.42143 13.1352 6.57766C13.2915 6.73389 13.3793 6.94572 13.3796 7.16667V8C13.3796 8.22102 13.4674 8.43298 13.6236 8.58926C13.7799 8.74554 13.9919 8.83334 14.2129 8.83334C14.4339 8.83334 14.6459 8.74554 14.8021 8.58926C14.9584 8.43298 15.0462 8.22102 15.0462 8V7.16667C15.0456 6.50383 14.782 5.86833 14.3133 5.39963C13.8446 4.93094 13.2091 4.66733 12.5462 4.66667H11.7129C11.4919 4.66667 11.2799 4.75447 11.1236 4.91075C10.9674 5.06703 10.8796 5.27899 10.8796 5.5C10.8796 5.72102 10.9674 5.93298 11.1236 6.08926C11.2799 6.24554 11.4919 6.33334 11.7129 6.33334ZM8.37956 13.8333H7.54622C7.32528 13.8331 7.11345 13.7452 6.95721 13.589C6.80098 13.4328 6.71311 13.221 6.71289 13V12.1667C6.71289 11.9457 6.62509 11.7337 6.46881 11.5774C6.31253 11.4211 6.10057 11.3333 5.87956 11.3333C5.65854 11.3333 5.44658 11.4211 5.2903 11.5774C5.13402 11.7337 5.04622 11.9457 5.04622 12.1667V13C5.04689 13.6628 5.31049 14.2983 5.77919 14.767C6.24789 15.2357 6.88339 15.4993 7.54622 15.5H8.37956C8.60057 15.5 8.81253 15.4122 8.96881 15.2559C9.12509 15.0996 9.21289 14.8877 9.21289 14.6667C9.21289 14.4457 9.12509 14.2337 8.96881 14.0774C8.81253 13.9211 8.60057 13.8333 8.37956 13.8333Z" fill="#394F89" stroke="white" stroke-width="0.5"/>
</svg>
