<svg width="20" height="21" viewBox="0 0 20 21" fill="#394F89"  xmlns="http://www.w3.org/2000/svg">
<path d="M5.41667 10.9167H12.0833V10.0833H5.41667V10.9167ZM5.41667 8.41667H12.0833V7.58333H5.41667V8.41667ZM3.84667 16.3333C3.46278 16.3333 3.1425 16.205 2.88583 15.9483C2.62917 15.6917 2.50056 15.3711 2.5 14.9867V6.01333C2.5 5.62945 2.62861 5.30917 2.88583 5.0525C3.14306 4.79583 3.46306 4.66722 3.84583 4.66667H16.1542C16.5375 4.66667 16.8575 4.79528 17.1142 5.0525C17.3708 5.30972 17.4994 5.63 17.5 6.01333V14.9875C17.5 15.3708 17.3714 15.6911 17.1142 15.9483C16.8569 16.2056 16.5369 16.3339 16.1542 16.3333H3.84667ZM3.84667 15.5H16.1542C16.2819 15.5 16.3994 15.4467 16.5067 15.34C16.6139 15.2333 16.6672 15.1156 16.6667 14.9867V6.01333C16.6667 5.885 16.6133 5.76722 16.5067 5.66C16.4 5.55278 16.2825 5.49945 16.1542 5.5H3.84583C3.71806 5.5 3.60056 5.55333 3.49333 5.66C3.38611 5.76667 3.33278 5.88445 3.33333 6.01333V14.9875C3.33333 15.1153 3.38667 15.2328 3.49333 15.34C3.6 15.4472 3.7175 15.5006 3.84583 15.5" />
</svg>
