<svg width="150" height="51" viewBox="0 0 150 51" fill="none" xmlns="http://www.w3.org/2000/svg">
<rect y="0.5" width="150" height="50" rx="12" fill="#0D0D0D"/>
<path fill-rule="evenodd" clip-rule="evenodd" d="M53.8621 33.3876H47.9344L46.5109 37.6746H44.0001L49.6148 21.8139H52.2233L57.838 37.6746H55.2844L53.8621 33.3876ZM48.5483 31.4094H53.247L50.9307 24.452H50.8659L48.5483 31.4094ZM69.9638 31.8933C69.9638 35.4868 68.0779 37.7955 65.2321 37.7955C63.7611 37.874 62.3755 37.0882 61.6647 35.7724H61.6108V41.5H59.2835V26.1109H61.5363V28.0342H61.5791C62.3215 26.7266 63.7086 25.9412 65.1893 25.9899C68.0669 25.9899 69.9638 28.3099 69.9638 31.8933ZM67.5716 31.8933C67.5716 29.5522 66.3853 28.013 64.5754 28.013C62.7972 28.013 61.6011 29.5846 61.6011 31.8933C61.6011 34.2233 62.7972 35.7837 64.5754 35.7837C66.3854 35.7837 67.5716 34.2557 67.5716 31.8933ZM82.443 31.8933C82.443 35.4868 80.5571 37.7955 77.7113 37.7955C76.2403 37.874 74.8547 37.0882 74.1439 35.7724H74.09V41.5H71.7627V26.1109H74.0154V28.0342H74.0582C74.8006 26.7266 76.1877 25.9412 77.6684 25.9899C80.5461 25.9899 82.443 28.3099 82.443 31.8933ZM80.0508 31.8933C80.0508 29.5522 78.8645 28.013 77.0545 28.013C75.2763 28.013 74.0803 29.5846 74.0803 31.8933C74.0803 34.2233 75.2763 35.7837 77.0545 35.7837C78.8645 35.7837 80.0508 34.2557 80.0508 31.8933ZM90.6907 33.2554C90.8631 34.8282 92.3613 35.8609 94.4085 35.8609C96.3702 35.8609 97.7815 34.8282 97.7815 33.41C97.7815 32.1789 96.9303 31.4418 94.9148 30.9366L92.8994 30.4414C90.0437 29.738 88.718 28.3759 88.718 26.1657C88.718 23.4291 91.0564 21.5494 94.3767 21.5494C97.6628 21.5494 99.9155 23.4291 99.9914 26.1657H97.642C97.5014 24.5829 96.2185 23.6275 94.3437 23.6275C92.4688 23.6275 91.186 24.5941 91.186 26.0011C91.186 27.1224 92.0053 27.7822 94.0098 28.2873L95.7232 28.7164C98.9139 29.486 100.24 30.7932 100.24 33.1131C100.24 36.0804 97.9221 37.9389 94.236 37.9389C90.7873 37.9389 88.4587 36.1241 88.3083 33.2553L90.6907 33.2554ZM105.262 23.3743V26.1109H107.418V27.9905H105.262V34.3655C105.262 35.3558 105.694 35.8173 106.642 35.8173C106.898 35.8128 107.153 35.7944 107.407 35.7624V37.6309C106.981 37.7121 106.548 37.7488 106.115 37.7406C103.819 37.7406 102.924 36.8613 102.924 34.6186V27.9905H101.275V26.1109H102.924V23.3743H105.262ZM108.667 31.8933C108.667 28.255 110.768 25.9687 114.045 25.9687C117.332 25.9687 119.423 28.2549 119.423 31.8933C119.423 35.5417 117.343 37.818 114.045 37.818C110.747 37.818 108.667 35.5417 108.667 31.8933ZM117.052 31.8933C117.052 29.3975 115.93 27.9245 114.045 27.9245C112.159 27.9245 111.039 29.4087 111.039 31.8933C111.039 34.3992 112.159 35.861 114.045 35.861C115.93 35.861 117.052 34.3992 117.052 31.8933ZM121.342 26.1109H123.562V28.0791H123.616C123.925 26.8121 125.063 25.94 126.343 25.9899C126.611 25.9889 126.878 26.0186 127.14 26.0784V28.2986C126.802 28.1931 126.448 28.1446 126.094 28.1552C125.41 28.1269 124.748 28.405 124.282 28.9165C123.816 29.428 123.592 30.1217 123.669 30.8157V37.6745H121.342L121.342 26.1109ZM137.87 34.2782C137.557 36.3774 135.553 37.818 132.988 37.818C129.69 37.818 127.643 35.5641 127.643 31.9482C127.643 28.3211 129.701 25.9687 132.891 25.9687C136.027 25.9687 138 28.1664 138 31.6726V32.4858H129.992V32.6292C129.917 33.4901 130.209 34.3423 130.792 34.969C131.376 35.5956 132.195 35.9364 133.042 35.9046C134.172 36.0126 135.236 35.3511 135.661 34.2782L137.87 34.2782ZM130.003 30.8269L135.672 30.8269C135.714 30.0533 135.438 29.2969 134.91 28.7397C134.382 28.1826 133.65 27.8754 132.891 27.892C132.125 27.8874 131.389 28.1947 130.847 28.7459C130.305 29.297 130.001 30.0462 130.003 30.8269ZM48.2566 9.87551C49.2447 9.80319 50.2124 10.1866 50.8935 10.9201C51.5746 11.6537 51.8973 12.6601 51.7727 13.6623C51.7727 16.097 50.4825 17.4965 48.2566 17.4965H45.5575V9.87551H48.2566ZM46.7181 16.4188H48.127C48.8331 16.4618 49.5206 16.1781 49.9987 15.6464C50.4767 15.1146 50.6944 14.3915 50.5913 13.6778C50.6869 12.9671 50.4661 12.2499 49.9892 11.7226C49.5123 11.1952 48.8293 10.9127 48.127 10.9525H46.7181V16.4188ZM53.0837 14.6183C52.987 13.5874 53.4717 12.5898 54.3344 12.0437C55.1972 11.4977 56.2889 11.4977 57.1517 12.0437C58.0144 12.5898 58.4991 13.5874 58.4024 14.6183C58.5009 15.6503 58.0167 16.6499 57.1532 17.1971C56.2897 17.7443 55.1965 17.7443 54.3329 17.1971C53.4694 16.6499 52.9852 15.6503 53.0837 14.6183ZM57.2577 14.6183C57.2577 13.3716 56.7086 12.6426 55.7449 12.6426C54.7775 12.6426 54.2333 13.3716 54.2333 14.6183C54.2333 15.875 54.7776 16.5984 55.7449 16.5984C56.7086 16.5984 57.2577 15.87 57.2577 14.6183ZM65.4724 17.4964H64.3179L63.1524 13.2606H63.0644L61.9038 17.4964H60.7603L59.2059 11.7451H60.3347L61.3449 16.1337H61.4281L62.5874 11.7451H63.6551L64.8145 16.1337H64.9025L65.9078 11.7451H67.0207L65.4724 17.4964ZM68.328 11.7451H69.3994V12.6588H69.4825C69.7717 11.9861 70.4475 11.5746 71.1653 11.6341C71.7211 11.5915 72.2658 11.809 72.6455 12.2251C73.0252 12.6412 73.1988 13.2109 73.1172 13.7732V17.4964H72.0043V14.0583C72.0043 13.134 71.6105 12.6744 70.7874 12.6744C70.4104 12.6565 70.0446 12.8074 69.7858 13.0875C69.527 13.3676 69.401 13.7491 69.4409 14.1318V17.4964H68.328L68.328 11.7451ZM74.8905 9.5H76.0034V17.4964H74.8905V9.5ZM77.5505 14.6183C77.4538 13.5874 77.9386 12.5897 78.8014 12.0436C79.6642 11.4976 80.756 11.4976 81.6188 12.0436C82.4817 12.5897 82.9664 13.5874 82.8698 14.6183C82.9682 15.6503 82.4839 16.6499 81.6203 17.1971C80.7567 17.7443 79.6635 17.7443 78.7999 17.1971C77.9364 16.6499 77.452 15.6503 77.5505 14.6183ZM81.7245 14.6183C81.7245 13.3716 81.1753 12.6426 80.2116 12.6426C79.2443 12.6426 78.7001 13.3716 78.7001 14.6183C78.7001 15.875 79.2443 16.5984 80.2116 16.5984C81.1753 16.5984 81.7245 15.87 81.7245 14.6183ZM84.0414 15.87C84.0414 14.8347 84.7972 14.2379 86.1388 14.1531L87.6663 14.0633V13.5668C87.6663 12.9594 87.2725 12.6164 86.5118 12.6164C85.8905 12.6164 85.46 12.849 85.3365 13.2556H84.2591C84.3728 12.2678 85.2839 11.6342 86.5632 11.6342C87.9769 11.6342 88.7743 12.352 88.7743 13.5668V17.4964H87.703V16.6882H87.6149C87.2511 17.2784 86.604 17.6234 85.9211 17.5912C85.4424 17.642 84.9649 17.4839 84.6068 17.1559C84.2487 16.828 84.0433 16.3608 84.0414 15.87ZM87.6663 15.3785V14.8977L86.2892 14.9875C85.5126 15.0405 85.1604 15.3099 85.1604 15.8169C85.1604 16.3346 85.6007 16.6358 86.2061 16.6358C86.5645 16.6728 86.9223 16.5599 87.1975 16.3229C87.4728 16.0859 87.6419 15.7451 87.6663 15.3785ZM90.237 14.6183C90.237 12.801 91.153 11.6497 92.5777 11.6497C93.2971 11.6159 93.971 12.0091 94.307 12.6587H94.3902V9.5H95.5031V17.4964H94.4366V16.5878H94.3486C93.9872 17.232 93.305 17.6185 92.5777 17.5912C91.1432 17.5913 90.237 16.44 90.237 14.6183ZM91.3866 14.6183C91.3866 15.8382 91.9504 16.5722 92.8933 16.5722C93.8313 16.5722 94.411 15.8276 94.411 14.6233C94.411 13.4246 93.8252 12.6694 92.8933 12.6694C91.9565 12.6694 91.3866 13.4084 91.3866 14.6183ZM100.108 14.6183C100.011 13.5874 100.496 12.5898 101.358 12.0437C102.221 11.4977 103.313 11.4977 104.176 12.0437C105.038 12.5898 105.523 13.5874 105.426 14.6183C105.525 15.6503 105.041 16.6499 104.177 17.1971C103.313 17.7443 102.22 17.7443 101.357 17.1971C100.493 16.6499 100.009 15.6503 100.108 14.6183ZM104.282 14.6183C104.282 13.3716 103.732 12.6426 102.769 12.6426C101.801 12.6426 101.257 13.3716 101.257 14.6183C101.257 15.875 101.801 16.5984 102.769 16.5984C103.732 16.5984 104.282 15.87 104.282 14.6183ZM106.92 11.7451H107.991V12.6588H108.074C108.363 11.9861 109.039 11.5746 109.757 11.6341C110.313 11.5915 110.857 11.809 111.237 12.2251C111.617 12.6412 111.79 13.2109 111.709 13.7732V17.4964H110.596V14.0583C110.596 13.134 110.202 12.6744 109.379 12.6744C109.002 12.6565 108.636 12.8074 108.377 13.0875C108.118 13.3676 107.992 13.7491 108.032 14.1318V17.4964H106.92V11.7451ZM117.997 10.3133V11.7713H119.219V12.7274H117.997V15.6847C117.997 16.2872 118.241 16.551 118.795 16.551C118.936 16.5505 119.078 16.5418 119.219 16.5248V17.4702C119.019 17.5067 118.817 17.5261 118.614 17.5282C117.376 17.5282 116.883 17.0842 116.883 15.9753V12.7273H115.988V11.7713H116.883V10.3133H117.997ZM120.739 9.5H121.842V12.6694H121.93C122.233 11.9908 122.921 11.5788 123.65 11.6391C124.202 11.6084 124.74 11.8307 125.115 12.2453C125.491 12.66 125.665 13.2238 125.592 13.7832V17.4964H124.478V14.0632C124.478 13.1446 124.058 12.6793 123.272 12.6793C122.885 12.647 122.503 12.7905 122.23 13.0716C121.956 13.3528 121.818 13.7428 121.852 14.1374V17.4964H120.739L120.739 9.5ZM132.081 15.9435C131.769 17.0284 130.739 17.7293 129.637 17.6074C128.885 17.6277 128.163 17.3098 127.661 16.7381C127.16 16.1665 126.93 15.3988 127.032 14.6389C126.932 13.8768 127.161 13.1079 127.66 12.5314C128.159 11.955 128.879 11.6276 129.633 11.6341C131.202 11.6341 132.148 12.7274 132.148 14.5335V14.9295H128.166V14.9931C128.131 15.4199 128.274 15.842 128.56 16.1557C128.846 16.4694 129.248 16.6455 129.668 16.6407C130.212 16.7074 130.742 16.432 131.01 15.9435L132.081 15.9435ZM128.166 14.0901H131.014C131.043 13.6997 130.908 13.3154 130.644 13.0316C130.38 12.7479 130.01 12.5912 129.626 12.6002C129.238 12.5952 128.863 12.7506 128.588 13.0311C128.313 13.3116 128.161 13.6935 128.166 14.0901ZM31.3137 25.6667C31.3166 28.3461 32.9256 30.7643 35.4001 31.808C34.9242 33.3499 34.2068 34.8069 33.2746 36.1253C32.0226 37.993 30.7099 39.8178 28.6265 39.8515C26.602 39.8981 25.9217 38.6633 23.5997 38.6633C21.256 38.6633 20.5308 39.8178 18.5892 39.8981C16.605 39.9714 15.0886 37.9046 13.7911 36.0544C11.1978 32.2759 9.17843 25.4059 11.8857 20.7314C13.157 18.4531 15.534 17.0074 18.147 16.9232C20.1329 16.8825 21.9772 18.2608 23.1982 18.2608C24.3961 18.2608 26.6749 16.612 29.0255 16.858C31.2598 16.9278 33.3303 18.0441 34.6124 19.8702C32.5893 21.1107 31.3443 23.2983 31.3137 25.6667ZM27.4899 14.373C26.3878 15.7401 24.7178 16.5275 22.959 16.5095C22.8471 14.7954 23.4231 13.1072 24.56 11.8169C25.7113 10.509 27.3145 9.68179 29.05 9.5C29.1855 11.2649 28.6259 13.013 27.4899 14.373Z" fill="#F1F5FB"/>
</svg>
