<svg width="71" height="71" viewBox="0 0 71 71" fill="none" xmlns="http://www.w3.org/2000/svg">
<path fill-rule="evenodd" clip-rule="evenodd" d="M51.8737 60.8439C52.9476 60.8439 53.8181 61.7144 53.8181 62.7883C53.8181 63.8622 52.9476 64.7327 51.8737 64.7327H34.3737C34.2594 64.7327 34.1474 64.7229 34.0385 64.704C27.7922 64.4284 22.0564 62.1883 17.4338 58.5863C17.0579 58.2933 16.4913 57.8077 16.0714 57.4423C15.7123 57.1299 15.2533 56.955 14.7772 56.955H10.0681C8.99426 56.955 8.1237 56.0844 8.1237 55.0105C8.1237 53.9366 8.99426 53.0661 10.0681 53.0661H12.0126C13.0865 53.0661 13.957 52.1955 13.957 51.1216C13.957 50.0477 13.0865 49.1772 12.0126 49.1772H7.15148C6.07759 49.1772 5.20703 48.3066 5.20703 47.2327C5.20703 46.1589 6.07759 45.2883 7.15148 45.2883H8.1237C9.19758 45.2883 10.0681 44.4177 10.0681 43.3439C10.0681 42.27 9.19758 41.3994 8.1237 41.3994C7.33746 41.3994 6.66499 40.8327 6.53417 40.0574C6.48664 39.7757 6.44889 39.5489 6.44266 39.5028C6.26896 38.2153 6.17925 36.9012 6.17925 35.5661C6.17925 19.4578 19.2376 6.39941 35.3459 6.39941C40.207 6.39941 45.0681 6.39941 49.9293 6.39941C51.0031 6.39941 51.8737 7.26997 51.8737 8.34386C51.8737 9.41775 51.0031 10.2883 49.9293 10.2883H47.0126C45.9387 10.2883 45.0681 11.1589 45.0681 12.2327C45.0681 13.3066 45.9387 14.1772 47.0126 14.1772H58.6793C59.7531 14.1772 60.6237 15.0477 60.6237 16.1216C60.6237 17.1948 59.7543 18.0649 58.6814 18.0661L55.7626 18.0661C54.6887 18.0661 53.8181 18.9366 53.8181 20.0105C53.8181 21.0844 54.6887 21.955 55.7626 21.955H59.949C60.6843 21.955 61.3583 22.369 61.6771 23.0317C61.8688 23.4299 62.0703 23.8595 62.2023 24.17C63.6897 27.671 64.5126 31.5224 64.5126 35.5661C64.5126 36.8366 64.4313 38.0882 64.2738 39.3159C64.2473 39.5223 64.2066 39.7872 64.1624 40.0585C64.0355 40.8368 63.3567 41.3994 62.5681 41.3994C61.4943 41.3994 60.6237 42.27 60.6237 43.3439C60.6237 44.4177 61.4943 45.2883 62.5681 45.2883H63.5404C64.6143 45.2883 65.4848 46.1589 65.4848 47.2327C65.4848 48.3066 64.6143 49.1772 63.5404 49.1772H62.2922C61.5863 49.1772 60.9372 49.5604 60.5845 50.172C60.3554 50.5691 60.1008 51.0012 59.9116 51.2961C59.4681 51.9872 58.9962 52.6585 58.4976 53.3081C57.9968 53.9606 57.4691 54.5913 56.9161 55.1986C56.6126 55.5318 56.1208 56.0256 55.7373 56.4047C55.3785 56.7595 54.8935 56.955 54.3889 56.955H48.957C47.8831 56.955 47.0126 57.8255 47.0126 58.8994C47.0126 59.9658 47.871 60.8317 48.9346 60.8437L51.8737 60.8439Z" fill="#35497B"/>
<path fill-rule="evenodd" clip-rule="evenodd" d="M51.8737 60.8439C52.9476 60.8439 53.8181 61.7144 53.8181 62.7883C53.8181 63.8622 52.9476 64.7327 51.8737 64.7327H34.3737C34.2594 64.7327 34.1474 64.7229 34.0385 64.704C27.7922 64.4284 22.0564 62.1883 17.4338 58.5863C17.0579 58.2933 16.4913 57.8077 16.0714 57.4423C15.7123 57.1299 15.2533 56.955 14.7772 56.955H10.0681C8.99426 56.955 8.1237 56.0844 8.1237 55.0105C8.1237 53.9366 8.99426 53.0661 10.0681 53.0661H12.0126C13.0865 53.0661 13.957 52.1955 13.957 51.1216C13.957 50.0477 13.0865 49.1772 12.0126 49.1772H7.15148C6.07759 49.1772 5.20703 48.3066 5.20703 47.2327C5.20703 46.1589 6.07759 45.2883 7.15148 45.2883H8.1237C9.19758 45.2883 10.0681 44.4177 10.0681 43.3439C10.0681 42.27 9.19758 41.3994 8.1237 41.3994C7.33746 41.3994 6.66499 40.8327 6.53417 40.0574C6.48664 39.7757 6.44889 39.5489 6.44266 39.5028C6.26896 38.2153 6.17925 36.9012 6.17925 35.5661C6.17925 19.4578 19.2376 6.39941 35.3459 6.39941C40.207 6.39941 45.0681 6.39941 49.9293 6.39941C51.0031 6.39941 51.8737 7.26997 51.8737 8.34386C51.8737 9.41775 51.0031 10.2883 49.9293 10.2883H47.0126C45.9387 10.2883 45.0681 11.1589 45.0681 12.2327C45.0681 13.3066 45.9387 14.1772 47.0126 14.1772H58.6793C59.7531 14.1772 60.6237 15.0477 60.6237 16.1216C60.6237 17.1948 59.7543 18.0649 58.6814 18.0661L55.7626 18.0661C54.6887 18.0661 53.8181 18.9366 53.8181 20.0105C53.8181 21.0844 54.6887 21.955 55.7626 21.955H59.949C60.6843 21.955 61.3583 22.369 61.6771 23.0317C61.8688 23.4299 62.0703 23.8595 62.2023 24.17C63.6897 27.671 64.5126 31.5224 64.5126 35.5661C64.5126 36.8366 64.4313 38.0882 64.2738 39.3159C64.2473 39.5223 64.2066 39.7872 64.1624 40.0585C64.0355 40.8368 63.3567 41.3994 62.5681 41.3994C61.4943 41.3994 60.6237 42.27 60.6237 43.3439C60.6237 44.4177 61.4943 45.2883 62.5681 45.2883H63.5404C64.6143 45.2883 65.4848 46.1589 65.4848 47.2327C65.4848 48.3066 64.6143 49.1772 63.5404 49.1772H62.2922C61.5863 49.1772 60.9372 49.5604 60.5845 50.172C60.3554 50.5691 60.1008 51.0012 59.9116 51.2961C59.4681 51.9872 58.9962 52.6585 58.4976 53.3081C57.9968 53.9606 57.4691 54.5913 56.9161 55.1986C56.6126 55.5318 56.1208 56.0256 55.7373 56.4047C55.3785 56.7595 54.8935 56.955 54.3889 56.955H48.957C47.8831 56.955 47.0126 57.8255 47.0126 58.8994C47.0126 59.9658 47.871 60.8317 48.9346 60.8437L51.8737 60.8439Z" fill="url(#paint0_linear_3103_25083)"/>
<g opacity="0.1">
<circle cx="35.342" cy="35.5666" r="21.3889" fill="#50C22B" style="mix-blend-mode:multiply"/>
</g>
<g filter="url(#filter0_d_3103_25083)">
<path fill-rule="evenodd" clip-rule="evenodd" d="M27.5664 35.5664H43.122V67.6976C43.122 68.1167 42.6757 68.3849 42.3056 68.1883L35.3442 64.49L28.3827 68.1883C28.0126 68.3849 27.5664 68.1167 27.5664 67.6976V35.5664Z" fill="#FFDE69"/>
</g>
<circle style="mix-blend-mode:multiply" opacity="0.2" cx="35.3429" cy="37.5108" r="19.4444" fill="#62CF3F"/>
<circle cx="35.3429" cy="35.5665" r="19.4444" fill="url(#paint1_linear_3103_25083)"/>
<mask id="mask0_3103_25083" style="mask-type:luminance" maskUnits="userSpaceOnUse" x="15" y="16" width="40" height="40">
<circle cx="35.3429" cy="35.5665" r="19.4444" fill="white"/>
</mask>
<g mask="url(#mask0_3103_25083)">
<path d="M16.3828 35.5664C16.3828 46.0368 24.8707 54.5247 35.3411 54.5247C45.8115 54.5247 54.2995 46.0368 54.2995 35.5664" stroke="#FFDE69" stroke-width="0.55564"/>
<g style="mix-blend-mode:multiply" opacity="0.12">
<path d="M47.9805 39.2143L59.4067 27.7881" stroke="#FFDE69" stroke-width="1.11128" stroke-linecap="round"/>
</g>
<g style="mix-blend-mode:multiply" opacity="0.12">
<path d="M43.1211 28.5199L54.5473 17.0938" stroke="#FFDE69" stroke-width="1.11128" stroke-linecap="round"/>
</g>
<g style="mix-blend-mode:multiply" opacity="0.12">
<path d="M7.14844 46.9926L18.5746 35.5664" stroke="#FFDE69" stroke-width="1.11128" stroke-linecap="round"/>
</g>
<g style="mix-blend-mode:multiply" opacity="0.12">
<path d="M49.9258 25.6039L61.352 14.1777" stroke="#FFDE69" stroke-width="1.11128" stroke-linecap="round"/>
</g>
<g style="mix-blend-mode:multiply" opacity="0.12">
<path d="M13.9531 44.0756L25.3793 32.6494" stroke="#FFDE69" stroke-width="1.11128" stroke-linecap="round"/>
</g>
<g style="mix-blend-mode:multiply" opacity="0.12">
<path d="M30.4805 55.7426L41.9067 44.3164" stroke="#FFDE69" stroke-width="1.11128" stroke-linecap="round"/>
</g>
<g style="mix-blend-mode:multiply" opacity="0.12">
<path d="M46.0391 48.9369L57.4653 37.5107" stroke="#FFDE69" stroke-width="1.11128" stroke-linecap="round"/>
</g>
<path d="M48.7467 48.9713C52.1775 45.5405 54.2995 40.801 54.2995 35.5658C54.2995 25.0954 45.8115 16.6074 35.3411 16.6074C24.8707 16.6074 16.3828 25.0954 16.3828 35.5658C16.3828 40.801 18.5048 45.5405 21.9356 48.9713" stroke="#FFDE69" stroke-width="0.55564" stroke-linecap="round"/>
<path opacity="0.4" d="M54.2995 35.5658C54.2995 25.0954 45.8115 16.6074 35.3411 16.6074C24.8707 16.6074 16.3828 25.0954 16.3828 35.5658" stroke="#FFDE69" stroke-width="0.55564" stroke-linecap="round"/>
<path opacity="0.2" d="M35.3418 16.6074C31.7853 16.6074 28.4574 17.5868 25.6133 19.2905" stroke="white" stroke-width="0.55564" stroke-linecap="round"/>
<path opacity="0.6" d="M31.9534 16.9102C31.0506 17.0731 30.1699 17.2999 29.3164 17.5859" stroke="white" stroke-width="0.55564" stroke-linecap="round"/>
</g>
<g filter="url(#filter1_d_3103_25083)">
<circle cx="35.3451" cy="35.5667" r="14.5833" fill="url(#paint2_linear_3103_25083)"/>
<circle cx="35.3451" cy="35.5667" r="14.8612" stroke="#FFDE69" stroke-opacity="0.06" stroke-width="0.55564"/>
</g>
<mask id="mask1_3103_25083" style="mask-type:luminance" maskUnits="userSpaceOnUse" x="20" y="20" width="30" height="31">
<circle cx="35.3451" cy="35.5667" r="14.5833" fill="white"/>
</mask>
<g mask="url(#mask1_3103_25083)">
<g style="mix-blend-mode:multiply" opacity="0.12">
<path d="M43.1211 26.5766L54.5473 15.1504" stroke="#FFDE69" stroke-width="1.11128" stroke-linecap="round"/>
</g>
<g style="mix-blend-mode:multiply" opacity="0.12">
<path d="M49.9258 23.6596L61.352 12.2334" stroke="#FFDE69" stroke-width="1.11128" stroke-linecap="round"/>
</g>
<g style="mix-blend-mode:multiply" opacity="0.12">
<path d="M13.9531 42.1323L25.3793 30.7061" stroke="#FFDE69" stroke-width="1.11128" stroke-linecap="round"/>
</g>
<g style="mix-blend-mode:multiply" opacity="0.12">
<path d="M30.4805 53.7983L41.9067 42.3721" stroke="#FFDE69" stroke-width="1.11128" stroke-linecap="round"/>
</g>
<g style="mix-blend-mode:multiply" opacity="0.12">
<path d="M47.9805 37.2709L59.4067 25.8447" stroke="#FFDE69" stroke-width="1.11128" stroke-linecap="round"/>
</g>
<path opacity="0.6" d="M35.3413 21.4697C33.4299 21.4697 31.6074 21.8501 29.9453 22.5393" stroke="white" stroke-width="0.55564" stroke-linecap="round"/>
</g>
<g filter="url(#filter2_d_3103_25083)">
<path d="M29.7695 35.5668L35.3434 28.4004L40.9173 35.5668L35.3434 42.7332L29.7695 35.5668Z" fill="white"/>
<path d="M29.3309 35.2257C29.1749 35.4263 29.1749 35.7073 29.3309 35.9079L34.9048 43.0744C35.0101 43.2097 35.1719 43.2889 35.3434 43.2889C35.5149 43.2889 35.6767 43.2097 35.782 43.0744L41.3559 35.9079C41.512 35.7073 41.512 35.4263 41.3559 35.2257L35.782 28.0593C35.6767 27.9239 35.5149 27.8448 35.3434 27.8448C35.172 27.8448 35.0101 27.9239 34.9048 28.0593L29.3309 35.2257Z" stroke="white" stroke-width="1.11128" stroke-linejoin="round"/>
</g>
<g filter="url(#filter3_i_3103_25083)">
<path d="M29.7695 35.5668L35.3434 28.4004L40.9173 35.5668L35.3434 42.7332L29.7695 35.5668Z" fill="url(#paint3_linear_3103_25083)"/>
</g>
<defs>
<filter id="filter0_d_3103_25083" x="26.4551" y="35.5664" width="17.7772" height="34.9101" filterUnits="userSpaceOnUse" color-interpolation-filters="sRGB">
<feFlood flood-opacity="0" result="BackgroundImageFix"/>
<feColorMatrix in="SourceAlpha" type="matrix" values="0 0 0 0 0 0 0 0 0 0 0 0 0 0 0 0 0 0 127 0" result="hardAlpha"/>
<feOffset dy="1.11128"/>
<feGaussianBlur stdDeviation="0.55564"/>
<feColorMatrix type="matrix" values="0 0 0 0 0.603922 0 0 0 0 0.713726 0 0 0 0 0.356863 0 0 0 0.2 0"/>
<feBlend mode="darken" in2="BackgroundImageFix" result="effect1_dropShadow_3103_25083"/>
<feBlend mode="normal" in="SourceGraphic" in2="effect1_dropShadow_3103_25083" result="shape"/>
</filter>
<filter id="filter1_d_3103_25083" x="17.9845" y="18.7608" width="34.7225" height="34.7234" filterUnits="userSpaceOnUse" color-interpolation-filters="sRGB">
<feFlood flood-opacity="0" result="BackgroundImageFix"/>
<feColorMatrix in="SourceAlpha" type="matrix" values="0 0 0 0 0 0 0 0 0 0 0 0 0 0 0 0 0 0 127 0" result="hardAlpha"/>
<feOffset dy="0.55564"/>
<feGaussianBlur stdDeviation="1.11128"/>
<feColorMatrix type="matrix" values="0 0 0 0 0.279884 0 0 0 0 0.409586 0 0 0 0 0.470833 0 0 0 0.2 0"/>
<feBlend mode="normal" in2="BackgroundImageFix" result="effect1_dropShadow_3103_25083"/>
<feBlend mode="normal" in="SourceGraphic" in2="effect1_dropShadow_3103_25083" result="shape"/>
</filter>
<filter id="filter2_d_3103_25083" x="27.5489" y="26.7334" width="15.5897" height="18.7782" filterUnits="userSpaceOnUse" color-interpolation-filters="sRGB">
<feFlood flood-opacity="0" result="BackgroundImageFix"/>
<feColorMatrix in="SourceAlpha" type="matrix" values="0 0 0 0 0 0 0 0 0 0 0 0 0 0 0 0 0 0 127 0" result="hardAlpha"/>
<feOffset dy="0.55564"/>
<feGaussianBlur stdDeviation="0.55564"/>
<feColorMatrix type="matrix" values="0 0 0 0 0.19669 0 0 0 0 0.27695 0 0 0 0 0.483333 0 0 0 0.2 0"/>
<feBlend mode="normal" in2="BackgroundImageFix" result="effect1_dropShadow_3103_25083"/>
<feBlend mode="normal" in="SourceGraphic" in2="effect1_dropShadow_3103_25083" result="shape"/>
</filter>
<filter id="filter3_i_3103_25083" x="29.7695" y="28.4004" width="11.1484" height="14.8886" filterUnits="userSpaceOnUse" color-interpolation-filters="sRGB">
<feFlood flood-opacity="0" result="BackgroundImageFix"/>
<feBlend mode="normal" in="SourceGraphic" in2="BackgroundImageFix" result="shape"/>
<feColorMatrix in="SourceAlpha" type="matrix" values="0 0 0 0 0 0 0 0 0 0 0 0 0 0 0 0 0 0 127 0" result="hardAlpha"/>
<feOffset dy="0.55564"/>
<feGaussianBlur stdDeviation="0.27782"/>
<feComposite in2="hardAlpha" operator="arithmetic" k2="-1" k3="1"/>
<feColorMatrix type="matrix" values="0 0 0 0 0.324977 0 0 0 0 0.428027 0 0 0 0 0.579167 0 0 0 0.4 0"/>
<feBlend mode="normal" in2="shape" result="effect1_innerShadow_3103_25083"/>
</filter>
<linearGradient id="paint0_linear_3103_25083" x1="5.20703" y1="6.39941" x2="5.20703" y2="64.7327" gradientUnits="userSpaceOnUse">
<stop stop-color="#D9E242"/>
<stop offset="1" stop-color="#84C400"/>
</linearGradient>
<linearGradient id="paint1_linear_3103_25083" x1="15.8984" y1="16.1221" x2="15.8984" y2="55.011" gradientUnits="userSpaceOnUse">
<stop stop-color="#FFDE69"/>
<stop offset="1" stop-color="#C6A329"/>
</linearGradient>
<linearGradient id="paint2_linear_3103_25083" x1="20.7617" y1="20.9834" x2="20.7617" y2="50.1501" gradientUnits="userSpaceOnUse">
<stop stop-color="#FFDE69"/>
<stop offset="1" stop-color="#FFCF24"/>
</linearGradient>
<linearGradient id="paint3_linear_3103_25083" x1="29.7695" y1="28.4004" x2="29.7695" y2="42.7332" gradientUnits="userSpaceOnUse">
<stop stop-color="#FFDE69"/>
<stop offset="1" stop-color="#D2A504"/>
</linearGradient>
</defs>
</svg>
