<svg width="70" height="71" viewBox="0 0 70 71" fill="none" xmlns="http://www.w3.org/2000/svg">
<path fill-rule="evenodd" clip-rule="evenodd" d="M51.5299 60.8439C52.6038 60.8439 53.4744 61.7144 53.4744 62.7883C53.4744 63.8622 52.6038 64.7327 51.5299 64.7327H34.0299C33.9157 64.7327 33.8037 64.7229 33.6948 64.704C27.4485 64.4284 21.7127 62.1883 17.0901 58.5863C16.7141 58.2933 16.1475 57.8077 15.7276 57.4423C15.3685 57.1299 14.9095 56.955 14.4335 56.955H9.72439C8.65051 56.955 7.77995 56.0844 7.77995 55.0105C7.77995 53.9366 8.65051 53.0661 9.72439 53.0661H11.6688C12.7427 53.0661 13.6133 52.1955 13.6133 51.1216C13.6133 50.0477 12.7427 49.1772 11.6688 49.1772H6.80773C5.73384 49.1772 4.86328 48.3066 4.86328 47.2327C4.86328 46.1589 5.73384 45.2883 6.80773 45.2883H7.77995C8.85383 45.2883 9.72439 44.4177 9.72439 43.3439C9.72439 42.27 8.85383 41.3994 7.77995 41.3994C6.99371 41.3994 6.32124 40.8327 6.19042 40.0574C6.14289 39.7757 6.10514 39.5489 6.09891 39.5028C5.92521 38.2153 5.8355 36.9012 5.8355 35.5661C5.8355 19.4578 18.8939 6.39941 35.0022 6.39941C39.8633 6.39941 44.7244 6.39941 49.5855 6.39941C50.6594 6.39941 51.5299 7.26997 51.5299 8.34386C51.5299 9.41775 50.6594 10.2883 49.5855 10.2883H46.6688C45.5949 10.2883 44.7244 11.1589 44.7244 12.2327C44.7244 13.3066 45.5949 14.1772 46.6688 14.1772H58.3355C59.4094 14.1772 60.2799 15.0477 60.2799 16.1216C60.2799 17.1948 59.4105 18.0649 58.3376 18.0661L55.4188 18.0661C54.3449 18.0661 53.4744 18.9366 53.4744 20.0105C53.4744 21.0844 54.3449 21.955 55.4188 21.955H59.6052C60.3406 21.955 61.0146 22.369 61.3334 23.0317C61.525 23.4299 61.7266 23.8595 61.8585 24.17C63.346 27.671 64.1688 31.5224 64.1688 35.5661C64.1688 36.8366 64.0876 38.0882 63.93 39.3159C63.9035 39.5223 63.8629 39.7872 63.8186 40.0585C63.6917 40.8368 63.013 41.3994 62.2244 41.3994C61.1505 41.3994 60.2799 42.27 60.2799 43.3439C60.2799 44.4177 61.1505 45.2883 62.2244 45.2883H63.1966C64.2705 45.2883 65.1411 46.1589 65.1411 47.2327C65.1411 48.3066 64.2705 49.1772 63.1966 49.1772H61.9484C61.2425 49.1772 60.5934 49.5604 60.2407 50.172C60.0117 50.5691 59.757 51.0012 59.5678 51.2961C59.1243 51.9872 58.6525 52.6585 58.1539 53.3081C57.6531 53.9606 57.1253 54.5913 56.5723 55.1986C56.2688 55.5318 55.7771 56.0256 55.3936 56.4047C55.0348 56.7595 54.5498 56.955 54.0452 56.955H48.6133C47.5394 56.955 46.6688 57.8255 46.6688 58.8994C46.6688 59.9658 47.5273 60.8317 48.5908 60.8437L51.5299 60.8439Z" fill="#F1456F"/>
<path fill-rule="evenodd" clip-rule="evenodd" d="M51.5299 60.8439C52.6038 60.8439 53.4744 61.7144 53.4744 62.7883C53.4744 63.8622 52.6038 64.7327 51.5299 64.7327H34.0299C33.9157 64.7327 33.8037 64.7229 33.6948 64.704C27.4485 64.4284 21.7127 62.1883 17.0901 58.5863C16.7141 58.2933 16.1475 57.8077 15.7276 57.4423C15.3685 57.1299 14.9095 56.955 14.4335 56.955H9.72439C8.65051 56.955 7.77995 56.0844 7.77995 55.0105C7.77995 53.9366 8.65051 53.0661 9.72439 53.0661H11.6688C12.7427 53.0661 13.6133 52.1955 13.6133 51.1216C13.6133 50.0477 12.7427 49.1772 11.6688 49.1772H6.80773C5.73384 49.1772 4.86328 48.3066 4.86328 47.2327C4.86328 46.1589 5.73384 45.2883 6.80773 45.2883H7.77995C8.85383 45.2883 9.72439 44.4177 9.72439 43.3439C9.72439 42.27 8.85383 41.3994 7.77995 41.3994C6.99371 41.3994 6.32124 40.8327 6.19042 40.0574C6.14289 39.7757 6.10514 39.5489 6.09891 39.5028C5.92521 38.2153 5.8355 36.9012 5.8355 35.5661C5.8355 19.4578 18.8939 6.39941 35.0022 6.39941C39.8633 6.39941 44.7244 6.39941 49.5855 6.39941C50.6594 6.39941 51.5299 7.26997 51.5299 8.34386C51.5299 9.41775 50.6594 10.2883 49.5855 10.2883H46.6688C45.5949 10.2883 44.7244 11.1589 44.7244 12.2327C44.7244 13.3066 45.5949 14.1772 46.6688 14.1772H58.3355C59.4094 14.1772 60.2799 15.0477 60.2799 16.1216C60.2799 17.1948 59.4105 18.0649 58.3376 18.0661L55.4188 18.0661C54.3449 18.0661 53.4744 18.9366 53.4744 20.0105C53.4744 21.0844 54.3449 21.955 55.4188 21.955H59.6052C60.3406 21.955 61.0146 22.369 61.3334 23.0317C61.525 23.4299 61.7266 23.8595 61.8585 24.17C63.346 27.671 64.1688 31.5224 64.1688 35.5661C64.1688 36.8366 64.0876 38.0882 63.93 39.3159C63.9035 39.5223 63.8629 39.7872 63.8186 40.0585C63.6917 40.8368 63.013 41.3994 62.2244 41.3994C61.1505 41.3994 60.2799 42.27 60.2799 43.3439C60.2799 44.4177 61.1505 45.2883 62.2244 45.2883H63.1966C64.2705 45.2883 65.1411 46.1589 65.1411 47.2327C65.1411 48.3066 64.2705 49.1772 63.1966 49.1772H61.9484C61.2425 49.1772 60.5934 49.5604 60.2407 50.172C60.0117 50.5691 59.757 51.0012 59.5678 51.2961C59.1243 51.9872 58.6525 52.6585 58.1539 53.3081C57.6531 53.9606 57.1253 54.5913 56.5723 55.1986C56.2688 55.5318 55.7771 56.0256 55.3936 56.4047C55.0348 56.7595 54.5498 56.955 54.0452 56.955H48.6133C47.5394 56.955 46.6688 57.8255 46.6688 58.8994C46.6688 59.9658 47.5273 60.8317 48.5908 60.8437L51.5299 60.8439Z" fill="url(#paint0_linear_3103_25046)"/>
<g opacity="0.1">
<circle cx="34.9983" cy="35.5666" r="21.3889" fill="#50C22B" style="mix-blend-mode:multiply"/>
</g>
<g filter="url(#filter0_d_3103_25046)">
<path fill-rule="evenodd" clip-rule="evenodd" d="M27.2227 35.5664H42.7782V67.6976C42.7782 68.1167 42.332 68.3849 41.9619 68.1883L35.0004 64.49L28.039 68.1883C27.6689 68.3849 27.2227 68.1167 27.2227 67.6976V35.5664Z" fill="#BDC8DC"/>
</g>
<circle style="mix-blend-mode:multiply" opacity="0.2" cx="34.9991" cy="37.5108" r="19.4444" fill="#62CF3F"/>
<circle cx="34.9991" cy="35.5665" r="19.4444" fill="url(#paint1_linear_3103_25046)"/>
<mask id="mask0_3103_25046" style="mask-type:luminance" maskUnits="userSpaceOnUse" x="15" y="16" width="40" height="40">
<circle cx="34.9991" cy="35.5665" r="19.4444" fill="white"/>
</mask>
<g mask="url(#mask0_3103_25046)">
<path d="M16.0391 35.5664C16.0391 46.0368 24.527 54.5247 34.9974 54.5247C45.4678 54.5247 53.9557 46.0368 53.9557 35.5664" stroke="#64788F" stroke-width="0.55564"/>
<g style="mix-blend-mode:multiply" opacity="0.12">
<path d="M47.6367 39.2143L59.0629 27.7881" stroke="#78A2A9" stroke-width="1.11128" stroke-linecap="round"/>
</g>
<g style="mix-blend-mode:multiply" opacity="0.12">
<path d="M42.7773 28.5199L54.2035 17.0938" stroke="#78A2A9" stroke-width="1.11128" stroke-linecap="round"/>
</g>
<g style="mix-blend-mode:multiply" opacity="0.12">
<path d="M6.80469 46.9926L18.2309 35.5664" stroke="#78A2A9" stroke-width="1.11128" stroke-linecap="round"/>
</g>
<g style="mix-blend-mode:multiply" opacity="0.12">
<path d="M49.582 25.6039L61.0082 14.1777" stroke="#78A2A9" stroke-width="1.11128" stroke-linecap="round"/>
</g>
<g style="mix-blend-mode:multiply" opacity="0.12">
<path d="M13.6094 44.0756L25.0356 32.6494" stroke="#78A2A9" stroke-width="1.11128" stroke-linecap="round"/>
</g>
<g style="mix-blend-mode:multiply" opacity="0.12">
<path d="M30.1367 55.7426L41.5629 44.3164" stroke="#78A2A9" stroke-width="1.11128" stroke-linecap="round"/>
</g>
<g style="mix-blend-mode:multiply" opacity="0.12">
<path d="M45.6953 48.9369L57.1215 37.5107" stroke="#78A2A9" stroke-width="1.11128" stroke-linecap="round"/>
</g>
<path d="M48.403 48.9713C51.8337 45.5405 53.9557 40.801 53.9557 35.5658C53.9557 25.0954 45.4678 16.6074 34.9974 16.6074C24.527 16.6074 16.0391 25.0954 16.0391 35.5658C16.0391 40.801 18.161 45.5405 21.5918 48.9713" stroke="#8B99AF" stroke-width="0.55564" stroke-linecap="round"/>
<path opacity="0.4" d="M53.9557 35.5658C53.9557 25.0954 45.4678 16.6074 34.9974 16.6074C24.527 16.6074 16.0391 25.0954 16.0391 35.5658" stroke="#CCD8EA" stroke-width="0.55564" stroke-linecap="round"/>
<path opacity="0.2" d="M34.9981 16.6074C31.4415 16.6074 28.1137 17.5868 25.2695 19.2905" stroke="white" stroke-width="0.55564" stroke-linecap="round"/>
<path opacity="0.6" d="M31.6097 16.9102C30.7068 17.0731 29.8262 17.2999 28.9727 17.5859" stroke="white" stroke-width="0.55564" stroke-linecap="round"/>
</g>
<g filter="url(#filter1_d_3103_25046)">
<circle cx="35.0013" cy="35.5667" r="14.5833" fill="url(#paint2_linear_3103_25046)"/>
<circle cx="35.0013" cy="35.5667" r="14.8612" stroke="#64788F" stroke-opacity="0.06" stroke-width="0.55564"/>
</g>
<mask id="mask1_3103_25046" style="mask-type:luminance" maskUnits="userSpaceOnUse" x="20" y="20" width="30" height="31">
<circle cx="35.0013" cy="35.5667" r="14.5833" fill="white"/>
</mask>
<g mask="url(#mask1_3103_25046)">
<g style="mix-blend-mode:multiply" opacity="0.12">
<path d="M42.7773 26.5766L54.2035 15.1504" stroke="#78A2A9" stroke-width="1.11128" stroke-linecap="round"/>
</g>
<g style="mix-blend-mode:multiply" opacity="0.12">
<path d="M49.582 23.6596L61.0082 12.2334" stroke="#78A2A9" stroke-width="1.11128" stroke-linecap="round"/>
</g>
<g style="mix-blend-mode:multiply" opacity="0.12">
<path d="M13.6094 42.1323L25.0356 30.7061" stroke="#78A2A9" stroke-width="1.11128" stroke-linecap="round"/>
</g>
<g style="mix-blend-mode:multiply" opacity="0.12">
<path d="M30.1367 53.7983L41.5629 42.3721" stroke="#78A2A9" stroke-width="1.11128" stroke-linecap="round"/>
</g>
<g style="mix-blend-mode:multiply" opacity="0.12">
<path d="M47.6367 37.2709L59.0629 25.8447" stroke="#78A2A9" stroke-width="1.11128" stroke-linecap="round"/>
</g>
<path opacity="0.6" d="M34.9976 21.4697C33.0862 21.4697 31.2637 21.8501 29.6016 22.5393" stroke="white" stroke-width="0.55564" stroke-linecap="round"/>
</g>
<g filter="url(#filter2_d_3103_25046)">
<path d="M29.4258 35.5668L34.9997 28.4004L40.5736 35.5668L34.9997 42.7332L29.4258 35.5668Z" fill="white"/>
<path d="M28.9872 35.2257C28.8311 35.4263 28.8311 35.7073 28.9872 35.9079L34.5611 43.0744C34.6663 43.2097 34.8282 43.2889 34.9997 43.2889C35.1711 43.2889 35.333 43.2097 35.4383 43.0744L41.0121 35.9079C41.1682 35.7073 41.1682 35.4263 41.0121 35.2257L35.4383 28.0593C35.333 27.9239 35.1711 27.8448 34.9997 27.8448C34.8282 27.8448 34.6663 27.9239 34.5611 28.0593L28.9872 35.2257Z" stroke="white" stroke-width="1.11128" stroke-linejoin="round"/>
</g>
<g filter="url(#filter3_i_3103_25046)">
<path d="M29.4258 35.5668L34.9997 28.4004L40.5736 35.5668L34.9997 42.7332L29.4258 35.5668Z" fill="url(#paint3_linear_3103_25046)"/>
</g>
<defs>
<filter id="filter0_d_3103_25046" x="26.1114" y="35.5664" width="17.7772" height="34.9101" filterUnits="userSpaceOnUse" color-interpolation-filters="sRGB">
<feFlood flood-opacity="0" result="BackgroundImageFix"/>
<feColorMatrix in="SourceAlpha" type="matrix" values="0 0 0 0 0 0 0 0 0 0 0 0 0 0 0 0 0 0 127 0" result="hardAlpha"/>
<feOffset dy="1.11128"/>
<feGaussianBlur stdDeviation="0.55564"/>
<feColorMatrix type="matrix" values="0 0 0 0 0.603922 0 0 0 0 0.713726 0 0 0 0 0.356863 0 0 0 0.2 0"/>
<feBlend mode="darken" in2="BackgroundImageFix" result="effect1_dropShadow_3103_25046"/>
<feBlend mode="normal" in="SourceGraphic" in2="effect1_dropShadow_3103_25046" result="shape"/>
</filter>
<filter id="filter1_d_3103_25046" x="17.6407" y="18.7608" width="34.7225" height="34.7234" filterUnits="userSpaceOnUse" color-interpolation-filters="sRGB">
<feFlood flood-opacity="0" result="BackgroundImageFix"/>
<feColorMatrix in="SourceAlpha" type="matrix" values="0 0 0 0 0 0 0 0 0 0 0 0 0 0 0 0 0 0 127 0" result="hardAlpha"/>
<feOffset dy="0.55564"/>
<feGaussianBlur stdDeviation="1.11128"/>
<feColorMatrix type="matrix" values="0 0 0 0 0.279884 0 0 0 0 0.409586 0 0 0 0 0.470833 0 0 0 0.2 0"/>
<feBlend mode="normal" in2="BackgroundImageFix" result="effect1_dropShadow_3103_25046"/>
<feBlend mode="normal" in="SourceGraphic" in2="effect1_dropShadow_3103_25046" result="shape"/>
</filter>
<filter id="filter2_d_3103_25046" x="27.2051" y="26.7334" width="15.5897" height="18.7782" filterUnits="userSpaceOnUse" color-interpolation-filters="sRGB">
<feFlood flood-opacity="0" result="BackgroundImageFix"/>
<feColorMatrix in="SourceAlpha" type="matrix" values="0 0 0 0 0 0 0 0 0 0 0 0 0 0 0 0 0 0 127 0" result="hardAlpha"/>
<feOffset dy="0.55564"/>
<feGaussianBlur stdDeviation="0.55564"/>
<feColorMatrix type="matrix" values="0 0 0 0 0.19669 0 0 0 0 0.27695 0 0 0 0 0.483333 0 0 0 0.2 0"/>
<feBlend mode="normal" in2="BackgroundImageFix" result="effect1_dropShadow_3103_25046"/>
<feBlend mode="normal" in="SourceGraphic" in2="effect1_dropShadow_3103_25046" result="shape"/>
</filter>
<filter id="filter3_i_3103_25046" x="29.4258" y="28.4004" width="11.1484" height="14.8886" filterUnits="userSpaceOnUse" color-interpolation-filters="sRGB">
<feFlood flood-opacity="0" result="BackgroundImageFix"/>
<feBlend mode="normal" in="SourceGraphic" in2="BackgroundImageFix" result="shape"/>
<feColorMatrix in="SourceAlpha" type="matrix" values="0 0 0 0 0 0 0 0 0 0 0 0 0 0 0 0 0 0 127 0" result="hardAlpha"/>
<feOffset dy="0.55564"/>
<feGaussianBlur stdDeviation="0.27782"/>
<feComposite in2="hardAlpha" operator="arithmetic" k2="-1" k3="1"/>
<feColorMatrix type="matrix" values="0 0 0 0 0.324977 0 0 0 0 0.428027 0 0 0 0 0.579167 0 0 0 0.4 0"/>
<feBlend mode="normal" in2="shape" result="effect1_innerShadow_3103_25046"/>
</filter>
<linearGradient id="paint0_linear_3103_25046" x1="4.86328" y1="6.39941" x2="4.86328" y2="64.7327" gradientUnits="userSpaceOnUse">
<stop stop-color="#D9E242"/>
<stop offset="1" stop-color="#84C400"/>
</linearGradient>
<linearGradient id="paint1_linear_3103_25046" x1="15.5547" y1="16.1221" x2="15.5547" y2="55.011" gradientUnits="userSpaceOnUse">
<stop stop-color="#ABB7CC"/>
<stop offset="1" stop-color="#76879C"/>
</linearGradient>
<linearGradient id="paint2_linear_3103_25046" x1="20.418" y1="20.9834" x2="20.418" y2="50.1501" gradientUnits="userSpaceOnUse">
<stop stop-color="#C6D1E4"/>
<stop offset="1" stop-color="#A4B1C4"/>
</linearGradient>
<linearGradient id="paint3_linear_3103_25046" x1="29.4258" y1="28.4004" x2="29.4258" y2="42.7332" gradientUnits="userSpaceOnUse">
<stop stop-color="#A3B0C5"/>
<stop offset="1" stop-color="#7A8AA1"/>
</linearGradient>
</defs>
</svg>
