<svg width="71" height="71" viewBox="0 0 71 71" fill="none" xmlns="http://www.w3.org/2000/svg">
<path fill-rule="evenodd" clip-rule="evenodd" d="M52.1862 60.8439C53.2601 60.8439 54.1306 61.7144 54.1306 62.7883C54.1306 63.8622 53.2601 64.7327 52.1862 64.7327H34.6862C34.5719 64.7327 34.4599 64.7229 34.351 64.704C28.1047 64.4284 22.3689 62.1883 17.7463 58.5863C17.3704 58.2933 16.8038 57.8077 16.3839 57.4423C16.0248 57.1299 15.5658 56.955 15.0897 56.955H10.3806C9.30676 56.955 8.4362 56.0844 8.4362 55.0105C8.4362 53.9366 9.30676 53.0661 10.3806 53.0661H12.3251C13.399 53.0661 14.2695 52.1955 14.2695 51.1216C14.2695 50.0477 13.399 49.1772 12.3251 49.1772H7.46398C6.39009 49.1772 5.51953 48.3066 5.51953 47.2327C5.51953 46.1589 6.39009 45.2883 7.46398 45.2883H8.4362C9.51008 45.2883 10.3806 44.4177 10.3806 43.3439C10.3806 42.27 9.51008 41.3994 8.4362 41.3994C7.64996 41.3994 6.97749 40.8327 6.84667 40.0574C6.79914 39.7757 6.76139 39.5489 6.75516 39.5028C6.58146 38.2153 6.49175 36.9012 6.49175 35.5661C6.49175 19.4578 19.5501 6.39941 35.6584 6.39941C40.5195 6.39941 45.3806 6.39941 50.2418 6.39941C51.3156 6.39941 52.1862 7.26997 52.1862 8.34386C52.1862 9.41775 51.3156 10.2883 50.2418 10.2883H47.3251C46.2512 10.2883 45.3806 11.1589 45.3806 12.2327C45.3806 13.3066 46.2512 14.1772 47.3251 14.1772H58.9918C60.0656 14.1772 60.9362 15.0477 60.9362 16.1216C60.9362 17.1948 60.0668 18.0649 58.9939 18.0661L56.0751 18.0661C55.0012 18.0661 54.1306 18.9366 54.1306 20.0105C54.1306 21.0844 55.0012 21.955 56.0751 21.955H60.2615C60.9968 21.955 61.6708 22.369 61.9896 23.0317C62.1813 23.4299 62.3828 23.8595 62.5148 24.17C64.0022 27.671 64.8251 31.5224 64.8251 35.5661C64.8251 36.8366 64.7438 38.0882 64.5863 39.3159C64.5598 39.5223 64.5191 39.7872 64.4749 40.0585C64.348 40.8368 63.6692 41.3994 62.8806 41.3994C61.8068 41.3994 60.9362 42.27 60.9362 43.3439C60.9362 44.4177 61.8068 45.2883 62.8806 45.2883H63.8529C64.9268 45.2883 65.7973 46.1589 65.7973 47.2327C65.7973 48.3066 64.9268 49.1772 63.8529 49.1772H62.6047C61.8988 49.1772 61.2497 49.5604 60.897 50.172C60.6679 50.5691 60.4133 51.0012 60.2241 51.2961C59.7806 51.9872 59.3087 52.6585 58.8101 53.3081C58.3093 53.9606 57.7816 54.5913 57.2286 55.1986C56.9251 55.5318 56.4333 56.0256 56.0498 56.4047C55.691 56.7595 55.206 56.955 54.7014 56.955H49.2695C48.1956 56.955 47.3251 57.8255 47.3251 58.8994C47.3251 59.9658 48.1835 60.8317 49.2471 60.8437L52.1862 60.8439Z" fill="#1B5C35"/>
<path fill-rule="evenodd" clip-rule="evenodd" d="M52.1862 60.8439C53.2601 60.8439 54.1306 61.7144 54.1306 62.7883C54.1306 63.8622 53.2601 64.7327 52.1862 64.7327H34.6862C34.5719 64.7327 34.4599 64.7229 34.351 64.704C28.1047 64.4284 22.3689 62.1883 17.7463 58.5863C17.3704 58.2933 16.8038 57.8077 16.3839 57.4423C16.0248 57.1299 15.5658 56.955 15.0897 56.955H10.3806C9.30676 56.955 8.4362 56.0844 8.4362 55.0105C8.4362 53.9366 9.30676 53.0661 10.3806 53.0661H12.3251C13.399 53.0661 14.2695 52.1955 14.2695 51.1216C14.2695 50.0477 13.399 49.1772 12.3251 49.1772H7.46398C6.39009 49.1772 5.51953 48.3066 5.51953 47.2327C5.51953 46.1589 6.39009 45.2883 7.46398 45.2883H8.4362C9.51008 45.2883 10.3806 44.4177 10.3806 43.3439C10.3806 42.27 9.51008 41.3994 8.4362 41.3994C7.64996 41.3994 6.97749 40.8327 6.84667 40.0574C6.79914 39.7757 6.76139 39.5489 6.75516 39.5028C6.58146 38.2153 6.49175 36.9012 6.49175 35.5661C6.49175 19.4578 19.5501 6.39941 35.6584 6.39941C40.5195 6.39941 45.3806 6.39941 50.2418 6.39941C51.3156 6.39941 52.1862 7.26997 52.1862 8.34386C52.1862 9.41775 51.3156 10.2883 50.2418 10.2883H47.3251C46.2512 10.2883 45.3806 11.1589 45.3806 12.2327C45.3806 13.3066 46.2512 14.1772 47.3251 14.1772H58.9918C60.0656 14.1772 60.9362 15.0477 60.9362 16.1216C60.9362 17.1948 60.0668 18.0649 58.9939 18.0661L56.0751 18.0661C55.0012 18.0661 54.1306 18.9366 54.1306 20.0105C54.1306 21.0844 55.0012 21.955 56.0751 21.955H60.2615C60.9968 21.955 61.6708 22.369 61.9896 23.0317C62.1813 23.4299 62.3828 23.8595 62.5148 24.17C64.0022 27.671 64.8251 31.5224 64.8251 35.5661C64.8251 36.8366 64.7438 38.0882 64.5863 39.3159C64.5598 39.5223 64.5191 39.7872 64.4749 40.0585C64.348 40.8368 63.6692 41.3994 62.8806 41.3994C61.8068 41.3994 60.9362 42.27 60.9362 43.3439C60.9362 44.4177 61.8068 45.2883 62.8806 45.2883H63.8529C64.9268 45.2883 65.7973 46.1589 65.7973 47.2327C65.7973 48.3066 64.9268 49.1772 63.8529 49.1772H62.6047C61.8988 49.1772 61.2497 49.5604 60.897 50.172C60.6679 50.5691 60.4133 51.0012 60.2241 51.2961C59.7806 51.9872 59.3087 52.6585 58.8101 53.3081C58.3093 53.9606 57.7816 54.5913 57.2286 55.1986C56.9251 55.5318 56.4333 56.0256 56.0498 56.4047C55.691 56.7595 55.206 56.955 54.7014 56.955H49.2695C48.1956 56.955 47.3251 57.8255 47.3251 58.8994C47.3251 59.9658 48.1835 60.8317 49.2471 60.8437L52.1862 60.8439Z" fill="url(#paint0_linear_3103_25009)"/>
<g opacity="0.1">
<circle cx="35.6545" cy="35.5666" r="21.3889" fill="#C28831" style="mix-blend-mode:multiply"/>
</g>
<g filter="url(#filter0_d_3103_25009)">
<path fill-rule="evenodd" clip-rule="evenodd" d="M27.8789 35.5664H43.4345V67.6976C43.4345 68.1167 42.9882 68.3849 42.6181 68.1883L35.6567 64.49L28.6952 68.1883C28.3251 68.3849 27.8789 68.1167 27.8789 67.6976V35.5664Z" fill="#B1823C"/>
</g>
<circle style="mix-blend-mode:multiply" opacity="0.2" cx="35.6554" cy="37.5108" r="19.4444" fill="#C28831"/>
<circle cx="35.6554" cy="35.5665" r="19.4444" fill="url(#paint1_linear_3103_25009)"/>
<mask id="mask0_3103_25009" style="mask-type:luminance" maskUnits="userSpaceOnUse" x="16" y="16" width="40" height="40">
<circle cx="35.6554" cy="35.5665" r="19.4444" fill="white"/>
</mask>
<g mask="url(#mask0_3103_25009)">
<path d="M16.6953 35.5664C16.6953 46.0368 25.1832 54.5247 35.6536 54.5247C46.124 54.5247 54.612 46.0368 54.612 35.5664" stroke="#C28831" stroke-width="0.55564"/>
<g style="mix-blend-mode:multiply" opacity="0.12">
<path d="M48.293 39.2143L59.7192 27.7881" stroke="#C28831" stroke-width="1.11128" stroke-linecap="round"/>
</g>
<g style="mix-blend-mode:multiply" opacity="0.12">
<path d="M43.4336 28.5199L54.8598 17.0938" stroke="#C28831" stroke-width="1.11128" stroke-linecap="round"/>
</g>
<g style="mix-blend-mode:multiply" opacity="0.12">
<path d="M7.46094 46.9926L18.8871 35.5664" stroke="#C28831" stroke-width="1.11128" stroke-linecap="round"/>
</g>
<g style="mix-blend-mode:multiply" opacity="0.12">
<path d="M50.2383 25.6039L61.6645 14.1777" stroke="#C28831" stroke-width="1.11128" stroke-linecap="round"/>
</g>
<g style="mix-blend-mode:multiply" opacity="0.12">
<path d="M14.2656 44.0756L25.6918 32.6494" stroke="#C28831" stroke-width="1.11128" stroke-linecap="round"/>
</g>
<g style="mix-blend-mode:multiply" opacity="0.12">
<path d="M30.793 55.7426L42.2192 44.3164" stroke="#C28831" stroke-width="1.11128" stroke-linecap="round"/>
</g>
<g style="mix-blend-mode:multiply" opacity="0.12">
<path d="M46.3516 48.9369L57.7778 37.5107" stroke="#C28831" stroke-width="1.11128" stroke-linecap="round"/>
</g>
<path d="M49.0592 48.9713C52.49 45.5405 54.612 40.801 54.612 35.5658C54.612 25.0954 46.124 16.6074 35.6536 16.6074C25.1832 16.6074 16.6953 25.0954 16.6953 35.5658C16.6953 40.801 18.8173 45.5405 22.2481 48.9713" stroke="#C28831" stroke-width="0.55564" stroke-linecap="round"/>
<path opacity="0.4" d="M54.612 35.5658C54.612 25.0954 46.124 16.6074 35.6536 16.6074C25.1832 16.6074 16.6953 25.0954 16.6953 35.5658" stroke="#C28831" stroke-width="0.55564" stroke-linecap="round"/>
<path opacity="0.2" d="M35.6543 16.6074C32.0978 16.6074 28.7699 17.5868 25.9258 19.2905" stroke="white" stroke-width="0.55564" stroke-linecap="round"/>
<path opacity="0.6" d="M32.2659 16.9102C31.3631 17.0731 30.4824 17.2999 29.6289 17.5859" stroke="white" stroke-width="0.55564" stroke-linecap="round"/>
</g>
<g filter="url(#filter1_d_3103_25009)">
<circle cx="35.6576" cy="35.5667" r="14.5833" fill="url(#paint2_linear_3103_25009)"/>
<circle cx="35.6576" cy="35.5667" r="14.8612" stroke="#C28831" stroke-opacity="0.06" stroke-width="0.55564"/>
</g>
<mask id="mask1_3103_25009" style="mask-type:luminance" maskUnits="userSpaceOnUse" x="21" y="20" width="30" height="31">
<circle cx="35.6576" cy="35.5667" r="14.5833" fill="white"/>
</mask>
<g mask="url(#mask1_3103_25009)">
<g style="mix-blend-mode:multiply" opacity="0.12">
<path d="M43.4336 26.5766L54.8598 15.1504" stroke="#C28831" stroke-width="1.11128" stroke-linecap="round"/>
</g>
<g style="mix-blend-mode:multiply" opacity="0.12">
<path d="M50.2383 23.6596L61.6645 12.2334" stroke="#C28831" stroke-width="1.11128" stroke-linecap="round"/>
</g>
<g style="mix-blend-mode:multiply" opacity="0.12">
<path d="M14.2656 42.1323L25.6918 30.7061" stroke="#C28831" stroke-width="1.11128" stroke-linecap="round"/>
</g>
<g style="mix-blend-mode:multiply" opacity="0.12">
<path d="M30.793 53.7983L42.2192 42.3721" stroke="#C28831" stroke-width="1.11128" stroke-linecap="round"/>
</g>
<g style="mix-blend-mode:multiply" opacity="0.12">
<path d="M48.293 37.2709L59.7192 25.8447" stroke="#C28831" stroke-width="1.11128" stroke-linecap="round"/>
</g>
<path opacity="0.6" d="M35.6538 21.4697C33.7424 21.4697 31.9199 21.8501 30.2578 22.5393" stroke="white" stroke-width="0.55564" stroke-linecap="round"/>
</g>
<g filter="url(#filter2_d_3103_25009)">
<path d="M30.082 35.5668L35.6559 28.4004L41.2298 35.5668L35.6559 42.7332L30.082 35.5668Z" fill="white"/>
<path d="M29.6434 35.2257C29.4874 35.4263 29.4874 35.7073 29.6434 35.9079L35.2173 43.0744C35.3226 43.2097 35.4844 43.2889 35.6559 43.2889C35.8274 43.2889 35.9892 43.2097 36.0945 43.0744L41.6684 35.9079C41.8245 35.7073 41.8245 35.4263 41.6684 35.2257L36.0945 28.0593C35.9892 27.9239 35.8274 27.8448 35.6559 27.8448C35.4845 27.8448 35.3226 27.9239 35.2173 28.0593L29.6434 35.2257Z" stroke="white" stroke-width="1.11128" stroke-linejoin="round"/>
</g>
<g filter="url(#filter3_i_3103_25009)">
<path d="M30.082 35.5668L35.6559 28.4004L41.2298 35.5668L35.6559 42.7332L30.082 35.5668Z" fill="url(#paint3_linear_3103_25009)"/>
</g>
<defs>
<filter id="filter0_d_3103_25009" x="26.7676" y="35.5664" width="17.7772" height="34.9101" filterUnits="userSpaceOnUse" color-interpolation-filters="sRGB">
<feFlood flood-opacity="0" result="BackgroundImageFix"/>
<feColorMatrix in="SourceAlpha" type="matrix" values="0 0 0 0 0 0 0 0 0 0 0 0 0 0 0 0 0 0 127 0" result="hardAlpha"/>
<feOffset dy="1.11128"/>
<feGaussianBlur stdDeviation="0.55564"/>
<feColorMatrix type="matrix" values="0 0 0 0 0.603922 0 0 0 0 0.713726 0 0 0 0 0.356863 0 0 0 0.2 0"/>
<feBlend mode="darken" in2="BackgroundImageFix" result="effect1_dropShadow_3103_25009"/>
<feBlend mode="normal" in="SourceGraphic" in2="effect1_dropShadow_3103_25009" result="shape"/>
</filter>
<filter id="filter1_d_3103_25009" x="18.297" y="18.7608" width="34.7225" height="34.7234" filterUnits="userSpaceOnUse" color-interpolation-filters="sRGB">
<feFlood flood-opacity="0" result="BackgroundImageFix"/>
<feColorMatrix in="SourceAlpha" type="matrix" values="0 0 0 0 0 0 0 0 0 0 0 0 0 0 0 0 0 0 127 0" result="hardAlpha"/>
<feOffset dy="0.55564"/>
<feGaussianBlur stdDeviation="1.11128"/>
<feColorMatrix type="matrix" values="0 0 0 0 0.279884 0 0 0 0 0.409586 0 0 0 0 0.470833 0 0 0 0.2 0"/>
<feBlend mode="normal" in2="BackgroundImageFix" result="effect1_dropShadow_3103_25009"/>
<feBlend mode="normal" in="SourceGraphic" in2="effect1_dropShadow_3103_25009" result="shape"/>
</filter>
<filter id="filter2_d_3103_25009" x="27.8614" y="26.7334" width="15.5897" height="18.7782" filterUnits="userSpaceOnUse" color-interpolation-filters="sRGB">
<feFlood flood-opacity="0" result="BackgroundImageFix"/>
<feColorMatrix in="SourceAlpha" type="matrix" values="0 0 0 0 0 0 0 0 0 0 0 0 0 0 0 0 0 0 127 0" result="hardAlpha"/>
<feOffset dy="0.55564"/>
<feGaussianBlur stdDeviation="0.55564"/>
<feColorMatrix type="matrix" values="0 0 0 0 0.19669 0 0 0 0 0.27695 0 0 0 0 0.483333 0 0 0 0.2 0"/>
<feBlend mode="normal" in2="BackgroundImageFix" result="effect1_dropShadow_3103_25009"/>
<feBlend mode="normal" in="SourceGraphic" in2="effect1_dropShadow_3103_25009" result="shape"/>
</filter>
<filter id="filter3_i_3103_25009" x="30.082" y="28.4004" width="11.1484" height="14.8886" filterUnits="userSpaceOnUse" color-interpolation-filters="sRGB">
<feFlood flood-opacity="0" result="BackgroundImageFix"/>
<feBlend mode="normal" in="SourceGraphic" in2="BackgroundImageFix" result="shape"/>
<feColorMatrix in="SourceAlpha" type="matrix" values="0 0 0 0 0 0 0 0 0 0 0 0 0 0 0 0 0 0 127 0" result="hardAlpha"/>
<feOffset dy="0.55564"/>
<feGaussianBlur stdDeviation="0.27782"/>
<feComposite in2="hardAlpha" operator="arithmetic" k2="-1" k3="1"/>
<feColorMatrix type="matrix" values="0 0 0 0 0.324977 0 0 0 0 0.428027 0 0 0 0 0.579167 0 0 0 0.4 0"/>
<feBlend mode="normal" in2="shape" result="effect1_innerShadow_3103_25009"/>
</filter>
<linearGradient id="paint0_linear_3103_25009" x1="5.51953" y1="6.39941" x2="5.51953" y2="64.7327" gradientUnits="userSpaceOnUse">
<stop stop-color="#D9E242"/>
<stop offset="1" stop-color="#84C400"/>
</linearGradient>
<linearGradient id="paint1_linear_3103_25009" x1="16.2109" y1="16.1221" x2="16.2109" y2="55.011" gradientUnits="userSpaceOnUse">
<stop stop-color="#C28831"/>
<stop offset="1" stop-color="#FFCA7B"/>
</linearGradient>
<linearGradient id="paint2_linear_3103_25009" x1="21.0742" y1="20.9834" x2="21.0742" y2="50.1501" gradientUnits="userSpaceOnUse">
<stop stop-color="#C28831"/>
<stop offset="1" stop-color="#956317"/>
</linearGradient>
<linearGradient id="paint3_linear_3103_25009" x1="30.082" y1="28.4004" x2="30.082" y2="42.7332" gradientUnits="userSpaceOnUse">
<stop stop-color="#C28831"/>
<stop offset="1" stop-color="#FFD391"/>
</linearGradient>
</defs>
</svg>
