<svg width="28" height="29" viewBox="0 0 28 29" fill="none" xmlns="http://www.w3.org/2000/svg">
<path d="M17.2336 22.8394V22.8394C17.5241 22.1381 16.8846 21.5 16.1256 21.5H14L11.8744 21.5C11.1154 21.5 10.4759 22.1381 10.7664 22.8394V22.8394C10.9423 23.264 11.2001 23.6499 11.5251 23.9749C11.8501 24.2999 12.236 24.5577 12.6606 24.7336C13.0852 24.9095 13.5404 25 14 25C14.4596 25 14.9148 24.9095 15.3394 24.7336C15.764 24.5577 16.1499 24.2999 16.4749 23.9749C16.7999 23.6499 17.0577 23.264 17.2336 22.8394Z" stroke="#495555" stroke-width="2"/>
<path d="M14 5.16666V2.83333" stroke="#495555" stroke-width="2"/>
<path d="M8.05163 9.65378C8.81048 6.9978 11.2381 5.16667 14.0003 5.16667V5.16667C16.7626 5.16667 19.1902 6.99781 19.949 9.65378L22.241 17.6758C22.7886 19.5923 21.3496 21.5 19.3565 21.5H8.64418C6.65104 21.5 5.21205 19.5923 5.75961 17.6758L8.05163 9.65378Z" stroke="#495555" stroke-width="2"/>
</svg>
