<svg width="40" height="40" viewBox="0 0 40 40" fill="none" xmlns="http://www.w3.org/2000/svg">
<path d="M22.8871 27.4459V27.4459C23.1465 26.8197 22.5756 26.25 21.8978 26.25H20L18.1022 26.25C17.4244 26.25 16.8535 26.8197 17.1129 27.4459V27.4459C17.2699 27.825 17.5001 28.1695 17.7903 28.4597C18.0805 28.7499 18.425 28.9801 18.8041 29.1371C19.1833 29.2942 19.5896 29.375 20 29.375C20.4104 29.375 20.8167 29.2942 21.1959 29.1371C21.575 28.9801 21.9195 28.7499 22.2097 28.4597C22.4999 28.1695 22.7301 27.825 22.8871 27.4459Z" stroke="#495555" stroke-width="2"/>
<path d="M20 11.6667V9.58337" stroke="#495555" stroke-width="2"/>
<path d="M14.6885 15.673C15.366 13.3016 17.5335 11.6666 19.9998 11.6666V11.6666C22.4661 11.6666 24.6336 13.3016 25.3112 15.673L27.3004 22.6353C27.818 24.4468 26.4578 26.25 24.5739 26.25H15.4258C13.5419 26.25 12.1817 24.4468 12.6993 22.6353L14.6885 15.673Z" stroke="#495555" stroke-width="2"/>
</svg>
