<svg width="32" height="32" viewBox="0 0 32 32" fill="none" xmlns="http://www.w3.org/2000/svg">
<g clip-path="url(#clip0_1053_9044)">
<g filter="url(#filter0_d_1053_9044)">
<ellipse cx="15.0939" cy="28.7746" rx="9.56855" ry="1.33515" fill="url(#paint0_linear_1053_9044)" shape-rendering="crispEdges"/>
</g>
<path d="M38.1089 20.9588C38.7625 22.2878 35.7515 25.1637 32.2743 26.8887C25.6851 30.7243 25.2583 28.7981 24.6047 27.4692C23.9512 26.1402 25.3266 25.5876 29.9075 22.0762C36.0078 18.4668 37.4553 19.6299 38.1089 20.9588Z" fill="#E0FCFD"/>
<path d="M38.1089 20.9588C38.7625 22.2878 35.7515 25.1637 32.2743 26.8887C25.6851 30.7243 25.2583 28.7981 24.6047 27.4692C23.9512 26.1402 25.3266 25.5876 29.9075 22.0762C36.0078 18.4668 37.4553 19.6299 38.1089 20.9588Z" fill="url(#paint1_linear_1053_9044)"/>
<path d="M3.07814 31.8195C3.07814 36.9376 0.546556 40.0278 -0.575616 40.0278C-1.69779 40.0278 -2.09952 37.7154 -1.59155 32.5125C-1.19647 28.4659 1.80161 23.6241 4.63582 24.6987C6.15972 25.2768 3.07814 27.9882 3.07814 31.8195Z" fill="#E6EDFF"/>
<path d="M3.07814 31.8195C3.07814 36.9376 0.546556 40.0278 -0.575616 40.0278C-1.69779 40.0278 -2.09952 37.7154 -1.59155 32.5125C-1.19647 28.4659 1.80161 23.6241 4.63582 24.6987C6.15972 25.2768 3.07814 27.9882 3.07814 31.8195Z" fill="url(#paint2_linear_1053_9044)"/>
<g filter="url(#filter1_d_1053_9044)">
<path d="M16.3677 44.9217C15.3921 45.4128 14.2382 45.3591 13.2716 44.8506C5.31264 40.6636 2.64171 32.2467 4.62002 25.374C5.09039 23.74 6.69799 22.7903 8.3984 22.7903L21.9042 22.7903C23.2259 22.7903 24.5401 23.3469 25.1395 24.5249C28.5784 31.2824 23.1544 41.5053 16.3677 44.9217Z" fill="white"/>
<path d="M16.3677 44.9217C15.3921 45.4128 14.2382 45.3591 13.2716 44.8506C5.31264 40.6636 2.64171 32.2467 4.62002 25.374C5.09039 23.74 6.69799 22.7903 8.3984 22.7903L21.9042 22.7903C23.2259 22.7903 24.5401 23.3469 25.1395 24.5249C28.5784 31.2824 23.1544 41.5053 16.3677 44.9217Z" fill="url(#paint3_linear_1053_9044)"/>
</g>
<path d="M24.5238 24.4125C24.5238 25.3113 20.4125 26.04 15.341 26.04C10.2695 26.04 6.1582 25.3113 6.1582 24.4125C6.1582 23.028 10.2695 22.7849 15.341 22.7849C20.4125 22.7849 24.5238 22.2422 24.5238 24.4125Z" fill="#9DF6FC"/>
<path d="M23.4413 23.8722C23.4413 24.4714 19.8137 25.4997 15.3388 25.4997C10.8639 25.4997 7.23633 24.4714 7.23633 23.8722C7.23633 23.2729 10.8639 22.7871 15.3388 22.7871C19.8137 22.7871 23.4413 23.2729 23.4413 23.8722Z" fill="#2F2F2F"/>
<g filter="url(#filter2_d_1053_9044)">
<path d="M29.2411 13.3262C29.2411 15.1975 29.1333 17.7311 30.0037 17.7311C30.874 17.7311 33.168 15.1975 33.168 13.3262C33.168 11.4548 30.3148 8.69531 29.4445 8.69531C28.5741 8.69531 29.2411 11.4548 29.2411 13.3262Z" fill="url(#paint4_linear_1053_9044)"/>
<path d="M1.44246 13.3262C1.44246 15.1975 1.55028 17.7311 0.679928 17.7311C-0.190423 17.7311 -2.48438 15.1975 -2.48438 13.3262C-2.48438 11.4548 0.368771 8.69531 1.23912 8.69531C2.10947 8.69531 1.44246 11.4548 1.44246 13.3262Z" fill="url(#paint5_linear_1053_9044)"/>
<path d="M30.6734 12.1949C32.0977 20.1458 23.9094 24.3898 15.5657 24.3898C7.22198 24.3898 -0.661033 20.5756 0.458048 12.1949C0.915862 5.80199 7.22198 0 15.5657 0C23.9094 0 29.3934 5.04988 30.6734 12.1949Z" fill="url(#paint6_linear_1053_9044)" stroke="#2CD0EA" stroke-width="0.746975"/>
<path d="M27.4707 11.7837C28.2333 19.2058 22.7938 21.8036 15.6035 21.8036C9.32235 21.8036 2.1545 20.1659 3.46015 11.7837C3.82814 6.37852 8.89693 1.58594 15.6035 1.58594C21.4213 1.86831 26.8435 5.67848 27.4707 11.7837Z" fill="url(#paint7_linear_1053_9044)" stroke="white" stroke-width="0.224093"/>
<path d="M26.3031 11.596C27.1139 18.0271 22.6937 20.8384 15.6869 20.8384C10.0747 20.8384 3.37619 19.3136 4.49458 11.596C4.82337 6.76653 9.69456 2.48438 15.6869 2.48438C20.885 2.73667 25.6171 6.15541 26.3031 11.596Z" fill="#041A25"/>
<path d="M25.1324 10.3435C25.7778 15.404 22.3581 17.2267 15.7206 17.2267C10.4043 17.2267 4.65376 16.2326 5.71319 10.3435C6.02465 6.65823 10.0443 3.39062 15.7206 3.39062C20.6447 3.58315 24.6015 6.18095 25.1324 10.3435Z" fill="url(#paint8_linear_1053_9044)"/>
<g filter="url(#filter3_d_1053_9044)">
<ellipse cx="1.82579" cy="2.79111" rx="1.82579" ry="2.79111" transform="matrix(0.897998 0.44 -0.369008 0.929426 10.0957 7.44922)" fill="#9DF6FC"/>
</g>
<g filter="url(#filter4_d_1053_9044)">
<ellipse cx="1.82579" cy="2.79111" rx="1.82579" ry="2.79111" transform="matrix(-0.897998 0.44 0.369008 0.929426 20.7852 7.45703)" fill="#9DF6FC"/>
</g>
<g filter="url(#filter5_d_1053_9044)">
<path d="M18.4332 15.3073C18.4332 15.9513 18.1654 16.569 17.6887 17.0244C17.212 17.4798 16.5655 17.7357 15.8914 17.7357C15.2173 17.7357 14.5708 17.4798 14.0941 17.0244C13.6174 16.569 13.3496 15.9513 13.3496 15.3073L15.8914 15.3073H18.4332Z" fill="#9DF6FC"/>
</g>
<path d="M0.274907 20.1011C-0.393529 18.7094 -0.44021 18.01 -0.385957 16.8256L-1.09766 15.9785V17.2774C-0.938833 18.5367 -0.903546 19.2494 -0.182614 20.44C0.506405 21.4935 0.961031 22.0459 2.15583 22.8119C2.95544 23.2778 3.47805 23.4061 4.49427 23.4895H9.83202V22.8683L4.24009 22.8119C3.42963 22.7261 3.02003 22.586 2.15583 22.0212C1.29162 21.4565 0.893185 20.9721 0.274907 20.1011Z" fill="#533989"/>
<rect x="9.7793" y="21.7988" width="3.86352" height="2.59779" rx="1.2989" fill="#271A38"/>
</g>
</g>
<defs>
<filter id="filter0_d_1053_9044" x="1.86521" y="27.4395" width="26.4571" height="30.2333" filterUnits="userSpaceOnUse" color-interpolation-filters="sRGB">
<feFlood flood-opacity="0" result="BackgroundImageFix"/>
<feColorMatrix in="SourceAlpha" type="matrix" values="0 0 0 0 0 0 0 0 0 0 0 0 0 0 0 0 0 0 127 0" result="hardAlpha"/>
<feMorphology radius="1.49395" operator="dilate" in="SourceAlpha" result="effect1_dropShadow_1053_9044"/>
<feOffset dy="23.9032"/>
<feGaussianBlur stdDeviation="1.08311"/>
<feComposite in2="hardAlpha" operator="out"/>
<feColorMatrix type="matrix" values="0 0 0 0 0.238889 0 0 0 0 0.238889 0 0 0 0 0.238889 0 0 0 0.15 0"/>
<feBlend mode="normal" in2="BackgroundImageFix" result="effect1_dropShadow_1053_9044"/>
<feBlend mode="normal" in="SourceGraphic" in2="effect1_dropShadow_1053_9044" result="shape"/>
</filter>
<filter id="filter1_d_1053_9044" x="1.60382" y="22.6416" width="26.9896" height="27.2513" filterUnits="userSpaceOnUse" color-interpolation-filters="sRGB">
<feFlood flood-opacity="0" result="BackgroundImageFix"/>
<feColorMatrix in="SourceAlpha" type="matrix" values="0 0 0 0 0 0 0 0 0 0 0 0 0 0 0 0 0 0 127 0" result="hardAlpha"/>
<feOffset dy="2.24093"/>
<feGaussianBlur stdDeviation="1.19516"/>
<feComposite in2="hardAlpha" operator="out"/>
<feColorMatrix type="matrix" values="0 0 0 0 0.45098 0 0 0 0 0.627451 0 0 0 0 0.662745 0 0 0 0.4 0"/>
<feBlend mode="normal" in2="BackgroundImageFix" result="effect1_dropShadow_1053_9044"/>
<feBlend mode="normal" in="SourceGraphic" in2="effect1_dropShadow_1053_9044" result="shape"/>
</filter>
<filter id="filter2_d_1053_9044" x="-4.7253" y="-2.61397" width="40.1342" height="29.6186" filterUnits="userSpaceOnUse" color-interpolation-filters="sRGB">
<feFlood flood-opacity="0" result="BackgroundImageFix"/>
<feColorMatrix in="SourceAlpha" type="matrix" values="0 0 0 0 0 0 0 0 0 0 0 0 0 0 0 0 0 0 127 0" result="hardAlpha"/>
<feOffset/>
<feGaussianBlur stdDeviation="1.12046"/>
<feComposite in2="hardAlpha" operator="out"/>
<feColorMatrix type="matrix" values="0 0 0 0 0.784314 0 0 0 0 0.976471 0 0 0 0 1 0 0 0 1 0"/>
<feBlend mode="normal" in2="BackgroundImageFix" result="effect1_dropShadow_1053_9044"/>
<feBlend mode="normal" in="SourceGraphic" in2="effect1_dropShadow_1053_9044" result="shape"/>
</filter>
<filter id="filter3_d_1053_9044" x="4.28768" y="3.64901" width="12.8367" height="14.3953" filterUnits="userSpaceOnUse" color-interpolation-filters="sRGB">
<feFlood flood-opacity="0" result="BackgroundImageFix"/>
<feColorMatrix in="SourceAlpha" type="matrix" values="0 0 0 0 0 0 0 0 0 0 0 0 0 0 0 0 0 0 127 0" result="hardAlpha"/>
<feMorphology radius="0.746975" operator="dilate" in="SourceAlpha" result="effect1_dropShadow_1053_9044"/>
<feOffset/>
<feGaussianBlur stdDeviation="1.86744"/>
<feComposite in2="hardAlpha" operator="out"/>
<feColorMatrix type="matrix" values="0 0 0 0 0.0784314 0 0 0 0 0.898039 0 0 0 0 1 0 0 0 0.65 0"/>
<feBlend mode="normal" in2="BackgroundImageFix" result="effect1_dropShadow_1053_9044"/>
<feBlend mode="normal" in="SourceGraphic" in2="effect1_dropShadow_1053_9044" result="shape"/>
</filter>
<filter id="filter4_d_1053_9044" x="13.7564" y="3.65682" width="12.8367" height="14.3953" filterUnits="userSpaceOnUse" color-interpolation-filters="sRGB">
<feFlood flood-opacity="0" result="BackgroundImageFix"/>
<feColorMatrix in="SourceAlpha" type="matrix" values="0 0 0 0 0 0 0 0 0 0 0 0 0 0 0 0 0 0 127 0" result="hardAlpha"/>
<feMorphology radius="0.746975" operator="dilate" in="SourceAlpha" result="effect1_dropShadow_1053_9044"/>
<feOffset/>
<feGaussianBlur stdDeviation="1.86744"/>
<feComposite in2="hardAlpha" operator="out"/>
<feColorMatrix type="matrix" values="0 0 0 0 0.0784314 0 0 0 0 0.898039 0 0 0 0 1 0 0 0 0.65 0"/>
<feBlend mode="normal" in2="BackgroundImageFix" result="effect1_dropShadow_1053_9044"/>
<feBlend mode="normal" in="SourceGraphic" in2="effect1_dropShadow_1053_9044" result="shape"/>
</filter>
<filter id="filter5_d_1053_9044" x="8.86776" y="10.8248" width="14.0477" height="11.3934" filterUnits="userSpaceOnUse" color-interpolation-filters="sRGB">
<feFlood flood-opacity="0" result="BackgroundImageFix"/>
<feColorMatrix in="SourceAlpha" type="matrix" values="0 0 0 0 0 0 0 0 0 0 0 0 0 0 0 0 0 0 127 0" result="hardAlpha"/>
<feMorphology radius="0.746975" operator="dilate" in="SourceAlpha" result="effect1_dropShadow_1053_9044"/>
<feOffset/>
<feGaussianBlur stdDeviation="1.86744"/>
<feComposite in2="hardAlpha" operator="out"/>
<feColorMatrix type="matrix" values="0 0 0 0 0.0784314 0 0 0 0 0.898039 0 0 0 0 1 0 0 0 0.65 0"/>
<feBlend mode="normal" in2="BackgroundImageFix" result="effect1_dropShadow_1053_9044"/>
<feBlend mode="normal" in="SourceGraphic" in2="effect1_dropShadow_1053_9044" result="shape"/>
</filter>
<linearGradient id="paint0_linear_1053_9044" x1="23.7056" y1="28.5839" x2="6.48225" y2="28.5839" gradientUnits="userSpaceOnUse">
<stop stop-color="white"/>
<stop offset="0.5" stop-color="#323232" stop-opacity="0.6"/>
<stop offset="1" stop-color="white"/>
</linearGradient>
<linearGradient id="paint1_linear_1053_9044" x1="25.5491" y1="27.3678" x2="39.3652" y2="19.6143" gradientUnits="userSpaceOnUse">
<stop offset="0.151667" stop-color="#495DBC"/>
<stop offset="1" stop-color="#E0FCFD"/>
</linearGradient>
<linearGradient id="paint2_linear_1053_9044" x1="4.63581" y1="23.3636" x2="-1.51005" y2="46.5421" gradientUnits="userSpaceOnUse">
<stop offset="0.23551" stop-color="#495DBC"/>
<stop offset="0.753502" stop-color="#E0FCFD"/>
</linearGradient>
<linearGradient id="paint3_linear_1053_9044" x1="2.40762" y1="42.2835" x2="27.5927" y2="31.0239" gradientUnits="userSpaceOnUse">
<stop stop-color="#394F89"/>
<stop offset="0.5" stop-color="#4B5FC2"/>
<stop offset="1" stop-color="#9DF6FC"/>
</linearGradient>
<linearGradient id="paint4_linear_1053_9044" x1="28.9968" y1="13.2132" x2="35.3459" y2="13.351" gradientUnits="userSpaceOnUse">
<stop offset="0.637307" stop-color="#495DBC"/>
<stop offset="1" stop-color="#C8CDE5"/>
</linearGradient>
<linearGradient id="paint5_linear_1053_9044" x1="1.68675" y1="13.2132" x2="-4.04205" y2="13.3511" gradientUnits="userSpaceOnUse">
<stop offset="0.694824" stop-color="#495DBC"/>
<stop offset="0.944416" stop-color="#C8CDE5"/>
</linearGradient>
<linearGradient id="paint6_linear_1053_9044" x1="15.5936" y1="6.09533e-09" x2="15.7573" y2="26.4804" gradientUnits="userSpaceOnUse">
<stop stop-color="#495DBC"/>
<stop offset="0.208107" stop-color="#5F84D0"/>
</linearGradient>
<linearGradient id="paint7_linear_1053_9044" x1="15.4234" y1="1.58594" x2="15.4234" y2="21.8036" gradientUnits="userSpaceOnUse">
<stop stop-color="#495DBC"/>
<stop offset="0.980748" stop-color="#CED2E7"/>
</linearGradient>
<linearGradient id="paint8_linear_1053_9044" x1="15.3978" y1="3.39063" x2="15.318" y2="9.12264" gradientUnits="userSpaceOnUse">
<stop stop-color="#85CBEB"/>
<stop offset="0.510638" stop-color="#0F1A1F"/>
</linearGradient>
<clipPath id="clip0_1053_9044">
<rect width="32" height="32" rx="16" fill="white"/>
</clipPath>
</defs>
</svg>
