<svg width="31" height="30" viewBox="0 0 31 30" fill="none" xmlns="http://www.w3.org/2000/svg">
<path fill-rule="evenodd"
clip-rule="evenodd"
d="M28 15C28 18.3152 26.683 21.4946 24.3388 23.8388C21.9946 26.183 18.8152 27.5 15.5 27.5C12.1848 27.5 9.00537 26.183 6.66116 23.8388C4.31696 21.4946 3 18.3152 3 15C3 11.6848 4.31696 8.50537 6.66116 6.16116C9.00537 3.81696 12.1848 2.5 15.5 2.5C18.8152 2.5 21.9946 3.81696 24.3388 6.16116C26.683 8.50537 28 11.6848 28 15ZM19.0714 11.4286C19.0714 12.3758 18.6952 13.2842 18.0254 13.954C17.3556 14.6237 16.4472 15 15.5 15C14.5528 15 13.6444 14.6237 12.9746 13.954C12.3048 13.2842 11.9286 12.3758 11.9286 11.4286C11.9286 10.4814 12.3048 9.57296 12.9746 8.90319C13.6444 8.23342 14.5528 7.85714 15.5 7.85714C16.4472 7.85714 17.3556 8.23342 18.0254 8.90319C18.6952 9.57296 19.0714 10.4814 19.0714 11.4286ZM15.5 16.7857C13.9543 16.7851 12.4348 17.1859 11.0904 17.9487C9.74604 18.7115 8.6227 19.8103 7.83036 21.1375C8.74986 22.2883 9.91688 23.2171 11.2447 23.8549C12.5725 24.4927 14.027 24.823 15.5 24.8214C16.9727 24.8228 18.4268 24.4923 19.7543 23.8545C21.0818 23.2167 22.2485 22.2881 23.1679 21.1375C22.3757 19.8105 21.2526 18.7119 19.9085 17.9491C18.5645 17.1863 17.0454 16.7854 15.5 16.7857Z"
fill="#797979"/>
</svg>
