<svg width="25" height="25" viewBox="0 0 25 25" fill="none" xmlns="http://www.w3.org/2000/svg">
<path d="M3.72656 20.9297C3.12656 20.9297 2.72656 20.5297 2.72656 19.9297C2.72656 19.3297 3.12656 18.9297 3.72656 18.9297C4.32656 18.9297 4.72656 19.3297 4.72656 19.9297C4.72656 20.5297 4.32656 20.9297 3.72656 20.9297Z" fill="white"/>
<path d="M7.72656 20.9297C7.12656 20.9297 6.72656 20.5297 6.72656 19.9297C6.72656 19.1297 6.42656 18.3297 5.82656 17.8297C5.32656 17.2297 4.52656 16.9297 3.72656 16.9297C3.12656 16.9297 2.72656 16.5297 2.72656 15.9297C2.72656 15.3297 3.12656 14.9297 3.72656 14.9297C5.02656 14.9297 6.32656 15.4297 7.22656 16.4297C8.22656 17.3297 8.72656 18.6297 8.72656 19.9297C8.72656 20.5297 8.32656 20.9297 7.72656 20.9297Z" fill="white"/>
<path d="M11.7266 20.9297C11.1266 20.9297 10.7266 20.5297 10.7266 19.9297C10.7266 18.0297 10.0266 16.3297 8.62656 14.9297C7.32656 13.6297 5.52656 12.9297 3.72656 12.9297C3.12656 12.9297 2.72656 12.5297 2.72656 11.9297C2.72656 11.3297 3.12656 10.9297 3.72656 10.9297C6.12656 10.9297 8.42656 11.8297 10.1266 13.5297C11.8266 15.2297 12.7266 17.5297 12.7266 19.9297C12.7266 20.5297 12.3266 20.9297 11.7266 20.9297Z" fill="white"/>
<path d="M18.7262 20.9297H15.7262C15.1262 20.9297 14.7262 20.5297 14.7262 19.9297C14.7262 19.3297 15.1262 18.9297 15.7262 18.9297H18.7262C19.2262 18.9297 19.7262 18.7297 20.1262 18.3297C20.5262 17.9297 20.7262 17.4297 20.7262 16.9297V8.92969C20.7262 8.42969 20.5262 7.92969 20.1262 7.52969C19.7262 7.12969 19.2262 6.92969 18.7262 6.92969H6.72617C6.32617 6.92969 5.92617 7.02969 5.62617 7.32969C5.32617 7.52969 5.02617 7.92969 4.92617 8.32969C4.72617 8.82969 4.12617 9.02969 3.62617 8.82969C3.02617 8.72969 2.82617 8.12969 3.02617 7.62969C3.22617 6.82969 3.72617 6.12969 4.42617 5.62969C5.12617 5.22969 5.92617 4.92969 6.72617 4.92969H18.7262C19.8262 4.92969 20.8262 5.32969 21.5262 6.12969C22.3262 6.82969 22.7262 7.82969 22.7262 8.92969V16.9297C22.7262 18.0297 22.3262 19.0297 21.5262 19.7297C20.7262 20.4297 19.8262 20.9297 18.7262 20.9297Z" fill="white"/>
</svg>
