<svg width="40" height="41" viewBox="0 0 40 41" fill="none" xmlns="http://www.w3.org/2000/svg">
<rect x="8" y="5.8667" width="24" height="29.7143" fill="#FFE4BC"/>
<path d="M9.16797 36.8192C8.5013 36.8192 7.91797 36.5692 7.41797 36.0692C6.91797 35.5692 6.66797 34.9858 6.66797 34.3192V5.98584C6.66797 5.31917 6.91797 4.73584 7.41797 4.23584C7.91797 3.73584 8.5013 3.48584 9.16797 3.48584H30.8346C31.5013 3.48584 32.0846 3.73584 32.5846 4.23584C33.0846 4.73584 33.3346 5.31917 33.3346 5.98584V34.3192C33.3346 34.9858 33.0846 35.5692 32.5846 36.0692C32.0846 36.5692 31.5013 36.8192 30.8346 36.8192H9.16797ZM9.16797 34.3192H30.8346V5.98584H28.3346V17.0692L24.293 14.7358L20.2513 17.0692V5.98584H9.16797V34.3192Z" fill="#8D4C10"/>
<path d="M21.6311 15.4801C21.6311 15.3552 21.5765 15.2355 21.4793 15.1472C21.3821 15.0589 21.2503 15.0093 21.1128 15.0093H10.8034C10.666 15.0093 10.5341 15.0589 10.437 15.1472C10.3398 15.2355 10.2852 15.3552 10.2852 15.4801C10.2852 15.605 10.3398 15.7248 10.437 15.8131C10.5341 15.9014 10.666 15.951 10.8034 15.951H21.1128C21.2503 15.951 21.3821 15.9014 21.4793 15.8131C21.5765 15.7248 21.6311 15.605 21.6311 15.4801ZM28.5595 21.9606C28.5595 21.8357 28.5049 21.7159 28.4078 21.6276C28.3106 21.5393 28.1787 21.4897 28.0413 21.4897H10.8034C10.666 21.4897 10.5341 21.5393 10.437 21.6276C10.3398 21.7159 10.2852 21.8357 10.2852 21.9606C10.2852 22.0854 10.3398 22.2052 10.437 22.2935C10.5341 22.3818 10.666 22.4314 10.8034 22.4314H28.0414C28.1094 22.4314 28.1768 22.4192 28.2397 22.3956C28.3025 22.3719 28.3597 22.3372 28.4078 22.2935C28.4559 22.2498 28.4941 22.1979 28.5201 22.1407C28.5462 22.0836 28.5596 22.0224 28.5595 21.9606ZM21.6311 25.2008C21.6311 25.0759 21.5765 24.9562 21.4793 24.8679C21.3821 24.7796 21.2503 24.73 21.1128 24.73H10.8034C10.666 24.73 10.5341 24.7796 10.437 24.8679C10.3398 24.9562 10.2852 25.0759 10.2852 25.2008C10.2852 25.3257 10.3398 25.4454 10.437 25.5337C10.5341 25.622 10.666 25.6716 10.8034 25.6716H21.1128C21.1809 25.6716 21.2483 25.6595 21.3112 25.6358C21.3741 25.6122 21.4312 25.5775 21.4793 25.5338C21.5274 25.49 21.5656 25.4381 21.5917 25.381C21.6177 25.3239 21.6311 25.2626 21.6311 25.2008ZM29.7137 28.441C29.7137 28.3162 29.6591 28.1964 29.562 28.1081C29.4648 28.0198 29.333 27.9702 29.1955 27.9702H10.8034C10.666 27.9702 10.5341 28.0198 10.437 28.1081C10.3398 28.1964 10.2852 28.3162 10.2852 28.441C10.2852 28.5659 10.3398 28.6857 10.437 28.774C10.5341 28.8623 10.666 28.9119 10.8034 28.9119H29.1955C29.333 28.9119 29.4648 28.8623 29.562 28.774C29.6591 28.6857 29.7137 28.5659 29.7137 28.441ZM29.7137 31.6813C29.7137 31.5564 29.6591 31.4367 29.562 31.3484C29.4648 31.2601 29.333 31.2105 29.1955 31.2105H10.8034C10.666 31.2105 10.5341 31.2601 10.437 31.3484C10.3398 31.4367 10.2852 31.5564 10.2852 31.6813C10.2852 31.8062 10.3398 31.9259 10.437 32.0142C10.5341 32.1025 10.666 32.1521 10.8034 32.1521H29.1955C29.333 32.1521 29.4648 32.1025 29.562 32.0142C29.6591 31.9259 29.7137 31.8062 29.7137 31.6813Z" fill="white"/>
<g filter="url(#filter0_d_1053_4294)">
<path d="M28.5714 5.8667H20V17.2953L24.5714 15.0096L28.5714 17.2953V5.8667Z" fill="#FF7575"/>
</g>
<path d="M21.4281 11.3729C21.4382 11.411 21.4558 11.4468 21.4798 11.4781C21.5038 11.5094 21.5338 11.5356 21.5681 11.5552L22.1415 11.8868V12.5474C22.1415 12.627 22.1731 12.7035 22.2295 12.7598C22.2858 12.8161 22.3622 12.8478 22.4419 12.8478H23.1024L23.434 13.4215C23.474 13.4904 23.5396 13.5406 23.6165 13.5612C23.6934 13.5818 23.7753 13.5711 23.8443 13.5314L24.4178 13.2001L24.9915 13.5317C25.0605 13.5714 25.1425 13.5821 25.2194 13.5615C25.2963 13.5409 25.3619 13.4907 25.4018 13.4218L25.7331 12.8484H26.3937C26.4733 12.8484 26.5497 12.8167 26.6061 12.7604C26.6624 12.7041 26.6941 12.6276 26.6941 12.548V11.8874L27.2675 11.5558C27.3017 11.5361 27.3316 11.5099 27.3557 11.4786C27.3797 11.4473 27.3973 11.4116 27.4076 11.3735C27.4178 11.3354 27.4204 11.2956 27.4152 11.2565C27.41 11.2174 27.3972 11.1797 27.3774 11.1455L27.0461 10.5718L27.3777 9.99835C27.4176 9.92936 27.4284 9.84737 27.4077 9.77042C27.3871 9.69347 27.3368 9.62787 27.2678 9.58803L26.6944 9.25641V8.59587C26.6944 8.51621 26.6627 8.43981 26.6064 8.38347C26.55 8.32714 26.4736 8.29549 26.394 8.29549H25.7334L25.4021 7.72207C25.3622 7.65317 25.2967 7.60285 25.2198 7.58209C25.1817 7.57178 25.1419 7.56912 25.1028 7.57428C25.0637 7.57943 25.0259 7.5923 24.9918 7.61213L24.4178 7.94345L23.8443 7.61183C23.8102 7.59201 23.7725 7.57913 23.7334 7.57392C23.6943 7.5687 23.6545 7.57126 23.6164 7.58145C23.5783 7.59164 23.5426 7.60925 23.5113 7.63327C23.48 7.6573 23.4537 7.68727 23.434 7.72147L23.1024 8.29519H22.4419C22.3622 8.29519 22.2858 8.32684 22.2295 8.38317C22.1731 8.4395 22.1415 8.51591 22.1415 8.59557V9.25611L21.5681 9.58803C21.4992 9.62797 21.449 9.6936 21.4284 9.77052C21.4079 9.84745 21.4186 9.92938 21.4584 9.99835L21.7897 10.5718L21.4581 11.1452C21.4184 11.2142 21.4076 11.296 21.4281 11.3729Z" fill="#FBFBFB"/>
<defs>
<filter id="filter0_d_1053_4294" x="20" y="5.8667" width="8.57031" height="12.4287" filterUnits="userSpaceOnUse" color-interpolation-filters="sRGB">
<feFlood flood-opacity="0" result="BackgroundImageFix"/>
<feColorMatrix in="SourceAlpha" type="matrix" values="0 0 0 0 0 0 0 0 0 0 0 0 0 0 0 0 0 0 127 0" result="hardAlpha"/>
<feOffset dy="1"/>
<feComposite in2="hardAlpha" operator="out"/>
<feColorMatrix type="matrix" values="0 0 0 0 1 0 0 0 0 0.917083 0 0 0 0 0.170833 0 0 0 1 0"/>
<feBlend mode="normal" in2="BackgroundImageFix" result="effect1_dropShadow_1053_4294"/>
<feBlend mode="normal" in="SourceGraphic" in2="effect1_dropShadow_1053_4294" result="shape"/>
</filter>
</defs>
</svg>
