<svg width="28" height="28" viewBox="0 0 28 28" fill="none" xmlns="http://www.w3.org/2000/svg">
<path d="M14.0013 17.7917C16.3955 17.7917 18.3346 15.8525 18.3346 13.4584V7.50002C18.3346 5.10585 16.3955 3.16669 14.0013 3.16669C11.6071 3.16669 9.66797 5.10585 9.66797 7.50002V13.4584C9.66797 15.8525 11.6071 17.7917 14.0013 17.7917Z" stroke="#495555" stroke-width="1.5" stroke-linecap="round" stroke-linejoin="round"/>
<path d="M5.71094 11.4542V13.2958C5.71094 17.8675 9.42677 21.5833 13.9984 21.5833C18.5701 21.5833 22.2859 17.8675 22.2859 13.2958V11.4542" stroke="#495555" stroke-width="1.5" stroke-linecap="round" stroke-linejoin="round"/>
<path d="M12.4961 7.96582C13.4711 7.60832 14.5328 7.60832 15.5078 7.96582" stroke="#495555" stroke-width="1.5" stroke-linecap="round" stroke-linejoin="round"/>
<path d="M13.1328 10.2625C13.707 10.1108 14.3028 10.1108 14.877 10.2625" stroke="#495555" stroke-width="1.5" stroke-linecap="round" stroke-linejoin="round"/>
<path d="M14 21.5833V24.8333" stroke="#495555" stroke-width="1.5" stroke-linecap="round" stroke-linejoin="round"/>
</svg>
