<svg width="24" height="24" viewBox="0 0 24 24" fill="none" xmlns="http://www.w3.org/2000/svg">
<rect x="8" y="9" width="8" height="8" rx="4" stroke="#495555" stroke-width="2"/>
<path d="M6 7H6.39445C7.39751 7 8.3342 6.4987 8.8906 5.6641L9.1094 5.3359C9.6658 4.5013 10.6025 4 11.6056 4H12.3944C13.3975 4 14.3342 4.5013 14.8906 5.3359L15.1094 5.6641C15.6658 6.4987 16.6025 7 17.6056 7H18C19.6569 7 21 8.34315 21 10V17C21 18.6569 19.6569 20 18 20H6C4.34315 20 3 18.6569 3 17V10C3 8.34315 4.34315 7 6 7Z" stroke="#495555" stroke-width="2"/>
</svg>
