<svg width="30" height="30" viewBox="0 0 30 30" fill="none" xmlns="http://www.w3.org/2000/svg">
<path d="M27.5406 14.9238C27.5406 21.8498 21.926 27.4644 15 27.4644C8.07408 27.4644 2.45947 21.8498 2.45947 14.9238C2.45947 7.99788 8.07408 2.38327 15 2.38327C21.926 2.38327 27.5406 7.99788 27.5406 14.9238Z" fill="#6DB1CE"/>
<path d="M21.4946 25.6739C19.927 28.2642 9.62586 28.2642 8.28223 25.6739C8.91609 23.5496 9.66925 22.5552 11.8616 21.6835C13.9621 20.9796 15.201 21.0871 17.4601 21.6835C19.3669 22.5528 20.5168 23.389 21.4946 25.6739Z" fill="white"/>
<path d="M9.40186 26.1215C9.88182 24.0783 10.6123 23.2292 11.8652 21.4188C14.1651 22.4083 15.4384 22.3131 17.6876 21.4188C18.9775 23.3781 19.4269 24.2094 19.927 26.1215C17.9115 27.4651 10.7455 27.2412 9.40186 26.1215Z" fill="#EEEFF1"/>
<path d="M18.5835 21.1951H11.4175C11.5575 21.561 11.3266 21.1042 11.8654 21.643C12.9851 22.7627 16.3441 22.7627 18.1356 21.643C18.6034 21.3506 18.3266 21.6711 18.5835 21.1951Z" fill="#D2D3D5"/>
<path d="M7.83057 20.299H21.7148C21.3985 20.6393 20.8933 21.0671 20.2134 21.1947H9.11155C8.54061 21.0918 8.26938 20.6455 7.83057 20.299Z" fill="#D2D3D5"/>
<rect x="6.97217" y="8.20743" width="0.895755" height="5.82241" fill="#EEEFF1"/>
<rect x="22.1997" y="8.20743" width="0.895755" height="5.82241" fill="#EEEFF1"/>
<path d="M8.05457 13.5812C7.38281 13.5812 6.63061 13.9341 6.18935 14.2502C5.74809 14.5664 5.46313 15.0351 5.39715 15.5533C5.33117 16.0715 5.48958 16.5967 5.83753 17.0134C6.18548 17.43 7.0856 17.765 7.64365 17.8361L7.83063 15.8206L8.05457 13.5812Z" fill="#D2D3D5"/>
<path d="M21.9387 13.8046C22.6069 13.8741 23.6986 14.2121 24.1048 14.5722C24.511 14.9323 24.746 15.428 24.758 15.9502C24.7701 16.4725 24.5582 16.9785 24.1691 17.3569C23.7799 17.7354 22.5011 18.0465 21.9387 18.0595L21.9387 15.9502L21.9387 13.8046Z" fill="#D2D3D5"/>
<path d="M21.0305 20.748H9.15745C7.7864 20.7147 7.54351 20.2847 7.41992 19.2729L7.70951 14.8474C8.28868 6.29161 21.0305 5.7015 22.1889 14.8474V19.2729C22.2492 20.1465 22.0886 20.5235 21.0305 20.748Z" fill="#EEEFF1"/>
<path d="M19.7366 19.4032H10.5551C9.49483 19.3779 9.307 19.0516 9.21143 18.2835L9.43536 14.9244C9.88324 8.43022 19.7366 7.9823 20.6323 14.9244V18.2835C20.6789 18.9466 20.5548 19.2328 19.7366 19.4032Z" fill="#353849"/>
<circle cx="7.41968" cy="8.20673" r="0.895755" fill="#D9D9D9"/>
<circle cx="22.6477" cy="8.20673" r="0.895755" fill="#D9D9D9"/>
<circle cx="12.5703" cy="14.2531" r="0.671816" fill="white"/>
<circle cx="17.497" cy="14.2531" r="0.671816" fill="white"/>
<path d="M13.6602 16.0448C13.4293 16.0448 13.2382 16.2336 13.2807 16.4605C13.3518 16.84 13.5194 17.1915 13.7669 17.47C14.1029 17.8479 14.5585 18.0603 15.0337 18.0603C15.5088 18.0603 15.9645 17.8479 16.3005 17.47C16.548 17.1915 16.7156 16.84 16.7867 16.4605C16.8292 16.2336 16.638 16.0448 16.4072 16.0448L15.0337 16.0448H13.6602Z" fill="white"/>
</svg>
