<svg width="24" height="24" viewBox="0 0 24 24" fill="none" xmlns="http://www.w3.org/2000/svg">
<path d="M10.1297 8.99997V15.7429C10.1375 16.236 10.3388 16.7063 10.6903 17.0522C11.0417 17.3981 11.5151 17.592 12.0082 17.592C12.5013 17.592 12.9747 17.3981 13.3261 17.0522C13.6776 16.7063 13.8789 16.236 13.8867 15.7429L13.8928 6.90466C13.8979 6.48322 13.8193 6.06496 13.6616 5.67412C13.5039 5.28328 13.2701 4.92764 12.9739 4.62781C12.6777 4.32798 12.3249 4.08994 11.936 3.92747C11.5471 3.765 11.1298 3.68134 10.7084 3.68134C10.2869 3.68134 9.86961 3.765 9.48071 3.92747C9.09182 4.08994 8.73904 4.32798 8.44283 4.62781C8.14661 4.92764 7.91286 5.28328 7.75512 5.67412C7.59738 6.06496 7.51879 6.48322 7.52391 6.90466V15.8025C7.51532 16.3958 7.62477 16.9849 7.84588 17.5356C8.067 18.0862 8.39537 18.5874 8.81191 19.01C9.22845 19.4326 9.72484 19.7682 10.2722 19.9973C10.8196 20.2263 11.4071 20.3443 12.0005 20.3443C12.5939 20.3443 13.1813 20.2263 13.7287 19.9973C14.2761 19.7682 14.7725 19.4326 15.189 19.01C15.6056 18.5874 15.9339 18.0862 16.1551 17.5356C16.3762 16.9849 16.4856 16.3958 16.477 15.8025V7.48778" stroke="#495555" stroke-width="1.5" stroke-miterlimit="10" stroke-linecap="round"/>
</svg>
