<svg width="70" height="71" viewBox="0 0 70 71" fill="none" xmlns="http://www.w3.org/2000/svg">
<path fill-rule="evenodd" clip-rule="evenodd" d="M0 35.25C0 25.9674 3.68749 17.065 10.2513 10.5013C16.815 3.93749 25.7174 0.25 35 0.25C44.2826 0.25 53.185 3.93749 59.7487 10.5013C66.3125 17.065 70 25.9674 70 35.25C70 44.5326 66.3125 53.435 59.7487 59.9987C53.185 66.5625 44.2826 70.25 35 70.25C25.7174 70.25 16.815 66.5625 10.2513 59.9987C3.68749 53.435 0 44.5326 0 35.25ZM31.4351 48.924C32.2958 49.6411 33.5774 49.5115 34.2771 48.6368L51.6973 26.8595C52.5015 25.8542 52.3385 24.3874 51.3332 23.5832C50.3281 22.7791 48.8614 22.942 48.0571 23.947L32.3307 43.5987L21.9519 34.9511C20.9623 34.1264 19.4915 34.2602 18.6668 35.2498C17.842 36.2396 17.9758 37.7106 18.9657 38.5353L31.4351 48.924Z" fill="#0CA74B"/>
</svg>
