<svg width="37" height="45" viewBox="0 0 37 45" fill="none" xmlns="http://www.w3.org/2000/svg">
<g clip-path="url(#clip0_3514_58660)">
<path fill-rule="evenodd" clip-rule="evenodd" d="M0.5 22.5C0.5 17.7261 2.39642 13.1477 5.77208 9.77208C9.14773 6.39642 13.7261 4.5 18.5 4.5C23.2739 4.5 27.8523 6.39642 31.2279 9.77208C34.6036 13.1477 36.5 17.7261 36.5 22.5C36.5 27.2739 34.6036 31.8523 31.2279 35.2279C27.8523 38.6036 23.2739 40.5 18.5 40.5C13.7261 40.5 9.14773 38.6036 5.77208 35.2279C2.39642 31.8523 0.5 27.2739 0.5 22.5ZM15.9053 28.898C16.7659 29.6151 18.0475 29.4855 18.7473 28.6108L27.0872 18.1849C27.5008 17.6679 27.4169 16.9135 26.8999 16.5C26.383 16.0864 25.6287 16.1702 25.2151 16.687L17.1272 26.7936L11.7896 22.3463C11.2806 21.9222 10.5242 21.991 10.1001 22.4999C9.67589 23.0089 9.74471 23.7654 10.2538 24.1896L15.9053 28.898Z" fill="#0CA74B"/>
</g>
<defs>
<clipPath id="clip0_3514_58660">
<rect width="36" height="44" fill="white" transform="translate(0.5 0.5)"/>
</clipPath>
</defs>
</svg>
