<svg width="181" height="180" viewBox="0 0 181 180" fill="none" xmlns="http://www.w3.org/2000/svg">
<mask id="mask0_149_4982" style="mask-type:alpha" maskUnits="userSpaceOnUse" x="0" y="0" width="181" height="180">
<circle cx="90.6629" cy="89.9031" r="88.6631" fill="#C4C4C4" stroke="#F8BB54" stroke-width="2.48009"/>
</mask>
<g mask="url(#mask0_149_4982)">
<path d="M-51.4878 37.7026C-51.4878 37.7026 -9.62366 29.9476 1.17782 2.80553C11.508 -23.2132 54.0609 -30.2069 54.0609 -30.2069" stroke="#F18282" stroke-width="2.78769" stroke-miterlimit="10"/>
<path d="M-51.4878 50.7479C-51.4878 50.7479 -0.127045 41.7974 13.1028 9.03845C25.7164 -22.2348 77.8746 -30.2069 77.8746 -30.2069" stroke="#F18282" stroke-width="2.78769" stroke-miterlimit="10"/>
<path d="M-51.4878 63.8299C-51.4878 63.8299 9.33319 53.6471 24.9915 15.3438C39.9249 -21.2924 101.688 -30.2069 101.688 -30.2069" stroke="#F18282" stroke-width="2.78769" stroke-miterlimit="10"/>
<path d="M-51.4878 76.8755C-51.4878 76.8755 18.8297 65.4969 36.9165 21.5768C54.1334 -20.314 125.502 -30.2069 125.502 -30.2069" stroke="#F18282" stroke-width="2.78769" stroke-miterlimit="10"/>
<path d="M-51.4878 89.9211C-51.4878 89.9211 28.3262 77.3467 48.8415 27.8458C68.3418 -19.3356 149.28 -30.2069 149.28 -30.2069" stroke="#F18282" stroke-width="2.78769" stroke-miterlimit="10"/>
<path d="M-51.4878 103.003C-51.4878 103.003 37.7864 89.2325 60.7302 34.1148C82.5865 -18.3935 173.093 -30.2069 173.093 -30.2069" stroke="#F18282" stroke-width="2.78769" stroke-miterlimit="10"/>
<path d="M-51.4878 116.048C-51.4878 116.048 47.2829 101.046 72.6552 40.3841C96.7951 -17.4151 196.907 -30.2069 196.907 -30.2069" stroke="#F18282" stroke-width="2.78769" stroke-miterlimit="10"/>
<path d="M-51.4878 129.094C-51.4878 129.094 56.7795 112.896 84.5438 46.6171C111.003 -16.4366 220.721 -30.2069 220.721 -30.2069" stroke="#F18282" stroke-width="2.78769" stroke-miterlimit="10"/>
<path d="M-51.4878 142.176C-51.4878 142.176 66.2395 124.782 96.4688 52.9222C125.212 -15.4946 244.498 -30.2069 244.498 -30.2069" stroke="#F18282" stroke-width="2.78769" stroke-miterlimit="10"/>
<path d="M-51.4878 155.22C-51.4878 155.22 75.7362 136.632 108.358 59.1915C139.421 -14.5161 268.312 -30.2069 268.312 -30.2069" stroke="#F18282" stroke-width="2.78769" stroke-miterlimit="10"/>
<path d="M-51.4878 168.302C-51.4878 168.302 85.2326 148.481 120.283 65.4606C153.629 -13.5377 292.125 -30.2069 292.125 -30.2069" stroke="#F18282" stroke-width="2.78769" stroke-miterlimit="10"/>
<path d="M-51.4878 181.349C-51.4878 181.349 94.6928 160.331 132.171 71.7299C167.837 -12.5954 315.938 -30.2069 315.938 -30.2069" stroke="#F18282" stroke-width="2.78769" stroke-miterlimit="10"/>
<path d="M-51.4878 194.393C-51.4878 194.393 104.189 172.181 144.096 77.9625C182.046 -11.6169 339.752 -30.2069 339.752 -30.2069" stroke="#F18282" stroke-width="2.78769" stroke-miterlimit="10"/>
<path d="M-51.4878 207.475C-51.4878 207.475 113.686 184.031 156.021 84.2679C196.254 -10.6385 363.53 -30.2069 363.53 -30.2069" stroke="#F18282" stroke-width="2.78769" stroke-miterlimit="10"/>
<path d="M-51.4878 220.522C-51.4878 220.522 123.146 195.88 167.91 90.5008C210.463 -9.69645 387.344 -30.2069 387.344 -30.2069" stroke="#F18282" stroke-width="2.78769" stroke-miterlimit="10"/>
<path d="M-51.4878 233.568C-51.4878 233.568 132.643 207.73 179.835 96.7699C224.671 -8.718 411.158 -30.2069 411.158 -30.2069" stroke="#F18282" stroke-width="2.78769" stroke-miterlimit="10"/>
<path d="M-51.4878 246.65C-51.4878 246.65 142.139 219.615 191.724 103.039C238.88 -7.73957 434.971 -30.2069 434.971 -30.2069" stroke="#F18282" stroke-width="2.78769" stroke-miterlimit="10"/>
<path d="M-51.4878 259.694C-51.4878 259.694 151.599 231.43 203.649 109.308C253.088 -6.79752 458.75 -30.2069 458.75 -30.2069" stroke="#F18282" stroke-width="2.78769" stroke-miterlimit="10"/>
</g>
</svg>
