<svg width="13" height="14" viewBox="0 0 13 14" fill="black" stroke="black" stroke-width="0.3" xmlns="http://www.w3.org/2000/svg">
<path d="M6.5 5.72737L1.66657 0.893934L1.5605 0.787868L1.45443 0.893934L0.393934 1.95443L0.287868 2.0605L0.393934 2.16657L5.22737 7L0.393934 11.8334L0.287868 11.9395L0.393934 12.0456L1.45443 13.1061L1.5605 13.2121L1.66657 13.1061L6.5 8.27263L11.3334 13.1061L11.4395 13.2121L11.5456 13.1061L12.6061 12.0456L12.7121 11.9395L12.6061 11.8334L7.77263 7L12.6061 2.16657L12.7121 2.0605L12.6061 1.95443L11.5456 0.893934L11.4395 0.787868L11.3334 0.893934L6.5 5.72737Z"  />
</svg>
