<svg width="48" height="49" viewBox="0 0 48 49" fill="none" xmlns="http://www.w3.org/2000/svg">
<rect y="0.5" width="48" height="48" rx="12" fill="url(#paint0_linear_166_4708)"/>
<rect y="0.5" width="48" height="48" rx="12" fill="url(#paint1_linear_166_4708)" fill-opacity="0.3"/>
<path d="M30.9299 16.3149C31.2375 16.3403 31.5426 16.4868 31.7781 16.7222C32.0135 16.9576 32.16 17.2627 32.1853 17.5704C32.2106 17.878 32.1127 18.163 31.913 18.3626L17.8622 32.4135C17.6625 32.6132 17.3775 32.7111 17.0699 32.6858C16.7622 32.6605 16.4571 32.514 16.2217 32.2785C15.9863 32.0431 15.8398 31.738 15.8145 31.4304C15.7891 31.1227 15.8871 30.8377 16.0867 30.6381L30.1376 16.5872C30.3372 16.3876 30.6222 16.2896 30.9299 16.3149Z" fill="white"/>
<path fill-rule="evenodd" clip-rule="evenodd" d="M31.778 32.2785C32.0134 32.0431 32.1599 31.738 32.1852 31.4303C32.2106 31.1227 32.1126 30.8377 31.913 30.638L17.8621 16.5872C17.6625 16.3875 17.3775 16.2896 17.0698 16.3149C16.7622 16.3402 16.4571 16.4867 16.2217 16.7221C15.9862 16.9576 15.8397 17.2627 15.8144 17.5703C15.7891 17.878 15.887 18.163 16.0867 18.3626L30.1376 32.4135C30.3372 32.6131 30.6222 32.7111 30.9298 32.6857C31.2375 32.6604 31.5426 32.5139 31.778 32.2785Z" fill="white"/>
<defs>
<linearGradient id="paint0_linear_166_4708" x1="-2.31556" y1="24.5" x2="60.1893" y2="23.5346" gradientUnits="userSpaceOnUse">
<stop stop-color="#9C5ED7"/>
<stop offset="0.84406" stop-color="#635AD9"/>
<stop offset="1" stop-color="#E8A0A0"/>
</linearGradient>
<linearGradient id="paint1_linear_166_4708" x1="0" y1="24.5" x2="48" y2="24.5" gradientUnits="userSpaceOnUse">
<stop stop-color="#F1F1F1"/>
<stop offset="1" stop-color="#ECECEC"/>
</linearGradient>
</defs>
</svg>
