<svg width="70" height="71" viewBox="0 0 70 71" fill="none" xmlns="http://www.w3.org/2000/svg">
<path fill-rule="evenodd" clip-rule="evenodd" d="M51.5299 60.8439C52.6038 60.8439 53.4744 61.7144 53.4744 62.7883C53.4744 63.8622 52.6038 64.7327 51.5299 64.7327H34.0299C33.9157 64.7327 33.8037 64.7229 33.6948 64.704C27.4485 64.4284 21.7127 62.1883 17.0901 58.5863C16.7141 58.2933 16.1475 57.8077 15.7276 57.4423C15.3685 57.1299 14.9095 56.955 14.4335 56.955H9.72439C8.65051 56.955 7.77995 56.0844 7.77995 55.0105C7.77995 53.9366 8.65051 53.0661 9.72439 53.0661H11.6688C12.7427 53.0661 13.6133 52.1955 13.6133 51.1216C13.6133 50.0477 12.7427 49.1772 11.6688 49.1772H6.80773C5.73384 49.1772 4.86328 48.3066 4.86328 47.2327C4.86328 46.1589 5.73384 45.2883 6.80773 45.2883H7.77995C8.85383 45.2883 9.72439 44.4177 9.72439 43.3439C9.72439 42.27 8.85383 41.3994 7.77995 41.3994C6.99371 41.3994 6.32124 40.8327 6.19042 40.0574C6.14289 39.7757 6.10514 39.5489 6.09891 39.5028C5.92521 38.2153 5.8355 36.9012 5.8355 35.5661C5.8355 19.4578 18.8939 6.39941 35.0022 6.39941C39.8633 6.39941 44.7244 6.39941 49.5855 6.39941C50.6594 6.39941 51.5299 7.26997 51.5299 8.34386C51.5299 9.41775 50.6594 10.2883 49.5855 10.2883H46.6688C45.5949 10.2883 44.7244 11.1589 44.7244 12.2327C44.7244 13.3066 45.5949 14.1772 46.6688 14.1772H58.3355C59.4094 14.1772 60.2799 15.0477 60.2799 16.1216C60.2799 17.1948 59.4105 18.0649 58.3376 18.0661H55.4188C54.3449 18.0661 53.4744 18.9366 53.4744 20.0105C53.4744 21.0844 54.3449 21.955 55.4188 21.955H59.6052C60.3406 21.955 61.0146 22.369 61.3334 23.0317C61.525 23.4299 61.7266 23.8595 61.8585 24.17C63.346 27.671 64.1688 31.5224 64.1688 35.5661C64.1688 36.8366 64.0876 38.0882 63.93 39.3159C63.9035 39.5223 63.8629 39.7872 63.8186 40.0585C63.6917 40.8368 63.013 41.3994 62.2244 41.3994C61.1505 41.3994 60.2799 42.27 60.2799 43.3439C60.2799 44.4177 61.1505 45.2883 62.2244 45.2883H63.1966C64.2705 45.2883 65.1411 46.1589 65.1411 47.2327C65.1411 48.3066 64.2705 49.1772 63.1966 49.1772H61.9484C61.2425 49.1772 60.5934 49.5604 60.2407 50.172C60.0117 50.5691 59.757 51.0012 59.5678 51.2961C59.1243 51.9872 58.6525 52.6585 58.1539 53.3081C57.6531 53.9606 57.1253 54.5913 56.5723 55.1986C56.2688 55.5318 55.7771 56.0256 55.3936 56.4047C55.0348 56.7595 54.5498 56.955 54.0452 56.955H48.6133C47.5394 56.955 46.6688 57.8255 46.6688 58.8994C46.6688 59.9658 47.5273 60.8317 48.5908 60.8437L51.5299 60.8439Z" fill="#F1456F"/>
<path fill-rule="evenodd" clip-rule="evenodd" d="M51.5299 60.8439C52.6038 60.8439 53.4744 61.7144 53.4744 62.7883C53.4744 63.8622 52.6038 64.7327 51.5299 64.7327H34.0299C33.9157 64.7327 33.8037 64.7229 33.6948 64.704C27.4485 64.4284 21.7127 62.1883 17.0901 58.5863C16.7141 58.2933 16.1475 57.8077 15.7276 57.4423C15.3685 57.1299 14.9095 56.955 14.4335 56.955H9.72439C8.65051 56.955 7.77995 56.0844 7.77995 55.0105C7.77995 53.9366 8.65051 53.0661 9.72439 53.0661H11.6688C12.7427 53.0661 13.6133 52.1955 13.6133 51.1216C13.6133 50.0477 12.7427 49.1772 11.6688 49.1772H6.80773C5.73384 49.1772 4.86328 48.3066 4.86328 47.2327C4.86328 46.1589 5.73384 45.2883 6.80773 45.2883H7.77995C8.85383 45.2883 9.72439 44.4177 9.72439 43.3439C9.72439 42.27 8.85383 41.3994 7.77995 41.3994C6.99371 41.3994 6.32124 40.8327 6.19042 40.0574C6.14289 39.7757 6.10514 39.5489 6.09891 39.5028C5.92521 38.2153 5.8355 36.9012 5.8355 35.5661C5.8355 19.4578 18.8939 6.39941 35.0022 6.39941C39.8633 6.39941 44.7244 6.39941 49.5855 6.39941C50.6594 6.39941 51.5299 7.26997 51.5299 8.34386C51.5299 9.41775 50.6594 10.2883 49.5855 10.2883H46.6688C45.5949 10.2883 44.7244 11.1589 44.7244 12.2327C44.7244 13.3066 45.5949 14.1772 46.6688 14.1772H58.3355C59.4094 14.1772 60.2799 15.0477 60.2799 16.1216C60.2799 17.1948 59.4105 18.0649 58.3376 18.0661H55.4188C54.3449 18.0661 53.4744 18.9366 53.4744 20.0105C53.4744 21.0844 54.3449 21.955 55.4188 21.955H59.6052C60.3406 21.955 61.0146 22.369 61.3334 23.0317C61.525 23.4299 61.7266 23.8595 61.8585 24.17C63.346 27.671 64.1688 31.5224 64.1688 35.5661C64.1688 36.8366 64.0876 38.0882 63.93 39.3159C63.9035 39.5223 63.8629 39.7872 63.8186 40.0585C63.6917 40.8368 63.013 41.3994 62.2244 41.3994C61.1505 41.3994 60.2799 42.27 60.2799 43.3439C60.2799 44.4177 61.1505 45.2883 62.2244 45.2883H63.1966C64.2705 45.2883 65.1411 46.1589 65.1411 47.2327C65.1411 48.3066 64.2705 49.1772 63.1966 49.1772H61.9484C61.2425 49.1772 60.5934 49.5604 60.2407 50.172C60.0117 50.5691 59.757 51.0012 59.5678 51.2961C59.1243 51.9872 58.6525 52.6585 58.1539 53.3081C57.6531 53.9606 57.1253 54.5913 56.5723 55.1986C56.2688 55.5318 55.7771 56.0256 55.3936 56.4047C55.0348 56.7595 54.5498 56.955 54.0452 56.955H48.6133C47.5394 56.955 46.6688 57.8255 46.6688 58.8994C46.6688 59.9658 47.5273 60.8317 48.5908 60.8437L51.5299 60.8439Z" fill="url(#paint0_linear_3103_26937)"/>
<g opacity="0.1">
<path fill-rule="evenodd" clip-rule="evenodd" d="M33.3312 12.1694C34.3627 11.5738 35.6336 11.5738 36.6651 12.1694L54.427 22.4242C55.4585 23.0197 56.0939 24.1203 56.0939 25.3114V45.8211C56.0939 47.0122 55.4585 48.1128 54.427 48.7083L36.6651 58.9632C35.6336 59.5587 34.3627 59.5587 33.3312 58.9632L15.5693 48.7083C14.5378 48.1128 13.9023 47.0122 13.9023 45.8211L13.9023 25.3114C13.9023 24.1203 14.5378 23.0198 15.5693 22.4242L33.3312 12.1694Z" fill="#0602F3" style="mix-blend-mode:multiply"/>
</g>
<g filter="url(#filter0_d_3103_26937)">
<path fill-rule="evenodd" clip-rule="evenodd" d="M28.2656 32.6504L41.7371 40.4282L25.6715 68.2546C25.462 68.6175 24.9414 68.6267 24.7192 68.2714L20.5396 61.5879L12.6616 61.3099C12.2428 61.2952 11.9905 60.8397 12.2 60.4768L28.2656 32.6504Z" fill="#F55462"/>
</g>
<mask id="mask0_3103_26937" style="mask-type:luminance" maskUnits="userSpaceOnUse" x="12" y="32" width="30" height="37">
<path fill-rule="evenodd" clip-rule="evenodd" d="M28.2656 32.6504L41.7371 40.4282L25.6715 68.2546C25.462 68.6175 24.9414 68.6267 24.7192 68.2714L20.5396 61.5879L12.6616 61.3099C12.2428 61.2952 11.9905 60.8397 12.2 60.4768L28.2656 32.6504Z" fill="white"/>
</mask>
<g mask="url(#mask0_3103_26937)">
<path fill-rule="evenodd" clip-rule="evenodd" d="M23.8555 48.0654L30.5912 51.9543L21.8412 67.1098L15.1055 63.2209L23.8555 48.0654Z" fill="white"/>
</g>
<g filter="url(#filter1_d_3103_26937)">
<path fill-rule="evenodd" clip-rule="evenodd" d="M41.7305 32.6504L28.259 40.4282L44.3246 68.2546C44.5341 68.6175 45.0547 68.6267 45.2769 68.2714L49.4565 61.5879L57.3345 61.3099C57.7533 61.2952 58.0056 60.8397 57.7961 60.4768L41.7305 32.6504Z" fill="#F55462"/>
</g>
<mask id="mask1_3103_26937" style="mask-type:luminance" maskUnits="userSpaceOnUse" x="28" y="32" width="30" height="37">
<path fill-rule="evenodd" clip-rule="evenodd" d="M41.7305 32.6504L28.259 40.4282L44.3246 68.2546C44.5341 68.6175 45.0547 68.6267 45.2769 68.2714L49.4565 61.5879L57.3345 61.3099C57.7533 61.2952 58.0056 60.8397 57.7961 60.4768L41.7305 32.6504Z" fill="white"/>
</mask>
<g mask="url(#mask1_3103_26937)">
<path fill-rule="evenodd" clip-rule="evenodd" d="M46.1406 48.0654L39.4049 51.9543L48.1549 67.1098L54.8906 63.2209L46.1406 48.0654Z" fill="white"/>
</g>
<path style="mix-blend-mode:multiply" opacity="0.2" fill-rule="evenodd" clip-rule="evenodd" d="M33.8868 15.791C34.5745 15.3939 35.4217 15.3939 36.1094 15.791L53.2521 25.6883C53.9398 26.0853 54.3634 26.8191 54.3634 27.6131V47.4078C54.3634 48.2019 53.9398 48.9356 53.2521 49.3326L36.1094 59.23C35.4217 59.627 34.5745 59.627 33.8868 59.23L16.7441 49.3326C16.0564 48.9356 15.6328 48.2019 15.6328 47.4078L15.6328 27.6131C15.6328 26.8191 16.0564 26.0853 16.7441 25.6883L33.8868 15.791Z" fill="#0602F3"/>
<path fill-rule="evenodd" clip-rule="evenodd" d="M52.5061 22.3304C52.5061 22.1032 52.6444 21.8989 52.8554 21.8145L56.91 20.1926C57.129 20.1051 57.3672 20.2663 57.3672 20.5022V36.1614C57.3672 36.3886 57.2289 36.5929 57.0179 36.6773L52.5061 38.482V22.3304Z" fill="url(#paint1_linear_3103_26937)" stroke="url(#paint2_linear_3103_26937)" stroke-width="0.55564" stroke-linecap="round" stroke-linejoin="round"/>
<mask id="mask2_3103_26937" style="mask-type:luminance" maskUnits="userSpaceOnUse" x="52" y="20" width="6" height="19">
<path fill-rule="evenodd" clip-rule="evenodd" d="M52.5061 22.7066C52.5061 22.2522 52.7827 21.8435 53.2046 21.6748L55.8432 20.6194C56.5731 20.3274 57.3672 20.865 57.3672 21.6512V35.7852C57.3672 36.2396 57.0905 36.6482 56.6686 36.817L54.0301 37.8724C53.3001 38.1644 52.5061 37.6268 52.5061 36.8406V22.7066Z" fill="white" stroke="white" stroke-width="0.55564"/>
</mask>
<g mask="url(#mask2_3103_26937)">
<g opacity="0.04">
<path fill-rule="evenodd" clip-rule="evenodd" d="M36.6688 12.1684C35.6373 11.5728 34.3664 11.5728 33.3349 12.1684L15.573 22.4232C14.5415 23.0188 13.9061 24.1194 13.9061 25.3104V45.8202C13.9061 47.0112 14.5415 48.1118 15.573 48.7074L33.3349 58.9622C34.3664 59.5577 35.6373 59.5577 36.6688 58.9622L54.4307 48.7074C55.4622 48.1118 56.0977 47.0112 56.0977 45.8202L56.0977 25.3104C56.0977 24.1194 55.4622 23.0188 54.4307 22.4232L36.6688 12.1684Z" fill="#0602F3" style="mix-blend-mode:multiply"/>
</g>
</g>
<path fill-rule="evenodd" clip-rule="evenodd" d="M17.5017 22.3304C17.5017 22.1032 17.3634 21.8989 17.1525 21.8145L13.0978 20.1926C12.8788 20.1051 12.6406 20.2663 12.6406 20.5022V36.1614C12.6406 36.3886 12.779 36.5929 12.9899 36.6773L17.5017 38.482V22.3304Z" fill="url(#paint3_linear_3103_26937)" stroke="url(#paint4_linear_3103_26937)" stroke-width="0.55564" stroke-linecap="round" stroke-linejoin="round"/>
<mask id="mask3_3103_26937" style="mask-type:luminance" maskUnits="userSpaceOnUse" x="12" y="20" width="6" height="19">
<path fill-rule="evenodd" clip-rule="evenodd" d="M17.5017 22.7066C17.5017 22.2522 17.2251 21.8435 16.8032 21.6748L14.1646 20.6194C13.4347 20.3274 12.6406 20.865 12.6406 21.6512V35.7852C12.6406 36.2396 12.9173 36.6482 13.3392 36.817L15.9777 37.8724C16.7077 38.1644 17.5017 37.6268 17.5017 36.8406V22.7066Z" fill="white" stroke="white" stroke-width="0.55564"/>
</mask>
<g mask="url(#mask3_3103_26937)">
<g opacity="0.04">
<path fill-rule="evenodd" clip-rule="evenodd" d="M33.3351 12.1684C34.3666 11.5728 35.6375 11.5728 36.669 12.1684L54.4309 22.4232C55.4624 23.0188 56.0978 24.1194 56.0978 25.3104V45.8202C56.0978 47.0112 55.4624 48.1118 54.4309 48.7074L36.669 58.9622C35.6375 59.5577 34.3666 59.5577 33.3351 58.9622L15.5732 48.7074C14.5417 48.1118 13.9063 47.0112 13.9063 45.8202L13.9062 25.3104C13.9062 24.1194 14.5417 23.0188 15.5732 22.4232L33.3351 12.1684Z" fill="#0602F3" style="mix-blend-mode:multiply"/>
</g>
</g>
<path fill-rule="evenodd" clip-rule="evenodd" d="M47.6372 16.8733C47.6372 16.4995 47.2754 16.2323 46.9181 16.3422L34.9983 20.0099L23.0784 16.3422C22.7211 16.2323 22.3594 16.4995 22.3594 16.8733V32.0931C22.3594 32.4 22.6081 32.6488 22.915 32.6488H47.0815C47.3884 32.6488 47.6372 32.4 47.6372 32.0931V16.8733Z" fill="url(#paint5_linear_3103_26937)" stroke="url(#paint6_linear_3103_26937)" stroke-width="0.55564" stroke-linecap="round" stroke-linejoin="round"/>
<mask id="mask4_3103_26937" style="mask-type:luminance" maskUnits="userSpaceOnUse" x="22" y="16" width="26" height="9">
<path fill-rule="evenodd" clip-rule="evenodd" d="M47.6372 16.8734C47.6372 16.4996 47.2754 16.2324 46.9181 16.3423L34.9983 20.01L23.0784 16.3423C22.7211 16.2324 22.3594 16.4996 22.3594 16.8734V23.3432C22.3594 23.6501 22.6081 23.8989 22.915 23.8989H47.0815C47.3884 23.8989 47.6372 23.6501 47.6372 23.3432V16.8734Z" fill="white" stroke="white" stroke-width="0.55564" stroke-linecap="round" stroke-linejoin="round"/>
</mask>
<g mask="url(#mask4_3103_26937)">
<g opacity="0.04">
<path fill-rule="evenodd" clip-rule="evenodd" d="M33.3312 12.1684C34.3627 11.5728 35.6336 11.5728 36.6651 12.1684L54.427 22.4232C55.4585 23.0188 56.0939 24.1194 56.0939 25.3104V45.8202C56.0939 47.0112 55.4585 48.1118 54.427 48.7074L36.6651 58.9622C35.6336 59.5577 34.3627 59.5577 33.3312 58.9622L15.5693 48.7074C14.5378 48.1118 13.9023 47.0112 13.9023 45.8202L13.9023 25.3104C13.9023 24.1194 14.5378 23.0188 15.5693 22.4232L33.3312 12.1684Z" fill="#0602F3" style="mix-blend-mode:multiply"/>
</g>
</g>
<path fill-rule="evenodd" clip-rule="evenodd" d="M33.8865 13.8467C34.5742 13.4497 35.4214 13.4497 36.1091 13.8467L53.2518 23.744C53.9395 24.1411 54.3631 24.8748 54.3631 25.6688V45.4635C54.3631 46.2576 53.9395 46.9913 53.2518 47.3883L36.1091 57.2857C35.4214 57.6827 34.5742 57.6827 33.8865 57.2857L16.7438 47.3883C16.0562 46.9913 15.6325 46.2576 15.6325 45.4635V25.6688C15.6325 24.8748 16.0562 24.1411 16.7438 23.744L33.8865 13.8467Z" fill="url(#paint7_linear_3103_26937)" stroke="#CDCDCD" stroke-opacity="0.4" stroke-width="0.55564"/>
<path d="M36.7017 14.7479C35.6488 14.14 34.3517 14.14 33.2989 14.7479L17.8225 23.6832C16.7697 24.291 16.1211 25.4144 16.1211 26.6301L16.1211 44.5007C16.1211 45.7164 16.7697 46.8397 17.8225 47.4476L33.2989 56.3829C34.3517 56.9907 35.6488 56.9907 36.7017 56.3829L52.1781 47.4476C53.2309 46.8397 53.8795 45.7164 53.8795 44.5007V26.6301C53.8795 25.4144 53.2309 24.291 52.1781 23.6832L36.7017 14.7479Z" stroke="#CDCDCD" stroke-width="0.55564"/>
<path opacity="0.4" d="M36.7031 56.3842C38.5233 55.3333 39.813 54.5887 40.5722 54.1504" stroke="white" stroke-width="0.55564" stroke-linecap="round"/>
<path d="M53.8795 44.5007V26.6301C53.8795 25.4144 53.2309 24.291 52.1781 23.6832L36.7017 14.7479C35.6488 14.14 34.3517 14.14 33.2989 14.7479L17.8225 23.6832C16.7697 24.291 16.1211 25.4144 16.1211 26.6301L16.1211 44.5007" stroke="#CDCDCD" stroke-width="0.55564" stroke-linecap="round"/>
<path opacity="0.6" d="M53.8795 26.6301C53.8795 25.4144 53.2309 24.291 52.1781 23.6832L36.7017 14.7479C35.6488 14.14 34.3517 14.14 33.2989 14.7479L17.8225 23.6832C16.7697 24.291 16.1211 25.4144 16.1211 26.6301" stroke="#CDCDCD" stroke-width="0.55564" stroke-linecap="round"/>
<path opacity="0.6" d="M36.6996 14.7479C35.6467 14.14 34.3496 14.14 33.2968 14.7479C33.2968 14.7479 28.138 17.7263 25.5586 19.2155" stroke="white" stroke-width="0.55564" stroke-linecap="round"/>
<path d="M33.2988 14.749C33.2988 14.749 30.5685 16.3253 29.4297 16.9828" stroke="white" stroke-width="0.55564" stroke-linecap="round"/>
<g filter="url(#filter2_d_3103_26937)">
<path fill-rule="evenodd" clip-rule="evenodd" d="M34.4413 20.3306C34.7852 20.1321 35.2088 20.1321 35.5526 20.3306L47.9128 27.4667C48.2567 27.6653 48.4685 28.0321 48.4685 28.4291V42.7015C48.4685 43.0985 48.2567 43.4654 47.9128 43.6639L35.5526 50.8001C35.2088 50.9986 34.7852 50.9986 34.4413 50.8001L22.0811 43.6639C21.7373 43.4654 21.5255 43.0985 21.5255 42.7015V28.4291C21.5255 28.0321 21.7373 27.6653 22.0811 27.4667L34.4413 20.3306Z" fill="url(#paint8_linear_3103_26937)"/>
<path d="M35.6915 20.09C35.2617 19.8418 34.7322 19.8418 34.3024 20.09L21.9422 27.2261C21.5124 27.4743 21.2476 27.9329 21.2476 28.4291V42.7015C21.2476 43.1978 21.5124 43.6564 21.9422 43.9045L34.3024 51.0407C34.7322 51.2888 35.2617 51.2888 35.6915 51.0407L48.0517 43.9045C48.4815 43.6564 48.7463 43.1978 48.7463 42.7015V28.4291C48.7463 27.9329 48.4815 27.4743 48.0517 27.2261L35.6915 20.09Z" stroke="#CDCDCD" stroke-opacity="0.1" stroke-width="0.55564" style="mix-blend-mode:multiply"/>
</g>
<mask id="mask5_3103_26937" style="mask-type:luminance" maskUnits="userSpaceOnUse" x="21" y="20" width="28" height="31">
<path fill-rule="evenodd" clip-rule="evenodd" d="M34.4413 20.3306C34.7852 20.1321 35.2088 20.1321 35.5526 20.3306L47.9128 27.4667C48.2567 27.6653 48.4685 28.0321 48.4685 28.4291V42.7015C48.4685 43.0985 48.2567 43.4654 47.9128 43.6639L35.5526 50.8001C35.2088 50.9986 34.7852 50.9986 34.4413 50.8001L22.0811 43.6639C21.7373 43.4654 21.5255 43.0985 21.5255 42.7015V28.4291C21.5255 28.0321 21.7373 27.6653 22.0811 27.4667L34.4413 20.3306Z" fill="white"/>
</mask>
<g mask="url(#mask5_3103_26937)">
<g style="mix-blend-mode:multiply" opacity="0.3">
<path fill-rule="evenodd" clip-rule="evenodd" d="M34.997 35.5653L19.4414 39.4542V31.6764L34.997 35.5653ZM34.997 35.5653L38.8859 20.0098H31.1081L34.997 35.5653ZM34.997 35.5653L50.5525 31.6764V39.4542L34.997 35.5653ZM34.997 35.5653L43.2465 21.816L48.7463 27.3157L34.997 35.5653ZM34.997 35.5653L43.2465 49.3146L48.7463 43.8149L34.997 35.5653ZM34.997 35.5653L31.1081 51.1209H38.8859L34.997 35.5653ZM34.997 35.5653L26.7474 49.3146L21.2477 43.8149L34.997 35.5653Z" fill="#CDCDCD"/>
<path d="M26.7474 21.816L21.2477 27.3157L34.997 35.5653L26.7474 21.816Z" fill="#CDCDCD"/>
</g>
<path opacity="0.4" d="M47.2546 27.6474L35.7276 20.9923C35.2764 20.7317 34.7205 20.7317 34.2692 20.9923C32.9136 21.775 31.953 22.3296 31.3875 22.656C30.2106 23.3355 29.25 23.8901 28.5057 24.3198C27.2249 25.0593 25.3038 26.1685 22.7422 27.6474" stroke="white" stroke-width="0.55564" stroke-linecap="round"/>
<path opacity="0.4" d="M47.2549 43.4503L35.7279 50.1054C35.2767 50.3659 34.7207 50.3659 34.2695 50.1054" stroke="white" stroke-width="0.55564" stroke-linecap="round"/>
<path d="M34.2685 20.9912C32.9128 21.7739 31.9522 22.3285 31.3867 22.655" stroke="white" stroke-width="0.55564" stroke-linecap="round"/>
</g>
<g filter="url(#filter3_d_3103_26937)">
<path d="M32.5232 32.1528L35.0026 28.5352L37.4819 32.1528L41.6887 33.3929L39.0142 36.8689L39.1348 41.253L35.0026 39.7835L30.8703 41.253L30.9909 36.8689L28.3164 33.3929L32.5232 32.1528Z" fill="white"/>
<path d="M35.4609 28.221C35.3573 28.0699 35.1858 27.9795 35.0026 27.9795C34.8193 27.9795 34.6478 28.0699 34.5442 28.221L32.1766 31.6757L28.1593 32.86C27.9835 32.9118 27.8446 33.0469 27.788 33.2212C27.7313 33.3955 27.7643 33.5865 27.876 33.7318L30.43 37.0511L30.3149 41.2377C30.3098 41.4209 30.3954 41.5948 30.5437 41.7025C30.6919 41.8102 30.8838 41.8379 31.0565 41.7765L35.0026 40.3733L38.9486 41.7765C39.1213 41.8379 39.3132 41.8102 39.4614 41.7025C39.6097 41.5948 39.6953 41.4209 39.6902 41.2377L39.5751 37.0511L42.1291 33.7318C42.2408 33.5865 42.2738 33.3955 42.2171 33.2212C42.1605 33.0469 42.0216 32.9118 41.8458 32.86L37.8285 31.6757L35.4609 28.221Z" stroke="white" stroke-width="1.11128" stroke-linejoin="round"/>
</g>
<path d="M32.5232 32.1528L35.0026 28.5352L37.4819 32.1528L41.6887 33.3929L39.0142 36.8689L39.1348 41.253L35.0026 39.7835L30.8703 41.253L30.9909 36.8689L28.3164 33.3929L32.5232 32.1528Z" fill="url(#paint9_linear_3103_26937)"/>
<path opacity="0.4" d="M35.0045 35.5654V28.5352L32.4922 32.1031L35.0045 35.5654Z" fill="url(#paint10_linear_3103_26937)"/>
<path opacity="0.8" d="M35.0026 35.5649L32.4902 32.1025L28.3164 33.3924L35.0026 35.5649Z" fill="url(#paint11_linear_3103_26937)"/>
<path opacity="0.5" d="M34.9995 35.5645L30.9315 36.8879L30.8672 41.252L34.9995 35.5645Z" fill="url(#paint12_linear_3103_26937)"/>
<path opacity="0.4" d="M39.1323 41.252L39.0679 36.8879L35 35.5645L39.1323 41.252Z" fill="url(#paint13_linear_3103_26937)"/>
<path d="M39.0679 36.8885L41.6861 33.3926L35 35.565L39.0679 36.8885Z" fill="#CDCDCD"/>
<path opacity="0.6" d="M41.6861 33.3924L37.5123 32.1025L35 35.5649L41.6861 33.3924Z" fill="url(#paint14_linear_3103_26937)"/>
<g filter="url(#filter4_d_3103_26937)">
<path fill-rule="evenodd" clip-rule="evenodd" d="M45.6043 29.5197L45.0994 29.3205C44.7906 29.1987 44.639 28.8497 44.7608 28.5409C44.8219 28.386 44.9445 28.2634 45.0994 28.2023L45.6043 28.0031C46.1866 27.7735 46.6475 27.3126 46.8771 26.7303L47.0763 26.2254C47.1981 25.9166 47.5471 25.765 47.8559 25.8868C48.0108 25.9479 48.1335 26.0705 48.1946 26.2254L48.3937 26.7303C48.6233 27.3126 49.0842 27.7735 49.6665 28.0031L50.1714 28.2023C50.4802 28.324 50.6318 28.6731 50.51 28.9819C50.4489 29.1368 50.3263 29.2594 50.1714 29.3205L49.6665 29.5197C49.0842 29.7493 48.6233 30.2102 48.3937 30.7925L48.1946 31.2974C48.0728 31.6062 47.7237 31.7578 47.4149 31.636C47.26 31.5749 47.1374 31.4523 47.0763 31.2974L46.8771 30.7925C46.6475 30.2102 46.1866 29.7493 45.6043 29.5197Z" fill="white"/>
</g>
<g filter="url(#filter5_d_3103_26937)">
<path fill-rule="evenodd" clip-rule="evenodd" d="M23.9224 45.7947L23.5858 45.6619C23.38 45.5807 23.2789 45.348 23.3601 45.1422C23.4008 45.0389 23.4826 44.9571 23.5858 44.9164L23.9224 44.7837C24.3106 44.6306 24.6179 44.3233 24.771 43.9351L24.9037 43.5985C24.9849 43.3927 25.2176 43.2916 25.4235 43.3728C25.5268 43.4135 25.6085 43.4953 25.6492 43.5985L25.782 43.9351C25.9351 44.3233 26.2423 44.6306 26.6305 44.7837L26.9671 44.9164C27.173 44.9976 27.2741 45.2303 27.1929 45.4362C27.1521 45.5395 27.0704 45.6212 26.9671 45.6619L26.6305 45.7947C26.2423 45.9478 25.9351 46.255 25.782 46.6432L25.6492 46.9798C25.568 47.1857 25.3353 47.2868 25.1295 47.2056C25.0262 47.1648 24.9444 47.0831 24.9037 46.9798L24.771 46.6432C24.6179 46.255 24.3106 45.9478 23.9224 45.7947Z" fill="white"/>
</g>
<g filter="url(#filter6_d_3103_26937)">
<path fill-rule="evenodd" clip-rule="evenodd" d="M20.1794 30.8515L19.7586 30.6856C19.5013 30.5841 19.375 30.2932 19.4765 30.0359C19.5274 29.9068 19.6296 29.8046 19.7586 29.7537L20.1794 29.5877C20.6646 29.3964 21.0487 29.0123 21.2401 28.5271L21.406 28.1063C21.5075 27.849 21.7984 27.7226 22.0557 27.8241C22.1848 27.875 22.287 27.9772 22.3379 28.1063L22.5039 28.5271C22.6952 29.0123 23.0793 29.3964 23.5645 29.5877L23.9853 29.7537C24.2426 29.8552 24.3689 30.146 24.2675 30.4034C24.2165 30.5325 24.1144 30.6347 23.9853 30.6856L23.5645 30.8515C23.0793 31.0429 22.6952 31.427 22.5039 31.9122L22.3379 32.3329C22.2364 32.5903 21.9455 32.7166 21.6882 32.6151C21.5591 32.5642 21.4569 32.462 21.406 32.3329L21.2401 31.9122C21.0487 31.427 20.6646 31.0429 20.1794 30.8515Z" fill="white"/>
</g>
<g filter="url(#filter7_d_3103_26937)">
<path fill-rule="evenodd" clip-rule="evenodd" d="M45.1615 45.1822L44.9091 45.0826C44.7547 45.0217 44.6789 44.8472 44.7398 44.6928C44.7703 44.6153 44.8316 44.554 44.9091 44.5235L45.1615 44.4239C45.4527 44.3091 45.6831 44.0787 45.7979 43.7875L45.8975 43.5351C45.9584 43.3807 46.1329 43.3049 46.2873 43.3658C46.3648 43.3963 46.4261 43.4576 46.4567 43.5351L46.5562 43.7875C46.671 44.0787 46.9015 44.3091 47.1926 44.4239L47.4451 44.5235C47.5995 44.5844 47.6753 44.7589 47.6144 44.9133C47.5838 44.9908 47.5225 45.0521 47.4451 45.0826L47.1926 45.1822C46.9015 45.297 46.671 45.5275 46.5562 45.8186L46.4567 46.071C46.3958 46.2254 46.2212 46.3012 46.0668 46.2404C45.9894 46.2098 45.9281 46.1485 45.8975 46.071L45.7979 45.8186C45.6831 45.5275 45.4527 45.297 45.1615 45.1822Z" fill="white"/>
</g>
<defs>
<filter id="filter0_d_3103_26937" x="11.0137" y="32.6504" width="31.8358" height="38.1044" filterUnits="userSpaceOnUse" color-interpolation-filters="sRGB">
<feFlood flood-opacity="0" result="BackgroundImageFix"/>
<feColorMatrix in="SourceAlpha" type="matrix" values="0 0 0 0 0 0 0 0 0 0 0 0 0 0 0 0 0 0 127 0" result="hardAlpha"/>
<feOffset dy="1.11128"/>
<feGaussianBlur stdDeviation="0.55564"/>
<feColorMatrix type="matrix" values="0 0 0 0 0.401412 0 0 0 0 0.333333 0 0 0 0 0.819608 0 0 0 0.2 0"/>
<feBlend mode="darken" in2="BackgroundImageFix" result="effect1_dropShadow_3103_26937"/>
<feBlend mode="normal" in="SourceGraphic" in2="effect1_dropShadow_3103_26937" result="shape"/>
</filter>
<filter id="filter1_d_3103_26937" x="27.1465" y="32.6504" width="31.8358" height="38.1044" filterUnits="userSpaceOnUse" color-interpolation-filters="sRGB">
<feFlood flood-opacity="0" result="BackgroundImageFix"/>
<feColorMatrix in="SourceAlpha" type="matrix" values="0 0 0 0 0 0 0 0 0 0 0 0 0 0 0 0 0 0 127 0" result="hardAlpha"/>
<feOffset dy="1.11128"/>
<feGaussianBlur stdDeviation="0.55564"/>
<feColorMatrix type="matrix" values="0 0 0 0 0.401412 0 0 0 0 0.333333 0 0 0 0 0.819608 0 0 0 0.2 0"/>
<feBlend mode="darken" in2="BackgroundImageFix" result="effect1_dropShadow_3103_26937"/>
<feBlend mode="normal" in="SourceGraphic" in2="effect1_dropShadow_3103_26937" result="shape"/>
</filter>
<filter id="filter2_d_3103_26937" x="19.8575" y="19.0703" width="30.2772" height="34.1015" filterUnits="userSpaceOnUse" color-interpolation-filters="sRGB">
<feFlood flood-opacity="0" result="BackgroundImageFix"/>
<feColorMatrix in="SourceAlpha" type="matrix" values="0 0 0 0 0 0 0 0 0 0 0 0 0 0 0 0 0 0 127 0" result="hardAlpha"/>
<feOffset dy="0.55564"/>
<feGaussianBlur stdDeviation="0.55564"/>
<feColorMatrix type="matrix" values="0 0 0 0 1 0 0 0 0 1 0 0 0 0 1 0 0 0 0.4 0"/>
<feBlend mode="normal" in2="BackgroundImageFix" result="effect1_dropShadow_3103_26937"/>
<feBlend mode="normal" in="SourceGraphic" in2="effect1_dropShadow_3103_26937" result="shape"/>
</filter>
<filter id="filter3_d_3103_26937" x="26.0958" y="26.8682" width="17.8163" height="17.163" filterUnits="userSpaceOnUse" color-interpolation-filters="sRGB">
<feFlood flood-opacity="0" result="BackgroundImageFix"/>
<feColorMatrix in="SourceAlpha" type="matrix" values="0 0 0 0 0 0 0 0 0 0 0 0 0 0 0 0 0 0 127 0" result="hardAlpha"/>
<feOffset dy="0.55564"/>
<feGaussianBlur stdDeviation="0.55564"/>
<feColorMatrix type="matrix" values="0 0 0 0 1 0 0 0 0 1 0 0 0 0 1 0 0 0 1 0"/>
<feBlend mode="normal" in2="BackgroundImageFix" result="effect1_dropShadow_3103_26937"/>
<feBlend mode="normal" in="SourceGraphic" in2="effect1_dropShadow_3103_26937" result="shape"/>
</filter>
<filter id="filter4_d_3103_26937" x="43.6075" y="24.7334" width="8.05459" height="8.05557" filterUnits="userSpaceOnUse" color-interpolation-filters="sRGB">
<feFlood flood-opacity="0" result="BackgroundImageFix"/>
<feColorMatrix in="SourceAlpha" type="matrix" values="0 0 0 0 0 0 0 0 0 0 0 0 0 0 0 0 0 0 127 0" result="hardAlpha"/>
<feOffset/>
<feGaussianBlur stdDeviation="0.55564"/>
<feColorMatrix type="matrix" values="0 0 0 0 1 0 0 0 0 1 0 0 0 0 1 0 0 0 1 0"/>
<feBlend mode="normal" in2="BackgroundImageFix" result="effect1_dropShadow_3103_26937"/>
<feBlend mode="normal" in="SourceGraphic" in2="effect1_dropShadow_3103_26937" result="shape"/>
</filter>
<filter id="filter5_d_3103_26937" x="22.2208" y="42.2334" width="6.11319" height="6.11123" filterUnits="userSpaceOnUse" color-interpolation-filters="sRGB">
<feFlood flood-opacity="0" result="BackgroundImageFix"/>
<feColorMatrix in="SourceAlpha" type="matrix" values="0 0 0 0 0 0 0 0 0 0 0 0 0 0 0 0 0 0 127 0" result="hardAlpha"/>
<feOffset/>
<feGaussianBlur stdDeviation="0.55564"/>
<feColorMatrix type="matrix" values="0 0 0 0 1 0 0 0 0 1 0 0 0 0 1 0 0 0 1 0"/>
<feBlend mode="normal" in2="BackgroundImageFix" result="effect1_dropShadow_3103_26937"/>
<feBlend mode="normal" in="SourceGraphic" in2="effect1_dropShadow_3103_26937" result="shape"/>
</filter>
<filter id="filter6_d_3103_26937" x="18.3301" y="26.6778" width="7.08194" height="7.08389" filterUnits="userSpaceOnUse" color-interpolation-filters="sRGB">
<feFlood flood-opacity="0" result="BackgroundImageFix"/>
<feColorMatrix in="SourceAlpha" type="matrix" values="0 0 0 0 0 0 0 0 0 0 0 0 0 0 0 0 0 0 127 0" result="hardAlpha"/>
<feOffset/>
<feGaussianBlur stdDeviation="0.55564"/>
<feColorMatrix type="matrix" values="0 0 0 0 1 0 0 0 0 1 0 0 0 0 1 0 0 0 1 0"/>
<feBlend mode="normal" in2="BackgroundImageFix" result="effect1_dropShadow_3103_26937"/>
<feBlend mode="normal" in="SourceGraphic" in2="effect1_dropShadow_3103_26937" result="shape"/>
</filter>
<filter id="filter7_d_3103_26937" x="43.6075" y="42.2334" width="5.14053" height="5.13955" filterUnits="userSpaceOnUse" color-interpolation-filters="sRGB">
<feFlood flood-opacity="0" result="BackgroundImageFix"/>
<feColorMatrix in="SourceAlpha" type="matrix" values="0 0 0 0 0 0 0 0 0 0 0 0 0 0 0 0 0 0 127 0" result="hardAlpha"/>
<feOffset/>
<feGaussianBlur stdDeviation="0.55564"/>
<feColorMatrix type="matrix" values="0 0 0 0 1 0 0 0 0 1 0 0 0 0 1 0 0 0 1 0"/>
<feBlend mode="normal" in2="BackgroundImageFix" result="effect1_dropShadow_3103_26937"/>
<feBlend mode="normal" in="SourceGraphic" in2="effect1_dropShadow_3103_26937" result="shape"/>
</filter>
<linearGradient id="paint0_linear_3103_26937" x1="4.86328" y1="6.39941" x2="4.86328" y2="64.7327" gradientUnits="userSpaceOnUse">
<stop stop-color="#6F61EC"/>
<stop offset="1" stop-color="#3D2CD4"/>
</linearGradient>
<linearGradient id="paint1_linear_3103_26937" x1="57.3672" y1="20.0098" x2="57.3672" y2="38.482" gradientUnits="userSpaceOnUse">
<stop stop-color="#CDCDCD"/>
<stop offset="1" stop-color="#A4A4A4"/>
</linearGradient>
<linearGradient id="paint2_linear_3103_26937" x1="57.3672" y1="20.0098" x2="57.3672" y2="38.482" gradientUnits="userSpaceOnUse">
<stop stop-color="#CDCDCD"/>
<stop offset="1" stop-color="#F0F0F0"/>
</linearGradient>
<linearGradient id="paint3_linear_3103_26937" x1="12.6406" y1="20.0098" x2="12.6406" y2="38.482" gradientUnits="userSpaceOnUse">
<stop stop-color="#CDCDCD"/>
<stop offset="1" stop-color="#A4A4A4"/>
</linearGradient>
<linearGradient id="paint4_linear_3103_26937" x1="12.6406" y1="20.0098" x2="12.6406" y2="38.482" gradientUnits="userSpaceOnUse">
<stop stop-color="#CDCDCD"/>
<stop offset="1" stop-color="#F0F0F0"/>
</linearGradient>
<linearGradient id="paint5_linear_3103_26937" x1="22.3594" y1="16.4648" x2="22.3594" y2="32.6488" gradientUnits="userSpaceOnUse">
<stop stop-color="#CDCDCD"/>
<stop offset="1" stop-color="#A4A4A4"/>
</linearGradient>
<linearGradient id="paint6_linear_3103_26937" x1="22.3594" y1="16.4648" x2="22.3594" y2="32.6488" gradientUnits="userSpaceOnUse">
<stop stop-color="#CDCDCD"/>
<stop offset="1" stop-color="#F0F0F0"/>
</linearGradient>
<linearGradient id="paint7_linear_3103_26937" x1="12.6367" y1="13.2051" x2="12.6367" y2="57.9273" gradientUnits="userSpaceOnUse">
<stop stop-color="#CDCDCD"/>
<stop offset="1" stop-color="#CFCFCF"/>
</linearGradient>
<linearGradient id="paint8_linear_3103_26937" x1="19.4414" y1="20.0098" x2="19.4414" y2="51.1209" gradientUnits="userSpaceOnUse">
<stop stop-color="#CDCDCD"/>
<stop offset="1" stop-color="#848484"/>
</linearGradient>
<linearGradient id="paint9_linear_3103_26937" x1="27.9723" y1="28.5352" x2="27.9723" y2="42.5956" gradientUnits="userSpaceOnUse">
<stop stop-color="#CDCDCD"/>
<stop offset="1" stop-color="#8A8A8A"/>
</linearGradient>
<linearGradient id="paint10_linear_3103_26937" x1="32.4922" y1="26.7776" x2="28.335" y2="29.7488" gradientUnits="userSpaceOnUse">
<stop stop-color="#CDCDCD" stop-opacity="0.467505"/>
<stop offset="1" stop-color="#919191"/>
</linearGradient>
<linearGradient id="paint11_linear_3103_26937" x1="28.3587" y1="32.9572" x2="32.2764" y2="37.7796" gradientUnits="userSpaceOnUse">
<stop stop-color="#CDCDCD" stop-opacity="0.8"/>
<stop offset="1" stop-color="white"/>
</linearGradient>
<linearGradient id="paint12_linear_3103_26937" x1="32.9333" y1="42.6739" x2="36.2535" y2="37.8494" gradientUnits="userSpaceOnUse">
<stop stop-color="#CDCDCD" stop-opacity="0.01"/>
<stop offset="1" stop-color="#7D7D7D"/>
</linearGradient>
<linearGradient id="paint13_linear_3103_26937" x1="35" y1="34.1426" x2="31.6798" y2="38.9671" gradientUnits="userSpaceOnUse">
<stop stop-color="#CDCDCD" stop-opacity="0.467505"/>
<stop offset="1" stop-color="#5D5D5D"/>
</linearGradient>
<linearGradient id="paint14_linear_3103_26937" x1="35" y1="31.237" x2="33.9498" y2="35.2929" gradientUnits="userSpaceOnUse">
<stop stop-color="#CDCDCD" stop-opacity="0.467505"/>
<stop offset="1" stop-color="#919191"/>
</linearGradient>
</defs>
</svg>
