<svg width="73" height="72" viewBox="0 0 73 72" fill="none" xmlns="http://www.w3.org/2000/svg">
<rect x="0.333984" width="72" height="72" rx="36" fill="#FAFAFA"/>
<path d="M27.3342 19C24.2222 19.094 22.3682 19.44 21.0842 20.724C19.3262 22.484 19.3262 25.314 19.3262 30.976V43.988C19.3262 49.652 19.3262 52.482 21.0842 54.242C22.8402 56 25.6702 56 31.3262 56H41.3262C46.9842 56 49.8122 56 51.5682 54.24C53.3282 52.482 53.3282 49.652 53.3282 43.988V30.976C53.3282 25.316 53.3282 22.484 51.5682 20.724C50.2862 19.44 48.4302 19.094 45.3182 19" stroke="#635AD9" stroke-width="3.5" stroke-linecap="round" stroke-linejoin="round"/>
<path d="M39.334 34H46.334M26.334 36C26.334 36 27.334 36 28.334 38C28.334 38 31.51 33 34.334 32M39.334 46H46.334M28.334 46H30.334M27.326 19.5C27.326 17.568 28.894 16 30.826 16H41.826C42.7542 16 43.6445 16.3687 44.3009 17.0251C44.9572 17.6815 45.326 18.5717 45.326 19.5C45.326 20.4283 44.9572 21.3185 44.3009 21.9749C43.6445 22.6313 42.7542 23 41.826 23H30.826C29.8977 23 29.0075 22.6313 28.3511 21.9749C27.6947 21.3185 27.326 20.4283 27.326 19.5Z" stroke="#635AD9" stroke-width="3.5" stroke-linecap="round" stroke-linejoin="round"/>
</svg>
