<svg width="71" height="71" viewBox="0 0 71 71" fill="none" xmlns="http://www.w3.org/2000/svg">
<path fill-rule="evenodd" clip-rule="evenodd" d="M52.1862 60.8439C53.2601 60.8439 54.1306 61.7144 54.1306 62.7883C54.1306 63.8622 53.2601 64.7327 52.1862 64.7327H34.6862C34.5719 64.7327 34.4599 64.7229 34.351 64.704C28.1047 64.4284 22.3689 62.1883 17.7463 58.5863C17.3704 58.2933 16.8038 57.8077 16.3839 57.4423C16.0248 57.1299 15.5658 56.955 15.0897 56.955H10.3806C9.30676 56.955 8.4362 56.0844 8.4362 55.0105C8.4362 53.9366 9.30676 53.0661 10.3806 53.0661H12.3251C13.399 53.0661 14.2695 52.1955 14.2695 51.1216C14.2695 50.0477 13.399 49.1772 12.3251 49.1772H7.46398C6.39009 49.1772 5.51953 48.3066 5.51953 47.2327C5.51953 46.1589 6.39009 45.2883 7.46398 45.2883H8.4362C9.51008 45.2883 10.3806 44.4177 10.3806 43.3439C10.3806 42.27 9.51008 41.3994 8.4362 41.3994C7.64996 41.3994 6.97749 40.8327 6.84667 40.0574C6.79914 39.7757 6.76139 39.5489 6.75516 39.5028C6.58146 38.2153 6.49175 36.9012 6.49175 35.5661C6.49175 19.4578 19.5501 6.39941 35.6584 6.39941C40.5195 6.39941 45.3806 6.39941 50.2418 6.39941C51.3156 6.39941 52.1862 7.26997 52.1862 8.34386C52.1862 9.41775 51.3156 10.2883 50.2418 10.2883H47.3251C46.2512 10.2883 45.3806 11.1589 45.3806 12.2327C45.3806 13.3066 46.2512 14.1772 47.3251 14.1772H58.9918C60.0656 14.1772 60.9362 15.0477 60.9362 16.1216C60.9362 17.1948 60.0668 18.0649 58.9939 18.0661H56.0751C55.0012 18.0661 54.1306 18.9366 54.1306 20.0105C54.1306 21.0844 55.0012 21.955 56.0751 21.955H60.2615C60.9968 21.955 61.6708 22.369 61.9896 23.0317C62.1813 23.4299 62.3828 23.8595 62.5148 24.17C64.0022 27.671 64.8251 31.5224 64.8251 35.5661C64.8251 36.8366 64.7438 38.0882 64.5863 39.3159C64.5598 39.5223 64.5191 39.7872 64.4749 40.0585C64.348 40.8368 63.6692 41.3994 62.8806 41.3994C61.8068 41.3994 60.9362 42.27 60.9362 43.3439C60.9362 44.4177 61.8068 45.2883 62.8806 45.2883H63.8529C64.9268 45.2883 65.7973 46.1589 65.7973 47.2327C65.7973 48.3066 64.9268 49.1772 63.8529 49.1772H62.6047C61.8988 49.1772 61.2497 49.5604 60.897 50.172C60.6679 50.5691 60.4133 51.0012 60.2241 51.2961C59.7806 51.9872 59.3087 52.6585 58.8101 53.3081C58.3093 53.9606 57.7816 54.5913 57.2286 55.1986C56.9251 55.5318 56.4333 56.0256 56.0498 56.4047C55.691 56.7595 55.206 56.955 54.7015 56.955H49.2695C48.1956 56.955 47.3251 57.8255 47.3251 58.8994C47.3251 59.9658 48.1835 60.8317 49.2471 60.8437L52.1862 60.8439Z" fill="#1B5C35"/>
<path fill-rule="evenodd" clip-rule="evenodd" d="M52.1862 60.8439C53.2601 60.8439 54.1306 61.7144 54.1306 62.7883C54.1306 63.8622 53.2601 64.7327 52.1862 64.7327H34.6862C34.5719 64.7327 34.4599 64.7229 34.351 64.704C28.1047 64.4284 22.3689 62.1883 17.7463 58.5863C17.3704 58.2933 16.8038 57.8077 16.3839 57.4423C16.0248 57.1299 15.5658 56.955 15.0897 56.955H10.3806C9.30676 56.955 8.4362 56.0844 8.4362 55.0105C8.4362 53.9366 9.30676 53.0661 10.3806 53.0661H12.3251C13.399 53.0661 14.2695 52.1955 14.2695 51.1216C14.2695 50.0477 13.399 49.1772 12.3251 49.1772H7.46398C6.39009 49.1772 5.51953 48.3066 5.51953 47.2327C5.51953 46.1589 6.39009 45.2883 7.46398 45.2883H8.4362C9.51008 45.2883 10.3806 44.4177 10.3806 43.3439C10.3806 42.27 9.51008 41.3994 8.4362 41.3994C7.64996 41.3994 6.97749 40.8327 6.84667 40.0574C6.79914 39.7757 6.76139 39.5489 6.75516 39.5028C6.58146 38.2153 6.49175 36.9012 6.49175 35.5661C6.49175 19.4578 19.5501 6.39941 35.6584 6.39941C40.5195 6.39941 45.3806 6.39941 50.2418 6.39941C51.3156 6.39941 52.1862 7.26997 52.1862 8.34386C52.1862 9.41775 51.3156 10.2883 50.2418 10.2883H47.3251C46.2512 10.2883 45.3806 11.1589 45.3806 12.2327C45.3806 13.3066 46.2512 14.1772 47.3251 14.1772H58.9918C60.0656 14.1772 60.9362 15.0477 60.9362 16.1216C60.9362 17.1948 60.0668 18.0649 58.9939 18.0661H56.0751C55.0012 18.0661 54.1306 18.9366 54.1306 20.0105C54.1306 21.0844 55.0012 21.955 56.0751 21.955H60.2615C60.9968 21.955 61.6708 22.369 61.9896 23.0317C62.1813 23.4299 62.3828 23.8595 62.5148 24.17C64.0022 27.671 64.8251 31.5224 64.8251 35.5661C64.8251 36.8366 64.7438 38.0882 64.5863 39.3159C64.5598 39.5223 64.5191 39.7872 64.4749 40.0585C64.348 40.8368 63.6692 41.3994 62.8806 41.3994C61.8068 41.3994 60.9362 42.27 60.9362 43.3439C60.9362 44.4177 61.8068 45.2883 62.8806 45.2883H63.8529C64.9268 45.2883 65.7973 46.1589 65.7973 47.2327C65.7973 48.3066 64.9268 49.1772 63.8529 49.1772H62.6047C61.8988 49.1772 61.2497 49.5604 60.897 50.172C60.6679 50.5691 60.4133 51.0012 60.2241 51.2961C59.7806 51.9872 59.3087 52.6585 58.8101 53.3081C58.3093 53.9606 57.7816 54.5913 57.2286 55.1986C56.9251 55.5318 56.4333 56.0256 56.0498 56.4047C55.691 56.7595 55.206 56.955 54.7015 56.955H49.2695C48.1956 56.955 47.3251 57.8255 47.3251 58.8994C47.3251 59.9658 48.1835 60.8317 49.2471 60.8437L52.1862 60.8439Z" fill="url(#paint0_linear_3103_27055)"/>
<g opacity="0.1">
<path fill-rule="evenodd" clip-rule="evenodd" d="M33.9875 12.1694C35.019 11.5738 36.2898 11.5738 37.3213 12.1694L55.0832 22.4242C56.1147 23.0197 56.7502 24.1203 56.7502 25.3114V45.8211C56.7502 47.0122 56.1147 48.1128 55.0832 48.7083L37.3213 58.9632C36.2898 59.5587 35.019 59.5587 33.9875 58.9632L16.2255 48.7083C15.194 48.1128 14.5586 47.0122 14.5586 45.8211L14.5586 25.3114C14.5586 24.1203 15.194 23.0198 16.2255 22.4242L33.9875 12.1694Z" fill="#0602F3" style="mix-blend-mode:multiply"/>
</g>
<g filter="url(#filter0_d_3103_27055)">
<path fill-rule="evenodd" clip-rule="evenodd" d="M28.9219 32.6504L42.3934 40.4282L26.3278 68.2546C26.1183 68.6175 25.5977 68.6267 25.3755 68.2714L21.1958 61.5879L13.3179 61.3099C12.8991 61.2952 12.6467 60.8397 12.8563 60.4768L28.9219 32.6504Z" fill="#F55462"/>
</g>
<mask id="mask0_3103_27055" style="mask-type:luminance" maskUnits="userSpaceOnUse" x="12" y="32" width="31" height="37">
<path fill-rule="evenodd" clip-rule="evenodd" d="M28.9219 32.6504L42.3934 40.4282L26.3278 68.2546C26.1183 68.6175 25.5977 68.6267 25.3755 68.2714L21.1958 61.5879L13.3179 61.3099C12.8991 61.2952 12.6467 60.8397 12.8563 60.4768L28.9219 32.6504Z" fill="white"/>
</mask>
<g mask="url(#mask0_3103_27055)">
<path fill-rule="evenodd" clip-rule="evenodd" d="M24.5117 48.0654L31.2475 51.9543L22.4975 67.1098L15.7617 63.2209L24.5117 48.0654Z" fill="white"/>
</g>
<g filter="url(#filter1_d_3103_27055)">
<path fill-rule="evenodd" clip-rule="evenodd" d="M42.3867 32.6504L28.9152 40.4282L44.9808 68.2546C45.1903 68.6175 45.7109 68.6267 45.9331 68.2714L50.1128 61.5879L57.9907 61.3099C58.4095 61.2952 58.6618 60.8397 58.4523 60.4768L42.3867 32.6504Z" fill="#F55462"/>
</g>
<mask id="mask1_3103_27055" style="mask-type:luminance" maskUnits="userSpaceOnUse" x="28" y="32" width="31" height="37">
<path fill-rule="evenodd" clip-rule="evenodd" d="M42.3867 32.6504L28.9152 40.4282L44.9808 68.2546C45.1903 68.6175 45.7109 68.6267 45.9331 68.2714L50.1128 61.5879L57.9907 61.3099C58.4095 61.2952 58.6618 60.8397 58.4523 60.4768L42.3867 32.6504Z" fill="white"/>
</mask>
<g mask="url(#mask1_3103_27055)">
<path fill-rule="evenodd" clip-rule="evenodd" d="M46.7969 48.0654L40.0611 51.9543L48.8111 67.1098L55.5469 63.2209L46.7969 48.0654Z" fill="white"/>
</g>
<path style="mix-blend-mode:multiply" opacity="0.2" fill-rule="evenodd" clip-rule="evenodd" d="M34.5431 15.791C35.2307 15.3939 36.078 15.3939 36.7656 15.791L53.9084 25.6883C54.596 26.0853 55.0196 26.8191 55.0196 27.6131V47.4078C55.0196 48.2019 54.596 48.9356 53.9084 49.3326L36.7656 59.23C36.078 59.627 35.2307 59.627 34.5431 59.23L17.4003 49.3326C16.7127 48.9356 16.2891 48.2019 16.2891 47.4078L16.2891 27.6131C16.2891 26.8191 16.7127 26.0853 17.4003 25.6883L34.5431 15.791Z" fill="#0602F3"/>
<path fill-rule="evenodd" clip-rule="evenodd" d="M53.1623 22.3304C53.1623 22.1032 53.3007 21.8989 53.5116 21.8145L57.5662 20.1926C57.7852 20.1051 58.0234 20.2663 58.0234 20.5022V36.1614C58.0234 36.3886 57.8851 36.5929 57.6742 36.6773L53.1623 38.482V22.3304Z" fill="url(#paint1_linear_3103_27055)" stroke="url(#paint2_linear_3103_27055)" stroke-width="0.55564" stroke-linecap="round" stroke-linejoin="round"/>
<mask id="mask2_3103_27055" style="mask-type:luminance" maskUnits="userSpaceOnUse" x="52" y="20" width="7" height="19">
<path fill-rule="evenodd" clip-rule="evenodd" d="M53.1623 22.7066C53.1623 22.2522 53.439 21.8435 53.8609 21.6748L56.4994 20.6194C57.2294 20.3274 58.0234 20.865 58.0234 21.6512V35.7852C58.0234 36.2396 57.7468 36.6482 57.3249 36.817L54.6863 37.8724C53.9564 38.1644 53.1623 37.6268 53.1623 36.8406V22.7066Z" fill="white" stroke="white" stroke-width="0.55564"/>
</mask>
<g mask="url(#mask2_3103_27055)">
<g opacity="0.04">
<path fill-rule="evenodd" clip-rule="evenodd" d="M37.325 12.1684C36.2935 11.5728 35.0227 11.5728 33.9912 12.1684L16.2293 22.4232C15.1978 23.0188 14.5623 24.1194 14.5623 25.3104V45.8202C14.5623 47.0112 15.1978 48.1118 16.2293 48.7074L33.9912 58.9622C35.0227 59.5577 36.2935 59.5577 37.325 58.9622L55.087 48.7074C56.1185 48.1118 56.7539 47.0112 56.7539 45.8202L56.7539 25.3104C56.7539 24.1194 56.1185 23.0188 55.087 22.4232L37.325 12.1684Z" fill="#0602F3" style="mix-blend-mode:multiply"/>
</g>
</g>
<path fill-rule="evenodd" clip-rule="evenodd" d="M18.158 22.3304C18.158 22.1032 18.0197 21.8989 17.8087 21.8145L13.7541 20.1926C13.5351 20.1051 13.2969 20.2663 13.2969 20.5022V36.1614C13.2969 36.3886 13.4352 36.5929 13.6462 36.6773L18.158 38.482V22.3304Z" fill="url(#paint3_linear_3103_27055)" stroke="url(#paint4_linear_3103_27055)" stroke-width="0.55564" stroke-linecap="round" stroke-linejoin="round"/>
<mask id="mask3_3103_27055" style="mask-type:luminance" maskUnits="userSpaceOnUse" x="13" y="20" width="6" height="19">
<path fill-rule="evenodd" clip-rule="evenodd" d="M18.158 22.7066C18.158 22.2522 17.8813 21.8435 17.4594 21.6748L14.8209 20.6194C14.0909 20.3274 13.2969 20.865 13.2969 21.6512V35.7852C13.2969 36.2396 13.5735 36.6482 13.9954 36.817L16.634 37.8724C17.3639 38.1644 18.158 37.6268 18.158 36.8406V22.7066Z" fill="white" stroke="white" stroke-width="0.55564"/>
</mask>
<g mask="url(#mask3_3103_27055)">
<g opacity="0.04">
<path fill-rule="evenodd" clip-rule="evenodd" d="M33.9914 12.1684C35.0229 11.5728 36.2937 11.5728 37.3252 12.1684L55.0872 22.4232C56.1186 23.0188 56.7541 24.1194 56.7541 25.3104V45.8202C56.7541 47.0112 56.1186 48.1118 55.0872 48.7074L37.3252 58.9622C36.2937 59.5577 35.0229 59.5577 33.9914 58.9622L16.2294 48.7074C15.1979 48.1118 14.5625 47.0112 14.5625 45.8202L14.5625 25.3104C14.5625 24.1194 15.1979 23.0188 16.2294 22.4232L33.9914 12.1684Z" fill="#0602F3" style="mix-blend-mode:multiply"/>
</g>
</g>
<path fill-rule="evenodd" clip-rule="evenodd" d="M48.2934 16.8733C48.2934 16.4995 47.9317 16.2323 47.5744 16.3422L35.6545 20.0099L23.7347 16.3422C23.3774 16.2323 23.0156 16.4995 23.0156 16.8733V32.0931C23.0156 32.4 23.2644 32.6488 23.5713 32.6488H47.7378C48.0446 32.6488 48.2934 32.4 48.2934 32.0931V16.8733Z" fill="url(#paint5_linear_3103_27055)" stroke="url(#paint6_linear_3103_27055)" stroke-width="0.55564" stroke-linecap="round" stroke-linejoin="round"/>
<mask id="mask4_3103_27055" style="mask-type:luminance" maskUnits="userSpaceOnUse" x="22" y="16" width="27" height="9">
<path fill-rule="evenodd" clip-rule="evenodd" d="M48.2934 16.8734C48.2934 16.4996 47.9317 16.2324 47.5744 16.3423L35.6545 20.01L23.7347 16.3423C23.3774 16.2324 23.0156 16.4996 23.0156 16.8734V23.3432C23.0156 23.6501 23.2644 23.8989 23.5713 23.8989H47.7378C48.0446 23.8989 48.2934 23.6501 48.2934 23.3432V16.8734Z" fill="white" stroke="white" stroke-width="0.55564" stroke-linecap="round" stroke-linejoin="round"/>
</mask>
<g mask="url(#mask4_3103_27055)">
<g opacity="0.04">
<path fill-rule="evenodd" clip-rule="evenodd" d="M33.9875 12.1684C35.019 11.5728 36.2898 11.5728 37.3213 12.1684L55.0832 22.4232C56.1147 23.0188 56.7502 24.1194 56.7502 25.3104V45.8202C56.7502 47.0112 56.1147 48.1118 55.0832 48.7074L37.3213 58.9622C36.2898 59.5577 35.019 59.5577 33.9875 58.9622L16.2255 48.7074C15.194 48.1118 14.5586 47.0112 14.5586 45.8202L14.5586 25.3104C14.5586 24.1194 15.194 23.0188 16.2255 22.4232L33.9875 12.1684Z" fill="#0602F3" style="mix-blend-mode:multiply"/>
</g>
</g>
<path fill-rule="evenodd" clip-rule="evenodd" d="M34.5428 13.8467C35.2305 13.4497 36.0777 13.4497 36.7654 13.8467L53.9081 23.744C54.5957 24.1411 55.0194 24.8748 55.0194 25.6688V45.4635C55.0194 46.2576 54.5957 46.9913 53.9081 47.3883L36.7654 57.2857C36.0777 57.6827 35.2305 57.6827 34.5428 57.2857L17.4001 47.3883C16.7124 46.9913 16.2888 46.2576 16.2888 45.4635V25.6688C16.2888 24.8748 16.7124 24.1411 17.4001 23.744L34.5428 13.8467Z" fill="url(#paint7_linear_3103_27055)" stroke="#C28831" stroke-opacity="0.4" stroke-width="0.55564"/>
<path d="M37.3579 14.7479C36.3051 14.14 35.008 14.14 33.9551 14.7479L18.4787 23.6832C17.4259 24.291 16.7773 25.4144 16.7773 26.6301L16.7773 44.5007C16.7773 45.7164 17.4259 46.8397 18.4787 47.4476L33.9551 56.3829C35.008 56.9907 36.3051 56.9907 37.3579 56.3829L52.8343 47.4476C53.8871 46.8397 54.5357 45.7164 54.5357 44.5007V26.6301C54.5357 25.4144 53.8871 24.291 52.8343 23.6832L37.3579 14.7479Z" stroke="#C28831" stroke-width="0.55564"/>
<path opacity="0.4" d="M37.3594 56.3842C39.1795 55.3333 40.4692 54.5887 41.2285 54.1504" stroke="white" stroke-width="0.55564" stroke-linecap="round"/>
<path d="M54.5357 44.5007V26.6301C54.5357 25.4144 53.8871 24.291 52.8343 23.6832L37.3579 14.7479C36.3051 14.14 35.008 14.14 33.9551 14.7479L18.4787 23.6832C17.4259 24.291 16.7773 25.4144 16.7773 26.6301L16.7773 44.5007" stroke="#C28831" stroke-width="0.55564" stroke-linecap="round"/>
<path opacity="0.6" d="M54.5357 26.6301C54.5357 25.4144 53.8871 24.291 52.8343 23.6832L37.3579 14.7479C36.3051 14.14 35.008 14.14 33.9551 14.7479L18.4787 23.6832C17.4259 24.291 16.7773 25.4144 16.7773 26.6301" stroke="#C28831" stroke-width="0.55564" stroke-linecap="round"/>
<path opacity="0.6" d="M37.3558 14.7479C36.303 14.14 35.0059 14.14 33.953 14.7479C33.953 14.7479 28.7942 17.7263 26.2148 19.2155" stroke="white" stroke-width="0.55564" stroke-linecap="round"/>
<path d="M33.955 14.749C33.955 14.749 31.2248 16.3253 30.0859 16.9828" stroke="white" stroke-width="0.55564" stroke-linecap="round"/>
<g filter="url(#filter2_d_3103_27055)">
<path fill-rule="evenodd" clip-rule="evenodd" d="M35.0976 20.3306C35.4414 20.1321 35.865 20.1321 36.2089 20.3306L48.5691 27.4667C48.9129 27.6653 49.1247 28.0321 49.1247 28.4291V42.7015C49.1247 43.0985 48.9129 43.4654 48.5691 43.6639L36.2089 50.8001C35.865 50.9986 35.4414 50.9986 35.0976 50.8001L22.7373 43.6639C22.3935 43.4654 22.1817 43.0985 22.1817 42.7015V28.4291C22.1817 28.0321 22.3935 27.6653 22.7373 27.4667L35.0976 20.3306Z" fill="url(#paint8_linear_3103_27055)"/>
<path d="M36.3478 20.09C35.918 19.8418 35.3885 19.8418 34.9587 20.09L22.5984 27.2261C22.1686 27.4743 21.9039 27.9329 21.9039 28.4291V42.7015C21.9039 43.1978 22.1686 43.6564 22.5984 43.9045L34.9587 51.0407C35.3885 51.2888 35.918 51.2888 36.3478 51.0407L48.708 43.9045C49.1378 43.6564 49.4025 43.1978 49.4025 42.7015V28.4291C49.4025 27.9329 49.1378 27.4743 48.708 27.2261L36.3478 20.09Z" stroke="#C28831" stroke-opacity="0.1" stroke-width="0.55564" style="mix-blend-mode:multiply"/>
</g>
<mask id="mask5_3103_27055" style="mask-type:luminance" maskUnits="userSpaceOnUse" x="22" y="20" width="28" height="31">
<path fill-rule="evenodd" clip-rule="evenodd" d="M35.0976 20.3306C35.4414 20.1321 35.865 20.1321 36.2089 20.3306L48.5691 27.4667C48.9129 27.6653 49.1247 28.0321 49.1247 28.4291V42.7015C49.1247 43.0985 48.9129 43.4654 48.5691 43.6639L36.2089 50.8001C35.865 50.9986 35.4414 50.9986 35.0976 50.8001L22.7373 43.6639C22.3935 43.4654 22.1817 43.0985 22.1817 42.7015V28.4291C22.1817 28.0321 22.3935 27.6653 22.7373 27.4667L35.0976 20.3306Z" fill="white"/>
</mask>
<g mask="url(#mask5_3103_27055)">
<g style="mix-blend-mode:multiply" opacity="0.3">
<path fill-rule="evenodd" clip-rule="evenodd" d="M35.6532 35.5653L20.0977 39.4542V31.6764L35.6532 35.5653ZM35.6532 35.5653L39.5421 20.0098H31.7643L35.6532 35.5653ZM35.6532 35.5653L51.2088 31.6764V39.4542L35.6532 35.5653ZM35.6532 35.5653L43.9028 21.816L49.4025 27.3157L35.6532 35.5653ZM35.6532 35.5653L43.9028 49.3146L49.4025 43.8149L35.6532 35.5653ZM35.6532 35.5653L31.7643 51.1209H39.5421L35.6532 35.5653ZM35.6532 35.5653L27.4036 49.3146L21.9039 43.8149L35.6532 35.5653Z" fill="#C28831"/>
<path d="M27.4036 21.816L21.9039 27.3157L35.6532 35.5653L27.4036 21.816Z" fill="#C28831"/>
</g>
<path opacity="0.4" d="M47.9109 27.6474L36.3838 20.9923C35.9326 20.7317 35.3767 20.7317 34.9255 20.9923C33.5698 21.775 32.6092 22.3296 32.0437 22.656C30.8669 23.3355 29.9063 23.8901 29.162 24.3198C27.8812 25.0593 25.96 26.1685 23.3984 27.6474" stroke="white" stroke-width="0.55564" stroke-linecap="round"/>
<path opacity="0.4" d="M47.9112 43.4503L36.3841 50.1054C35.9329 50.3659 35.377 50.3659 34.9258 50.1054" stroke="white" stroke-width="0.55564" stroke-linecap="round"/>
<path d="M34.9247 20.9912C33.569 21.7739 32.6085 22.3285 32.043 22.655" stroke="white" stroke-width="0.55564" stroke-linecap="round"/>
</g>
<g filter="url(#filter3_d_3103_27055)">
<path d="M33.1794 32.1528L35.6588 28.5352L38.1382 32.1528L42.3449 33.3929L39.6705 36.8689L39.7911 41.253L35.6588 39.7835L31.5265 41.253L31.6471 36.8689L28.9727 33.3929L33.1794 32.1528Z" fill="white"/>
<path d="M36.1171 28.221C36.0135 28.0699 35.8421 27.9795 35.6588 27.9795C35.4755 27.9795 35.3041 28.0699 35.2005 28.221L32.8328 31.6757L28.8155 32.86C28.6398 32.9118 28.5008 33.0469 28.4442 33.2212C28.3876 33.3955 28.4205 33.5865 28.5323 33.7318L31.0863 37.0511L30.9711 41.2377C30.9661 41.4209 31.0517 41.5948 31.1999 41.7025C31.3482 41.8102 31.54 41.8379 31.7127 41.7765L35.6588 40.3733L39.6049 41.7765C39.7776 41.8379 39.9694 41.8102 40.1177 41.7025C40.2659 41.5948 40.3515 41.4209 40.3465 41.2377L40.2313 37.0511L42.7853 33.7318C42.8971 33.5865 42.93 33.3955 42.8734 33.2212C42.8168 33.0469 42.6778 32.9118 42.5021 32.86L38.4848 31.6757L36.1171 28.221Z" stroke="white" stroke-width="1.11128" stroke-linejoin="round"/>
</g>
<path d="M33.1794 32.1528L35.6588 28.5352L38.1382 32.1528L42.3449 33.3929L39.6705 36.8689L39.7911 41.253L35.6588 39.7835L31.5265 41.253L31.6471 36.8689L28.9727 33.3929L33.1794 32.1528Z" fill="url(#paint9_linear_3103_27055)"/>
<path opacity="0.4" d="M35.6608 35.5654V28.5352L33.1484 32.1031L35.6608 35.5654Z" fill="url(#paint10_linear_3103_27055)"/>
<path opacity="0.8" d="M35.6588 35.5649L33.1465 32.1025L28.9727 33.3924L35.6588 35.5649Z" fill="url(#paint11_linear_3103_27055)"/>
<path opacity="0.5" d="M35.6557 35.5645L31.5878 36.8879L31.5234 41.252L35.6557 35.5645Z" fill="url(#paint12_linear_3103_27055)"/>
<path opacity="0.4" d="M39.7885 41.252L39.7242 36.8879L35.6563 35.5645L39.7885 41.252Z" fill="url(#paint13_linear_3103_27055)"/>
<path d="M39.7242 36.8885L42.3424 33.3926L35.6562 35.565L39.7242 36.8885Z" fill="#C28831"/>
<path opacity="0.6" d="M42.3424 33.3924L38.1686 32.1025L35.6562 35.5649L42.3424 33.3924Z" fill="url(#paint14_linear_3103_27055)"/>
<g filter="url(#filter4_d_3103_27055)">
<path fill-rule="evenodd" clip-rule="evenodd" d="M46.2606 29.5197L45.7557 29.3205C45.4469 29.1987 45.2953 28.8497 45.4171 28.5409C45.4782 28.386 45.6008 28.2634 45.7557 28.2023L46.2606 28.0031C46.8429 27.7735 47.3038 27.3126 47.5334 26.7303L47.7325 26.2254C47.8543 25.9166 48.2034 25.765 48.5122 25.8868C48.6671 25.9479 48.7897 26.0705 48.8508 26.2254L49.0499 26.7303C49.2796 27.3126 49.7405 27.7735 50.3227 28.0031L50.8276 28.2023C51.1364 28.324 51.288 28.6731 51.1663 28.9819C51.1052 29.1368 50.9825 29.2594 50.8276 29.3205L50.3227 29.5197C49.7405 29.7493 49.2796 30.2102 49.0499 30.7925L48.8508 31.2974C48.729 31.6062 48.3799 31.7578 48.0711 31.636C47.9162 31.5749 47.7936 31.4523 47.7325 31.2974L47.5334 30.7925C47.3038 30.2102 46.8429 29.7493 46.2606 29.5197Z" fill="white"/>
</g>
<g filter="url(#filter5_d_3103_27055)">
<path fill-rule="evenodd" clip-rule="evenodd" d="M24.5787 45.7947L24.2421 45.6619C24.0362 45.5807 23.9351 45.348 24.0163 45.1422C24.0571 45.0389 24.1388 44.9571 24.2421 44.9164L24.5787 44.7837C24.9669 44.6306 25.2741 44.3233 25.4272 43.9351L25.56 43.5985C25.6412 43.3927 25.8739 43.2916 26.0797 43.3728C26.183 43.4135 26.2648 43.4953 26.3055 43.5985L26.4382 43.9351C26.5913 44.3233 26.8986 44.6306 27.2868 44.7837L27.6234 44.9164C27.8292 44.9976 27.9303 45.2303 27.8491 45.4362C27.8084 45.5395 27.7266 45.6212 27.6234 45.6619L27.2868 45.7947C26.8986 45.9478 26.5913 46.255 26.4382 46.6432L26.3055 46.9798C26.2243 47.1857 25.9916 47.2868 25.7857 47.2056C25.6824 47.1648 25.6007 47.0831 25.56 46.9798L25.4272 46.6432C25.2741 46.255 24.9669 45.9478 24.5787 45.7947Z" fill="white"/>
</g>
<g filter="url(#filter6_d_3103_27055)">
<path fill-rule="evenodd" clip-rule="evenodd" d="M20.8357 30.8515L20.4149 30.6856C20.1576 30.5841 20.0312 30.2932 20.1327 30.0359C20.1836 29.9068 20.2858 29.8046 20.4149 29.7537L20.8357 29.5877C21.3209 29.3964 21.705 29.0123 21.8963 28.5271L22.0623 28.1063C22.1638 27.849 22.4546 27.7226 22.712 27.8241C22.8411 27.875 22.9432 27.9772 22.9942 28.1063L23.1601 28.5271C23.3515 29.0123 23.7356 29.3964 24.2208 29.5877L24.6415 29.7537C24.8989 29.8552 25.0252 30.146 24.9237 30.4034C24.8728 30.5325 24.7706 30.6347 24.6415 30.6856L24.2208 30.8515C23.7356 31.0429 23.3515 31.427 23.1601 31.9122L22.9942 32.3329C22.8927 32.5903 22.6018 32.7166 22.3444 32.6151C22.2154 32.5642 22.1132 32.462 22.0623 32.3329L21.8963 31.9122C21.705 31.427 21.3209 31.0429 20.8357 30.8515Z" fill="white"/>
</g>
<g filter="url(#filter7_d_3103_27055)">
<path fill-rule="evenodd" clip-rule="evenodd" d="M45.8178 45.1822L45.5653 45.0826C45.4109 45.0217 45.3351 44.8472 45.396 44.6928C45.4266 44.6153 45.4879 44.554 45.5653 44.5235L45.8178 44.4239C46.1089 44.3091 46.3394 44.0787 46.4542 43.7875L46.5538 43.5351C46.6147 43.3807 46.7892 43.3049 46.9436 43.3658C47.021 43.3963 47.0824 43.4576 47.1129 43.5351L47.2125 43.7875C47.3273 44.0787 47.5577 44.3091 47.8489 44.4239L48.1013 44.5235C48.2557 44.5844 48.3315 44.7589 48.2706 44.9133C48.2401 44.9908 48.1788 45.0521 48.1013 45.0826L47.8489 45.1822C47.5577 45.297 47.3273 45.5275 47.2125 45.8186L47.1129 46.071C47.052 46.2254 46.8775 46.3012 46.7231 46.2404C46.6456 46.2098 46.5843 46.1485 46.5538 46.071L46.4542 45.8186C46.3394 45.5275 46.1089 45.297 45.8178 45.1822Z" fill="white"/>
</g>
<defs>
<filter id="filter0_d_3103_27055" x="11.67" y="32.6504" width="31.8358" height="38.1044" filterUnits="userSpaceOnUse" color-interpolation-filters="sRGB">
<feFlood flood-opacity="0" result="BackgroundImageFix"/>
<feColorMatrix in="SourceAlpha" type="matrix" values="0 0 0 0 0 0 0 0 0 0 0 0 0 0 0 0 0 0 127 0" result="hardAlpha"/>
<feOffset dy="1.11128"/>
<feGaussianBlur stdDeviation="0.55564"/>
<feColorMatrix type="matrix" values="0 0 0 0 0.401412 0 0 0 0 0.333333 0 0 0 0 0.819608 0 0 0 0.2 0"/>
<feBlend mode="darken" in2="BackgroundImageFix" result="effect1_dropShadow_3103_27055"/>
<feBlend mode="normal" in="SourceGraphic" in2="effect1_dropShadow_3103_27055" result="shape"/>
</filter>
<filter id="filter1_d_3103_27055" x="27.8028" y="32.6504" width="31.8358" height="38.1044" filterUnits="userSpaceOnUse" color-interpolation-filters="sRGB">
<feFlood flood-opacity="0" result="BackgroundImageFix"/>
<feColorMatrix in="SourceAlpha" type="matrix" values="0 0 0 0 0 0 0 0 0 0 0 0 0 0 0 0 0 0 127 0" result="hardAlpha"/>
<feOffset dy="1.11128"/>
<feGaussianBlur stdDeviation="0.55564"/>
<feColorMatrix type="matrix" values="0 0 0 0 0.401412 0 0 0 0 0.333333 0 0 0 0 0.819608 0 0 0 0.2 0"/>
<feBlend mode="darken" in2="BackgroundImageFix" result="effect1_dropShadow_3103_27055"/>
<feBlend mode="normal" in="SourceGraphic" in2="effect1_dropShadow_3103_27055" result="shape"/>
</filter>
<filter id="filter2_d_3103_27055" x="20.5137" y="19.0703" width="30.2772" height="34.1015" filterUnits="userSpaceOnUse" color-interpolation-filters="sRGB">
<feFlood flood-opacity="0" result="BackgroundImageFix"/>
<feColorMatrix in="SourceAlpha" type="matrix" values="0 0 0 0 0 0 0 0 0 0 0 0 0 0 0 0 0 0 127 0" result="hardAlpha"/>
<feOffset dy="0.55564"/>
<feGaussianBlur stdDeviation="0.55564"/>
<feColorMatrix type="matrix" values="0 0 0 0 0.927721 0 0 0 0 0.665867 0 0 0 0 0.0535899 0 0 0 0.4 0"/>
<feBlend mode="normal" in2="BackgroundImageFix" result="effect1_dropShadow_3103_27055"/>
<feBlend mode="normal" in="SourceGraphic" in2="effect1_dropShadow_3103_27055" result="shape"/>
</filter>
<filter id="filter3_d_3103_27055" x="26.752" y="26.8682" width="17.8163" height="17.163" filterUnits="userSpaceOnUse" color-interpolation-filters="sRGB">
<feFlood flood-opacity="0" result="BackgroundImageFix"/>
<feColorMatrix in="SourceAlpha" type="matrix" values="0 0 0 0 0 0 0 0 0 0 0 0 0 0 0 0 0 0 127 0" result="hardAlpha"/>
<feOffset dy="0.55564"/>
<feGaussianBlur stdDeviation="0.55564"/>
<feColorMatrix type="matrix" values="0 0 0 0 0.996078 0 0 0 0 0.733333 0 0 0 0 0.105882 0 0 0 1 0"/>
<feBlend mode="normal" in2="BackgroundImageFix" result="effect1_dropShadow_3103_27055"/>
<feBlend mode="normal" in="SourceGraphic" in2="effect1_dropShadow_3103_27055" result="shape"/>
</filter>
<filter id="filter4_d_3103_27055" x="44.2637" y="24.7334" width="8.05459" height="8.05557" filterUnits="userSpaceOnUse" color-interpolation-filters="sRGB">
<feFlood flood-opacity="0" result="BackgroundImageFix"/>
<feColorMatrix in="SourceAlpha" type="matrix" values="0 0 0 0 0 0 0 0 0 0 0 0 0 0 0 0 0 0 127 0" result="hardAlpha"/>
<feOffset/>
<feGaussianBlur stdDeviation="0.55564"/>
<feColorMatrix type="matrix" values="0 0 0 0 1 0 0 0 0 0.94902 0 0 0 0 0.305882 0 0 0 1 0"/>
<feBlend mode="normal" in2="BackgroundImageFix" result="effect1_dropShadow_3103_27055"/>
<feBlend mode="normal" in="SourceGraphic" in2="effect1_dropShadow_3103_27055" result="shape"/>
</filter>
<filter id="filter5_d_3103_27055" x="22.877" y="42.2334" width="6.11319" height="6.11123" filterUnits="userSpaceOnUse" color-interpolation-filters="sRGB">
<feFlood flood-opacity="0" result="BackgroundImageFix"/>
<feColorMatrix in="SourceAlpha" type="matrix" values="0 0 0 0 0 0 0 0 0 0 0 0 0 0 0 0 0 0 127 0" result="hardAlpha"/>
<feOffset/>
<feGaussianBlur stdDeviation="0.55564"/>
<feColorMatrix type="matrix" values="0 0 0 0 1 0 0 0 0 0.94902 0 0 0 0 0.305882 0 0 0 1 0"/>
<feBlend mode="normal" in2="BackgroundImageFix" result="effect1_dropShadow_3103_27055"/>
<feBlend mode="normal" in="SourceGraphic" in2="effect1_dropShadow_3103_27055" result="shape"/>
</filter>
<filter id="filter6_d_3103_27055" x="18.9864" y="26.6778" width="7.08194" height="7.08389" filterUnits="userSpaceOnUse" color-interpolation-filters="sRGB">
<feFlood flood-opacity="0" result="BackgroundImageFix"/>
<feColorMatrix in="SourceAlpha" type="matrix" values="0 0 0 0 0 0 0 0 0 0 0 0 0 0 0 0 0 0 127 0" result="hardAlpha"/>
<feOffset/>
<feGaussianBlur stdDeviation="0.55564"/>
<feColorMatrix type="matrix" values="0 0 0 0 1 0 0 0 0 0.94902 0 0 0 0 0.305882 0 0 0 1 0"/>
<feBlend mode="normal" in2="BackgroundImageFix" result="effect1_dropShadow_3103_27055"/>
<feBlend mode="normal" in="SourceGraphic" in2="effect1_dropShadow_3103_27055" result="shape"/>
</filter>
<filter id="filter7_d_3103_27055" x="44.2637" y="42.2334" width="5.14053" height="5.13955" filterUnits="userSpaceOnUse" color-interpolation-filters="sRGB">
<feFlood flood-opacity="0" result="BackgroundImageFix"/>
<feColorMatrix in="SourceAlpha" type="matrix" values="0 0 0 0 0 0 0 0 0 0 0 0 0 0 0 0 0 0 127 0" result="hardAlpha"/>
<feOffset/>
<feGaussianBlur stdDeviation="0.55564"/>
<feColorMatrix type="matrix" values="0 0 0 0 1 0 0 0 0 0.94902 0 0 0 0 0.305882 0 0 0 1 0"/>
<feBlend mode="normal" in2="BackgroundImageFix" result="effect1_dropShadow_3103_27055"/>
<feBlend mode="normal" in="SourceGraphic" in2="effect1_dropShadow_3103_27055" result="shape"/>
</filter>
<linearGradient id="paint0_linear_3103_27055" x1="5.51953" y1="6.39941" x2="5.51953" y2="64.7327" gradientUnits="userSpaceOnUse">
<stop stop-color="#6F61EC"/>
<stop offset="1" stop-color="#3D2CD4"/>
</linearGradient>
<linearGradient id="paint1_linear_3103_27055" x1="58.0234" y1="20.0098" x2="58.0234" y2="38.482" gradientUnits="userSpaceOnUse">
<stop stop-color="#C28831"/>
<stop offset="1" stop-color="#F6C06E"/>
</linearGradient>
<linearGradient id="paint2_linear_3103_27055" x1="58.0234" y1="20.0098" x2="58.0234" y2="38.482" gradientUnits="userSpaceOnUse">
<stop stop-color="#C28831"/>
<stop offset="1" stop-color="#DCB06F"/>
</linearGradient>
<linearGradient id="paint3_linear_3103_27055" x1="13.2969" y1="20.0098" x2="13.2969" y2="38.482" gradientUnits="userSpaceOnUse">
<stop stop-color="#C28831"/>
<stop offset="1" stop-color="#F6C06E"/>
</linearGradient>
<linearGradient id="paint4_linear_3103_27055" x1="13.2969" y1="20.0098" x2="13.2969" y2="38.482" gradientUnits="userSpaceOnUse">
<stop stop-color="#C28831"/>
<stop offset="1" stop-color="#DCB06F"/>
</linearGradient>
<linearGradient id="paint5_linear_3103_27055" x1="23.0156" y1="16.4648" x2="23.0156" y2="32.6488" gradientUnits="userSpaceOnUse">
<stop stop-color="#C28831"/>
<stop offset="1" stop-color="#F6C06E"/>
</linearGradient>
<linearGradient id="paint6_linear_3103_27055" x1="23.0156" y1="16.4648" x2="23.0156" y2="32.6488" gradientUnits="userSpaceOnUse">
<stop stop-color="#C28831"/>
<stop offset="1" stop-color="#DCB06F"/>
</linearGradient>
<linearGradient id="paint7_linear_3103_27055" x1="13.293" y1="13.2051" x2="13.293" y2="57.9273" gradientUnits="userSpaceOnUse">
<stop stop-color="#C28831"/>
<stop offset="1" stop-color="#E8B262"/>
</linearGradient>
<linearGradient id="paint8_linear_3103_27055" x1="20.0977" y1="20.0098" x2="20.0977" y2="51.1209" gradientUnits="userSpaceOnUse">
<stop stop-color="#C28831"/>
<stop offset="1" stop-color="#D19F53"/>
</linearGradient>
<linearGradient id="paint9_linear_3103_27055" x1="28.6285" y1="28.5352" x2="28.6285" y2="42.5956" gradientUnits="userSpaceOnUse">
<stop stop-color="#FFE0B2"/>
<stop offset="1" stop-color="#C28831"/>
</linearGradient>
<linearGradient id="paint10_linear_3103_27055" x1="33.1484" y1="26.7776" x2="28.9912" y2="29.7488" gradientUnits="userSpaceOnUse">
<stop stop-color="#C28831" stop-opacity="0.467505"/>
<stop offset="1" stop-color="#E1BE8A"/>
</linearGradient>
<linearGradient id="paint11_linear_3103_27055" x1="29.0149" y1="32.9572" x2="32.9326" y2="37.7796" gradientUnits="userSpaceOnUse">
<stop stop-color="#C28831" stop-opacity="0.8"/>
<stop offset="1" stop-color="#DA9E44"/>
</linearGradient>
<linearGradient id="paint12_linear_3103_27055" x1="33.5896" y1="42.6739" x2="36.9098" y2="37.8494" gradientUnits="userSpaceOnUse">
<stop stop-color="#C28831" stop-opacity="0.01"/>
<stop offset="1" stop-color="#856534"/>
</linearGradient>
<linearGradient id="paint13_linear_3103_27055" x1="35.6563" y1="34.1426" x2="32.336" y2="38.9671" gradientUnits="userSpaceOnUse">
<stop stop-color="#C28831" stop-opacity="0.467505"/>
<stop offset="1" stop-color="#D6A256"/>
</linearGradient>
<linearGradient id="paint14_linear_3103_27055" x1="35.6563" y1="31.237" x2="34.6061" y2="35.2929" gradientUnits="userSpaceOnUse">
<stop stop-color="#C28831" stop-opacity="0.467505"/>
<stop offset="1" stop-color="#E1BE8A"/>
</linearGradient>
</defs>
</svg>
