<svg width="41" height="40" viewBox="0 0 41 40" fill="none" xmlns="http://www.w3.org/2000/svg">
<g style="mix-blend-mode:screen" opacity="0.24">
<path fill-rule="evenodd" clip-rule="evenodd" d="M29.6354 34.4441C30.2491 34.4441 30.7465 34.9416 30.7465 35.5552C30.7465 36.1689 30.2491 36.6663 29.6354 36.6663H19.6354C19.5701 36.6663 19.5061 36.6607 19.4439 36.6499C15.8746 36.4924 12.597 35.2123 9.9555 33.1541C9.74066 32.9867 9.4169 32.7092 9.17695 32.5004C8.97174 32.3218 8.70946 32.2219 8.43743 32.2219H5.74653C5.13288 32.2219 4.63542 31.7244 4.63542 31.1108C4.63542 30.4971 5.13288 29.9997 5.74653 29.9997H6.85764C7.47129 29.9997 7.96875 29.5022 7.96875 28.8886C7.96875 28.2749 7.47129 27.7775 6.85764 27.7775H4.07986C3.46621 27.7775 2.96875 27.28 2.96875 26.6663C2.96875 26.0527 3.46621 25.5552 4.07986 25.5552H4.63542C5.24907 25.5552 5.74653 25.0578 5.74653 24.4441C5.74653 23.8305 5.24907 23.333 4.63542 23.333C4.18614 23.333 3.80187 23.0092 3.72712 22.5661C3.69996 22.4052 3.67838 22.2756 3.67482 22.2492C3.57556 21.5135 3.52431 20.7626 3.52431 19.9997C3.52431 10.7949 10.9862 3.33301 20.191 3.33301C22.9687 3.33301 25.7465 3.33301 28.5243 3.33301C29.138 3.33301 29.6354 3.83047 29.6354 4.44412C29.6354 5.05777 29.138 5.55523 28.5243 5.55523H26.8576C26.244 5.55523 25.7465 6.05269 25.7465 6.66634C25.7465 7.27999 26.244 7.77745 26.8576 7.77745H33.5243C34.138 7.77745 34.6354 8.27491 34.6354 8.88856C34.6354 9.50181 34.1386 9.99901 33.5255 9.99967L31.8576 9.99967C31.244 9.99967 30.7465 10.4971 30.7465 11.1108C30.7465 11.7244 31.244 12.2219 31.8576 12.2219H34.2499C34.6701 12.2219 35.0552 12.4585 35.2374 12.8371C35.3469 13.0647 35.4621 13.3102 35.5374 13.4876C36.3874 15.4882 36.8576 17.689 36.8576 19.9997C36.8576 20.7257 36.8112 21.4409 36.7212 22.1424C36.706 22.2604 36.6828 22.4118 36.6575 22.5668C36.585 23.0115 36.1971 23.333 35.7465 23.333C35.1329 23.333 34.6354 23.8305 34.6354 24.4441C34.6354 25.0578 35.1329 25.5552 35.7465 25.5552H36.3021C36.9157 25.5552 37.4132 26.0527 37.4132 26.6663C37.4132 27.28 36.9157 27.7775 36.3021 27.7775H35.5888C35.1855 27.7775 34.8145 27.9965 34.613 28.3459C34.4821 28.5728 34.3366 28.8197 34.2285 28.9882C33.9751 29.3832 33.7054 29.7668 33.4205 30.138C33.1344 30.5108 32.8328 30.8712 32.5168 31.2182C32.3433 31.4087 32.0624 31.6908 31.8432 31.9075C31.6382 32.1102 31.361 32.2219 31.0727 32.2219H27.9687C27.3551 32.2219 26.8576 32.7194 26.8576 33.333C26.8576 33.9424 27.3482 34.4372 27.9559 34.444L29.6354 34.4441Z" fill="white"/>
</g>
<path fill-rule="evenodd" clip-rule="evenodd" d="M16.3438 17.7783L24.0418 22.2228L15.0595 37.7805C14.85 38.1434 14.3294 38.1526 14.1072 37.7973L11.9289 34.314L7.8231 34.1692C7.40429 34.1544 7.15195 33.699 7.36149 33.3361L16.3438 17.7783Z" fill="#A1C7FF"/>
<mask id="mask0_3072_18420" style="mask-type:luminance" maskUnits="userSpaceOnUse" x="7" y="17" width="18" height="22">
<path fill-rule="evenodd" clip-rule="evenodd" d="M16.3438 17.7783L24.0418 22.2228L15.0595 37.7805C14.85 38.1434 14.3294 38.1526 14.1072 37.7973L11.9289 34.314L7.8231 34.1692C7.40429 34.1544 7.15195 33.699 7.36149 33.3361L16.3438 17.7783Z" fill="white"/>
</mask>
<g mask="url(#mask0_3072_18420)">
<path fill-rule="evenodd" clip-rule="evenodd" d="M13.8242 26.5869L17.6732 28.8091L12.6732 37.4694L8.82422 35.2472L13.8242 26.5869Z" fill="#E7F1FF"/>
</g>
<path fill-rule="evenodd" clip-rule="evenodd" d="M24.0391 17.7783L16.3411 22.2228L25.3233 37.7805C25.5329 38.1434 26.0534 38.1526 26.2756 37.7973L28.454 34.314L32.5597 34.1692C32.9785 34.1544 33.2309 33.699 33.0213 33.3361L24.0391 17.7783Z" fill="#A1C7FF"/>
<mask id="mask1_3072_18420" style="mask-type:luminance" maskUnits="userSpaceOnUse" x="16" y="17" width="18" height="22">
<path fill-rule="evenodd" clip-rule="evenodd" d="M24.0391 17.7783L16.3411 22.2228L25.3233 37.7805C25.5329 38.1434 26.0534 38.1526 26.2756 37.7973L28.454 34.314L32.5597 34.1692C32.9785 34.1544 33.2309 33.699 33.0213 33.3361L24.0391 17.7783Z" fill="white"/>
</mask>
<g mask="url(#mask1_3072_18420)">
<path fill-rule="evenodd" clip-rule="evenodd" d="M26.5586 26.5869L22.7096 28.8091L27.7096 37.4694L31.5586 35.2472L26.5586 26.5869Z" fill="#E7F1FF"/>
</g>
<path fill-rule="evenodd" clip-rule="evenodd" d="M30.1949 12.5976C30.1949 12.3704 30.3332 12.1661 30.5442 12.0818L32.5155 11.2932C32.7344 11.2056 32.9727 11.3669 32.9727 11.6028V20.1786C32.9727 20.4058 32.8343 20.6101 32.6234 20.6945L30.1949 21.6659V12.5976Z" fill="#A1C7FF"/>
<mask id="mask2_3072_18420" style="mask-type:luminance" maskUnits="userSpaceOnUse" x="30" y="11" width="3" height="11">
<path fill-rule="evenodd" clip-rule="evenodd" d="M30.1949 12.5976C30.1949 12.3704 30.3332 12.1661 30.5442 12.0818L32.5155 11.2932C32.7344 11.2056 32.9727 11.3669 32.9727 11.6028V20.1786C32.9727 20.4058 32.8343 20.6101 32.6234 20.6945L30.1949 21.6659V12.5976Z" fill="white"/>
</mask>
<g mask="url(#mask2_3072_18420)">
</g>
<path fill-rule="evenodd" clip-rule="evenodd" d="M10.1918 12.5976C10.1918 12.3704 10.0535 12.1661 9.84256 12.0818L7.87126 11.2932C7.65227 11.2056 7.41406 11.3669 7.41406 11.6028V20.1786C7.41406 20.4058 7.55239 20.6101 7.76334 20.6945L10.1918 21.6659V12.5976Z" fill="#A1C7FF"/>
<mask id="mask3_3072_18420" style="mask-type:luminance" maskUnits="userSpaceOnUse" x="7" y="11" width="4" height="11">
<path fill-rule="evenodd" clip-rule="evenodd" d="M10.1918 12.5976C10.1918 12.3704 10.0535 12.1661 9.84256 12.0818L7.87126 11.2932C7.65227 11.2056 7.41406 11.3669 7.41406 11.6028V20.1786C7.41406 20.4058 7.55239 20.6101 7.76334 20.6945L10.1918 21.6659V12.5976Z" fill="white"/>
</mask>
<g mask="url(#mask3_3072_18420)">
</g>
<path fill-rule="evenodd" clip-rule="evenodd" d="M27.4132 9.6398C27.4132 9.26596 27.0515 8.99879 26.6941 9.10873L20.191 11.1097L13.6878 9.10873C13.3305 8.99879 12.9687 9.26596 12.9687 9.6398V17.7763C12.9687 18.0832 13.2175 18.3319 13.5244 18.3319H26.8576C27.1644 18.3319 27.4132 18.0832 27.4132 17.7763V9.6398Z" fill="#A1C7FF"/>
<mask id="mask4_3072_18420" style="mask-type:luminance" maskUnits="userSpaceOnUse" x="12" y="9" width="16" height="10">
<path fill-rule="evenodd" clip-rule="evenodd" d="M27.4132 9.6398C27.4132 9.26596 27.0515 8.99879 26.6941 9.10873L20.191 11.1097L13.6878 9.10873C13.3305 8.99879 12.9687 9.26596 12.9687 9.6398V17.7763C12.9687 18.0832 13.2175 18.3319 13.5244 18.3319H26.8576C27.1644 18.3319 27.4132 18.0832 27.4132 17.7763V9.6398Z" fill="white"/>
</mask>
<g mask="url(#mask4_3072_18420)">
</g>
<path fill-rule="evenodd" clip-rule="evenodd" d="M19.0806 7.86328C19.7682 7.46626 20.6155 7.46626 21.3031 7.86328L30.1464 12.969C30.8341 13.366 31.2577 14.0997 31.2577 14.8938V25.1051C31.2577 25.8992 30.8341 26.6329 30.1464 27.0299L21.3031 32.1356C20.6155 32.5327 19.7682 32.5327 19.0806 32.1356L10.2372 27.0299C9.54958 26.6329 9.12596 25.8992 9.12596 25.1051V14.8938C9.12596 14.0997 9.54958 13.366 10.2372 12.969L19.0806 7.86328Z" fill="#B6D5FF"/>
<path fill-rule="evenodd" clip-rule="evenodd" d="M19.6379 11.4312C19.9818 11.2326 20.4054 11.2326 20.7492 11.4312L27.3359 15.234C27.6798 15.4325 27.8916 15.7994 27.8916 16.1964V23.8021C27.8916 24.1991 27.6798 24.566 27.3359 24.7645L20.7492 28.5673C20.4054 28.7658 19.9818 28.7658 19.6379 28.5673L13.0512 24.7645C12.7074 24.566 12.4956 24.1991 12.4956 23.8021V16.1964C12.4956 15.7994 12.7074 15.4325 13.0512 15.234L19.6379 11.4312Z" fill="#D6E7FF"/>
<path fill-rule="evenodd" clip-rule="evenodd" d="M20.1914 23L18.0164 23.7734C17.6485 23.9043 17.264 23.6249 17.2748 23.2346L17.3382 20.9271L15.9305 19.0975C15.6925 18.7881 15.8393 18.3361 16.2138 18.2257L18.4281 17.5729L19.7331 15.6688C19.9538 15.3467 20.429 15.3467 20.6497 15.6688L21.9548 17.5729L24.169 18.2257C24.5435 18.3361 24.6904 18.7881 24.4523 19.0975L23.0446 20.9271L23.108 23.2346C23.1188 23.6249 22.7343 23.9043 22.3664 23.7734L20.1914 23Z" fill="#A1C7FF" stroke="white" stroke-width="1.11128" stroke-linecap="round" stroke-linejoin="round"/>
</svg>
