<svg width="71" height="71" viewBox="0 0 71 71" fill="none" xmlns="http://www.w3.org/2000/svg">
<path fill-rule="evenodd" clip-rule="evenodd" d="M51.8737 60.8439C52.9476 60.8439 53.8181 61.7144 53.8181 62.7883C53.8181 63.8622 52.9476 64.7327 51.8737 64.7327H34.3737C34.2594 64.7327 34.1474 64.7229 34.0385 64.704C27.7922 64.4284 22.0564 62.1883 17.4338 58.5863C17.0579 58.2933 16.4913 57.8077 16.0714 57.4423C15.7123 57.1299 15.2533 56.955 14.7772 56.955H10.0681C8.99426 56.955 8.1237 56.0844 8.1237 55.0105C8.1237 53.9366 8.99426 53.0661 10.0681 53.0661H12.0126C13.0865 53.0661 13.957 52.1955 13.957 51.1216C13.957 50.0477 13.0865 49.1772 12.0126 49.1772H7.15148C6.07759 49.1772 5.20703 48.3066 5.20703 47.2327C5.20703 46.1589 6.07759 45.2883 7.15148 45.2883H8.1237C9.19758 45.2883 10.0681 44.4177 10.0681 43.3439C10.0681 42.27 9.19758 41.3994 8.1237 41.3994C7.33746 41.3994 6.66499 40.8327 6.53417 40.0574C6.48664 39.7757 6.44889 39.5489 6.44266 39.5028C6.26896 38.2153 6.17925 36.9012 6.17925 35.5661C6.17925 19.4578 19.2376 6.39941 35.3459 6.39941C40.207 6.39941 45.0681 6.39941 49.9293 6.39941C51.0031 6.39941 51.8737 7.26997 51.8737 8.34386C51.8737 9.41775 51.0031 10.2883 49.9293 10.2883H47.0126C45.9387 10.2883 45.0681 11.1589 45.0681 12.2327C45.0681 13.3066 45.9387 14.1772 47.0126 14.1772H58.6793C59.7531 14.1772 60.6237 15.0477 60.6237 16.1216C60.6237 17.1948 59.7543 18.0649 58.6814 18.0661H55.7626C54.6887 18.0661 53.8181 18.9366 53.8181 20.0105C53.8181 21.0844 54.6887 21.955 55.7626 21.955H59.949C60.6843 21.955 61.3583 22.369 61.6771 23.0317C61.8688 23.4299 62.0703 23.8595 62.2023 24.17C63.6897 27.671 64.5126 31.5224 64.5126 35.5661C64.5126 36.8366 64.4313 38.0882 64.2738 39.3159C64.2473 39.5223 64.2066 39.7872 64.1624 40.0585C64.0355 40.8368 63.3567 41.3994 62.5681 41.3994C61.4943 41.3994 60.6237 42.27 60.6237 43.3439C60.6237 44.4177 61.4943 45.2883 62.5681 45.2883H63.5404C64.6143 45.2883 65.4848 46.1589 65.4848 47.2327C65.4848 48.3066 64.6143 49.1772 63.5404 49.1772H62.2922C61.5863 49.1772 60.9372 49.5604 60.5845 50.172C60.3554 50.5691 60.1008 51.0012 59.9116 51.2961C59.4681 51.9872 58.9962 52.6585 58.4976 53.3081C57.9968 53.9606 57.4691 54.5913 56.9161 55.1986C56.6126 55.5318 56.1208 56.0256 55.7373 56.4047C55.3785 56.7595 54.8935 56.955 54.389 56.955H48.957C47.8831 56.955 47.0126 57.8255 47.0126 58.8994C47.0126 59.9658 47.871 60.8317 48.9346 60.8437L51.8737 60.8439Z" fill="#304371"/>
<path fill-rule="evenodd" clip-rule="evenodd" d="M51.8737 60.8439C52.9476 60.8439 53.8181 61.7144 53.8181 62.7883C53.8181 63.8622 52.9476 64.7327 51.8737 64.7327H34.3737C34.2594 64.7327 34.1474 64.7229 34.0385 64.704C27.7922 64.4284 22.0564 62.1883 17.4338 58.5863C17.0579 58.2933 16.4913 57.8077 16.0714 57.4423C15.7123 57.1299 15.2533 56.955 14.7772 56.955H10.0681C8.99426 56.955 8.1237 56.0844 8.1237 55.0105C8.1237 53.9366 8.99426 53.0661 10.0681 53.0661H12.0126C13.0865 53.0661 13.957 52.1955 13.957 51.1216C13.957 50.0477 13.0865 49.1772 12.0126 49.1772H7.15148C6.07759 49.1772 5.20703 48.3066 5.20703 47.2327C5.20703 46.1589 6.07759 45.2883 7.15148 45.2883H8.1237C9.19758 45.2883 10.0681 44.4177 10.0681 43.3439C10.0681 42.27 9.19758 41.3994 8.1237 41.3994C7.33746 41.3994 6.66499 40.8327 6.53417 40.0574C6.48664 39.7757 6.44889 39.5489 6.44266 39.5028C6.26896 38.2153 6.17925 36.9012 6.17925 35.5661C6.17925 19.4578 19.2376 6.39941 35.3459 6.39941C40.207 6.39941 45.0681 6.39941 49.9293 6.39941C51.0031 6.39941 51.8737 7.26997 51.8737 8.34386C51.8737 9.41775 51.0031 10.2883 49.9293 10.2883H47.0126C45.9387 10.2883 45.0681 11.1589 45.0681 12.2327C45.0681 13.3066 45.9387 14.1772 47.0126 14.1772H58.6793C59.7531 14.1772 60.6237 15.0477 60.6237 16.1216C60.6237 17.1948 59.7543 18.0649 58.6814 18.0661H55.7626C54.6887 18.0661 53.8181 18.9366 53.8181 20.0105C53.8181 21.0844 54.6887 21.955 55.7626 21.955H59.949C60.6843 21.955 61.3583 22.369 61.6771 23.0317C61.8688 23.4299 62.0703 23.8595 62.2023 24.17C63.6897 27.671 64.5126 31.5224 64.5126 35.5661C64.5126 36.8366 64.4313 38.0882 64.2738 39.3159C64.2473 39.5223 64.2066 39.7872 64.1624 40.0585C64.0355 40.8368 63.3567 41.3994 62.5681 41.3994C61.4943 41.3994 60.6237 42.27 60.6237 43.3439C60.6237 44.4177 61.4943 45.2883 62.5681 45.2883H63.5404C64.6143 45.2883 65.4848 46.1589 65.4848 47.2327C65.4848 48.3066 64.6143 49.1772 63.5404 49.1772H62.2922C61.5863 49.1772 60.9372 49.5604 60.5845 50.172C60.3554 50.5691 60.1008 51.0012 59.9116 51.2961C59.4681 51.9872 58.9962 52.6585 58.4976 53.3081C57.9968 53.9606 57.4691 54.5913 56.9161 55.1986C56.6126 55.5318 56.1208 56.0256 55.7373 56.4047C55.3785 56.7595 54.8935 56.955 54.389 56.955H48.957C47.8831 56.955 47.0126 57.8255 47.0126 58.8994C47.0126 59.9658 47.871 60.8317 48.9346 60.8437L51.8737 60.8439Z" fill="url(#paint0_linear_3103_26996)"/>
<g opacity="0.1">
<path fill-rule="evenodd" clip-rule="evenodd" d="M33.675 12.1694C34.7065 11.5738 35.9773 11.5738 37.0088 12.1694L54.7707 22.4242C55.8022 23.0197 56.4377 24.1203 56.4377 25.3114V45.8211C56.4377 47.0122 55.8022 48.1128 54.7707 48.7083L37.0088 58.9632C35.9773 59.5587 34.7065 59.5587 33.675 58.9632L15.913 48.7083C14.8815 48.1128 14.2461 47.0122 14.2461 45.8211L14.2461 25.3114C14.2461 24.1203 14.8815 23.0198 15.913 22.4242L33.675 12.1694Z" fill="#0602F3" style="mix-blend-mode:multiply"/>
</g>
<g filter="url(#filter0_d_3103_26996)">
<path fill-rule="evenodd" clip-rule="evenodd" d="M28.6094 32.6504L42.0809 40.4282L26.0153 68.2546C25.8058 68.6175 25.2852 68.6267 25.063 68.2714L20.8833 61.5879L13.0054 61.3099C12.5866 61.2952 12.3342 60.8397 12.5438 60.4768L28.6094 32.6504Z" fill="#F55462"/>
</g>
<mask id="mask0_3103_26996" style="mask-type:luminance" maskUnits="userSpaceOnUse" x="12" y="32" width="31" height="37">
<path fill-rule="evenodd" clip-rule="evenodd" d="M28.6094 32.6504L42.0809 40.4282L26.0153 68.2546C25.8058 68.6175 25.2852 68.6267 25.063 68.2714L20.8833 61.5879L13.0054 61.3099C12.5866 61.2952 12.3342 60.8397 12.5438 60.4768L28.6094 32.6504Z" fill="white"/>
</mask>
<g mask="url(#mask0_3103_26996)">
<path fill-rule="evenodd" clip-rule="evenodd" d="M24.1992 48.0654L30.935 51.9543L22.185 67.1098L15.4492 63.2209L24.1992 48.0654Z" fill="white"/>
</g>
<g filter="url(#filter1_d_3103_26996)">
<path fill-rule="evenodd" clip-rule="evenodd" d="M42.0742 32.6504L28.6027 40.4282L44.6683 68.2546C44.8778 68.6175 45.3984 68.6267 45.6206 68.2714L49.8003 61.5879L57.6782 61.3099C58.097 61.2952 58.3493 60.8397 58.1398 60.4768L42.0742 32.6504Z" fill="#F55462"/>
</g>
<mask id="mask1_3103_26996" style="mask-type:luminance" maskUnits="userSpaceOnUse" x="28" y="32" width="31" height="37">
<path fill-rule="evenodd" clip-rule="evenodd" d="M42.0742 32.6504L28.6027 40.4282L44.6683 68.2546C44.8778 68.6175 45.3984 68.6267 45.6206 68.2714L49.8003 61.5879L57.6782 61.3099C58.097 61.2952 58.3493 60.8397 58.1398 60.4768L42.0742 32.6504Z" fill="white"/>
</mask>
<g mask="url(#mask1_3103_26996)">
<path fill-rule="evenodd" clip-rule="evenodd" d="M46.4844 48.0654L39.7486 51.9543L48.4986 67.1098L55.2344 63.2209L46.4844 48.0654Z" fill="white"/>
</g>
<path style="mix-blend-mode:multiply" opacity="0.2" fill-rule="evenodd" clip-rule="evenodd" d="M34.2306 15.791C34.9182 15.3939 35.7655 15.3939 36.4531 15.791L53.5959 25.6883C54.2835 26.0853 54.7071 26.8191 54.7071 27.6131V47.4078C54.7071 48.2019 54.2835 48.9356 53.5959 49.3326L36.4531 59.23C35.7655 59.627 34.9182 59.627 34.2306 59.23L17.0878 49.3326C16.4002 48.9356 15.9766 48.2019 15.9766 47.4078L15.9766 27.6131C15.9766 26.8191 16.4002 26.0853 17.0878 25.6883L34.2306 15.791Z" fill="#0602F3"/>
<path fill-rule="evenodd" clip-rule="evenodd" d="M52.8498 22.3304C52.8498 22.1032 52.9882 21.8989 53.1991 21.8145L57.2537 20.1926C57.4727 20.1051 57.7109 20.2663 57.7109 20.5022V36.1614C57.7109 36.3886 57.5726 36.5929 57.3617 36.6773L52.8498 38.482V22.3304Z" fill="url(#paint1_linear_3103_26996)" stroke="url(#paint2_linear_3103_26996)" stroke-width="0.55564" stroke-linecap="round" stroke-linejoin="round"/>
<mask id="mask2_3103_26996" style="mask-type:luminance" maskUnits="userSpaceOnUse" x="52" y="20" width="6" height="19">
<path fill-rule="evenodd" clip-rule="evenodd" d="M52.8498 22.7066C52.8498 22.2522 53.1265 21.8435 53.5484 21.6748L56.1869 20.6194C56.9169 20.3274 57.7109 20.865 57.7109 21.6512V35.7852C57.7109 36.2396 57.4343 36.6482 57.0124 36.817L54.3738 37.8724C53.6439 38.1644 52.8498 37.6268 52.8498 36.8406V22.7066Z" fill="white" stroke="white" stroke-width="0.55564"/>
</mask>
<g mask="url(#mask2_3103_26996)">
<g opacity="0.04">
<path fill-rule="evenodd" clip-rule="evenodd" d="M37.0125 12.1684C35.981 11.5728 34.7102 11.5728 33.6787 12.1684L15.9168 22.4232C14.8853 23.0188 14.2498 24.1194 14.2498 25.3104V45.8202C14.2498 47.0112 14.8853 48.1118 15.9168 48.7074L33.6787 58.9622C34.7102 59.5577 35.981 59.5577 37.0125 58.9622L54.7745 48.7074C55.806 48.1118 56.4414 47.0112 56.4414 45.8202L56.4414 25.3104C56.4414 24.1194 55.806 23.0188 54.7745 22.4232L37.0125 12.1684Z" fill="#0602F3" style="mix-blend-mode:multiply"/>
</g>
</g>
<path fill-rule="evenodd" clip-rule="evenodd" d="M17.8455 22.3304C17.8455 22.1032 17.7072 21.8989 17.4962 21.8145L13.4416 20.1926C13.2226 20.1051 12.9844 20.2663 12.9844 20.5022V36.1614C12.9844 36.3886 13.1227 36.5929 13.3337 36.6773L17.8455 38.482V22.3304Z" fill="url(#paint3_linear_3103_26996)" stroke="url(#paint4_linear_3103_26996)" stroke-width="0.55564" stroke-linecap="round" stroke-linejoin="round"/>
<mask id="mask3_3103_26996" style="mask-type:luminance" maskUnits="userSpaceOnUse" x="12" y="20" width="7" height="19">
<path fill-rule="evenodd" clip-rule="evenodd" d="M17.8455 22.7066C17.8455 22.2522 17.5688 21.8435 17.1469 21.6748L14.5084 20.6194C13.7784 20.3274 12.9844 20.865 12.9844 21.6512V35.7852C12.9844 36.2396 13.261 36.6482 13.6829 36.817L16.3215 37.8724C17.0514 38.1644 17.8455 37.6268 17.8455 36.8406V22.7066Z" fill="white" stroke="white" stroke-width="0.55564"/>
</mask>
<g mask="url(#mask3_3103_26996)">
<g opacity="0.04">
<path fill-rule="evenodd" clip-rule="evenodd" d="M33.6789 12.1684C34.7104 11.5728 35.9812 11.5728 37.0127 12.1684L54.7747 22.4232C55.8061 23.0188 56.4416 24.1194 56.4416 25.3104V45.8202C56.4416 47.0112 55.8061 48.1118 54.7747 48.7074L37.0127 58.9622C35.9812 59.5577 34.7104 59.5577 33.6789 58.9622L15.9169 48.7074C14.8854 48.1118 14.25 47.0112 14.25 45.8202L14.25 25.3104C14.25 24.1194 14.8854 23.0188 15.9169 22.4232L33.6789 12.1684Z" fill="#0602F3" style="mix-blend-mode:multiply"/>
</g>
</g>
<path fill-rule="evenodd" clip-rule="evenodd" d="M47.9809 16.8733C47.9809 16.4995 47.6192 16.2323 47.2619 16.3422L35.342 20.0099L23.4222 16.3422C23.0649 16.2323 22.7031 16.4995 22.7031 16.8733V32.0931C22.7031 32.4 22.9519 32.6488 23.2588 32.6488H47.4253C47.7321 32.6488 47.9809 32.4 47.9809 32.0931V16.8733Z" fill="url(#paint5_linear_3103_26996)" stroke="url(#paint6_linear_3103_26996)" stroke-width="0.55564" stroke-linecap="round" stroke-linejoin="round"/>
<mask id="mask4_3103_26996" style="mask-type:luminance" maskUnits="userSpaceOnUse" x="22" y="16" width="27" height="9">
<path fill-rule="evenodd" clip-rule="evenodd" d="M47.9809 16.8734C47.9809 16.4996 47.6192 16.2324 47.2619 16.3423L35.342 20.01L23.4222 16.3423C23.0649 16.2324 22.7031 16.4996 22.7031 16.8734V23.3432C22.7031 23.6501 22.9519 23.8989 23.2588 23.8989H47.4253C47.7321 23.8989 47.9809 23.6501 47.9809 23.3432V16.8734Z" fill="white" stroke="white" stroke-width="0.55564" stroke-linecap="round" stroke-linejoin="round"/>
</mask>
<g mask="url(#mask4_3103_26996)">
<g opacity="0.04">
<path fill-rule="evenodd" clip-rule="evenodd" d="M33.675 12.1684C34.7065 11.5728 35.9773 11.5728 37.0088 12.1684L54.7707 22.4232C55.8022 23.0188 56.4377 24.1194 56.4377 25.3104V45.8202C56.4377 47.0112 55.8022 48.1118 54.7707 48.7074L37.0088 58.9622C35.9773 59.5577 34.7065 59.5577 33.675 58.9622L15.913 48.7074C14.8815 48.1118 14.2461 47.0112 14.2461 45.8202L14.2461 25.3104C14.2461 24.1194 14.8815 23.0188 15.913 22.4232L33.675 12.1684Z" fill="#0602F3" style="mix-blend-mode:multiply"/>
</g>
</g>
<path fill-rule="evenodd" clip-rule="evenodd" d="M34.2303 13.8467C34.918 13.4497 35.7652 13.4497 36.4529 13.8467L53.5956 23.744C54.2832 24.1411 54.7069 24.8748 54.7069 25.6688V45.4635C54.7069 46.2576 54.2832 46.9913 53.5956 47.3883L36.4529 57.2857C35.7652 57.6827 34.918 57.6827 34.2303 57.2857L17.0876 47.3883C16.3999 46.9913 15.9763 46.2576 15.9763 45.4635V25.6688C15.9763 24.8748 16.3999 24.1411 17.0876 23.744L34.2303 13.8467Z" fill="url(#paint7_linear_3103_26996)" stroke="#FFF04D" stroke-opacity="0.4" stroke-width="0.55564"/>
<path d="M37.0454 14.7479C35.9926 14.14 34.6955 14.14 33.6426 14.7479L18.1662 23.6832C17.1134 24.291 16.4648 25.4144 16.4648 26.6301L16.4648 44.5007C16.4648 45.7164 17.1134 46.8397 18.1662 47.4476L33.6426 56.3829C34.6955 56.9907 35.9926 56.9907 37.0454 56.3829L52.5218 47.4476C53.5746 46.8397 54.2232 45.7164 54.2232 44.5007V26.6301C54.2232 25.4144 53.5746 24.291 52.5218 23.6832L37.0454 14.7479Z" stroke="#F9B307" stroke-width="0.55564"/>
<path opacity="0.4" d="M37.0469 56.3842C38.867 55.3333 40.1567 54.5887 40.916 54.1504" stroke="white" stroke-width="0.55564" stroke-linecap="round"/>
<path d="M54.2232 44.5007V26.6301C54.2232 25.4144 53.5746 24.291 52.5218 23.6832L37.0454 14.7479C35.9926 14.14 34.6955 14.14 33.6426 14.7479L18.1662 23.6832C17.1134 24.291 16.4648 25.4144 16.4648 26.6301L16.4648 44.5007" stroke="#FAC00E" stroke-width="0.55564" stroke-linecap="round"/>
<path opacity="0.6" d="M54.2232 26.6301C54.2232 25.4144 53.5746 24.291 52.5218 23.6832L37.0454 14.7479C35.9926 14.14 34.6955 14.14 33.6426 14.7479L18.1662 23.6832C17.1134 24.291 16.4648 25.4144 16.4648 26.6301" stroke="#FDDB3D" stroke-width="0.55564" stroke-linecap="round"/>
<path opacity="0.6" d="M37.0433 14.7479C35.9905 14.14 34.6934 14.14 33.6405 14.7479C33.6405 14.7479 28.4817 17.7263 25.9023 19.2155" stroke="white" stroke-width="0.55564" stroke-linecap="round"/>
<path d="M33.6425 14.749C33.6425 14.749 30.9123 16.3253 29.7734 16.9828" stroke="white" stroke-width="0.55564" stroke-linecap="round"/>
<g filter="url(#filter2_d_3103_26996)">
<path fill-rule="evenodd" clip-rule="evenodd" d="M34.7851 20.3306C35.1289 20.1321 35.5525 20.1321 35.8964 20.3306L48.2566 27.4667C48.6004 27.6653 48.8122 28.0321 48.8122 28.4291V42.7015C48.8122 43.0985 48.6004 43.4654 48.2566 43.6639L35.8964 50.8001C35.5525 50.9986 35.1289 50.9986 34.7851 50.8001L22.4248 43.6639C22.081 43.4654 21.8692 43.0985 21.8692 42.7015V28.4291C21.8692 28.0321 22.081 27.6653 22.4248 27.4667L34.7851 20.3306Z" fill="url(#paint8_linear_3103_26996)"/>
<path d="M36.0353 20.09C35.6055 19.8418 35.076 19.8418 34.6462 20.09L22.2859 27.2261C21.8561 27.4743 21.5914 27.9329 21.5914 28.4291V42.7015C21.5914 43.1978 21.8561 43.6564 22.2859 43.9045L34.6462 51.0407C35.076 51.2888 35.6055 51.2888 36.0353 51.0407L48.3955 43.9045C48.8253 43.6564 49.09 43.1978 49.09 42.7015V28.4291C49.09 27.9329 48.8253 27.4743 48.3955 27.2261L36.0353 20.09Z" stroke="#F5900D" stroke-opacity="0.1" stroke-width="0.55564" style="mix-blend-mode:multiply"/>
</g>
<mask id="mask5_3103_26996" style="mask-type:luminance" maskUnits="userSpaceOnUse" x="21" y="20" width="28" height="31">
<path fill-rule="evenodd" clip-rule="evenodd" d="M34.7851 20.3306C35.1289 20.1321 35.5525 20.1321 35.8964 20.3306L48.2566 27.4667C48.6004 27.6653 48.8122 28.0321 48.8122 28.4291V42.7015C48.8122 43.0985 48.6004 43.4654 48.2566 43.6639L35.8964 50.8001C35.5525 50.9986 35.1289 50.9986 34.7851 50.8001L22.4248 43.6639C22.081 43.4654 21.8692 43.0985 21.8692 42.7015V28.4291C21.8692 28.0321 22.081 27.6653 22.4248 27.4667L34.7851 20.3306Z" fill="white"/>
</mask>
<g mask="url(#mask5_3103_26996)">
<g style="mix-blend-mode:multiply" opacity="0.3">
<path fill-rule="evenodd" clip-rule="evenodd" d="M35.3407 35.5653L19.7852 39.4542V31.6764L35.3407 35.5653ZM35.3407 35.5653L39.2296 20.0098H31.4518L35.3407 35.5653ZM35.3407 35.5653L50.8963 31.6764V39.4542L35.3407 35.5653ZM35.3407 35.5653L43.5903 21.816L49.09 27.3157L35.3407 35.5653ZM35.3407 35.5653L43.5903 49.3146L49.09 43.8149L35.3407 35.5653ZM35.3407 35.5653L31.4518 51.1209H39.2296L35.3407 35.5653ZM35.3407 35.5653L27.0911 49.3146L21.5914 43.8149L35.3407 35.5653Z" fill="#FFD640"/>
<path d="M27.0911 21.816L21.5914 27.3157L35.3407 35.5653L27.0911 21.816Z" fill="#FFD640"/>
</g>
<path opacity="0.4" d="M47.5984 27.6474L36.0713 20.9923C35.6201 20.7317 35.0642 20.7317 34.613 20.9923C33.2573 21.775 32.2967 22.3296 31.7312 22.656C30.5544 23.3355 29.5938 23.8901 28.8495 24.3198C27.5687 25.0593 25.6475 26.1685 23.0859 27.6474" stroke="white" stroke-width="0.55564" stroke-linecap="round"/>
<path opacity="0.4" d="M47.5987 43.4503L36.0716 50.1054C35.6204 50.3659 35.0645 50.3659 34.6133 50.1054" stroke="white" stroke-width="0.55564" stroke-linecap="round"/>
<path d="M34.6122 20.9912C33.2565 21.7739 32.296 22.3285 31.7305 22.655" stroke="white" stroke-width="0.55564" stroke-linecap="round"/>
</g>
<g filter="url(#filter3_d_3103_26996)">
<path d="M32.8669 32.1528L35.3463 28.5352L37.8257 32.1528L42.0324 33.3929L39.358 36.8689L39.4786 41.253L35.3463 39.7835L31.214 41.253L31.3346 36.8689L28.6602 33.3929L32.8669 32.1528Z" fill="white"/>
<path d="M35.8046 28.221C35.701 28.0699 35.5296 27.9795 35.3463 27.9795C35.163 27.9795 34.9916 28.0699 34.888 28.221L32.5203 31.6757L28.503 32.86C28.3273 32.9118 28.1883 33.0469 28.1317 33.2212C28.0751 33.3955 28.108 33.5865 28.2198 33.7318L30.7738 37.0511L30.6586 41.2377C30.6536 41.4209 30.7392 41.5948 30.8874 41.7025C31.0357 41.8102 31.2275 41.8379 31.4002 41.7765L35.3463 40.3733L39.2924 41.7765C39.4651 41.8379 39.6569 41.8102 39.8052 41.7025C39.9534 41.5948 40.039 41.4209 40.034 41.2377L39.9188 37.0511L42.4728 33.7318C42.5846 33.5865 42.6175 33.3955 42.5609 33.2212C42.5043 33.0469 42.3653 32.9118 42.1896 32.86L38.1723 31.6757L35.8046 28.221Z" stroke="white" stroke-width="1.11128" stroke-linejoin="round"/>
</g>
<path d="M32.8669 32.1528L35.3463 28.5352L37.8257 32.1528L42.0324 33.3929L39.358 36.8689L39.4786 41.253L35.3463 39.7835L31.214 41.253L31.3346 36.8689L28.6602 33.3929L32.8669 32.1528Z" fill="url(#paint9_linear_3103_26996)"/>
<path opacity="0.4" d="M35.3483 35.5654V28.5352L32.8359 32.1031L35.3483 35.5654Z" fill="url(#paint10_linear_3103_26996)"/>
<path opacity="0.8" d="M35.3463 35.5649L32.834 32.1025L28.6602 33.3924L35.3463 35.5649Z" fill="url(#paint11_linear_3103_26996)"/>
<path opacity="0.5" d="M35.3432 35.5645L31.2753 36.8879L31.2109 41.252L35.3432 35.5645Z" fill="url(#paint12_linear_3103_26996)"/>
<path opacity="0.4" d="M39.476 41.252L39.4117 36.8879L35.3438 35.5645L39.476 41.252Z" fill="url(#paint13_linear_3103_26996)"/>
<path d="M39.4117 36.8885L42.0299 33.3926L35.3438 35.565L39.4117 36.8885Z" fill="#FEBA1B"/>
<path opacity="0.6" d="M42.0299 33.3924L37.8561 32.1025L35.3438 35.5649L42.0299 33.3924Z" fill="url(#paint14_linear_3103_26996)"/>
<g filter="url(#filter4_d_3103_26996)">
<path fill-rule="evenodd" clip-rule="evenodd" d="M45.9481 29.5197L45.4432 29.3205C45.1344 29.1987 44.9828 28.8497 45.1046 28.5409C45.1657 28.386 45.2883 28.2634 45.4432 28.2023L45.9481 28.0031C46.5304 27.7735 46.9913 27.3126 47.2209 26.7303L47.42 26.2254C47.5418 25.9166 47.8909 25.765 48.1997 25.8868C48.3546 25.9479 48.4772 26.0705 48.5383 26.2254L48.7374 26.7303C48.9671 27.3126 49.428 27.7735 50.0102 28.0031L50.5151 28.2023C50.8239 28.324 50.9755 28.6731 50.8538 28.9819C50.7927 29.1368 50.67 29.2594 50.5151 29.3205L50.0102 29.5197C49.428 29.7493 48.9671 30.2102 48.7374 30.7925L48.5383 31.2974C48.4165 31.6062 48.0674 31.7578 47.7586 31.636C47.6037 31.5749 47.4811 31.4523 47.42 31.2974L47.2209 30.7925C46.9913 30.2102 46.5304 29.7493 45.9481 29.5197Z" fill="white"/>
</g>
<g filter="url(#filter5_d_3103_26996)">
<path fill-rule="evenodd" clip-rule="evenodd" d="M24.2662 45.7947L23.9296 45.6619C23.7237 45.5807 23.6226 45.348 23.7038 45.1422C23.7446 45.0389 23.8263 44.9571 23.9296 44.9164L24.2662 44.7837C24.6544 44.6306 24.9616 44.3233 25.1147 43.9351L25.2475 43.5985C25.3287 43.3927 25.5614 43.2916 25.7672 43.3728C25.8705 43.4135 25.9523 43.4953 25.993 43.5985L26.1257 43.9351C26.2788 44.3233 26.5861 44.6306 26.9743 44.7837L27.3109 44.9164C27.5167 44.9976 27.6178 45.2303 27.5366 45.4362C27.4959 45.5395 27.4141 45.6212 27.3109 45.6619L26.9743 45.7947C26.5861 45.9478 26.2788 46.255 26.1257 46.6432L25.993 46.9798C25.9118 47.1857 25.6791 47.2868 25.4732 47.2056C25.3699 47.1648 25.2882 47.0831 25.2475 46.9798L25.1147 46.6432C24.9616 46.255 24.6544 45.9478 24.2662 45.7947Z" fill="white"/>
</g>
<g filter="url(#filter6_d_3103_26996)">
<path fill-rule="evenodd" clip-rule="evenodd" d="M20.5232 30.8515L20.1024 30.6856C19.8451 30.5841 19.7187 30.2932 19.8202 30.0359C19.8711 29.9068 19.9733 29.8046 20.1024 29.7537L20.5232 29.5877C21.0084 29.3964 21.3925 29.0123 21.5838 28.5271L21.7498 28.1063C21.8513 27.849 22.1421 27.7226 22.3995 27.8241C22.5286 27.875 22.6307 27.9772 22.6817 28.1063L22.8476 28.5271C23.039 29.0123 23.4231 29.3964 23.9083 29.5877L24.329 29.7537C24.5864 29.8552 24.7127 30.146 24.6112 30.4034C24.5603 30.5325 24.4581 30.6347 24.329 30.6856L23.9083 30.8515C23.4231 31.0429 23.039 31.427 22.8476 31.9122L22.6817 32.3329C22.5802 32.5903 22.2893 32.7166 22.0319 32.6151C21.9029 32.5642 21.8007 32.462 21.7498 32.3329L21.5838 31.9122C21.3925 31.427 21.0084 31.0429 20.5232 30.8515Z" fill="white"/>
</g>
<g filter="url(#filter7_d_3103_26996)">
<path fill-rule="evenodd" clip-rule="evenodd" d="M45.5053 45.1822L45.2528 45.0826C45.0984 45.0217 45.0226 44.8472 45.0835 44.6928C45.1141 44.6153 45.1754 44.554 45.2528 44.5235L45.5053 44.4239C45.7964 44.3091 46.0269 44.0787 46.1417 43.7875L46.2413 43.5351C46.3022 43.3807 46.4767 43.3049 46.6311 43.3658C46.7085 43.3963 46.7699 43.4576 46.8004 43.5351L46.9 43.7875C47.0148 44.0787 47.2452 44.3091 47.5364 44.4239L47.7888 44.5235C47.9432 44.5844 48.019 44.7589 47.9581 44.9133C47.9276 44.9908 47.8663 45.0521 47.7888 45.0826L47.5364 45.1822C47.2452 45.297 47.0148 45.5275 46.9 45.8186L46.8004 46.071C46.7395 46.2254 46.565 46.3012 46.4106 46.2404C46.3331 46.2098 46.2718 46.1485 46.2413 46.071L46.1417 45.8186C46.0269 45.5275 45.7964 45.297 45.5053 45.1822Z" fill="white"/>
</g>
<defs>
<filter id="filter0_d_3103_26996" x="11.3575" y="32.6504" width="31.8358" height="38.1044" filterUnits="userSpaceOnUse" color-interpolation-filters="sRGB">
<feFlood flood-opacity="0" result="BackgroundImageFix"/>
<feColorMatrix in="SourceAlpha" type="matrix" values="0 0 0 0 0 0 0 0 0 0 0 0 0 0 0 0 0 0 127 0" result="hardAlpha"/>
<feOffset dy="1.11128"/>
<feGaussianBlur stdDeviation="0.55564"/>
<feColorMatrix type="matrix" values="0 0 0 0 0.401412 0 0 0 0 0.333333 0 0 0 0 0.819608 0 0 0 0.2 0"/>
<feBlend mode="darken" in2="BackgroundImageFix" result="effect1_dropShadow_3103_26996"/>
<feBlend mode="normal" in="SourceGraphic" in2="effect1_dropShadow_3103_26996" result="shape"/>
</filter>
<filter id="filter1_d_3103_26996" x="27.4903" y="32.6504" width="31.8358" height="38.1044" filterUnits="userSpaceOnUse" color-interpolation-filters="sRGB">
<feFlood flood-opacity="0" result="BackgroundImageFix"/>
<feColorMatrix in="SourceAlpha" type="matrix" values="0 0 0 0 0 0 0 0 0 0 0 0 0 0 0 0 0 0 127 0" result="hardAlpha"/>
<feOffset dy="1.11128"/>
<feGaussianBlur stdDeviation="0.55564"/>
<feColorMatrix type="matrix" values="0 0 0 0 0.401412 0 0 0 0 0.333333 0 0 0 0 0.819608 0 0 0 0.2 0"/>
<feBlend mode="darken" in2="BackgroundImageFix" result="effect1_dropShadow_3103_26996"/>
<feBlend mode="normal" in="SourceGraphic" in2="effect1_dropShadow_3103_26996" result="shape"/>
</filter>
<filter id="filter2_d_3103_26996" x="20.2012" y="19.0703" width="30.2772" height="34.1015" filterUnits="userSpaceOnUse" color-interpolation-filters="sRGB">
<feFlood flood-opacity="0" result="BackgroundImageFix"/>
<feColorMatrix in="SourceAlpha" type="matrix" values="0 0 0 0 0 0 0 0 0 0 0 0 0 0 0 0 0 0 127 0" result="hardAlpha"/>
<feOffset dy="0.55564"/>
<feGaussianBlur stdDeviation="0.55564"/>
<feColorMatrix type="matrix" values="0 0 0 0 0.927721 0 0 0 0 0.665867 0 0 0 0 0.0535899 0 0 0 0.4 0"/>
<feBlend mode="normal" in2="BackgroundImageFix" result="effect1_dropShadow_3103_26996"/>
<feBlend mode="normal" in="SourceGraphic" in2="effect1_dropShadow_3103_26996" result="shape"/>
</filter>
<filter id="filter3_d_3103_26996" x="26.4395" y="26.8682" width="17.8163" height="17.163" filterUnits="userSpaceOnUse" color-interpolation-filters="sRGB">
<feFlood flood-opacity="0" result="BackgroundImageFix"/>
<feColorMatrix in="SourceAlpha" type="matrix" values="0 0 0 0 0 0 0 0 0 0 0 0 0 0 0 0 0 0 127 0" result="hardAlpha"/>
<feOffset dy="0.55564"/>
<feGaussianBlur stdDeviation="0.55564"/>
<feColorMatrix type="matrix" values="0 0 0 0 0.996078 0 0 0 0 0.733333 0 0 0 0 0.105882 0 0 0 1 0"/>
<feBlend mode="normal" in2="BackgroundImageFix" result="effect1_dropShadow_3103_26996"/>
<feBlend mode="normal" in="SourceGraphic" in2="effect1_dropShadow_3103_26996" result="shape"/>
</filter>
<filter id="filter4_d_3103_26996" x="43.9512" y="24.7334" width="8.05459" height="8.05557" filterUnits="userSpaceOnUse" color-interpolation-filters="sRGB">
<feFlood flood-opacity="0" result="BackgroundImageFix"/>
<feColorMatrix in="SourceAlpha" type="matrix" values="0 0 0 0 0 0 0 0 0 0 0 0 0 0 0 0 0 0 127 0" result="hardAlpha"/>
<feOffset/>
<feGaussianBlur stdDeviation="0.55564"/>
<feColorMatrix type="matrix" values="0 0 0 0 1 0 0 0 0 0.94902 0 0 0 0 0.305882 0 0 0 1 0"/>
<feBlend mode="normal" in2="BackgroundImageFix" result="effect1_dropShadow_3103_26996"/>
<feBlend mode="normal" in="SourceGraphic" in2="effect1_dropShadow_3103_26996" result="shape"/>
</filter>
<filter id="filter5_d_3103_26996" x="22.5645" y="42.2334" width="6.11319" height="6.11123" filterUnits="userSpaceOnUse" color-interpolation-filters="sRGB">
<feFlood flood-opacity="0" result="BackgroundImageFix"/>
<feColorMatrix in="SourceAlpha" type="matrix" values="0 0 0 0 0 0 0 0 0 0 0 0 0 0 0 0 0 0 127 0" result="hardAlpha"/>
<feOffset/>
<feGaussianBlur stdDeviation="0.55564"/>
<feColorMatrix type="matrix" values="0 0 0 0 1 0 0 0 0 0.94902 0 0 0 0 0.305882 0 0 0 1 0"/>
<feBlend mode="normal" in2="BackgroundImageFix" result="effect1_dropShadow_3103_26996"/>
<feBlend mode="normal" in="SourceGraphic" in2="effect1_dropShadow_3103_26996" result="shape"/>
</filter>
<filter id="filter6_d_3103_26996" x="18.6739" y="26.6778" width="7.08194" height="7.08389" filterUnits="userSpaceOnUse" color-interpolation-filters="sRGB">
<feFlood flood-opacity="0" result="BackgroundImageFix"/>
<feColorMatrix in="SourceAlpha" type="matrix" values="0 0 0 0 0 0 0 0 0 0 0 0 0 0 0 0 0 0 127 0" result="hardAlpha"/>
<feOffset/>
<feGaussianBlur stdDeviation="0.55564"/>
<feColorMatrix type="matrix" values="0 0 0 0 1 0 0 0 0 0.94902 0 0 0 0 0.305882 0 0 0 1 0"/>
<feBlend mode="normal" in2="BackgroundImageFix" result="effect1_dropShadow_3103_26996"/>
<feBlend mode="normal" in="SourceGraphic" in2="effect1_dropShadow_3103_26996" result="shape"/>
</filter>
<filter id="filter7_d_3103_26996" x="43.9512" y="42.2334" width="5.14053" height="5.13955" filterUnits="userSpaceOnUse" color-interpolation-filters="sRGB">
<feFlood flood-opacity="0" result="BackgroundImageFix"/>
<feColorMatrix in="SourceAlpha" type="matrix" values="0 0 0 0 0 0 0 0 0 0 0 0 0 0 0 0 0 0 127 0" result="hardAlpha"/>
<feOffset/>
<feGaussianBlur stdDeviation="0.55564"/>
<feColorMatrix type="matrix" values="0 0 0 0 1 0 0 0 0 0.94902 0 0 0 0 0.305882 0 0 0 1 0"/>
<feBlend mode="normal" in2="BackgroundImageFix" result="effect1_dropShadow_3103_26996"/>
<feBlend mode="normal" in="SourceGraphic" in2="effect1_dropShadow_3103_26996" result="shape"/>
</filter>
<linearGradient id="paint0_linear_3103_26996" x1="5.20703" y1="6.39941" x2="5.20703" y2="64.7327" gradientUnits="userSpaceOnUse">
<stop stop-color="#6F61EC"/>
<stop offset="1" stop-color="#3D2CD4"/>
</linearGradient>
<linearGradient id="paint1_linear_3103_26996" x1="57.7109" y1="20.0098" x2="57.7109" y2="38.482" gradientUnits="userSpaceOnUse">
<stop stop-color="#F7C71A"/>
<stop offset="1" stop-color="#FBAA00"/>
</linearGradient>
<linearGradient id="paint2_linear_3103_26996" x1="57.7109" y1="20.0098" x2="57.7109" y2="38.482" gradientUnits="userSpaceOnUse">
<stop stop-color="#FFDF6B"/>
<stop offset="1" stop-color="#F8A60A"/>
</linearGradient>
<linearGradient id="paint3_linear_3103_26996" x1="12.9844" y1="20.0098" x2="12.9844" y2="38.482" gradientUnits="userSpaceOnUse">
<stop stop-color="#F7C71A"/>
<stop offset="1" stop-color="#FBAA00"/>
</linearGradient>
<linearGradient id="paint4_linear_3103_26996" x1="12.9844" y1="20.0098" x2="12.9844" y2="38.482" gradientUnits="userSpaceOnUse">
<stop stop-color="#FFDF6B"/>
<stop offset="1" stop-color="#F8A60A"/>
</linearGradient>
<linearGradient id="paint5_linear_3103_26996" x1="22.7031" y1="16.4648" x2="22.7031" y2="32.6488" gradientUnits="userSpaceOnUse">
<stop stop-color="#F7C71A"/>
<stop offset="1" stop-color="#FBAA00"/>
</linearGradient>
<linearGradient id="paint6_linear_3103_26996" x1="22.7031" y1="16.4648" x2="22.7031" y2="32.6488" gradientUnits="userSpaceOnUse">
<stop stop-color="#FFDF6B"/>
<stop offset="1" stop-color="#F8A60A"/>
</linearGradient>
<linearGradient id="paint7_linear_3103_26996" x1="12.9805" y1="13.2051" x2="12.9805" y2="57.9273" gradientUnits="userSpaceOnUse">
<stop stop-color="#FDE046"/>
<stop offset="1" stop-color="#F9B800"/>
</linearGradient>
<linearGradient id="paint8_linear_3103_26996" x1="19.7852" y1="20.0098" x2="19.7852" y2="51.1209" gradientUnits="userSpaceOnUse">
<stop stop-color="#FFF550"/>
<stop offset="1" stop-color="#FFD541"/>
</linearGradient>
<linearGradient id="paint9_linear_3103_26996" x1="28.316" y1="28.5352" x2="28.316" y2="42.5956" gradientUnits="userSpaceOnUse">
<stop stop-color="#FCA50E"/>
<stop offset="1" stop-color="#FFC823"/>
</linearGradient>
<linearGradient id="paint10_linear_3103_26996" x1="32.8359" y1="26.7776" x2="28.6787" y2="29.7488" gradientUnits="userSpaceOnUse">
<stop stop-color="#FFEC36" stop-opacity="0.467505"/>
<stop offset="1" stop-color="#FFF7AB"/>
</linearGradient>
<linearGradient id="paint11_linear_3103_26996" x1="28.7024" y1="32.9572" x2="32.6201" y2="37.7796" gradientUnits="userSpaceOnUse">
<stop stop-color="#FFED08" stop-opacity="0.8"/>
<stop offset="1" stop-color="white"/>
</linearGradient>
<linearGradient id="paint12_linear_3103_26996" x1="33.2771" y1="42.6739" x2="36.5973" y2="37.8494" gradientUnits="userSpaceOnUse">
<stop stop-color="#FFED08" stop-opacity="0.01"/>
<stop offset="1" stop-color="#FFEF63"/>
</linearGradient>
<linearGradient id="paint13_linear_3103_26996" x1="35.3438" y1="34.1426" x2="32.0235" y2="38.9671" gradientUnits="userSpaceOnUse">
<stop stop-color="#FFEC36" stop-opacity="0.467505"/>
<stop offset="1" stop-color="#FFE94A"/>
</linearGradient>
<linearGradient id="paint14_linear_3103_26996" x1="35.3438" y1="31.237" x2="34.2936" y2="35.2929" gradientUnits="userSpaceOnUse">
<stop stop-color="#FFEC36" stop-opacity="0.467505"/>
<stop offset="1" stop-color="#FFF7AB"/>
</linearGradient>
</defs>
</svg>
