<svg width="40" height="41" viewBox="0 0 40 41" fill="none" xmlns="http://www.w3.org/2000/svg">
<rect x="5" y="2.15234" width="27" height="35" fill="#F9FFD5"/>
<rect x="36.3242" y="9.4624" width="3.90661" height="24.3868" transform="rotate(30.7868 36.3242 9.4624)" fill="#DE9E79"/>
<path d="M5.26465 2.3508L5.03906 2.54905V19.6525V36.7559L5.26465 36.9541L5.4834 37.1523H18.5126C27.9735 37.1523 31.576 37.1318 31.6854 37.0771C31.7674 37.0361 31.8905 36.9336 31.952 36.8516C32.0614 36.7217 32.075 36.3457 32.075 31.793V26.8848L35.7938 20.4454C37.8377 16.9113 39.5877 13.8556 39.6834 13.6642C40.4763 12.0988 39.6492 10.1916 37.9471 9.66521C36.9148 9.34392 35.7459 9.65837 35.0281 10.465C34.8367 10.6769 34.1805 11.7365 33.408 13.0832L32.1092 15.339L32.075 13.3429C32.0545 12.2492 32.0272 11.34 32.0203 11.3263C32.0135 11.3195 31.9041 11.2511 31.7879 11.1759C31.4735 10.9845 31.2274 11.005 30.9676 11.2375L30.742 11.4357L30.7078 14.6417L30.6737 17.8409L26.9003 24.3692L23.1337 30.8975L22.8739 33.3379L22.6141 35.7852H14.4931H6.37206V19.6525V3.51974H18.5331H30.701L30.7215 4.68868L30.742 5.85762L30.9676 6.05586C31.2889 6.34297 31.6717 6.30195 31.952 5.95332C32.0614 5.83027 32.075 5.6252 32.075 4.217C32.075 3.25314 32.0477 2.56955 32.0067 2.48752C31.8153 2.13205 32.5672 2.15256 18.5126 2.15256H5.4834L5.26465 2.3508ZM37.7146 11.0324C38.0769 11.1965 38.4734 11.6476 38.576 12.0099C38.6375 12.2287 38.6375 12.3996 38.5828 12.6662C38.5076 13.0216 38.1111 13.7736 37.9949 13.7736C37.9607 13.7736 37.3728 13.4455 36.6824 13.049L35.4246 12.3244L35.6092 12.0099C35.9305 11.4357 36.1219 11.2306 36.4773 11.0666C36.8943 10.8683 37.3387 10.8547 37.7146 11.0324ZM37.284 15.0792C37.2566 15.1954 27.495 32.1075 27.3924 32.2237C27.3172 32.2989 27.0985 32.1963 26.0321 31.5811C25.3348 31.1778 24.7606 30.836 24.7606 30.8291C24.7606 30.8086 34.3582 14.1564 34.7137 13.5548C34.7615 13.4796 37.3045 14.9904 37.284 15.0792ZM30.6873 35.7647C30.6737 35.7783 29.4705 35.7783 28.0145 35.7715L25.369 35.751L26.5858 34.8692C27.2557 34.3838 27.8846 33.9121 27.9872 33.8164C28.0897 33.7207 28.7391 32.668 29.4227 31.4717L30.6737 29.3047L30.6942 32.5244C30.701 34.2881 30.701 35.751 30.6873 35.7647ZM25.3758 32.7842C25.909 33.0918 26.326 33.3516 26.3192 33.3653C26.2167 33.461 24.118 34.958 24.0975 34.9443C24.0839 34.9307 24.1386 34.3701 24.2137 33.6934C24.2889 33.0235 24.3505 32.4151 24.3505 32.3467C24.3505 32.2852 24.3641 32.2305 24.3846 32.2305C24.4052 32.2305 24.8495 32.4834 25.3758 32.7842Z" fill="#247193"/>
<path d="M34.6719 4.01966C34.4609 4.20716 34.4141 4.30091 34.4141 4.57434C34.4141 5.13684 35.0078 5.51966 35.4922 5.26966C36.2422 4.88684 35.9688 3.79309 35.125 3.79309C35.0156 3.79309 34.8125 3.89466 34.6719 4.01966Z" fill="#247193"/>
<path d="M12.0938 5.66016C11.8828 5.84766 11.8359 5.94141 11.8359 6.21484C11.8359 6.48828 11.8828 6.58203 12.0938 6.76953L12.3438 6.99609H20.4375C26.2422 6.99609 28.5703 6.97266 28.6953 6.91016C29.0938 6.70703 29.2656 6.19922 29.0625 5.81641C28.8438 5.41797 29.1328 5.43359 20.4375 5.43359H12.3438L12.0938 5.66016Z" fill="#247193"/>
<path d="M12.0938 10.0352C11.8828 10.2227 11.8359 10.3164 11.8359 10.5898C11.8359 10.8633 11.8828 10.957 12.0938 11.1445L12.3438 11.3711H20.4375C26.2422 11.3711 28.5703 11.3477 28.6953 11.2852C29.0938 11.082 29.2656 10.5742 29.0625 10.1914C28.8438 9.79297 29.1328 9.80859 20.4375 9.80859H12.3438L12.0938 10.0352Z" fill="#247193"/>
<path d="M12.0938 14.4102C11.8828 14.5977 11.8359 14.6914 11.8359 14.9648C11.8359 15.2383 11.8828 15.332 12.0938 15.5195L12.3438 15.7461H15.1953H18.0469L18.2969 15.5195C18.5078 15.332 18.5547 15.2383 18.5547 14.9648C18.5547 14.6914 18.5078 14.5977 18.2969 14.4102L18.0469 14.1836H15.1953H12.3438L12.0938 14.4102Z" fill="#247193"/>
<path d="M22.1955 14.2929C21.6721 14.5819 21.6877 15.4101 22.2268 15.6523C22.508 15.7773 28.4455 15.7851 28.6955 15.6601C29.0939 15.4569 29.2658 14.9491 29.0627 14.5663C28.8596 14.1991 28.7268 14.1835 25.4533 14.1835C23.0549 14.1913 22.3439 14.2148 22.1955 14.2929Z" fill="#247193"/>
<path d="M12.0938 18.7852C11.8828 18.9727 11.8359 19.0664 11.8359 19.3398C11.8359 19.6133 11.8828 19.707 12.0938 19.8945L12.3438 20.1211H20.4375C26.2422 20.1211 28.5703 20.0977 28.6953 20.0352C29.0938 19.832 29.2656 19.3242 29.0625 18.9414C28.8438 18.543 29.1328 18.5586 20.4375 18.5586H12.3438L12.0938 18.7852Z" fill="#247193"/>
<path d="M12.0938 23.1602C11.8828 23.3477 11.8359 23.4414 11.8359 23.7148C11.8359 23.9883 11.8828 24.082 12.0938 24.2695L12.3438 24.4961H14.6094H16.875L17.125 24.2695C17.3359 24.082 17.3828 23.9883 17.3828 23.7148C17.3828 23.4414 17.3359 23.3477 17.125 23.1602L16.875 22.9336H14.6094H12.3438L12.0938 23.1602Z" fill="#247193"/>
<path d="M19.7988 23.0118C19.3613 23.1837 19.2363 23.8555 19.5644 24.2383L19.7519 24.4571L22.4004 24.4805C23.8535 24.4962 25.1269 24.4805 25.2207 24.4571C25.666 24.3477 25.9238 23.7383 25.705 23.3165C25.5097 22.9571 25.33 22.9337 22.5644 22.9415C21.1347 22.9415 19.8847 22.9727 19.7988 23.0118Z" fill="#247193"/>
<path d="M12.0937 27.5352C11.8828 27.7227 11.8359 27.8164 11.8359 28.0898C11.8359 28.3633 11.8828 28.457 12.0937 28.6445L12.3437 28.8711H15.9844C18.5078 28.8711 19.6719 28.8477 19.7891 28.7852C20.1875 28.582 20.3594 28.0742 20.1562 27.6914C19.9531 27.3164 19.8594 27.3086 15.9844 27.3086H12.3437L12.0937 27.5352Z" fill="#247193"/>
<path d="M23.8921 35.2012L23.8927 31.2951L27.1717 33.0795L23.8921 35.2012Z" fill="#989898"/>
</svg>
