<svg width="25" height="25" viewBox="0 0 25 25" fill="none" xmlns="http://www.w3.org/2000/svg">
<path d="M4.45312 10.5C4.45312 6.729 4.45312 4.843 5.62512 3.672C6.79712 2.501 8.68213 2.5 12.4531 2.5H13.9531C17.7241 2.5 19.6101 2.5 20.7811 3.672C21.9521 4.844 21.9531 6.729 21.9531 10.5V14.5C21.9531 18.271 21.9531 20.157 20.7811 21.328C19.6091 22.499 17.7241 22.5 13.9531 22.5H12.4531C8.68213 22.5 6.79612 22.5 5.62512 21.328C4.45412 20.156 4.45312 18.271 4.45312 14.5V10.5Z" stroke="#394F89" stroke-width="1.5" stroke-linecap="round" stroke-linejoin="round"/>
<path d="M10.2531 12.474C9.82613 11.73 9.62013 11.123 9.49613 10.507C9.31213 9.597 9.73312 8.707 10.4291 8.139C10.7241 7.899 11.0611 7.981 11.2351 8.294L11.6281 8.999C11.9391 9.557 12.0951 9.837 12.0641 10.133C12.0341 10.429 11.8241 10.67 11.4041 11.153L10.2531 12.474ZM10.2531 12.474C11.1532 14.0164 12.4367 15.2999 13.9791 16.2M13.9791 16.2C14.7231 16.627 15.3301 16.833 15.9461 16.957C16.8561 17.141 17.7461 16.72 18.3141 16.024C18.5541 15.729 18.4721 15.392 18.1591 15.218L17.4551 14.825C16.8951 14.514 16.6161 14.358 16.3201 14.389C16.0241 14.419 15.7831 14.629 15.3001 15.049L13.9791 16.2ZM5.45312 6.5H2.95312M5.45312 12.5H2.95312M5.45312 18.5H2.95312" stroke="#394F89" stroke-width="1.5" stroke-linecap="round" stroke-linejoin="round"/>
</svg>
