<svg width="40" height="41" viewBox="0 0 40 41" fill="none" xmlns="http://www.w3.org/2000/svg">
<rect x="4" y="8.15234" width="32" height="30" fill="white"/>
<path d="M5.83333 39.5966C5.01481 39.5966 4.33796 39.329 3.80278 38.7938C3.26759 38.2587 3 37.5818 3 36.7633V8.42996C3 7.61144 3.26759 6.93459 3.80278 6.3994C4.33796 5.86422 5.01481 5.59663 5.83333 5.59663H15.3722C15.5926 4.49477 16.1356 3.58968 17.0014 2.88135C17.8671 2.17301 18.8667 1.81885 20 1.81885C21.1333 1.81885 22.1329 2.17301 22.9986 2.88135C23.8643 3.58968 24.4074 4.49477 24.6278 5.59663H34.1667C34.9852 5.59663 35.662 5.86422 36.1972 6.3994C36.7324 6.93459 37 7.61144 37 8.42996V36.7633C37 37.5818 36.7324 38.2587 36.1972 38.7938C35.662 39.329 34.9852 39.5966 34.1667 39.5966H5.83333ZM5.83333 36.7633H34.1667V8.42996H31.3333V12.68H8.66667V8.42996H5.83333V36.7633ZM20 8.42996C20.5352 8.42996 20.9838 8.24894 21.3458 7.8869C21.7079 7.52487 21.8889 7.07625 21.8889 6.54107C21.8889 6.00588 21.7079 5.55727 21.3458 5.19524C20.9838 4.8332 20.5352 4.65218 20 4.65218C19.4648 4.65218 19.0162 4.8332 18.6542 5.19524C18.2921 5.55727 18.1111 6.00588 18.1111 6.54107C18.1111 7.07625 18.2921 7.52487 18.6542 7.8869C19.0162 8.24894 19.4648 8.42996 20 8.42996Z" fill="#FFD89D"/>
<path d="M10.7 27.9075L11.8232 27.1589L10.723 25.5099L11.8232 23.8609L10.7 23.1123L9.9116 24.2939L9.1232 23.1123L8 23.8609L9.10025 25.5099L8 27.1589L9.1232 27.9075L9.9116 26.7259L10.7 27.9075Z" fill="#D25C5C"/>
<path d="M13.0112 17.1054L12.0555 16.1523L9.82969 18.3719L8.95574 17.5004L8 18.4534L9.82969 20.2779L13.0112 17.1054Z" fill="#97D25C"/>
<path d="M13.0112 31.1054L12.0555 30.1523L9.82969 32.3719L8.95574 31.5004L8 32.4534L9.82969 34.2779L13.0112 31.1054Z" fill="#97D25C"/>
<path fill-rule="evenodd" clip-rule="evenodd" d="M15.2834 24.2725L29.5166 24.2725C30.2254 24.2725 30.8 24.5239 30.8 25.3035C30.8 26.0831 30.2254 26.4325 29.5166 26.4325H15.2834C14.5746 26.4325 14 26.0831 14 25.3035C14 24.5239 14.5746 24.2725 15.2834 24.2725Z" fill="#868686"/>
<path d="M30.8 18.1923C30.8 17.5957 30.1653 17.1123 29.3823 17.1123H15.4177C14.6347 17.1123 14 17.5957 14 18.1923C14 18.7889 14.6347 19.2723 15.4177 19.2723H29.3823C30.1653 19.2723 30.8 18.7889 30.8 18.1923Z" fill="#868686"/>
<path d="M30.8 32.5121C30.8 31.9155 30.1653 31.4321 29.3823 31.4321H15.4177C14.6347 31.4321 14 31.9155 14 32.5121C14 33.1087 14.6347 33.5921 15.4177 33.5921H29.3823C30.1653 33.5921 30.8 33.1087 30.8 32.5121Z" fill="#868686"/>
</svg>
