<svg width="40" height="40" viewBox="0 0 40 40" fill="none" xmlns="http://www.w3.org/2000/svg">
<path fill-rule="evenodd" clip-rule="evenodd" d="M32.5 20C32.5 23.3152 31.183 26.4946 28.8388 28.8388C26.4946 31.183 23.3152 32.5 20 32.5C16.6848 32.5 13.5054 31.183 11.1612 28.8388C8.81696 26.4946 7.5 23.3152 7.5 20C7.5 16.6848 8.81696 13.5054 11.1612 11.1612C13.5054 8.81696 16.6848 7.5 20 7.5C23.3152 7.5 26.4946 8.81696 28.8388 11.1612C31.183 13.5054 32.5 16.6848 32.5 20ZM23.5714 16.4286C23.5714 17.3758 23.1952 18.2842 22.5254 18.954C21.8556 19.6237 20.9472 20 20 20C19.0528 20 18.1444 19.6237 17.4746 18.954C16.8048 18.2842 16.4286 17.3758 16.4286 16.4286C16.4286 15.4814 16.8048 14.573 17.4746 13.9032C18.1444 13.2334 19.0528 12.8571 20 12.8571C20.9472 12.8571 21.8556 13.2334 22.5254 13.9032C23.1952 14.573 23.5714 15.4814 23.5714 16.4286ZM20 21.7857C18.4543 21.7851 16.9348 22.1859 15.5904 22.9487C14.246 23.7115 13.1227 24.8103 12.3304 26.1375C13.2499 27.2883 14.4169 28.2171 15.7447 28.8549C17.0725 29.4927 18.527 29.823 20 29.8214C21.4727 29.8228 22.9268 29.4923 24.2543 28.8545C25.5818 28.2167 26.7485 27.2881 27.6679 26.1375C26.8757 24.8105 25.7526 23.7119 24.4085 22.9491C23.0645 22.1863 21.5454 21.7854 20 21.7857Z" fill="#495555"/>
</svg>
