<svg width="25" height="25" viewBox="0 0 25 25" fill="none" xmlns="http://www.w3.org/2000/svg">
<path d="M14.7971 3.73499L21.5141 10.453C22.1235 11.0625 22.4659 11.8891 22.4659 12.751C22.4659 13.6129 22.1235 14.4395 21.5141 15.049L14.7971 21.766C14.1876 22.3754 13.361 22.7178 12.4991 22.7178C11.6371 22.7178 10.8105 22.3754 10.2011 21.766L3.48306 15.05C2.87362 14.4405 2.53125 13.6139 2.53125 12.752C2.53125 11.8901 2.87362 11.0635 3.48306 10.454L10.2011 3.73599C10.8105 3.12655 11.6371 2.78418 12.4991 2.78418C13.361 2.78418 14.1876 3.12655 14.7971 3.73599M11.2611 4.79599L4.54406 11.514C4.38153 11.6765 4.25261 11.8694 4.16466 12.0817C4.0767 12.2941 4.03143 12.5217 4.03143 12.7515C4.03143 12.9813 4.0767 13.2089 4.16466 13.4212C4.25261 13.6336 4.38153 13.8265 4.54406 13.989L11.2611 20.707C11.4236 20.8695 11.6165 20.9984 11.8288 21.0864C12.0412 21.1743 12.2687 21.2196 12.4986 21.2196C12.7284 21.2196 12.956 21.1743 13.1683 21.0864C13.3806 20.9984 13.5736 20.8695 13.7361 20.707L20.4541 13.989C20.6166 13.8265 20.7455 13.6336 20.8335 13.4212C20.9214 13.2089 20.9667 12.9813 20.9667 12.7515C20.9667 12.5217 20.9214 12.2941 20.8335 12.0817C20.7455 11.8694 20.6166 11.6765 20.4541 11.514L13.7361 4.79699C13.5736 4.63446 13.3806 4.50554 13.1683 4.41759C12.956 4.32963 12.7284 4.28436 12.4986 4.28436C12.2687 4.28436 12.0412 4.32963 11.8288 4.41759C11.6165 4.50554 11.4236 4.63346 11.2611 4.79599ZM12.9561 8.05699L13.0291 7.97299C13.1561 7.84571 13.3247 7.76831 13.504 7.75491C13.6833 7.74151 13.8615 7.793 14.0061 7.89999L14.0901 7.97299L16.0901 9.97299C16.2172 10.1002 16.2944 10.2688 16.3076 10.4481C16.3208 10.6274 16.2692 10.8056 16.1621 10.95L16.0901 11.034L14.0901 13.034C13.9562 13.1682 13.7766 13.2467 13.5872 13.2539C13.3978 13.261 13.2127 13.1961 13.0692 13.0724C12.9257 12.9486 12.8343 12.7751 12.8135 12.5867C12.7927 12.3984 12.844 12.2091 12.9571 12.057L13.0291 11.973L13.7491 11.253H12.2491C11.9396 11.2528 11.6411 11.3675 11.4113 11.5748C11.1815 11.782 11.0367 12.0672 11.0051 12.375L10.9991 12.503V15.75C10.9987 15.9399 10.9264 16.1227 10.7966 16.2613C10.6668 16.4 10.4892 16.4842 10.2997 16.4971C10.1102 16.5099 9.92286 16.4503 9.77556 16.3304C9.62826 16.2105 9.53194 16.0392 9.50606 15.851L9.49906 15.751V12.501C9.49902 11.8007 9.76615 11.1268 10.2459 10.6167C10.7257 10.1066 11.3821 9.79877 12.0811 9.75599L12.2491 9.74999H13.7471L13.0291 9.02999C12.9022 8.90287 12.8251 8.73445 12.8119 8.55535C12.7987 8.37624 12.8502 8.19834 12.9571 8.05399L13.0291 7.96999L12.9561 8.05699Z" fill="white"/>
</svg>
