<svg width="40" height="41" viewBox="0 0 40 41" fill="none" xmlns="http://www.w3.org/2000/svg">
<path d="M31.8896 36.5297H8.11307C7.31499 36.5297 6.66797 35.8827 6.66797 35.0846V4.26395C6.66797 3.46587 7.31499 2.81885 8.11307 2.81885H26.0013L29.3346 6.81885L33.3346 10.8188V35.0846C33.3347 35.8827 32.6877 36.5297 31.8896 36.5297Z" fill="#64ABFF"/>
<path d="M26 2.81885L30 7.48551L33.3333 10.8188H28H26V8.81885V2.81885Z" fill="#A6CFFF"/>
<path d="M22.8663 11.8287H11.1659C11.0338 11.8287 10.9072 11.7755 10.8138 11.6808C10.7204 11.5861 10.668 11.4577 10.668 11.3238C10.668 11.1899 10.7204 11.0614 10.8138 10.9667C10.9072 10.872 11.0338 10.8188 11.1659 10.8188H22.8664C22.9984 10.8189 23.1251 10.8721 23.2185 10.9668C23.3118 11.0615 23.3643 11.1899 23.3643 11.3238C23.3643 11.4577 23.3118 11.5861 23.2184 11.6808C23.125 11.7755 22.9984 11.8287 22.8663 11.8287ZM21.5689 14.7986C21.5689 14.6647 21.5165 14.5362 21.4231 14.4415C21.3297 14.3468 21.2031 14.2936 21.071 14.2936H11.1659C11.0338 14.2936 10.9072 14.3468 10.8138 14.4415C10.7204 14.5362 10.668 14.6647 10.668 14.7986C10.668 14.9325 10.7204 15.0609 10.8138 15.1556C10.9072 15.2503 11.0338 15.3035 11.1659 15.3035H21.071C21.2031 15.3035 21.3297 15.2503 21.4231 15.1556C21.5165 15.0609 21.5689 14.9325 21.5689 14.7986ZM29.3346 18.2734C29.3346 18.1395 29.2822 18.011 29.1888 17.9163C29.0954 17.8216 28.9688 17.7685 28.8367 17.7685H11.1659C11.0338 17.7685 10.9072 17.8216 10.8138 17.9163C10.7204 18.011 10.668 18.1395 10.668 18.2734C10.668 18.4073 10.7204 18.5357 10.8138 18.6304C10.9072 18.7251 11.0338 18.7783 11.1659 18.7783H28.8367C28.9688 18.7783 29.0954 18.7251 29.1888 18.6304C29.2822 18.5357 29.3346 18.4073 29.3346 18.2734ZM28.2257 21.7481C28.2257 21.6142 28.1732 21.4858 28.0798 21.3911C27.9865 21.2964 27.8598 21.2432 27.7277 21.2432H11.1659C11.0338 21.2432 10.9072 21.2964 10.8138 21.3911C10.7204 21.4858 10.668 21.6142 10.668 21.7481C10.668 21.882 10.7204 22.0105 10.8138 22.1051C10.9072 22.1998 11.0338 22.253 11.1659 22.253H27.7278C27.7932 22.253 27.8579 22.24 27.9184 22.2146C27.9788 22.1892 28.0336 22.152 28.0799 22.1051C28.1261 22.0583 28.1628 22.0026 28.1878 21.9413C28.2128 21.8801 28.2257 21.8144 28.2257 21.7481ZM21.5689 25.2229C21.5689 25.089 21.5165 24.9606 21.4231 24.8659C21.3297 24.7712 21.2031 24.718 21.071 24.718H11.1659C11.0338 24.718 10.9072 24.7712 10.8138 24.8659C10.7204 24.9606 10.668 25.089 10.668 25.2229C10.668 25.3568 10.7204 25.4853 10.8138 25.58C10.9072 25.6746 11.0338 25.7278 11.1659 25.7278H21.071C21.1364 25.7278 21.2012 25.7148 21.2616 25.6894C21.322 25.664 21.3769 25.6269 21.4231 25.58C21.4694 25.5331 21.506 25.4774 21.5311 25.4162C21.5561 25.3549 21.569 25.2892 21.5689 25.2229ZM29.3346 28.6977C29.3346 28.5638 29.2822 28.4354 29.1888 28.3407C29.0954 28.246 28.9688 28.1928 28.8367 28.1928H11.1659C11.0338 28.1928 10.9072 28.246 10.8138 28.3407C10.7204 28.4354 10.668 28.5638 10.668 28.6977C10.668 28.8316 10.7204 28.9601 10.8138 29.0548C10.9072 29.1494 11.0338 29.2026 11.1659 29.2026H28.8367C28.9688 29.2026 29.0954 29.1494 29.1888 29.0548C29.2822 28.9601 29.3346 28.8316 29.3346 28.6977ZM29.3346 32.1725C29.3346 32.0386 29.2822 31.9102 29.1888 31.8155C29.0954 31.7208 28.9688 31.6676 28.8367 31.6676H11.1659C11.0338 31.6676 10.9072 31.7208 10.8138 31.8155C10.7204 31.9102 10.668 32.0386 10.668 32.1725C10.668 32.3064 10.7204 32.4349 10.8138 32.5296C10.9072 32.6242 11.0338 32.6774 11.1659 32.6774H28.8367C28.9688 32.6774 29.0954 32.6242 29.1888 32.5296C29.2822 32.4349 29.3346 32.3064 29.3346 32.1725Z" fill="white"/>
</svg>
