<svg width="24" height="25" viewBox="0 0 24 25" fill="none" xmlns="http://www.w3.org/2000/svg">
<path d="M4.5 17.707V19.5C4.5 19.6326 4.55268 19.7598 4.64645 19.8536C4.74021 19.9473 4.86739 20 5 20H6.793C6.92535 20 7.05229 19.9475 7.146 19.854L15.646 11.354L13.146 8.854L4.646 17.354C4.55253 17.4477 4.50003 17.5747 4.5 17.707ZM15.09 6.91L17.59 9.41L18.793 8.207C18.9805 8.01947 19.0858 7.76517 19.0858 7.5C19.0858 7.23484 18.9805 6.98053 18.793 6.793L17.707 5.707C17.5195 5.51953 17.2652 5.41422 17 5.41422C16.7348 5.41422 16.4805 5.51953 16.293 5.707L15.09 6.91Z" stroke="#495555" stroke-width="1.5"/>
</svg>
