<svg width="16" height="16" viewBox="0 0 16 16" fill="none" xmlns="http://www.w3.org/2000/svg">
<path d="M10.9859 3.60522L12.3973 5.01655M11.8933 2.36188L8.07527 6.17989C7.878 6.37688 7.74345 6.62787 7.6886 6.90122L7.33594 8.66655L9.10127 8.31322C9.3746 8.25855 9.62527 8.12455 9.8226 7.92722L13.6406 4.10922C13.7553 3.99449 13.8463 3.85828 13.9084 3.70838C13.9705 3.55847 14.0025 3.39781 14.0025 3.23555C14.0025 3.0733 13.9705 2.91263 13.9084 2.76273C13.8463 2.61282 13.7553 2.47662 13.6406 2.36188C13.5259 2.24715 13.3897 2.15614 13.2398 2.09405C13.0899 2.03196 12.9292 2 12.7669 2C12.6047 2 12.444 2.03196 12.2941 2.09405C12.1442 2.15614 12.008 2.24715 11.8933 2.36188Z" stroke="white" stroke-linecap="round" stroke-linejoin="round"/>
<path d="M12.668 9.99967V11.9997C12.668 12.3533 12.5275 12.6924 12.2774 12.9425C12.0274 13.1925 11.6883 13.333 11.3346 13.333H4.0013C3.64768 13.333 3.30854 13.1925 3.05849 12.9425C2.80844 12.6924 2.66797 12.3533 2.66797 11.9997V4.66634C2.66797 4.31272 2.80844 3.97358 3.05849 3.72353C3.30854 3.47348 3.64768 3.33301 4.0013 3.33301H6.0013" stroke="white" stroke-linecap="round" stroke-linejoin="round"/>
</svg>
