<svg width="71" height="71" viewBox="0 0 71 71" fill="none" xmlns="http://www.w3.org/2000/svg">
<path fill-rule="evenodd" clip-rule="evenodd" d="M52.1862 60.8439C53.2601 60.8439 54.1306 61.7144 54.1306 62.7883C54.1306 63.8622 53.2601 64.7327 52.1862 64.7327H34.6862C34.5719 64.7327 34.4599 64.7229 34.351 64.704C28.1047 64.4284 22.3689 62.1883 17.7463 58.5863C17.3704 58.2933 16.8038 57.8077 16.3839 57.4423C16.0248 57.1299 15.5658 56.955 15.0897 56.955H10.3806C9.30676 56.955 8.4362 56.0844 8.4362 55.0105C8.4362 53.9366 9.30676 53.0661 10.3806 53.0661H12.3251C13.399 53.0661 14.2695 52.1955 14.2695 51.1216C14.2695 50.0477 13.399 49.1772 12.3251 49.1772H7.46398C6.39009 49.1772 5.51953 48.3066 5.51953 47.2327C5.51953 46.1589 6.39009 45.2883 7.46398 45.2883H8.4362C9.51008 45.2883 10.3806 44.4177 10.3806 43.3439C10.3806 42.27 9.51008 41.3994 8.4362 41.3994C7.64996 41.3994 6.97749 40.8327 6.84667 40.0574C6.79914 39.7757 6.76139 39.5489 6.75516 39.5028C6.58146 38.2153 6.49175 36.9012 6.49175 35.5661C6.49175 19.4578 19.5501 6.39941 35.6584 6.39941C40.5195 6.39941 45.3806 6.39941 50.2418 6.39941C51.3156 6.39941 52.1862 7.26997 52.1862 8.34386C52.1862 9.41775 51.3156 10.2883 50.2418 10.2883H47.3251C46.2512 10.2883 45.3806 11.1589 45.3806 12.2327C45.3806 13.3066 46.2512 14.1772 47.3251 14.1772H58.9918C60.0656 14.1772 60.9362 15.0477 60.9362 16.1216C60.9362 17.1948 60.0668 18.0649 58.9939 18.0661H56.0751C55.0012 18.0661 54.1306 18.9366 54.1306 20.0105C54.1306 21.0844 55.0012 21.955 56.0751 21.955H60.2615C60.9968 21.955 61.6708 22.369 61.9896 23.0317C62.1813 23.4299 62.3828 23.8595 62.5148 24.17C64.0022 27.671 64.8251 31.5224 64.8251 35.5661C64.8251 36.8366 64.7438 38.0882 64.5863 39.3159C64.5598 39.5223 64.5191 39.7872 64.4749 40.0585C64.348 40.8368 63.6692 41.3994 62.8806 41.3994C61.8068 41.3994 60.9362 42.27 60.9362 43.3439C60.9362 44.4177 61.8068 45.2883 62.8806 45.2883H63.8529C64.9268 45.2883 65.7973 46.1589 65.7973 47.2327C65.7973 48.3066 64.9268 49.1772 63.8529 49.1772H62.6047C61.8988 49.1772 61.2497 49.5604 60.897 50.172C60.6679 50.5691 60.4133 51.0012 60.2241 51.2961C59.7806 51.9872 59.3087 52.6585 58.8101 53.3081C58.3093 53.9606 57.7816 54.5913 57.2286 55.1986C56.9251 55.5318 56.4333 56.0256 56.0498 56.4047C55.691 56.7595 55.206 56.955 54.7015 56.955H49.2695C48.1956 56.955 47.3251 57.8255 47.3251 58.8994C47.3251 59.9658 48.1835 60.8317 49.2471 60.8437L52.1862 60.8439Z" fill="#1B5C35"/>
<path fill-rule="evenodd" clip-rule="evenodd" d="M52.1823 60.8439C53.2562 60.8439 54.1267 61.7144 54.1267 62.7883C54.1267 63.8622 53.2562 64.7327 52.1823 64.7327H34.6823C34.568 64.7327 34.456 64.7229 34.3471 64.704C28.1008 64.4284 22.365 62.1883 17.7424 58.5863C17.3665 58.2933 16.7999 57.8077 16.38 57.4423C16.0209 57.1299 15.5619 56.955 15.0858 56.955H10.3767C9.30285 56.955 8.43229 56.0844 8.43229 55.0105C8.43229 53.9366 9.30285 53.0661 10.3767 53.0661H12.3212C13.3951 53.0661 14.2656 52.1955 14.2656 51.1216C14.2656 50.0477 13.3951 49.1772 12.3212 49.1772H7.46007C6.38618 49.1772 5.51562 48.3066 5.51562 47.2327C5.51562 46.1589 6.38618 45.2883 7.46007 45.2883H8.43229C9.50618 45.2883 10.3767 44.4177 10.3767 43.3439C10.3767 42.27 9.50618 41.3994 8.43229 41.3994C7.64605 41.3994 6.97359 40.8327 6.84277 40.0574C6.79523 39.7757 6.75748 39.5489 6.75126 39.5028C6.57755 38.2153 6.48785 36.9012 6.48785 35.5661C6.48785 19.4578 19.5462 6.39941 35.6545 6.39941C40.5156 6.39941 45.3767 6.39941 50.2378 6.39941C51.3117 6.39941 52.1823 7.26997 52.1823 8.34386C52.1823 9.41775 51.3117 10.2883 50.2378 10.2883H47.3212C46.2473 10.2883 45.3767 11.1589 45.3767 12.2327C45.3767 13.3066 46.2473 14.1772 47.3212 14.1772H58.9878C60.0617 14.1772 60.9323 15.0477 60.9323 16.1216C60.9323 17.1948 60.0629 18.0649 58.99 18.0661H56.0712C54.9973 18.0661 54.1267 18.9366 54.1267 20.0105C54.1267 21.0844 54.9973 21.955 56.0712 21.955H60.2575C60.9929 21.955 61.6669 22.369 61.9857 23.0317C62.1774 23.4299 62.3789 23.8595 62.5108 24.17C63.9983 27.671 64.8212 31.5224 64.8212 35.5661C64.8212 36.8366 64.7399 38.0882 64.5824 39.3159C64.5559 39.5223 64.5152 39.7872 64.471 40.0585C64.3441 40.8368 63.6653 41.3994 62.8767 41.3994C61.8028 41.3994 60.9323 42.27 60.9323 43.3439C60.9323 44.4177 61.8028 45.2883 62.8767 45.2883H63.849C64.9228 45.2883 65.7934 46.1589 65.7934 47.2327C65.7934 48.3066 64.9228 49.1772 63.849 49.1772H62.6008C61.8949 49.1772 61.2457 49.5604 60.8931 50.172C60.664 50.5691 60.4094 51.0012 60.2201 51.2961C59.7767 51.9872 59.3048 52.6585 58.8062 53.3081C58.3054 53.9606 57.7777 54.5913 57.2246 55.1986C56.9212 55.5318 56.4294 56.0256 56.0459 56.4047C55.6871 56.7595 55.2021 56.955 54.6975 56.955H49.2656C48.1917 56.955 47.3212 57.8255 47.3212 58.8994C47.3212 59.9658 48.1796 60.8317 49.2432 60.8437L52.1823 60.8439Z" fill="url(#paint0_linear_3103_27325)"/>
<g opacity="0.2">
<path fill-rule="evenodd" clip-rule="evenodd" d="M33.9875 12.1693C35.019 11.5738 36.2898 11.5738 37.3213 12.1693L55.0832 22.4242C56.1147 23.0197 56.7502 24.1203 56.7502 25.3114V45.8211C56.7502 47.0122 56.1147 48.1128 55.0832 48.7083L37.3213 58.9632C36.2898 59.5587 35.019 59.5587 33.9875 58.9632L16.2255 48.7083C15.194 48.1128 14.5586 47.0122 14.5586 45.8211L14.5586 25.3114C14.5586 24.1203 15.194 23.0197 16.2255 22.4242L33.9875 12.1693Z" fill="#A4053A" fill-opacity="0.2" style="mix-blend-mode:multiply"/>
</g>
<g filter="url(#filter0_d_3103_27325)">
<path fill-rule="evenodd" clip-rule="evenodd" d="M22.0469 32.6504H37.6024V62.8625C37.6024 63.2755 37.1677 63.5442 36.7983 63.3594L29.8247 59.8726L22.851 63.3594C22.4816 63.5442 22.0469 63.2755 22.0469 62.8625V32.6504Z" fill="#7F45F6"/>
</g>
<g filter="url(#filter1_d_3103_27325)">
<path fill-rule="evenodd" clip-rule="evenodd" d="M33.7148 32.6504H49.2704V62.8625C49.2704 63.2755 48.8357 63.5442 48.4663 63.3594L41.4926 59.8726L34.519 63.3594C34.1495 63.5442 33.7148 63.2755 33.7148 62.8625V32.6504Z" fill="#7F45F6"/>
</g>
<g filter="url(#filter2_d_3103_27325)">
<path fill-rule="evenodd" clip-rule="evenodd" d="M27.8789 37.5117H43.4345V67.7238C43.4345 68.1368 42.9998 68.4055 42.6303 68.2208L35.6567 64.7339L28.683 68.2208C28.3136 68.4055 27.8789 68.1368 27.8789 67.7238V37.5117Z" fill="white"/>
</g>
<mask id="mask0_3103_27325" style="mask-type:luminance" maskUnits="userSpaceOnUse" x="27" y="37" width="17" height="32">
<path fill-rule="evenodd" clip-rule="evenodd" d="M27.8789 37.5117H43.4345V67.7238C43.4345 68.1368 42.9998 68.4055 42.6303 68.2208L35.6567 64.7339L28.683 68.2208C28.3136 68.4055 27.8789 68.1368 27.8789 67.7238V37.5117Z" fill="white"/>
</mask>
<g mask="url(#mask0_3103_27325)">
<rect x="31.7695" y="37.5117" width="7.77778" height="31.1111" fill="#F55462"/>
</g>
<path style="mix-blend-mode:multiply" opacity="0.8" fill-rule="evenodd" clip-rule="evenodd" d="M34.5431 15.791C35.2307 15.3939 36.078 15.3939 36.7656 15.791L53.9084 25.6883C54.596 26.0853 55.0196 26.8191 55.0196 27.6131V47.4078C55.0196 48.2019 54.596 48.9356 53.9084 49.3326L36.7656 59.23C36.078 59.627 35.2307 59.627 34.5431 59.23L17.4003 49.3326C16.7127 48.9356 16.2891 48.2019 16.2891 47.4078L16.2891 27.6131C16.2891 26.8191 16.7127 26.0853 17.4003 25.6883L34.5431 15.791Z" fill="#A4053A" fill-opacity="0.2"/>
<path fill-rule="evenodd" clip-rule="evenodd" d="M19.128 24.3843L14.2669 22.4399V21.4677L9.09947 19.3146C8.83708 19.2052 8.56701 19.4534 8.65377 19.7241L14.4223 37.7217C14.4773 37.8934 14.6122 38.0277 14.7841 38.082L19.128 39.4538V24.3843Z" fill="url(#paint1_linear_3103_27325)" stroke="url(#paint2_linear_3103_27325)" stroke-width="0.55564" stroke-linecap="round" stroke-linejoin="round"/>
<mask id="mask1_3103_27325" style="mask-type:luminance" maskUnits="userSpaceOnUse" x="8" y="19" width="12" height="21">
<path fill-rule="evenodd" clip-rule="evenodd" d="M19.128 25.1367C19.128 24.6823 18.8514 24.2737 18.4295 24.1049L14.7218 22.6218C14.4471 22.5119 14.2669 22.2459 14.2669 21.95C14.2669 21.6579 14.0913 21.3945 13.8217 21.2821L10.6532 19.9619C9.77855 19.5975 8.87831 20.4246 9.16751 21.3269L14.3345 37.448C14.4446 37.7914 14.7143 38.06 15.0581 38.1685L17.6821 38.9972C18.3984 39.2234 19.128 38.6886 19.128 37.9375V25.1367Z" fill="white" stroke="white" stroke-width="0.55564"/>
</mask>
<g mask="url(#mask1_3103_27325)">
<g style="mix-blend-mode:multiply" opacity="0.6" filter="url(#filter3_i_3103_27325)">
<path d="M19.3104 29.7659C19.5597 29.8656 19.681 30.1485 19.5812 30.3978C19.4815 30.6471 19.1986 30.7683 18.9494 30.6686L14.0883 28.7241C13.9037 28.6503 13.7827 28.4716 13.7827 28.2728V27.6247L8.24849 25.3187C8.00067 25.2155 7.88348 24.9309 7.98674 24.6831C8.09 24.4352 8.3746 24.3181 8.62242 24.4213L14.4558 26.8519C14.6369 26.9273 14.7549 27.1043 14.7549 27.3006V27.9437L19.3104 29.7659Z" fill="#C28831"/>
</g>
<g style="mix-blend-mode:multiply" opacity="0.6" filter="url(#filter4_i_3103_27325)">
<path d="M20.2792 35.5999C20.5285 35.6996 20.6497 35.9825 20.55 36.2318C20.4503 36.481 20.1674 36.6023 19.9181 36.5026L15.057 34.5581C14.8724 34.4843 14.7514 34.3056 14.7514 34.1068V33.4586L9.21724 31.1527C8.96942 31.0495 8.85223 30.7649 8.95549 30.517C9.05875 30.2692 9.34335 30.152 9.59117 30.2553L15.4245 32.6858C15.6057 32.7613 15.7237 32.9383 15.7237 33.1346V33.7777L20.2792 35.5999Z" fill="#C28831"/>
</g>
<g opacity="0.2">
<path fill-rule="evenodd" clip-rule="evenodd" d="M33.9836 12.1684C35.015 11.5728 36.2859 11.5728 37.3174 12.1684L55.0793 22.4232C56.1108 23.0187 56.7463 24.1193 56.7463 25.3104V45.8201C56.7463 47.0112 56.1108 48.1118 55.0793 48.7073L37.3174 58.9622C36.2859 59.5577 35.0151 59.5577 33.9836 58.9622L16.2216 48.7073C15.1901 48.1118 14.5547 47.0112 14.5547 45.8201L14.5547 25.3104C14.5547 24.1193 15.1901 23.0187 16.2216 22.4232L33.9836 12.1684Z" fill="#A4053A" fill-opacity="0.2" style="mix-blend-mode:multiply"/>
</g>
</g>
<path fill-rule="evenodd" clip-rule="evenodd" d="M52.1806 24.3843L57.0417 22.4399V21.4677L62.2091 19.3146C62.4715 19.2052 62.7416 19.4534 62.6548 19.7241L56.8863 37.7217C56.8313 37.8934 56.6964 38.0277 56.5245 38.082L52.1806 39.4538V24.3843Z" fill="url(#paint3_linear_3103_27325)" stroke="url(#paint4_linear_3103_27325)" stroke-width="0.55564" stroke-linecap="round" stroke-linejoin="round"/>
<mask id="mask2_3103_27325" style="mask-type:luminance" maskUnits="userSpaceOnUse" x="51" y="19" width="12" height="21">
<path fill-rule="evenodd" clip-rule="evenodd" d="M52.1806 25.1367C52.1806 24.6823 52.4572 24.2737 52.8791 24.1049L56.5868 22.6218C56.8615 22.5119 57.0417 22.2459 57.0417 21.95C57.0417 21.6579 57.2173 21.3945 57.4869 21.2821L60.6554 19.9619C61.53 19.5975 62.4303 20.4246 62.1411 21.3269L56.9741 37.448C56.864 37.7914 56.5943 38.06 56.2505 38.1685L53.6265 38.9972C52.9102 39.2234 52.1806 38.6886 52.1806 37.9375V25.1367Z" fill="white" stroke="white" stroke-width="0.55564"/>
</mask>
<g mask="url(#mask2_3103_27325)">
<g style="mix-blend-mode:multiply" opacity="0.6" filter="url(#filter5_i_3103_27325)">
<path d="M51.9982 29.7659C51.7489 29.8656 51.6276 30.1485 51.7274 30.3978C51.8271 30.6471 52.11 30.7683 52.3592 30.6686L57.2203 28.7241C57.4049 28.6503 57.5259 28.4716 57.5259 28.2728V27.6247L63.0601 25.3187C63.3079 25.2155 63.4251 24.9309 63.3219 24.6831C63.2186 24.4352 62.934 24.3181 62.6862 24.4213L56.8528 26.8519C56.6717 26.9273 56.5537 27.1043 56.5537 27.3006V27.9437L51.9982 29.7659Z" fill="#C28831"/>
</g>
<g style="mix-blend-mode:multiply" opacity="0.6" filter="url(#filter6_i_3103_27325)">
<path d="M51.0294 35.5999C50.7801 35.6996 50.6589 35.9825 50.7586 36.2318C50.8583 36.481 51.1412 36.6023 51.3905 36.5026L56.2516 34.5581C56.4361 34.4843 56.5572 34.3056 56.5572 34.1068V33.4586L62.0914 31.1527C62.3392 31.0495 62.4564 30.7649 62.3531 30.517C62.2498 30.2692 61.9652 30.152 61.7174 30.2553L55.8841 32.6858C55.7029 32.7613 55.5849 32.9383 55.5849 33.1346V33.7777L51.0294 35.5999Z" fill="#C28831"/>
</g>
<g opacity="0.2">
<path fill-rule="evenodd" clip-rule="evenodd" d="M37.3211 12.1684C36.2896 11.5728 35.0188 11.5728 33.9873 12.1684L16.2253 22.4232C15.1939 23.0187 14.5584 24.1193 14.5584 25.3104V45.8201C14.5584 47.0112 15.1939 48.1118 16.2253 48.7073L33.9873 58.9622C35.0188 59.5577 36.2896 59.5577 37.3211 58.9622L55.0831 48.7073C56.1146 48.1118 56.75 47.0112 56.75 45.8201L56.75 25.3104C56.75 24.1193 56.1146 23.0187 55.0831 22.4232L37.3211 12.1684Z" fill="#A4053A" fill-opacity="0.2" style="mix-blend-mode:multiply"/>
</g>
</g>
<path fill-rule="evenodd" clip-rule="evenodd" d="M18.1541 41.3984L14.5286 43.2112C14.3638 43.2936 14.2506 43.4522 14.2263 43.6347L13.382 49.9668C13.3455 50.2404 13.6382 50.4372 13.8779 50.3003L20.0985 46.7457L18.1541 41.3984Z" fill="url(#paint5_linear_3103_27325)" stroke="url(#paint6_linear_3103_27325)" stroke-width="0.55564" stroke-linecap="round" stroke-linejoin="round"/>
<mask id="mask3_3103_27325" style="mask-type:luminance" maskUnits="userSpaceOnUse" x="13" y="41" width="8" height="9">
<path fill-rule="evenodd" clip-rule="evenodd" d="M18.5802 42.5702C18.3532 41.946 17.6329 41.659 17.0388 41.9561L14.7919 43.0795C14.4625 43.2442 14.236 43.5615 14.1874 43.9266L13.5897 48.4087C13.4682 49.3206 14.4439 49.9769 15.2426 49.5205L19.2855 47.2103C19.7552 46.9418 19.9634 46.3741 19.7785 45.8656L18.5802 42.5702Z" fill="white" stroke="white" stroke-width="0.55564"/>
</mask>
<g mask="url(#mask3_3103_27325)">
<g opacity="0.1">
<path fill-rule="evenodd" clip-rule="evenodd" d="M33.7726 12.1684C34.8041 11.5728 36.075 11.5728 37.1065 12.1684L54.8684 22.4232C55.8999 23.0187 56.5353 24.1193 56.5353 25.3104V45.8201C56.5353 47.0112 55.8999 48.1118 54.8684 48.7073L37.1065 58.9622C36.075 59.5577 34.8041 59.5577 33.7726 58.9622L16.0107 48.7073C14.9792 48.1118 14.3438 47.0112 14.3438 45.8201L14.3438 25.3104C14.3438 24.1193 14.9792 23.0187 16.0107 22.4232L33.7726 12.1684Z" fill="#C28831" style="mix-blend-mode:multiply"/>
</g>
</g>
<path fill-rule="evenodd" clip-rule="evenodd" d="M53.1584 41.3984L56.7839 43.2112C56.9487 43.2936 57.0619 43.4522 57.0862 43.6347L57.9305 49.9668C57.967 50.2404 57.6743 50.4372 57.4346 50.3003L51.214 46.7457L53.1584 41.3984Z" fill="url(#paint7_linear_3103_27325)" stroke="url(#paint8_linear_3103_27325)" stroke-width="0.55564" stroke-linecap="round" stroke-linejoin="round"/>
<mask id="mask4_3103_27325" style="mask-type:luminance" maskUnits="userSpaceOnUse" x="50" y="41" width="9" height="10">
<path fill-rule="evenodd" clip-rule="evenodd" d="M53.1584 41.3984L56.7839 43.2112C56.9487 43.2936 57.0619 43.4522 57.0862 43.6347L57.9305 49.9668C57.967 50.2404 57.6743 50.4372 57.4346 50.3003L51.214 46.7457L53.1584 41.3984Z" fill="white" stroke="white" stroke-width="0.55564" stroke-linecap="round" stroke-linejoin="round"/>
</mask>
<g mask="url(#mask4_3103_27325)">
<g opacity="0.1">
<path fill-rule="evenodd" clip-rule="evenodd" d="M37.5399 12.1684C36.5084 11.5728 35.2375 11.5728 34.206 12.1684L16.4441 22.4232C15.4126 23.0187 14.7772 24.1193 14.7772 25.3104V45.8201C14.7772 47.0112 15.4126 48.1118 16.4441 48.7073L34.206 58.9622C35.2375 59.5577 36.5084 59.5577 37.5399 58.9622L55.3018 48.7073C56.3333 48.1118 56.9687 47.0112 56.9687 45.8201L56.9688 25.3104C56.9688 24.1193 56.3333 23.0187 55.3018 22.4232L37.5399 12.1684Z" fill="#C28831" style="mix-blend-mode:multiply"/>
</g>
</g>
<path fill-rule="evenodd" clip-rule="evenodd" d="M29.8389 24.6274C29.8389 25.4798 29.3514 26.2571 28.584 26.6282L23.3464 29.1611C21.8706 29.8749 20.1562 28.7997 20.1562 27.1603V19.3143C20.1562 18.9172 20.3681 18.5504 20.7119 18.3519L29.0054 13.5636C29.3759 13.3497 29.8389 13.6171 29.8389 14.0448V24.6274Z" fill="url(#paint9_linear_3103_27325)"/>
<path opacity="0.4" d="M21.2695 18.5898L28.6337 14.3389" stroke="#C28831" stroke-width="0.55564" stroke-linecap="round"/>
<path fill-rule="evenodd" clip-rule="evenodd" d="M41.4658 24.6274C41.4658 25.4798 41.9533 26.2571 42.7207 26.6282L47.9582 29.1611C49.4341 29.8749 51.1484 28.7997 51.1484 27.1603V19.3143C51.1484 18.9172 50.9366 18.5504 50.5928 18.3519L42.2993 13.5636C41.9288 13.3497 41.4658 13.6171 41.4658 14.0448V24.6274Z" fill="url(#paint10_linear_3103_27325)"/>
<path opacity="0.4" d="M50.0352 18.5898L42.671 14.3389" stroke="#C28831" stroke-width="0.55564" stroke-linecap="round"/>
<path fill-rule="evenodd" clip-rule="evenodd" d="M34.5428 13.8467C35.2305 13.4497 36.0777 13.4497 36.7654 13.8467L53.9081 23.744C54.5957 24.1411 55.0194 24.8748 55.0194 25.6688V45.4635C55.0194 46.2576 54.5957 46.9913 53.9081 47.3883L36.7654 57.2857C36.0777 57.6827 35.2305 57.6827 34.5428 57.2857L17.4001 47.3883C16.7124 46.9913 16.2888 46.2576 16.2888 45.4635V25.6688C16.2888 24.8748 16.7124 24.1411 17.4001 23.744L34.5428 13.8467Z" fill="url(#paint11_linear_3103_27325)" stroke="#C28831" stroke-opacity="0.4" stroke-width="0.55564"/>
<mask id="mask5_3103_27325" style="mask-type:luminance" maskUnits="userSpaceOnUse" x="16" y="13" width="40" height="45">
<path fill-rule="evenodd" clip-rule="evenodd" d="M35.0984 13.5259C35.4423 13.3274 35.8659 13.3274 36.2097 13.5259L54.4637 24.0648C54.8076 24.2633 55.0194 24.6302 55.0194 25.0272V46.1051C55.0194 46.5022 54.8076 46.869 54.4637 47.0675L36.2097 57.6065C35.8659 57.805 35.4423 57.805 35.0984 57.6065L16.8444 47.0675C16.5006 46.869 16.2888 46.5022 16.2888 46.1051V25.0272C16.2888 24.6302 16.5006 24.2633 16.8444 24.0648L35.0984 13.5259Z" fill="white"/>
</mask>
<g mask="url(#mask5_3103_27325)">
<g style="mix-blend-mode:multiply" opacity="0.8" filter="url(#filter7_i_3103_27325)">
<path fill-rule="evenodd" clip-rule="evenodd" d="M50.8894 25.055L37.1281 17.1006C36.2158 16.5732 35.0917 16.5732 34.1793 17.1006L20.418 25.055C19.5057 25.5824 18.9436 26.557 18.9436 27.6118V33.3513L17.6752 35.2562C17.551 35.4428 17.551 35.6856 17.6752 35.8722L18.9436 37.777V43.5206C18.9436 44.5753 19.5057 45.55 20.418 46.0774L34.1793 54.0318C35.0917 54.5591 36.2158 54.5591 37.1281 54.0318L50.8894 46.0774C51.8018 45.55 52.3638 44.5753 52.3638 43.5206V37.7804L53.6345 35.8722C53.7587 35.6856 53.7587 35.4428 53.6345 35.2562L52.3638 33.3479V27.6118C52.3638 26.557 51.8018 25.5824 50.8894 25.055ZM19.9274 37.7786V43.5212C19.9274 44.2244 20.3021 44.8741 20.9103 45.2257L34.6716 53.1801C35.2798 53.5317 36.0292 53.5317 36.6375 53.1801L50.3987 45.2257C51.007 44.8741 51.3817 44.2244 51.3817 43.5212V37.7776L50.1129 35.8722C49.9887 35.6856 49.9887 35.4428 50.1129 35.2562L51.3817 33.3508V27.6124C51.3817 26.9092 51.007 26.2595 50.3987 25.9079L36.6375 17.9535C36.0292 17.6019 35.2798 17.6019 34.6716 17.9535L20.9103 25.9079C20.3021 26.2595 19.9274 26.9092 19.9274 27.6124V33.3498L21.1968 35.2562C21.321 35.4428 21.321 35.6856 21.1968 35.8722L19.9274 37.7786Z" fill="#C28831"/>
</g>
<path d="M37.3579 14.7479C36.3051 14.14 35.008 14.14 33.9551 14.7479L18.4787 23.6832C17.4259 24.291 16.7773 25.4144 16.7773 26.6301L16.7773 44.5007C16.7773 45.7164 17.4259 46.8397 18.4787 47.4476L33.9551 56.3829C35.008 56.9907 36.3051 56.9907 37.3579 56.3829L52.8343 47.4476C53.8871 46.8397 54.5357 45.7164 54.5357 44.5007V26.6301C54.5357 25.4144 53.8871 24.291 52.8343 23.6832L37.3579 14.7479Z" stroke="#C28831" stroke-width="0.55564"/>
<path opacity="0.4" d="M37.3594 56.3842C39.1795 55.3333 40.4692 54.5887 41.2285 54.1504" stroke="white" stroke-width="0.55564" stroke-linecap="round"/>
<path d="M54.5357 44.5007V26.6301C54.5357 25.4144 53.8871 24.291 52.8343 23.6832L37.3579 14.7479C36.3051 14.14 35.008 14.14 33.9551 14.7479L18.4787 23.6832C17.4259 24.291 16.7773 25.4144 16.7773 26.6301L16.7773 44.5007" stroke="#C28831" stroke-width="0.55564" stroke-linecap="round"/>
<path opacity="0.6" d="M54.5357 26.6301C54.5357 25.4144 53.8871 24.291 52.8343 23.6832L37.3579 14.7479C36.3051 14.14 35.008 14.14 33.9551 14.7479L18.4787 23.6832C17.4259 24.291 16.7773 25.4144 16.7773 26.6301" stroke="#C28831" stroke-width="0.55564" stroke-linecap="round"/>
<path opacity="0.6" d="M37.3558 14.7479C36.303 14.14 35.0059 14.14 33.953 14.7479C33.953 14.7479 28.7942 17.7263 26.2148 19.2155" stroke="white" stroke-width="0.55564" stroke-linecap="round"/>
<path d="M33.955 14.749C33.955 14.749 31.2248 16.3253 30.0859 16.9828" stroke="white" stroke-width="0.55564" stroke-linecap="round"/>
</g>
<g filter="url(#filter8_d_3103_27325)">
<path fill-rule="evenodd" clip-rule="evenodd" d="M35.0976 20.3306C35.4414 20.1321 35.865 20.1321 36.2089 20.3306L48.5691 27.4667C48.9129 27.6653 49.1247 28.0321 49.1247 28.4291V42.7015C49.1247 43.0985 48.9129 43.4654 48.5691 43.6639L36.2089 50.8001C35.865 50.9986 35.4414 50.9986 35.0976 50.8001L22.7373 43.6639C22.3935 43.4654 22.1817 43.0985 22.1817 42.7015V28.4291C22.1817 28.0321 22.3935 27.6653 22.7373 27.4667L35.0976 20.3306Z" fill="url(#paint12_linear_3103_27325)"/>
<path d="M36.3478 20.09C35.918 19.8418 35.3885 19.8418 34.9587 20.09L22.5984 27.2261C22.1686 27.4743 21.9039 27.9329 21.9039 28.4291V42.7015C21.9039 43.1978 22.1686 43.6564 22.5984 43.9045L34.9587 51.0407C35.3884 51.2888 35.918 51.2888 36.3478 51.0407L48.708 43.9045C49.1378 43.6564 49.4025 43.1978 49.4025 42.7015V28.4291C49.4025 27.9329 49.1378 27.4743 48.708 27.2261L36.3478 20.09Z" stroke="#C28831" stroke-opacity="0.1" stroke-width="0.55564" style="mix-blend-mode:multiply"/>
</g>
<mask id="mask6_3103_27325" style="mask-type:luminance" maskUnits="userSpaceOnUse" x="22" y="20" width="28" height="31">
<path fill-rule="evenodd" clip-rule="evenodd" d="M35.0976 20.3306C35.4414 20.1321 35.865 20.1321 36.2089 20.3306L48.5691 27.4667C48.9129 27.6653 49.1247 28.0321 49.1247 28.4291V42.7015C49.1247 43.0985 48.9129 43.4654 48.5691 43.6639L36.2089 50.8001C35.865 50.9986 35.4414 50.9986 35.0976 50.8001L22.7373 43.6639C22.3935 43.4654 22.1817 43.0985 22.1817 42.7015V28.4291C22.1817 28.0321 22.3935 27.6653 22.7373 27.4667L35.0976 20.3306Z" fill="white"/>
</mask>
<g mask="url(#mask6_3103_27325)">
<g style="mix-blend-mode:multiply" opacity="0.3">
<path fill-rule="evenodd" clip-rule="evenodd" d="M35.6532 35.5653L20.0977 39.4542V31.6764L35.6532 35.5653ZM35.6532 35.5653L39.5421 20.0098H31.7643L35.6532 35.5653ZM35.6532 35.5653L51.2088 31.6764V39.4542L35.6532 35.5653ZM35.6532 35.5653L43.9028 21.816L49.4025 27.3157L35.6532 35.5653ZM35.6532 35.5653L43.9028 49.3146L49.4025 43.8149L35.6532 35.5653ZM35.6532 35.5653L31.7643 51.1209H39.5421L35.6532 35.5653ZM35.6532 35.5653L27.4036 49.3146L21.9039 43.8149L35.6532 35.5653Z" fill="#C28831"/>
<path d="M27.4036 21.816L21.9039 27.3157L35.6532 35.5653L27.4036 21.816Z" fill="#C28831"/>
</g>
<path opacity="0.4" d="M47.9109 27.6474L36.3838 20.9923C35.9326 20.7317 35.3767 20.7317 34.9255 20.9923C33.5698 21.775 32.6092 22.3296 32.0437 22.656C30.8669 23.3355 29.9063 23.8901 29.162 24.3198C27.8812 25.0593 25.96 26.1685 23.3984 27.6474" stroke="white" stroke-width="0.55564" stroke-linecap="round"/>
<path d="M34.9247 20.9912C33.569 21.7739 32.6085 22.3285 32.043 22.655" stroke="white" stroke-width="0.55564" stroke-linecap="round"/>
<path opacity="0.4" d="M47.9112 43.4502L36.3841 50.1054C35.9329 50.3659 35.377 50.3659 34.9258 50.1054" stroke="white" stroke-width="0.55564" stroke-linecap="round"/>
</g>
<g filter="url(#filter9_d_3103_27325)">
<path d="M29.6055 30.2758L35.6549 26.6553L41.7042 30.2758V40.8588L35.6549 44.4793L29.6055 40.8588V30.2758Z" fill="white"/>
<path d="M29.3201 29.799C29.1525 29.8994 29.0498 30.0804 29.0498 30.2758V40.8588C29.0498 41.0542 29.1525 41.2353 29.3201 41.3356L35.3695 44.9561C35.5452 45.0613 35.7645 45.0613 35.9402 44.9561L41.9896 41.3356C42.1572 41.2353 42.2599 41.0542 42.2599 40.8588V30.2758C42.2599 30.0804 42.1572 29.8994 41.9896 29.799L35.9402 26.1785C35.7645 26.0733 35.5452 26.0733 35.3695 26.1785L29.3201 29.799Z" stroke="white" stroke-width="1.11128" stroke-linejoin="round"/>
</g>
<path fill-rule="evenodd" clip-rule="evenodd" d="M29.6055 30.2758L35.6549 26.6553V30.5543L32.9051 32.2253L29.6055 30.2758Z" fill="url(#paint13_linear_3103_27325)"/>
<path fill-rule="evenodd" clip-rule="evenodd" d="M29.6055 30.2764V40.8594L32.9051 38.9099V32.2259L29.6055 30.2764Z" fill="url(#paint14_linear_3103_27325)"/>
<path fill-rule="evenodd" clip-rule="evenodd" d="M35.6549 44.4792L29.6055 40.8587L32.9051 38.9092L35.6549 40.5802V44.4792Z" fill="url(#paint15_linear_3103_27325)"/>
<path fill-rule="evenodd" clip-rule="evenodd" d="M35.6523 44.4792L41.7017 40.8587L38.4021 38.9092L35.6523 40.5802V44.4792Z" fill="url(#paint16_linear_3103_27325)"/>
<path fill-rule="evenodd" clip-rule="evenodd" d="M41.702 30.2764V40.8594L38.4023 38.9099V32.2259L41.702 30.2764Z" fill="url(#paint17_linear_3103_27325)"/>
<path fill-rule="evenodd" clip-rule="evenodd" d="M41.7017 30.2758L35.6523 26.6553V30.5543L38.4021 32.2253L41.7017 30.2758Z" fill="url(#paint18_linear_3103_27325)"/>
<path fill-rule="evenodd" clip-rule="evenodd" d="M32.9062 38.9097L35.656 40.5807L38.4057 38.9097V32.2257L35.656 30.5547L32.9062 32.2257V38.9097Z" fill="url(#paint19_linear_3103_27325)"/>
<g filter="url(#filter10_d_3103_27325)">
<path fill-rule="evenodd" clip-rule="evenodd" d="M46.2606 29.5197L45.7557 29.3205C45.4469 29.1987 45.2953 28.8497 45.4171 28.5409C45.4782 28.386 45.6008 28.2634 45.7557 28.2023L46.2606 28.0031C46.8429 27.7735 47.3038 27.3126 47.5334 26.7303L47.7325 26.2254C47.8543 25.9166 48.2034 25.765 48.5122 25.8868C48.6671 25.9479 48.7897 26.0705 48.8508 26.2254L49.0499 26.7303C49.2796 27.3126 49.7405 27.7735 50.3227 28.0031L50.8276 28.2023C51.1364 28.324 51.288 28.6731 51.1663 28.9819C51.1052 29.1368 50.9825 29.2594 50.8276 29.3205L50.3227 29.5197C49.7405 29.7493 49.2796 30.2102 49.0499 30.7925L48.8508 31.2974C48.729 31.6062 48.3799 31.7578 48.0711 31.636C47.9162 31.5749 47.7936 31.4523 47.7325 31.2974L47.5334 30.7925C47.3038 30.2102 46.8429 29.7493 46.2606 29.5197Z" fill="white"/>
</g>
<g filter="url(#filter11_d_3103_27325)">
<path fill-rule="evenodd" clip-rule="evenodd" d="M24.5787 45.7947L24.2421 45.6619C24.0362 45.5807 23.9351 45.348 24.0163 45.1422C24.0571 45.0389 24.1388 44.9571 24.2421 44.9164L24.5787 44.7837C24.9669 44.6306 25.2741 44.3233 25.4272 43.9351L25.56 43.5985C25.6412 43.3927 25.8739 43.2916 26.0797 43.3728C26.183 43.4135 26.2648 43.4953 26.3055 43.5985L26.4382 43.9351C26.5913 44.3233 26.8986 44.6306 27.2868 44.7837L27.6234 44.9164C27.8292 44.9976 27.9303 45.2303 27.8491 45.4362C27.8084 45.5395 27.7266 45.6212 27.6234 45.6619L27.2868 45.7947C26.8986 45.9478 26.5913 46.255 26.4382 46.6432L26.3055 46.9798C26.2243 47.1857 25.9916 47.2868 25.7857 47.2056C25.6824 47.1648 25.6007 47.0831 25.56 46.9798L25.4272 46.6432C25.2741 46.255 24.9669 45.9478 24.5787 45.7947Z" fill="white"/>
</g>
<g filter="url(#filter12_d_3103_27325)">
<path fill-rule="evenodd" clip-rule="evenodd" d="M20.8357 30.8515L20.4149 30.6856C20.1576 30.5841 20.0312 30.2932 20.1327 30.0359C20.1836 29.9068 20.2858 29.8046 20.4149 29.7537L20.8357 29.5877C21.3209 29.3964 21.705 29.0123 21.8963 28.5271L22.0623 28.1063C22.1638 27.849 22.4546 27.7226 22.712 27.8241C22.8411 27.875 22.9432 27.9772 22.9942 28.1063L23.1601 28.5271C23.3515 29.0123 23.7356 29.3964 24.2208 29.5877L24.6415 29.7537C24.8989 29.8552 25.0252 30.146 24.9237 30.4034C24.8728 30.5325 24.7706 30.6347 24.6415 30.6856L24.2208 30.8515C23.7356 31.0429 23.3515 31.427 23.1601 31.9122L22.9942 32.3329C22.8927 32.5903 22.6018 32.7166 22.3444 32.6151C22.2154 32.5642 22.1132 32.462 22.0623 32.3329L21.8963 31.9122C21.705 31.427 21.3209 31.0429 20.8357 30.8515Z" fill="white"/>
</g>
<g filter="url(#filter13_d_3103_27325)">
<path fill-rule="evenodd" clip-rule="evenodd" d="M45.8178 44.2095L45.5653 44.11C45.4109 44.0491 45.3351 43.8745 45.396 43.7201C45.4266 43.6427 45.4879 43.5814 45.5653 43.5508L45.8178 43.4513C46.1089 43.3364 46.3394 43.106 46.4542 42.8149L46.5538 42.5624C46.6147 42.408 46.7892 42.3322 46.9436 42.3931C47.021 42.4237 47.0824 42.485 47.1129 42.5624L47.2125 42.8149C47.3273 43.106 47.5577 43.3364 47.8489 43.4513L48.1013 43.5508C48.2557 43.6117 48.3315 43.7863 48.2706 43.9407C48.2401 44.0181 48.1788 44.0794 48.1013 44.11L47.8489 44.2095C47.5577 44.3244 47.3273 44.5548 47.2125 44.8459L47.1129 45.0984C47.052 45.2528 46.8775 45.3286 46.7231 45.2677C46.6456 45.2372 46.5843 45.1758 46.5538 45.0984L46.4542 44.8459C46.3394 44.5548 46.1089 44.3244 45.8178 44.2095Z" fill="white"/>
</g>
<defs>
<filter id="filter0_d_3103_27325" x="20.9356" y="32.6504" width="17.7772" height="32.9911" filterUnits="userSpaceOnUse" color-interpolation-filters="sRGB">
<feFlood flood-opacity="0" result="BackgroundImageFix"/>
<feColorMatrix in="SourceAlpha" type="matrix" values="0 0 0 0 0 0 0 0 0 0 0 0 0 0 0 0 0 0 127 0" result="hardAlpha"/>
<feOffset dy="1.11128"/>
<feGaussianBlur stdDeviation="0.55564"/>
<feColorMatrix type="matrix" values="0 0 0 0 0.921569 0 0 0 0 0.215686 0 0 0 0 0.305882 0 0 0 0.2 0"/>
<feBlend mode="darken" in2="BackgroundImageFix" result="effect1_dropShadow_3103_27325"/>
<feBlend mode="normal" in="SourceGraphic" in2="effect1_dropShadow_3103_27325" result="shape"/>
</filter>
<filter id="filter1_d_3103_27325" x="32.6036" y="32.6504" width="17.7772" height="32.9911" filterUnits="userSpaceOnUse" color-interpolation-filters="sRGB">
<feFlood flood-opacity="0" result="BackgroundImageFix"/>
<feColorMatrix in="SourceAlpha" type="matrix" values="0 0 0 0 0 0 0 0 0 0 0 0 0 0 0 0 0 0 127 0" result="hardAlpha"/>
<feOffset dy="1.11128"/>
<feGaussianBlur stdDeviation="0.55564"/>
<feColorMatrix type="matrix" values="0 0 0 0 0.921569 0 0 0 0 0.215686 0 0 0 0 0.305882 0 0 0 0.2 0"/>
<feBlend mode="darken" in2="BackgroundImageFix" result="effect1_dropShadow_3103_27325"/>
<feBlend mode="normal" in="SourceGraphic" in2="effect1_dropShadow_3103_27325" result="shape"/>
</filter>
<filter id="filter2_d_3103_27325" x="26.7676" y="37.5117" width="17.7772" height="32.9911" filterUnits="userSpaceOnUse" color-interpolation-filters="sRGB">
<feFlood flood-opacity="0" result="BackgroundImageFix"/>
<feColorMatrix in="SourceAlpha" type="matrix" values="0 0 0 0 0 0 0 0 0 0 0 0 0 0 0 0 0 0 127 0" result="hardAlpha"/>
<feOffset dy="1.11128"/>
<feGaussianBlur stdDeviation="0.55564"/>
<feColorMatrix type="matrix" values="0 0 0 0 0.921569 0 0 0 0 0.215686 0 0 0 0 0.305882 0 0 0 0.2 0"/>
<feBlend mode="darken" in2="BackgroundImageFix" result="effect1_dropShadow_3103_27325"/>
<feBlend mode="normal" in="SourceGraphic" in2="effect1_dropShadow_3103_27325" result="shape"/>
</filter>
<filter id="filter3_i_3103_27325" x="7.94922" y="24.3838" width="11.668" height="6.87498" filterUnits="userSpaceOnUse" color-interpolation-filters="sRGB">
<feFlood flood-opacity="0" result="BackgroundImageFix"/>
<feBlend mode="normal" in="SourceGraphic" in2="BackgroundImageFix" result="shape"/>
<feColorMatrix in="SourceAlpha" type="matrix" values="0 0 0 0 0 0 0 0 0 0 0 0 0 0 0 0 0 0 127 0" result="hardAlpha"/>
<feOffset dy="0.55564"/>
<feGaussianBlur stdDeviation="0.27782"/>
<feComposite in2="hardAlpha" operator="arithmetic" k2="-1" k3="1"/>
<feColorMatrix type="matrix" values="0 0 0 0 0.976471 0 0 0 0 0.713726 0 0 0 0 0.0352941 0 0 0 1 0"/>
<feBlend mode="normal" in2="shape" result="effect1_innerShadow_3103_27325"/>
</filter>
<filter id="filter4_i_3103_27325" x="8.91797" y="30.2178" width="11.668" height="6.87498" filterUnits="userSpaceOnUse" color-interpolation-filters="sRGB">
<feFlood flood-opacity="0" result="BackgroundImageFix"/>
<feBlend mode="normal" in="SourceGraphic" in2="BackgroundImageFix" result="shape"/>
<feColorMatrix in="SourceAlpha" type="matrix" values="0 0 0 0 0 0 0 0 0 0 0 0 0 0 0 0 0 0 127 0" result="hardAlpha"/>
<feOffset dy="0.55564"/>
<feGaussianBlur stdDeviation="0.27782"/>
<feComposite in2="hardAlpha" operator="arithmetic" k2="-1" k3="1"/>
<feColorMatrix type="matrix" values="0 0 0 0 0.976471 0 0 0 0 0.713726 0 0 0 0 0.0352941 0 0 0 1 0"/>
<feBlend mode="normal" in2="shape" result="effect1_innerShadow_3103_27325"/>
</filter>
<filter id="filter5_i_3103_27325" x="51.6914" y="24.3838" width="11.668" height="6.87498" filterUnits="userSpaceOnUse" color-interpolation-filters="sRGB">
<feFlood flood-opacity="0" result="BackgroundImageFix"/>
<feBlend mode="normal" in="SourceGraphic" in2="BackgroundImageFix" result="shape"/>
<feColorMatrix in="SourceAlpha" type="matrix" values="0 0 0 0 0 0 0 0 0 0 0 0 0 0 0 0 0 0 127 0" result="hardAlpha"/>
<feOffset dy="0.55564"/>
<feGaussianBlur stdDeviation="0.27782"/>
<feComposite in2="hardAlpha" operator="arithmetic" k2="-1" k3="1"/>
<feColorMatrix type="matrix" values="0 0 0 0 0.976471 0 0 0 0 0.713726 0 0 0 0 0.0352941 0 0 0 1 0"/>
<feBlend mode="normal" in2="shape" result="effect1_innerShadow_3103_27325"/>
</filter>
<filter id="filter6_i_3103_27325" x="50.7227" y="30.2178" width="11.668" height="6.87498" filterUnits="userSpaceOnUse" color-interpolation-filters="sRGB">
<feFlood flood-opacity="0" result="BackgroundImageFix"/>
<feBlend mode="normal" in="SourceGraphic" in2="BackgroundImageFix" result="shape"/>
<feColorMatrix in="SourceAlpha" type="matrix" values="0 0 0 0 0 0 0 0 0 0 0 0 0 0 0 0 0 0 127 0" result="hardAlpha"/>
<feOffset dy="0.55564"/>
<feGaussianBlur stdDeviation="0.27782"/>
<feComposite in2="hardAlpha" operator="arithmetic" k2="-1" k3="1"/>
<feColorMatrix type="matrix" values="0 0 0 0 0.976471 0 0 0 0 0.713726 0 0 0 0 0.0352941 0 0 0 1 0"/>
<feBlend mode="normal" in2="shape" result="effect1_innerShadow_3103_27325"/>
</filter>
<filter id="filter7_i_3103_27325" x="17.582" y="16.7051" width="36.1445" height="38.2783" filterUnits="userSpaceOnUse" color-interpolation-filters="sRGB">
<feFlood flood-opacity="0" result="BackgroundImageFix"/>
<feBlend mode="normal" in="SourceGraphic" in2="BackgroundImageFix" result="shape"/>
<feColorMatrix in="SourceAlpha" type="matrix" values="0 0 0 0 0 0 0 0 0 0 0 0 0 0 0 0 0 0 127 0" result="hardAlpha"/>
<feOffset dy="0.55564"/>
<feGaussianBlur stdDeviation="0.27782"/>
<feComposite in2="hardAlpha" operator="arithmetic" k2="-1" k3="1"/>
<feColorMatrix type="matrix" values="0 0 0 0 0.976471 0 0 0 0 0.713726 0 0 0 0 0.0352941 0 0 0 1 0"/>
<feBlend mode="normal" in2="shape" result="effect1_innerShadow_3103_27325"/>
</filter>
<filter id="filter8_d_3103_27325" x="20.5137" y="19.0703" width="30.2772" height="34.1015" filterUnits="userSpaceOnUse" color-interpolation-filters="sRGB">
<feFlood flood-opacity="0" result="BackgroundImageFix"/>
<feColorMatrix in="SourceAlpha" type="matrix" values="0 0 0 0 0 0 0 0 0 0 0 0 0 0 0 0 0 0 127 0" result="hardAlpha"/>
<feOffset dy="0.55564"/>
<feGaussianBlur stdDeviation="0.55564"/>
<feColorMatrix type="matrix" values="0 0 0 0 0.927721 0 0 0 0 0.665867 0 0 0 0 0.0535899 0 0 0 0.4 0"/>
<feBlend mode="normal" in2="BackgroundImageFix" result="effect1_dropShadow_3103_27325"/>
<feBlend mode="normal" in="SourceGraphic" in2="effect1_dropShadow_3103_27325" result="shape"/>
</filter>
<filter id="filter9_d_3103_27325" x="27.3848" y="24.9883" width="16.5429" height="22.2694" filterUnits="userSpaceOnUse" color-interpolation-filters="sRGB">
<feFlood flood-opacity="0" result="BackgroundImageFix"/>
<feColorMatrix in="SourceAlpha" type="matrix" values="0 0 0 0 0 0 0 0 0 0 0 0 0 0 0 0 0 0 127 0" result="hardAlpha"/>
<feOffset dy="0.55564"/>
<feGaussianBlur stdDeviation="0.55564"/>
<feColorMatrix type="matrix" values="0 0 0 0 0.996078 0 0 0 0 0.733333 0 0 0 0 0.105882 0 0 0 1 0"/>
<feBlend mode="normal" in2="BackgroundImageFix" result="effect1_dropShadow_3103_27325"/>
<feBlend mode="normal" in="SourceGraphic" in2="effect1_dropShadow_3103_27325" result="shape"/>
</filter>
<filter id="filter10_d_3103_27325" x="44.2637" y="24.7334" width="8.05459" height="8.05557" filterUnits="userSpaceOnUse" color-interpolation-filters="sRGB">
<feFlood flood-opacity="0" result="BackgroundImageFix"/>
<feColorMatrix in="SourceAlpha" type="matrix" values="0 0 0 0 0 0 0 0 0 0 0 0 0 0 0 0 0 0 127 0" result="hardAlpha"/>
<feOffset/>
<feGaussianBlur stdDeviation="0.55564"/>
<feColorMatrix type="matrix" values="0 0 0 0 1 0 0 0 0 0.94902 0 0 0 0 0.305882 0 0 0 1 0"/>
<feBlend mode="normal" in2="BackgroundImageFix" result="effect1_dropShadow_3103_27325"/>
<feBlend mode="normal" in="SourceGraphic" in2="effect1_dropShadow_3103_27325" result="shape"/>
</filter>
<filter id="filter11_d_3103_27325" x="22.877" y="42.2334" width="6.11319" height="6.11123" filterUnits="userSpaceOnUse" color-interpolation-filters="sRGB">
<feFlood flood-opacity="0" result="BackgroundImageFix"/>
<feColorMatrix in="SourceAlpha" type="matrix" values="0 0 0 0 0 0 0 0 0 0 0 0 0 0 0 0 0 0 127 0" result="hardAlpha"/>
<feOffset/>
<feGaussianBlur stdDeviation="0.55564"/>
<feColorMatrix type="matrix" values="0 0 0 0 1 0 0 0 0 0.94902 0 0 0 0 0.305882 0 0 0 1 0"/>
<feBlend mode="normal" in2="BackgroundImageFix" result="effect1_dropShadow_3103_27325"/>
<feBlend mode="normal" in="SourceGraphic" in2="effect1_dropShadow_3103_27325" result="shape"/>
</filter>
<filter id="filter12_d_3103_27325" x="18.9864" y="26.6778" width="7.08194" height="7.08389" filterUnits="userSpaceOnUse" color-interpolation-filters="sRGB">
<feFlood flood-opacity="0" result="BackgroundImageFix"/>
<feColorMatrix in="SourceAlpha" type="matrix" values="0 0 0 0 0 0 0 0 0 0 0 0 0 0 0 0 0 0 127 0" result="hardAlpha"/>
<feOffset/>
<feGaussianBlur stdDeviation="0.55564"/>
<feColorMatrix type="matrix" values="0 0 0 0 1 0 0 0 0 0.94902 0 0 0 0 0.305882 0 0 0 1 0"/>
<feBlend mode="normal" in2="BackgroundImageFix" result="effect1_dropShadow_3103_27325"/>
<feBlend mode="normal" in="SourceGraphic" in2="effect1_dropShadow_3103_27325" result="shape"/>
</filter>
<filter id="filter13_d_3103_27325" x="44.2637" y="41.2608" width="5.14053" height="5.13955" filterUnits="userSpaceOnUse" color-interpolation-filters="sRGB">
<feFlood flood-opacity="0" result="BackgroundImageFix"/>
<feColorMatrix in="SourceAlpha" type="matrix" values="0 0 0 0 0 0 0 0 0 0 0 0 0 0 0 0 0 0 127 0" result="hardAlpha"/>
<feOffset/>
<feGaussianBlur stdDeviation="0.55564"/>
<feColorMatrix type="matrix" values="0 0 0 0 1 0 0 0 0 0.94902 0 0 0 0 0.305882 0 0 0 1 0"/>
<feBlend mode="normal" in2="BackgroundImageFix" result="effect1_dropShadow_3103_27325"/>
<feBlend mode="normal" in="SourceGraphic" in2="effect1_dropShadow_3103_27325" result="shape"/>
</filter>
<linearGradient id="paint0_linear_3103_27325" x1="5.51562" y1="6.39941" x2="5.51562" y2="64.7327" gradientUnits="userSpaceOnUse">
<stop stop-color="#FF7F7D"/>
<stop offset="1" stop-color="#EC2E4A"/>
</linearGradient>
<linearGradient id="paint1_linear_3103_27325" x1="8.43359" y1="19.0371" x2="8.43359" y2="39.4538" gradientUnits="userSpaceOnUse">
<stop stop-color="#C28831"/>
<stop offset="1" stop-color="#E8AF5A"/>
</linearGradient>
<linearGradient id="paint2_linear_3103_27325" x1="8.43359" y1="19.0371" x2="8.43359" y2="39.4538" gradientUnits="userSpaceOnUse">
<stop stop-color="#C28831"/>
<stop offset="1" stop-color="#F4C784"/>
</linearGradient>
<linearGradient id="paint3_linear_3103_27325" x1="62.875" y1="19.0371" x2="62.875" y2="39.4538" gradientUnits="userSpaceOnUse">
<stop stop-color="#C28831"/>
<stop offset="1" stop-color="#E8AF5A"/>
</linearGradient>
<linearGradient id="paint4_linear_3103_27325" x1="62.875" y1="19.0371" x2="62.875" y2="39.4538" gradientUnits="userSpaceOnUse">
<stop stop-color="#C28831"/>
<stop offset="1" stop-color="#F4C784"/>
</linearGradient>
<linearGradient id="paint5_linear_3103_27325" x1="13.293" y1="41.3984" x2="13.293" y2="50.6345" gradientUnits="userSpaceOnUse">
<stop stop-color="#C28831"/>
<stop offset="1" stop-color="#E8AF5A"/>
</linearGradient>
<linearGradient id="paint6_linear_3103_27325" x1="13.293" y1="41.3984" x2="13.293" y2="50.6345" gradientUnits="userSpaceOnUse">
<stop stop-color="#C28831"/>
<stop offset="1" stop-color="#F4C784"/>
</linearGradient>
<linearGradient id="paint7_linear_3103_27325" x1="58.0195" y1="41.3984" x2="58.0195" y2="50.6345" gradientUnits="userSpaceOnUse">
<stop stop-color="#C28831"/>
<stop offset="1" stop-color="#E8AF5A"/>
</linearGradient>
<linearGradient id="paint8_linear_3103_27325" x1="58.0195" y1="41.3984" x2="58.0195" y2="50.6345" gradientUnits="userSpaceOnUse">
<stop stop-color="#C28831"/>
<stop offset="1" stop-color="#F4C784"/>
</linearGradient>
<linearGradient id="paint9_linear_3103_27325" x1="20.1562" y1="13.7939" x2="20.1562" y2="28.6998" gradientUnits="userSpaceOnUse">
<stop stop-color="#C28831"/>
<stop offset="1" stop-color="#DDAD65"/>
</linearGradient>
<linearGradient id="paint10_linear_3103_27325" x1="51.1484" y1="13.7939" x2="51.1484" y2="28.6998" gradientUnits="userSpaceOnUse">
<stop stop-color="#C28831"/>
<stop offset="1" stop-color="#DDAD65"/>
</linearGradient>
<linearGradient id="paint11_linear_3103_27325" x1="13.293" y1="13.2051" x2="13.293" y2="57.9273" gradientUnits="userSpaceOnUse">
<stop stop-color="#C28831"/>
<stop offset="1" stop-color="#DDAF6A"/>
</linearGradient>
<linearGradient id="paint12_linear_3103_27325" x1="20.0977" y1="20.0098" x2="20.0977" y2="51.1209" gradientUnits="userSpaceOnUse">
<stop stop-color="#C28831"/>
<stop offset="1" stop-color="#875C1B"/>
</linearGradient>
<linearGradient id="paint13_linear_3103_27325" x1="36.1117" y1="30.4984" x2="34.4648" y2="27.4094" gradientUnits="userSpaceOnUse">
<stop stop-color="#FFD3D3"/>
<stop offset="1" stop-color="#FF7E8A"/>
</linearGradient>
<linearGradient id="paint14_linear_3103_27325" x1="32.9051" y1="40.8594" x2="32.9051" y2="30.2764" gradientUnits="userSpaceOnUse">
<stop stop-color="#FF8B89"/>
<stop offset="1" stop-color="#F34C5D"/>
</linearGradient>
<linearGradient id="paint15_linear_3103_27325" x1="34.1903" y1="43.301" x2="35.5187" y2="40.3415" gradientUnits="userSpaceOnUse">
<stop stop-color="#FF7F7D"/>
<stop offset="1" stop-color="#F21248"/>
</linearGradient>
<linearGradient id="paint16_linear_3103_27325" x1="41.7017" y1="44.4792" x2="41.7017" y2="38.9092" gradientUnits="userSpaceOnUse">
<stop stop-color="#FF8B89"/>
<stop offset="1" stop-color="#F34C5D"/>
</linearGradient>
<linearGradient id="paint17_linear_3103_27325" x1="41.702" y1="40.8594" x2="41.702" y2="30.2764" gradientUnits="userSpaceOnUse">
<stop stop-color="#FF8B89"/>
<stop offset="1" stop-color="#F34C5D"/>
</linearGradient>
<linearGradient id="paint18_linear_3103_27325" x1="38.4933" y1="32.1529" x2="39.9848" y2="29.2643" gradientUnits="userSpaceOnUse">
<stop stop-color="#FF7F7D"/>
<stop offset="1" stop-color="#F21248"/>
</linearGradient>
<linearGradient id="paint19_linear_3103_27325" x1="38.4057" y1="40.5807" x2="38.4057" y2="30.5547" gradientUnits="userSpaceOnUse">
<stop stop-color="#FF7F7D"/>
<stop offset="1" stop-color="#F21248"/>
</linearGradient>
</defs>
</svg>
