<svg width="41" height="41" viewBox="0 0 41 41" fill="none" xmlns="http://www.w3.org/2000/svg">
<path fill-rule="evenodd" clip-rule="evenodd" d="M29.6354 34.4441C30.2491 34.4441 30.7465 34.9416 30.7465 35.5552C30.7465 36.1689 30.2491 36.6663 29.6354 36.6663H19.6354C19.5701 36.6663 19.5061 36.6607 19.4439 36.6499C15.8746 36.4924 12.597 35.2123 9.9555 33.1541C9.74066 32.9867 9.4169 32.7092 9.17695 32.5004C8.97174 32.3218 8.70946 32.2219 8.43743 32.2219H5.74653C5.13288 32.2219 4.63542 31.7244 4.63542 31.1108C4.63542 30.4971 5.13288 29.9997 5.74653 29.9997H6.85764C7.47129 29.9997 7.96875 29.5022 7.96875 28.8886C7.96875 28.2749 7.47129 27.7775 6.85764 27.7775H4.07986C3.46621 27.7775 2.96875 27.28 2.96875 26.6663C2.96875 26.0527 3.46621 25.5552 4.07986 25.5552H4.63542C5.24907 25.5552 5.74653 25.0578 5.74653 24.4441C5.74653 23.8305 5.24907 23.333 4.63542 23.333C4.18614 23.333 3.80187 23.0092 3.72712 22.5661C3.69996 22.4052 3.67838 22.2756 3.67482 22.2492C3.57556 21.5135 3.52431 20.7626 3.52431 19.9997C3.52431 10.7949 10.9862 3.33301 20.191 3.33301C22.9687 3.33301 25.7465 3.33301 28.5243 3.33301C29.138 3.33301 29.6354 3.83047 29.6354 4.44412C29.6354 5.05777 29.138 5.55523 28.5243 5.55523H26.8576C26.244 5.55523 25.7465 6.05269 25.7465 6.66634C25.7465 7.27999 26.244 7.77745 26.8576 7.77745H33.5243C34.138 7.77745 34.6354 8.27491 34.6354 8.88856C34.6354 9.50181 34.1386 9.99901 33.5255 9.99967L31.8576 9.99967C31.244 9.99967 30.7465 10.4971 30.7465 11.1108C30.7465 11.7244 31.244 12.2219 31.8576 12.2219H34.2499C34.6701 12.2219 35.0552 12.4585 35.2374 12.8371C35.3469 13.0647 35.4621 13.3102 35.5374 13.4876C36.3874 15.4882 36.8576 17.689 36.8576 19.9997C36.8576 20.7257 36.8112 21.4409 36.7212 22.1424C36.706 22.2604 36.6828 22.4118 36.6575 22.5668C36.585 23.0115 36.1971 23.333 35.7465 23.333C35.1329 23.333 34.6354 23.8305 34.6354 24.4441C34.6354 25.0578 35.1329 25.5552 35.7465 25.5552H36.3021C36.9157 25.5552 37.4132 26.0527 37.4132 26.6663C37.4132 27.28 36.9157 27.7775 36.3021 27.7775H35.5888C35.1855 27.7775 34.8145 27.9965 34.613 28.3459C34.4821 28.5728 34.3366 28.8197 34.2285 28.9882C33.9751 29.3832 33.7054 29.7668 33.4205 30.138C33.1344 30.5108 32.8328 30.8712 32.5168 31.2182C32.3433 31.4087 32.0624 31.6908 31.8432 31.9075C31.6382 32.1102 31.361 32.2219 31.0727 32.2219H27.9687C27.3551 32.2219 26.8576 32.7194 26.8576 33.333C26.8576 33.9424 27.3482 34.4372 27.9559 34.444L29.6354 34.4441Z" fill="url(#paint0_linear_3072_20320)"/>
<g opacity="0.2">
<path fill-rule="evenodd" clip-rule="evenodd" d="M18.5245 7.04298C19.556 6.44744 20.8269 6.44744 21.8584 7.04298L30.5793 12.078C31.6108 12.6735 32.2462 13.7741 32.2462 14.9652V25.0352C32.2462 26.2263 31.6108 27.3269 30.5793 27.9224L21.8584 32.9574C20.8269 33.5529 19.556 33.5529 18.5245 32.9574L9.80364 27.9224C8.77214 27.3269 8.13672 26.2263 8.13672 25.0352L8.13672 14.9652C8.13672 13.7741 8.77215 12.6735 9.80364 12.078L18.5245 7.04298Z" fill="#A4053A" fill-opacity="0.2" style="mix-blend-mode:multiply"/>
</g>
<g filter="url(#filter0_d_3072_20320)">
<path fill-rule="evenodd" clip-rule="evenodd" d="M12.4141 18.334H21.3029V35.2127C21.3029 35.6258 20.8683 35.8944 20.4988 35.7097L16.8585 33.8895L13.2182 35.7097C12.8487 35.8944 12.4141 35.6258 12.4141 35.2127V18.334Z" fill="#7F45F6"/>
</g>
<g filter="url(#filter1_d_3072_20320)">
<path fill-rule="evenodd" clip-rule="evenodd" d="M19.082 18.334H27.9709V35.2127C27.9709 35.6258 27.5362 35.8944 27.1668 35.7097L23.5265 33.8895L19.8862 35.7097C19.5167 35.8944 19.082 35.6258 19.082 35.2127V18.334Z" fill="#7F45F6"/>
</g>
<g filter="url(#filter2_d_3072_20320)">
<path fill-rule="evenodd" clip-rule="evenodd" d="M15.7461 21.1113H24.635V37.9901C24.635 38.4031 24.2003 38.6718 23.8309 38.487L20.1905 36.6669L16.5502 38.487C16.1808 38.6718 15.7461 38.4031 15.7461 37.9901V21.1113Z" fill="white"/>
</g>
<mask id="mask0_3072_20320" style="mask-type:luminance" maskUnits="userSpaceOnUse" x="15" y="21" width="10" height="18">
<path fill-rule="evenodd" clip-rule="evenodd" d="M15.7461 21.1113H24.635V37.9901C24.635 38.4031 24.2003 38.6718 23.8309 38.487L20.1905 36.6669L16.5502 38.487C16.1808 38.6718 15.7461 38.4031 15.7461 37.9901V21.1113Z" fill="white"/>
</mask>
<g mask="url(#mask0_3072_20320)">
<rect x="17.9688" y="21.1113" width="4.44445" height="17.7778" fill="#F55462"/>
</g>
<path style="mix-blend-mode:multiply" opacity="0.8" fill-rule="evenodd" clip-rule="evenodd" d="M19.0796 8.97458C19.7673 8.57756 20.6145 8.57755 21.3022 8.97458L30.1455 14.0803C30.8331 14.4773 31.2568 15.211 31.2568 16.0051V26.2164C31.2568 27.0105 30.8331 27.7442 30.1455 28.1412L21.3022 33.2469C20.6145 33.644 19.7673 33.644 19.0796 33.2469L10.2363 28.1412C9.54862 27.7442 9.125 27.0105 9.125 26.2164L9.125 16.0051C9.125 15.211 9.54862 14.4773 10.2363 14.0803L19.0796 8.97458Z" fill="#A4053A" fill-opacity="0.2"/>
<path fill-rule="evenodd" clip-rule="evenodd" d="M10.7478 13.6102L7.97005 12.4991V11.9436L5.30259 10.8321C5.0402 10.7228 4.77013 10.9709 4.85689 11.2416L8.02121 21.1143C8.07624 21.286 8.21112 21.4203 8.38302 21.4746L10.7478 22.2214V13.6102Z" fill="url(#paint1_linear_3072_20320)" stroke="url(#paint2_linear_3072_20320)" stroke-width="0.55564" stroke-linecap="round" stroke-linejoin="round"/>
<mask id="mask1_3072_20320" style="mask-type:luminance" maskUnits="userSpaceOnUse" x="5" y="11" width="7" height="12">
<path fill-rule="evenodd" clip-rule="evenodd" d="M10.7478 14.3626C10.7478 13.9082 10.4712 13.4996 10.0493 13.3308L8.22995 12.6031C8.07298 12.5403 7.97005 12.3883 7.97005 12.2192C7.97005 12.0523 7.86969 11.9018 7.71562 11.8376L6.8563 11.4795C5.98167 11.1151 5.08143 11.9422 5.37063 12.8445L7.93349 20.8406C8.04353 21.1839 8.3133 21.4526 8.6571 21.5611L9.30191 21.7647C10.0182 21.9909 10.7478 21.4562 10.7478 20.705V14.3626Z" fill="white" stroke="white" stroke-width="0.55564"/>
</mask>
<g mask="url(#mask1_3072_20320)">
<g style="mix-blend-mode:multiply" opacity="0.6" filter="url(#filter3_i_3072_20320)">
<path d="M10.8515 16.6858C10.9939 16.7428 11.0632 16.9045 11.0062 17.0469C10.9493 17.1894 10.7876 17.2586 10.6452 17.2017L7.86739 16.0906C7.76193 16.0484 7.69278 15.9462 7.69278 15.8326V15.4623L4.53039 14.1446C4.38878 14.0856 4.32181 13.923 4.38081 13.7814C4.43982 13.6398 4.60245 13.5728 4.74406 13.6318L8.0774 15.0207C8.18091 15.0638 8.24834 15.165 8.24834 15.2771V15.6446L10.8515 16.6858Z" fill="#FABC10"/>
</g>
<g style="mix-blend-mode:multiply" opacity="0.6" filter="url(#filter4_i_3072_20320)">
<path d="M11.4062 20.0189C11.5486 20.0758 11.6179 20.2375 11.5609 20.3799C11.504 20.5224 11.3423 20.5917 11.1999 20.5347L8.42208 19.4236C8.31662 19.3814 8.24747 19.2792 8.24747 19.1657V18.7953L5.08508 17.4776C4.94346 17.4186 4.8765 17.256 4.9355 17.1144C4.99451 16.9728 5.15714 16.9058 5.29875 16.9648L8.63208 18.3537C8.7356 18.3968 8.80302 18.498 8.80302 18.6101V18.9776L11.4062 20.0189Z" fill="#FABC10"/>
</g>
<g opacity="0.2">
<path fill-rule="evenodd" clip-rule="evenodd" d="M18.5245 7.042C19.556 6.44647 20.8269 6.44647 21.8584 7.042L30.5793 12.077C31.6108 12.6725 32.2462 13.7731 32.2462 14.9642V25.0342C32.2462 26.2253 31.6108 27.3259 30.5793 27.9214L21.8584 32.9564C20.8269 33.552 19.556 33.552 18.5245 32.9564L9.80364 27.9214C8.77214 27.3259 8.13672 26.2253 8.13672 25.0342L8.13672 14.9642C8.13672 13.7731 8.77215 12.6725 9.80364 12.077L18.5245 7.042Z" fill="#A4053A" fill-opacity="0.2" style="mix-blend-mode:multiply"/>
</g>
</g>
<path fill-rule="evenodd" clip-rule="evenodd" d="M29.635 13.6102L32.4128 12.4991V11.9436L35.0802 10.8321C35.3426 10.7228 35.6127 10.9709 35.5259 11.2416L32.3616 21.1143C32.3066 21.286 32.1717 21.4203 31.9998 21.4746L29.635 22.2214V13.6102Z" fill="url(#paint3_linear_3072_20320)" stroke="url(#paint4_linear_3072_20320)" stroke-width="0.55564" stroke-linecap="round" stroke-linejoin="round"/>
<mask id="mask2_3072_20320" style="mask-type:luminance" maskUnits="userSpaceOnUse" x="29" y="11" width="7" height="12">
<path fill-rule="evenodd" clip-rule="evenodd" d="M29.635 14.3626C29.635 13.9082 29.9116 13.4996 30.3335 13.3308L32.1529 12.6031C32.3098 12.5403 32.4128 12.3883 32.4128 12.2192C32.4128 12.0523 32.5131 11.9018 32.6672 11.8376L33.5265 11.4795C34.4011 11.1151 35.3014 11.9422 35.0122 12.8445L32.4493 20.8406C32.3393 21.1839 32.0695 21.4526 31.7257 21.5611L31.0809 21.7647C30.3647 21.9909 29.635 21.4562 29.635 20.705V14.3626Z" fill="white" stroke="white" stroke-width="0.55564"/>
</mask>
<g mask="url(#mask2_3072_20320)">
<g style="mix-blend-mode:multiply" opacity="0.6" filter="url(#filter5_i_3072_20320)">
<path d="M29.5313 16.6858C29.3889 16.7428 29.3196 16.9045 29.3766 17.0469C29.4335 17.1894 29.5952 17.2586 29.7376 17.2017L32.5154 16.0906C32.6209 16.0484 32.69 15.9462 32.69 15.8326V15.4623L35.8524 14.1446C35.994 14.0856 36.061 13.923 36.002 13.7814C35.943 13.6398 35.7804 13.5728 35.6387 13.6318L32.3054 15.0207C32.2019 15.0638 32.1345 15.165 32.1345 15.2771V15.6446L29.5313 16.6858Z" fill="#FABC10"/>
</g>
<g style="mix-blend-mode:multiply" opacity="0.6" filter="url(#filter6_i_3072_20320)">
<path d="M28.9766 20.0189C28.8342 20.0758 28.7649 20.2375 28.8219 20.3799C28.8789 20.5224 29.0405 20.5917 29.183 20.5347L31.9607 19.4236C32.0662 19.3814 32.1353 19.2792 32.1353 19.1657V18.7953L35.2977 17.4776C35.4393 17.4186 35.5063 17.256 35.4473 17.1144C35.3883 16.9728 35.2257 16.9058 35.0841 16.9648L31.7507 18.3537C31.6472 18.3968 31.5798 18.498 31.5798 18.6101V18.9776L28.9766 20.0189Z" fill="#FABC10"/>
</g>
<g opacity="0.2">
<path fill-rule="evenodd" clip-rule="evenodd" d="M21.8583 7.042C20.8268 6.44647 19.5559 6.44647 18.5244 7.042L9.80354 12.077C8.77205 12.6725 8.13663 13.7731 8.13663 14.9642V25.0342C8.13663 26.2253 8.77205 27.3259 9.80355 27.9214L18.5244 32.9564C19.5559 33.552 20.8268 33.552 21.8583 32.9564L30.5792 27.9214C31.6107 27.3259 32.2461 26.2253 32.2461 25.0342L32.2461 14.9642C32.2461 13.7731 31.6107 12.6725 30.5792 12.077L21.8583 7.042Z" fill="#A4053A" fill-opacity="0.2" style="mix-blend-mode:multiply"/>
</g>
</g>
<path fill-rule="evenodd" clip-rule="evenodd" d="M10.1918 23.333L8.23298 24.3124C8.06826 24.3948 7.95504 24.5534 7.9307 24.736L7.5031 27.943C7.46662 28.2166 7.75934 28.4135 7.99896 28.2766L11.303 26.3886L10.1918 23.333Z" fill="url(#paint5_linear_3072_20320)" stroke="url(#paint6_linear_3072_20320)" stroke-width="0.55564" stroke-linecap="round" stroke-linejoin="round"/>
<mask id="mask3_3072_20320" style="mask-type:luminance" maskUnits="userSpaceOnUse" x="7" y="23" width="5" height="5">
<path fill-rule="evenodd" clip-rule="evenodd" d="M10.618 24.5048C10.391 23.8806 9.67069 23.5936 9.0766 23.8906L8.49634 24.1808C8.16689 24.3455 7.94047 24.6627 7.89179 25.0278L7.71084 26.385C7.58926 27.2968 8.56498 27.9531 9.36372 27.4967L10.4899 26.8532C10.9597 26.5847 11.1678 26.017 10.9829 25.5085L10.618 24.5048Z" fill="white" stroke="white" stroke-width="0.55564"/>
</mask>
<g mask="url(#mask3_3072_20320)">
<g opacity="0.1">
<path fill-rule="evenodd" clip-rule="evenodd" d="M18.4034 7.04298C19.4349 6.44744 20.7058 6.44744 21.7373 7.04298L30.4582 12.078C31.4897 12.6735 32.1251 13.7741 32.1251 14.9652V25.0352C32.1251 26.2263 31.4897 27.3269 30.4582 27.9224L21.7373 32.9574C20.7058 33.5529 19.4349 33.5529 18.4034 32.9574L9.68255 27.9224C8.65105 27.3269 8.01563 26.2263 8.01563 25.0352L8.01562 14.9652C8.01562 13.7741 8.65105 12.6735 9.68255 12.078L18.4034 7.04298Z" fill="#F37E02" style="mix-blend-mode:multiply"/>
</g>
</g>
<path fill-rule="evenodd" clip-rule="evenodd" d="M30.1949 23.333L32.1537 24.3124C32.3185 24.3948 32.4317 24.5534 32.456 24.736L32.8836 27.943C32.9201 28.2166 32.6274 28.4135 32.3878 28.2766L29.0838 26.3886L30.1949 23.333Z" fill="url(#paint7_linear_3072_20320)" stroke="url(#paint8_linear_3072_20320)" stroke-width="0.55564" stroke-linecap="round" stroke-linejoin="round"/>
<mask id="mask4_3072_20320" style="mask-type:luminance" maskUnits="userSpaceOnUse" x="28" y="23" width="6" height="6">
<path fill-rule="evenodd" clip-rule="evenodd" d="M30.1949 23.333L32.1537 24.3124C32.3185 24.3948 32.4317 24.5534 32.456 24.736L32.8836 27.943C32.9201 28.2166 32.6274 28.4135 32.3878 28.2766L29.0838 26.3886L30.1949 23.333Z" fill="white" stroke="white" stroke-width="0.55564" stroke-linecap="round" stroke-linejoin="round"/>
</mask>
<g mask="url(#mask4_3072_20320)">
<g opacity="0.1">
<path fill-rule="evenodd" clip-rule="evenodd" d="M21.9833 7.04298C20.9518 6.44744 19.6809 6.44744 18.6494 7.04298L9.92854 12.078C8.89705 12.6735 8.26162 13.7741 8.26162 14.9652V25.0352C8.26162 26.2263 8.89705 27.3269 9.92854 27.9224L18.6494 32.9574C19.6809 33.5529 20.9518 33.5529 21.9833 32.9574L30.7042 27.9224C31.7357 27.3269 32.3711 26.2263 32.3711 25.0352L32.3711 14.9652C32.3711 13.7741 31.7357 12.6735 30.7042 12.078L21.9833 7.04298Z" fill="#F37E02" style="mix-blend-mode:multiply"/>
</g>
</g>
<path fill-rule="evenodd" clip-rule="evenodd" d="M16.8689 13.1517C16.8689 14.0041 16.3813 14.7815 15.6139 15.1526L14.5261 15.6786C13.0502 16.3924 11.3359 15.3172 11.3359 13.6778V10.988C11.3359 10.591 11.5477 10.2241 11.8916 10.0256L16.0354 7.63319C16.4058 7.41932 16.8689 7.68666 16.8689 8.11439V13.1517Z" fill="url(#paint9_linear_3072_20320)"/>
<path opacity="0.4" d="M11.9727 10.2992L16.1808 7.87012" stroke="#FDEDAC" stroke-width="0.55564" stroke-linecap="round"/>
<path fill-rule="evenodd" clip-rule="evenodd" d="M23.5139 13.1517C23.5139 14.0041 24.0015 14.7815 24.7689 15.1526L25.8567 15.6786C27.3326 16.3924 29.0469 15.3172 29.0469 13.6778V10.988C29.0469 10.591 28.8351 10.2241 28.4912 10.0256L24.3474 7.63319C23.977 7.41932 23.5139 7.68666 23.5139 8.11439V13.1517Z" fill="url(#paint10_linear_3072_20320)"/>
<path opacity="0.4" d="M28.4102 10.2992L24.202 7.87012" stroke="#FDEDAC" stroke-width="0.55564" stroke-linecap="round"/>
<path fill-rule="evenodd" clip-rule="evenodd" d="M19.0806 7.86328C19.7682 7.46626 20.6155 7.46626 21.3031 7.86328L30.1464 12.969C30.8341 13.366 31.2577 14.0997 31.2577 14.8938V25.1051C31.2577 25.8992 30.8341 26.6329 30.1464 27.0299L21.3031 32.1356C20.6155 32.5327 19.7682 32.5327 19.0806 32.1356L10.2372 27.0299C9.54958 26.6329 9.12596 25.8992 9.12596 25.1051V14.8938C9.12596 14.0997 9.54958 13.366 10.2372 12.969L19.0806 7.86328Z" fill="url(#paint11_linear_3072_20320)" stroke="#FFF04D" stroke-opacity="0.4" stroke-width="0.55564"/>
<mask id="mask5_3072_20320" style="mask-type:luminance" maskUnits="userSpaceOnUse" x="9" y="7" width="23" height="26">
<path fill-rule="evenodd" clip-rule="evenodd" d="M19.6362 7.54248C19.98 7.34397 20.4036 7.34397 20.7475 7.54248L30.7021 13.2898C31.0459 13.4883 31.2577 13.8551 31.2577 14.2522V25.7467C31.2577 26.1438 31.0459 26.5106 30.7021 26.7091L20.7475 32.4564C20.4036 32.6549 19.98 32.6549 19.6362 32.4564L9.6816 26.7091C9.33777 26.5106 9.12596 26.1438 9.12596 25.7467V14.2522C9.12596 13.8551 9.33777 13.4883 9.6816 13.2898L19.6362 7.54248Z" fill="white"/>
</mask>
<g mask="url(#mask5_3072_20320)">
<g style="mix-blend-mode:multiply" opacity="0.8" filter="url(#filter7_i_3072_20320)">
<path fill-rule="evenodd" clip-rule="evenodd" d="M28.8989 13.9931L21.0353 9.4477C20.5139 9.14634 19.8716 9.14634 19.3503 9.4477L11.4867 13.9931C10.9653 14.2944 10.6441 14.8514 10.6441 15.4541V18.7338L10.0072 19.6904C9.88301 19.8769 9.88301 20.1198 10.0072 20.3063L10.6441 21.2628V24.5448C10.6441 25.1475 10.9653 25.7045 11.4867 26.0058L19.3503 30.5512C19.8716 30.8526 20.5139 30.8526 21.0353 30.5512L28.8989 26.0058C29.4202 25.7045 29.7414 25.1475 29.7414 24.5448V21.2647L30.3796 20.3063C30.5038 20.1198 30.5038 19.8769 30.3796 19.6904L29.7414 18.7319V15.4541C29.7414 14.8514 29.4202 14.2944 28.8989 13.9931ZM11.2063 21.2637V24.5452C11.2063 24.947 11.4204 25.3183 11.768 25.5192L19.6316 30.0646C19.9791 30.2655 20.4074 30.2655 20.7549 30.0646L28.6185 25.5192C28.9661 25.3183 29.1802 24.947 29.1802 24.5452V21.2631L28.543 20.3063C28.4188 20.1198 28.4188 19.8769 28.543 19.6904L29.1802 18.7335V15.4544C29.1802 15.0526 28.9661 14.6813 28.6185 14.4804L20.7549 9.93505C20.4074 9.73415 19.9791 9.73415 19.6316 9.93505L11.768 14.4804C11.4204 14.6813 11.2063 15.0526 11.2063 15.4544V18.733L11.8438 19.6904C11.968 19.8769 11.968 20.1198 11.8438 20.3063L11.2063 21.2637Z" fill="#FABC10"/>
</g>
<path d="M21.1666 8.10328C20.565 7.75594 19.8237 7.75594 19.2221 8.10328L10.3785 13.2092C9.77686 13.5565 9.40625 14.1984 9.40625 14.8931L9.40625 25.1049C9.40625 25.7996 9.77686 26.4415 10.3785 26.7888L19.2221 31.8947C19.8237 32.2421 20.565 32.2421 21.1666 31.8947L30.0102 26.7888C30.6118 26.4415 30.9825 25.7996 30.9825 25.1049V14.8931C30.9825 14.1984 30.6118 13.5565 30.0102 13.2092L21.1666 8.10328Z" stroke="#FAB90A" stroke-width="0.55564"/>
<path opacity="0.4" d="M21.168 31.8956C22.2081 31.2951 22.945 30.8696 23.3789 30.6191" stroke="white" stroke-width="0.55564" stroke-linecap="round"/>
<path d="M30.9825 25.1049V14.8931C30.9825 14.1984 30.6118 13.5565 30.0102 13.2092L21.1666 8.10328C20.565 7.75594 19.8237 7.75594 19.2221 8.10328L10.3785 13.2092C9.77686 13.5565 9.40625 14.1984 9.40625 14.8931L9.40625 25.1049" stroke="#FAC81C" stroke-width="0.55564" stroke-linecap="round"/>
<path opacity="0.6" d="M30.9825 14.8931C30.9825 14.1984 30.6118 13.5565 30.0102 13.2092L21.1666 8.10328C20.565 7.75594 19.8237 7.75594 19.2221 8.10328L10.3785 13.2092C9.77686 13.5565 9.40625 14.1984 9.40625 14.8931" stroke="#FDDB3D" stroke-width="0.55564" stroke-linecap="round"/>
<path opacity="0.6" d="M21.1631 8.10328C20.5615 7.75594 19.8203 7.75594 19.2187 8.10328C19.2187 8.10328 16.2708 9.80524 14.7969 10.6562" stroke="white" stroke-width="0.55564" stroke-linecap="round"/>
<path d="M19.2187 8.10352C19.2187 8.10352 17.6586 9.00426 17.0078 9.37999" stroke="white" stroke-width="0.55564" stroke-linecap="round"/>
</g>
<g filter="url(#filter8_d_3072_20320)">
<path fill-rule="evenodd" clip-rule="evenodd" d="M19.634 11.4312C19.9779 11.2326 20.4015 11.2326 20.7453 11.4312L27.332 15.234C27.6759 15.4325 27.8877 15.7994 27.8877 16.1964V23.8021C27.8877 24.1991 27.6759 24.566 27.332 24.7645L20.7453 28.5673C20.4015 28.7658 19.9779 28.7658 19.634 28.5673L13.0473 24.7645C12.7035 24.566 12.4917 24.1991 12.4917 23.8021V16.1964C12.4917 15.7994 12.7035 15.4325 13.0473 15.234L19.634 11.4312Z" fill="url(#paint12_linear_3072_20320)"/>
<path d="M20.8842 11.1906C20.4544 10.9424 19.9249 10.9424 19.4951 11.1906L12.9084 14.9934C12.4786 15.2415 12.2138 15.7001 12.2138 16.1964V23.8021C12.2138 24.2984 12.4786 24.7569 12.9084 25.0051L19.4951 28.8079C19.9249 29.0561 20.4544 29.0561 20.8842 28.8079L27.4709 25.0051C27.9007 24.7569 28.1655 24.2984 28.1655 23.8021V16.1964C28.1655 15.7001 27.9007 15.2415 27.4709 14.9934L20.8842 11.1906Z" stroke="#F5900D" stroke-opacity="0.1" stroke-width="0.55564" style="mix-blend-mode:multiply"/>
</g>
<mask id="mask6_3072_20320" style="mask-type:luminance" maskUnits="userSpaceOnUse" x="12" y="11" width="16" height="18">
<path fill-rule="evenodd" clip-rule="evenodd" d="M19.634 11.4312C19.9779 11.2326 20.4015 11.2326 20.7453 11.4312L27.332 15.234C27.6759 15.4325 27.8877 15.7994 27.8877 16.1964V23.8021C27.8877 24.1991 27.6759 24.566 27.332 24.7645L20.7453 28.5673C20.4015 28.7658 19.9779 28.7658 19.634 28.5673L13.0473 24.7645C12.7035 24.566 12.4917 24.1991 12.4917 23.8021V16.1964C12.4917 15.7994 12.7035 15.4325 13.0473 15.234L19.634 11.4312Z" fill="white"/>
</mask>
<g mask="url(#mask6_3072_20320)">
<g style="mix-blend-mode:multiply" opacity="0.3">
<path fill-rule="evenodd" clip-rule="evenodd" d="M20.1897 19.9992L11.3008 22.2215V17.777L20.1897 19.9992ZM20.1897 19.9992L22.4119 11.1104H17.9674L20.1897 19.9992ZM20.1897 19.9992L29.0786 17.777V22.2215L20.1897 19.9992ZM20.1897 19.9992L24.9037 12.1425L28.0464 15.2852L20.1897 19.9992ZM20.1897 19.9992L24.9037 27.856L28.0464 24.7133L20.1897 19.9992ZM20.1897 19.9992L17.9674 28.8881H22.4119L20.1897 19.9992ZM20.1897 19.9992L15.4756 27.856L12.3329 24.7133L20.1897 19.9992Z" fill="#FFD640"/>
<path d="M15.4756 12.1425L12.3329 15.2852L20.1897 19.9992L15.4756 12.1425Z" fill="#FFD640"/>
</g>
<path opacity="0.4" d="M27.1946 15.4751L20.6077 11.6722C20.3499 11.5233 20.0322 11.5233 19.7744 11.6722C18.9997 12.1195 18.4508 12.4364 18.1277 12.6229C17.4552 13.0112 16.9063 13.3281 16.4809 13.5737C15.7491 13.9962 14.6513 14.63 13.1875 15.4751" stroke="white" stroke-width="0.55564" stroke-linecap="round"/>
<path d="M19.7717 11.6719C18.997 12.1191 18.4481 12.436 18.125 12.6226" stroke="white" stroke-width="0.55564" stroke-linecap="round"/>
<path opacity="0.4" d="M27.1937 24.5044L20.6068 28.3073C20.3489 28.4562 20.0313 28.4562 19.7734 28.3073" stroke="white" stroke-width="0.55564" stroke-linecap="round"/>
</g>
<g filter="url(#filter9_d_3072_20320)">
<path d="M16.7344 16.9761L20.1912 14.9072L23.648 16.9761V23.0235L20.1912 25.0924L16.7344 23.0235V16.9761Z" fill="white"/>
<path d="M16.449 16.4993C16.2814 16.5997 16.1787 16.7807 16.1787 16.9761V23.0235C16.1787 23.2189 16.2814 23.4 16.449 23.5003L19.9058 25.5692C20.0815 25.6743 20.3008 25.6743 20.4765 25.5692L23.9333 23.5003C24.101 23.4 24.2036 23.2189 24.2036 23.0235V16.9761C24.2036 16.7807 24.101 16.5997 23.9333 16.4993L20.4765 14.4305C20.3008 14.3253 20.0815 14.3253 19.9058 14.4305L16.449 16.4993Z" stroke="white" stroke-width="1.11128" stroke-linejoin="round"/>
</g>
<path fill-rule="evenodd" clip-rule="evenodd" d="M16.7344 16.9761L20.1912 14.9072V17.1352L18.6199 18.0901L16.7344 16.9761Z" fill="url(#paint13_linear_3072_20320)"/>
<path fill-rule="evenodd" clip-rule="evenodd" d="M16.7344 16.9766V23.024L18.6199 21.91V18.0906L16.7344 16.9766Z" fill="url(#paint14_linear_3072_20320)"/>
<path fill-rule="evenodd" clip-rule="evenodd" d="M20.1912 25.093L16.7344 23.0242L18.6199 21.9102L20.1912 22.865V25.093Z" fill="url(#paint15_linear_3072_20320)"/>
<path fill-rule="evenodd" clip-rule="evenodd" d="M20.1914 25.093L23.6482 23.0242L21.7627 21.9102L20.1914 22.865V25.093Z" fill="url(#paint16_linear_3072_20320)"/>
<path fill-rule="evenodd" clip-rule="evenodd" d="M23.6472 16.9766V23.024L21.7617 21.91V18.0906L23.6472 16.9766Z" fill="url(#paint17_linear_3072_20320)"/>
<path fill-rule="evenodd" clip-rule="evenodd" d="M23.6482 16.9761L20.1914 14.9072V17.1352L21.7627 18.0901L23.6482 16.9761Z" fill="url(#paint18_linear_3072_20320)"/>
<path fill-rule="evenodd" clip-rule="evenodd" d="M18.6211 21.9091L20.1924 22.8639L21.7636 21.9091V18.0896L20.1924 17.1348L18.6211 18.0896V21.9091Z" fill="url(#paint19_linear_3072_20320)"/>
<g filter="url(#filter10_d_3072_20320)">
<path fill-rule="evenodd" clip-rule="evenodd" d="M26.2522 16.5453L25.9636 16.4315C25.7872 16.3619 25.7005 16.1624 25.7701 15.986C25.805 15.8975 25.8751 15.8274 25.9636 15.7925L26.2522 15.6787C26.5849 15.5475 26.8482 15.2841 26.9795 14.9514L27.0933 14.6629C27.1628 14.4864 27.3623 14.3998 27.5388 14.4694C27.6273 14.5043 27.6974 14.5743 27.7323 14.6629L27.8461 14.9514C27.9773 15.2841 28.2407 15.5475 28.5734 15.6787L28.8619 15.7925C29.0383 15.8621 29.125 16.0615 29.0554 16.238C29.0205 16.3265 28.9504 16.3966 28.8619 16.4315L28.5734 16.5453C28.2407 16.6765 27.9773 16.9399 27.8461 17.2726L27.7323 17.5611C27.6627 17.7376 27.4632 17.8242 27.2867 17.7546C27.1982 17.7197 27.1282 17.6496 27.0933 17.5611L26.9795 17.2726C26.8482 16.9399 26.5849 16.6765 26.2522 16.5453Z" fill="white"/>
</g>
<g filter="url(#filter11_d_3072_20320)">
<path fill-rule="evenodd" clip-rule="evenodd" d="M13.8608 25.8453L13.6685 25.7694C13.5508 25.723 13.4931 25.5901 13.5395 25.4724C13.5627 25.4134 13.6095 25.3667 13.6685 25.3434L13.8608 25.2676C14.0826 25.1801 14.2582 25.0045 14.3457 24.7827L14.4215 24.5903C14.4679 24.4727 14.6009 24.4149 14.7186 24.4613C14.7776 24.4846 14.8243 24.5313 14.8476 24.5903L14.9234 24.7827C15.0109 25.0045 15.1865 25.1801 15.4083 25.2676L15.6006 25.3434C15.7183 25.3898 15.776 25.5228 15.7296 25.6404C15.7064 25.6994 15.6596 25.7462 15.6006 25.7694L15.4083 25.8453C15.1865 25.9328 15.0109 26.1084 14.9234 26.3302L14.8476 26.5225C14.8012 26.6401 14.6682 26.6979 14.5505 26.6515C14.4915 26.6282 14.4448 26.5815 14.4215 26.5225L14.3457 26.3302C14.2582 26.1084 14.0826 25.9328 13.8608 25.8453Z" fill="white"/>
</g>
<g filter="url(#filter12_d_3072_20320)">
<path fill-rule="evenodd" clip-rule="evenodd" d="M11.7225 17.3066L11.4821 17.2118C11.335 17.1538 11.2628 16.9876 11.3208 16.8405C11.3499 16.7668 11.4083 16.7084 11.4821 16.6793L11.7225 16.5844C11.9998 16.4751 12.2192 16.2556 12.3286 15.9784L12.4234 15.7379C12.4814 15.5909 12.6476 15.5187 12.7947 15.5767C12.8684 15.6058 12.9268 15.6642 12.9559 15.7379L13.0508 15.9784C13.1601 16.2556 13.3796 16.4751 13.6568 16.5844L13.8973 16.6793C14.0443 16.7373 14.1165 16.9035 14.0585 17.0505C14.0294 17.1243 13.971 17.1827 13.8973 17.2118L13.6568 17.3066C13.3796 17.416 13.1601 17.6354 13.0508 17.9127L12.9559 18.1531C12.8979 18.3002 12.7317 18.3724 12.5847 18.3144C12.5109 18.2853 12.4525 18.2269 12.4234 18.1531L12.3286 17.9127C12.2192 17.6354 11.9998 17.416 11.7225 17.3066Z" fill="white"/>
</g>
<g filter="url(#filter13_d_3072_20320)">
<path fill-rule="evenodd" clip-rule="evenodd" d="M25.9991 24.9396L25.8549 24.8827C25.7666 24.8479 25.7233 24.7482 25.7581 24.66C25.7756 24.6157 25.8106 24.5807 25.8549 24.5632L25.9991 24.5063C26.1655 24.4407 26.2972 24.309 26.3628 24.1427L26.4197 23.9984C26.4545 23.9102 26.5542 23.8669 26.6424 23.9017C26.6867 23.9191 26.7217 23.9542 26.7392 23.9984L26.7961 24.1427C26.8617 24.309 26.9934 24.4407 27.1597 24.5063L27.304 24.5632C27.3922 24.598 27.4355 24.6978 27.4007 24.786C27.3833 24.8302 27.3482 24.8653 27.304 24.8827L27.1597 24.9396C26.9934 25.0052 26.8617 25.1369 26.7961 25.3033L26.7392 25.4475C26.7044 25.5358 26.6047 25.5791 26.5164 25.5443C26.4722 25.5268 26.4371 25.4918 26.4197 25.4475L26.3628 25.3033C26.2972 25.1369 26.1655 25.0052 25.9991 24.9396Z" fill="white"/>
</g>
<defs>
<filter id="filter0_d_3072_20320" x="11.3028" y="18.334" width="11.1132" height="19.6581" filterUnits="userSpaceOnUse" color-interpolation-filters="sRGB">
<feFlood flood-opacity="0" result="BackgroundImageFix"/>
<feColorMatrix in="SourceAlpha" type="matrix" values="0 0 0 0 0 0 0 0 0 0 0 0 0 0 0 0 0 0 127 0" result="hardAlpha"/>
<feOffset dy="1.11128"/>
<feGaussianBlur stdDeviation="0.55564"/>
<feColorMatrix type="matrix" values="0 0 0 0 0.921569 0 0 0 0 0.215686 0 0 0 0 0.305882 0 0 0 0.2 0"/>
<feBlend mode="darken" in2="BackgroundImageFix" result="effect1_dropShadow_3072_20320"/>
<feBlend mode="normal" in="SourceGraphic" in2="effect1_dropShadow_3072_20320" result="shape"/>
</filter>
<filter id="filter1_d_3072_20320" x="17.9708" y="18.334" width="11.1132" height="19.6581" filterUnits="userSpaceOnUse" color-interpolation-filters="sRGB">
<feFlood flood-opacity="0" result="BackgroundImageFix"/>
<feColorMatrix in="SourceAlpha" type="matrix" values="0 0 0 0 0 0 0 0 0 0 0 0 0 0 0 0 0 0 127 0" result="hardAlpha"/>
<feOffset dy="1.11128"/>
<feGaussianBlur stdDeviation="0.55564"/>
<feColorMatrix type="matrix" values="0 0 0 0 0.921569 0 0 0 0 0.215686 0 0 0 0 0.305882 0 0 0 0.2 0"/>
<feBlend mode="darken" in2="BackgroundImageFix" result="effect1_dropShadow_3072_20320"/>
<feBlend mode="normal" in="SourceGraphic" in2="effect1_dropShadow_3072_20320" result="shape"/>
</filter>
<filter id="filter2_d_3072_20320" x="14.6348" y="21.1113" width="11.1132" height="19.6581" filterUnits="userSpaceOnUse" color-interpolation-filters="sRGB">
<feFlood flood-opacity="0" result="BackgroundImageFix"/>
<feColorMatrix in="SourceAlpha" type="matrix" values="0 0 0 0 0 0 0 0 0 0 0 0 0 0 0 0 0 0 127 0" result="hardAlpha"/>
<feOffset dy="1.11128"/>
<feGaussianBlur stdDeviation="0.55564"/>
<feColorMatrix type="matrix" values="0 0 0 0 0.921569 0 0 0 0 0.215686 0 0 0 0 0.305882 0 0 0 0.2 0"/>
<feBlend mode="darken" in2="BackgroundImageFix" result="effect1_dropShadow_3072_20320"/>
<feBlend mode="normal" in="SourceGraphic" in2="effect1_dropShadow_3072_20320" result="shape"/>
</filter>
<filter id="filter3_i_3072_20320" x="4.35938" y="13.6104" width="6.66797" height="4.16697" filterUnits="userSpaceOnUse" color-interpolation-filters="sRGB">
<feFlood flood-opacity="0" result="BackgroundImageFix"/>
<feBlend mode="normal" in="SourceGraphic" in2="BackgroundImageFix" result="shape"/>
<feColorMatrix in="SourceAlpha" type="matrix" values="0 0 0 0 0 0 0 0 0 0 0 0 0 0 0 0 0 0 127 0" result="hardAlpha"/>
<feOffset dy="0.55564"/>
<feGaussianBlur stdDeviation="0.27782"/>
<feComposite in2="hardAlpha" operator="arithmetic" k2="-1" k3="1"/>
<feColorMatrix type="matrix" values="0 0 0 0 0.976471 0 0 0 0 0.713726 0 0 0 0 0.0352941 0 0 0 1 0"/>
<feBlend mode="normal" in2="shape" result="effect1_innerShadow_3072_20320"/>
</filter>
<filter id="filter4_i_3072_20320" x="4.91406" y="16.9434" width="6.66797" height="4.16697" filterUnits="userSpaceOnUse" color-interpolation-filters="sRGB">
<feFlood flood-opacity="0" result="BackgroundImageFix"/>
<feBlend mode="normal" in="SourceGraphic" in2="BackgroundImageFix" result="shape"/>
<feColorMatrix in="SourceAlpha" type="matrix" values="0 0 0 0 0 0 0 0 0 0 0 0 0 0 0 0 0 0 127 0" result="hardAlpha"/>
<feOffset dy="0.55564"/>
<feGaussianBlur stdDeviation="0.27782"/>
<feComposite in2="hardAlpha" operator="arithmetic" k2="-1" k3="1"/>
<feColorMatrix type="matrix" values="0 0 0 0 0.976471 0 0 0 0 0.713726 0 0 0 0 0.0352941 0 0 0 1 0"/>
<feBlend mode="normal" in2="shape" result="effect1_innerShadow_3072_20320"/>
</filter>
<filter id="filter5_i_3072_20320" x="29.3555" y="13.6104" width="6.66797" height="4.16697" filterUnits="userSpaceOnUse" color-interpolation-filters="sRGB">
<feFlood flood-opacity="0" result="BackgroundImageFix"/>
<feBlend mode="normal" in="SourceGraphic" in2="BackgroundImageFix" result="shape"/>
<feColorMatrix in="SourceAlpha" type="matrix" values="0 0 0 0 0 0 0 0 0 0 0 0 0 0 0 0 0 0 127 0" result="hardAlpha"/>
<feOffset dy="0.55564"/>
<feGaussianBlur stdDeviation="0.27782"/>
<feComposite in2="hardAlpha" operator="arithmetic" k2="-1" k3="1"/>
<feColorMatrix type="matrix" values="0 0 0 0 0.976471 0 0 0 0 0.713726 0 0 0 0 0.0352941 0 0 0 1 0"/>
<feBlend mode="normal" in2="shape" result="effect1_innerShadow_3072_20320"/>
</filter>
<filter id="filter6_i_3072_20320" x="28.8008" y="16.9434" width="6.66797" height="4.16697" filterUnits="userSpaceOnUse" color-interpolation-filters="sRGB">
<feFlood flood-opacity="0" result="BackgroundImageFix"/>
<feBlend mode="normal" in="SourceGraphic" in2="BackgroundImageFix" result="shape"/>
<feColorMatrix in="SourceAlpha" type="matrix" values="0 0 0 0 0 0 0 0 0 0 0 0 0 0 0 0 0 0 127 0" result="hardAlpha"/>
<feOffset dy="0.55564"/>
<feGaussianBlur stdDeviation="0.27782"/>
<feComposite in2="hardAlpha" operator="arithmetic" k2="-1" k3="1"/>
<feColorMatrix type="matrix" values="0 0 0 0 0.976471 0 0 0 0 0.713726 0 0 0 0 0.0352941 0 0 0 1 0"/>
<feBlend mode="normal" in2="shape" result="effect1_innerShadow_3072_20320"/>
</filter>
<filter id="filter7_i_3072_20320" x="9.91406" y="9.22168" width="20.5586" height="22.1113" filterUnits="userSpaceOnUse" color-interpolation-filters="sRGB">
<feFlood flood-opacity="0" result="BackgroundImageFix"/>
<feBlend mode="normal" in="SourceGraphic" in2="BackgroundImageFix" result="shape"/>
<feColorMatrix in="SourceAlpha" type="matrix" values="0 0 0 0 0 0 0 0 0 0 0 0 0 0 0 0 0 0 127 0" result="hardAlpha"/>
<feOffset dy="0.55564"/>
<feGaussianBlur stdDeviation="0.27782"/>
<feComposite in2="hardAlpha" operator="arithmetic" k2="-1" k3="1"/>
<feColorMatrix type="matrix" values="0 0 0 0 0.976471 0 0 0 0 0.713726 0 0 0 0 0.0352941 0 0 0 1 0"/>
<feBlend mode="normal" in2="shape" result="effect1_innerShadow_3072_20320"/>
</filter>
<filter id="filter8_d_3072_20320" x="10.8262" y="10.1709" width="18.7265" height="20.7675" filterUnits="userSpaceOnUse" color-interpolation-filters="sRGB">
<feFlood flood-opacity="0" result="BackgroundImageFix"/>
<feColorMatrix in="SourceAlpha" type="matrix" values="0 0 0 0 0 0 0 0 0 0 0 0 0 0 0 0 0 0 127 0" result="hardAlpha"/>
<feOffset dy="0.55564"/>
<feGaussianBlur stdDeviation="0.55564"/>
<feColorMatrix type="matrix" values="0 0 0 0 0.927721 0 0 0 0 0.665867 0 0 0 0 0.0535899 0 0 0 0.4 0"/>
<feBlend mode="normal" in2="BackgroundImageFix" result="effect1_dropShadow_3072_20320"/>
<feBlend mode="normal" in="SourceGraphic" in2="effect1_dropShadow_3072_20320" result="shape"/>
</filter>
<filter id="filter9_d_3072_20320" x="14.5137" y="13.2403" width="11.3554" height="14.6308" filterUnits="userSpaceOnUse" color-interpolation-filters="sRGB">
<feFlood flood-opacity="0" result="BackgroundImageFix"/>
<feColorMatrix in="SourceAlpha" type="matrix" values="0 0 0 0 0 0 0 0 0 0 0 0 0 0 0 0 0 0 127 0" result="hardAlpha"/>
<feOffset dy="0.55564"/>
<feGaussianBlur stdDeviation="0.55564"/>
<feColorMatrix type="matrix" values="0 0 0 0 0.996078 0 0 0 0 0.733333 0 0 0 0 0.105882 0 0 0 1 0"/>
<feBlend mode="normal" in2="BackgroundImageFix" result="effect1_dropShadow_3072_20320"/>
<feBlend mode="normal" in="SourceGraphic" in2="effect1_dropShadow_3072_20320" result="shape"/>
</filter>
<filter id="filter10_d_3072_20320" x="24.6348" y="13.334" width="5.55459" height="5.55557" filterUnits="userSpaceOnUse" color-interpolation-filters="sRGB">
<feFlood flood-opacity="0" result="BackgroundImageFix"/>
<feColorMatrix in="SourceAlpha" type="matrix" values="0 0 0 0 0 0 0 0 0 0 0 0 0 0 0 0 0 0 127 0" result="hardAlpha"/>
<feOffset/>
<feGaussianBlur stdDeviation="0.55564"/>
<feColorMatrix type="matrix" values="0 0 0 0 1 0 0 0 0 0.94902 0 0 0 0 0.305882 0 0 0 1 0"/>
<feBlend mode="normal" in2="BackgroundImageFix" result="effect1_dropShadow_3072_20320"/>
<feBlend mode="normal" in="SourceGraphic" in2="effect1_dropShadow_3072_20320" result="shape"/>
</filter>
<filter id="filter11_d_3072_20320" x="12.4122" y="23.334" width="4.44522" height="4.44522" filterUnits="userSpaceOnUse" color-interpolation-filters="sRGB">
<feFlood flood-opacity="0" result="BackgroundImageFix"/>
<feColorMatrix in="SourceAlpha" type="matrix" values="0 0 0 0 0 0 0 0 0 0 0 0 0 0 0 0 0 0 127 0" result="hardAlpha"/>
<feOffset/>
<feGaussianBlur stdDeviation="0.55564"/>
<feColorMatrix type="matrix" values="0 0 0 0 1 0 0 0 0 0.94902 0 0 0 0 0.305882 0 0 0 1 0"/>
<feBlend mode="normal" in2="BackgroundImageFix" result="effect1_dropShadow_3072_20320"/>
<feBlend mode="normal" in="SourceGraphic" in2="effect1_dropShadow_3072_20320" result="shape"/>
</filter>
<filter id="filter12_d_3072_20320" x="10.1895" y="14.4454" width="4.99991" height="4.99991" filterUnits="userSpaceOnUse" color-interpolation-filters="sRGB">
<feFlood flood-opacity="0" result="BackgroundImageFix"/>
<feColorMatrix in="SourceAlpha" type="matrix" values="0 0 0 0 0 0 0 0 0 0 0 0 0 0 0 0 0 0 127 0" result="hardAlpha"/>
<feOffset/>
<feGaussianBlur stdDeviation="0.55564"/>
<feColorMatrix type="matrix" values="0 0 0 0 1 0 0 0 0 0.94902 0 0 0 0 0.305882 0 0 0 1 0"/>
<feBlend mode="normal" in2="BackgroundImageFix" result="effect1_dropShadow_3072_20320"/>
<feBlend mode="normal" in="SourceGraphic" in2="effect1_dropShadow_3072_20320" result="shape"/>
</filter>
<filter id="filter13_d_3072_20320" x="24.6348" y="22.7784" width="3.89053" height="3.88955" filterUnits="userSpaceOnUse" color-interpolation-filters="sRGB">
<feFlood flood-opacity="0" result="BackgroundImageFix"/>
<feColorMatrix in="SourceAlpha" type="matrix" values="0 0 0 0 0 0 0 0 0 0 0 0 0 0 0 0 0 0 127 0" result="hardAlpha"/>
<feOffset/>
<feGaussianBlur stdDeviation="0.55564"/>
<feColorMatrix type="matrix" values="0 0 0 0 1 0 0 0 0 0.94902 0 0 0 0 0.305882 0 0 0 1 0"/>
<feBlend mode="normal" in2="BackgroundImageFix" result="effect1_dropShadow_3072_20320"/>
<feBlend mode="normal" in="SourceGraphic" in2="effect1_dropShadow_3072_20320" result="shape"/>
</filter>
<linearGradient id="paint0_linear_3072_20320" x1="2.96875" y1="3.33301" x2="2.96875" y2="36.6663" gradientUnits="userSpaceOnUse">
<stop stop-color="#FF7F7D"/>
<stop offset="1" stop-color="#EC2E4A"/>
</linearGradient>
<linearGradient id="paint1_linear_3072_20320" x1="4.63672" y1="10.5547" x2="4.63672" y2="22.2214" gradientUnits="userSpaceOnUse">
<stop stop-color="#F7C71A"/>
<stop offset="1" stop-color="#FBAA00"/>
</linearGradient>
<linearGradient id="paint2_linear_3072_20320" x1="4.63672" y1="10.5547" x2="4.63672" y2="22.2214" gradientUnits="userSpaceOnUse">
<stop stop-color="#FFDF6B"/>
<stop offset="1" stop-color="#F8A60A"/>
</linearGradient>
<linearGradient id="paint3_linear_3072_20320" x1="35.7461" y1="10.5547" x2="35.7461" y2="22.2214" gradientUnits="userSpaceOnUse">
<stop stop-color="#F7C71A"/>
<stop offset="1" stop-color="#FBAA00"/>
</linearGradient>
<linearGradient id="paint4_linear_3072_20320" x1="35.7461" y1="10.5547" x2="35.7461" y2="22.2214" gradientUnits="userSpaceOnUse">
<stop stop-color="#FFDF6B"/>
<stop offset="1" stop-color="#F8A60A"/>
</linearGradient>
<linearGradient id="paint5_linear_3072_20320" x1="7.41406" y1="23.333" x2="7.41406" y2="28.6108" gradientUnits="userSpaceOnUse">
<stop stop-color="#F7C71A"/>
<stop offset="1" stop-color="#FBAA00"/>
</linearGradient>
<linearGradient id="paint6_linear_3072_20320" x1="7.41406" y1="23.333" x2="7.41406" y2="28.6108" gradientUnits="userSpaceOnUse">
<stop stop-color="#FFDF6B"/>
<stop offset="1" stop-color="#F8A60A"/>
</linearGradient>
<linearGradient id="paint7_linear_3072_20320" x1="32.9727" y1="23.333" x2="32.9727" y2="28.6108" gradientUnits="userSpaceOnUse">
<stop stop-color="#F7C71A"/>
<stop offset="1" stop-color="#FBAA00"/>
</linearGradient>
<linearGradient id="paint8_linear_3072_20320" x1="32.9727" y1="23.333" x2="32.9727" y2="28.6108" gradientUnits="userSpaceOnUse">
<stop stop-color="#FFDF6B"/>
<stop offset="1" stop-color="#F8A60A"/>
</linearGradient>
<linearGradient id="paint9_linear_3072_20320" x1="11.3359" y1="7.55859" x2="11.3359" y2="16.0762" gradientUnits="userSpaceOnUse">
<stop stop-color="#FBCC24"/>
<stop offset="1" stop-color="#F9B800"/>
</linearGradient>
<linearGradient id="paint10_linear_3072_20320" x1="29.0469" y1="7.55859" x2="29.0469" y2="16.0762" gradientUnits="userSpaceOnUse">
<stop stop-color="#FBCC24"/>
<stop offset="1" stop-color="#F9B800"/>
</linearGradient>
<linearGradient id="paint11_linear_3072_20320" x1="7.41406" y1="7.22168" x2="7.41406" y2="32.7772" gradientUnits="userSpaceOnUse">
<stop stop-color="#FDE046"/>
<stop offset="1" stop-color="#F9B800"/>
</linearGradient>
<linearGradient id="paint12_linear_3072_20320" x1="11.3008" y1="11.1104" x2="11.3008" y2="28.8881" gradientUnits="userSpaceOnUse">
<stop stop-color="#FFF550"/>
<stop offset="1" stop-color="#FFD541"/>
</linearGradient>
<linearGradient id="paint13_linear_3072_20320" x1="20.4522" y1="17.1033" x2="19.5112" y2="15.3382" gradientUnits="userSpaceOnUse">
<stop stop-color="#FFD3D3"/>
<stop offset="1" stop-color="#FF7E8A"/>
</linearGradient>
<linearGradient id="paint14_linear_3072_20320" x1="18.6199" y1="23.024" x2="18.6199" y2="16.9766" gradientUnits="userSpaceOnUse">
<stop stop-color="#FF8B89"/>
<stop offset="1" stop-color="#F34C5D"/>
</linearGradient>
<linearGradient id="paint15_linear_3072_20320" x1="19.3543" y1="24.4198" x2="20.1134" y2="22.7286" gradientUnits="userSpaceOnUse">
<stop stop-color="#FF7F7D"/>
<stop offset="1" stop-color="#F21248"/>
</linearGradient>
<linearGradient id="paint16_linear_3072_20320" x1="23.6482" y1="25.093" x2="23.6482" y2="21.9102" gradientUnits="userSpaceOnUse">
<stop stop-color="#FF8B89"/>
<stop offset="1" stop-color="#F34C5D"/>
</linearGradient>
<linearGradient id="paint17_linear_3072_20320" x1="23.6472" y1="23.024" x2="23.6472" y2="16.9766" gradientUnits="userSpaceOnUse">
<stop stop-color="#FF8B89"/>
<stop offset="1" stop-color="#F34C5D"/>
</linearGradient>
<linearGradient id="paint18_linear_3072_20320" x1="21.8148" y1="18.0487" x2="22.6671" y2="16.3981" gradientUnits="userSpaceOnUse">
<stop stop-color="#FF7F7D"/>
<stop offset="1" stop-color="#F21248"/>
</linearGradient>
<linearGradient id="paint19_linear_3072_20320" x1="21.7636" y1="22.8639" x2="21.7636" y2="17.1348" gradientUnits="userSpaceOnUse">
<stop stop-color="#FF7F7D"/>
<stop offset="1" stop-color="#F21248"/>
</linearGradient>
</defs>
</svg>
