<svg width="41" height="40" viewBox="0 0 41 40" fill="none" xmlns="http://www.w3.org/2000/svg">
<g style="mix-blend-mode:screen" opacity="0.24">
<path fill-rule="evenodd" clip-rule="evenodd" d="M29.6354 34.4441C30.2491 34.4441 30.7465 34.9416 30.7465 35.5552C30.7465 36.1689 30.2491 36.6663 29.6354 36.6663H19.6354C19.5701 36.6663 19.5061 36.6607 19.4439 36.6499C15.8746 36.4924 12.597 35.2123 9.9555 33.1541C9.74066 32.9867 9.4169 32.7092 9.17695 32.5004C8.97174 32.3218 8.70946 32.2219 8.43743 32.2219H5.74653C5.13288 32.2219 4.63542 31.7244 4.63542 31.1108C4.63542 30.4971 5.13288 29.9997 5.74653 29.9997H6.85764C7.47129 29.9997 7.96875 29.5022 7.96875 28.8886C7.96875 28.2749 7.47129 27.7775 6.85764 27.7775H4.07986C3.46621 27.7775 2.96875 27.28 2.96875 26.6663C2.96875 26.0527 3.46621 25.5552 4.07986 25.5552H4.63542C5.24907 25.5552 5.74653 25.0578 5.74653 24.4441C5.74653 23.8305 5.24907 23.333 4.63542 23.333C4.18614 23.333 3.80187 23.0092 3.72712 22.5661C3.69996 22.4052 3.67838 22.2756 3.67482 22.2492C3.57556 21.5135 3.52431 20.7626 3.52431 19.9997C3.52431 10.7949 10.9862 3.33301 20.191 3.33301C22.9687 3.33301 25.7465 3.33301 28.5243 3.33301C29.138 3.33301 29.6354 3.83047 29.6354 4.44412C29.6354 5.05777 29.138 5.55523 28.5243 5.55523H26.8576C26.244 5.55523 25.7465 6.05269 25.7465 6.66634C25.7465 7.27999 26.244 7.77745 26.8576 7.77745H33.5243C34.138 7.77745 34.6354 8.27491 34.6354 8.88856C34.6354 9.50181 34.1386 9.99901 33.5255 9.99967L31.8576 9.99967C31.244 9.99967 30.7465 10.4971 30.7465 11.1108C30.7465 11.7244 31.244 12.2219 31.8576 12.2219H34.2499C34.6701 12.2219 35.0552 12.4585 35.2374 12.8371C35.3469 13.0647 35.4621 13.3102 35.5374 13.4876C36.3874 15.4882 36.8576 17.689 36.8576 19.9997C36.8576 20.7257 36.8112 21.4409 36.7212 22.1424C36.706 22.2604 36.6828 22.4118 36.6575 22.5668C36.585 23.0115 36.1971 23.333 35.7465 23.333C35.1329 23.333 34.6354 23.8305 34.6354 24.4441C34.6354 25.0578 35.1329 25.5552 35.7465 25.5552H36.3021C36.9157 25.5552 37.4132 26.0527 37.4132 26.6663C37.4132 27.28 36.9157 27.7775 36.3021 27.7775H35.5888C35.1855 27.7775 34.8145 27.9965 34.613 28.3459C34.4821 28.5728 34.3366 28.8197 34.2285 28.9882C33.9751 29.3832 33.7054 29.7668 33.4205 30.138C33.1344 30.5108 32.8328 30.8712 32.5168 31.2182C32.3433 31.4087 32.0624 31.6908 31.8432 31.9075C31.6382 32.1102 31.361 32.2219 31.0727 32.2219H27.9687C27.3551 32.2219 26.8576 32.7194 26.8576 33.333C26.8576 33.9424 27.3482 34.4372 27.9559 34.444L29.6354 34.4441Z" fill="white"/>
</g>
<path fill-rule="evenodd" clip-rule="evenodd" d="M11.8555 18.333H20.7444V35.2117C20.7444 35.6248 20.3097 35.8934 19.9402 35.7087L16.2999 33.8886L12.6596 35.7087C12.2902 35.8934 11.8555 35.6248 11.8555 35.2117V18.333Z" fill="#A1C7FF"/>
<path fill-rule="evenodd" clip-rule="evenodd" d="M19.6328 18.333H28.5217V35.2117C28.5217 35.6248 28.087 35.8934 27.7176 35.7087L24.0773 33.8886L20.4369 35.7087C20.0675 35.8934 19.6328 35.6248 19.6328 35.2117V18.333Z" fill="#A1C7FF"/>
<path fill-rule="evenodd" clip-rule="evenodd" d="M15.7461 21.1104H24.635V37.9891C24.635 38.4021 24.2003 38.6708 23.8309 38.4861L20.1905 36.6659L16.5502 38.4861C16.1808 38.6708 15.7461 38.4021 15.7461 37.9891V21.1104Z" fill="#E7F1FF"/>
<mask id="mask0_3072_18422" style="mask-type:luminance" maskUnits="userSpaceOnUse" x="15" y="21" width="10" height="18">
<path fill-rule="evenodd" clip-rule="evenodd" d="M15.7461 21.1104H24.635V37.9891C24.635 38.4021 24.2003 38.6708 23.8309 38.4861L20.1905 36.6659L16.5502 38.4861C16.1808 38.6708 15.7461 38.4021 15.7461 37.9891V21.1104Z" fill="white"/>
</mask>
<g mask="url(#mask0_3072_18422)">
<rect x="17.9688" y="21.1104" width="4.44444" height="17.7778" fill="#A1C7FF"/>
</g>
<path fill-rule="evenodd" clip-rule="evenodd" d="M23.7923 13.1524V8.11474C23.7923 8.06598 23.8051 8.01808 23.8295 7.97585C23.9062 7.84299 24.0761 7.79747 24.209 7.87418L28.353 10.2667C28.6108 10.4156 28.7697 10.6907 28.7697 10.9884V14.1489C28.7697 14.3977 28.7134 14.6432 28.6051 14.8671C28.2085 15.6873 27.2221 16.0306 26.4019 15.634L24.8902 14.9029C24.2188 14.5782 23.7923 13.8982 23.7923 13.1524ZM10.7473 13.611L7.96955 12.4999V11.9443L5.30209 10.8329C5.0397 10.7235 4.76963 10.9717 4.85639 11.2424L8.02071 21.1151C8.07573 21.2867 8.21062 21.421 8.38252 21.4753L10.7473 22.2221V13.611ZM8.23333 24.3124L10.1922 23.333L11.3033 26.3885L7.99931 28.2765C7.75969 28.4135 7.46698 28.2166 7.50345 27.943L7.93106 24.736C7.9554 24.5534 8.06861 24.3948 8.23333 24.3124ZM32.1506 24.3124L30.1918 23.333L29.0806 26.3885L32.3846 28.2765C32.6243 28.4135 32.917 28.2166 32.8805 27.943L32.4529 24.736C32.4286 24.5534 32.3153 24.3948 32.1506 24.3124ZM32.4144 12.4999L29.6366 13.611V22.2221L32.0014 21.4753C32.1733 21.421 32.3082 21.2867 32.3632 21.1151L35.5276 11.2424C35.6143 10.9717 35.3442 10.7235 35.0819 10.8329L32.4144 11.9443V12.4999ZM16.5917 8.11474V13.1524C16.5917 13.8982 16.1651 14.5782 15.4938 14.9029L13.982 15.634C13.1619 16.0306 12.1755 15.6873 11.7788 14.8671C11.6705 14.6432 11.6143 14.3977 11.6143 14.1489V10.9884C11.6143 10.6907 11.7731 10.4156 12.0309 10.2667L16.175 7.87418C16.3079 7.79747 16.4777 7.84299 16.5544 7.97585C16.5788 8.01808 16.5917 8.06598 16.5917 8.11474Z" fill="#A1C7FF"/>
<path fill-rule="evenodd" clip-rule="evenodd" d="M19.0806 7.86328C19.7682 7.46626 20.6155 7.46626 21.3031 7.86328L30.1464 12.969C30.8341 13.366 31.2577 14.0997 31.2577 14.8938V25.1051C31.2577 25.8992 30.8341 26.6329 30.1464 27.0299L21.3031 32.1356C20.6155 32.5327 19.7682 32.5327 19.0806 32.1356L10.2372 27.0299C9.54958 26.6329 9.12596 25.8992 9.12596 25.1051V14.8938C9.12596 14.0997 9.54958 13.366 10.2372 12.969L19.0806 7.86328Z" fill="#B6D5FF"/>
<path fill-rule="evenodd" clip-rule="evenodd" d="M19.6379 11.4312C19.9818 11.2326 20.4054 11.2326 20.7492 11.4312L27.3359 15.234C27.6798 15.4325 27.8916 15.7994 27.8916 16.1964V23.8021C27.8916 24.1991 27.6798 24.566 27.3359 24.7645L20.7492 28.5673C20.4054 28.7658 19.9818 28.7658 19.6379 28.5673L13.0512 24.7645C12.7074 24.566 12.4956 24.1991 12.4956 23.8021V16.1964C12.4956 15.7994 12.7074 15.4325 13.0512 15.234L19.6379 11.4312Z" fill="#D6E7FF"/>
<mask id="mask1_3072_18422" style="mask-type:luminance" maskUnits="userSpaceOnUse" x="12" y="11" width="16" height="18">
<path fill-rule="evenodd" clip-rule="evenodd" d="M19.6379 11.4312C19.9818 11.2326 20.4054 11.2326 20.7492 11.4312L27.3359 15.234C27.6798 15.4325 27.8916 15.7994 27.8916 16.1964V23.8021C27.8916 24.1991 27.6798 24.566 27.3359 24.7645L20.7492 28.5673C20.4054 28.7658 19.9818 28.7658 19.6379 28.5673L13.0512 24.7645C12.7074 24.566 12.4956 24.1991 12.4956 23.8021V16.1964C12.4956 15.7994 12.7074 15.4325 13.0512 15.234L19.6379 11.4312Z" fill="white"/>
</mask>
<g mask="url(#mask1_3072_18422)">
<path d="M16.7344 16.9761L20.1912 14.9072L23.648 16.9761V23.0235L20.1912 25.0924L16.7344 23.0235V16.9761Z" fill="#A1C7FF" stroke="white" stroke-width="1.11128" stroke-linecap="round" stroke-linejoin="round"/>
</g>
</svg>
