<svg width="20" height="20" viewBox="0 0 20 20" fill="none" xmlns="http://www.w3.org/2000/svg">
<path d="M2 0.875H18C18.2652 0.875 18.5196 0.980357 18.7071 1.16789C18.8946 1.35543 19 1.60978 19 1.875V3.461C18.9999 3.72619 18.8946 3.98051 18.707 4.168L12.293 10.582C12.1055 10.7695 12.0001 11.0238 12 11.289V17.594C12 17.746 11.9653 17.896 11.8987 18.0326C11.832 18.1692 11.735 18.2888 11.6152 18.3823C11.4954 18.4758 11.3558 18.5408 11.2071 18.5723C11.0584 18.6038 10.9044 18.6009 10.757 18.564L8.757 18.064C8.54075 18.0098 8.34881 17.885 8.21166 17.7092C8.0745 17.5335 8.00001 17.3169 8 17.094V11.289C7.99994 11.0238 7.89455 10.7695 7.707 10.582L1.293 4.168C1.10545 3.98051 1.00006 3.72619 1 3.461V1.875C1 1.60978 1.10536 1.35543 1.29289 1.16789C1.48043 0.980357 1.73478 0.875 2 0.875Z" stroke="black" stroke-width="1.5" stroke-linecap="round" stroke-linejoin="round"/>
</svg>
