<svg width="148" height="45" viewBox="0 0 148 45" fill="none" xmlns="http://www.w3.org/2000/svg">
<rect x="1.11607" y="1.13951" width="145.721" height="42.721" rx="7.0346" fill="black"/>
<rect x="1.11607" y="1.13951" width="145.721" height="42.721" rx="7.0346" stroke="#A6A6A6" stroke-width="1.27902"/>
<path fill-rule="evenodd" clip-rule="evenodd" d="M8.57695 10.0474C8.28613 10.367 8.11523 10.8619 8.11523 11.5042V34.4344C8.11523 35.0767 8.28613 35.5717 8.57695 35.8913L8.65091 35.966L21.0223 23.1208V22.8178L8.65091 9.97266L8.57695 10.0474Z" fill="#00D7FE"/>
<mask id="mask0_3514_60354" style="mask-type:alpha" maskUnits="userSpaceOnUse" x="21" y="18" width="11" height="10">
<path d="M25.1459 27.404L21.0234 23.1206V22.8176L25.1479 18.5352L30.1268 21.4717C31.522 22.2956 31.522 23.6425 30.1268 24.4654L25.2408 27.348L25.1459 27.404Z" fill="white"/>
</mask>
<g mask="url(#mask0_3514_60354)">
<path fill-rule="evenodd" clip-rule="evenodd" d="M25.1459 27.404L21.0234 23.1206V22.8176L25.1479 18.5352L30.1268 21.4717C31.522 22.2956 31.522 23.6425 30.1268 24.4654L25.2408 27.348L25.1459 27.404Z" fill="url(#paint0_linear_3514_60354)"/>
</g>
<mask id="mask1_3514_60354" style="mask-type:alpha" maskUnits="userSpaceOnUse" x="8" y="22" width="18" height="15">
<path d="M25.2389 27.3555L21.0215 22.9766L8.57617 35.8985C9.03689 36.4038 9.79642 36.4661 10.6519 35.9618L25.2389 27.3555Z" fill="white"/>
</mask>
<g mask="url(#mask1_3514_60354)">
<path fill-rule="evenodd" clip-rule="evenodd" d="M25.2389 27.3555L21.0215 22.9766L8.57617 35.8985C9.03689 36.4038 9.79642 36.4661 10.6519 35.9618L25.2389 27.3555Z" fill="url(#paint1_linear_3514_60354)"/>
</g>
<mask id="mask2_3514_60354" style="mask-type:alpha" maskUnits="userSpaceOnUse" x="8" y="9" width="18" height="14">
<path d="M25.2389 18.5915L10.6519 9.98515C9.79642 9.48084 9.03689 9.5431 8.57617 10.0484L21.0215 22.9704L25.2389 18.5915Z" fill="white"/>
</mask>
<g mask="url(#mask2_3514_60354)">
<path fill-rule="evenodd" clip-rule="evenodd" d="M25.2389 18.5915L10.6519 9.98515C9.79642 9.48084 9.03689 9.5431 8.57617 10.0484L21.0215 22.9704L25.2389 18.5915Z" fill="url(#paint2_linear_3514_60354)"/>
</g>
<path fill-rule="evenodd" clip-rule="evenodd" d="M118.379 29.1596H120.631V15.0756H118.379V29.1596ZM138.665 20.1488L136.083 26.2551H136.006L133.326 20.1488H130.9L134.918 28.683L132.627 33.4306H134.977L141.169 20.1488H138.665ZM125.893 27.5598C125.154 27.5598 124.126 27.2161 124.126 26.3644C124.126 25.2772 125.407 24.8604 126.513 24.8604C127.504 24.8604 127.969 25.0598 128.571 25.3313C128.396 26.6359 127.192 27.5598 125.893 27.5598ZM126.164 19.8413C124.534 19.8413 122.845 20.5116 122.146 21.9976L124.145 22.7761C124.572 21.9976 125.368 21.743 126.203 21.743C127.367 21.743 128.551 22.3953 128.571 23.5557V23.6999C128.163 23.4825 127.29 23.1569 126.222 23.1569C124.068 23.1569 121.873 24.2621 121.873 26.3272C121.873 28.2121 123.64 29.4266 125.62 29.4266C127.135 29.4266 127.969 28.7923 128.494 28.0487H128.571V29.1359H130.745V23.7371C130.745 21.236 128.746 19.8413 126.164 19.8413ZM112.245 21.8635H109.042V17.036H112.245C113.929 17.036 114.885 18.3372 114.885 19.4492C114.885 20.5409 113.929 21.8635 112.245 21.8635ZM112.188 15.0756H106.791V29.1596H109.042V23.8239H112.188C114.684 23.8239 117.137 22.1362 117.137 19.4492C117.137 16.7622 114.684 15.0756 112.188 15.0756ZM82.7606 27.562C81.2048 27.562 79.9025 26.3464 79.9025 24.6767C79.9025 22.989 81.2048 21.7543 82.7606 21.7543C84.297 21.7543 85.5016 22.989 85.5016 24.6767C85.5016 26.3464 84.297 27.562 82.7606 27.562ZM85.3459 20.9375H85.2686C84.7629 20.3753 83.7913 19.8672 82.5662 19.8672C79.999 19.8672 77.6467 21.9717 77.6467 24.6767C77.6467 27.3626 79.999 29.4502 82.5662 29.4502C83.7913 29.4502 84.7629 28.9421 85.2686 28.3608H85.3459V29.0503C85.3459 30.8844 84.297 31.8646 82.6049 31.8646C81.2241 31.8646 80.3684 30.9385 80.0183 30.1577L78.0546 30.9205C78.6183 32.1913 80.1161 33.7517 82.6049 33.7517C85.2493 33.7517 87.4858 32.2995 87.4858 28.7607V20.1567H85.3459V20.9375ZM89.0416 29.1596H91.2974V15.0745H89.0416V29.1596ZM94.6214 24.5134C94.5634 22.6623 96.1578 21.7182 97.3045 21.7182C98.2 21.7182 98.958 22.1351 99.2103 22.7344L94.6214 24.5134ZM101.622 22.9158C101.194 21.8455 99.891 19.8672 97.2272 19.8672C94.5828 19.8672 92.3861 21.8083 92.3861 24.6587C92.3861 27.3446 94.5634 29.4502 97.4795 29.4502C99.833 29.4502 101.194 28.1073 101.758 27.3265L100.008 26.2371C99.4251 27.0359 98.6273 27.562 97.4795 27.562C96.3329 27.562 95.5157 27.0719 94.9907 26.1109L101.855 23.4611L101.622 22.9158ZM46.9367 21.3374V23.3698H52.1472C51.9915 24.5134 51.5835 25.3482 50.9619 25.9295C50.2028 26.637 49.0163 27.4167 46.9367 27.4167C43.7286 27.4167 41.2193 25.0034 41.2193 22.0089C41.2193 19.0132 43.7286 16.6 46.9367 16.6C48.6675 16.6 49.9312 17.2354 50.8642 18.0522L52.4006 16.618C51.0971 15.4564 49.3675 14.5664 46.9367 14.5664C42.5422 14.5664 38.8477 17.9068 38.8477 22.0089C38.8477 26.1109 42.5422 29.4502 46.9367 29.4502C49.3084 29.4502 51.0971 28.7247 52.4972 27.3626C53.9359 26.0197 54.3837 24.1326 54.3837 22.6071C54.3837 22.1351 54.3451 21.7002 54.2666 21.3374H46.9367ZM60.3087 27.562C58.7529 27.562 57.4107 26.3644 57.4107 24.6587C57.4107 22.9338 58.7529 21.7543 60.3087 21.7543C61.8632 21.7543 63.2054 22.9338 63.2054 24.6587C63.2054 26.3644 61.8632 27.562 60.3087 27.562ZM60.3087 19.8672C57.4687 19.8672 55.1549 21.8816 55.1549 24.6587C55.1549 27.4167 57.4687 29.4502 60.3087 29.4502C63.1474 29.4502 65.4612 27.4167 65.4612 24.6587C65.4612 21.8816 63.1474 19.8672 60.3087 19.8672ZM71.5491 27.562C69.9933 27.562 68.6512 26.3644 68.6512 24.6587C68.6512 22.9338 69.9933 21.7543 71.5491 21.7543C73.1049 21.7543 74.4458 22.9338 74.4458 24.6587C74.4458 26.3644 73.1049 27.562 71.5491 27.562ZM71.5491 19.8672C68.7103 19.8672 66.3966 21.8816 66.3966 24.6587C66.3966 27.4167 68.7103 29.4502 71.5491 29.4502C74.3879 29.4502 76.7016 27.4167 76.7016 24.6587C76.7016 21.8816 74.3879 19.8672 71.5491 19.8672Z" fill="#FFFFFE"/>
<defs>
<linearGradient id="paint0_linear_3514_60354" x1="29.2192" y1="22.9694" x2="21.0234" y2="22.9694" gradientUnits="userSpaceOnUse">
<stop stop-color="#FFBC00"/>
<stop offset="1" stop-color="#FFDA03"/>
</linearGradient>
<linearGradient id="paint1_linear_3514_60354" x1="22.9469" y1="27.0969" x2="11.9272" y2="35.8451" gradientUnits="userSpaceOnUse">
<stop stop-color="#E22652"/>
<stop offset="1" stop-color="#FF3A44"/>
</linearGradient>
<linearGradient id="paint2_linear_3514_60354" x1="10.4607" y1="11.6041" x2="17.825" y2="17.8407" gradientUnits="userSpaceOnUse">
<stop stop-color="#0ED574"/>
<stop offset="1" stop-color="#07F076"/>
</linearGradient>
</defs>
</svg>
