<svg width="19" height="18" viewBox="0 0 19 18" fill="none" xmlns="http://www.w3.org/2000/svg">
<path d="M10.695 13.83L15.5 8.99998L10.695 4.16998C10.6516 4.11299 10.5965 4.066 10.5333 4.03217C10.4702 3.99834 10.4005 3.97848 10.329 3.97391C10.2576 3.96935 10.1859 3.98021 10.119 4.00573C10.0521 4.03126 9.99142 4.07087 9.94114 4.12188C9.89085 4.17289 9.85211 4.23411 9.82754 4.30139C9.80297 4.36867 9.79315 4.44045 9.79873 4.51186C9.80431 4.58327 9.82517 4.65265 9.85989 4.7153C9.89462 4.77795 9.9424 4.8324 10 4.87498L13.595 8.49998L4.03 8.49998C3.89739 8.49998 3.77021 8.55266 3.67645 8.64643C3.58268 8.74019 3.53 8.86737 3.53 8.99998C3.53 9.13259 3.58268 9.25977 3.67645 9.35353C3.77021 9.4473 3.89739 9.49998 4.03 9.49998L13.595 9.49998L10 13.125C9.90651 13.2191 9.85425 13.3466 9.85472 13.4792C9.85519 13.6119 9.90835 13.739 10.0025 13.8325C10.0967 13.926 10.2241 13.9782 10.3568 13.9778C10.4894 13.9773 10.6165 13.9241 10.71 13.83L10.695 13.83Z" fill="url(#paint0_linear_71_913)"/>
<defs>
<linearGradient id="paint0_linear_71_913" x1="9.515" y1="3.9729" x2="9.72377" y2="15.2473" gradientUnits="userSpaceOnUse">
<stop stop-color="#9C5ED7"/>
<stop offset="0.5" stop-color="#635AD9"/>
<stop offset="1" stop-color="#E8A0A0"/>
</linearGradient>
</defs>
</svg>
