<svg width="80" height="80" viewBox="0 0 80 80" fill="none" xmlns="http://www.w3.org/2000/svg">
<path fill-rule="evenodd" clip-rule="evenodd" d="M56.39 23.0167C56.39 28.785 54.9566 36.3083 52.7516 35.1667C51.85 38.1112 49.957 40.6529 47.3941 42.3602C44.8313 44.0675 41.7565 44.8352 38.6919 44.5329C35.6273 44.2305 32.7618 42.8769 30.5819 40.7017C28.4021 38.5265 27.0422 35.6639 26.7333 32.6C24.545 28.7717 21.675 21.1 29.0533 15.12C29.1866 15.0767 29.2666 14.7167 29.3866 14.1867C29.8433 12.1817 30.855 7.72501 37.2366 8.57667C42.1583 9.23167 56.39 11.7733 56.39 23.0183V23.0167ZM50.0466 26.6533C50.0466 26.6533 49.2933 28.8567 50 31.3117C49.9908 33.9293 51.4284 35.1667 50.2856 38.8572C49.1427 42.5476 42.6171 44.5543 39.9998 44.5973C37.3825 44.6403 31.4284 42.8572 30.5819 39.7726C28.5713 35.4286 29.3866 33.9917 30.0066 31.64C30.2483 30.7233 30.2483 29.1717 30.2466 27.4467C30.245 24.335 30.2416 20.6633 31.6666 19.1667C41.6483 25.815 50.0466 26.6533 50.0466 26.6533Z" fill="#707070"/>
<path d="M21.6667 60C21.6667 58.1967 22.6217 56.6167 24.055 55.7367C24.0004 55.5292 23.9493 55.3209 23.9017 55.1117C23.6488 53.9731 23.4513 52.8228 23.31 51.665C23.1668 50.5557 23.0806 49.4398 23.0517 48.3217C16.0167 51.0834 10 55.8967 10 60.95V70H70V60.95C70 56.11 64.4833 51.4917 57.8367 48.6834V48.73C57.8667 49.7467 57.81 50.9134 57.7 52.035C57.6 53.075 57.4517 54.1117 57.2733 55H58.3333C58.6428 55.0002 58.946 55.0865 59.2092 55.2493C59.4724 55.4121 59.685 55.6449 59.8233 55.9217L61.49 59.255C61.6067 59.4867 61.6667 59.7417 61.6667 60V63.3334C61.6667 63.7754 61.4911 64.1993 61.1785 64.5119C60.866 64.8244 60.442 65 60 65H56.6667V61.6667H58.3333V60.3934L57.3033 58.3334H52.6967L51.6667 60.3934V61.6667H53.3333V65H50C49.558 65 49.134 64.8244 48.8215 64.5119C48.5089 64.1993 48.3333 63.7754 48.3333 63.3334V60C48.3333 59.7417 48.3933 59.4867 48.51 59.255L50.1767 55.9217C50.315 55.6449 50.5276 55.4121 50.7908 55.2493C51.0539 55.0865 51.3572 55.0002 51.6667 55H53.8583C53.895 54.8567 53.9317 54.6984 53.9683 54.5234C54.135 53.7384 54.2833 52.7434 54.3833 51.715C54.4833 50.685 54.53 49.6634 54.505 48.8234C54.4988 48.4754 54.4715 48.1281 54.4233 47.7834C54.3867 47.5467 54.35 47.4384 54.3433 47.415C54.3417 47.41 54.34 47.4084 54.3433 47.4117L54.3483 47.41C53.464 47.1353 52.5695 46.8946 51.6667 46.6884C50.8283 46.4967 49.9617 47.65 49.5833 48.3717H30C29.9513 48.2788 29.9036 48.1855 29.8567 48.0917C29.5033 47.3884 29.0683 46.52 28.3333 46.6884C27.6917 46.8334 27.05 47 26.4083 47.1834C26.3877 47.4757 26.3788 47.7687 26.3817 48.0617C26.3883 48.9834 26.4767 50.1117 26.6183 51.2517C26.76 52.3884 26.9517 53.495 27.1517 54.3684C27.2083 54.62 27.265 54.8467 27.3183 55.0417C28.2712 55.167 29.1678 55.5642 29.9007 56.1858C30.6337 56.8074 31.1719 57.6271 31.4511 58.5467C31.7302 59.4663 31.7385 60.4469 31.4747 61.3711C31.211 62.2952 30.6866 63.1238 29.9641 63.7576C29.2417 64.3914 28.3519 64.8036 27.4013 64.9448C26.4507 65.086 25.4795 64.9502 24.604 64.5538C23.7286 64.1573 22.9859 63.5169 22.465 62.7093C21.944 61.9017 21.6669 60.9611 21.6667 60Z" fill="#75B1E8"/>
<path d="M28.3333 60C28.3333 60.9567 27.5633 61.6917 26.6667 61.6917C25.77 61.6917 25 60.9583 25 60C25 59.0433 25.77 58.3083 26.6667 58.3083C27.5633 58.3083 28.3333 59.0417 28.3333 60Z" fill="#75B1E8"/>
</svg>
