<svg width="24" height="25" viewBox="0 0 24 25" fill="none" xmlns="http://www.w3.org/2000/svg">
<path d="M11.9618 20.5C9.9311 20.5 8.16076 19.8367 6.65076 18.51C5.14143 17.184 4.2681 15.514 4.03076 13.5H5.04176C5.31376 15.22 6.09743 16.65 7.39276 17.79C8.6881 18.93 10.2111 19.5 11.9618 19.5C13.9118 19.5 15.5658 18.821 16.9238 17.463C18.2818 16.105 18.9611 14.4507 18.9618 12.5C18.9624 10.5493 18.2831 8.895 16.9238 7.537C15.5644 6.179 13.9104 5.5 11.9618 5.5C10.9264 5.5 9.95376 5.71867 9.04376 6.156C8.13376 6.59267 7.33043 7.19433 6.63376 7.961H9.11476V8.961H4.96176V4.809H5.96176V7.197C6.73509 6.34833 7.6411 5.687 8.67976 5.213C9.71843 4.739 10.8124 4.50133 11.9618 4.5C13.0704 4.5 14.1098 4.70867 15.0798 5.126C16.0498 5.54333 16.8971 6.11467 17.6218 6.84C18.3464 7.56533 18.9178 8.41267 19.3358 9.382C19.7538 10.3513 19.9624 11.3907 19.9618 12.5C19.9611 13.6093 19.7524 14.6487 19.3358 15.618C18.9191 16.5873 18.3478 17.4347 17.6218 18.16C16.8958 18.8853 16.0484 19.4567 15.0798 19.874C14.1111 20.2913 13.0718 20.5 11.9618 20.5ZM15.1658 16.354L11.5188 12.708V7.5H12.5188V12.292L15.8728 15.646L15.1658 16.354Z" fill="#4D4D4D"/>
</svg>
