<svg width="28" height="28" viewBox="0 0 28 28" fill="none" xmlns="http://www.w3.org/2000/svg">
<path d="M12.834 19.8333H15.1673V12.8333H12.834V19.8333ZM14.0007 10.5C14.3312 10.5 14.6085 10.388 14.8325 10.164C15.0565 9.94 15.1681 9.66311 15.1673 9.33333C15.1665 9.00355 15.0545 8.72667 14.8313 8.50267C14.6081 8.27867 14.3312 8.16667 14.0007 8.16667C13.6701 8.16667 13.3932 8.27867 13.17 8.50267C12.9468 8.72667 12.8348 9.00355 12.834 9.33333C12.8332 9.66311 12.9452 9.94039 13.17 10.1652C13.3948 10.3899 13.6717 10.5016 14.0007 10.5ZM14.0007 25.6667C12.3868 25.6667 10.8701 25.3602 9.45065 24.7473C8.03121 24.1344 6.79649 23.3034 5.74649 22.2542C4.69649 21.2049 3.86543 19.9702 3.25332 18.55C2.64121 17.1298 2.33476 15.6131 2.33399 14C2.33321 12.3869 2.63965 10.8702 3.25332 9.45C3.86699 8.02978 4.69804 6.79505 5.74649 5.74583C6.79493 4.69661 8.02965 3.86555 9.45065 3.25267C10.8717 2.63978 12.3883 2.33333 14.0007 2.33333C15.613 2.33333 17.1297 2.63978 18.5507 3.25267C19.9717 3.86555 21.2064 4.69661 22.2548 5.74583C23.3033 6.79505 24.1347 8.02978 24.7492 9.45C25.3636 10.8702 25.6697 12.3869 25.6673 14C25.665 15.6131 25.3585 17.1298 24.748 18.55C24.1374 19.9702 23.3064 21.2049 22.2548 22.2542C21.2033 23.3034 19.9685 24.1348 18.5507 24.7485C17.1328 25.3622 15.6161 25.6682 14.0007 25.6667ZM14.0007 23.3333C16.6062 23.3333 18.8132 22.4292 20.6215 20.6208C22.4298 18.8125 23.334 16.6056 23.334 14C23.334 11.3944 22.4298 9.1875 20.6215 7.37917C18.8132 5.57083 16.6062 4.66667 14.0007 4.66667C11.3951 4.66667 9.18815 5.57083 7.37982 7.37917C5.57149 9.1875 4.66732 11.3944 4.66732 14C4.66732 16.6056 5.57149 18.8125 7.37982 20.6208C9.18815 22.4292 11.3951 23.3333 14.0007 23.3333Z" fill="white"/>
</svg>
