<svg width="28" height="29" viewBox="0 0 28 29" fill="none" xmlns="http://www.w3.org/2000/svg">
<path d="M12.6 21.5H15.4V13.1H12.6V21.5ZM14 10.3C14.3967 10.3 14.7294 10.1656 14.9982 9.8968C15.267 9.628 15.4009 9.29573 15.4 8.9C15.3991 8.50426 15.2647 8.172 14.9968 7.9032C14.7289 7.6344 14.3967 7.5 14 7.5C13.6033 7.5 13.2711 7.6344 13.0032 7.9032C12.7353 8.172 12.6009 8.50426 12.6 8.9C12.5991 9.29573 12.7335 9.62846 13.0032 9.8982C13.2729 10.1679 13.6052 10.3019 14 10.3ZM14 28.5C12.0633 28.5 10.2433 28.1323 8.54 27.3968C6.83666 26.6613 5.355 25.6641 4.095 24.405C2.835 23.1459 1.83773 21.6643 1.1032 19.96C0.368668 18.2557 0.000935105 16.4357 1.77215e-06 14.5C-0.000931561 12.5643 0.366802 10.7443 1.1032 9.04C1.8396 7.33573 2.83687 5.85407 4.095 4.595C5.35313 3.33593 6.8348 2.33867 8.54 1.6032C10.2452 0.867733 12.0652 0.5 14 0.5C15.9348 0.5 17.7548 0.867733 19.46 1.6032C21.1652 2.33867 22.6469 3.33593 23.905 4.595C25.1631 5.85407 26.1609 7.33573 26.8982 9.04C27.6355 10.7443 28.0028 12.5643 28 14.5C27.9972 16.4357 27.6294 18.2557 26.8968 19.96C26.1641 21.6643 25.1669 23.1459 23.905 24.405C22.6431 25.6641 21.1615 26.6618 19.46 27.3982C17.7585 28.1346 15.9385 28.5019 14 28.5ZM14 25.7C17.1267 25.7 19.775 24.615 21.945 22.445C24.115 20.275 25.2 17.6267 25.2 14.5C25.2 11.3733 24.115 8.725 21.945 6.555C19.775 4.385 17.1267 3.3 14 3.3C10.8733 3.3 8.225 4.385 6.055 6.555C3.885 8.725 2.8 11.3733 2.8 14.5C2.8 17.6267 3.885 20.275 6.055 22.445C8.225 24.615 10.8733 25.7 14 25.7Z" fill="#0C3896"/>
</svg>
