<svg width="21" height="21" viewBox="0 0 21 21" fill="none" xmlns="http://www.w3.org/2000/svg">
<path d="M9.5 15.5H11.5V9.5H9.5V15.5ZM10.5 7.5C10.7833 7.5 11.021 7.404 11.213 7.212C11.405 7.02 11.5007 6.78267 11.5 6.5C11.4993 6.21733 11.4033 5.98 11.212 5.788C11.0207 5.596 10.7833 5.5 10.5 5.5C10.2167 5.5 9.97933 5.596 9.788 5.788C9.59667 5.98 9.50067 6.21733 9.5 6.5C9.49933 6.78267 9.59533 7.02033 9.788 7.213C9.98067 7.40567 10.218 7.50133 10.5 7.5ZM10.5 20.5C9.11667 20.5 7.81667 20.2373 6.6 19.712C5.38334 19.1867 4.325 18.4743 3.425 17.575C2.525 16.6757 1.81267 15.6173 1.288 14.4C0.763335 13.1827 0.500668 11.8827 0.500001 10.5C0.499335 9.11733 0.762001 7.81733 1.288 6.6C1.814 5.38267 2.52633 4.32433 3.425 3.425C4.32367 2.52567 5.382 1.81333 6.6 1.288C7.818 0.762667 9.118 0.5 10.5 0.5C11.882 0.5 13.182 0.762667 14.4 1.288C15.618 1.81333 16.6763 2.52567 17.575 3.425C18.4737 4.32433 19.1863 5.38267 19.713 6.6C20.2397 7.81733 20.502 9.11733 20.5 10.5C20.498 11.8827 20.2353 13.1827 19.712 14.4C19.1887 15.6173 18.4763 16.6757 17.575 17.575C16.6737 18.4743 15.6153 19.187 14.4 19.713C13.1847 20.239 11.8847 20.5013 10.5 20.5ZM10.5 18.5C12.7333 18.5 14.625 17.725 16.175 16.175C17.725 14.625 18.5 12.7333 18.5 10.5C18.5 8.26667 17.725 6.375 16.175 4.825C14.625 3.275 12.7333 2.5 10.5 2.5C8.26667 2.5 6.375 3.275 4.825 4.825C3.275 6.375 2.5 8.26667 2.5 10.5C2.5 12.7333 3.275 14.625 4.825 16.175C6.375 17.725 8.26667 18.5 10.5 18.5Z" fill="white"/>
</svg>
