<svg width="28" height="29" viewBox="0 0 28 29" fill="none" xmlns="http://www.w3.org/2000/svg">
<path d="M21.0825 10.4282L11.0958 5.43491C4.38746 2.07491 1.63413 4.82825 4.99413 11.5366L6.00913 13.5666C6.3008 14.1616 6.3008 14.8499 6.00913 15.4449L4.99413 17.4632C1.63413 24.1716 4.3758 26.9249 11.0958 23.5649L21.0825 18.5716C25.5625 16.3316 25.5625 12.6682 21.0825 10.4282ZM17.3141 15.3749H11.0141C10.5358 15.3749 10.1391 14.9782 10.1391 14.4999C10.1391 14.0216 10.5358 13.6249 11.0141 13.6249H17.3141C17.7925 13.6249 18.1891 14.0216 18.1891 14.4999C18.1891 14.9782 17.7925 15.3749 17.3141 15.3749Z" fill="url(#paint0_linear_1117_44432)"/>
<defs>
<linearGradient id="paint0_linear_1117_44432" x1="24.4425" y1="14.4999" x2="3.55859" y2="14.4999" gradientUnits="userSpaceOnUse">
<stop offset="0.12" stop-color="#0B4E67"/>
<stop offset="1" stop-color="#61C9EF"/>
</linearGradient>
</defs>
</svg>
