<svg width="25" height="25" viewBox="0 0 25 25" fill="none" xmlns="http://www.w3.org/2000/svg">
<path d="M13.5281 2.97498C14.6531 2.97798 15.2241 2.98398 15.7171 2.99798L15.9111 3.00498C16.1351 3.01298 16.3561 3.02298 16.6231 3.03498C17.6871 3.08498 18.4131 3.25298 19.0501 3.49998C19.7101 3.75398 20.2661 4.09798 20.8221 4.65298C21.3308 5.15271 21.7243 5.75745 21.9751 6.42498C22.2221 7.06198 22.3901 7.78798 22.4401 8.85298C22.4521 9.11898 22.4621 9.33998 22.4701 9.56498L22.4761 9.75898C22.4911 10.251 22.4971 10.822 22.4991 11.947L22.5001 12.693V14.003C22.5025 14.7324 22.4948 15.4618 22.4771 16.191L22.4711 16.385C22.4631 16.61 22.4531 16.831 22.4411 17.097C22.3911 18.162 22.2211 18.887 21.9751 19.525C21.7243 20.1925 21.3308 20.7972 20.8221 21.297C20.3223 21.8057 19.7176 22.1992 19.0501 22.45C18.4131 22.697 17.6871 22.865 16.6231 22.915L15.9111 22.945L15.7171 22.951C15.2241 22.965 14.6531 22.972 13.5281 22.974L12.7821 22.975H11.4731C10.7433 22.9775 10.0136 22.9699 9.28408 22.952L9.09008 22.946C8.85269 22.937 8.61535 22.9267 8.37808 22.915C7.31408 22.865 6.58808 22.697 5.95008 22.45C5.28291 22.199 4.67852 21.8055 4.17908 21.297C3.67003 20.7973 3.27619 20.1926 3.02508 19.525C2.77808 18.888 2.61008 18.162 2.56008 17.097L2.53008 16.385L2.52508 16.191C2.50665 15.4618 2.49831 14.7324 2.50008 14.003V11.947C2.49731 11.2176 2.50465 10.4882 2.52208 9.75898L2.52908 9.56498C2.53708 9.33998 2.54708 9.11898 2.55908 8.85298C2.60908 7.78798 2.77708 7.06298 3.02408 6.42498C3.27577 5.75717 3.6703 5.15241 4.18008 4.65298C4.67923 4.14452 5.28327 3.75105 5.95008 3.49998C6.58808 3.25298 7.31308 3.08498 8.37808 3.03498C8.64408 3.02298 8.86608 3.01298 9.09008 3.00498L9.28408 2.99898C10.0133 2.98121 10.7427 2.97354 11.4721 2.97598L13.5281 2.97498ZM12.5001 7.97498C11.174 7.97498 9.90223 8.50176 8.96455 9.43944C8.02687 10.3771 7.50008 11.6489 7.50008 12.975C7.50008 14.3011 8.02687 15.5728 8.96455 16.5105C9.90223 17.4482 11.174 17.975 12.5001 17.975C13.8262 17.975 15.0979 17.4482 16.0356 16.5105C16.9733 15.5728 17.5001 14.3011 17.5001 12.975C17.5001 11.6489 16.9733 10.3771 16.0356 9.43944C15.0979 8.50176 13.8262 7.97498 12.5001 7.97498ZM12.5001 9.97498C12.894 9.97491 13.2842 10.0524 13.6482 10.2031C14.0122 10.3538 14.3429 10.5748 14.6215 10.8533C14.9002 11.1318 15.1212 11.4625 15.272 11.8265C15.4229 12.1904 15.5005 12.5805 15.5006 12.9745C15.5006 13.3684 15.4231 13.7586 15.2724 14.1226C15.1217 14.4866 14.9008 14.8173 14.6223 15.0959C14.3437 15.3746 14.013 15.5956 13.6491 15.7464C13.2851 15.8972 12.895 15.9749 12.5011 15.975C11.7054 15.975 10.9424 15.6589 10.3798 15.0963C9.81715 14.5337 9.50108 13.7706 9.50108 12.975C9.50108 12.1793 9.81715 11.4163 10.3798 10.8537C10.9424 10.291 11.7054 9.97498 12.5011 9.97498M17.7511 6.47498C17.4196 6.47498 17.1016 6.60667 16.8672 6.84109C16.6328 7.07551 16.5011 7.39346 16.5011 7.72498C16.5011 8.0565 16.6328 8.37444 16.8672 8.60886C17.1016 8.84328 17.4196 8.97498 17.7511 8.97498C18.0826 8.97498 18.4005 8.84328 18.635 8.60886C18.8694 8.37444 19.0011 8.0565 19.0011 7.72498C19.0011 7.39346 18.8694 7.07551 18.635 6.84109C18.4005 6.60667 18.0826 6.47498 17.7511 6.47498Z" fill="white"/>
</svg>
