<svg width="25" height="25" viewBox="0 0 25 25" fill="none" xmlns="http://www.w3.org/2000/svg">
<path d="M18.875 0.478516H6.125C3.0184 0.478516 0.5 2.99691 0.5 6.10352V18.8535C0.5 21.9601 3.0184 24.4785 6.125 24.4785H18.875C21.9816 24.4785 24.5 21.9601 24.5 18.8535V6.10352C24.5 2.99691 21.9816 0.478516 18.875 0.478516Z" fill="url(#paint0_radial_1117_46200)"/>
<path d="M18.875 0.478516H6.125C3.0184 0.478516 0.5 2.99691 0.5 6.10352V18.8535C0.5 21.9601 3.0184 24.4785 6.125 24.4785H18.875C21.9816 24.4785 24.5 21.9601 24.5 18.8535V6.10352C24.5 2.99691 21.9816 0.478516 18.875 0.478516Z" fill="url(#paint1_radial_1117_46200)"/>
<path d="M12.5008 3.10352C9.95478 3.10352 9.63519 3.11467 8.63525 3.16014C7.63719 3.20589 6.95591 3.36386 6.35984 3.5957C5.74316 3.83514 5.22013 4.15548 4.69906 4.67673C4.17753 5.19789 3.85719 5.72092 3.617 6.33733C3.3845 6.93358 3.22634 7.61514 3.18144 8.61273C3.13672 9.61277 3.125 9.93245 3.125 12.4786C3.125 15.0248 3.13625 15.3433 3.18163 16.3433C3.22756 17.3413 3.38553 18.0226 3.61719 18.6187C3.85681 19.2354 4.17716 19.7584 4.69841 20.2795C5.21938 20.801 5.74241 21.1221 6.35862 21.3615C6.95516 21.5934 7.63653 21.7513 8.63441 21.7971C9.63444 21.8425 9.95375 21.8537 12.4997 21.8537C15.0461 21.8537 15.3646 21.8425 16.3646 21.7971C17.3626 21.7513 18.0447 21.5934 18.6412 21.3615C19.2576 21.1221 19.7799 20.801 20.3007 20.2795C20.8223 19.7584 21.1425 19.2354 21.3828 18.619C21.6133 18.0226 21.7715 17.3411 21.8184 16.3435C21.8633 15.3435 21.875 15.0248 21.875 12.4786C21.875 9.93245 21.8633 9.61295 21.8184 8.61292C21.7715 7.61486 21.6133 6.93367 21.3828 6.33761C21.1425 5.72092 20.8223 5.19789 20.3007 4.67673C19.7793 4.1553 19.2578 3.83495 18.6406 3.5958C18.043 3.36386 17.3613 3.2058 16.3632 3.16014C15.3632 3.11467 15.0448 3.10352 12.4979 3.10352H12.5008ZM11.6598 4.79298C11.9095 4.79261 12.188 4.79298 12.5008 4.79298C15.0041 4.79298 15.3007 4.80198 16.2892 4.84689C17.2032 4.8887 17.6994 5.04142 18.0298 5.16977C18.4674 5.33964 18.7793 5.5428 19.1072 5.87102C19.4353 6.19914 19.6384 6.51161 19.8088 6.94914C19.9371 7.27914 20.09 7.77527 20.1316 8.68933C20.1765 9.67764 20.1863 9.97445 20.1863 12.4765C20.1863 14.9785 20.1765 15.2754 20.1316 16.2636C20.0898 17.1776 19.9371 17.6738 19.8088 18.0039C19.6389 18.4414 19.4353 18.7529 19.1072 19.0809C18.7791 19.409 18.4676 19.612 18.0298 19.782C17.6997 19.9109 17.2032 20.0633 16.2892 20.1051C15.3009 20.15 15.0041 20.1597 12.5008 20.1597C9.99753 20.1597 9.70081 20.15 8.71259 20.1051C7.79853 20.0629 7.30241 19.9102 6.97166 19.7818C6.53422 19.6119 6.22166 19.4088 5.89353 19.0807C5.56541 18.7525 5.36234 18.4408 5.192 18.0031C5.06366 17.673 4.91075 17.1769 4.86913 16.2628C4.82422 15.2745 4.81522 14.9777 4.81522 12.4741C4.81522 9.97061 4.82422 9.6753 4.86913 8.68698C4.91094 7.77292 5.06366 7.2768 5.192 6.94633C5.36197 6.5088 5.56541 6.19633 5.89363 5.8682C6.22175 5.54008 6.53422 5.33692 6.97175 5.16667C7.30222 5.03777 7.79853 4.88542 8.71259 4.84342C9.57744 4.80433 9.91259 4.79261 11.6598 4.79064V4.79298ZM17.5052 6.34961C16.8841 6.34961 16.3802 6.85305 16.3802 7.47423C16.3802 8.09533 16.8841 8.59923 17.5052 8.59923C18.1263 8.59923 18.6302 8.09533 18.6302 7.47423C18.6302 6.85314 18.1263 6.34923 17.5052 6.34923V6.34961ZM12.5008 7.66408C9.84209 7.66408 7.68641 9.81977 7.68641 12.4786C7.68641 15.1375 9.84209 17.2921 12.5008 17.2921C15.1597 17.2921 17.3146 15.1375 17.3146 12.4786C17.3146 9.81986 15.1595 7.66408 12.5007 7.66408H12.5008ZM12.5008 9.35355C14.2267 9.35355 15.6259 10.7526 15.6259 12.4786C15.6259 14.2045 14.2267 15.6037 12.5008 15.6037C10.7749 15.6037 9.37588 14.2045 9.37588 12.4786C9.37588 10.7526 10.7749 9.35355 12.5008 9.35355Z" fill="white"/>
<defs>
<radialGradient id="paint0_radial_1117_46200" cx="0" cy="0" r="1" gradientUnits="userSpaceOnUse" gradientTransform="translate(6.875 26.327) rotate(-90) scale(23.7858 22.1227)">
<stop stop-color="#FFDD55"/>
<stop offset="0.1" stop-color="#FFDD55"/>
<stop offset="0.5" stop-color="#FF543E"/>
<stop offset="1" stop-color="#C837AB"/>
</radialGradient>
<radialGradient id="paint1_radial_1117_46200" cx="0" cy="0" r="1" gradientUnits="userSpaceOnUse" gradientTransform="translate(-3.52009 2.20736) rotate(78.681) scale(10.6324 43.827)">
<stop stop-color="#3771C8"/>
<stop offset="0.128" stop-color="#3771C8"/>
<stop offset="1" stop-color="#6600FF" stop-opacity="0"/>
</radialGradient>
</defs>
</svg>
