<svg width="35" height="35" viewBox="0 0 35 35" fill="none" xmlns="http://www.w3.org/2000/svg">
<path d="M17.5001 9.90869L27.841 14.0562L17.5001 18.177L9.78418 15.0931C9.30691 15.4918 8.96221 16.1299 8.90918 16.8478H9.09479C9.30691 16.8478 9.466 17.0073 9.466 17.22V18.2037C9.466 18.4164 9.30691 18.5759 9.09479 18.5759H8.96221L9.466 23.7337C9.49252 23.9464 9.33343 24.1324 9.1213 24.1324H8.19327C7.98115 24.1324 7.82206 23.9464 7.82206 23.7337L8.35236 18.5759H8.21979C8.00766 18.5759 7.82206 18.4164 7.82206 18.2037V17.22C7.82206 17.0073 8.00766 16.8478 8.21979 16.8478H8.51145C8.56448 16.0767 8.90918 15.4121 9.38645 14.9335L7.15918 14.0562L17.5001 9.90869ZM17.2085 18.9214L17.5001 19.0279L17.7917 18.9214L23.466 16.6351L23.8903 21.3409C23.9167 21.6599 23.7046 21.7929 23.413 21.6599L21.1858 20.5167C20.894 20.3572 20.4167 20.3838 20.1517 20.5433L18.0039 21.7662C17.7387 21.9258 17.2615 21.9258 16.9962 21.7662L14.8486 20.5433C14.5834 20.3838 14.1062 20.3572 13.841 20.5167L11.5872 21.6599C11.2955 21.8194 11.0834 21.6599 11.1099 21.3409L11.5342 16.6351L17.2085 18.9214Z" fill="#FFCC18"/>
<path d="M5.96541 25.9088C5.85699 25.423 5.91817 24.9146 6.1387 24.4687L6.191 24.3631C6.26139 24.2207 6.44427 24.1796 6.56841 24.278L6.67519 24.3627C7.05469 24.6638 7.31956 25.0869 7.42537 25.5609L7.56207 26.1733C7.66755 26.6459 7.47494 27.1367 7.07804 27.4116C7.05292 27.429 7.02174 27.4355 6.99181 27.4295C6.5545 27.3417 6.20974 27.0034 6.11217 26.5663L5.96541 25.9088Z" fill="white"/>
<path d="M5.59964 26.5227C5.21641 26.3328 4.77985 26.2812 4.36319 26.3765L4.26441 26.399C4.13142 26.4294 4.05996 26.575 4.11691 26.6995L4.16591 26.8065C4.34007 27.1871 4.63923 27.496 5.01317 27.6812L5.49636 27.9205C5.86916 28.1052 6.31765 28.0426 6.62751 27.7643C6.64713 27.7466 6.65888 27.7216 6.65995 27.6953C6.67545 27.3093 6.46316 26.9505 6.11831 26.7797L5.59964 26.5227Z" fill="white"/>
<path d="M8.06264 27.6536C7.96981 27.1645 8.04724 26.6584 8.28193 26.2198L8.33758 26.116C8.41248 25.976 8.5966 25.9406 8.71752 26.0431L8.82152 26.1313C9.1912 26.4444 9.44239 26.8757 9.53298 27.353L9.65 27.9695C9.7403 28.4453 9.53207 28.9296 9.12659 29.1915C9.10092 29.2081 9.06954 29.2137 9.03983 29.2067C8.60555 29.1049 8.2718 28.7555 8.18826 28.3155L8.06264 27.6536Z" fill="white"/>
<path d="M7.67744 28.2554C7.30047 28.0532 6.86579 27.9875 6.44631 28.0692L6.34687 28.0886C6.21296 28.1146 6.13687 28.258 6.18983 28.3842L6.23537 28.4927C6.39725 28.8787 6.68637 29.197 7.0542 29.3943L7.52947 29.649C7.89617 29.8457 8.34643 29.7976 8.66504 29.5295C8.68522 29.5125 8.69775 29.4879 8.69966 29.4615C8.72752 29.0764 8.52681 28.7107 8.18761 28.5289L7.67744 28.2554Z" fill="white"/>
<path d="M29.7848 24.7848C29.8992 24.3004 29.8443 23.7912 29.6292 23.3428L29.5782 23.2363C29.5096 23.0933 29.3273 23.0498 29.2019 23.1467L29.094 23.2301C28.711 23.5264 28.4408 23.9462 28.3293 24.4188L28.1852 25.0296C28.0738 25.5008 28.2604 25.994 28.654 26.2738C28.6788 26.2914 28.71 26.2984 28.7399 26.2927C29.1784 26.2104 29.5272 25.8764 29.63 25.4404L29.7848 24.7848Z" fill="white"/>
<path d="M30.1432 25.4031C30.5287 25.218 30.9659 25.1718 31.3815 25.2722L31.4799 25.296C31.6125 25.328 31.6821 25.4744 31.6237 25.5982L31.5733 25.7047C31.3947 26.0831 31.0917 26.3882 30.7155 26.5688L30.2295 26.8021C29.8543 26.9821 29.4067 26.914 29.1002 26.6319C29.0808 26.614 29.0694 26.5889 29.0687 26.5626C29.0579 26.1764 29.2746 25.8202 29.6214 25.6537L30.1432 25.4031Z" fill="white"/>
<path d="M27.8108 27.1289C27.9115 26.6415 27.8423 26.1341 27.6148 25.6919L27.5609 25.587C27.4883 25.4459 27.3047 25.4076 27.1822 25.5081L27.0767 25.5944C26.7021 25.9014 26.4439 26.3286 26.3456 26.8042L26.2184 27.4189C26.1204 27.893 26.3207 28.3806 26.7218 28.6493C26.7473 28.6662 26.7786 28.6723 26.8084 28.6657C27.2443 28.5711 27.5836 28.2274 27.6743 27.7887L27.8108 27.1289Z" fill="white"/>
<path d="M28.1863 27.7371C28.5666 27.5412 29.0023 27.4827 29.4204 27.5713L29.5195 27.5924C29.6528 27.6205 29.7267 27.765 29.6716 27.8904L29.6244 27.9981C29.4562 28.3815 29.1619 28.6949 28.7909 28.8861L28.3115 29.1332C27.9417 29.3237 27.4924 29.2682 27.1782 28.9949C27.1583 28.9775 27.146 28.9529 27.1446 28.9264C27.123 28.5407 27.3296 28.1786 27.6718 28.0023L28.1863 27.7371Z" fill="white"/>
<path d="M4.3723 23.3441C4.38484 22.8465 4.5674 22.3683 4.88933 21.9899L4.96565 21.9C5.0684 21.7792 5.25578 21.784 5.35232 21.9099L5.43535 22.0181C5.73049 22.403 5.88489 22.878 5.87266 23.3636L5.85686 23.9911C5.84466 24.4753 5.53892 24.9041 5.08735 25.0739C5.05876 25.0846 5.02695 25.0833 4.99936 25.07C4.59648 24.8781 4.34406 24.4656 4.35534 24.0178L4.3723 23.3441Z" fill="white"/>
<path d="M3.86848 23.8502C3.54278 23.5725 3.13185 23.4157 2.70467 23.4061L2.60339 23.4039C2.46704 23.4008 2.36243 23.5245 2.38752 23.6593L2.40911 23.775C2.48583 24.1866 2.70114 24.5593 3.01897 24.8304L3.42962 25.1807C3.74648 25.4511 4.19662 25.5 4.56462 25.3058C4.58791 25.2935 4.60535 25.2723 4.61278 25.2469C4.72134 24.8763 4.60239 24.4764 4.30929 24.2263L3.86848 23.8502Z" fill="white"/>
<path d="M32.1488 18.6395C31.993 18.1669 31.6801 17.7626 31.2626 17.4943L31.1637 17.4307C31.0305 17.345 30.8527 17.4043 30.7965 17.5528L30.7484 17.6806C30.5771 18.135 30.5666 18.6346 30.7187 19.0958L30.9152 19.6916C31.0668 20.1514 31.4833 20.4726 31.9644 20.5033C31.9948 20.5052 32.0248 20.4947 32.0474 20.4741C32.3775 20.1728 32.4999 19.7045 32.3597 19.2793L32.1488 18.6395Z" fill="white"/>
<path d="M32.7767 18.977C33.0082 18.6161 33.3559 18.3462 33.7621 18.2124L33.8583 18.1808C33.9878 18.1381 34.1237 18.226 34.1387 18.3622L34.1516 18.4793C34.1971 18.8956 34.0987 19.3152 33.8728 19.6672L33.5811 20.1222C33.3559 20.4732 32.9394 20.6514 32.5311 20.5728C32.5053 20.5678 32.4824 20.5525 32.4681 20.5304C32.2571 20.2074 32.2553 19.79 32.4634 19.4654L32.7767 18.977Z" fill="white"/>
<path d="M10.3883 29.4282C10.1528 28.9902 10.0745 28.4842 10.1664 27.995L10.1882 27.879C10.2175 27.7228 10.3824 27.6333 10.5285 27.6944L10.6541 27.7468C11.1007 27.9332 11.4698 28.2683 11.6996 28.6956L11.9966 29.248C12.2257 29.674 12.1727 30.1989 11.865 30.5716C11.8455 30.5952 11.8172 30.6099 11.7868 30.6123C11.3422 30.647 10.919 30.4153 10.7071 30.0212L10.3883 29.4282Z" fill="white"/>
<path d="M10.2017 30.1188C9.78162 30.0405 9.34747 30.1097 8.97215 30.3149L8.88315 30.3635C8.76335 30.429 8.73386 30.5887 8.8223 30.6929L8.89838 30.7827C9.16873 31.1015 9.54004 31.3173 9.94997 31.3937L10.4797 31.4924C10.8883 31.5685 11.3031 31.3862 11.5263 31.0338C11.5404 31.0115 11.545 30.9844 11.5389 30.9586C11.4496 30.5829 11.1484 30.2952 10.7703 30.2248L10.2017 30.1188Z" fill="white"/>
<path d="M25.2008 28.492C25.3833 28.0291 25.4017 27.5172 25.253 27.0424L25.2177 26.9297C25.1703 26.7782 24.9959 26.7089 24.8581 26.7867L24.7394 26.8537C24.3179 27.0916 23.9908 27.4682 23.8127 27.9198L23.5827 28.5035C23.4052 28.9537 23.5194 29.4686 23.8687 29.8023C23.8909 29.8234 23.9208 29.8347 23.9512 29.8335C24.3968 29.8152 24.7899 29.5349 24.9539 29.1184L25.2008 28.492Z" fill="white"/>
<path d="M25.4671 29.1556C25.875 29.0279 26.3142 29.0453 26.7112 29.2045L26.8052 29.2422C26.9318 29.2931 26.9799 29.4481 26.9043 29.5622L26.8392 29.6601C26.6082 30.0089 26.2649 30.2671 25.8667 30.3916L25.3524 30.5524C24.9555 30.6764 24.5222 30.5446 24.2593 30.2211C24.2426 30.2007 24.2349 30.1741 24.238 30.1479C24.2825 29.7642 24.5477 29.443 24.9149 29.3282L25.4671 29.1556Z" fill="white"/>
<path d="M13.158 30.6456C12.8027 30.2985 12.5771 29.8392 12.519 29.3449L12.5052 29.2276C12.4866 29.0699 12.6173 28.9348 12.7748 28.949L12.9104 28.9613C13.392 29.0048 13.8441 29.2134 14.1907 29.552L14.6387 29.9898C14.9843 30.3273 15.0902 30.844 14.9077 31.2923C14.8961 31.3207 14.8736 31.3433 14.8452 31.3546C14.4314 31.5214 13.9585 31.4276 13.6388 31.1154L13.158 30.6456Z" fill="white"/>
<path d="M13.1864 31.3604C12.7622 31.412 12.3686 31.6088 12.0717 31.9174L12.0013 31.9906C11.9065 32.089 11.9259 32.2503 12.0414 32.3232L12.1407 32.3858C12.4937 32.6088 12.9123 32.7029 13.3262 32.6524L13.861 32.5873C14.2737 32.537 14.615 32.2383 14.7229 31.8349C14.7297 31.8095 14.726 31.7822 14.7125 31.7595C14.5153 31.4279 14.1422 31.2441 13.7605 31.2906L13.1864 31.3604Z" fill="white"/>
<path d="M22.7688 30.0847C22.9752 29.6319 23.0202 29.1218 22.8964 28.6398L22.8672 28.5255C22.8276 28.3716 22.6572 28.2931 22.5154 28.3636L22.3936 28.4243C21.9602 28.6398 21.6137 28.9986 21.4124 29.4401L21.1523 30.0108C20.9516 30.4511 21.0387 30.9715 21.3703 31.3231C21.3913 31.3453 21.4204 31.3581 21.4509 31.3586C21.8969 31.3637 22.304 31.1045 22.4896 30.6973L22.7688 30.0847Z" fill="white"/>
<path d="M22.9999 30.7613C23.4138 30.6554 23.8516 30.6958 24.2395 30.8758L24.3316 30.9184C24.4554 30.9758 24.4952 31.1331 24.4139 31.243L24.3439 31.3376C24.0949 31.6736 23.7385 31.9135 23.3344 32.0167L22.8125 32.1503C22.4096 32.2532 21.9838 32.0987 21.7381 31.7618C21.7225 31.7405 21.7162 31.7137 21.7206 31.6876C21.7851 31.3068 22.0668 30.9999 22.4394 30.9047L22.9999 30.7613Z" fill="white"/>
<path d="M15.7726 31.397C15.4033 31.0649 15.1589 30.6155 15.0804 30.1239L15.0618 30.0074C15.0367 29.8505 15.1617 29.7102 15.3197 29.7178L15.4556 29.7245C15.9386 29.7479 16.399 29.9374 16.7593 30.2614L17.2248 30.6801C17.5841 31.0029 17.7113 31.5148 17.5475 31.9703C17.537 31.9991 17.5155 32.0226 17.4877 32.0352C17.081 32.2191 16.6047 32.1451 16.2724 31.8463L15.7726 31.397Z" fill="white"/>
<path d="M15.8301 32.1102C15.4084 32.1794 15.0233 32.3923 14.7393 32.713L14.672 32.7891C14.5814 32.8915 14.6074 33.0517 14.7258 33.1198L14.8276 33.1782C15.1895 33.3862 15.6116 33.4629 16.0231 33.3953L16.5547 33.3079C16.965 33.2406 17.2937 32.9278 17.3849 32.5203C17.3906 32.4945 17.3858 32.4674 17.3713 32.4453C17.1607 32.1222 16.7803 31.954 16.4009 32.0164L15.8301 32.1102Z" fill="white"/>
<path d="M20.3547 31.8855C20.8345 32.01 21.2572 32.2964 21.5517 32.6967L21.6216 32.7916C21.7156 32.9195 21.6688 33.1018 21.5248 33.1678L21.4012 33.2247C20.9615 33.4269 20.4659 33.471 19.9977 33.3496L19.3927 33.1928C18.9259 33.0716 18.5788 32.6758 18.5161 32.1957C18.5121 32.1652 18.5206 32.1343 18.5395 32.1103C18.8166 31.7594 19.2735 31.6052 19.7053 31.7172L20.3547 31.8855Z" fill="white"/>
<path d="M19.9774 31.2788C20.3203 31.0227 20.5649 30.6557 20.6706 30.2399L20.6956 30.1413C20.7293 30.0085 20.6327 29.8782 20.4965 29.8724L20.3793 29.8673C19.9628 29.8498 19.5528 29.9765 19.2182 30.2264L18.786 30.5494C18.4524 30.7986 18.3035 31.2282 18.4089 31.632C18.4156 31.6576 18.4323 31.6795 18.4552 31.6926C18.7901 31.8823 19.2049 31.8559 19.5133 31.6255L19.9774 31.2788Z" fill="white"/>
<path d="M3.11798 20.5201C3.17865 20.0259 3.40665 19.5679 3.7637 19.2227L3.84835 19.1408C3.96232 19.0306 4.14833 19.0536 4.23223 19.1883L4.30438 19.3042C4.56085 19.716 4.66853 20.2039 4.60933 20.6861L4.53282 21.3091C4.4738 21.7896 4.12798 22.1868 3.66213 22.3115C3.63264 22.3193 3.60109 22.3148 3.57492 22.2991C3.19254 22.0685 2.98127 21.6333 3.03585 21.1887L3.11798 20.5201Z" fill="white"/>
<path d="M2.56808 20.9745C2.27082 20.6662 1.87704 20.4699 1.45281 20.4186L1.35223 20.4065C1.21682 20.3902 1.10073 20.5032 1.11266 20.6397L1.12292 20.757C1.1594 21.1742 1.33762 21.5661 1.62768 21.867L2.00246 22.2559C2.29163 22.5559 2.73492 22.6486 3.11997 22.4911C3.14434 22.4812 3.16376 22.4617 3.17361 22.4373C3.31753 22.0791 3.23789 21.6694 2.97039 21.3919L2.56808 20.9745Z" fill="white"/>
<path d="M2.73403 17.7049C2.99864 17.2839 3.39931 16.9673 3.86882 16.808L3.98014 16.7701C4.13 16.7193 4.28847 16.8198 4.30718 16.9777L4.32327 17.1134C4.38044 17.5957 4.27072 18.0832 4.01253 18.4939L3.6789 19.0247C3.42149 19.4341 2.94016 19.6451 2.46586 19.5583C2.43583 19.5529 2.40918 19.5353 2.39221 19.5099C2.14418 19.1375 2.1378 18.6534 2.37591 18.2746L2.73403 17.7049Z" fill="white"/>
<path d="M2.04363 17.8804C1.90563 17.4742 1.63274 17.128 1.27076 16.8998L1.18495 16.8458C1.06941 16.773 0.916461 16.8255 0.869321 16.954L0.828777 17.0645C0.684664 17.4575 0.679502 17.8884 0.814153 18.2849L0.988137 18.797C1.12238 19.1922 1.48398 19.466 1.89904 19.4887C1.92531 19.4901 1.95116 19.4807 1.97048 19.4628C2.25269 19.2005 2.35457 18.7957 2.23038 18.4302L2.04363 17.8804Z" fill="white"/>
<path d="M31.3193 22.0851C31.3169 21.5873 31.1439 21.1054 30.8297 20.7204L30.7553 20.6292C30.6551 20.5063 30.4676 20.5072 30.3685 20.6311L30.2833 20.7377C29.9805 21.1165 29.8165 21.5882 29.8189 22.0739L29.8219 22.7017C29.8244 23.1859 30.1213 23.621 30.5695 23.7998C30.5978 23.8111 30.6296 23.8105 30.6574 23.7979C31.0641 23.6141 31.3248 23.2069 31.3226 22.7589L31.3193 22.0851Z" fill="white"/>
<path d="M31.8125 22.6014C32.1437 22.3303 32.5578 22.1819 32.985 22.1811L33.0863 22.1809C33.2228 22.1806 33.3248 22.3065 33.2969 22.4406L33.2731 22.556C33.1881 22.9659 32.9652 23.3341 32.642 23.5988L32.2244 23.9405C31.902 24.2044 31.451 24.2441 31.087 24.0425C31.0639 24.0297 31.0469 24.0079 31.0401 23.9825C30.9391 23.6098 31.066 23.2124 31.3641 22.9683L31.8125 22.6014Z" fill="white"/>
<path d="M2.77452 14.4757C3.16832 14.1735 3.65361 14.0165 4.14897 14.0311L4.26641 14.0345C4.42453 14.0392 4.53831 14.1888 4.50123 14.3433L4.46935 14.4762C4.35599 14.9484 4.08441 15.3671 3.70014 15.662L3.20365 16.0431C2.82056 16.3372 2.29624 16.3668 1.88157 16.1198C1.85532 16.1042 1.83639 16.0784 1.8293 16.0486C1.72562 15.6129 1.88721 15.1567 2.24156 14.8848L2.77452 14.4757Z" fill="white"/>
<path d="M2.06605 14.399C2.07728 13.9699 1.94126 13.55 1.6808 13.2097L1.61905 13.129C1.53592 13.0204 1.37437 13.0162 1.28567 13.1202L1.20938 13.2098C0.938225 13.5279 0.78425 13.9301 0.773295 14.3488L0.759141 14.8898C0.748219 15.3072 0.992505 15.6902 1.37383 15.8564C1.39797 15.8669 1.42543 15.8672 1.44975 15.8571C1.80516 15.7097 2.04076 15.3659 2.05086 14.9797L2.06605 14.399Z" fill="white"/>
<path d="M32.3591 15.4635C32.1277 15.0233 31.7525 14.6765 31.2966 14.4813L31.1885 14.435C31.043 14.3727 30.8772 14.4606 30.8465 14.6165L30.8201 14.7505C30.7259 15.227 30.798 15.7215 31.0237 16.151L31.3157 16.7061C31.5408 17.1342 32.0045 17.3819 32.484 17.3322C32.5144 17.329 32.5423 17.3137 32.5612 17.2896C32.837 16.9376 32.8806 16.4555 32.6724 16.0593L32.3591 15.4635Z" fill="white"/>
<path d="M33.0342 15.6919C33.203 15.2975 33.5016 14.9735 33.8801 14.7742L33.9698 14.7269C34.0905 14.6633 34.2391 14.7274 34.2762 14.8593L34.3082 14.9727C34.4216 15.3757 34.3936 15.8057 34.2289 16.1904L34.0161 16.6876C33.8519 17.0711 33.4704 17.3161 33.0549 17.3066C33.0284 17.3059 33.0035 17.2946 32.9855 17.2752C32.7243 16.9919 32.6538 16.5803 32.8057 16.2256L33.0342 15.6919Z" fill="white"/>
<path d="M31.7869 12.2751C31.4388 11.9207 30.98 11.6974 30.4875 11.6426L30.3707 11.6296C30.2135 11.6121 30.08 11.7444 30.0955 11.9025L30.1087 12.0386C30.1554 12.5221 30.3664 12.9747 30.706 13.3204L31.1448 13.7672C31.4835 14.1119 31.9985 14.2146 32.4435 14.028C32.4716 14.0162 32.4939 13.9934 32.505 13.9648C32.6681 13.5478 32.5712 13.0735 32.2581 12.7547L31.7869 12.2751Z" fill="white"/>
<path d="M32.4989 12.2981C32.5473 11.8716 32.7401 11.4748 33.0452 11.1742L33.1175 11.103C33.2148 11.0071 33.3755 11.0254 33.4489 11.1409L33.512 11.2402C33.7365 11.5932 33.8332 12.013 33.786 12.4291L33.725 12.9668C33.6781 13.3817 33.3831 13.7268 32.9824 13.8381C32.9571 13.8451 32.9299 13.8416 32.9071 13.8282C32.5756 13.6325 32.3899 13.2591 32.4335 12.8753L32.4989 12.2981Z" fill="white"/>
<path d="M30.5431 9.54064C30.1216 9.279 29.6231 9.17103 29.1317 9.23479L29.0152 9.24991C28.8584 9.27026 28.7597 9.43046 28.8119 9.5805L28.8568 9.70953C29.016 10.1682 29.3275 10.5579 29.7389 10.8131L30.2705 11.143C30.6808 11.3975 31.2054 11.3749 31.5936 11.0879C31.6183 11.0697 31.6345 11.0422 31.6386 11.0119C31.6989 10.568 31.4932 10.1301 31.1138 9.89471L30.5431 9.54064Z" fill="white"/>
<path d="M31.2402 9.39398C31.1868 8.96811 31.2808 8.53674 31.5064 8.17224L31.56 8.08583C31.6321 7.96948 31.7923 7.94918 31.8909 8.04394L31.9755 8.12543C32.2767 8.41508 32.4695 8.79999 32.5217 9.21554L32.589 9.75248C32.641 10.1668 32.4356 10.5722 32.0726 10.7754C32.0495 10.7883 32.0223 10.7913 31.9972 10.7837C31.6289 10.6724 31.3606 10.3536 31.3124 9.97036L31.2402 9.39398Z" fill="white"/>
<path d="M29.1137 6.83314C28.6907 6.57384 28.1917 6.46858 27.7005 6.53505L27.5841 6.55081C27.4274 6.57203 27.3297 6.73276 27.3827 6.88251L27.4282 7.01129C27.59 7.46907 27.9035 7.85703 28.3164 8.11005L28.8498 8.43697C29.2614 8.68923 29.7859 8.66377 30.1727 8.37461C30.1972 8.35631 30.2132 8.32874 30.2172 8.29833C30.2751 7.85414 30.067 7.41742 29.6863 7.18408L29.1137 6.83314Z" fill="white"/>
<path d="M29.8103 6.68249C29.7546 6.25691 29.8463 5.82504 30.07 5.4593L30.1229 5.3726C30.1944 5.25587 30.3546 5.23467 30.4537 5.32889L30.5388 5.40991C30.8415 5.69792 31.0364 6.08175 31.0908 6.49701L31.1612 7.03358C31.2154 7.44757 31.0123 7.85408 30.6503 8.05937C30.6274 8.07236 30.6 8.07552 30.5748 8.06805C30.206 7.95873 29.936 7.64141 29.8859 7.25846L29.8103 6.68249Z" fill="white"/>
<path d="M3.56925 11.4692C3.99253 11.2103 4.49156 11.1055 4.98265 11.1724L5.09908 11.1883C5.25582 11.2096 5.35331 11.3704 5.30026 11.5201L5.25463 11.6489C5.09243 12.1065 4.77848 12.4942 4.36547 12.7468L3.83181 13.0733C3.42006 13.3252 2.89553 13.2993 2.50905 13.0098C2.48458 12.9915 2.46845 12.9639 2.46451 12.9335C2.40706 12.4892 2.61553 12.0527 2.99641 11.8197L3.56925 11.4692Z" fill="white"/>
<path d="M2.87306 11.3181C2.92917 10.8925 2.83788 10.4606 2.61452 10.0946L2.56157 10.0079C2.49027 9.89109 2.33006 9.86977 2.23097 9.96389L2.14573 10.0448C1.84274 10.3326 1.64748 10.7162 1.59274 11.1315L1.52199 11.668C1.4674 12.0819 1.6702 12.4886 2.03201 12.6942C2.0549 12.7072 2.08218 12.7104 2.10743 12.7029C2.4763 12.5939 2.74661 12.2769 2.79711 11.894L2.87306 11.3181Z" fill="white"/>
<path d="M4.79461 8.2146C5.20896 7.94149 5.70419 7.81985 6.19725 7.87008L6.31413 7.88201C6.47151 7.89804 6.57434 8.05546 6.52633 8.20687L6.48504 8.3371C6.33828 8.79997 6.03752 9.19804 5.63321 9.46453L5.1108 9.80888C4.70771 10.0746 4.18263 10.0664 3.78666 9.79016C3.76158 9.77266 3.74454 9.74565 3.73958 9.71538C3.66726 9.27334 3.86098 8.82998 4.23383 8.58423L4.79461 8.2146Z" fill="white"/>
<path d="M4.09395 8.08714C4.13575 7.65995 4.03004 7.23132 3.79454 6.87316L3.7387 6.78825C3.66353 6.67394 3.5027 6.65803 3.4068 6.75546L3.32433 6.83925C3.03117 7.13707 2.8489 7.52714 2.80809 7.94397L2.75537 8.48256C2.71469 8.89813 2.93102 9.29771 3.29951 9.49094C3.32283 9.50318 3.3502 9.50545 3.37519 9.49714C3.74019 9.37573 3.99973 9.04969 4.03736 8.66528L4.09395 8.08714Z" fill="white"/>
<path d="M6.24931 5.51056C6.59296 5.23331 7.02107 5.08321 7.46183 5.08547L7.56632 5.08602C7.70701 5.08674 7.81139 5.21729 7.78173 5.35545L7.75623 5.47426C7.66558 5.89661 7.4331 6.27477 7.09777 6.54533L6.6645 6.89489C6.3302 7.16462 5.86466 7.20235 5.49067 6.9917C5.46699 6.97835 5.4496 6.9559 5.44265 6.92953C5.34112 6.54438 5.47499 6.1353 5.78422 5.88581L6.24931 5.51056Z" fill="white"/>
<path d="M5.61778 5.4577C5.61856 5.07595 5.4886 4.70554 5.24972 4.40861L5.19309 4.33823C5.11683 4.24346 4.97311 4.24317 4.89648 4.33762L4.83057 4.41886C4.5963 4.70763 4.46804 5.06855 4.46728 5.44107L4.46631 5.92239C4.46556 6.29377 4.69098 6.62899 5.03358 6.76851C5.05528 6.77735 5.0797 6.77701 5.1011 6.76752C5.41394 6.62876 5.61604 6.3179 5.61674 5.97438L5.61778 5.4577Z" fill="white"/>
<path d="M8.69995 3.70184C9.05027 3.61003 9.42135 3.64206 9.75095 3.79252L9.82908 3.8282C9.93429 3.87622 9.96886 4.00932 9.90042 4.10286L9.84156 4.18331C9.63235 4.46925 9.33161 4.67424 8.98978 4.76381L8.54812 4.87959C8.20733 4.96891 7.84576 4.84005 7.6359 4.55591C7.62262 4.53793 7.6171 4.51522 7.62071 4.49312C7.67343 4.17016 7.91062 3.90873 8.22584 3.82612L8.69995 3.70184Z" fill="white"/>
<path d="M8.24413 3.44911C8.37241 3.16323 8.3989 2.84172 8.31918 2.53855L8.30026 2.46668C8.27482 2.36991 8.16718 2.32116 8.07815 2.3661L8.00158 2.40475C7.72941 2.54211 7.51255 2.76932 7.38738 3.04827L7.22565 3.4087C7.10088 3.68682 7.1577 4.01416 7.36783 4.23438C7.38113 4.24832 7.39954 4.25631 7.41877 4.25642C7.69965 4.25804 7.95511 4.09325 8.07053 3.83601L8.24413 3.44911Z" fill="white"/>
<path d="M10.8784 2.59454C11.2116 2.63337 11.5214 2.78614 11.7558 3.02724L11.8114 3.08439C11.8862 3.16135 11.8716 3.28795 11.7812 3.34565L11.7035 3.39529C11.4272 3.57169 11.099 3.6473 10.7739 3.60941L10.3538 3.56046C10.0296 3.52269 9.7604 3.28949 9.67411 2.97334C9.66865 2.95333 9.67147 2.93185 9.68197 2.91398C9.83541 2.65286 10.1276 2.50705 10.4275 2.54199L10.8784 2.59454Z" fill="white"/>
<path d="M10.5691 2.22266C10.7754 2.01903 10.9057 1.7503 10.9382 1.46159L10.9459 1.39314C10.9562 1.30098 10.8796 1.2226 10.7877 1.23139L10.7086 1.23894C10.4277 1.26579 10.1644 1.3889 9.96315 1.5876L9.70304 1.84435C9.50234 2.04245 9.44205 2.34432 9.54993 2.60537C9.55677 2.62189 9.57 2.635 9.58657 2.64158C9.82861 2.73768 10.1043 2.68151 10.2899 2.49826L10.5691 2.22266Z" fill="white"/>
<path d="M27.0083 4.71791C26.6107 4.58365 26.1793 4.59082 25.7865 4.73824L25.6932 4.77317C25.5679 4.82022 25.5173 4.97127 25.589 5.08487L25.6506 5.18258C25.8697 5.52986 26.2009 5.79091 26.5888 5.92191L27.0899 6.09119C27.4766 6.22181 27.9048 6.10194 28.17 5.79044C28.1867 5.77072 28.1949 5.74493 28.1926 5.71909C28.1572 5.34161 27.904 5.02043 27.5463 4.89962L27.0083 4.71791Z" fill="white"/>
<path d="M27.5549 4.46244C27.4294 4.12175 27.4245 3.74807 27.5408 3.40409L27.5683 3.32256C27.6054 3.21276 27.7336 3.16509 27.833 3.22417L27.9185 3.27499C28.222 3.4556 28.4546 3.73562 28.5769 4.06807L28.7352 4.49761C28.8573 4.82904 28.7655 5.20279 28.5052 5.44041C28.4886 5.45545 28.4667 5.4632 28.4446 5.46179C28.1197 5.44106 27.8376 5.2301 27.7247 4.92353L27.5549 4.46244Z" fill="white"/>
<path d="M24.7941 2.89403C24.4356 2.73554 24.0338 2.70574 23.6559 2.80962L23.5664 2.83424C23.4458 2.86741 23.3861 3.0036 23.4432 3.11532L23.4924 3.21141C23.6671 3.55293 23.9533 3.82374 24.303 3.97838L24.7549 4.17821C25.1037 4.33239 25.5119 4.25711 25.7847 3.9898C25.8019 3.97288 25.8118 3.94958 25.8116 3.92535C25.8105 3.57131 25.6018 3.25116 25.2793 3.10854L24.7941 2.89403Z" fill="white"/>
<path d="M25.3239 2.70268C25.2358 2.3752 25.2625 2.02723 25.3995 1.71714L25.432 1.64364C25.4757 1.54465 25.599 1.51116 25.6863 1.57451L25.7616 1.629C26.0289 1.82265 26.2217 2.10276 26.3076 2.4223L26.4188 2.83519C26.5045 3.15377 26.3879 3.49362 26.1258 3.69261C26.1092 3.70522 26.0882 3.71057 26.0677 3.70737C25.7673 3.66064 25.5226 3.44057 25.4433 3.14589L25.3239 2.70268Z" fill="white"/>
<path d="M22.3915 1.78897C22.0504 1.76567 21.7117 1.86094 21.4322 2.05881L21.3659 2.10571C21.2766 2.16887 21.2679 2.29849 21.3477 2.3732L21.4164 2.43745C21.6606 2.66584 21.9757 2.80292 22.3085 2.82564L22.7386 2.85503C23.0705 2.87771 23.3834 2.69424 23.5285 2.3935C23.5376 2.37446 23.5389 2.35242 23.5316 2.33254C23.4261 2.04217 23.1602 1.84149 22.8532 1.8205L22.3915 1.78897Z" fill="white"/>
<path d="M22.7699 1.47395C22.6008 1.23133 22.52 0.93767 22.5408 0.642246L22.5457 0.572208C22.5524 0.477914 22.6437 0.413672 22.7343 0.439636L22.8121 0.461968C23.0887 0.541341 23.3297 0.713873 23.4947 0.950616L23.7079 1.25651C23.8724 1.49253 23.877 1.80634 23.7205 2.04783C23.7106 2.06312 23.695 2.07378 23.6772 2.07728C23.4168 2.12841 23.1509 2.02062 22.9987 1.80231L22.7699 1.47395Z" fill="white"/>
</svg>
