<svg width="35" height="35" viewBox="0 0 35 35" fill="none" xmlns="http://www.w3.org/2000/svg">
<circle cx="17.5" cy="17.5" r="17.5" fill="white"/>
<path d="M7 8.3999L17.5 9.0999L28 8.3999V27.9999H7V8.3999Z" fill="#FCBE62"/>
<path d="M12.0714 21.6856L12.7507 21.214L12.0853 20.1752L12.7507 19.1363L12.0714 18.6647L11.5946 19.4091L11.1178 18.6647L10.4385 19.1363L11.1039 20.1752L10.4385 21.214L11.1178 21.6856L11.5946 20.9412L12.0714 21.6856Z" fill="#0A69AE"/>
<path d="M13.4693 14.8803L12.8912 14.2799L11.5451 15.6782L11.0165 15.1292L10.4385 15.7296L11.5451 16.879L13.4693 14.8803Z" fill="#0A69AE"/>
<path d="M13.4693 23.7003L12.8912 23.0999L11.5451 24.4981L11.0165 23.9491L10.4385 24.5495L11.5451 25.699L13.4693 23.7003Z" fill="#0A69AE"/>
<path fill-rule="evenodd" clip-rule="evenodd" d="M14.8436 19.3955L23.4518 19.3955C23.8805 19.3955 24.228 19.5539 24.228 20.045C24.228 20.5362 23.8805 20.7563 23.4518 20.7563H14.8436C14.4149 20.7563 14.0674 20.5362 14.0674 20.045C14.0674 19.5539 14.4149 19.3955 14.8436 19.3955Z" fill="#0A69AE"/>
<path d="M24.228 15.5652C24.228 15.1893 23.8441 14.8848 23.3706 14.8848H14.9248C14.4513 14.8848 14.0674 15.1893 14.0674 15.5652C14.0674 15.941 14.4513 16.2456 14.9248 16.2456H23.3706C23.8441 16.2456 24.228 15.941 24.228 15.5652Z" fill="#0A69AE"/>
<path d="M24.228 24.5868C24.228 24.2109 23.8441 23.9064 23.3706 23.9064H14.9248C14.4513 23.9064 14.0674 24.2109 14.0674 24.5868C14.0674 24.9626 14.4513 25.2672 14.9248 25.2672H23.3706C23.8441 25.2672 24.228 24.9626 24.228 24.5868Z" fill="#0A69AE"/>
<path d="M8.4564 29.4C7.92253 29.4 7.48107 29.2215 7.132 28.8645C6.78293 28.5075 6.6084 28.056 6.6084 27.51V8.60995C6.6084 8.06395 6.78293 7.61245 7.132 7.25545C7.48107 6.89845 7.92253 6.71995 8.4564 6.71995H14.678C14.8217 5.98495 15.1759 5.3812 15.7406 4.9087C16.3053 4.4362 16.9572 4.19995 17.6964 4.19995C18.4356 4.19995 19.0875 4.4362 19.6522 4.9087C20.2169 5.3812 20.5711 5.98495 20.7148 6.71995H26.9364C27.4703 6.71995 27.9117 6.89845 28.2608 7.25545C28.6099 7.61245 28.7844 8.06395 28.7844 8.60995V27.51C28.7844 28.056 28.6099 28.5075 28.2608 28.8645C27.9117 29.2215 27.4703 29.4 26.9364 29.4H8.4564ZM8.4564 27.51H26.9364V8.60995H25.0884V11.445H10.3044V8.60995H8.4564V27.51ZM17.6964 8.60995C18.0455 8.60995 18.3381 8.4892 18.5742 8.2477C18.8103 8.0062 18.9284 7.70695 18.9284 7.34995C18.9284 6.99295 18.8103 6.6937 18.5742 6.4522C18.3381 6.2107 18.0455 6.08995 17.6964 6.08995C17.3473 6.08995 17.0547 6.2107 16.8186 6.4522C16.5825 6.6937 16.4644 6.99295 16.4644 7.34995C16.4644 7.70695 16.5825 8.0062 16.8186 8.2477C17.0547 8.4892 17.3473 8.60995 17.6964 8.60995Z" fill="#0A69AE"/>
</svg>
