<svg width="69" height="68" viewBox="0 0 69 68" fill="none" xmlns="http://www.w3.org/2000/svg">
<circle cx="34.1719" cy="34" r="34" fill="white"/>
<path d="M13.7695 16.3203L34.1695 17.6803L54.5695 16.3203V54.4003H13.7695V16.3203Z" fill="#FCBE62"/>
<path d="M23.6218 42.133L24.9416 41.2167L23.6488 39.1983L24.9416 37.18L23.6218 36.2637L22.6954 37.71L21.769 36.2637L20.4492 37.18L21.7421 39.1983L20.4492 41.2167L21.769 42.133L22.6954 40.6867L23.6218 42.133Z" fill="#0A69AE"/>
<path d="M26.3376 28.9107L25.2145 27.7441L22.5992 30.4608L21.5722 29.3941L20.4492 30.5606L22.5992 32.7939L26.3376 28.9107Z" fill="#0A69AE"/>
<path d="M26.3376 46.0474L25.2145 44.8809L22.5992 47.5975L21.5722 46.5308L20.4492 47.6974L22.5992 49.9306L26.3376 46.0474Z" fill="#0A69AE"/>
<path fill-rule="evenodd" clip-rule="evenodd" d="M29.008 37.6836L45.7327 37.6836C46.5655 37.6836 47.2407 37.9914 47.2407 38.9456C47.2407 39.8998 46.5655 40.3275 45.7327 40.3275H29.008C28.1752 40.3275 27.5 39.8998 27.5 38.9456C27.5 37.9914 28.1752 37.6836 29.008 37.6836Z" fill="#0A69AE"/>
<path d="M47.2407 30.2418C47.2407 29.5116 46.4948 28.9199 45.5749 28.9199H29.1658C28.2458 28.9199 27.5 29.5116 27.5 30.2418C27.5 30.9721 28.2458 31.5638 29.1658 31.5638H45.5749C46.4948 31.5638 47.2407 30.9721 47.2407 30.2418Z" fill="#0A69AE"/>
<path d="M47.2407 47.7692C47.2407 47.039 46.4948 46.4473 45.5749 46.4473H29.1658C28.2458 46.4473 27.5 47.039 27.5 47.7692C27.5 48.4994 28.2458 49.0911 29.1658 49.0911H45.5749C46.4948 49.0911 47.2407 48.4994 47.2407 47.7692Z" fill="#0A69AE"/>
<path d="M16.6021 57.1202C15.5649 57.1202 14.7072 56.7734 14.029 56.0798C13.3508 55.3862 13.0117 54.509 13.0117 53.4482V16.7282C13.0117 15.6674 13.3508 14.7902 14.029 14.0966C14.7072 13.403 15.5649 13.0562 16.6021 13.0562H28.6898C28.9691 11.6282 29.6572 10.4552 30.7543 9.53716C31.8513 8.61916 33.118 8.16016 34.5541 8.16016C35.9903 8.16016 37.2569 8.61916 38.354 9.53716C39.451 10.4552 40.1392 11.6282 40.4184 13.0562H52.5061C53.5433 13.0562 54.4011 13.403 55.0792 14.0966C55.7574 14.7902 56.0965 15.6674 56.0965 16.7282V53.4482C56.0965 54.509 55.7574 55.3862 55.0792 56.0798C54.4011 56.7734 53.5433 57.1202 52.5061 57.1202H16.6021ZM16.6021 53.4482H52.5061V16.7282H48.9157V22.2362H20.1925V16.7282H16.6021V53.4482ZM34.5541 16.7282C35.2323 16.7282 35.8008 16.4936 36.2596 16.0244C36.7183 15.5552 36.9477 14.9738 36.9477 14.2802C36.9477 13.5866 36.7183 13.0052 36.2596 12.536C35.8008 12.0668 35.2323 11.8322 34.5541 11.8322C33.8759 11.8322 33.3075 12.0668 32.8487 12.536C32.3899 13.0052 32.1605 13.5866 32.1605 14.2802C32.1605 14.9738 32.3899 15.5552 32.8487 16.0244C33.3075 16.4936 33.8759 16.7282 34.5541 16.7282Z" fill="#0A69AE"/>
</svg>
