<svg width="40" height="40" viewBox="0 0 40 40" fill="none" xmlns="http://www.w3.org/2000/svg">
<path d="M20.0018 11.3242L31.82 16.0642L20.0018 20.7737L11.1836 17.2492C10.6381 17.705 10.2442 18.4342 10.1836 19.2546H10.3957C10.6381 19.2546 10.82 19.4369 10.82 19.68V20.8042C10.82 21.0473 10.6381 21.2296 10.3957 21.2296H10.2442L10.82 27.1242C10.8503 27.3673 10.6684 27.5799 10.426 27.5799H9.36541C9.12299 27.5799 8.94118 27.3673 8.94118 27.1242L9.54723 21.2296H9.39572C9.15328 21.2296 8.94118 21.0473 8.94118 20.8042V19.68C8.94118 19.4369 9.15328 19.2546 9.39572 19.2546H9.72905C9.78965 18.3734 10.1836 17.6138 10.729 17.0669L8.18359 16.0642L20.0018 11.3242ZM19.6685 21.6245L20.0018 21.7461L20.3351 21.6245L26.82 19.0115L27.3049 24.3896C27.3351 24.7542 27.0927 24.9061 26.7594 24.7542L24.214 23.4477C23.8805 23.2654 23.3351 23.2957 23.0321 23.478L20.5776 24.8756C20.2745 25.0581 19.7291 25.0581 19.426 24.8756L16.9715 23.478C16.6684 23.2957 16.123 23.2654 15.82 23.4477L13.2442 24.7542C12.9109 24.9365 12.6684 24.7542 12.6987 24.3896L13.1836 19.0115L19.6685 21.6245Z" fill="#FFCC18"/>
<path d="M6.81761 29.6102C6.6937 29.0549 6.76363 28.4739 7.01566 27.9643L7.07543 27.8436C7.15588 27.6809 7.36488 27.6339 7.50675 27.7464L7.62879 27.8432C8.0625 28.1873 8.36521 28.6708 8.48613 29.2125L8.64237 29.9125C8.76292 30.4525 8.54279 31.0135 8.08919 31.3276C8.06048 31.3475 8.02484 31.355 7.99064 31.3481C7.49086 31.2478 7.09684 30.8611 6.98533 30.3616L6.81761 29.6102Z" fill="#828282"/>
<path d="M6.40071 30.3115C5.96272 30.0945 5.4638 30.0355 4.98762 30.1444L4.87472 30.1701C4.72274 30.2048 4.64107 30.3712 4.70616 30.5135L4.76216 30.6359C4.9612 31.0707 5.30309 31.4238 5.73045 31.6355L6.28267 31.9089C6.70872 32.1201 7.22129 32.0485 7.57542 31.7305C7.59783 31.7102 7.61127 31.6817 7.61249 31.6516C7.6302 31.2105 7.38758 30.8004 6.99347 30.6052L6.40071 30.3115Z" fill="#828282"/>
<path d="M9.21556 31.604C9.10947 31.0451 9.19796 30.4666 9.46618 29.9654L9.52978 29.8467C9.61538 29.6867 9.8258 29.6464 9.964 29.7634L10.0829 29.8642C10.5053 30.2221 10.7924 30.715 10.8959 31.2604L11.0297 31.9651C11.1329 32.5088 10.8949 33.0622 10.4315 33.3616C10.4022 33.3806 10.3663 33.387 10.3323 33.379C9.83604 33.2626 9.4546 32.8633 9.35913 32.3605L9.21556 31.604Z" fill="#828282"/>
<path d="M8.77422 32.2919C8.3434 32.0608 7.84661 31.9858 7.36721 32.0791L7.25356 32.1012C7.10052 32.131 7.01356 32.2948 7.07409 32.4391L7.12614 32.5631C7.31114 33.0042 7.64156 33.3681 8.06194 33.5934L8.60511 33.8846C9.0242 34.1094 9.53878 34.0544 9.90291 33.748C9.92596 33.7286 9.94029 33.7005 9.94247 33.6703C9.97431 33.2302 9.74492 32.8123 9.35727 32.6044L8.77422 32.2919Z" fill="#828282"/>
<path d="M34.0403 28.3256C34.1711 27.772 34.1083 27.19 33.8625 26.6775L33.8042 26.5559C33.7258 26.3924 33.5174 26.3427 33.3742 26.4534L33.2509 26.5488C32.8131 26.8874 32.5043 27.3672 32.3769 27.9073L32.2122 28.6054C32.0849 29.1438 32.2982 29.7075 32.748 30.0273C32.7763 30.0474 32.812 30.0554 32.8462 30.0488C33.3473 29.9548 33.746 29.573 33.8634 29.0748L34.0403 28.3256Z" fill="#828282"/>
<path d="M34.4511 29.0321C34.8916 28.8206 35.3913 28.7678 35.8662 28.8825L35.9787 28.9097C36.1302 28.9463 36.2098 29.1136 36.1431 29.2551L36.0855 29.3768C35.8813 29.8093 35.5351 30.1579 35.1051 30.3643L34.5496 30.631C34.1209 30.8367 33.6093 30.7589 33.2591 30.4365C33.2369 30.416 33.2238 30.3874 33.2231 30.3572C33.2107 29.9159 33.4584 29.5088 33.8547 29.3185L34.4511 29.0321Z" fill="#828282"/>
<path d="M31.7854 31.0045C31.9005 30.4475 31.8214 29.8676 31.5614 29.3622L31.4998 29.2424C31.4169 29.0811 31.2071 29.0372 31.0671 29.1521L30.9465 29.2508C30.5183 29.6016 30.2232 30.0898 30.1109 30.6334L29.9656 31.3359C29.8536 31.8778 30.0825 32.435 30.5409 32.7421C30.57 32.7614 30.6058 32.7684 30.6398 32.7609C31.138 32.6528 31.5258 32.2599 31.6294 31.7585L31.7854 31.0045Z" fill="#828282"/>
<path d="M32.2118 31.6995C32.6464 31.4755 33.1444 31.4087 33.6222 31.5099L33.7355 31.534C33.8878 31.5661 33.9722 31.7312 33.9093 31.8746L33.8553 31.9977C33.6631 32.4359 33.3268 32.7941 32.9028 33.0125L32.3549 33.2949C31.9322 33.5126 31.4188 33.4492 31.0597 33.1369C31.0369 33.117 31.0229 33.0889 31.0213 33.0585C30.9966 32.6178 31.2328 32.2039 31.6238 32.0025L32.2118 31.6995Z" fill="#828282"/>
<path d="M4.99636 26.6791C5.01069 26.1103 5.21932 25.5638 5.58725 25.1313L5.67447 25.0287C5.7919 24.8906 6.00605 24.896 6.11638 25.04L6.21127 25.1636C6.54858 25.6034 6.72503 26.1463 6.71105 26.7013L6.693 27.4184C6.67905 27.9718 6.32963 28.4619 5.81356 28.6559C5.78089 28.6681 5.74452 28.6666 5.713 28.6515C5.25256 28.4321 4.96409 27.9607 4.97698 27.4489L4.99636 26.6791Z" fill="#828282"/>
<path d="M4.41945 27.2573C4.04721 26.9398 3.57758 26.7607 3.08938 26.7497L2.97363 26.7471C2.8178 26.7437 2.69825 26.885 2.72692 27.039L2.7516 27.1712C2.83927 27.6417 3.08534 28.0677 3.44858 28.3775L3.91789 28.7778C4.28001 29.0869 4.79447 29.1427 5.21503 28.9208C5.24165 28.9068 5.26158 28.8825 5.27007 28.8534C5.39414 28.4299 5.2582 27.9729 4.92323 27.687L4.41945 27.2573Z" fill="#828282"/>
<path d="M36.7409 21.3022C36.5629 20.7621 36.2053 20.3 35.7282 19.9934L35.6151 19.9207C35.4629 19.8228 35.2596 19.8905 35.1954 20.0602L35.1405 20.2063C34.9447 20.7256 34.9327 21.2966 35.1065 21.8237L35.3311 22.5046C35.5043 23.0301 35.9803 23.3972 36.5302 23.4323C36.5649 23.4345 36.5993 23.4224 36.6251 23.3989C37.0023 23.0546 37.1422 22.5194 36.982 22.0334L36.7409 21.3022Z" fill="#828282"/>
<path d="M37.4607 21.688C37.7253 21.2756 38.1227 20.9671 38.5869 20.8142L38.6969 20.778C38.8449 20.7293 39.0002 20.8297 39.0173 20.9853L39.032 21.1192C39.084 21.595 38.9717 22.0745 38.7135 22.4768L38.38 22.9968C38.1227 23.3979 37.6467 23.6016 37.18 23.5117C37.1506 23.5061 37.1244 23.4885 37.108 23.4633C36.8669 23.0942 36.8649 22.6171 37.1027 22.2462L37.4607 21.688Z" fill="#828282"/>
<path d="M11.8707 33.6323C11.6016 33.1317 11.512 32.5534 11.6171 31.9943L11.642 31.8617C11.6755 31.6833 11.864 31.581 12.0309 31.6508L12.1745 31.7107C12.6848 31.9236 13.1067 32.3066 13.3693 32.7951L13.7087 33.4263C13.9705 33.9132 13.91 34.513 13.5583 34.939C13.536 34.966 13.5037 34.9828 13.4689 34.9856C12.9608 35.0252 12.4772 34.7603 12.235 34.3099L11.8707 33.6323Z" fill="#828282"/>
<path d="M11.6586 34.4216C11.1784 34.3321 10.6823 34.4112 10.2533 34.6457L10.1516 34.7013C10.0147 34.7761 9.981 34.9586 10.0821 35.0777L10.169 35.1803C10.478 35.5447 10.9023 35.7913 11.3708 35.8786L11.9762 35.9915C12.4433 36.0784 12.9173 35.87 13.1723 35.4673C13.1885 35.4419 13.1937 35.4109 13.1867 35.3814C13.0847 34.952 12.7404 34.6233 12.3084 34.5427L11.6586 34.4216Z" fill="#828282"/>
<path d="M28.7993 32.5623C29.0078 32.0334 29.0289 31.4483 28.8589 30.9057L28.8185 30.7769C28.7643 30.6038 28.5651 30.5245 28.4076 30.6134L28.272 30.69C27.7902 30.9619 27.4163 31.3923 27.2129 31.9084L26.95 32.5755C26.7471 33.09 26.8776 33.6785 27.2769 34.0598C27.3022 34.0839 27.3363 34.0969 27.3711 34.0955C27.8803 34.0746 28.3296 33.7543 28.5171 33.2783L28.7993 32.5623Z" fill="#828282"/>
<path d="M29.1047 33.3208C29.5709 33.1748 30.0729 33.1947 30.5265 33.3767L30.634 33.4198C30.7787 33.4778 30.8336 33.655 30.7472 33.7854L30.6729 33.8974C30.4089 34.2959 30.0165 34.5911 29.5614 34.7334L28.9736 34.9171C28.52 35.0588 28.0249 34.9082 27.7243 34.5385C27.7052 34.5151 27.6965 34.4848 27.7 34.4548C27.7509 34.0163 28.054 33.6492 28.4736 33.518L29.1047 33.3208Z" fill="#828282"/>
<path d="M15.0372 35.0237C14.6311 34.627 14.3733 34.102 14.3068 33.5371L14.2911 33.403C14.2699 33.2228 14.4192 33.0684 14.5993 33.0847L14.7541 33.0987C15.3046 33.1484 15.8212 33.3868 16.2174 33.7738L16.7293 34.2741C17.1243 34.6598 17.2454 35.2503 17.0368 35.7627C17.0236 35.7952 16.9978 35.8209 16.9654 35.8339C16.4925 36.0246 15.952 35.9174 15.5867 35.5605L15.0372 35.0237Z" fill="#828282"/>
<path d="M15.0718 35.8407C14.5871 35.8997 14.1372 36.1245 13.7979 36.4772L13.7174 36.5608C13.6091 36.6733 13.6313 36.8576 13.7633 36.9409L13.8768 37.0125C14.2802 37.2673 14.7586 37.3749 15.2316 37.3172L15.8428 37.2428C16.3144 37.1853 16.7046 36.8439 16.8278 36.3829C16.8356 36.3539 16.8314 36.3227 16.816 36.2967C16.5906 35.9177 16.1642 35.7077 15.728 35.7608L15.0718 35.8407Z" fill="#828282"/>
<path d="M26.0204 34.3825C26.2562 33.865 26.3077 33.282 26.1662 32.7312L26.1328 32.6006C26.0875 32.4247 25.8928 32.335 25.7308 32.4156L25.5915 32.485C25.0962 32.7312 24.7002 33.1412 24.4702 33.6459L24.173 34.2981C23.9435 34.8013 24.0432 35.396 24.4221 35.7978C24.4461 35.8232 24.4793 35.8378 24.5142 35.8384C25.0239 35.8442 25.4892 35.548 25.7013 35.0826L26.0204 34.3825Z" fill="#828282"/>
<path d="M26.2839 35.1557C26.757 35.0346 27.2574 35.0808 27.7006 35.2865L27.8059 35.3353C27.9474 35.4008 27.9928 35.5806 27.8999 35.7062L27.8199 35.8143C27.5354 36.1983 27.1281 36.4724 26.6663 36.5904L26.0697 36.7431C25.6094 36.8607 25.1226 36.6841 24.8419 36.2991C24.8241 36.2748 24.8168 36.2441 24.8219 36.2143C24.8955 35.7791 25.2175 35.4284 25.6434 35.3195L26.2839 35.1557Z" fill="#828282"/>
<path d="M18.0269 35.8823C17.6048 35.5028 17.3256 34.9892 17.2359 34.4273L17.2146 34.2942C17.186 34.1148 17.3288 33.9545 17.5094 33.9632L17.6647 33.9709C18.2166 33.9976 18.7428 34.2142 19.1546 34.5844L19.6866 35.063C20.0972 35.4319 20.2426 36.0169 20.0554 36.5375C20.0434 36.5704 20.0188 36.5972 19.987 36.6116C19.5223 36.8219 18.9779 36.7373 18.5981 36.3957L18.0269 35.8823Z" fill="#828282"/>
<path d="M18.0927 36.6973C17.6107 36.7764 17.1706 37.0197 16.846 37.3863L16.7691 37.4732C16.6655 37.5903 16.6953 37.7733 16.8306 37.8511L16.947 37.918C17.3606 38.1556 17.843 38.2433 18.3132 38.166L18.9208 38.0661C19.3897 37.9892 19.7654 37.6318 19.8695 37.166C19.8761 37.1366 19.8706 37.1055 19.8541 37.0803C19.6134 36.711 19.1786 36.5189 18.745 36.5901L18.0927 36.6973Z" fill="#828282"/>
<path d="M23.2625 36.4405C23.8109 36.5828 24.294 36.9101 24.6305 37.3677L24.7103 37.4762C24.8178 37.6223 24.7643 37.8307 24.5998 37.9061L24.4585 37.9711C23.956 38.2022 23.3896 38.2526 22.8545 38.1138L22.1631 37.9346C21.6296 37.7962 21.2329 37.3437 21.1613 36.7951C21.1567 36.7602 21.1663 36.7249 21.188 36.6975C21.5047 36.2964 22.0269 36.1202 22.5203 36.2482L23.2625 36.4405Z" fill="#828282"/>
<path d="M22.8308 35.7473C23.2226 35.4545 23.5022 35.0352 23.623 34.5599L23.6515 34.4472C23.69 34.2954 23.5797 34.1466 23.424 34.14L23.29 34.1342C22.814 34.1141 22.3455 34.2589 21.9631 34.5446L21.4691 34.9137C21.0879 35.1985 20.9177 35.6894 21.0382 36.151C21.0459 36.1802 21.065 36.2052 21.0911 36.2202C21.4739 36.437 21.9479 36.4069 22.3004 36.1435L22.8308 35.7473Z" fill="#828282"/>
<path d="M3.56452 23.4515C3.63386 22.8867 3.89443 22.3632 4.30248 21.9687L4.39923 21.8752C4.52948 21.7492 4.74206 21.7755 4.83795 21.9295L4.92041 22.0619C5.21352 22.5326 5.33657 23.0902 5.26892 23.6412L5.18148 24.3532C5.11403 24.9024 4.71881 25.3563 4.18641 25.4988C4.1527 25.5077 4.11665 25.5026 4.08674 25.4847C3.64974 25.2211 3.40828 24.7238 3.47066 24.2157L3.56452 23.4515Z" fill="#828282"/>
<path d="M2.93383 23.9708C2.59411 23.6184 2.14407 23.3941 1.65923 23.3355L1.54429 23.3216C1.38953 23.303 1.25686 23.4321 1.2705 23.5881L1.28223 23.7222C1.32391 24.1991 1.52759 24.6469 1.85909 24.9908L2.28742 25.4352C2.61789 25.7781 3.12451 25.884 3.56456 25.7041C3.59242 25.6928 3.61461 25.6705 3.62587 25.6425C3.79034 25.2332 3.69932 24.7649 3.39362 24.4478L2.93383 23.9708Z" fill="#828282"/>
<path d="M3.12405 20.2341C3.42646 19.753 3.88437 19.3912 4.42095 19.2091L4.54817 19.1658C4.71944 19.1077 4.90055 19.2226 4.92194 19.4031L4.94032 19.5581C5.00566 20.1094 4.88026 20.6665 4.58519 21.1359L4.2039 21.7424C3.90972 22.2104 3.35963 22.4515 2.81757 22.3523C2.78324 22.3461 2.75279 22.326 2.73339 22.297C2.44994 21.8714 2.44265 21.3181 2.71477 20.8853L3.12405 20.2341Z" fill="#828282"/>
<path d="M2.33669 20.4348C2.17898 19.9705 1.86711 19.5749 1.45342 19.3141L1.35534 19.2523C1.22329 19.1692 1.0485 19.2291 0.994626 19.376L0.94829 19.5024C0.78359 19.9515 0.77769 20.4439 0.931577 20.8971L1.13041 21.4823C1.28383 21.934 1.69709 22.2468 2.17145 22.2728C2.20147 22.2744 2.23102 22.2637 2.25309 22.2432C2.57562 21.9435 2.69205 21.4808 2.55013 21.0631L2.33669 20.4348Z" fill="#828282"/>
<path d="M35.7929 25.2403C35.7902 24.6713 35.5925 24.1206 35.2334 23.6806L35.1483 23.5763C35.0338 23.4359 34.8196 23.437 34.7063 23.5785L34.6089 23.7004C34.2629 24.1332 34.0754 24.6724 34.0782 25.2275L34.0816 25.9449C34.0845 26.4984 34.4238 26.9955 34.936 27.1999C34.9683 27.2129 35.0047 27.2121 35.0365 27.1977C35.5012 26.9877 35.7992 26.5223 35.7967 26.0103L35.7929 25.2403Z" fill="#828282"/>
<path d="M36.3554 25.8302C36.734 25.5204 37.2072 25.3507 37.6954 25.3498L37.8112 25.3496C37.9672 25.3492 38.0838 25.4932 38.052 25.6464L38.0247 25.7783C37.9276 26.2468 37.6729 26.6676 37.3034 26.9701L36.8262 27.3606C36.4578 27.6621 35.9423 27.7076 35.5263 27.4771C35.5 27.4625 35.4805 27.4376 35.4727 27.4086C35.3572 26.9827 35.5023 26.5284 35.8431 26.2495L36.3554 25.8302Z" fill="#828282"/>
<path d="M3.17032 16.5436C3.62037 16.1982 4.17499 16.0188 4.74112 16.0355L4.87534 16.0394C5.05605 16.0448 5.18608 16.2158 5.1437 16.3923L5.10727 16.5442C4.97772 17.0839 4.66734 17.5624 4.22817 17.8994L3.66076 18.335C3.22294 18.671 2.62372 18.7048 2.14981 18.4226C2.11981 18.4047 2.09818 18.3753 2.09007 18.3412C1.97158 17.8433 2.15625 17.3219 2.56123 17.0111L3.17032 16.5436Z" fill="#828282"/>
<path d="M2.3612 16.4559C2.37404 15.9655 2.21858 15.4856 1.92091 15.0967L1.85035 15.0045C1.75533 14.8803 1.57071 14.8755 1.46934 14.9944L1.38215 15.0967C1.07226 15.4603 0.896286 15.92 0.883766 16.3985L0.867589 17.0168C0.855108 17.4938 1.13429 17.9315 1.57009 18.1215C1.59768 18.1335 1.62906 18.1338 1.65686 18.1223C2.06304 17.9539 2.33229 17.5608 2.34384 17.1196L2.3612 16.4559Z" fill="#828282"/>
<path d="M36.9808 17.6727C36.7162 17.1696 36.2875 16.7732 35.7664 16.5501L35.6429 16.4972C35.4766 16.426 35.2871 16.5265 35.252 16.7046L35.2218 16.8578C35.1142 17.4024 35.1966 17.9675 35.4546 18.4584L35.7882 19.0927C36.0455 19.582 36.5755 19.8651 37.1235 19.8083C37.1582 19.8047 37.19 19.7871 37.2117 19.7596C37.5269 19.3574 37.5768 18.8063 37.3388 18.3535L36.9808 17.6727Z" fill="#828282"/>
<path d="M37.7539 17.9336C37.9468 17.4829 38.2881 17.1126 38.7206 16.8848L38.8232 16.8308C38.9612 16.7581 39.131 16.8314 39.1733 16.9821L39.2099 17.1117C39.3395 17.5723 39.3075 18.0637 39.1193 18.5033L38.8761 19.0716C38.6884 19.5099 38.2524 19.7899 37.7775 19.779C37.7473 19.7782 37.7188 19.7653 37.6983 19.7432C37.3997 19.4193 37.3192 18.949 37.4928 18.5435L37.7539 17.9336Z" fill="#828282"/>
<path d="M36.329 14.0287C35.9312 13.6238 35.4068 13.3685 34.8439 13.3059L34.7105 13.2911C34.5308 13.2711 34.3783 13.4222 34.3959 13.603L34.411 13.7585C34.4645 14.311 34.7056 14.8283 35.0937 15.2235L35.5952 15.7341C35.9823 16.128 36.5708 16.2454 37.0794 16.0321C37.1116 16.0186 37.137 15.9925 37.1497 15.9599C37.3361 15.4834 37.2254 14.9413 36.8676 14.5769L36.329 14.0287Z" fill="#828282"/>
<path d="M37.1405 14.055C37.1958 13.5676 37.4161 13.1141 37.7649 12.7706L37.8474 12.6892C37.9587 12.5796 38.1423 12.6005 38.2261 12.7325L38.2983 12.846C38.5549 13.2494 38.6654 13.7292 38.6114 14.2048L38.5418 14.8193C38.4881 15.2935 38.1511 15.6879 37.6931 15.815C37.6641 15.8231 37.6331 15.819 37.6071 15.8037C37.2281 15.5801 37.016 15.1533 37.0658 14.7147L37.1405 14.055Z" fill="#828282"/>
<path d="M34.9048 10.9037C34.423 10.6046 33.8533 10.4812 33.2917 10.5541L33.1586 10.5714C32.9793 10.5946 32.8666 10.7777 32.9262 10.9492L32.9775 11.0967C33.1595 11.6209 33.5155 12.0662 33.9857 12.358L34.5931 12.7349C35.062 13.0258 35.6617 13 36.1053 12.6719C36.1335 12.6512 36.152 12.6198 36.1568 12.5851C36.2257 12.0778 35.9906 11.5774 35.557 11.3083L34.9048 10.9037Z" fill="#828282"/>
<path d="M35.7042 10.7359C35.6431 10.2492 35.7506 9.7562 36.0084 9.33963L36.0697 9.24087C36.152 9.10791 36.3351 9.08471 36.4479 9.193L36.5446 9.28614C36.8888 9.61717 37.1091 10.0571 37.1688 10.532L37.2457 11.1456C37.3051 11.6191 37.0704 12.0824 36.6555 12.3147C36.6291 12.3294 36.598 12.3329 36.5693 12.3242C36.1484 12.1969 35.8419 11.8326 35.7868 11.3946L35.7042 10.7359Z" fill="#828282"/>
<path d="M33.2723 7.80917C32.7888 7.51282 32.2185 7.39253 31.6572 7.46849L31.5241 7.4865C31.345 7.51076 31.2334 7.69444 31.2939 7.86559L31.3459 8.01276C31.5308 8.53594 31.8892 8.97932 32.361 9.26849L32.9707 9.64212C33.441 9.93041 34.0405 9.90131 34.4825 9.57085C34.5105 9.54993 34.5288 9.51843 34.5334 9.48367C34.5996 8.97601 34.3617 8.47691 33.9267 8.21024L33.2723 7.80917Z" fill="#828282"/>
<path d="M34.0689 7.63724C34.0053 7.15086 34.11 6.65729 34.3657 6.2393L34.4262 6.14022C34.5078 6.00681 34.6909 5.98259 34.8042 6.09026L34.9015 6.18286C35.2475 6.51201 35.4702 6.95068 35.5324 7.42526L35.6128 8.03848C35.6748 8.51161 35.4426 8.9762 35.0289 9.21081C35.0028 9.22566 34.9715 9.22928 34.9426 9.22073C34.5211 9.0958 34.2126 8.73315 34.1553 8.29549L34.0689 7.63724Z" fill="#828282"/>
<path d="M4.07803 13.1079C4.56177 12.8119 5.1321 12.6921 5.69334 12.7686L5.82641 12.7867C6.00554 12.8111 6.11695 12.9949 6.05632 13.166L6.00417 13.3131C5.81881 13.8361 5.46001 14.2792 4.98799 14.568L4.3781 14.9411C3.90752 15.2289 3.30806 15.1993 2.86637 14.8685C2.83841 14.8475 2.81997 14.816 2.81546 14.7813C2.74981 14.2736 2.98806 13.7746 3.42335 13.5083L4.07803 13.1079Z" fill="#828282"/>
<path d="M3.28461 12.9351C3.34874 12.4488 3.24441 11.9551 2.98914 11.5369L2.92863 11.4378C2.84714 11.3043 2.66405 11.2799 2.55079 11.3875L2.45337 11.48C2.1071 11.8088 1.88396 12.2473 1.82139 12.7218L1.74053 13.335C1.67814 13.8081 1.90992 14.2728 2.32341 14.5078C2.34957 14.5227 2.38076 14.5263 2.40961 14.5178C2.83117 14.3932 3.1401 14.0309 3.19781 13.5933L3.28461 12.9351Z" fill="#828282"/>
<path d="M5.48067 9.38808C5.95421 9.07595 6.5202 8.93694 7.08369 8.99435L7.21727 9.00797C7.39712 9.02629 7.51465 9.2062 7.45978 9.37924L7.41259 9.52808C7.24487 10.0571 6.90114 10.512 6.43907 10.8166L5.84203 11.2101C5.38136 11.5137 4.78127 11.5044 4.32872 11.1887C4.30007 11.1687 4.2806 11.1379 4.27492 11.1033C4.19227 10.5981 4.41367 10.0914 4.83978 9.81051L5.48067 9.38808Z" fill="#828282"/>
<path d="M4.67991 9.24234C4.72769 8.75412 4.60687 8.26426 4.33773 7.85494L4.27391 7.7579C4.188 7.62725 4.0042 7.60908 3.8946 7.72042L3.80035 7.81618C3.46531 8.15655 3.257 8.60234 3.21037 9.07872L3.15011 9.69425C3.10362 10.1692 3.35086 10.6258 3.77198 10.8467C3.79864 10.8607 3.82991 10.8633 3.85847 10.8538C4.27562 10.715 4.57224 10.3424 4.61524 9.90307L4.67991 9.24234Z" fill="#828282"/>
<path d="M7.14374 6.29785C7.53648 5.98099 8.02576 5.80945 8.52948 5.81204L8.6489 5.81266C8.80968 5.81348 8.92897 5.96269 8.89508 6.12059L8.86594 6.25637C8.76234 6.73905 8.49665 7.17124 8.11341 7.48044L7.61825 7.87995C7.23619 8.18821 6.70414 8.23133 6.27672 7.99058C6.24967 7.97533 6.22979 7.94967 6.22185 7.91953C6.10581 7.47937 6.25881 7.01184 6.61221 6.72671L7.14374 6.29785Z" fill="#828282"/>
<path d="M6.42143 6.23731C6.42233 5.80101 6.2738 5.37769 6.0008 5.03835L5.93607 4.95791C5.84893 4.8496 5.68467 4.84927 5.59709 4.95721L5.52176 5.05005C5.25403 5.38008 5.10745 5.79256 5.10658 6.21829L5.10547 6.76837C5.10462 7.19281 5.36223 7.57592 5.75378 7.73537C5.77858 7.74547 5.80649 7.74509 5.83094 7.73424C6.18847 7.57566 6.41945 7.22039 6.42025 6.82779L6.42143 6.23731Z" fill="#828282"/>
<path d="M9.94169 4.23054C10.342 4.12561 10.7661 4.16221 11.1428 4.33417L11.2321 4.37494C11.3524 4.42983 11.3919 4.58194 11.3136 4.68884L11.2464 4.78079C11.0073 5.10758 10.6636 5.34185 10.2729 5.44422L9.76816 5.57653C9.37869 5.67861 8.96547 5.53134 8.72563 5.20661C8.71045 5.18606 8.70414 5.16011 8.70827 5.13485C8.76852 4.76575 9.03959 4.46698 9.39985 4.37257L9.94169 4.23054Z" fill="#828282"/>
<path d="M9.42243 3.9418C9.56903 3.61508 9.5993 3.24765 9.50819 2.90116L9.48657 2.81903C9.4575 2.70843 9.33448 2.65272 9.23273 2.70408L9.14523 2.74825C8.83417 2.90523 8.58633 3.16491 8.44328 3.4837L8.25844 3.89563C8.11584 4.21347 8.18079 4.58757 8.42093 4.83926C8.43613 4.85519 8.45717 4.86432 8.47915 4.86445C8.80015 4.86629 9.09212 4.67797 9.22403 4.38397L9.42243 3.9418Z" fill="#828282"/>
<path d="M12.4342 2.96508C12.815 3.00947 13.169 3.18406 13.4369 3.4596L13.5004 3.52492C13.5859 3.61286 13.5692 3.75756 13.4659 3.82349L13.3771 3.88022C13.0614 4.08183 12.6863 4.16824 12.3147 4.12494L11.8345 4.06899C11.4641 4.02583 11.1564 3.75931 11.0578 3.398C11.0516 3.37513 11.0548 3.35058 11.0668 3.33016C11.2421 3.03173 11.5761 2.8651 11.9188 2.90503L12.4342 2.96508Z" fill="#828282"/>
<path d="M12.0807 2.54014C12.3165 2.30743 12.4654 2.00031 12.5025 1.67035L12.5113 1.59212C12.5231 1.4868 12.4355 1.39723 12.3304 1.40726L12.2401 1.4159C11.919 1.44658 11.6182 1.58728 11.3881 1.81437L11.0909 2.1078C10.8615 2.33419 10.7926 2.67919 10.9159 2.97753C10.9237 2.99642 10.9388 3.01139 10.9577 3.01892C11.2344 3.12874 11.5494 3.06454 11.7616 2.85512L12.0807 2.54014Z" fill="#828282"/>
<path d="M30.8666 5.39186C30.4122 5.23842 29.9192 5.24662 29.4702 5.41509L29.3637 5.45502C29.2204 5.50879 29.1626 5.68141 29.2446 5.81124L29.315 5.92291C29.5653 6.31981 29.9439 6.61814 30.3871 6.76786L30.9599 6.96132C31.4019 7.1106 31.8911 6.97361 32.1942 6.61761C32.2133 6.59508 32.2228 6.5656 32.2201 6.53606C32.1797 6.10467 31.8902 5.7376 31.4815 5.59953L30.8666 5.39186Z" fill="#828282"/>
<path d="M31.4908 5.09989C31.3473 4.71054 31.3417 4.28347 31.4746 3.89036L31.5061 3.79717C31.5484 3.67169 31.695 3.61721 31.8086 3.68473L31.9062 3.74282C32.2532 3.94923 32.519 4.26924 32.6588 4.64919L32.8397 5.14009C32.9792 5.51887 32.8742 5.94601 32.5768 6.21757C32.5579 6.23476 32.5328 6.24362 32.5075 6.24201C32.1363 6.21832 31.8139 5.97723 31.6848 5.62685L31.4908 5.09989Z" fill="#828282"/>
<path d="M28.3344 3.30736C27.9248 3.12623 27.4655 3.09216 27.0337 3.21089L26.9313 3.23903C26.7935 3.27693 26.7253 3.43258 26.7906 3.56026L26.8468 3.67008C27.0464 4.06038 27.3735 4.36988 27.7731 4.54661L28.2897 4.775C28.6882 4.9512 29.1548 4.86517 29.4666 4.55967C29.4862 4.54033 29.4975 4.5137 29.4973 4.48601C29.496 4.08139 29.2575 3.71551 28.889 3.55251L28.3344 3.30736Z" fill="#828282"/>
<path d="M28.9411 3.08867C28.8404 2.71441 28.8709 2.31673 29.0274 1.96234L29.0645 1.87834C29.1145 1.76522 29.2554 1.72694 29.3553 1.79934L29.4413 1.86161C29.7467 2.08292 29.9671 2.40305 30.0653 2.76824L30.1924 3.24011C30.2904 3.6042 30.1571 3.9926 29.8574 4.22002C29.8385 4.23443 29.8145 4.24055 29.7911 4.23689C29.4478 4.18349 29.1682 3.93198 29.0774 3.5952L28.9411 3.08867Z" fill="#828282"/>
<path d="M25.5914 2.04447C25.2016 2.01784 24.8145 2.12672 24.4951 2.35285L24.4192 2.40646C24.3172 2.47864 24.3072 2.62677 24.3985 2.71216L24.4771 2.78558C24.7561 3.04661 25.1161 3.20326 25.4965 3.22924L25.9881 3.26283C26.3674 3.28874 26.7251 3.07906 26.8909 2.73536C26.9012 2.7136 26.9027 2.68842 26.8943 2.66569C26.7738 2.33384 26.47 2.10449 26.1191 2.08051L25.5914 2.04447Z" fill="#828282"/>
<path d="M26.0233 1.68455C25.83 1.40727 25.7377 1.07166 25.7615 0.734031L25.7671 0.653987C25.7748 0.546223 25.8791 0.472803 25.9826 0.502476L26.0715 0.527998C26.3877 0.61871 26.6631 0.81589 26.8517 1.08645L27.0953 1.43605C27.2833 1.70579 27.2886 2.06443 27.1097 2.34041C27.0984 2.35789 27.0806 2.37007 27.0602 2.37407C26.7626 2.4325 26.4588 2.30932 26.2848 2.05982L26.0233 1.68455Z" fill="#828282"/>
</svg>
