<svg width="40" height="40" viewBox="0 0 40 40" fill="none" xmlns="http://www.w3.org/2000/svg">
<path d="M31.6856 20.1598H29.0543C28.7054 20.1598 28.3707 20.2984 28.124 20.5451C27.8773 20.7918 27.7386 21.1265 27.7386 21.4754C27.7386 21.8244 27.8773 22.159 28.124 22.4057C28.3707 22.6525 28.7054 22.7911 29.0543 22.7911V25.4224H27.4939C27.6502 25.0012 27.7326 24.5561 27.7373 24.1068C27.7373 23.2379 27.4506 22.3934 26.9216 21.7041C26.3927 21.0148 25.6511 20.5193 24.8119 20.2944C23.9727 20.0695 23.0827 20.1279 22.28 20.4603C21.4772 20.7928 20.8067 21.3808 20.3722 22.1333C20.2845 22.2829 20.2272 22.4485 20.2037 22.6204C20.1802 22.7923 20.1909 22.9672 20.2352 23.1349C20.2796 23.3027 20.3567 23.46 20.4621 23.5978C20.5675 23.7357 20.6991 23.8513 20.8494 23.938C20.9996 24.0248 21.1656 24.081 21.3376 24.1033C21.5097 24.1257 21.6845 24.1138 21.8519 24.0684C22.0194 24.0229 22.1762 23.9448 22.3133 23.8385C22.4504 23.7321 22.5652 23.5998 22.6509 23.4489C22.7664 23.2489 22.9325 23.0828 23.1325 22.9674C23.3325 22.8519 23.5594 22.7911 23.7903 22.7911C24.1393 22.7911 24.4739 22.9297 24.7206 23.1764C24.9674 23.4232 25.106 23.7578 25.106 24.1068C25.106 24.4557 24.9674 24.7903 24.7206 25.0371C24.4739 25.2838 24.1393 25.4224 23.7903 25.4224C23.4414 25.4224 23.1067 25.561 22.86 25.8078C22.6133 26.0545 22.4746 26.3892 22.4746 26.7381C22.4746 27.087 22.6133 27.4217 22.86 27.6684C23.1067 27.9152 23.4414 28.0538 23.7903 28.0538C24.1393 28.0538 24.4739 28.1924 24.7206 28.4391C24.9674 28.6859 25.106 29.0205 25.106 29.3694C25.106 29.7184 24.9674 30.053 24.7206 30.2998C24.4739 30.5465 24.1393 30.6851 23.7903 30.6851C23.5594 30.6851 23.3325 30.6243 23.1325 30.5088C22.9325 30.3934 22.7664 30.2273 22.6509 30.0273C22.5652 29.8764 22.4504 29.7441 22.3133 29.6377C22.1762 29.5314 22.0194 29.4533 21.8519 29.4078C21.6845 29.3624 21.5097 29.3505 21.3376 29.3729C21.1656 29.3952 20.9996 29.4514 20.8494 29.5382C20.6991 29.6249 20.5675 29.7405 20.4621 29.8784C20.3567 30.0162 20.2796 30.1735 20.2352 30.3413C20.1909 30.509 20.1802 30.6839 20.2037 30.8558C20.2272 31.0277 20.2845 31.1933 20.3722 31.3429C20.8067 32.0954 21.4772 32.6834 22.28 33.0159C23.0827 33.3483 23.9727 33.4067 24.8119 33.1818C25.6511 32.9569 26.3927 32.4614 26.9216 31.7721C27.4506 31.0828 27.7373 30.2383 27.7373 29.3694C27.7326 28.9201 27.6502 28.475 27.4939 28.0538H29.053V32.0008C29.053 32.3497 29.1916 32.6844 29.4383 32.9311C29.6851 33.1778 30.0197 33.3164 30.3687 33.3164C30.7176 33.3164 31.0522 33.1778 31.299 32.9311C31.5457 32.6844 31.6843 32.3497 31.6843 32.0008V22.7911C32.0333 22.7911 32.3679 22.6525 32.6146 22.4057C32.8614 22.159 33 21.8244 33 21.4754C33 21.1265 32.8614 20.7918 32.6146 20.5451C32.3679 20.2984 32.0346 20.1598 31.6856 20.1598ZM15.9358 19.1638C15.9767 19.3324 16.0507 19.4913 16.1533 19.6313C16.256 19.7713 16.3853 19.8895 16.5339 19.9793C16.6824 20.069 16.8473 20.1285 17.0189 20.1543C17.1906 20.1801 17.3656 20.1716 17.534 20.1294C17.7023 20.0872 17.8607 20.0122 17.9999 19.9085C18.1391 19.8049 18.2565 19.6747 18.3452 19.5255C18.4339 19.3763 18.4922 19.2111 18.5167 19.0392C18.5412 18.8674 18.5315 18.6924 18.4882 18.5244L16.1765 9.27522C16.0148 8.62552 15.6404 8.04859 15.1129 7.63629C14.5854 7.22398 13.9351 7 13.2656 7C12.5961 7 11.9458 7.22398 11.4183 7.63629C10.8908 8.04859 10.5164 8.62552 10.3547 9.27522L8.04175 18.5244C7.99837 18.6924 7.98868 18.8674 8.01322 19.0392C8.03776 19.2111 8.09606 19.3763 8.18476 19.5255C8.27345 19.6747 8.39079 19.8049 8.53001 19.9085C8.66923 20.0122 8.82759 20.0872 8.99595 20.1294C9.16432 20.1716 9.33936 20.1801 9.51101 20.1543C9.68265 20.1285 9.8475 20.069 9.99605 19.9793C10.1446 19.8895 10.2739 19.7713 10.3766 19.6313C10.4792 19.4913 10.5532 19.3324 10.5942 19.1638L11.3309 16.2127H15.199L15.9358 19.1638ZM11.9901 13.5814L12.9071 9.91463C12.9348 9.84176 12.9839 9.77902 13.0481 9.73475C13.1122 9.69048 13.1883 9.66677 13.2663 9.66677C13.3442 9.66677 13.4203 9.69048 13.4845 9.73475C13.5486 9.77902 13.5978 9.84176 13.6255 9.91463L14.5425 13.5814H11.9901ZM22.476 13.5814H23.7916C24.1405 13.5818 24.4749 13.7205 24.7216 13.9671C24.9682 14.2138 25.107 14.5482 25.1073 14.8971V16.2127C25.1073 16.5617 25.2459 16.8963 25.4927 17.1431C25.7394 17.3898 26.074 17.5284 26.423 17.5284C26.7719 17.5284 27.1066 17.3898 27.3533 17.1431C27.6 16.8963 27.7386 16.5617 27.7386 16.2127V14.8971C27.7376 13.8506 27.3214 12.8473 26.5814 12.1073C25.8415 11.3673 24.8381 10.9511 23.7916 10.9501H22.476C22.127 10.9501 21.7924 11.0887 21.5456 11.3354C21.2989 11.5822 21.1603 11.9168 21.1603 12.2657C21.1603 12.6147 21.2989 12.9493 21.5456 13.1961C21.7924 13.4428 22.127 13.5814 22.476 13.5814ZM17.2133 25.4224H15.8976C15.5488 25.4221 15.2143 25.2834 14.9677 25.0367C14.721 24.79 14.5823 24.4556 14.5819 24.1068V22.7911C14.5819 22.4422 14.4433 22.1075 14.1966 21.8608C13.9499 21.614 13.6152 21.4754 13.2663 21.4754C12.9173 21.4754 12.5827 21.614 12.336 21.8608C12.0892 22.1075 11.9506 22.4422 11.9506 22.7911V24.1068C11.9517 25.1532 12.3678 26.1566 13.1078 26.8966C13.8478 27.6365 14.8511 28.0527 15.8976 28.0538H17.2133C17.5622 28.0538 17.8969 27.9152 18.1436 27.6684C18.3903 27.4217 18.529 27.087 18.529 26.7381C18.529 26.3892 18.3903 26.0545 18.1436 25.8078C17.8969 25.561 17.5622 25.4224 17.2133 25.4224Z" fill="#495555" stroke="white" stroke-width="0.5"/>
</svg>
