<svg width="20" height="21" viewBox="0 0 20 21" fill="none" xmlns="http://www.w3.org/2000/svg">
<path d="M13.4837 9.66667H13.3337V9.51667V4.66667C13.3342 4.20889 13.1712 3.81667 12.8445 3.49C12.5178 3.16333 12.1253 3 11.667 3H8.33366M13.4837 9.66667L8.33366 3M13.4837 9.66667H16.667C17.1253 9.66667 17.5178 9.83 17.8445 10.1567C18.1712 10.4833 18.3342 10.8756 18.3337 11.3333V16.3333C18.3337 16.7917 18.1706 17.1842 17.8445 17.5108C17.5184 17.8375 17.1259 18.0006 16.667 18L13.4837 9.66667ZM8.33366 3V3.15L8.33384 3.15L8.33366 3ZM3.18366 16.3333V16.4833H3.33366H6.66699H6.81699V16.3333V9.66667V9.51667H6.66699H3.33366H3.18366V9.66667V16.3333ZM8.18366 16.3333V16.4833H8.33366H11.667H11.817V16.3333V4.66667V4.51667H11.667H8.33366H8.18366V4.66667V16.3333ZM13.1837 16.3333V16.4833H13.3337H16.667H16.817V16.3333V11.3333V11.1833H16.667H13.3337H13.1837V11.3333V16.3333ZM3.33384 8.15L3.33366 8V8.15H3.33384Z" fill="#394F89" stroke="white" stroke-width="0.3"/>
</svg>
