<svg width="31" height="30" viewBox="0 0 31 30" fill="none" xmlns="http://www.w3.org/2000/svg">
<path d="M5.5 23.75H10.5V13.75H5.5V23.75ZM13 23.75H18V6.25H13V23.75ZM20.5 23.75H25.5V16.25H20.5V23.75ZM3 23.75V13.75C3 13.0625 3.245 12.4742 3.735 11.985C4.225 11.4958 4.81333 11.2508 5.5 11.25H10.5V6.25C10.5 5.5625 10.745 4.97417 11.235 4.485C11.725 3.99583 12.3133 3.75083 13 3.75H18C18.6875 3.75 19.2763 3.995 19.7663 4.485C20.2563 4.975 20.5008 5.56333 20.5 6.25V13.75H25.5C26.1875 13.75 26.7763 13.995 27.2663 14.485C27.7563 14.975 28.0008 15.5633 28 16.25V23.75C28 24.4375 27.7554 25.0263 27.2663 25.5163C26.7771 26.0063 26.1883 26.2508 25.5 26.25H5.5C4.8125 26.25 4.22417 26.0054 3.735 25.5163C3.24583 25.0271 3.00083 24.4383 3 23.75Z" fill="#F18282"/>
</svg>
