<svg width="24" height="25" viewBox="0 0 24 25" fill="none" xmlns="http://www.w3.org/2000/svg">
<path d="M7.22985 18.824C6.1701 18.8275 5.15228 18.4103 4.39985 17.664C3.63599 16.8524 3.22326 15.7723 3.25135 14.6581C3.27943 13.544 3.74607 12.486 4.54985 11.714L8.30985 7.92397C9.12714 7.08031 10.2454 6.59488 11.4199 6.57397C11.9474 6.57749 12.469 6.68533 12.9547 6.89127C13.4404 7.09722 13.8806 7.39721 14.2499 7.77397C15.0241 8.59026 15.4431 9.68025 15.415 10.805C15.3869 11.9297 14.9139 12.9974 14.0999 13.774L12.8399 15.034C12.7712 15.1077 12.6884 15.1668 12.5964 15.2078C12.5044 15.2487 12.4051 15.2708 12.3044 15.2726C12.2037 15.2743 12.1036 15.2558 12.0103 15.2181C11.9169 15.1804 11.832 15.1242 11.7608 15.053C11.6896 14.9818 11.6335 14.897 11.5957 14.8036C11.558 14.7102 11.5395 14.6102 11.5413 14.5095C11.543 14.4087 11.5651 14.3094 11.6061 14.2174C11.6471 14.1254 11.7062 14.0426 11.7799 13.974L12.9999 12.674C13.5246 12.1816 13.8336 11.5019 13.8598 10.7828C13.8861 10.0637 13.6273 9.3633 13.1399 8.83397C12.607 8.36928 11.9165 8.12594 11.21 8.15383C10.5035 8.18172 9.83446 8.47872 9.33985 8.98397L5.60985 12.764C5.09498 13.2552 4.79143 13.9275 4.76343 14.6386C4.73544 15.3497 4.98519 16.0438 5.45985 16.574C5.72073 16.8318 6.03514 17.029 6.38077 17.1517C6.72641 17.2744 7.09482 17.3196 7.45985 17.284C7.55711 17.2743 7.65532 17.2841 7.7488 17.3126C7.84228 17.3411 7.92918 17.3879 8.00449 17.4502C8.07981 17.5124 8.14203 17.589 8.18758 17.6755C8.23312 17.762 8.26109 17.8566 8.26985 17.954C8.28941 18.1515 8.22987 18.3487 8.10429 18.5024C7.9787 18.6561 7.79731 18.7538 7.59985 18.774L7.22985 18.824Z" fill="#394F89"/>
<path d="M12.5805 18.5739C12.0529 18.5703 11.5313 18.4625 11.0456 18.2566C10.5599 18.0506 10.1197 17.7506 9.75046 17.3739C8.9762 16.5576 8.5572 15.4676 8.58531 14.3429C8.61343 13.2181 9.08638 12.1504 9.90046 11.3739L11.1605 10.1139C11.2291 10.0402 11.3119 9.98107 11.4039 9.94007C11.4959 9.89908 11.5952 9.87704 11.6959 9.87527C11.7966 9.87349 11.8967 9.89201 11.9901 9.92973C12.0834 9.96745 12.1683 10.0236 12.2395 10.0948C12.3107 10.166 12.3669 10.2509 12.4046 10.3443C12.4423 10.4376 12.4608 10.5377 12.4591 10.6384C12.4573 10.7391 12.4352 10.8384 12.3942 10.9304C12.3533 11.0224 12.2941 11.1052 12.2205 11.1739L11.0005 12.4739C10.4758 12.9663 10.1667 13.646 10.1405 14.3651C10.1143 15.0842 10.373 15.7845 10.8605 16.3139C11.3934 16.7786 12.0838 17.0219 12.7903 16.994C13.4968 16.9661 14.1659 16.6691 14.6605 16.1639L18.4305 12.3839C18.9398 11.8873 19.236 11.2121 19.2565 10.5011C19.277 9.79011 19.0203 9.09898 18.5405 8.57386C18.2796 8.31605 17.9652 8.1188 17.6195 7.9961C17.2739 7.8734 16.9055 7.82825 16.5405 7.86386C16.4432 7.8735 16.345 7.86377 16.2515 7.83525C16.158 7.80673 16.0711 7.75997 15.9958 7.69768C15.9205 7.63538 15.8583 7.55879 15.8127 7.47231C15.7672 7.38584 15.7392 7.2912 15.7305 7.19386C15.7109 6.99634 15.7704 6.79912 15.896 6.64542C16.0216 6.49171 16.203 6.39406 16.4005 6.37386C16.9826 6.31352 17.5708 6.38165 18.1237 6.57344C18.6767 6.76523 19.1808 7.07601 19.6005 7.48386C20.3643 8.29538 20.7771 9.37558 20.749 10.4897C20.7209 11.6038 20.2542 12.6618 19.4505 13.4339L15.6905 17.2239C14.8732 18.0675 13.7549 18.553 12.5805 18.5739Z" fill="#394F89"/>
</svg>
