<svg width="16" height="17" viewBox="0 0 16 17" fill="none" xmlns="http://www.w3.org/2000/svg">
<path d="M8 1.75C6.54184 1.75172 5.14389 2.33174 4.11282 3.36281C3.08174 4.39389 2.50172 5.79184 2.5 7.25C2.49866 8.44155 2.88786 9.6007 3.608 10.55C3.608 10.55 3.758 10.7475 3.7825 10.776L8 15.75L12.2195 10.7735C12.2415 10.747 12.392 10.55 12.392 10.55L12.3925 10.5485C13.1122 9.59954 13.5012 8.44098 13.5 7.25C13.4983 5.79184 12.9183 4.39389 11.8872 3.36281C10.8561 2.33174 9.45817 1.75172 8 1.75ZM8 9.25C7.60444 9.25 7.21776 9.1327 6.88886 8.91294C6.55996 8.69318 6.30362 8.38082 6.15224 8.01537C6.00087 7.64991 5.96126 7.24778 6.03843 6.85982C6.1156 6.47186 6.30608 6.11549 6.58579 5.83579C6.86549 5.55608 7.22186 5.3656 7.60982 5.28843C7.99778 5.21126 8.39992 5.25087 8.76537 5.40224C9.13082 5.55362 9.44318 5.80996 9.66294 6.13886C9.8827 6.46776 10 6.85444 10 7.25C9.99934 7.78023 9.78841 8.28855 9.41349 8.66348C9.03856 9.03841 8.53023 9.24934 8 9.25Z" fill="black"/>
</svg>
