<svg width="40" height="41" viewBox="0 0 40 41" fill="none" xmlns="http://www.w3.org/2000/svg">
<path fill-rule="evenodd" clip-rule="evenodd" d="M31 20.5C31 20.167 30.8878 19.8477 30.6882 19.6123C30.4886 19.3768 30.2178 19.2446 29.9355 19.2446H10.0645C9.78219 19.2446 9.51142 19.3768 9.31179 19.6123C9.11215 19.8477 9 20.167 9 20.5C9 20.833 9.11215 21.1523 9.31179 21.3877C9.51142 21.6231 9.78219 21.7554 10.0645 21.7554H29.9355C30.2178 21.7554 30.4886 21.6231 30.6882 21.3877C30.8878 21.1523 31 20.833 31 20.5ZM31 12.1305C31 11.7975 30.8878 11.4782 30.6882 11.2428C30.4886 11.0073 30.2178 10.8751 29.9355 10.8751H10.0645C9.78219 10.8751 9.51142 11.0073 9.31179 11.2428C9.11215 11.4782 9 11.7975 9 12.1305C9 12.4634 9.11215 12.7828 9.31179 13.0182C9.51142 13.2536 9.78219 13.3859 10.0645 13.3859H29.9355C30.2178 13.3859 30.4886 13.2536 30.6882 13.0182C30.8878 12.7828 31 12.4634 31 12.1305ZM31 28.8695C31 28.5365 30.8878 28.2172 30.6882 27.9818C30.4886 27.7463 30.2178 27.6141 29.9355 27.6141H10.0645C9.78219 27.6141 9.51142 27.7463 9.31179 27.9818C9.11215 28.2172 9 28.5365 9 28.8695C9 29.2025 9.11215 29.5218 9.31179 29.7572C9.51142 29.9927 9.78219 30.1249 10.0645 30.1249H29.9355C30.2178 30.1249 30.4886 29.9927 30.6882 29.7572C30.8878 29.5218 31 29.2025 31 28.8695Z" fill="#495555"/>
</svg>
