<svg width="24" height="24" viewBox="0 0 24 24" fill="none" xmlns="http://www.w3.org/2000/svg">
<g clip-path="url(#clip0_3510_37330)">
<path d="M19.9999 13.9999C20.2547 14.0001 20.4999 14.0977 20.6852 14.2727C20.8706 14.4477 20.9821 14.6868 20.997 14.9413C21.012 15.1957 20.9292 15.4462 20.7656 15.6417C20.602 15.8371 20.37 15.9628 20.1169 15.9929L19.9999 15.9999H6.41387L8.70687 18.2929C8.88622 18.4728 8.99034 18.7143 8.9981 18.9682C9.00585 19.2222 8.91665 19.4696 8.74862 19.6601C8.58059 19.8507 8.34632 19.9702 8.09339 19.9943C7.84047 20.0184 7.58786 19.9453 7.38687 19.7899L7.29287 19.7069L3.46287 15.8769C2.79787 15.2129 3.22387 14.0939 4.12587 14.0059L4.24087 13.9999H19.9999ZM15.2929 4.29286C15.4651 4.12068 15.6942 4.01725 15.9372 4.00197C16.1802 3.98669 16.4205 4.06061 16.6129 4.20986L16.7069 4.29286L20.5369 8.12286C21.2019 8.78686 20.7759 9.90586 19.8739 9.99386L19.7589 9.99986H3.99987C3.74499 9.99958 3.49984 9.90198 3.3145 9.72701C3.12916 9.55204 3.01763 9.31291 3.0027 9.05847C2.98776 8.80403 3.07054 8.55348 3.23413 8.35803C3.39772 8.16258 3.62977 8.03697 3.88287 8.00686L3.99987 7.99986H17.5859L15.2929 5.70686C15.1054 5.51933 15.0001 5.26503 15.0001 4.99986C15.0001 4.7347 15.1054 4.48039 15.2929 4.29286Z" fill="#808080"/>
</g>
<defs>
<clipPath id="clip0_3510_37330">
<rect width="24" height="24" fill="white"/>
</clipPath>
</defs>
</svg>
