<svg width="31" height="30" viewBox="0 0 31 30" fill="none" xmlns="http://www.w3.org/2000/svg">
<g clip-path="url(#clip0_1117_51639)">
<path d="M9.75649 4.71072C11.6001 3.61379 15.4103 1.41992 15.902 1.41992L22.5083 4.71072V12.7881L15.902 16.8269L9.44922 12.7881L9.75649 4.71072Z" fill="#8FFFBC"/>
<path d="M16.6706 16.3777C18.5142 15.2808 22.3244 13.0869 22.816 13.0869L29.4224 16.3777V24.4551L22.816 28.4938L16.3633 24.4551L16.6706 16.3777Z" fill="#ECFFB6"/>
<path d="M3.15102 16.6775C4.99466 15.5806 8.80485 13.3867 9.29648 13.3867L15.9029 16.6775V24.7549L9.29648 28.7937L2.84375 24.7549L3.15102 16.6775Z" fill="#FFDCA8"/>
<path d="M15.6224 0.564531C15.5335 0.597801 13.9548 1.51602 12.1165 2.60724C9.69718 4.0378 8.74041 4.62998 8.67206 4.76306C8.59005 4.90944 8.57639 5.60809 8.57639 8.72205L8.56955 12.5014L5.37802 14.3844C3.62164 15.4157 2.14547 16.3207 2.09763 16.3938C2.03613 16.4937 2.01562 17.4984 2.01562 20.6523V24.7776L2.20698 24.9705C2.48718 25.2633 9.04111 29.1025 9.2598 29.1025C9.37598 29.1025 10.572 28.4305 12.6154 27.2262C14.3581 26.1948 15.8206 25.3565 15.8547 25.3565C15.8957 25.3565 17.2626 26.1549 18.9028 27.1264C22.3882 29.189 22.272 29.1292 22.5248 29.0759C22.7367 29.036 29.2975 25.1835 29.523 24.9705C29.6597 24.8441 29.6597 24.7377 29.6802 20.6922C29.6938 16.6666 29.6938 16.5469 29.564 16.3805C29.4888 16.294 28.0126 15.3825 26.2836 14.3578L23.1399 12.5014L23.1194 8.66217L23.0989 4.81629L22.8939 4.62998C22.6342 4.38379 16.1896 0.577839 15.9572 0.531263C15.8616 0.511301 15.7112 0.524609 15.6224 0.564531ZM18.7114 3.65188C20.4883 4.70317 21.0555 5.06913 20.994 5.12236C20.789 5.30867 15.9777 8.10325 15.8547 8.1099C15.7044 8.1099 10.6198 5.14232 10.6471 5.06913C10.654 5.04252 11.8294 4.33056 13.2509 3.49219L15.8479 1.96182L16.0939 2.10821C16.2306 2.18805 17.4129 2.88004 18.7114 3.65188ZM12.8682 7.97683L15.1303 9.30758L15.1371 12.4215V15.5355L14.9868 15.4557C14.9048 15.4091 14.1257 14.9566 13.2646 14.4443C12.3967 13.932 11.2964 13.2865 10.818 13.0071L9.95005 12.5014L9.94321 9.38743V6.26681L10.2712 6.45977C10.4558 6.55958 11.6244 7.24492 12.8682 7.97683ZM21.7526 9.38743L21.7321 12.4881L19.1693 14.0051C17.7615 14.8435 16.586 15.5289 16.5586 15.5289C16.5245 15.5289 16.504 14.1382 16.504 12.4415V9.35416L19.0873 7.82379C20.5019 6.97876 21.6842 6.28677 21.7184 6.28677C21.7457 6.28012 21.7594 7.67741 21.7526 9.38743ZM11.9593 15.2361C14.153 16.5269 14.5016 16.7598 14.3991 16.8263C14.3376 16.8663 13.1553 17.5716 11.7748 18.3833L9.2598 19.8671L6.62866 18.3101C4.88596 17.2854 4.02486 16.7398 4.07953 16.7066C5.255 15.9613 9.19146 13.6858 9.27347 13.6991C9.34181 13.7124 10.5446 14.3977 11.9593 15.2361ZM25.0398 15.1829C26.4476 16.0146 27.5958 16.7199 27.5889 16.7531C27.5889 16.7864 26.4271 17.4984 25.0125 18.3367L22.436 19.8605L22.1558 19.7008C21.0965 19.0953 17.2831 16.8197 17.2557 16.7731C17.2216 16.7199 22.2856 13.6791 22.4155 13.6725C22.4565 13.6725 23.632 14.3511 25.0398 15.1829ZM28.327 21.0448V24.1721L27.3224 24.7643C26.762 25.0903 25.5934 25.7757 24.7254 26.2946L23.1331 27.2328V24.1189V21.0049L25.7164 19.4745C27.131 18.6295 28.2997 17.9375 28.3133 17.9309C28.3202 17.9242 28.327 19.3282 28.327 21.0448ZM6.04093 19.5211L8.57639 21.0182V24.1322C8.57639 27.0798 8.56955 27.2395 8.46021 27.1796C8.39187 27.1397 7.23006 26.4543 5.87691 25.6559L3.41662 24.1987L3.39612 21.0848C3.38928 19.2084 3.40295 17.9907 3.44396 18.0041C3.47813 18.0107 4.64676 18.696 6.04093 19.5211ZM15.1235 21.0914L15.103 24.1987L12.6427 25.6559C11.2895 26.4543 10.1277 27.1397 10.0662 27.1796C9.95005 27.2395 9.94321 27.0798 9.94321 24.1322V21.0182L12.4923 19.5078C13.8865 18.6761 15.0551 17.9974 15.0893 17.9974C15.1166 17.9907 15.1303 19.388 15.1235 21.0914ZM19.1078 19.4612C20.4746 20.2663 21.6364 20.965 21.6842 21.0116C21.7457 21.0714 21.7663 21.7634 21.7526 24.1654L21.7321 27.2395L20.1944 26.3346C19.347 25.8355 18.1715 25.1369 17.5838 24.7842L16.504 24.1455V21.0648C16.504 19.3747 16.5313 17.9907 16.5655 17.9907C16.5928 17.9907 17.741 18.6495 19.1078 19.4612Z" fill="#409ACC"/>
<path d="M2.99291 0.863896C2.60336 1.00363 2.1113 1.43612 1.89261 1.84865C1.64658 2.31442 1.63292 3.09956 1.86528 3.55867C2.63753 5.08904 4.81078 5.08238 5.58987 3.55202C5.8154 3.09956 5.80173 2.30776 5.5557 1.84865C5.32334 1.42281 4.83812 0.996971 4.42807 0.863896C4.03853 0.730821 3.37562 0.737474 2.99291 0.863896ZM4.16838 2.24123C4.28456 2.33438 4.35973 2.48076 4.38707 2.66041C4.4144 2.89995 4.3939 2.96649 4.22305 3.15279C4.0522 3.3391 3.97702 3.37237 3.72416 3.37237C3.47129 3.37237 3.39612 3.3391 3.22527 3.15279C3.05441 2.96649 3.03391 2.89995 3.06125 2.66041C3.10909 2.30111 3.36195 2.08819 3.72416 2.08819C3.90184 2.08819 4.0522 2.14142 4.16838 2.24123Z" fill="#BBBBBB"/>
<path d="M25.1506 2.90695C25.0344 3.0001 24.9592 3.14648 24.9319 3.32613C24.9046 3.56567 24.9251 3.63221 25.0959 3.81851C25.2668 4.00482 25.3419 4.03809 25.5948 4.03809C25.8477 4.03809 25.9228 4.00482 26.0937 3.81851C26.2646 3.63221 26.2851 3.56567 26.2577 3.32613C26.2099 2.96683 25.957 2.75391 25.5948 2.75391C25.4171 2.75391 25.2668 2.80714 25.1506 2.90695Z" fill="#BBBBBB"/>
<path d="M27.2613 5.55522C27.0631 5.62841 26.7624 5.80806 26.5847 5.9611C25.2452 7.1122 25.5391 9.08837 27.1588 9.82694C27.5346 9.99993 27.685 10.0332 28.1224 10.0332C28.5597 10.0332 28.7169 9.99993 29.0928 9.82694C29.8992 9.45433 30.4118 8.76899 30.487 7.93727C30.6237 6.55994 29.5302 5.40883 28.1019 5.42214C27.7807 5.42214 27.4868 5.46872 27.2613 5.55522ZM28.6759 6.89928C29.5097 7.43823 29.1201 8.70245 28.1224 8.70245C27.1246 8.70245 26.735 7.43823 27.5688 6.89928C27.726 6.79282 27.9037 6.74624 28.1224 6.74624C28.3411 6.74624 28.5187 6.79282 28.6759 6.89928Z" fill="#BBBBBB"/>
<path d="M3.2795 6.89913C3.16332 6.99229 3.08814 7.13867 3.0608 7.31832C3.03347 7.55786 3.05397 7.62439 3.22482 7.8107C3.39568 7.997 3.47085 8.03027 3.72371 8.03027C3.97658 8.03027 4.05175 7.997 4.22261 7.8107C4.39346 7.62439 4.41396 7.55786 4.38662 7.31832C4.33879 6.95902 4.08592 6.7461 3.72371 6.7461C3.54603 6.7461 3.39568 6.79933 3.2795 6.89913Z" fill="#BBBBBB"/>
<path d="M29.2482 26.8601C29.1321 26.9532 29.0569 27.0996 29.0296 27.2793C29.0022 27.5188 29.0227 27.5853 29.1936 27.7716C29.3644 27.9579 29.4396 27.9912 29.6925 27.9912C29.9453 27.9912 30.0205 27.9579 30.1914 27.7716C30.3622 27.5853 30.3827 27.5188 30.3554 27.2793C30.3075 26.92 30.0547 26.707 29.6925 26.707C29.5148 26.707 29.3644 26.7603 29.2482 26.8601Z" fill="#BBBBBB"/>
<path d="M4.64668 28.1911C4.5305 28.2843 4.45533 28.4307 4.42799 28.6103C4.40066 28.8498 4.42116 28.9164 4.59201 29.1027C4.76286 29.289 4.83804 29.3223 5.0909 29.3223C5.34376 29.3223 5.41894 29.289 5.58979 29.1027C5.76065 28.9164 5.78115 28.8498 5.75381 28.6103C5.70597 28.251 5.45311 28.0381 5.0909 28.0381C4.91321 28.0381 4.76286 28.0913 4.64668 28.1911Z" fill="#BBBBBB"/>
</g>
<defs>
<clipPath id="clip0_1117_51639">
<rect width="30" height="30" fill="white" transform="translate(0.5)"/>
</clipPath>
</defs>
</svg>
