<svg width="40" height="40" viewBox="0 0 40 40" fill="none" xmlns="http://www.w3.org/2000/svg">
<path opacity="0.32" d="M9.4165 33.3334C8.63873 33.3334 7.98595 33.0695 7.45817 32.5417C6.93039 32.0139 6.6665 31.3611 6.6665 30.5834C6.6665 29.8056 6.93039 29.1528 7.45817 28.625C7.98595 28.0972 8.63873 27.8334 9.4165 27.8334C10.1943 27.8334 10.8471 28.0972 11.3748 28.625C11.9026 29.1528 12.1665 29.8056 12.1665 30.5834C12.1665 31.3611 11.9026 32.0139 11.3748 32.5417C10.8471 33.0695 10.1943 33.3334 9.4165 33.3334ZM19.9998 33.3334C19.2221 33.3334 18.5693 33.0695 18.0415 32.5417C17.5137 32.0139 17.2498 31.3611 17.2498 30.5834C17.2498 29.8056 17.5137 29.1528 18.0415 28.625C18.5693 28.0972 19.2221 27.8334 19.9998 27.8334C20.7776 27.8334 21.4304 28.0972 21.9582 28.625C22.4859 29.1528 22.7498 29.8056 22.7498 30.5834C22.7498 31.3611 22.4859 32.0139 21.9582 32.5417C21.4304 33.0695 20.7776 33.3334 19.9998 33.3334ZM30.5832 33.3334C29.8054 33.3334 29.1526 33.0695 28.6248 32.5417C28.0971 32.0139 27.8332 31.3611 27.8332 30.5834C27.8332 29.8056 28.0971 29.1528 28.6248 28.625C29.1526 28.0972 29.8054 27.8334 30.5832 27.8334C31.361 27.8334 32.0137 28.0972 32.5415 28.625C33.0693 29.1528 33.3332 29.8056 33.3332 30.5834C33.3332 31.3611 33.0693 32.0139 32.5415 32.5417C32.0137 33.0695 31.361 33.3334 30.5832 33.3334ZM9.4165 22.75C8.63873 22.75 7.98595 22.4861 7.45817 21.9584C6.93039 21.4306 6.6665 20.7778 6.6665 20C6.6665 19.2222 6.93039 18.5695 7.45817 18.0417C7.98595 17.5139 8.63873 17.25 9.4165 17.25C10.1943 17.25 10.8471 17.5139 11.3748 18.0417C11.9026 18.5695 12.1665 19.2222 12.1665 20C12.1665 20.7778 11.9026 21.4306 11.3748 21.9584C10.8471 22.4861 10.1943 22.75 9.4165 22.75ZM19.9998 22.75C19.2221 22.75 18.5693 22.4861 18.0415 21.9584C17.5137 21.4306 17.2498 20.7778 17.2498 20C17.2498 19.2222 17.5137 18.5695 18.0415 18.0417C18.5693 17.5139 19.2221 17.25 19.9998 17.25C20.7776 17.25 21.4304 17.5139 21.9582 18.0417C22.4859 18.5695 22.7498 19.2222 22.7498 20C22.7498 20.7778 22.4859 21.4306 21.9582 21.9584C21.4304 22.4861 20.7776 22.75 19.9998 22.75ZM30.5832 22.75C29.8054 22.75 29.1526 22.4861 28.6248 21.9584C28.0971 21.4306 27.8332 20.7778 27.8332 20C27.8332 19.2222 28.0971 18.5695 28.6248 18.0417C29.1526 17.5139 29.8054 17.25 30.5832 17.25C31.361 17.25 32.0137 17.5139 32.5415 18.0417C33.0693 18.5695 33.3332 19.2222 33.3332 20C33.3332 20.7778 33.0693 21.4306 32.5415 21.9584C32.0137 22.4861 31.361 22.75 30.5832 22.75ZM9.4165 12.1667C8.63873 12.1667 7.98595 11.9028 7.45817 11.375C6.93039 10.8472 6.6665 10.1945 6.6665 9.41669C6.6665 8.63891 6.93039 7.98613 7.45817 7.45835C7.98595 6.93058 8.63873 6.66669 9.4165 6.66669C10.1943 6.66669 10.8471 6.93058 11.3748 7.45835C11.9026 7.98613 12.1665 8.63891 12.1665 9.41669C12.1665 10.1945 11.9026 10.8472 11.3748 11.375C10.8471 11.9028 10.1943 12.1667 9.4165 12.1667ZM19.9998 12.1667C19.2221 12.1667 18.5693 11.9028 18.0415 11.375C17.5137 10.8472 17.2498 10.1945 17.2498 9.41669C17.2498 8.63891 17.5137 7.98613 18.0415 7.45835C18.5693 6.93058 19.2221 6.66669 19.9998 6.66669C20.7776 6.66669 21.4304 6.93058 21.9582 7.45835C22.4859 7.98613 22.7498 8.63891 22.7498 9.41669C22.7498 10.1945 22.4859 10.8472 21.9582 11.375C21.4304 11.9028 20.7776 12.1667 19.9998 12.1667ZM30.5832 12.1667C29.8054 12.1667 29.1526 11.9028 28.6248 11.375C28.0971 10.8472 27.8332 10.1945 27.8332 9.41669C27.8332 8.63891 28.0971 7.98613 28.6248 7.45835C29.1526 6.93058 29.8054 6.66669 30.5832 6.66669C31.361 6.66669 32.0137 6.93058 32.5415 7.45835C33.0693 7.98613 33.3332 8.63891 33.3332 9.41669C33.3332 10.1945 33.0693 10.8472 32.5415 11.375C32.0137 11.9028 31.361 12.1667 30.5832 12.1667Z" fill="#495555"/>
</svg>
