<svg width="89" height="88" viewBox="0 0 89 88" fill="none" xmlns="http://www.w3.org/2000/svg">
<g filter="url(#filter0_d_166_5317)">
<circle cx="44.5" cy="40" r="39.75" fill="white" stroke="#F4F4F4" stroke-width="0.5"/>
<path opacity="0.32" d="M31.2705 56.6666C30.2983 56.6666 29.4823 56.3368 28.8226 55.6771C28.1629 55.0173 27.833 54.2014 27.833 53.2291C27.833 52.2569 28.1629 51.441 28.8226 50.7812C29.4823 50.1215 30.2983 49.7917 31.2705 49.7917C32.2427 49.7917 33.0587 50.1215 33.7184 50.7812C34.3781 51.441 34.708 52.2569 34.708 53.2291C34.708 54.2014 34.3781 55.0173 33.7184 55.6771C33.0587 56.3368 32.2427 56.6666 31.2705 56.6666ZM44.4997 56.6666C43.5275 56.6666 42.7115 56.3368 42.0518 55.6771C41.392 55.0173 41.0622 54.2014 41.0622 53.2291C41.0622 52.2569 41.392 51.441 42.0518 50.7812C42.7115 50.1215 43.5275 49.7917 44.4997 49.7917C45.4719 49.7917 46.2879 50.1215 46.9476 50.7812C47.6073 51.441 47.9372 52.2569 47.9372 53.2291C47.9372 54.2014 47.6073 55.0173 46.9476 55.6771C46.2879 56.3368 45.4719 56.6666 44.4997 56.6666ZM57.7288 56.6666C56.7566 56.6666 55.9406 56.3368 55.2809 55.6771C54.6212 55.0173 54.2913 54.2014 54.2913 53.2291C54.2913 52.2569 54.6212 51.441 55.2809 50.7812C55.9406 50.1215 56.7566 49.7917 57.7288 49.7917C58.7011 49.7917 59.517 50.1215 60.1768 50.7812C60.8365 51.441 61.1663 52.2569 61.1663 53.2291C61.1663 54.2014 60.8365 55.0173 60.1768 55.6771C59.517 56.3368 58.7011 56.6666 57.7288 56.6666ZM31.2705 43.4375C30.2983 43.4375 29.4823 43.1076 28.8226 42.4479C28.1629 41.7882 27.833 40.9722 27.833 40C27.833 39.0278 28.1629 38.2118 28.8226 37.5521C29.4823 36.8923 30.2983 36.5625 31.2705 36.5625C32.2427 36.5625 33.0587 36.8923 33.7184 37.5521C34.3781 38.2118 34.708 39.0278 34.708 40C34.708 40.9722 34.3781 41.7882 33.7184 42.4479C33.0587 43.1076 32.2427 43.4375 31.2705 43.4375ZM44.4997 43.4375C43.5275 43.4375 42.7115 43.1076 42.0518 42.4479C41.392 41.7882 41.0622 40.9722 41.0622 40C41.0622 39.0278 41.392 38.2118 42.0518 37.5521C42.7115 36.8923 43.5275 36.5625 44.4997 36.5625C45.4719 36.5625 46.2879 36.8923 46.9476 37.5521C47.6073 38.2118 47.9372 39.0278 47.9372 40C47.9372 40.9722 47.6073 41.7882 46.9476 42.4479C46.2879 43.1076 45.4719 43.4375 44.4997 43.4375ZM57.7288 43.4375C56.7566 43.4375 55.9406 43.1076 55.2809 42.4479C54.6212 41.7882 54.2913 40.9722 54.2913 40C54.2913 39.0278 54.6212 38.2118 55.2809 37.5521C55.9406 36.8923 56.7566 36.5625 57.7288 36.5625C58.7011 36.5625 59.517 36.8923 60.1768 37.5521C60.8365 38.2118 61.1663 39.0278 61.1663 40C61.1663 40.9722 60.8365 41.7882 60.1768 42.4479C59.517 43.1076 58.7011 43.4375 57.7288 43.4375ZM31.2705 30.2083C30.2983 30.2083 29.4823 29.8785 28.8226 29.2187C28.1629 28.559 27.833 27.743 27.833 26.7708C27.833 25.7986 28.1629 24.9826 28.8226 24.3229C29.4823 23.6632 30.2983 23.3333 31.2705 23.3333C32.2427 23.3333 33.0587 23.6632 33.7184 24.3229C34.3781 24.9826 34.708 25.7986 34.708 26.7708C34.708 27.743 34.3781 28.559 33.7184 29.2187C33.0587 29.8785 32.2427 30.2083 31.2705 30.2083ZM44.4997 30.2083C43.5275 30.2083 42.7115 29.8785 42.0518 29.2187C41.392 28.559 41.0622 27.743 41.0622 26.7708C41.0622 25.7986 41.392 24.9826 42.0518 24.3229C42.7115 23.6632 43.5275 23.3333 44.4997 23.3333C45.4719 23.3333 46.2879 23.6632 46.9476 24.3229C47.6073 24.9826 47.9372 25.7986 47.9372 26.7708C47.9372 27.743 47.6073 28.559 46.9476 29.2187C46.2879 29.8785 45.4719 30.2083 44.4997 30.2083ZM57.7288 30.2083C56.7566 30.2083 55.9406 29.8785 55.2809 29.2187C54.6212 28.559 54.2913 27.743 54.2913 26.7708C54.2913 25.7986 54.6212 24.9826 55.2809 24.3229C55.9406 23.6632 56.7566 23.3333 57.7288 23.3333C58.7011 23.3333 59.517 23.6632 60.1768 24.3229C60.8365 24.9826 61.1663 25.7986 61.1663 26.7708C61.1663 27.743 60.8365 28.559 60.1768 29.2187C59.517 29.8785 58.7011 30.2083 57.7288 30.2083Z" fill="#495555"/>
</g>
<defs>
<filter id="filter0_d_166_5317" x="0.5" y="0" width="88" height="88" filterUnits="userSpaceOnUse" color-interpolation-filters="sRGB">
<feFlood flood-opacity="0" result="BackgroundImageFix"/>
<feColorMatrix in="SourceAlpha" type="matrix" values="0 0 0 0 0 0 0 0 0 0 0 0 0 0 0 0 0 0 127 0" result="hardAlpha"/>
<feOffset dy="4"/>
<feGaussianBlur stdDeviation="2"/>
<feComposite in2="hardAlpha" operator="out"/>
<feColorMatrix type="matrix" values="0 0 0 0 0 0 0 0 0 0 0 0 0 0 0 0 0 0 0.25 0"/>
<feBlend mode="normal" in2="BackgroundImageFix" result="effect1_dropShadow_166_5317"/>
<feBlend mode="normal" in="SourceGraphic" in2="effect1_dropShadow_166_5317" result="shape"/>
</filter>
</defs>
</svg>
