<svg width="40" height="41" viewBox="0 0 40 41" fill="none" xmlns="http://www.w3.org/2000/svg">
<g clip-path="url(#clip0_1053_4290)">
<rect x="4" y="6.15234" width="30" height="30" fill="white"/>
<path d="M8.7 27.9075L9.8232 27.1589L8.72295 25.5099L9.8232 23.8609L8.7 23.1123L7.9116 24.2939L7.1232 23.1123L6 23.8609L7.10025 25.5099L6 27.1589L7.1232 27.9075L7.9116 26.7259L8.7 27.9075Z" fill="#D25C5C"/>
<path d="M11.0112 17.1054L10.0555 16.1523L7.82969 18.3719L6.95574 17.5004L6 18.4534L7.82969 20.2779L11.0112 17.1054Z" fill="#97D25C"/>
<path fill-rule="evenodd" clip-rule="evenodd" d="M13.1459 24.1523L25.8541 24.1524C26.487 24.1524 27 24.3852 27 25.107C27 25.8288 26.487 26.1523 25.8541 26.1523H13.1459C12.513 26.1523 12 25.8288 12 25.107C12 24.3852 12.513 24.1523 13.1459 24.1523Z" fill="#868686"/>
<path d="M30 18.1923C30 17.5957 29.3199 17.1123 28.4811 17.1123H13.5189C12.6801 17.1123 12 17.5957 12 18.1923C12 18.7889 12.6801 19.2723 13.5189 19.2723H28.4811C29.3199 19.2723 30 18.7889 30 18.1923Z" fill="#868686"/>
<path d="M29.0474 40.1523C26.5842 40.1523 24.4763 39.2672 22.7237 37.4968C20.9711 35.7265 20.0947 33.5973 20.0947 31.1093C20.0947 28.6212 20.9711 26.4921 22.7237 24.7217C24.4763 22.9514 26.5842 22.0662 29.0474 22.0662C31.5105 22.0662 33.6184 22.9514 35.3711 24.7217C37.1237 26.4921 38 28.6212 38 31.1093C38 33.5973 37.1237 35.7265 35.3711 37.4968C33.6184 39.2672 31.5105 40.1523 29.0474 40.1523ZM31.7947 35.9418L33.1211 34.6021L29.5684 31.0136V25.6547H27.7211V31.6834L31.7947 35.9418ZM4.84211 37.5686C4.05263 37.5686 3.38158 37.2895 2.82895 36.7313C2.27632 36.1731 2 35.4952 2 34.6978V6.85091C2 6.05346 2.24474 5.37563 2.73421 4.81742C3.22368 4.2592 3.64211 3.98009 3.98947 3.98009H13.5579C13.7789 2.86367 14.3237 1.9466 15.1921 1.2289C16.0605 0.511195 17.0632 0.152344 18.2 0.152344C19.3368 0.152344 20.3395 0.511195 21.2079 1.2289C22.0763 1.9466 22.6211 2.86367 22.8421 3.98009H32.4105C33.2 3.98009 33.8711 4.2592 34.4237 4.81742C34.9763 5.37563 35.2526 6.05346 35.2526 6.85091V20.9657C34.7789 20.6787 34.3132 20.4314 33.8553 20.2241C33.3974 20.0168 32.9158 19.8334 32.4105 19.6739V6.85091H27.3895V13.071H9.86316V6.85091H4.84211V34.6978H17.7737C17.9316 35.1763 18.1211 35.6468 18.3421 36.1093C18.5632 36.5718 18.8316 37.0582 19.1474 37.5686H4.84211ZM19.0526 6.65952C19.5895 6.65952 20.0395 6.47611 20.4026 6.10928C20.7658 5.74246 20.9474 5.28791 20.9474 4.74565C20.9474 4.20338 20.7658 3.74883 20.4026 3.38201C20.0395 3.01518 19.5895 2.83177 19.0526 2.83177C18.5158 2.83177 18.0658 3.01518 17.7026 3.38201C17.3395 3.74883 17.1579 4.20338 17.1579 4.74565C17.1579 5.28791 17.3395 5.74246 17.7026 6.10928C18.0658 6.47611 18.5158 6.65952 19.0526 6.65952Z" fill="#FFD89D"/>
</g>
<defs>
<clipPath id="clip0_1053_4290">
<rect width="40" height="40" fill="white" transform="translate(0 0.152344)"/>
</clipPath>
</defs>
</svg>
