<svg width="20" height="21" viewBox="0 0 20 21" fill="none" xmlns="http://www.w3.org/2000/svg">
<path d="M8.33366 10.5C7.41699 10.5 6.63227 10.1736 5.97949 9.52083C5.32671 8.86805 5.00033 8.08333 5.00033 7.16666C5.00033 6.24999 5.32671 5.46527 5.97949 4.81249C6.63227 4.15972 7.41699 3.83333 8.33366 3.83333C9.25033 3.83333 10.035 4.15972 10.6878 4.81249C11.3406 5.46527 11.667 6.24999 11.667 7.16666C11.667 8.08333 11.3406 8.86805 10.6878 9.52083C10.035 10.1736 9.25033 10.5 8.33366 10.5ZM1.66699 17.1667V14.8333C1.66699 14.375 1.78505 13.9444 2.02116 13.5417C2.25727 13.1389 2.58366 12.8333 3.00033 12.625C3.70866 12.2639 4.50727 11.9583 5.39616 11.7083C6.28505 11.4583 7.26421 11.3333 8.33366 11.3333H8.62533C8.70866 11.3333 8.79199 11.3472 8.87533 11.375C8.76421 11.625 8.67047 11.8854 8.59408 12.1562C8.51769 12.4271 8.45866 12.7083 8.41699 13H8.33366C7.34755 13 6.46213 13.125 5.67741 13.375C4.89269 13.625 4.25033 13.875 3.75033 14.125C3.62533 14.1944 3.52463 14.2917 3.44824 14.4167C3.37185 14.5417 3.33366 14.6806 3.33366 14.8333V15.5H8.58366C8.66699 15.7917 8.7781 16.0799 8.91699 16.3646C9.05588 16.6493 9.20866 16.9167 9.37533 17.1667H1.66699ZM13.3337 18L13.0837 16.75C12.917 16.6805 12.7607 16.6076 12.6149 16.5312C12.4691 16.4549 12.3198 16.3611 12.167 16.25L10.9587 16.625L10.1253 15.2083L11.0837 14.375C11.0559 14.1805 11.042 14 11.042 13.8333C11.042 13.6667 11.0559 13.4861 11.0837 13.2917L10.1253 12.4583L10.9587 11.0417L12.167 11.4167C12.3198 11.3056 12.4691 11.2118 12.6149 11.1354C12.7607 11.059 12.917 10.9861 13.0837 10.9167L13.3337 9.66666H15.0003L15.2503 10.9167C15.417 10.9861 15.5732 11.0625 15.7191 11.1458C15.8649 11.2292 16.0142 11.3333 16.167 11.4583L17.3753 11.0417L18.2087 12.5L17.2503 13.3333C17.2781 13.5 17.292 13.6736 17.292 13.8542C17.292 14.0347 17.2781 14.2083 17.2503 14.375L18.2087 15.2083L17.3753 16.625L16.167 16.25C16.0142 16.3611 15.8649 16.4549 15.7191 16.5312C15.5732 16.6076 15.417 16.6805 15.2503 16.75L15.0003 18H13.3337ZM14.167 15.5C14.6253 15.5 15.0177 15.3368 15.3441 15.0104C15.6705 14.684 15.8337 14.2917 15.8337 13.8333C15.8337 13.375 15.6705 12.9826 15.3441 12.6562C15.0177 12.3299 14.6253 12.1667 14.167 12.1667C13.7087 12.1667 13.3163 12.3299 12.9899 12.6562C12.6635 12.9826 12.5003 13.375 12.5003 13.8333C12.5003 14.2917 12.6635 14.684 12.9899 15.0104C13.3163 15.3368 13.7087 15.5 14.167 15.5ZM8.33366 8.83333C8.79199 8.83333 9.18435 8.67013 9.51074 8.34374C9.83713 8.01736 10.0003 7.62499 10.0003 7.16666C10.0003 6.70833 9.83713 6.31597 9.51074 5.98958C9.18435 5.66319 8.79199 5.49999 8.33366 5.49999C7.87533 5.49999 7.48296 5.66319 7.15658 5.98958C6.83019 6.31597 6.66699 6.70833 6.66699 7.16666C6.66699 7.62499 6.83019 8.01736 7.15658 8.34374C7.48296 8.67013 7.87533 8.83333 8.33366 8.83333Z" fill="#394F89" stroke="white" stroke-width="0.6"/>
</svg>
