<svg width="20" height="20" viewBox="0 0 20 20" fill="none" xmlns="http://www.w3.org/2000/svg">
<path d="M3.75 14.3392V15.8334C3.75 15.9439 3.7939 16.0499 3.87204 16.128C3.95018 16.2061 4.05616 16.25 4.16667 16.25H5.66083C5.77113 16.25 5.87691 16.2063 5.955 16.1284L13.0383 9.04504L10.955 6.9617L3.87167 14.045C3.79378 14.1231 3.75002 14.2289 3.75 14.3392ZM12.575 5.3417L14.6583 7.42504L15.6608 6.42254C15.8171 6.26626 15.9048 6.05434 15.9048 5.83337C15.9048 5.6124 15.8171 5.40048 15.6608 5.2442L14.7558 4.3392C14.5996 4.18298 14.3876 4.09521 14.1667 4.09521C13.9457 4.09521 13.7338 4.18298 13.5775 4.3392L12.575 5.3417Z" stroke="#495555"/>
</svg>
