<svg width="41" height="41" viewBox="0 0 41 41" fill="none" xmlns="http://www.w3.org/2000/svg">
<path fill-rule="evenodd" clip-rule="evenodd" d="M29.6354 34.4441C30.2491 34.4441 30.7465 34.9416 30.7465 35.5552C30.7465 36.1689 30.2491 36.6663 29.6354 36.6663H19.6354C19.5701 36.6663 19.5061 36.6607 19.4439 36.6499C15.8746 36.4924 12.597 35.2123 9.9555 33.1541C9.74066 32.9867 9.4169 32.7092 9.17695 32.5004C8.97174 32.3218 8.70946 32.2219 8.43743 32.2219H5.74653C5.13288 32.2219 4.63542 31.7244 4.63542 31.1108C4.63542 30.4971 5.13288 29.9997 5.74653 29.9997H6.85764C7.47129 29.9997 7.96875 29.5022 7.96875 28.8886C7.96875 28.2749 7.47129 27.7775 6.85764 27.7775H4.07986C3.46621 27.7775 2.96875 27.28 2.96875 26.6663C2.96875 26.0527 3.46621 25.5552 4.07986 25.5552H4.63542C5.24907 25.5552 5.74653 25.0578 5.74653 24.4441C5.74653 23.8305 5.24907 23.333 4.63542 23.333C4.18614 23.333 3.80187 23.0092 3.72712 22.5661C3.69996 22.4052 3.67838 22.2756 3.67482 22.2492C3.57556 21.5135 3.52431 20.7626 3.52431 19.9997C3.52431 10.7949 10.9862 3.33301 20.191 3.33301C22.9687 3.33301 25.7465 3.33301 28.5243 3.33301C29.138 3.33301 29.6354 3.83047 29.6354 4.44412C29.6354 5.05777 29.138 5.55523 28.5243 5.55523H26.8576C26.244 5.55523 25.7465 6.05269 25.7465 6.66634C25.7465 7.27999 26.244 7.77745 26.8576 7.77745H33.5243C34.138 7.77745 34.6354 8.27491 34.6354 8.88856C34.6354 9.50181 34.1386 9.99901 33.5255 9.99967L31.8576 9.99967C31.244 9.99967 30.7465 10.4971 30.7465 11.1108C30.7465 11.7244 31.244 12.2219 31.8576 12.2219H34.2499C34.6701 12.2219 35.0552 12.4585 35.2374 12.8371C35.3469 13.0647 35.4621 13.3102 35.5374 13.4876C36.3874 15.4882 36.8576 17.689 36.8576 19.9997C36.8576 20.7257 36.8112 21.4409 36.7212 22.1424C36.706 22.2604 36.6828 22.4118 36.6575 22.5668C36.585 23.0115 36.1971 23.333 35.7465 23.333C35.1329 23.333 34.6354 23.8305 34.6354 24.4441C34.6354 25.0578 35.1329 25.5552 35.7465 25.5552H36.3021C36.9157 25.5552 37.4132 26.0527 37.4132 26.6663C37.4132 27.28 36.9157 27.7775 36.3021 27.7775H35.5888C35.1855 27.7775 34.8145 27.9965 34.613 28.3459C34.4821 28.5728 34.3366 28.8197 34.2285 28.9882C33.9751 29.3832 33.7054 29.7668 33.4205 30.138C33.1344 30.5108 32.8328 30.8712 32.5168 31.2182C32.3433 31.4087 32.0624 31.6908 31.8432 31.9075C31.6382 32.1102 31.361 32.2219 31.0727 32.2219H27.9687C27.3551 32.2219 26.8576 32.7194 26.8576 33.333C26.8576 33.9424 27.3482 34.4372 27.9559 34.444L29.6354 34.4441Z" fill="url(#paint0_linear_3072_18412)"/>
<g opacity="0.1">
<path fill-rule="evenodd" clip-rule="evenodd" d="M18.5245 7.04298C19.556 6.44744 20.8269 6.44744 21.8584 7.04298L30.5793 12.078C31.6108 12.6735 32.2462 13.7741 32.2462 14.9652V25.0352C32.2462 26.2263 31.6108 27.3269 30.5793 27.9224L21.8584 32.9574C20.8269 33.5529 19.556 33.5529 18.5245 32.9574L9.80364 27.9224C8.77214 27.3269 8.13672 26.2263 8.13672 25.0352L8.13672 14.9652C8.13672 13.7741 8.77215 12.6735 9.80364 12.078L18.5245 7.04298Z" fill="#7705A4" style="mix-blend-mode:multiply"/>
</g>
<g filter="url(#filter0_d_3072_18412)">
<path fill-rule="evenodd" clip-rule="evenodd" d="M12.4141 18.334H21.3029V35.2127C21.3029 35.6258 20.8683 35.8944 20.4988 35.7097L16.8585 33.8895L13.2182 35.7097C12.8487 35.8944 12.4141 35.6258 12.4141 35.2127V18.334Z" fill="#32B4FF"/>
</g>
<g filter="url(#filter1_d_3072_18412)">
<path fill-rule="evenodd" clip-rule="evenodd" d="M19.082 18.334H27.9709V35.2127C27.9709 35.6258 27.5362 35.8944 27.1668 35.7097L23.5265 33.8895L19.8862 35.7097C19.5167 35.8944 19.082 35.6258 19.082 35.2127V18.334Z" fill="#32B4FF"/>
</g>
<g filter="url(#filter2_d_3072_18412)">
<path fill-rule="evenodd" clip-rule="evenodd" d="M15.7461 21.1113H24.635V37.9901C24.635 38.4031 24.2003 38.6718 23.8309 38.487L20.1905 36.6669L16.5502 38.487C16.1808 38.6718 15.7461 38.4031 15.7461 37.9901V21.1113Z" fill="white"/>
</g>
<mask id="mask0_3072_18412" style="mask-type:luminance" maskUnits="userSpaceOnUse" x="15" y="21" width="10" height="18">
<path fill-rule="evenodd" clip-rule="evenodd" d="M15.7461 21.1113H24.635V37.9901C24.635 38.4031 24.2003 38.6718 23.8309 38.487L20.1905 36.6669L16.5502 38.487C16.1808 38.6718 15.7461 38.4031 15.7461 37.9901V21.1113Z" fill="white"/>
</mask>
<g mask="url(#mask0_3072_18412)">
<rect x="17.9688" y="21.1113" width="4.44445" height="17.7778" fill="#F55462"/>
</g>
<path style="mix-blend-mode:multiply" opacity="0.2" fill-rule="evenodd" clip-rule="evenodd" d="M19.0796 8.97458C19.7673 8.57756 20.6145 8.57755 21.3022 8.97458L30.1455 14.0803C30.8331 14.4773 31.2568 15.211 31.2568 16.0051V26.2164C31.2568 27.0105 30.8331 27.7442 30.1455 28.1412L21.3022 33.2469C20.6145 33.644 19.7673 33.644 19.0796 33.2469L10.2363 28.1412C9.54862 27.7442 9.125 27.0105 9.125 26.2164L9.125 16.0051C9.125 15.211 9.54862 14.4773 10.2363 14.0803L19.0796 8.97458Z" fill="#7705A4"/>
<path fill-rule="evenodd" clip-rule="evenodd" d="M30.1949 12.5986C30.1949 12.3714 30.3332 12.1671 30.5442 12.0827L32.5155 11.2942C32.7344 11.2066 32.9727 11.3679 32.9727 11.6037V20.1796C32.9727 20.4068 32.8343 20.6111 32.6234 20.6955L30.1949 21.6669V12.5986Z" fill="url(#paint1_linear_3072_18412)" stroke="url(#paint2_linear_3072_18412)" stroke-width="0.55564" stroke-linecap="round" stroke-linejoin="round"/>
<mask id="mask1_3072_18412" style="mask-type:luminance" maskUnits="userSpaceOnUse" x="29" y="10" width="5" height="12">
<path fill-rule="evenodd" clip-rule="evenodd" d="M30.1949 12.5986C30.1949 12.3714 30.3332 12.1671 30.5442 12.0827L32.5155 11.2942C32.7344 11.2066 32.9727 11.3679 32.9727 11.6037V20.1796C32.9727 20.4068 32.8343 20.6111 32.6234 20.6955L30.1949 21.6669V12.5986Z" fill="white" stroke="white" stroke-width="0.55564" stroke-linecap="round" stroke-linejoin="round"/>
</mask>
<g mask="url(#mask1_3072_18412)">
<g style="mix-blend-mode:multiply" opacity="0.6" filter="url(#filter3_i_3072_18412)">
<path d="M30.4713 16.0189L33.6337 14.7013C33.7753 14.6422 33.8423 14.4796 33.7832 14.338C33.7242 14.1964 33.5616 14.1294 33.42 14.1884L30.0867 15.5773C29.9832 15.6205 30.4713 16.0189 30.4713 16.0189Z" fill="#FABC10"/>
</g>
<g style="mix-blend-mode:multiply" opacity="0.6" filter="url(#filter4_i_3072_18412)">
<path d="M30.4713 19.3519L33.6337 18.0343C33.7753 17.9753 33.8423 17.8126 33.7832 17.671C33.7242 17.5294 33.5616 17.4624 33.42 17.5214L30.0867 18.9103C29.9832 18.9535 30.4713 19.3519 30.4713 19.3519Z" fill="#FABC10"/>
</g>
<g opacity="0.04">
<path fill-rule="evenodd" clip-rule="evenodd" d="M21.8583 7.04298C20.8268 6.44744 19.5559 6.44744 18.5244 7.04298L9.80354 12.078C8.77205 12.6735 8.13663 13.7741 8.13663 14.9652V25.0352C8.13663 26.2263 8.77205 27.3269 9.80355 27.9224L18.5244 32.9574C19.5559 33.5529 20.8268 33.5529 21.8583 32.9574L30.5792 27.9224C31.6107 27.3269 32.2461 26.2263 32.2461 25.0352L32.2461 14.9652C32.2461 13.7741 31.6107 12.6735 30.5792 12.078L21.8583 7.04298Z" fill="#7705A4" style="mix-blend-mode:multiply"/>
</g>
</g>
<path fill-rule="evenodd" clip-rule="evenodd" d="M10.1918 12.5986C10.1918 12.3714 10.0535 12.1671 9.84256 12.0827L7.87126 11.2942C7.65227 11.2066 7.41406 11.3679 7.41406 11.6037V20.1796C7.41406 20.4068 7.55239 20.6111 7.76334 20.6955L10.1918 21.6669V12.5986Z" fill="url(#paint3_linear_3072_18412)" stroke="url(#paint4_linear_3072_18412)" stroke-width="0.55564" stroke-linecap="round" stroke-linejoin="round"/>
<mask id="mask2_3072_18412" style="mask-type:luminance" maskUnits="userSpaceOnUse" x="7" y="10" width="4" height="12">
<path fill-rule="evenodd" clip-rule="evenodd" d="M10.1918 12.5986C10.1918 12.3714 10.0535 12.1671 9.84256 12.0827L7.87126 11.2942C7.65227 11.2066 7.41406 11.3679 7.41406 11.6037V20.1796C7.41406 20.4068 7.55239 20.6111 7.76334 20.6955L10.1918 21.6669V12.5986Z" fill="white" stroke="white" stroke-width="0.55564" stroke-linecap="round" stroke-linejoin="round"/>
</mask>
<g mask="url(#mask2_3072_18412)">
<g style="mix-blend-mode:multiply" opacity="0.6" filter="url(#filter5_i_3072_18412)">
<path d="M9.91544 16.0189L6.75304 14.7013C6.61143 14.6422 6.54447 14.4796 6.60347 14.338C6.66248 14.1964 6.82511 14.1294 6.96672 14.1884L10.3001 15.5773C10.4036 15.6205 9.91544 16.0189 9.91544 16.0189Z" fill="#FABC10"/>
</g>
<g style="mix-blend-mode:multiply" opacity="0.6" filter="url(#filter6_i_3072_18412)">
<path d="M9.91544 19.3519L6.75304 18.0343C6.61143 17.9753 6.54447 17.8126 6.60347 17.671C6.66248 17.5294 6.82511 17.4624 6.96672 17.5214L10.3001 18.9103C10.4036 18.9535 9.91544 19.3519 9.91544 19.3519Z" fill="#FABC10"/>
</g>
<g opacity="0.04">
<path fill-rule="evenodd" clip-rule="evenodd" d="M18.5245 7.04298C19.556 6.44744 20.8269 6.44744 21.8584 7.04298L30.5793 12.078C31.6108 12.6735 32.2462 13.7741 32.2462 14.9652V25.0352C32.2462 26.2263 31.6108 27.3269 30.5793 27.9224L21.8584 32.9574C20.8269 33.5529 19.556 33.5529 18.5245 32.9574L9.80364 27.9224C8.77214 27.3269 8.13672 26.2263 8.13672 25.0352L8.13672 14.9652C8.13672 13.7741 8.77215 12.6735 9.80364 12.078L18.5245 7.04298Z" fill="#7705A4" style="mix-blend-mode:multiply"/>
</g>
</g>
<path fill-rule="evenodd" clip-rule="evenodd" d="M27.9696 9.62509C27.9696 9.25594 27.6163 8.98942 27.2613 9.09083L20.1918 11.1107L13.1223 9.09083C12.7674 8.98942 12.4141 9.25594 12.4141 9.62509V17.7773C12.4141 18.0841 12.6628 18.3329 12.9697 18.3329H27.414C27.7208 18.3329 27.9696 18.0841 27.9696 17.7773V9.62509Z" fill="url(#paint5_linear_3072_18412)" stroke="url(#paint6_linear_3072_18412)" stroke-width="0.55564" stroke-linecap="round" stroke-linejoin="round"/>
<path fill-rule="evenodd" clip-rule="evenodd" d="M19.0806 7.86328C19.7682 7.46626 20.6155 7.46626 21.3031 7.86328L30.1464 12.969C30.8341 13.366 31.2577 14.0997 31.2577 14.8938V25.1051C31.2577 25.8992 30.8341 26.6329 30.1464 27.0299L21.3031 32.1356C20.6155 32.5327 19.7682 32.5327 19.0806 32.1356L10.2372 27.0299C9.54958 26.6329 9.12596 25.8992 9.12596 25.1051V14.8938C9.12596 14.0997 9.54958 13.366 10.2372 12.969L19.0806 7.86328Z" fill="url(#paint7_linear_3072_18412)" stroke="#FFF04D" stroke-opacity="0.4" stroke-width="0.55564"/>
<g style="mix-blend-mode:multiply" opacity="0.8" filter="url(#filter7_i_3072_18412)">
<path fill-rule="evenodd" clip-rule="evenodd" d="M28.8989 13.9931L21.0353 9.4477C20.5139 9.14634 19.8716 9.14634 19.3503 9.4477L11.4867 13.9931C10.9653 14.2944 10.6441 14.8514 10.6441 15.4541V18.7338L10.0072 19.6904C9.88301 19.8769 9.88301 20.1198 10.0072 20.3063L10.6441 21.2628V24.5448C10.6441 25.1475 10.9653 25.7045 11.4867 26.0058L19.3503 30.5512C19.8716 30.8526 20.5139 30.8526 21.0353 30.5512L28.8989 26.0058C29.4202 25.7045 29.7414 25.1475 29.7414 24.5448V21.2647L30.3796 20.3063C30.5038 20.1198 30.5038 19.8769 30.3796 19.6904L29.7414 18.7319V15.4541C29.7414 14.8514 29.4202 14.2944 28.8989 13.9931ZM11.2063 21.2637V24.5452C11.2063 24.947 11.4204 25.3183 11.768 25.5192L19.6316 30.0646C19.9791 30.2655 20.4074 30.2655 20.7549 30.0646L28.6185 25.5192C28.9661 25.3183 29.1802 24.947 29.1802 24.5452V21.2631L28.543 20.3063C28.4188 20.1198 28.4188 19.8769 28.543 19.6904L29.1802 18.7335V15.4544C29.1802 15.0526 28.9661 14.6813 28.6185 14.4804L20.7549 9.93505C20.4074 9.73415 19.9791 9.73415 19.6316 9.93505L11.768 14.4804C11.4204 14.6813 11.2063 15.0526 11.2063 15.4544V18.733L11.8438 19.6904C11.968 19.8769 11.968 20.1198 11.8438 20.3063L11.2063 21.2637Z" fill="#FABC10"/>
</g>
<path d="M21.1666 8.10328C20.565 7.75594 19.8237 7.75594 19.2221 8.10328L10.3785 13.2092C9.77686 13.5565 9.40625 14.1984 9.40625 14.8931L9.40625 25.1049C9.40625 25.7996 9.77686 26.4415 10.3785 26.7888L19.2221 31.8947C19.8237 32.2421 20.565 32.2421 21.1666 31.8947L30.0102 26.7888C30.6118 26.4415 30.9825 25.7996 30.9825 25.1049V14.8931C30.9825 14.1984 30.6118 13.5565 30.0102 13.2092L21.1666 8.10328Z" stroke="#F9B307" stroke-width="0.55564"/>
<path opacity="0.4" d="M21.168 31.8956C22.2081 31.2951 22.945 30.8696 23.3789 30.6191" stroke="white" stroke-width="0.55564" stroke-linecap="round"/>
<path d="M30.9825 25.1049V14.8931C30.9825 14.1984 30.6118 13.5565 30.0102 13.2092L21.1666 8.10328C20.565 7.75594 19.8237 7.75594 19.2221 8.10328L10.3785 13.2092C9.77686 13.5565 9.40625 14.1984 9.40625 14.8931L9.40625 25.1049" stroke="#FAC00E" stroke-width="0.55564" stroke-linecap="round"/>
<path opacity="0.6" d="M30.9825 14.8931C30.9825 14.1984 30.6118 13.5565 30.0102 13.2092L21.1666 8.10328C20.565 7.75594 19.8237 7.75594 19.2221 8.10328L10.3785 13.2092C9.77686 13.5565 9.40625 14.1984 9.40625 14.8931" stroke="#FDDB3D" stroke-width="0.55564" stroke-linecap="round"/>
<path opacity="0.6" d="M21.1631 8.10328C20.5615 7.75594 19.8203 7.75594 19.2187 8.10328C19.2187 8.10328 16.2708 9.80524 14.7969 10.6562" stroke="white" stroke-width="0.55564" stroke-linecap="round"/>
<path d="M19.2187 8.10352C19.2187 8.10352 17.6586 9.00426 17.0078 9.37999" stroke="white" stroke-width="0.55564" stroke-linecap="round"/>
<g filter="url(#filter8_d_3072_18412)">
<path fill-rule="evenodd" clip-rule="evenodd" d="M19.634 11.4312C19.9779 11.2326 20.4015 11.2326 20.7453 11.4312L27.332 15.234C27.6759 15.4325 27.8877 15.7994 27.8877 16.1964V23.8021C27.8877 24.1991 27.6759 24.566 27.332 24.7645L20.7453 28.5673C20.4015 28.7658 19.9779 28.7658 19.634 28.5673L13.0473 24.7645C12.7035 24.566 12.4917 24.1991 12.4917 23.8021V16.1964C12.4917 15.7994 12.7035 15.4325 13.0473 15.234L19.634 11.4312Z" fill="url(#paint8_linear_3072_18412)"/>
<path d="M20.8842 11.1906C20.4544 10.9424 19.9249 10.9424 19.4951 11.1906L12.9084 14.9934C12.4786 15.2415 12.2138 15.7001 12.2138 16.1964V23.8021C12.2138 24.2984 12.4786 24.7569 12.9084 25.0051L19.4951 28.8079C19.9249 29.0561 20.4544 29.0561 20.8842 28.8079L27.4709 25.0051C27.9007 24.7569 28.1655 24.2984 28.1655 23.8021V16.1964C28.1655 15.7001 27.9007 15.2415 27.4709 14.9934L20.8842 11.1906Z" stroke="#F5900D" stroke-opacity="0.1" stroke-width="0.55564" style="mix-blend-mode:multiply"/>
</g>
<mask id="mask3_3072_18412" style="mask-type:luminance" maskUnits="userSpaceOnUse" x="12" y="11" width="16" height="18">
<path fill-rule="evenodd" clip-rule="evenodd" d="M19.634 11.4312C19.9779 11.2326 20.4015 11.2326 20.7453 11.4312L27.332 15.234C27.6759 15.4325 27.8877 15.7994 27.8877 16.1964V23.8021C27.8877 24.1991 27.6759 24.566 27.332 24.7645L20.7453 28.5673C20.4015 28.7658 19.9779 28.7658 19.634 28.5673L13.0473 24.7645C12.7035 24.566 12.4917 24.1991 12.4917 23.8021V16.1964C12.4917 15.7994 12.7035 15.4325 13.0473 15.234L19.634 11.4312Z" fill="white"/>
</mask>
<g mask="url(#mask3_3072_18412)">
<g style="mix-blend-mode:multiply" opacity="0.3">
<path fill-rule="evenodd" clip-rule="evenodd" d="M20.1919 19.9945L22.4129 11.1104H17.9685L20.1902 19.9973L20.1898 19.9979L15.4766 12.1426L12.3339 15.2853L20.1894 19.9986L20.1891 19.9992L11.3008 17.7771V22.2215L20.188 19.9997L12.3319 24.7134L15.4746 27.8561L20.1885 19.9996L20.1891 19.9994L17.967 28.8881H22.4114L20.1892 19.9994L20.1893 19.9994L24.9033 27.8559L28.046 24.7132L20.1895 19.9994L20.1897 19.9993L20.1892 19.9992L20.1891 19.9992L20.1897 19.9987L20.1904 19.9991L20.1902 19.9992L20.1907 19.9993L29.0791 22.2214V17.777L20.1907 19.999L20.191 19.998L28.0458 15.2851L24.9031 12.1424L20.1919 19.9945ZM20.1905 19.9991L20.1906 19.9991L20.1905 19.9983L20.1902 19.9985L20.1905 19.9991Z" fill="#FFD640"/>
</g>
<path opacity="0.4" d="M27.1946 15.4751L20.6077 11.6722C20.3499 11.5233 20.0322 11.5233 19.7744 11.6722C18.9997 12.1195 18.4508 12.4364 18.1277 12.6229C17.4552 13.0112 16.9063 13.3281 16.4809 13.5737C15.7491 13.9962 14.6513 14.63 13.1875 15.4751" stroke="white" stroke-width="0.55564" stroke-linecap="round"/>
<path opacity="0.4" d="M27.1937 24.5053L20.6068 28.3083C20.3489 28.4571 20.0313 28.4571 19.7734 28.3083" stroke="white" stroke-width="0.55564" stroke-linecap="round"/>
<path d="M19.7756 11.6719C19.001 12.1191 18.452 12.436 18.1289 12.6226" stroke="white" stroke-width="0.55564" stroke-linecap="round"/>
</g>
<g filter="url(#filter9_d_3072_18412)">
<path fill-rule="evenodd" clip-rule="evenodd" d="M20.1905 15L24.635 20L20.1905 25L15.7461 20L20.1905 15Z" fill="white"/>
<path d="M20.6058 14.6309C20.5004 14.5122 20.3492 14.4444 20.1905 14.4444C20.0318 14.4444 19.8807 14.5122 19.7752 14.6309L15.3308 19.6309C15.1437 19.8414 15.1437 20.1586 15.3308 20.3691L19.7752 25.3691C19.8807 25.4878 20.0318 25.5556 20.1905 25.5556C20.3492 25.5556 20.5004 25.4878 20.6058 25.3691L25.0503 20.3691C25.2374 20.1586 25.2374 19.8414 25.0503 19.6309L20.6058 14.6309Z" stroke="white" stroke-width="1.11128" stroke-linejoin="round"/>
</g>
<path fill-rule="evenodd" clip-rule="evenodd" d="M20.1905 15L24.635 20H15.7461L20.1905 15Z" fill="url(#paint9_linear_3072_18412)"/>
<path fill-rule="evenodd" clip-rule="evenodd" d="M20.1905 25L24.635 20H15.7461L20.1905 25Z" fill="url(#paint10_linear_3072_18412)"/>
<path fill-rule="evenodd" clip-rule="evenodd" d="M20.1897 15L18.0469 20H22.3326L20.1897 15Z" fill="url(#paint11_linear_3072_18412)"/>
<path fill-rule="evenodd" clip-rule="evenodd" d="M20.1897 25L18.0469 20H22.3326L20.1897 25Z" fill="url(#paint12_linear_3072_18412)"/>
<g filter="url(#filter10_d_3072_18412)">
<path fill-rule="evenodd" clip-rule="evenodd" d="M26.2522 16.5453L25.9636 16.4315C25.7872 16.3619 25.7005 16.1624 25.7701 15.986C25.805 15.8975 25.8751 15.8274 25.9636 15.7925L26.2522 15.6787C26.5849 15.5475 26.8482 15.2841 26.9795 14.9514L27.0933 14.6629C27.1628 14.4864 27.3623 14.3998 27.5388 14.4694C27.6273 14.5043 27.6974 14.5743 27.7323 14.6629L27.8461 14.9514C27.9773 15.2841 28.2407 15.5475 28.5734 15.6787L28.8619 15.7925C29.0383 15.8621 29.125 16.0615 29.0554 16.238C29.0205 16.3265 28.9504 16.3966 28.8619 16.4315L28.5734 16.5453C28.2407 16.6765 27.9773 16.9399 27.8461 17.2726L27.7323 17.5611C27.6627 17.7376 27.4632 17.8242 27.2867 17.7546C27.1982 17.7197 27.1282 17.6496 27.0933 17.5611L26.9795 17.2726C26.8482 16.9399 26.5849 16.6765 26.2522 16.5453Z" fill="white"/>
</g>
<g filter="url(#filter11_d_3072_18412)">
<path fill-rule="evenodd" clip-rule="evenodd" d="M14.9702 25.2896L14.7778 25.2138C14.6602 25.1674 14.6024 25.0344 14.6488 24.9168C14.6721 24.8577 14.7188 24.811 14.7778 24.7878L14.9702 24.7119C15.192 24.6244 15.3676 24.4488 15.4551 24.227L15.5309 24.0347C15.5773 23.917 15.7103 23.8593 15.8279 23.9057C15.8869 23.929 15.9337 23.9757 15.9569 24.0347L16.0328 24.227C16.1203 24.4488 16.2959 24.6244 16.5177 24.7119L16.71 24.7878C16.8276 24.8342 16.8854 24.9671 16.839 25.0848C16.8157 25.1438 16.769 25.1905 16.71 25.2138L16.5177 25.2896C16.2959 25.3771 16.1203 25.5527 16.0328 25.7745L15.9569 25.9668C15.9105 26.0845 15.7776 26.1422 15.6599 26.0958C15.6009 26.0726 15.5542 26.0259 15.5309 25.9668L15.4551 25.7745C15.3676 25.5527 15.192 25.3771 14.9702 25.2896Z" fill="white"/>
</g>
<g filter="url(#filter12_d_3072_18412)">
<path fill-rule="evenodd" clip-rule="evenodd" d="M11.7225 17.3066L11.4821 17.2118C11.335 17.1538 11.2628 16.9876 11.3208 16.8405C11.3499 16.7668 11.4083 16.7084 11.4821 16.6793L11.7225 16.5844C11.9998 16.4751 12.2192 16.2556 12.3286 15.9784L12.4234 15.7379C12.4814 15.5909 12.6476 15.5187 12.7947 15.5767C12.8684 15.6058 12.9268 15.6642 12.9559 15.7379L13.0508 15.9784C13.1601 16.2556 13.3796 16.4751 13.6568 16.5844L13.8973 16.6793C14.0443 16.7373 14.1165 16.9035 14.0585 17.0505C14.0294 17.1243 13.971 17.1827 13.8973 17.2118L13.6568 17.3066C13.3796 17.416 13.1601 17.6354 13.0508 17.9127L12.9559 18.1531C12.8979 18.3002 12.7317 18.3724 12.5847 18.3144C12.5109 18.2853 12.4525 18.2269 12.4234 18.1531L12.3286 17.9127C12.2192 17.6354 11.9998 17.416 11.7225 17.3066Z" fill="white"/>
</g>
<g filter="url(#filter13_d_3072_18412)">
<path fill-rule="evenodd" clip-rule="evenodd" d="M25.9991 25.4953L25.8549 25.4384C25.7666 25.4036 25.7233 25.3039 25.7581 25.2156C25.7756 25.1714 25.8106 25.1363 25.8549 25.1189L25.9991 25.062C26.1655 24.9964 26.2972 24.8647 26.3628 24.6983L26.4197 24.5541C26.4545 24.4659 26.5542 24.4225 26.6424 24.4573C26.6867 24.4748 26.7217 24.5098 26.7392 24.5541L26.7961 24.6983C26.8617 24.8647 26.9934 24.9964 27.1597 25.062L27.304 25.1189C27.3922 25.1537 27.4355 25.2534 27.4007 25.3417C27.3833 25.3859 27.3482 25.4209 27.304 25.4384L27.1597 25.4953C26.9934 25.5609 26.8617 25.6926 26.7961 25.859L26.7392 26.0032C26.7044 26.0914 26.6047 26.1348 26.5164 26.1C26.4722 26.0825 26.4371 26.0475 26.4197 26.0032L26.3628 25.859C26.2972 25.6926 26.1655 25.5609 25.9991 25.4953Z" fill="white"/>
</g>
<defs>
<filter id="filter0_d_3072_18412" x="11.3028" y="18.334" width="11.1132" height="19.6581" filterUnits="userSpaceOnUse" color-interpolation-filters="sRGB">
<feFlood flood-opacity="0" result="BackgroundImageFix"/>
<feColorMatrix in="SourceAlpha" type="matrix" values="0 0 0 0 0 0 0 0 0 0 0 0 0 0 0 0 0 0 127 0" result="hardAlpha"/>
<feOffset dy="1.11128"/>
<feGaussianBlur stdDeviation="0.55564"/>
<feColorMatrix type="matrix" values="0 0 0 0 0.309804 0 0 0 0 0.247059 0 0 0 0 0.866667 0 0 0 0.2 0"/>
<feBlend mode="darken" in2="BackgroundImageFix" result="effect1_dropShadow_3072_18412"/>
<feBlend mode="normal" in="SourceGraphic" in2="effect1_dropShadow_3072_18412" result="shape"/>
</filter>
<filter id="filter1_d_3072_18412" x="17.9708" y="18.334" width="11.1132" height="19.6581" filterUnits="userSpaceOnUse" color-interpolation-filters="sRGB">
<feFlood flood-opacity="0" result="BackgroundImageFix"/>
<feColorMatrix in="SourceAlpha" type="matrix" values="0 0 0 0 0 0 0 0 0 0 0 0 0 0 0 0 0 0 127 0" result="hardAlpha"/>
<feOffset dy="1.11128"/>
<feGaussianBlur stdDeviation="0.55564"/>
<feColorMatrix type="matrix" values="0 0 0 0 0.309804 0 0 0 0 0.247059 0 0 0 0 0.866667 0 0 0 0.2 0"/>
<feBlend mode="darken" in2="BackgroundImageFix" result="effect1_dropShadow_3072_18412"/>
<feBlend mode="normal" in="SourceGraphic" in2="effect1_dropShadow_3072_18412" result="shape"/>
</filter>
<filter id="filter2_d_3072_18412" x="14.6348" y="21.1113" width="11.1132" height="19.6581" filterUnits="userSpaceOnUse" color-interpolation-filters="sRGB">
<feFlood flood-opacity="0" result="BackgroundImageFix"/>
<feColorMatrix in="SourceAlpha" type="matrix" values="0 0 0 0 0 0 0 0 0 0 0 0 0 0 0 0 0 0 127 0" result="hardAlpha"/>
<feOffset dy="1.11128"/>
<feGaussianBlur stdDeviation="0.55564"/>
<feColorMatrix type="matrix" values="0 0 0 0 0.309804 0 0 0 0 0.247059 0 0 0 0 0.866667 0 0 0 0.2 0"/>
<feBlend mode="darken" in2="BackgroundImageFix" result="effect1_dropShadow_3072_18412"/>
<feBlend mode="normal" in="SourceGraphic" in2="effect1_dropShadow_3072_18412" result="shape"/>
</filter>
<filter id="filter3_i_3072_18412" x="30.0703" y="14.167" width="3.73438" height="2.4072" filterUnits="userSpaceOnUse" color-interpolation-filters="sRGB">
<feFlood flood-opacity="0" result="BackgroundImageFix"/>
<feBlend mode="normal" in="SourceGraphic" in2="BackgroundImageFix" result="shape"/>
<feColorMatrix in="SourceAlpha" type="matrix" values="0 0 0 0 0 0 0 0 0 0 0 0 0 0 0 0 0 0 127 0" result="hardAlpha"/>
<feOffset dy="0.55564"/>
<feGaussianBlur stdDeviation="0.27782"/>
<feComposite in2="hardAlpha" operator="arithmetic" k2="-1" k3="1"/>
<feColorMatrix type="matrix" values="0 0 0 0 0.976471 0 0 0 0 0.713726 0 0 0 0 0.0352941 0 0 0 1 0"/>
<feBlend mode="normal" in2="shape" result="effect1_innerShadow_3072_18412"/>
</filter>
<filter id="filter4_i_3072_18412" x="30.0703" y="17.5" width="3.73438" height="2.4072" filterUnits="userSpaceOnUse" color-interpolation-filters="sRGB">
<feFlood flood-opacity="0" result="BackgroundImageFix"/>
<feBlend mode="normal" in="SourceGraphic" in2="BackgroundImageFix" result="shape"/>
<feColorMatrix in="SourceAlpha" type="matrix" values="0 0 0 0 0 0 0 0 0 0 0 0 0 0 0 0 0 0 127 0" result="hardAlpha"/>
<feOffset dy="0.55564"/>
<feGaussianBlur stdDeviation="0.27782"/>
<feComposite in2="hardAlpha" operator="arithmetic" k2="-1" k3="1"/>
<feColorMatrix type="matrix" values="0 0 0 0 0.976471 0 0 0 0 0.713726 0 0 0 0 0.0352941 0 0 0 1 0"/>
<feBlend mode="normal" in2="shape" result="effect1_innerShadow_3072_18412"/>
</filter>
<filter id="filter5_i_3072_18412" x="6.58203" y="14.167" width="3.73438" height="2.4072" filterUnits="userSpaceOnUse" color-interpolation-filters="sRGB">
<feFlood flood-opacity="0" result="BackgroundImageFix"/>
<feBlend mode="normal" in="SourceGraphic" in2="BackgroundImageFix" result="shape"/>
<feColorMatrix in="SourceAlpha" type="matrix" values="0 0 0 0 0 0 0 0 0 0 0 0 0 0 0 0 0 0 127 0" result="hardAlpha"/>
<feOffset dy="0.55564"/>
<feGaussianBlur stdDeviation="0.27782"/>
<feComposite in2="hardAlpha" operator="arithmetic" k2="-1" k3="1"/>
<feColorMatrix type="matrix" values="0 0 0 0 0.976471 0 0 0 0 0.713726 0 0 0 0 0.0352941 0 0 0 1 0"/>
<feBlend mode="normal" in2="shape" result="effect1_innerShadow_3072_18412"/>
</filter>
<filter id="filter6_i_3072_18412" x="6.58203" y="17.5" width="3.73438" height="2.4072" filterUnits="userSpaceOnUse" color-interpolation-filters="sRGB">
<feFlood flood-opacity="0" result="BackgroundImageFix"/>
<feBlend mode="normal" in="SourceGraphic" in2="BackgroundImageFix" result="shape"/>
<feColorMatrix in="SourceAlpha" type="matrix" values="0 0 0 0 0 0 0 0 0 0 0 0 0 0 0 0 0 0 127 0" result="hardAlpha"/>
<feOffset dy="0.55564"/>
<feGaussianBlur stdDeviation="0.27782"/>
<feComposite in2="hardAlpha" operator="arithmetic" k2="-1" k3="1"/>
<feColorMatrix type="matrix" values="0 0 0 0 0.976471 0 0 0 0 0.713726 0 0 0 0 0.0352941 0 0 0 1 0"/>
<feBlend mode="normal" in2="shape" result="effect1_innerShadow_3072_18412"/>
</filter>
<filter id="filter7_i_3072_18412" x="9.91406" y="9.22168" width="20.5586" height="22.1113" filterUnits="userSpaceOnUse" color-interpolation-filters="sRGB">
<feFlood flood-opacity="0" result="BackgroundImageFix"/>
<feBlend mode="normal" in="SourceGraphic" in2="BackgroundImageFix" result="shape"/>
<feColorMatrix in="SourceAlpha" type="matrix" values="0 0 0 0 0 0 0 0 0 0 0 0 0 0 0 0 0 0 127 0" result="hardAlpha"/>
<feOffset dy="0.55564"/>
<feGaussianBlur stdDeviation="0.27782"/>
<feComposite in2="hardAlpha" operator="arithmetic" k2="-1" k3="1"/>
<feColorMatrix type="matrix" values="0 0 0 0 0.976471 0 0 0 0 0.713726 0 0 0 0 0.0352941 0 0 0 1 0"/>
<feBlend mode="normal" in2="shape" result="effect1_innerShadow_3072_18412"/>
</filter>
<filter id="filter8_d_3072_18412" x="10.8262" y="10.1709" width="18.7265" height="20.7675" filterUnits="userSpaceOnUse" color-interpolation-filters="sRGB">
<feFlood flood-opacity="0" result="BackgroundImageFix"/>
<feColorMatrix in="SourceAlpha" type="matrix" values="0 0 0 0 0 0 0 0 0 0 0 0 0 0 0 0 0 0 127 0" result="hardAlpha"/>
<feOffset dy="0.55564"/>
<feGaussianBlur stdDeviation="0.55564"/>
<feColorMatrix type="matrix" values="0 0 0 0 0.927721 0 0 0 0 0.665867 0 0 0 0 0.0535899 0 0 0 0.4 0"/>
<feBlend mode="normal" in2="BackgroundImageFix" result="effect1_dropShadow_3072_18412"/>
<feBlend mode="normal" in="SourceGraphic" in2="effect1_dropShadow_3072_18412" result="shape"/>
</filter>
<filter id="filter9_d_3072_18412" x="13.5254" y="13.333" width="13.3319" height="14.4452" filterUnits="userSpaceOnUse" color-interpolation-filters="sRGB">
<feFlood flood-opacity="0" result="BackgroundImageFix"/>
<feColorMatrix in="SourceAlpha" type="matrix" values="0 0 0 0 0 0 0 0 0 0 0 0 0 0 0 0 0 0 127 0" result="hardAlpha"/>
<feOffset dy="0.55564"/>
<feGaussianBlur stdDeviation="0.55564"/>
<feColorMatrix type="matrix" values="0 0 0 0 0.996078 0 0 0 0 0.733333 0 0 0 0 0.105882 0 0 0 1 0"/>
<feBlend mode="normal" in2="BackgroundImageFix" result="effect1_dropShadow_3072_18412"/>
<feBlend mode="normal" in="SourceGraphic" in2="effect1_dropShadow_3072_18412" result="shape"/>
</filter>
<filter id="filter10_d_3072_18412" x="24.6348" y="13.334" width="5.55459" height="5.55557" filterUnits="userSpaceOnUse" color-interpolation-filters="sRGB">
<feFlood flood-opacity="0" result="BackgroundImageFix"/>
<feColorMatrix in="SourceAlpha" type="matrix" values="0 0 0 0 0 0 0 0 0 0 0 0 0 0 0 0 0 0 127 0" result="hardAlpha"/>
<feOffset/>
<feGaussianBlur stdDeviation="0.55564"/>
<feColorMatrix type="matrix" values="0 0 0 0 1 0 0 0 0 0.94902 0 0 0 0 0.305882 0 0 0 1 0"/>
<feBlend mode="normal" in2="BackgroundImageFix" result="effect1_dropShadow_3072_18412"/>
<feBlend mode="normal" in="SourceGraphic" in2="effect1_dropShadow_3072_18412" result="shape"/>
</filter>
<filter id="filter11_d_3072_18412" x="13.5215" y="22.7784" width="4.44522" height="4.44522" filterUnits="userSpaceOnUse" color-interpolation-filters="sRGB">
<feFlood flood-opacity="0" result="BackgroundImageFix"/>
<feColorMatrix in="SourceAlpha" type="matrix" values="0 0 0 0 0 0 0 0 0 0 0 0 0 0 0 0 0 0 127 0" result="hardAlpha"/>
<feOffset/>
<feGaussianBlur stdDeviation="0.55564"/>
<feColorMatrix type="matrix" values="0 0 0 0 1 0 0 0 0 0.94902 0 0 0 0 0.305882 0 0 0 1 0"/>
<feBlend mode="normal" in2="BackgroundImageFix" result="effect1_dropShadow_3072_18412"/>
<feBlend mode="normal" in="SourceGraphic" in2="effect1_dropShadow_3072_18412" result="shape"/>
</filter>
<filter id="filter12_d_3072_18412" x="10.1895" y="14.4454" width="4.99991" height="4.99991" filterUnits="userSpaceOnUse" color-interpolation-filters="sRGB">
<feFlood flood-opacity="0" result="BackgroundImageFix"/>
<feColorMatrix in="SourceAlpha" type="matrix" values="0 0 0 0 0 0 0 0 0 0 0 0 0 0 0 0 0 0 127 0" result="hardAlpha"/>
<feOffset/>
<feGaussianBlur stdDeviation="0.55564"/>
<feColorMatrix type="matrix" values="0 0 0 0 1 0 0 0 0 0.94902 0 0 0 0 0.305882 0 0 0 1 0"/>
<feBlend mode="normal" in2="BackgroundImageFix" result="effect1_dropShadow_3072_18412"/>
<feBlend mode="normal" in="SourceGraphic" in2="effect1_dropShadow_3072_18412" result="shape"/>
</filter>
<filter id="filter13_d_3072_18412" x="24.6348" y="23.334" width="3.89053" height="3.88955" filterUnits="userSpaceOnUse" color-interpolation-filters="sRGB">
<feFlood flood-opacity="0" result="BackgroundImageFix"/>
<feColorMatrix in="SourceAlpha" type="matrix" values="0 0 0 0 0 0 0 0 0 0 0 0 0 0 0 0 0 0 127 0" result="hardAlpha"/>
<feOffset/>
<feGaussianBlur stdDeviation="0.55564"/>
<feColorMatrix type="matrix" values="0 0 0 0 1 0 0 0 0 0.94902 0 0 0 0 0.305882 0 0 0 1 0"/>
<feBlend mode="normal" in2="BackgroundImageFix" result="effect1_dropShadow_3072_18412"/>
<feBlend mode="normal" in="SourceGraphic" in2="effect1_dropShadow_3072_18412" result="shape"/>
</filter>
<linearGradient id="paint0_linear_3072_18412" x1="3.49917" y1="3.33301" x2="3.49917" y2="35.6397" gradientUnits="userSpaceOnUse">
<stop stop-color="#AE66FF"/>
<stop offset="1" stop-color="#7E07E0"/>
</linearGradient>
<linearGradient id="paint1_linear_3072_18412" x1="32.9727" y1="11.1113" x2="32.9727" y2="21.6669" gradientUnits="userSpaceOnUse">
<stop stop-color="#F7C71A"/>
<stop offset="1" stop-color="#FBAA00"/>
</linearGradient>
<linearGradient id="paint2_linear_3072_18412" x1="32.9727" y1="11.1113" x2="32.9727" y2="21.6669" gradientUnits="userSpaceOnUse">
<stop stop-color="#FFDF6B"/>
<stop offset="1" stop-color="#F8A60A"/>
</linearGradient>
<linearGradient id="paint3_linear_3072_18412" x1="7.41406" y1="11.1113" x2="7.41406" y2="21.6669" gradientUnits="userSpaceOnUse">
<stop stop-color="#F7C71A"/>
<stop offset="1" stop-color="#FBAA00"/>
</linearGradient>
<linearGradient id="paint4_linear_3072_18412" x1="7.41406" y1="11.1113" x2="7.41406" y2="21.6669" gradientUnits="userSpaceOnUse">
<stop stop-color="#FFDF6B"/>
<stop offset="1" stop-color="#F8A60A"/>
</linearGradient>
<linearGradient id="paint5_linear_3072_18412" x1="12.4141" y1="9.08496" x2="12.4141" y2="18.3329" gradientUnits="userSpaceOnUse">
<stop stop-color="#F7C71A"/>
<stop offset="1" stop-color="#FBAA00"/>
</linearGradient>
<linearGradient id="paint6_linear_3072_18412" x1="12.4141" y1="9.08496" x2="12.4141" y2="18.3329" gradientUnits="userSpaceOnUse">
<stop stop-color="#FFDF6B"/>
<stop offset="1" stop-color="#F8A60A"/>
</linearGradient>
<linearGradient id="paint7_linear_3072_18412" x1="7.41406" y1="7.22168" x2="7.41406" y2="32.7772" gradientUnits="userSpaceOnUse">
<stop stop-color="#FDE046"/>
<stop offset="1" stop-color="#F9B800"/>
</linearGradient>
<linearGradient id="paint8_linear_3072_18412" x1="11.3008" y1="11.1104" x2="11.3008" y2="28.8881" gradientUnits="userSpaceOnUse">
<stop stop-color="#FFF550"/>
<stop offset="1" stop-color="#FFD541"/>
</linearGradient>
<linearGradient id="paint9_linear_3072_18412" x1="15.7461" y1="15" x2="15.7461" y2="20" gradientUnits="userSpaceOnUse">
<stop stop-color="#27DEEB"/>
<stop offset="1" stop-color="#08C9FF"/>
</linearGradient>
<linearGradient id="paint10_linear_3072_18412" x1="15.7461" y1="20" x2="15.7461" y2="25" gradientUnits="userSpaceOnUse">
<stop stop-color="#009BF6"/>
<stop offset="1" stop-color="#00B5FF"/>
</linearGradient>
<linearGradient id="paint11_linear_3072_18412" x1="18.0469" y1="15" x2="18.0469" y2="20" gradientUnits="userSpaceOnUse">
<stop stop-color="#8AFFFF"/>
<stop offset="1" stop-color="#0DF3FF"/>
</linearGradient>
<linearGradient id="paint12_linear_3072_18412" x1="18.0469" y1="20" x2="18.0469" y2="25" gradientUnits="userSpaceOnUse">
<stop stop-color="#00BAF3"/>
<stop offset="1" stop-color="#00B5FF"/>
</linearGradient>
</defs>
</svg>
