<svg width="71" height="71" viewBox="0 0 71 71" fill="none" xmlns="http://www.w3.org/2000/svg">
<path fill-rule="evenodd" clip-rule="evenodd" d="M52.1862 60.8439C53.2601 60.8439 54.1306 61.7144 54.1306 62.7883C54.1306 63.8622 53.2601 64.7327 52.1862 64.7327H34.6862C34.5719 64.7327 34.4599 64.7229 34.351 64.704C28.1047 64.4284 22.3689 62.1883 17.7463 58.5863C17.3704 58.2933 16.8038 57.8077 16.3839 57.4423C16.0248 57.1299 15.5658 56.955 15.0897 56.955H10.3806C9.30676 56.955 8.4362 56.0844 8.4362 55.0105C8.4362 53.9366 9.30676 53.0661 10.3806 53.0661H12.3251C13.399 53.0661 14.2695 52.1955 14.2695 51.1216C14.2695 50.0477 13.399 49.1772 12.3251 49.1772H7.46398C6.39009 49.1772 5.51953 48.3066 5.51953 47.2327C5.51953 46.1589 6.39009 45.2883 7.46398 45.2883H8.4362C9.51008 45.2883 10.3806 44.4177 10.3806 43.3439C10.3806 42.27 9.51008 41.3994 8.4362 41.3994C7.64996 41.3994 6.97749 40.8327 6.84667 40.0574C6.79914 39.7757 6.76139 39.5489 6.75516 39.5028C6.58146 38.2153 6.49175 36.9012 6.49175 35.5661C6.49175 19.4578 19.5501 6.39941 35.6584 6.39941C40.5195 6.39941 45.3806 6.39941 50.2418 6.39941C51.3156 6.39941 52.1862 7.26997 52.1862 8.34386C52.1862 9.41775 51.3156 10.2883 50.2418 10.2883H47.3251C46.2512 10.2883 45.3806 11.1589 45.3806 12.2327C45.3806 13.3066 46.2512 14.1772 47.3251 14.1772H58.9918C60.0656 14.1772 60.9362 15.0477 60.9362 16.1216C60.9362 17.1948 60.0668 18.0649 58.9939 18.0661H56.0751C55.0012 18.0661 54.1306 18.9366 54.1306 20.0105C54.1306 21.0844 55.0012 21.955 56.0751 21.955H60.2615C60.9968 21.955 61.6708 22.369 61.9896 23.0317C62.1813 23.4299 62.3828 23.8595 62.5148 24.17C64.0022 27.671 64.8251 31.5224 64.8251 35.5661C64.8251 36.8366 64.7438 38.0882 64.5863 39.3159C64.5598 39.5223 64.5191 39.7872 64.4749 40.0585C64.348 40.8368 63.6692 41.3994 62.8806 41.3994C61.8068 41.3994 60.9362 42.27 60.9362 43.3439C60.9362 44.4177 61.8068 45.2883 62.8806 45.2883H63.8529C64.9268 45.2883 65.7973 46.1589 65.7973 47.2327C65.7973 48.3066 64.9268 49.1772 63.8529 49.1772H62.6047C61.8988 49.1772 61.2497 49.5604 60.897 50.172C60.6679 50.5691 60.4133 51.0012 60.2241 51.2961C59.7806 51.9872 59.3087 52.6585 58.8101 53.3081C58.3093 53.9606 57.7816 54.5913 57.2286 55.1986C56.9251 55.5318 56.4333 56.0256 56.0498 56.4047C55.691 56.7595 55.206 56.955 54.7015 56.955H49.2695C48.1956 56.955 47.3251 57.8255 47.3251 58.8994C47.3251 59.9658 48.1835 60.8317 49.2471 60.8437L52.1862 60.8439Z" fill="#1B5C35"/>
<path fill-rule="evenodd" clip-rule="evenodd" d="M52.1823 60.8439C53.2562 60.8439 54.1267 61.7144 54.1267 62.7883C54.1267 63.8622 53.2562 64.7327 52.1823 64.7327H34.6823C34.568 64.7327 34.456 64.7229 34.3471 64.704C28.1008 64.4284 22.365 62.1883 17.7424 58.5863C17.3665 58.2933 16.7999 57.8077 16.38 57.4423C16.0209 57.1299 15.5619 56.955 15.0858 56.955H10.3767C9.30285 56.955 8.43229 56.0844 8.43229 55.0105C8.43229 53.9366 9.30285 53.0661 10.3767 53.0661H12.3212C13.3951 53.0661 14.2656 52.1955 14.2656 51.1216C14.2656 50.0477 13.3951 49.1772 12.3212 49.1772H7.46007C6.38618 49.1772 5.51562 48.3066 5.51562 47.2327C5.51562 46.1589 6.38618 45.2883 7.46007 45.2883H8.43229C9.50618 45.2883 10.3767 44.4177 10.3767 43.3439C10.3767 42.27 9.50618 41.3994 8.43229 41.3994C7.64605 41.3994 6.97359 40.8327 6.84277 40.0574C6.79523 39.7757 6.75748 39.5489 6.75126 39.5028C6.57755 38.2153 6.48785 36.9012 6.48785 35.5661C6.48785 19.4578 19.5462 6.39941 35.6545 6.39941C40.5156 6.39941 45.3767 6.39941 50.2378 6.39941C51.3117 6.39941 52.1823 7.26997 52.1823 8.34386C52.1823 9.41775 51.3117 10.2883 50.2378 10.2883H47.3212C46.2473 10.2883 45.3767 11.1589 45.3767 12.2327C45.3767 13.3066 46.2473 14.1772 47.3212 14.1772H58.9878C60.0617 14.1772 60.9323 15.0477 60.9323 16.1216C60.9323 17.1948 60.0629 18.0649 58.99 18.0661H56.0712C54.9973 18.0661 54.1267 18.9366 54.1267 20.0105C54.1267 21.0844 54.9973 21.955 56.0712 21.955H60.2575C60.9929 21.955 61.6669 22.369 61.9857 23.0317C62.1774 23.4299 62.3789 23.8595 62.5108 24.17C63.9983 27.671 64.8212 31.5224 64.8212 35.5661C64.8212 36.8366 64.7399 38.0882 64.5824 39.3159C64.5559 39.5223 64.5152 39.7872 64.471 40.0585C64.3441 40.8368 63.6653 41.3994 62.8767 41.3994C61.8028 41.3994 60.9323 42.27 60.9323 43.3439C60.9323 44.4177 61.8028 45.2883 62.8767 45.2883H63.849C64.9228 45.2883 65.7934 46.1589 65.7934 47.2327C65.7934 48.3066 64.9228 49.1772 63.849 49.1772H62.6008C61.8949 49.1772 61.2457 49.5604 60.8931 50.172C60.664 50.5691 60.4094 51.0012 60.2201 51.2961C59.7767 51.9872 59.3048 52.6585 58.8062 53.3081C58.3054 53.9606 57.7777 54.5913 57.2246 55.1986C56.9212 55.5318 56.4294 56.0256 56.0459 56.4047C55.6871 56.7595 55.2021 56.955 54.6975 56.955H49.2656C48.1917 56.955 47.3212 57.8255 47.3212 58.8994C47.3212 59.9658 48.1796 60.8317 49.2432 60.8437L52.1823 60.8439Z" fill="url(#paint0_linear_3103_27114)"/>
<g opacity="0.1">
<path fill-rule="evenodd" clip-rule="evenodd" d="M33.9875 12.1693C35.019 11.5738 36.2898 11.5738 37.3213 12.1693L55.0832 22.4242C56.1147 23.0197 56.7502 24.1203 56.7502 25.3114V45.8211C56.7502 47.0122 56.1147 48.1128 55.0832 48.7083L37.3213 58.9632C36.2898 59.5587 35.019 59.5587 33.9875 58.9632L16.2255 48.7083C15.194 48.1128 14.5586 47.0122 14.5586 45.8211L14.5586 25.3114C14.5586 24.1203 15.194 23.0197 16.2255 22.4242L33.9875 12.1693Z" fill="#7705A4" style="mix-blend-mode:multiply"/>
</g>
<g filter="url(#filter0_d_3103_27114)">
<path fill-rule="evenodd" clip-rule="evenodd" d="M22.0469 32.6504H37.6024V62.8625C37.6024 63.2755 37.1677 63.5442 36.7983 63.3594L29.8247 59.8726L22.851 63.3594C22.4816 63.5442 22.0469 63.2755 22.0469 62.8625V32.6504Z" fill="#32B4FF"/>
</g>
<g filter="url(#filter1_d_3103_27114)">
<path fill-rule="evenodd" clip-rule="evenodd" d="M33.7148 32.6504H49.2704V62.8625C49.2704 63.2755 48.8357 63.5442 48.4663 63.3594L41.4926 59.8726L34.519 63.3594C34.1495 63.5442 33.7148 63.2755 33.7148 62.8625V32.6504Z" fill="#32B4FF"/>
</g>
<g filter="url(#filter2_d_3103_27114)">
<path fill-rule="evenodd" clip-rule="evenodd" d="M27.8789 37.5117H43.4345V67.7238C43.4345 68.1368 42.9998 68.4055 42.6303 68.2208L35.6567 64.7339L28.683 68.2208C28.3136 68.4055 27.8789 68.1368 27.8789 67.7238V37.5117Z" fill="white"/>
</g>
<mask id="mask0_3103_27114" style="mask-type:luminance" maskUnits="userSpaceOnUse" x="27" y="37" width="17" height="32">
<path fill-rule="evenodd" clip-rule="evenodd" d="M27.8789 37.5117H43.4345V67.7238C43.4345 68.1368 42.9998 68.4055 42.6303 68.2208L35.6567 64.7339L28.683 68.2208C28.3136 68.4055 27.8789 68.1368 27.8789 67.7238V37.5117Z" fill="white"/>
</mask>
<g mask="url(#mask0_3103_27114)">
<rect x="31.7695" y="37.5117" width="7.77778" height="31.1111" fill="#F55462"/>
</g>
<path style="mix-blend-mode:multiply" opacity="0.2" fill-rule="evenodd" clip-rule="evenodd" d="M34.5431 15.791C35.2307 15.3939 36.078 15.3939 36.7656 15.791L53.9084 25.6883C54.596 26.0853 55.0196 26.8191 55.0196 27.6131V47.4078C55.0196 48.2019 54.596 48.9356 53.9084 49.3326L36.7656 59.23C36.078 59.627 35.2307 59.627 34.5431 59.23L17.4003 49.3326C16.7127 48.9356 16.2891 48.2019 16.2891 47.4078L16.2891 27.6131C16.2891 26.8191 16.7127 26.0853 17.4003 25.6883L34.5431 15.791Z" fill="#7705A4"/>
<path fill-rule="evenodd" clip-rule="evenodd" d="M53.1623 22.3304C53.1623 22.1032 53.3007 21.8989 53.5116 21.8145L57.5662 20.1926C57.7852 20.1051 58.0234 20.2663 58.0234 20.5022V36.1614C58.0234 36.3886 57.8851 36.5929 57.6742 36.6773L53.1623 38.482V22.3304Z" fill="url(#paint1_linear_3103_27114)" stroke="url(#paint2_linear_3103_27114)" stroke-width="0.55564" stroke-linecap="round" stroke-linejoin="round"/>
<mask id="mask1_3103_27114" style="mask-type:luminance" maskUnits="userSpaceOnUse" x="52" y="19" width="7" height="20">
<path fill-rule="evenodd" clip-rule="evenodd" d="M53.1623 22.3304C53.1623 22.1032 53.3007 21.8989 53.5116 21.8145L57.5662 20.1926C57.7852 20.1051 58.0234 20.2663 58.0234 20.5022V36.1614C58.0234 36.3886 57.8851 36.5929 57.6742 36.6773L53.1623 38.482V22.3304Z" fill="white" stroke="white" stroke-width="0.55564" stroke-linecap="round" stroke-linejoin="round"/>
</mask>
<g mask="url(#mask1_3103_27114)">
<g style="mix-blend-mode:multiply" opacity="0.6" filter="url(#filter3_i_3103_27114)">
<path d="M53.647 28.5973L59.1812 26.2914C59.429 26.1881 59.5462 25.9035 59.4429 25.6557C59.3397 25.4079 59.0551 25.2907 58.8073 25.394L52.9739 27.8245C52.7928 27.9 53.647 28.5973 53.647 28.5973Z" fill="#C28831"/>
</g>
<g style="mix-blend-mode:multiply" opacity="0.6" filter="url(#filter4_i_3103_27114)">
<path d="M53.647 34.4313L59.1812 32.1254C59.429 32.0221 59.5462 31.7375 59.4429 31.4897C59.3397 31.2419 59.0551 31.1247 58.8073 31.2279L52.9739 33.6585C52.7928 33.734 53.647 34.4313 53.647 34.4313Z" fill="#C28831"/>
</g>
<g opacity="0.04">
<path fill-rule="evenodd" clip-rule="evenodd" d="M37.325 12.1684C36.2935 11.5728 35.0227 11.5728 33.9912 12.1684L16.2293 22.4232C15.1978 23.0187 14.5623 24.1193 14.5623 25.3104V45.8201C14.5623 47.0112 15.1978 48.1118 16.2293 48.7073L33.9912 58.9622C35.0227 59.5577 36.2935 59.5577 37.325 58.9622L55.087 48.7073C56.1185 48.1118 56.7539 47.0112 56.7539 45.8201L56.7539 25.3104C56.7539 24.1193 56.1185 23.0187 55.087 22.4232L37.325 12.1684Z" fill="#7705A4" style="mix-blend-mode:multiply"/>
</g>
</g>
<path fill-rule="evenodd" clip-rule="evenodd" d="M18.158 22.3304C18.158 22.1032 18.0197 21.8989 17.8087 21.8145L13.7541 20.1926C13.5351 20.1051 13.2969 20.2663 13.2969 20.5022V36.1614C13.2969 36.3886 13.4352 36.5929 13.6462 36.6773L18.158 38.482V22.3304Z" fill="url(#paint3_linear_3103_27114)" stroke="url(#paint4_linear_3103_27114)" stroke-width="0.55564" stroke-linecap="round" stroke-linejoin="round"/>
<mask id="mask2_3103_27114" style="mask-type:luminance" maskUnits="userSpaceOnUse" x="13" y="19" width="6" height="20">
<path fill-rule="evenodd" clip-rule="evenodd" d="M18.158 22.3304C18.158 22.1032 18.0197 21.8989 17.8087 21.8145L13.7541 20.1926C13.5351 20.1051 13.2969 20.2663 13.2969 20.5022V36.1614C13.2969 36.3886 13.4352 36.5929 13.6462 36.6773L18.158 38.482V22.3304Z" fill="white" stroke="white" stroke-width="0.55564" stroke-linecap="round" stroke-linejoin="round"/>
</mask>
<g mask="url(#mask2_3103_27114)">
<g style="mix-blend-mode:multiply" opacity="0.6" filter="url(#filter5_i_3103_27114)">
<path d="M17.6772 28.5973L12.143 26.2914C11.8952 26.1881 11.778 25.9035 11.8813 25.6557C11.9845 25.4079 12.2691 25.2907 12.517 25.394L18.3503 27.8245C18.5314 27.9 17.6772 28.5973 17.6772 28.5973Z" fill="#C28831"/>
</g>
<g style="mix-blend-mode:multiply" opacity="0.6" filter="url(#filter6_i_3103_27114)">
<path d="M17.6772 34.4313L12.143 32.1254C11.8952 32.0221 11.778 31.7375 11.8813 31.4897C11.9845 31.2419 12.2691 31.1247 12.517 31.2279L18.3503 33.6585C18.5314 33.734 17.6772 34.4313 17.6772 34.4313Z" fill="#C28831"/>
</g>
<g opacity="0.04">
<path fill-rule="evenodd" clip-rule="evenodd" d="M33.9914 12.1684C35.0229 11.5728 36.2937 11.5728 37.3252 12.1684L55.0872 22.4232C56.1187 23.0187 56.7541 24.1193 56.7541 25.3104V45.8201C56.7541 47.0112 56.1187 48.1118 55.0872 48.7073L37.3252 58.9622C36.2937 59.5577 35.0229 59.5577 33.9914 58.9622L16.2294 48.7073C15.1979 48.1118 14.5625 47.0112 14.5625 45.8201L14.5625 25.3104C14.5625 24.1193 15.1979 23.0187 16.2294 22.4232L33.9914 12.1684Z" fill="#7705A4" style="mix-blend-mode:multiply"/>
</g>
</g>
<path fill-rule="evenodd" clip-rule="evenodd" d="M49.273 16.8576C49.273 16.4884 48.9197 16.2219 48.5647 16.3233L35.6619 20.0099L22.7591 16.3233C22.4041 16.2219 22.0508 16.4884 22.0508 16.8576V32.0931C22.0508 32.4 22.2995 32.6488 22.6064 32.6488H48.7174C49.0242 32.6488 49.273 32.4 49.273 32.0931V16.8576Z" fill="url(#paint5_linear_3103_27114)" stroke="url(#paint6_linear_3103_27114)" stroke-width="0.55564" stroke-linecap="round" stroke-linejoin="round"/>
<path fill-rule="evenodd" clip-rule="evenodd" d="M34.5428 13.8467C35.2305 13.4497 36.0777 13.4497 36.7654 13.8467L53.9081 23.744C54.5957 24.1411 55.0194 24.8748 55.0194 25.6688V45.4635C55.0194 46.2576 54.5957 46.9913 53.9081 47.3883L36.7654 57.2857C36.0777 57.6827 35.2305 57.6827 34.5428 57.2857L17.4001 47.3883C16.7124 46.9913 16.2888 46.2576 16.2888 45.4635V25.6688C16.2888 24.8748 16.7124 24.1411 17.4001 23.744L34.5428 13.8467Z" fill="url(#paint7_linear_3103_27114)" stroke="#C28831" stroke-opacity="0.4" stroke-width="0.55564"/>
<g style="mix-blend-mode:multiply" opacity="0.8" filter="url(#filter7_i_3103_27114)">
<path fill-rule="evenodd" clip-rule="evenodd" d="M50.8894 25.055L37.1281 17.1006C36.2158 16.5732 35.0917 16.5732 34.1793 17.1006L20.418 25.055C19.5057 25.5824 18.9436 26.557 18.9436 27.6118V33.3513L17.6752 35.2562C17.551 35.4428 17.551 35.6856 17.6752 35.8722L18.9436 37.777V43.5206C18.9436 44.5753 19.5057 45.55 20.418 46.0774L34.1793 54.0318C35.0917 54.5591 36.2158 54.5591 37.1281 54.0318L50.8894 46.0774C51.8018 45.55 52.3638 44.5753 52.3638 43.5206V37.7804L53.6345 35.8722C53.7587 35.6856 53.7587 35.4428 53.6345 35.2562L52.3638 33.3479V27.6118C52.3638 26.557 51.8018 25.5824 50.8894 25.055ZM19.9274 37.7786V43.5212C19.9274 44.2244 20.3021 44.8741 20.9103 45.2257L34.6716 53.1801C35.2798 53.5317 36.0292 53.5317 36.6375 53.1801L50.3987 45.2257C51.007 44.8741 51.3817 44.2244 51.3817 43.5212V37.7776L50.1129 35.8722C49.9887 35.6856 49.9887 35.4428 50.1129 35.2562L51.3817 33.3508V27.6124C51.3817 26.9092 51.007 26.2595 50.3987 25.9079L36.6375 17.9535C36.0292 17.6019 35.2798 17.6019 34.6716 17.9535L20.9103 25.9079C20.3021 26.2595 19.9274 26.9092 19.9274 27.6124V33.3498L21.1968 35.2562C21.321 35.4428 21.321 35.6856 21.1968 35.8722L19.9274 37.7786Z" fill="#C28831"/>
</g>
<path d="M37.3579 14.7479C36.3051 14.14 35.008 14.14 33.9551 14.7479L18.4787 23.6832C17.4259 24.291 16.7773 25.4144 16.7773 26.6301L16.7773 44.5007C16.7773 45.7164 17.4259 46.8397 18.4787 47.4476L33.9551 56.3829C35.008 56.9907 36.3051 56.9907 37.3579 56.3829L52.8343 47.4476C53.8871 46.8397 54.5357 45.7164 54.5357 44.5007V26.6301C54.5357 25.4144 53.8871 24.291 52.8343 23.6832L37.3579 14.7479Z" stroke="#C28831" stroke-width="0.55564"/>
<path opacity="0.4" d="M37.3594 56.3842C39.1795 55.3333 40.4692 54.5887 41.2285 54.1504" stroke="white" stroke-width="0.55564" stroke-linecap="round"/>
<path d="M54.5357 44.5007V26.6301C54.5357 25.4144 53.8871 24.291 52.8343 23.6832L37.3579 14.7479C36.3051 14.14 35.008 14.14 33.9551 14.7479L18.4787 23.6832C17.4259 24.291 16.7773 25.4144 16.7773 26.6301L16.7773 44.5007" stroke="#C28831" stroke-width="0.55564" stroke-linecap="round"/>
<path opacity="0.6" d="M54.5357 26.6301C54.5357 25.4144 53.8871 24.291 52.8343 23.6832L37.3579 14.7479C36.3051 14.14 35.008 14.14 33.9551 14.7479L18.4787 23.6832C17.4259 24.291 16.7773 25.4144 16.7773 26.6301" stroke="#C28831" stroke-width="0.55564" stroke-linecap="round"/>
<path opacity="0.6" d="M37.3558 14.7479C36.303 14.14 35.0059 14.14 33.953 14.7479C33.953 14.7479 28.7942 17.7263 26.2148 19.2155" stroke="white" stroke-width="0.55564" stroke-linecap="round"/>
<path d="M33.955 14.749C33.955 14.749 31.2248 16.3253 30.0859 16.9828" stroke="white" stroke-width="0.55564" stroke-linecap="round"/>
<g filter="url(#filter8_d_3103_27114)">
<path fill-rule="evenodd" clip-rule="evenodd" d="M35.0976 20.3306C35.4414 20.1321 35.865 20.1321 36.2089 20.3306L48.5691 27.4667C48.9129 27.6653 49.1247 28.0321 49.1247 28.4291V42.7015C49.1247 43.0985 48.9129 43.4654 48.5691 43.6639L36.2089 50.8001C35.865 50.9986 35.4414 50.9986 35.0976 50.8001L22.7373 43.6639C22.3935 43.4654 22.1817 43.0985 22.1817 42.7015V28.4291C22.1817 28.0321 22.3935 27.6653 22.7373 27.4667L35.0976 20.3306Z" fill="url(#paint8_linear_3103_27114)"/>
<path d="M36.3478 20.09C35.918 19.8418 35.3885 19.8418 34.9587 20.09L22.5984 27.2261C22.1686 27.4743 21.9039 27.9329 21.9039 28.4291V42.7015C21.9039 43.1978 22.1686 43.6564 22.5984 43.9045L34.9587 51.0407C35.3884 51.2888 35.918 51.2888 36.3478 51.0407L48.708 43.9045C49.1378 43.6564 49.4025 43.1978 49.4025 42.7015V28.4291C49.4025 27.9329 49.1378 27.4743 48.708 27.2261L36.3478 20.09Z" stroke="#F5900D" stroke-opacity="0.1" stroke-width="0.55564" style="mix-blend-mode:multiply"/>
</g>
<mask id="mask3_3103_27114" style="mask-type:luminance" maskUnits="userSpaceOnUse" x="22" y="20" width="28" height="31">
<path fill-rule="evenodd" clip-rule="evenodd" d="M35.0976 20.3306C35.4414 20.1321 35.865 20.1321 36.2089 20.3306L48.5691 27.4667C48.9129 27.6653 49.1247 28.0321 49.1247 28.4291V42.7015C49.1247 43.0985 48.9129 43.4654 48.5691 43.6639L36.2089 50.8001C35.865 50.9986 35.4414 50.9986 35.0976 50.8001L22.7373 43.6639C22.3935 43.4654 22.1817 43.0985 22.1817 42.7015V28.4291C22.1817 28.0321 22.3935 27.6653 22.7373 27.4667L35.0976 20.3306Z" fill="white"/>
</mask>
<g mask="url(#mask3_3103_27114)">
<g style="mix-blend-mode:multiply" opacity="0.3">
<path fill-rule="evenodd" clip-rule="evenodd" d="M35.661 35.557L39.5478 20.0098H31.77L35.658 35.5619L35.6574 35.563L27.4093 21.8161L21.9096 27.3158L35.6567 35.5641L35.6561 35.5652L20.1016 31.6765V39.4543L35.6541 35.5662L21.906 43.8151L27.4057 49.3148L35.655 35.566L35.6562 35.5657L31.7674 51.1209H39.5452L35.6564 35.5656L35.6565 35.5656L43.9059 49.3145L49.4056 43.8148L35.6568 35.5655L35.6571 35.5654L35.6564 35.5653L35.6563 35.5652L35.6561 35.5652L35.6573 35.5645L35.6584 35.5651L35.6581 35.5652L35.6589 35.5654L51.2136 39.4541V31.6763L35.659 35.565L35.6594 35.5631L49.4054 27.3156L43.9057 21.8159L35.661 35.557ZM35.6586 35.5651L35.6588 35.565L35.6585 35.5637L35.658 35.564L35.6586 35.5651Z" fill="#C28831"/>
</g>
<path opacity="0.4" d="M47.9109 27.6474L36.3838 20.9923C35.9326 20.7317 35.3767 20.7317 34.9255 20.9923C33.5698 21.775 32.6092 22.3296 32.0437 22.656C30.8669 23.3355 29.9063 23.8901 29.162 24.3198C27.8812 25.0593 25.96 26.1685 23.3984 27.6474" stroke="white" stroke-width="0.55564" stroke-linecap="round"/>
<path opacity="0.4" d="M47.9112 43.4503L36.3841 50.1054C35.9329 50.3659 35.377 50.3659 34.9258 50.1054" stroke="white" stroke-width="0.55564" stroke-linecap="round"/>
<path d="M34.9247 20.9912C33.569 21.7739 32.6085 22.3285 32.043 22.655" stroke="white" stroke-width="0.55564" stroke-linecap="round"/>
</g>
<g filter="url(#filter9_d_3103_27114)">
<path fill-rule="evenodd" clip-rule="evenodd" d="M35.6567 26.8174L43.4345 35.5674L35.6567 44.3174L27.8789 35.5674L35.6567 26.8174Z" fill="white"/>
<path d="M36.072 26.4482C35.9665 26.3296 35.8154 26.2617 35.6567 26.2617C35.498 26.2617 35.3468 26.3296 35.2414 26.4482L27.4636 35.1982C27.2765 35.4088 27.2765 35.726 27.4636 35.9365L35.2414 44.6865C35.3468 44.8052 35.498 44.873 35.6567 44.873C35.8154 44.873 35.9665 44.8052 36.072 44.6865L43.8498 35.9365C44.0369 35.726 44.0369 35.4088 43.8498 35.1982L36.072 26.4482Z" stroke="white" stroke-width="1.11128" stroke-linejoin="round"/>
</g>
<path fill-rule="evenodd" clip-rule="evenodd" d="M35.6567 26.8174L43.4345 35.5674H27.8789L35.6567 26.8174Z" fill="url(#paint9_linear_3103_27114)"/>
<path fill-rule="evenodd" clip-rule="evenodd" d="M35.6567 44.3164L43.4345 35.5664H27.8789L35.6567 44.3164Z" fill="url(#paint10_linear_3103_27114)"/>
<path fill-rule="evenodd" clip-rule="evenodd" d="M35.6562 26.8174L31.9062 35.5674H39.4062L35.6562 26.8174Z" fill="url(#paint11_linear_3103_27114)"/>
<path fill-rule="evenodd" clip-rule="evenodd" d="M35.6562 44.3164L31.9062 35.5664H39.4062L35.6562 44.3164Z" fill="url(#paint12_linear_3103_27114)"/>
<g filter="url(#filter10_d_3103_27114)">
<path fill-rule="evenodd" clip-rule="evenodd" d="M46.2606 29.5197L45.7557 29.3205C45.4469 29.1987 45.2953 28.8497 45.4171 28.5409C45.4782 28.386 45.6008 28.2634 45.7557 28.2023L46.2606 28.0031C46.8429 27.7735 47.3038 27.3126 47.5334 26.7303L47.7325 26.2254C47.8543 25.9166 48.2034 25.765 48.5122 25.8868C48.6671 25.9479 48.7897 26.0705 48.8508 26.2254L49.0499 26.7303C49.2796 27.3126 49.7405 27.7735 50.3227 28.0031L50.8276 28.2023C51.1364 28.324 51.288 28.6731 51.1663 28.9819C51.1052 29.1368 50.9825 29.2594 50.8276 29.3205L50.3227 29.5197C49.7405 29.7493 49.2796 30.2102 49.0499 30.7925L48.8508 31.2974C48.729 31.6062 48.3799 31.7578 48.0711 31.636C47.9162 31.5749 47.7936 31.4523 47.7325 31.2974L47.5334 30.7925C47.3038 30.2102 46.8429 29.7493 46.2606 29.5197Z" fill="white"/>
</g>
<g filter="url(#filter11_d_3103_27114)">
<path fill-rule="evenodd" clip-rule="evenodd" d="M26.524 44.822L26.1874 44.6893C25.9815 44.6081 25.8805 44.3754 25.9616 44.1695C26.0024 44.0662 26.0841 43.9845 26.1874 43.9438L26.524 43.811C26.9122 43.6579 27.2194 43.3506 27.3725 42.9625L27.5053 42.6259C27.5865 42.42 27.8192 42.3189 28.0251 42.4001C28.1283 42.4408 28.2101 42.5226 28.2508 42.6259L28.3836 42.9625C28.5366 43.3506 28.8439 43.6579 29.2321 43.811L29.5687 43.9438C29.7746 44.025 29.8756 44.2577 29.7944 44.4635C29.7537 44.5668 29.672 44.6485 29.5687 44.6893L29.2321 44.822C28.8439 44.9751 28.5366 45.2824 28.3836 45.6706L28.2508 46.0072C28.1696 46.213 27.9369 46.3141 27.731 46.2329C27.6278 46.1922 27.546 46.1104 27.5053 46.0072L27.3725 45.6706C27.2194 45.2824 26.9122 44.9751 26.524 44.822Z" fill="white"/>
</g>
<g filter="url(#filter12_d_3103_27114)">
<path fill-rule="evenodd" clip-rule="evenodd" d="M20.8357 30.8515L20.4149 30.6856C20.1576 30.5841 20.0312 30.2932 20.1327 30.0359C20.1836 29.9068 20.2858 29.8046 20.4149 29.7537L20.8357 29.5877C21.3209 29.3964 21.705 29.0123 21.8963 28.5271L22.0623 28.1063C22.1638 27.849 22.4546 27.7226 22.712 27.8241C22.8411 27.875 22.9432 27.9772 22.9942 28.1063L23.1601 28.5271C23.3515 29.0123 23.7356 29.3964 24.2208 29.5877L24.6415 29.7537C24.8989 29.8552 25.0252 30.146 24.9237 30.4034C24.8728 30.5325 24.7706 30.6347 24.6415 30.6856L24.2208 30.8515C23.7356 31.0429 23.3515 31.427 23.1601 31.9122L22.9942 32.3329C22.8927 32.5903 22.6018 32.7166 22.3444 32.6151C22.2154 32.5642 22.1132 32.462 22.0623 32.3329L21.8963 31.9122C21.705 31.427 21.3209 31.0429 20.8357 30.8515Z" fill="white"/>
</g>
<g filter="url(#filter13_d_3103_27114)">
<path fill-rule="evenodd" clip-rule="evenodd" d="M45.8178 45.1822L45.5653 45.0826C45.4109 45.0217 45.3351 44.8472 45.396 44.6928C45.4266 44.6153 45.4879 44.554 45.5653 44.5235L45.8178 44.4239C46.1089 44.3091 46.3394 44.0787 46.4542 43.7875L46.5538 43.5351C46.6147 43.3807 46.7892 43.3049 46.9436 43.3658C47.021 43.3963 47.0824 43.4576 47.1129 43.5351L47.2125 43.7875C47.3273 44.0787 47.5577 44.3091 47.8489 44.4239L48.1013 44.5235C48.2557 44.5844 48.3315 44.7589 48.2706 44.9133C48.2401 44.9908 48.1788 45.0521 48.1013 45.0826L47.8489 45.1822C47.5577 45.297 47.3273 45.5275 47.2125 45.8186L47.1129 46.071C47.052 46.2254 46.8775 46.3012 46.7231 46.2404C46.6456 46.2098 46.5843 46.1485 46.5538 46.071L46.4542 45.8186C46.3394 45.5275 46.1089 45.297 45.8178 45.1822Z" fill="white"/>
</g>
<defs>
<filter id="filter0_d_3103_27114" x="20.9356" y="32.6504" width="17.7772" height="32.9911" filterUnits="userSpaceOnUse" color-interpolation-filters="sRGB">
<feFlood flood-opacity="0" result="BackgroundImageFix"/>
<feColorMatrix in="SourceAlpha" type="matrix" values="0 0 0 0 0 0 0 0 0 0 0 0 0 0 0 0 0 0 127 0" result="hardAlpha"/>
<feOffset dy="1.11128"/>
<feGaussianBlur stdDeviation="0.55564"/>
<feColorMatrix type="matrix" values="0 0 0 0 0.309804 0 0 0 0 0.247059 0 0 0 0 0.866667 0 0 0 0.2 0"/>
<feBlend mode="darken" in2="BackgroundImageFix" result="effect1_dropShadow_3103_27114"/>
<feBlend mode="normal" in="SourceGraphic" in2="effect1_dropShadow_3103_27114" result="shape"/>
</filter>
<filter id="filter1_d_3103_27114" x="32.6036" y="32.6504" width="17.7772" height="32.9911" filterUnits="userSpaceOnUse" color-interpolation-filters="sRGB">
<feFlood flood-opacity="0" result="BackgroundImageFix"/>
<feColorMatrix in="SourceAlpha" type="matrix" values="0 0 0 0 0 0 0 0 0 0 0 0 0 0 0 0 0 0 127 0" result="hardAlpha"/>
<feOffset dy="1.11128"/>
<feGaussianBlur stdDeviation="0.55564"/>
<feColorMatrix type="matrix" values="0 0 0 0 0.309804 0 0 0 0 0.247059 0 0 0 0 0.866667 0 0 0 0.2 0"/>
<feBlend mode="darken" in2="BackgroundImageFix" result="effect1_dropShadow_3103_27114"/>
<feBlend mode="normal" in="SourceGraphic" in2="effect1_dropShadow_3103_27114" result="shape"/>
</filter>
<filter id="filter2_d_3103_27114" x="26.7676" y="37.5117" width="17.7772" height="32.9911" filterUnits="userSpaceOnUse" color-interpolation-filters="sRGB">
<feFlood flood-opacity="0" result="BackgroundImageFix"/>
<feColorMatrix in="SourceAlpha" type="matrix" values="0 0 0 0 0 0 0 0 0 0 0 0 0 0 0 0 0 0 127 0" result="hardAlpha"/>
<feOffset dy="1.11128"/>
<feGaussianBlur stdDeviation="0.55564"/>
<feColorMatrix type="matrix" values="0 0 0 0 0.309804 0 0 0 0 0.247059 0 0 0 0 0.866667 0 0 0 0.2 0"/>
<feBlend mode="darken" in2="BackgroundImageFix" result="effect1_dropShadow_3103_27114"/>
<feBlend mode="normal" in="SourceGraphic" in2="effect1_dropShadow_3103_27114" result="shape"/>
</filter>
<filter id="filter3_i_3103_27114" x="52.9492" y="25.3564" width="6.53125" height="3.79685" filterUnits="userSpaceOnUse" color-interpolation-filters="sRGB">
<feFlood flood-opacity="0" result="BackgroundImageFix"/>
<feBlend mode="normal" in="SourceGraphic" in2="BackgroundImageFix" result="shape"/>
<feColorMatrix in="SourceAlpha" type="matrix" values="0 0 0 0 0 0 0 0 0 0 0 0 0 0 0 0 0 0 127 0" result="hardAlpha"/>
<feOffset dy="0.55564"/>
<feGaussianBlur stdDeviation="0.27782"/>
<feComposite in2="hardAlpha" operator="arithmetic" k2="-1" k3="1"/>
<feColorMatrix type="matrix" values="0 0 0 0 0.976471 0 0 0 0 0.713726 0 0 0 0 0.0352941 0 0 0 1 0"/>
<feBlend mode="normal" in2="shape" result="effect1_innerShadow_3103_27114"/>
</filter>
<filter id="filter4_i_3103_27114" x="52.9492" y="31.1904" width="6.53125" height="3.79685" filterUnits="userSpaceOnUse" color-interpolation-filters="sRGB">
<feFlood flood-opacity="0" result="BackgroundImageFix"/>
<feBlend mode="normal" in="SourceGraphic" in2="BackgroundImageFix" result="shape"/>
<feColorMatrix in="SourceAlpha" type="matrix" values="0 0 0 0 0 0 0 0 0 0 0 0 0 0 0 0 0 0 127 0" result="hardAlpha"/>
<feOffset dy="0.55564"/>
<feGaussianBlur stdDeviation="0.27782"/>
<feComposite in2="hardAlpha" operator="arithmetic" k2="-1" k3="1"/>
<feColorMatrix type="matrix" values="0 0 0 0 0.976471 0 0 0 0 0.713726 0 0 0 0 0.0352941 0 0 0 1 0"/>
<feBlend mode="normal" in2="shape" result="effect1_innerShadow_3103_27114"/>
</filter>
<filter id="filter5_i_3103_27114" x="11.8438" y="25.3564" width="6.53125" height="3.79685" filterUnits="userSpaceOnUse" color-interpolation-filters="sRGB">
<feFlood flood-opacity="0" result="BackgroundImageFix"/>
<feBlend mode="normal" in="SourceGraphic" in2="BackgroundImageFix" result="shape"/>
<feColorMatrix in="SourceAlpha" type="matrix" values="0 0 0 0 0 0 0 0 0 0 0 0 0 0 0 0 0 0 127 0" result="hardAlpha"/>
<feOffset dy="0.55564"/>
<feGaussianBlur stdDeviation="0.27782"/>
<feComposite in2="hardAlpha" operator="arithmetic" k2="-1" k3="1"/>
<feColorMatrix type="matrix" values="0 0 0 0 0.976471 0 0 0 0 0.713726 0 0 0 0 0.0352941 0 0 0 1 0"/>
<feBlend mode="normal" in2="shape" result="effect1_innerShadow_3103_27114"/>
</filter>
<filter id="filter6_i_3103_27114" x="11.8438" y="31.1904" width="6.53125" height="3.79685" filterUnits="userSpaceOnUse" color-interpolation-filters="sRGB">
<feFlood flood-opacity="0" result="BackgroundImageFix"/>
<feBlend mode="normal" in="SourceGraphic" in2="BackgroundImageFix" result="shape"/>
<feColorMatrix in="SourceAlpha" type="matrix" values="0 0 0 0 0 0 0 0 0 0 0 0 0 0 0 0 0 0 127 0" result="hardAlpha"/>
<feOffset dy="0.55564"/>
<feGaussianBlur stdDeviation="0.27782"/>
<feComposite in2="hardAlpha" operator="arithmetic" k2="-1" k3="1"/>
<feColorMatrix type="matrix" values="0 0 0 0 0.976471 0 0 0 0 0.713726 0 0 0 0 0.0352941 0 0 0 1 0"/>
<feBlend mode="normal" in2="shape" result="effect1_innerShadow_3103_27114"/>
</filter>
<filter id="filter7_i_3103_27114" x="17.582" y="16.7051" width="36.1445" height="38.2783" filterUnits="userSpaceOnUse" color-interpolation-filters="sRGB">
<feFlood flood-opacity="0" result="BackgroundImageFix"/>
<feBlend mode="normal" in="SourceGraphic" in2="BackgroundImageFix" result="shape"/>
<feColorMatrix in="SourceAlpha" type="matrix" values="0 0 0 0 0 0 0 0 0 0 0 0 0 0 0 0 0 0 127 0" result="hardAlpha"/>
<feOffset dy="0.55564"/>
<feGaussianBlur stdDeviation="0.27782"/>
<feComposite in2="hardAlpha" operator="arithmetic" k2="-1" k3="1"/>
<feColorMatrix type="matrix" values="0 0 0 0 0.976471 0 0 0 0 0.713726 0 0 0 0 0.0352941 0 0 0 1 0"/>
<feBlend mode="normal" in2="shape" result="effect1_innerShadow_3103_27114"/>
</filter>
<filter id="filter8_d_3103_27114" x="20.5137" y="19.0703" width="30.2772" height="34.1015" filterUnits="userSpaceOnUse" color-interpolation-filters="sRGB">
<feFlood flood-opacity="0" result="BackgroundImageFix"/>
<feColorMatrix in="SourceAlpha" type="matrix" values="0 0 0 0 0 0 0 0 0 0 0 0 0 0 0 0 0 0 127 0" result="hardAlpha"/>
<feOffset dy="0.55564"/>
<feGaussianBlur stdDeviation="0.55564"/>
<feColorMatrix type="matrix" values="0 0 0 0 0.927721 0 0 0 0 0.665867 0 0 0 0 0.0535899 0 0 0 0.4 0"/>
<feBlend mode="normal" in2="BackgroundImageFix" result="effect1_dropShadow_3103_27114"/>
<feBlend mode="normal" in="SourceGraphic" in2="effect1_dropShadow_3103_27114" result="shape"/>
</filter>
<filter id="filter9_d_3103_27114" x="25.6583" y="25.1504" width="19.9999" height="21.9452" filterUnits="userSpaceOnUse" color-interpolation-filters="sRGB">
<feFlood flood-opacity="0" result="BackgroundImageFix"/>
<feColorMatrix in="SourceAlpha" type="matrix" values="0 0 0 0 0 0 0 0 0 0 0 0 0 0 0 0 0 0 127 0" result="hardAlpha"/>
<feOffset dy="0.55564"/>
<feGaussianBlur stdDeviation="0.55564"/>
<feColorMatrix type="matrix" values="0 0 0 0 0.996078 0 0 0 0 0.733333 0 0 0 0 0.105882 0 0 0 1 0"/>
<feBlend mode="normal" in2="BackgroundImageFix" result="effect1_dropShadow_3103_27114"/>
<feBlend mode="normal" in="SourceGraphic" in2="effect1_dropShadow_3103_27114" result="shape"/>
</filter>
<filter id="filter10_d_3103_27114" x="44.2637" y="24.7334" width="8.05459" height="8.05557" filterUnits="userSpaceOnUse" color-interpolation-filters="sRGB">
<feFlood flood-opacity="0" result="BackgroundImageFix"/>
<feColorMatrix in="SourceAlpha" type="matrix" values="0 0 0 0 0 0 0 0 0 0 0 0 0 0 0 0 0 0 127 0" result="hardAlpha"/>
<feOffset/>
<feGaussianBlur stdDeviation="0.55564"/>
<feColorMatrix type="matrix" values="0 0 0 0 1 0 0 0 0 0.94902 0 0 0 0 0.305882 0 0 0 1 0"/>
<feBlend mode="normal" in2="BackgroundImageFix" result="effect1_dropShadow_3103_27114"/>
<feBlend mode="normal" in="SourceGraphic" in2="effect1_dropShadow_3103_27114" result="shape"/>
</filter>
<filter id="filter11_d_3103_27114" x="24.8223" y="41.2608" width="6.11319" height="6.11123" filterUnits="userSpaceOnUse" color-interpolation-filters="sRGB">
<feFlood flood-opacity="0" result="BackgroundImageFix"/>
<feColorMatrix in="SourceAlpha" type="matrix" values="0 0 0 0 0 0 0 0 0 0 0 0 0 0 0 0 0 0 127 0" result="hardAlpha"/>
<feOffset/>
<feGaussianBlur stdDeviation="0.55564"/>
<feColorMatrix type="matrix" values="0 0 0 0 1 0 0 0 0 0.94902 0 0 0 0 0.305882 0 0 0 1 0"/>
<feBlend mode="normal" in2="BackgroundImageFix" result="effect1_dropShadow_3103_27114"/>
<feBlend mode="normal" in="SourceGraphic" in2="effect1_dropShadow_3103_27114" result="shape"/>
</filter>
<filter id="filter12_d_3103_27114" x="18.9864" y="26.6778" width="7.08194" height="7.08389" filterUnits="userSpaceOnUse" color-interpolation-filters="sRGB">
<feFlood flood-opacity="0" result="BackgroundImageFix"/>
<feColorMatrix in="SourceAlpha" type="matrix" values="0 0 0 0 0 0 0 0 0 0 0 0 0 0 0 0 0 0 127 0" result="hardAlpha"/>
<feOffset/>
<feGaussianBlur stdDeviation="0.55564"/>
<feColorMatrix type="matrix" values="0 0 0 0 1 0 0 0 0 0.94902 0 0 0 0 0.305882 0 0 0 1 0"/>
<feBlend mode="normal" in2="BackgroundImageFix" result="effect1_dropShadow_3103_27114"/>
<feBlend mode="normal" in="SourceGraphic" in2="effect1_dropShadow_3103_27114" result="shape"/>
</filter>
<filter id="filter13_d_3103_27114" x="44.2637" y="42.2334" width="5.14053" height="5.13955" filterUnits="userSpaceOnUse" color-interpolation-filters="sRGB">
<feFlood flood-opacity="0" result="BackgroundImageFix"/>
<feColorMatrix in="SourceAlpha" type="matrix" values="0 0 0 0 0 0 0 0 0 0 0 0 0 0 0 0 0 0 127 0" result="hardAlpha"/>
<feOffset/>
<feGaussianBlur stdDeviation="0.55564"/>
<feColorMatrix type="matrix" values="0 0 0 0 1 0 0 0 0 0.94902 0 0 0 0 0.305882 0 0 0 1 0"/>
<feBlend mode="normal" in2="BackgroundImageFix" result="effect1_dropShadow_3103_27114"/>
<feBlend mode="normal" in="SourceGraphic" in2="effect1_dropShadow_3103_27114" result="shape"/>
</filter>
<linearGradient id="paint0_linear_3103_27114" x1="6.44386" y1="6.39941" x2="6.44386" y2="62.9362" gradientUnits="userSpaceOnUse">
<stop stop-color="#AE66FF"/>
<stop offset="1" stop-color="#7E07E0"/>
</linearGradient>
<linearGradient id="paint1_linear_3103_27114" x1="58.0234" y1="20.0098" x2="58.0234" y2="38.482" gradientUnits="userSpaceOnUse">
<stop stop-color="#C28831"/>
<stop offset="1" stop-color="#A77934"/>
</linearGradient>
<linearGradient id="paint2_linear_3103_27114" x1="58.0234" y1="20.0098" x2="58.0234" y2="38.482" gradientUnits="userSpaceOnUse">
<stop stop-color="#C28831"/>
<stop offset="1" stop-color="#E8A643"/>
</linearGradient>
<linearGradient id="paint3_linear_3103_27114" x1="13.2969" y1="20.0098" x2="13.2969" y2="38.482" gradientUnits="userSpaceOnUse">
<stop stop-color="#C28831"/>
<stop offset="1" stop-color="#A77934"/>
</linearGradient>
<linearGradient id="paint4_linear_3103_27114" x1="13.2969" y1="20.0098" x2="13.2969" y2="38.482" gradientUnits="userSpaceOnUse">
<stop stop-color="#C28831"/>
<stop offset="1" stop-color="#E8A643"/>
</linearGradient>
<linearGradient id="paint5_linear_3103_27114" x1="22.0508" y1="16.4648" x2="22.0508" y2="32.6488" gradientUnits="userSpaceOnUse">
<stop stop-color="#C28831"/>
<stop offset="1" stop-color="#A77934"/>
</linearGradient>
<linearGradient id="paint6_linear_3103_27114" x1="22.0508" y1="16.4648" x2="22.0508" y2="32.6488" gradientUnits="userSpaceOnUse">
<stop stop-color="#C28831"/>
<stop offset="1" stop-color="#E8A643"/>
</linearGradient>
<linearGradient id="paint7_linear_3103_27114" x1="13.293" y1="13.2051" x2="13.293" y2="57.9273" gradientUnits="userSpaceOnUse">
<stop stop-color="#C28831"/>
<stop offset="1" stop-color="#E1A750"/>
</linearGradient>
<linearGradient id="paint8_linear_3103_27114" x1="20.0977" y1="20.0098" x2="20.0977" y2="51.1209" gradientUnits="userSpaceOnUse">
<stop stop-color="#C28831"/>
<stop offset="1" stop-color="#D79F4A"/>
</linearGradient>
<linearGradient id="paint9_linear_3103_27114" x1="27.8789" y1="26.8174" x2="27.8789" y2="35.5674" gradientUnits="userSpaceOnUse">
<stop stop-color="#27DEEB"/>
<stop offset="1" stop-color="#08C9FF"/>
</linearGradient>
<linearGradient id="paint10_linear_3103_27114" x1="27.8789" y1="35.5664" x2="27.8789" y2="44.3164" gradientUnits="userSpaceOnUse">
<stop stop-color="#009BF6"/>
<stop offset="1" stop-color="#00B5FF"/>
</linearGradient>
<linearGradient id="paint11_linear_3103_27114" x1="31.9062" y1="26.8174" x2="31.9062" y2="35.5674" gradientUnits="userSpaceOnUse">
<stop stop-color="#8AFFFF"/>
<stop offset="1" stop-color="#0DF3FF"/>
</linearGradient>
<linearGradient id="paint12_linear_3103_27114" x1="31.9062" y1="35.5664" x2="31.9062" y2="44.3164" gradientUnits="userSpaceOnUse">
<stop stop-color="#00BAF3"/>
<stop offset="1" stop-color="#00B5FF"/>
</linearGradient>
</defs>
</svg>
