<svg width="35" height="35" viewBox="0 0 35 35" fill="none" xmlns="http://www.w3.org/2000/svg">
<g clip-path="url(#clip0_472_2885)">
<path fill-rule="evenodd" clip-rule="evenodd" d="M7.2347 30.6757V18.2213H12.1908C14.2928 18.6463 16.392 19.9342 18.4941 21.4282H22.3421C24.0853 21.5474 24.9996 23.5437 23.302 24.8542C21.9519 25.9747 20.1717 25.9103 18.3459 25.7236C17.087 25.6527 17.0329 27.5653 18.3459 27.5718C18.8017 27.6136 19.2973 27.4913 19.7302 27.4913C22.006 27.488 23.8831 26.9954 25.0338 24.9604L25.6091 23.4407L31.3371 20.2337C34.2025 19.1679 36.239 22.5552 34.1284 24.9121C29.9813 28.322 25.7288 31.1297 21.3765 33.3965C18.2149 35.5699 15.0562 35.4959 11.8974 33.3965L7.2347 30.6757ZM18.3289 0C17.4915 0 16.7737 0.334867 16.1784 1.00138C15.5802 1.66789 15.2926 2.4793 15.2926 3.43238V10.9733C15.2926 11.9296 15.5888 12.7378 16.1784 13.4043C16.768 14.0708 17.4858 14.4057 18.3289 14.4057H20.824C20.4338 16.0961 20.0264 17.3165 18.8416 18.511C21.0775 17.8542 23.0143 16.5179 24.4043 14.4089H26.4124C27.2498 14.4089 27.9675 14.0676 28.5628 13.4075C29.1581 12.741 29.4486 11.9296 29.4486 10.9765V3.43238C29.4486 2.48574 29.1524 1.67433 28.5628 1.00138C27.9732 0.325207 27.2583 0 26.4124 0C23.7179 0 21.0234 0 18.3289 0ZM23.2393 8.95446H21.1743C21.1743 8.55198 21.1686 8.13661 21.2939 7.75345C21.3737 7.5023 21.4933 7.28013 21.65 7.07406C21.8066 6.86799 22.1627 6.50736 22.7124 5.99218C23.0058 5.72171 23.151 5.47378 23.151 5.24839C23.151 5.023 23.0912 4.84913 22.9744 4.72033C22.8548 4.59798 22.6782 4.53358 22.439 4.53358C22.1798 4.53358 21.969 4.63017 21.8009 4.82337C21.6329 5.01334 21.5247 5.35143 21.4791 5.83119L19.3685 5.53496C19.4425 4.65915 19.7217 3.954 20.2144 3.41628C20.7043 2.88178 21.4591 2.61454 22.476 2.61454C23.2678 2.61454 23.903 2.80129 24.3901 3.17157C25.048 3.67709 25.3784 4.35005 25.3784 5.18721C25.3784 5.53496 25.293 5.87304 25.1221 6.19503C24.954 6.51702 24.6037 6.91628 24.0796 7.37994C23.715 7.70837 23.4814 7.9724 23.3846 8.17203C23.2707 8.4103 23.2393 8.69365 23.2393 8.95446ZM23.3162 9.80129V11.3404H21.1031V9.80129H23.3162ZM0 17.0235H5.74219V31.9282H0V17.0235Z" fill="#FFE7AA"/>
</g>
<defs>
<clipPath id="clip0_472_2885">
<rect width="35" height="35" fill="white"/>
</clipPath>
</defs>
</svg>
