<svg width="40" height="40" viewBox="0 0 40 40" fill="none" xmlns="http://www.w3.org/2000/svg">
<ellipse cx="20" cy="20.002" rx="20" ry="20.002" fill="#FFFDF0"/>
<g clip-path="url(#clip0_1053_4223)">
<circle cx="20.4035" cy="19.7028" r="14.7472" fill="#FFE6EA"/>
<circle cx="20.4039" cy="20.4048" r="17.5562" stroke="#FFCFD8" stroke-width="0.200642" stroke-linecap="round" stroke-linejoin="round" stroke-dasharray="0.75 0.75"/>
<g clip-path="url(#clip1_1053_4223)">
<path d="M26.7689 5.75825L26.1423 6.38484L25.4146 5.65668L26.0199 5.05141L25.5739 4.60498L23.1641 7.01478L23.6101 7.46079L24.2153 6.85552L24.9435 7.58368L24.3169 8.21027L29.7343 13.6276L31.9911 13.6794L32.9479 14.6363L33.3885 14.5886L32.2356 13.4357L32.1838 11.1789L26.7689 5.75825ZM26.7689 6.47221L29.5211 9.22435L27.7872 10.9582L27.0866 10.2585L27.9561 9.38904L27.5882 9.0212L26.7188 9.89065L26.0709 9.24274L26.9403 8.37329L26.5725 8.00545L25.703 8.8749L25.0367 8.2086L26.7689 6.47221Z" fill="#5DA0BD"/>
</g>
<g clip-path="url(#clip2_1053_4223)">
<rect x="4.85547" y="6.61035" width="8.5273" height="8.74205" rx="0.501606" fill="white"/>
<path fill-rule="evenodd" clip-rule="evenodd" d="M11.447 8.67875C11.447 9.49856 11.2433 10.5678 10.9299 10.4055C10.8018 10.824 10.5327 11.1852 10.1685 11.4279C9.80425 11.6705 9.36726 11.7796 8.93171 11.7367C8.49617 11.6937 8.08892 11.5013 7.77911 11.1922C7.4693 10.883 7.27604 10.4762 7.23214 10.0408C6.92113 9.49666 6.51324 8.40635 7.56186 7.55647C7.58081 7.55031 7.59218 7.49915 7.60923 7.42382C7.67413 7.13887 7.81791 6.50548 8.72489 6.62652C9.42436 6.71961 11.447 7.08083 11.447 8.67899V8.67875ZM10.5455 9.1956C10.5455 9.1956 10.4384 9.50874 10.5388 9.85765C10.5375 10.2297 10.7418 10.4055 10.5794 10.93C10.417 11.4545 9.48957 11.7397 9.1176 11.7458C8.74562 11.7519 7.89941 11.4985 7.77911 11.0601C7.49335 10.4428 7.60923 10.2385 7.69735 9.90432C7.73169 9.77404 7.73169 9.55351 7.73146 9.30835C7.73122 8.86612 7.73075 8.3443 7.93327 8.13159C9.35188 9.07646 10.5455 9.1956 10.5455 9.1956Z" fill="#707070"/>
<path d="M6.51355 13.9349C6.51355 13.6786 6.64928 13.4541 6.85299 13.329C6.84523 13.2995 6.83797 13.2699 6.8312 13.2402C6.79525 13.0784 6.76719 12.9149 6.74711 12.7503C6.72675 12.5927 6.7145 12.4341 6.71039 12.2752C5.71057 12.6677 4.85547 13.3518 4.85547 14.0699V15.3561H13.3828V14.0699C13.3828 13.3821 12.5987 12.7257 11.6541 12.3266V12.3332C11.6584 12.4777 11.6503 12.6435 11.6347 12.8029C11.6205 12.9507 11.5994 13.0981 11.574 13.2243H11.7247C11.7687 13.2243 11.8118 13.2366 11.8492 13.2597C11.8866 13.2829 11.9168 13.316 11.9364 13.3553L12.1733 13.829C12.1899 13.862 12.1984 13.8982 12.1984 13.9349V14.4087C12.1984 14.4715 12.1735 14.5317 12.129 14.5762C12.0846 14.6206 12.0244 14.6455 11.9615 14.6455H11.4878V14.1718H11.7247V13.9908L11.5783 13.6981H10.9236L10.7772 13.9908V14.1718H11.0141V14.6455H10.5403C10.4775 14.6455 10.4173 14.6206 10.3728 14.5762C10.3284 14.5317 10.3035 14.4715 10.3035 14.4087V13.9349C10.3035 13.8982 10.312 13.862 10.3286 13.829L10.5654 13.3553C10.5851 13.316 10.6153 13.2829 10.6527 13.2597C10.6901 13.2366 10.7332 13.2243 10.7772 13.2243H11.0887C11.0939 13.2039 11.0991 13.1814 11.1043 13.1566C11.128 13.045 11.1491 12.9036 11.1633 12.7574C11.1775 12.6111 11.1841 12.4659 11.1806 12.3465C11.1797 12.297 11.1758 12.2477 11.169 12.1987C11.1638 12.165 11.1586 12.1496 11.1576 12.1463C11.1574 12.1456 11.1571 12.1454 11.1576 12.1459L11.1583 12.1456C11.0326 12.1066 10.9055 12.0724 10.7772 12.0431C10.6581 12.0158 10.5349 12.1797 10.4811 12.2823H7.6979C7.69098 12.2691 7.68419 12.2558 7.67753 12.2425C7.62731 12.1425 7.56549 12.0191 7.46103 12.0431C7.36984 12.0637 7.27864 12.0873 7.18745 12.1134C7.18451 12.1549 7.18324 12.1966 7.18366 12.2382C7.18461 12.3692 7.19716 12.5296 7.21729 12.6916C7.23743 12.8531 7.26467 13.0104 7.29309 13.1345C7.30114 13.1703 7.3092 13.2025 7.31678 13.2302C7.4522 13.248 7.57962 13.3045 7.68379 13.3928C7.78796 13.4812 7.86446 13.5977 7.90413 13.7284C7.94381 13.8591 7.94497 13.9984 7.90749 14.1298C7.87001 14.2611 7.79548 14.3789 7.6928 14.469C7.59013 14.559 7.46367 14.6176 7.32857 14.6377C7.19346 14.6578 7.05544 14.6385 6.93102 14.5821C6.80659 14.5258 6.70105 14.4348 6.62701 14.32C6.55297 14.2052 6.51358 14.0715 6.51355 13.9349Z" fill="#56A1E6"/>
<path d="M7.46202 13.9352C7.46202 14.0712 7.35259 14.1757 7.22515 14.1757C7.09771 14.1757 6.98828 14.0714 6.98828 13.9352C6.98828 13.7993 7.09771 13.6948 7.22515 13.6948C7.35259 13.6948 7.46202 13.799 7.46202 13.9352Z" fill="#56A1E6"/>
</g>
<path d="M12.8739 8.25439H26.7456V33.1523H12.8739V8.25439ZM8.25 14.9976H12.8739V33.1523H8.25V14.9976ZM26.7456 14.9976H31.3695V33.1523H26.7456V14.9976Z" fill="#FFECA9"/>
<path d="M16.6562 24.7949H23.3352V33.0152H16.6562V24.7949Z" fill="#FFE6C1"/>
<path d="M23.8471 14.0054H21.2783V11.4365H18.7095V14.0054H16.1406V16.5742H18.7095V19.143H21.2783V16.5742H23.8471V14.0054Z" fill="#EA5A47"/>
<path d="M10.2344 17.6021H11.2619V20.1709H10.2344V17.6021ZM10.2344 22.7397H11.2619V25.3085H10.2344V22.7397ZM10.2344 27.8774H11.2619V30.4462H10.2344V27.8774ZM28.73 17.6021H29.7575V20.1709H28.73V17.6021ZM28.73 22.7397H29.7575V25.3085H28.73V22.7397ZM28.73 27.8774H29.7575V30.4462H28.73V27.8774Z" stroke="#B7B7B7" stroke-width="0.501606" stroke-miterlimit="10" stroke-linecap="round" stroke-linejoin="round"/>
<path d="M13.0614 8.35107H26.9331V33.1501H13.0614V8.35107ZM8.4375 15.0675H13.0614V33.1501H8.4375V15.0675ZM26.9331 15.0675H31.557V33.1501H26.9331V15.0675Z" stroke="#8C8C8C" stroke-width="0.250803" stroke-miterlimit="10" stroke-linecap="round" stroke-linejoin="round"/>
<path d="M19.9959 33.1494V24.883M11.2619 20.2332H10.2344V17.65M11.2619 25.3997H10.2344V22.8164M11.2619 30.5662H10.2344V27.9829M29.7575 20.2332H28.73V17.65M29.7575 25.3997H28.73V22.8164M29.7575 30.5662H28.73V27.9829M16.6565 24.883H23.3354V33.1494H16.6565V24.883ZM23.8492 14.0334H21.2804V11.4502H18.7115V14.0334H16.1427V16.6167H18.7115V19.1999H21.2804V16.6167H23.8492V14.0334Z" stroke="white" stroke-width="0.125401" stroke-miterlimit="10" stroke-linecap="round" stroke-linejoin="round"/>
<g clip-path="url(#clip3_1053_4223)">
<path d="M25.1033 24.7607H23.7233C23.6955 24.7607 23.668 24.7653 23.6424 24.7742C23.6167 24.783 23.5933 24.796 23.5737 24.8124C23.554 24.8288 23.5385 24.8482 23.5278 24.8696C23.5172 24.891 23.5117 24.9139 23.5117 24.9371V25.9974C23.5117 26.0442 23.534 26.0891 23.5737 26.1221C23.6134 26.1552 23.6672 26.1738 23.7233 26.1738H25.1033V24.7607Z" fill="#FF473E"/>
<path d="M25.0898 26.1706H26.4018C26.4579 26.1706 26.5117 26.152 26.5514 26.1189C26.5911 26.0859 26.6134 26.041 26.6134 25.9942V24.9415C26.6134 24.8947 26.5911 24.8499 26.5514 24.8168C26.5117 24.7837 26.4579 24.7651 26.4018 24.7651H25.0898V26.1706Z" fill="#65BBF2"/>
<path d="M18.1992 31.92V29.1313C18.1992 28.8045 18.4408 28.5026 18.8328 28.3393L19.5836 28.0265C19.6795 27.9867 19.769 27.937 19.8498 27.8784L22.5393 25.9208C22.7005 25.7877 22.9334 25.7114 23.1782 25.7114H31.4208C32.1202 25.7114 32.6872 26.1208 32.6872 26.6259V31.92C32.6872 32.425 32.1202 32.8344 31.4208 32.8344H19.4656C18.7662 32.8345 18.1992 32.4251 18.1992 31.92Z" fill="white"/>
<path d="M19.3555 32.8137C19.3555 31.9825 20.1641 31.3086 21.1616 31.3086C22.159 31.3086 22.9677 31.9825 22.9677 32.8137M31.1381 32.8137C31.1381 31.9825 30.3295 31.3086 29.332 31.3086C28.3345 31.3086 27.5259 31.9825 27.5259 32.8137" fill="#828282"/>
<path d="M22.4779 32.8121C22.4779 33.4192 21.8874 33.9113 21.1589 33.9113C20.4304 33.9113 19.8398 33.4192 19.8398 32.8121C19.8398 32.205 20.4304 31.7129 21.1589 31.7129C21.8874 31.7129 22.4779 32.205 22.4779 32.8121ZM29.3293 31.7129C28.6008 31.7129 28.0103 32.205 28.0103 32.8121C28.0103 33.4192 28.6008 33.9113 29.3293 33.9113C30.0578 33.9113 30.6483 33.4192 30.6483 32.8121C30.6483 32.205 30.0578 31.7129 29.3293 31.7129Z" fill="#2B3B47"/>
<path d="M23.1035 26.4502H24.7903C24.8495 26.4502 24.9062 26.4698 24.948 26.5046C24.9898 26.5395 25.0133 26.5867 25.0133 26.636V28.2919C25.0133 28.3412 24.9898 28.3884 24.948 28.4233C24.9062 28.4581 24.8495 28.4777 24.7903 28.4777H21.0242C20.8231 28.4777 20.7248 28.2733 20.8702 28.1576L22.9495 26.5017C22.991 26.4686 23.0462 26.4502 23.1035 26.4502Z" fill="#00B1FF"/>
<path d="M30.8354 27.405V28.2284C30.8354 28.2424 30.8287 28.2559 30.8168 28.2658C30.8049 28.2757 30.7888 28.2813 30.7719 28.2813H29.8293V29.0668C29.8293 29.0738 29.8277 29.0806 29.8245 29.0871C29.8213 29.0935 29.8166 29.0993 29.8107 29.1042C29.8048 29.1091 29.7978 29.113 29.7901 29.1157C29.7824 29.1183 29.7742 29.1197 29.7658 29.1197H28.7778C28.7694 29.1197 28.7612 29.1183 28.7535 29.1157C28.7458 29.113 28.7388 29.1091 28.7329 29.1042C28.727 29.0993 28.7223 29.0935 28.7191 29.0871C28.7159 29.0806 28.7143 29.0738 28.7143 29.0668V28.2813H27.7716C27.7633 28.2813 27.7551 28.2799 27.7473 28.2773C27.7396 28.2746 27.7326 28.2707 27.7268 28.2658C27.7209 28.2609 27.7162 28.2551 27.713 28.2486C27.7098 28.2422 27.7082 28.2353 27.7082 28.2284V27.405C27.7082 27.3981 27.7098 27.3912 27.713 27.3848C27.7162 27.3783 27.7209 27.3725 27.7268 27.3676C27.7326 27.3627 27.7396 27.3588 27.7473 27.3561C27.7551 27.3535 27.7633 27.3521 27.7716 27.3521H28.7143V26.5666C28.7143 26.5525 28.721 26.5391 28.7329 26.5292C28.7448 26.5192 28.7609 26.5137 28.7778 26.5137H29.7658C29.7827 26.5137 29.7988 26.5192 29.8107 26.5292C29.8226 26.5391 29.8293 26.5525 29.8293 26.5666V27.3521H30.7719C30.7888 27.3521 30.8049 27.3577 30.8168 27.3676C30.8287 27.3775 30.8354 27.391 30.8354 27.405ZM32.6872 30.094H18.1992V31.0643H32.6872V30.094Z" fill="#FF473E"/>
<path d="M21.7607 32.8129C21.7607 33.0895 21.4916 33.3138 21.1597 33.3138C20.8277 33.3138 20.5586 33.0895 20.5586 32.8129C20.5586 32.5363 20.8277 32.312 21.1597 32.312C21.4916 32.312 21.7607 32.5363 21.7607 32.8129ZM29.3301 32.312C28.9981 32.312 28.729 32.5363 28.729 32.8129C28.729 33.0895 28.9981 33.3138 29.3301 33.3138C29.6621 33.3138 29.9312 33.0895 29.9312 32.8129C29.9312 32.5363 29.6621 32.312 29.3301 32.312Z" fill="#828282"/>
</g>
</g>
<defs>
<clipPath id="clip0_1053_4223">
<rect x="1.59375" y="1.59521" width="36.8098" height="36.8134" fill="white"/>
</clipPath>
<clipPath id="clip1_1053_4223">
<rect width="10.0321" height="10.0321" fill="white" transform="translate(23.1641 4.604)"/>
</clipPath>
<clipPath id="clip2_1053_4223">
<rect x="4.85547" y="6.61035" width="8.5273" height="8.74205" rx="0.501606" fill="white"/>
</clipPath>
<clipPath id="clip3_1053_4223">
<rect width="15.0482" height="12.5401" fill="white" transform="translate(17.8945 22.6631)"/>
</clipPath>
</defs>
</svg>
