<svg width="20" height="21" viewBox="0 0 20 21" fill="none" xmlns="http://www.w3.org/2000/svg">
<path d="M16.3009 6.33334C16.3457 6.07795 16.334 5.81587 16.2667 5.56548C16.1994 5.31509 16.0781 5.08246 15.9113 4.88393C15.7445 4.6854 15.5363 4.52578 15.3013 4.41627C15.0663 4.30675 14.8102 4.25001 14.5509 4.25001H5.44757C5.18829 4.25001 4.93215 4.30675 4.69714 4.41627C4.46212 4.52578 4.25393 4.6854 4.08716 4.88393C3.9204 5.08246 3.79911 5.31509 3.7318 5.56548C3.6645 5.81587 3.65281 6.07795 3.69757 6.33334M14.5826 4.25001C14.6059 4.03334 14.6184 3.92584 14.6184 3.83667C14.6193 3.42475 14.4676 3.02708 14.1926 2.72039C13.9176 2.4137 13.5388 2.21971 13.1292 2.17584C13.0409 2.16667 12.9326 2.16667 12.7159 2.16667H7.28256C7.0659 2.16667 6.95673 2.16667 6.8684 2.17584C6.45882 2.21971 6.07999 2.4137 5.805 2.72039C5.53001 3.02708 5.37833 3.42475 5.37923 3.83667C5.37923 3.92584 5.3909 4.03417 5.41507 4.25001" stroke="#394F89" stroke-width="0.8"/>
<path d="M12.5 15.5H7.5" stroke="#394F89" stroke-width="0.8" stroke-linecap="round"/>
<path d="M1.98629 11.9942C1.61379 9.35751 1.42796 8.04001 2.21796 7.18584C3.00796 6.33334 4.41462 6.33334 7.22629 6.33334H12.773C15.5846 6.33334 16.9913 6.33334 17.7813 7.18668C18.5705 8.04001 18.3846 9.35751 18.013 11.9942L17.6613 14.4942C17.3696 16.5608 17.2238 17.595 16.4763 18.2142C15.7288 18.8333 14.6263 18.8333 12.4205 18.8333H7.57879C5.37379 18.8333 4.27046 18.8333 3.52296 18.2142C2.77546 17.595 2.62962 16.5617 2.33796 14.4942L1.98629 11.9942Z" stroke="#394F89" stroke-width="0.8"/>
</svg>
