<svg width="160" height="41" viewBox="0 0 160 41" fill="none" xmlns="http://www.w3.org/2000/svg">
<path d="M15.3748 34.5667C15.7218 34.5667 16.0546 34.7045 16.3 34.9499C16.5453 35.1953 16.6832 35.528 16.6832 35.875C16.6832 36.222 16.5453 36.5548 16.3 36.8002C16.0546 37.0455 15.7218 37.1834 15.3748 37.1834L10.2498 37.1834C8.54361 37.1834 6.90727 36.5056 5.70078 35.2991C4.4943 34.0926 3.8165 32.4563 3.8165 30.75L3.8165 25.625C3.8165 25.278 3.95435 24.9453 4.19971 24.6999C4.44507 24.4545 4.77785 24.3167 5.12484 24.3167C5.47183 24.3167 5.80461 24.4545 6.04997 24.6999C6.29533 24.9453 6.43317 25.278 6.43317 25.625L6.43317 30.75C6.43317 31.7623 6.83528 32.7331 7.55105 33.4488C8.26681 34.1646 9.23759 34.5667 10.2498 34.5667L15.3748 34.5667ZM15.3748 6.43337L10.2498 6.43337C9.23759 6.43337 8.26681 6.83549 7.55105 7.55125C6.83528 8.26701 6.43317 9.2378 6.43317 10.25L6.43317 15.375C6.43317 15.722 6.29533 16.0548 6.04997 16.3002C5.80461 16.5455 5.47183 16.6834 5.12484 16.6834C4.77785 16.6834 4.44507 16.5455 4.19971 16.3002C3.95434 16.0548 3.8165 15.722 3.8165 15.375L3.8165 10.25C3.8165 8.54381 4.4943 6.90747 5.70078 5.70099C6.90727 4.4945 8.54361 3.81671 10.2498 3.81671L15.3748 3.81671C15.7218 3.81671 16.0546 3.95455 16.3 4.19991C16.5453 4.44527 16.6832 4.77805 16.6832 5.12504C16.6832 5.47203 16.5453 5.80481 16.3 6.05017C16.0546 6.29553 15.7218 6.43337 15.3748 6.43337Z" fill="#394F89" stroke="white" stroke-width="0.8"/>
<path d="M12.288 21.852L14.24 21.5C14.512 23.02 15.6 23.884 17.264 23.884C18.848 23.884 19.696 23.34 19.696 22.316C19.648 21.436 19.184 21.164 16.688 20.508C14.016 19.804 12.944 18.876 12.944 17.276C12.944 15.404 14.592 14.06 16.912 14.06C19.2 14.06 21.04 15.436 21.424 17.42L19.472 17.788C19.216 16.652 18.208 15.916 16.912 15.916C15.744 15.916 14.944 16.476 14.944 17.26C15.008 18.028 15.376 18.204 17.888 18.892C19.248 19.26 20.224 19.724 20.816 20.252C21.408 20.78 21.696 21.484 21.696 22.364C21.696 24.428 19.952 25.74 17.264 25.74C15.92 25.74 14.8 25.388 13.904 24.7C13.024 24.012 12.48 23.052 12.288 21.852ZM22.685 21.26C22.685 18.54 24.381 16.78 26.765 16.78C27.741 16.78 28.573 17.052 29.261 17.596C29.949 18.14 30.397 18.876 30.573 19.804L28.717 20.204C28.477 19.164 27.741 18.556 26.765 18.556C25.405 18.556 24.605 19.58 24.605 21.26C24.605 22.94 25.405 23.964 26.765 23.964C27.837 23.964 28.525 23.34 28.733 22.188L30.589 22.572C30.269 24.556 28.749 25.74 26.765 25.74C24.381 25.74 22.685 23.964 22.685 21.26ZM39.7684 23.788L39.9764 25.42C39.5444 25.5 39.1604 25.548 38.8564 25.548C38.0724 25.548 37.4804 25.196 37.2244 24.604C36.6964 25.26 35.7524 25.66 34.6644 25.66C32.8084 25.66 31.5764 24.668 31.5764 23.148C31.5764 21.74 32.4244 20.988 34.4884 20.556C36.3124 20.14 36.7444 19.964 36.7444 19.388C36.7444 18.812 36.1524 18.412 35.2564 18.412C34.1844 18.412 33.4324 19.02 33.3044 19.964L31.5444 19.692C31.7684 17.98 33.3364 16.78 35.2564 16.78C37.3044 16.78 38.5524 17.868 38.5524 19.612V23.116C38.5524 23.628 38.7124 23.868 39.1124 23.868C39.2724 23.868 39.4964 23.836 39.7684 23.788ZM36.7444 22.54V21.164C36.5524 21.42 36.1364 21.596 34.9844 21.932C33.7204 22.3 33.3844 22.54 33.3844 23.068C33.3844 23.692 33.8484 24.012 34.6964 24.012C35.8964 24.012 36.7444 23.388 36.7444 22.54ZM48.8313 20.364V25.5H46.9113V20.604C46.9113 19.26 46.2393 18.556 45.0073 18.556C43.7913 18.556 42.9913 19.388 42.9913 20.62V25.5H41.0713V17.02H42.9433V17.836C43.5033 17.18 44.4473 16.78 45.4873 16.78C47.3753 16.78 48.8313 18.188 48.8313 20.364ZM55.8731 14.86L57.7931 14.3V17.02H60.3531V18.796H57.7931V23.052C57.7931 23.644 58.0971 23.964 58.6571 23.964C59.1211 23.964 59.5531 23.884 60.2091 23.644L60.6891 25.356C59.7451 25.66 59.2011 25.74 58.4971 25.74C56.9451 25.74 55.8731 24.716 55.8731 23.228V18.796H54.0011V17.02H55.8731V14.86ZM60.9819 21.26C60.9819 18.524 62.5979 16.78 65.0619 16.78C67.5259 16.78 69.1419 18.524 69.1419 21.26C69.1419 23.996 67.5259 25.74 65.0619 25.74C62.5979 25.74 60.9819 23.996 60.9819 21.26ZM67.2219 21.26C67.2219 19.596 66.4699 18.556 65.0619 18.556C63.6699 18.556 62.9019 19.596 62.9019 21.26C62.9019 22.924 63.6699 23.964 65.0619 23.964C66.4699 23.964 67.2219 22.924 67.2219 21.26ZM75.1375 14.3H78.8655C82.1775 14.3 84.1295 16.332 84.1295 19.9C84.1295 23.452 82.1295 25.5 78.8655 25.5H75.1375V14.3ZM82.1295 19.9C82.1295 17.356 80.9935 16.156 78.6735 16.156H77.1375V23.644H78.6735C80.9935 23.644 82.1295 22.444 82.1295 19.9ZM85.2475 21.26C85.2475 18.524 86.8635 16.78 89.3275 16.78C91.7915 16.78 93.4075 18.524 93.4075 21.26C93.4075 23.996 91.7915 25.74 89.3275 25.74C86.8635 25.74 85.2475 23.996 85.2475 21.26ZM91.4875 21.26C91.4875 19.596 90.7355 18.556 89.3275 18.556C87.9355 18.556 87.1675 19.596 87.1675 21.26C87.1675 22.924 87.9355 23.964 89.3275 23.964C90.7355 23.964 91.4875 22.924 91.4875 21.26ZM103.896 17.02H105.672L103.496 25.5H101.432L99.7043 19.916L97.9923 25.5H95.9123L93.7363 17.02H95.5123L97.0483 23.116L98.9363 17.02H100.488L102.36 23.116L103.896 17.02ZM114.55 20.364V25.5H112.63V20.604C112.63 19.26 111.958 18.556 110.726 18.556C109.51 18.556 108.71 19.388 108.71 20.62V25.5H106.79V17.02H108.662V17.836C109.222 17.18 110.166 16.78 111.206 16.78C113.094 16.78 114.55 18.188 114.55 20.364ZM116.556 25.5V14.3H118.476V25.5H116.556ZM120.076 21.26C120.076 18.524 121.692 16.78 124.156 16.78C126.62 16.78 128.236 18.524 128.236 21.26C128.236 23.996 126.62 25.74 124.156 25.74C121.692 25.74 120.076 23.996 120.076 21.26ZM126.316 21.26C126.316 19.596 125.564 18.556 124.156 18.556C122.764 18.556 121.996 19.596 121.996 21.26C121.996 22.924 122.764 23.964 124.156 23.964C125.564 23.964 126.316 22.924 126.316 21.26ZM137.581 23.788L137.789 25.42C137.357 25.5 136.973 25.548 136.669 25.548C135.885 25.548 135.293 25.196 135.037 24.604C134.509 25.26 133.565 25.66 132.477 25.66C130.621 25.66 129.389 24.668 129.389 23.148C129.389 21.74 130.237 20.988 132.301 20.556C134.125 20.14 134.557 19.964 134.557 19.388C134.557 18.812 133.965 18.412 133.069 18.412C131.997 18.412 131.245 19.02 131.117 19.964L129.357 19.692C129.581 17.98 131.149 16.78 133.069 16.78C135.117 16.78 136.365 17.868 136.365 19.612V23.116C136.365 23.628 136.525 23.868 136.925 23.868C137.085 23.868 137.309 23.836 137.581 23.788ZM134.557 22.54V21.164C134.365 21.42 133.949 21.596 132.797 21.932C131.533 22.3 131.197 22.54 131.197 23.068C131.197 23.692 131.661 24.012 132.509 24.012C133.709 24.012 134.557 23.388 134.557 22.54ZM144.328 14.3H146.248V25.5H144.376V24.828C143.864 25.388 143 25.74 142.088 25.74C139.799 25.74 138.248 23.932 138.248 21.26C138.248 18.588 139.799 16.78 142.088 16.78C143.032 16.78 143.816 17.068 144.328 17.564V14.3ZM144.328 21.996V20.508C144.328 19.34 143.528 18.556 142.312 18.556C140.968 18.556 140.168 19.58 140.168 21.26C140.168 22.94 140.968 23.964 142.312 23.964C143.528 23.964 144.328 23.164 144.328 21.996Z" fill="#0D0D0D"/>
<path d="M144.625 34.5667C144.278 34.5667 143.945 34.7045 143.7 34.9499C143.455 35.1953 143.317 35.528 143.317 35.875C143.317 36.222 143.455 36.5548 143.7 36.8002C143.945 37.0455 144.278 37.1834 144.625 37.1834L149.75 37.1834C151.456 37.1834 153.093 36.5056 154.299 35.2991C155.506 34.0926 156.183 32.4563 156.183 30.75L156.183 25.625C156.183 25.278 156.046 24.9453 155.8 24.6999C155.555 24.4545 155.222 24.3167 154.875 24.3167C154.528 24.3167 154.195 24.4545 153.95 24.6999C153.705 24.9453 153.567 25.278 153.567 25.625L153.567 30.75C153.567 31.7623 153.165 32.7331 152.449 33.4488C151.733 34.1646 150.762 34.5667 149.75 34.5667L144.625 34.5667ZM144.625 6.43337L149.75 6.43337C150.762 6.43337 151.733 6.83549 152.449 7.55125C153.165 8.26701 153.567 9.2378 153.567 10.25L153.567 15.375C153.567 15.722 153.705 16.0548 153.95 16.3002C154.195 16.5455 154.528 16.6834 154.875 16.6834C155.222 16.6834 155.555 16.5455 155.8 16.3002C156.046 16.0548 156.183 15.722 156.183 15.375L156.183 10.25C156.183 8.54381 155.506 6.90747 154.299 5.70099C153.093 4.4945 151.456 3.81671 149.75 3.81671L144.625 3.81671C144.278 3.81671 143.945 3.95455 143.7 4.19991C143.455 4.44527 143.317 4.77805 143.317 5.12504C143.317 5.47203 143.455 5.80481 143.7 6.05017C143.945 6.29553 144.278 6.43337 144.625 6.43337Z" fill="#394F89" stroke="white" stroke-width="0.8"/>
</svg>
