<svg width="43" height="43" viewBox="0 0 43 43" fill="none" xmlns="http://www.w3.org/2000/svg">
<rect x="1" y="1" width="41" height="41" rx="20" stroke="#0C3896"/>
<path d="M31.9154 17.967V26.4482C31.9154 27.313 31.5846 28.1449 30.9907 28.7735C30.3968 29.402 29.585 29.7795 28.7216 29.8285L28.5299 29.8337H14.4674C13.6027 29.8337 12.7708 29.5029 12.1422 28.909C11.5137 28.3151 11.1362 27.5032 11.0872 26.6399L11.082 26.4482V17.967L21.1362 23.2337C21.248 23.2922 21.3724 23.3228 21.4987 23.3228C21.625 23.3228 21.7493 23.2922 21.8612 23.2337L31.9154 17.967ZM14.4674 13.167H28.5299C29.3691 13.1669 30.1784 13.4784 30.8008 14.0412C31.4233 14.604 31.8145 15.3779 31.8987 16.2128L21.4987 21.6607L11.0987 16.2128C11.1795 15.4111 11.5435 14.6644 12.1255 14.1071C12.7075 13.5497 13.4692 13.2182 14.2737 13.1722L14.4674 13.167Z" fill="#0C3896"/>
</svg>
