<svg width="42" height="42" viewBox="0 0 42 42" fill="none" xmlns="http://www.w3.org/2000/svg">
<rect x="1" y="1" width="40" height="40" rx="20" stroke="#0C3896"/>
<path d="M21 11C26.523 11 31 15.477 31 21C31 26.523 26.523 31 21 31C19.2328 31.003 17.4966 30.5353 15.97 29.645L11.004 31L12.356 26.032C11.465 24.5049 10.9969 22.768 11 21C11 15.477 15.477 11 21 11ZM17.592 16.3L17.392 16.308C17.2627 16.3169 17.1364 16.3509 17.02 16.408C16.9116 16.4695 16.8126 16.5463 16.726 16.636C16.606 16.749 16.538 16.847 16.465 16.942C16.0951 17.4229 15.896 18.0133 15.899 18.62C15.901 19.11 16.029 19.587 16.229 20.033C16.638 20.935 17.311 21.89 18.199 22.775C18.413 22.988 18.623 23.202 18.849 23.401C19.9524 24.3724 21.2673 25.073 22.689 25.447L23.257 25.534C23.442 25.544 23.627 25.53 23.813 25.521C24.1042 25.5056 24.3885 25.4268 24.646 25.29C24.7769 25.2223 24.9047 25.1489 25.029 25.07C25.029 25.07 25.0714 25.0413 25.154 24.98C25.289 24.88 25.372 24.809 25.484 24.692C25.568 24.6053 25.638 24.5047 25.694 24.39C25.772 24.227 25.85 23.916 25.882 23.657C25.906 23.459 25.899 23.351 25.896 23.284C25.892 23.177 25.803 23.066 25.706 23.019L25.124 22.758C25.124 22.758 24.254 22.379 23.722 22.137C23.6663 22.1128 23.6067 22.0989 23.546 22.096C23.4776 22.0888 23.4084 22.0965 23.3432 22.1184C23.278 22.1403 23.2182 22.176 23.168 22.223C23.163 22.221 23.096 22.278 22.373 23.154C22.3315 23.2098 22.2744 23.2519 22.2088 23.2751C22.1433 23.2982 22.0723 23.3013 22.005 23.284C21.9398 23.2666 21.876 23.2446 21.814 23.218C21.69 23.166 21.647 23.146 21.562 23.11C20.9879 22.8599 20.4565 22.5215 19.987 22.107C19.861 21.997 19.744 21.877 19.624 21.761C19.2306 21.3842 18.8878 20.958 18.604 20.493L18.545 20.398C18.5033 20.3338 18.4691 20.265 18.443 20.193C18.405 20.046 18.504 19.928 18.504 19.928C18.504 19.928 18.747 19.662 18.86 19.518C18.97 19.378 19.063 19.242 19.123 19.145C19.241 18.955 19.278 18.76 19.216 18.609C18.936 17.925 18.6467 17.2447 18.348 16.568C18.289 16.434 18.114 16.338 17.955 16.319C17.901 16.3123 17.847 16.307 17.793 16.303C17.6587 16.2953 17.5241 16.2966 17.39 16.307L17.592 16.3Z" fill="#0C3896"/>
</svg>
