<svg width="40" height="40" viewBox="0 0 40 40" fill="none" xmlns="http://www.w3.org/2000/svg">
<path fill-rule="evenodd" clip-rule="evenodd" d="M32.5 20C32.5 19.6792 32.3726 19.3715 32.1457 19.1447C31.9188 18.9178 31.6111 18.7903 31.2903 18.7903H8.70968C8.38885 18.7903 8.08116 18.9178 7.85431 19.1447C7.62745 19.3715 7.5 19.6792 7.5 20C7.5 20.3209 7.62745 20.6285 7.85431 20.8554C8.08116 21.0823 8.38885 21.2097 8.70968 21.2097H31.2903C31.6111 21.2097 31.9188 21.0823 32.1457 20.8554C32.3726 20.6285 32.5 20.3209 32.5 20ZM32.5 11.9355C32.5 11.6147 32.3726 11.307 32.1457 11.0801C31.9188 10.8533 31.6111 10.7258 31.2903 10.7258H8.70968C8.38885 10.7258 8.08116 10.8533 7.85431 11.0801C7.62745 11.307 7.5 11.6147 7.5 11.9355C7.5 12.2563 7.62745 12.564 7.85431 12.7909C8.08116 13.0177 8.38885 13.1452 8.70968 13.1452H31.2903C31.6111 13.1452 31.9188 13.0177 32.1457 12.7909C32.3726 12.564 32.5 12.2563 32.5 11.9355ZM32.5 28.0645C32.5 27.7437 32.3726 27.436 32.1457 27.2092C31.9188 26.9823 31.6111 26.8549 31.2903 26.8549H8.70968C8.38885 26.8549 8.08116 26.9823 7.85431 27.2092C7.62745 27.436 7.5 27.7437 7.5 28.0645C7.5 28.3854 7.62745 28.6931 7.85431 28.9199C8.08116 29.1468 8.38885 29.2742 8.70968 29.2742H31.2903C31.6111 29.2742 31.9188 29.1468 32.1457 28.9199C32.3726 28.6931 32.5 28.3854 32.5 28.0645Z" fill="#495555"/>
</svg>
