<svg width="24" height="25" viewBox="0 0 24 25" fill="none" xmlns="http://www.w3.org/2000/svg">
<path d="M18 7.50091V17.5009M6.972 5.76791C6.88355 5.69802 6.77719 5.65445 6.66513 5.64222C6.55306 5.62998 6.43981 5.64956 6.33836 5.69872C6.23691 5.74788 6.15136 5.82463 6.09152 5.92017C6.03167 6.01571 5.99996 6.12618 6 6.23891V18.7629C6.00014 18.8756 6.032 18.9859 6.09191 19.0813C6.15183 19.1767 6.23739 19.2533 6.33881 19.3023C6.44022 19.3514 6.5534 19.3709 6.66537 19.3586C6.77735 19.3463 6.88362 19.3028 6.972 19.2329L14.903 12.9719C14.9742 12.9158 15.0317 12.8442 15.0712 12.7626C15.1108 12.681 15.1313 12.5916 15.1313 12.5009C15.1313 12.4103 15.1108 12.3208 15.0712 12.2392C15.0317 12.1576 14.9742 12.0861 14.903 12.0299L6.972 5.76791Z" stroke="black" stroke-width="1.5" stroke-linecap="round" stroke-linejoin="round"/>
</svg>
