<svg width="36" height="37" viewBox="0 0 36 37" fill="none" xmlns="http://www.w3.org/2000/svg">
<path d="M30.9885 11.8765H25.5C25.2016 11.8765 24.9155 11.7579 24.7045 11.547C24.4935 11.336 24.375 11.0498 24.375 10.7515C24.375 10.4531 24.4935 10.1669 24.7045 9.95597C24.9155 9.74499 25.2016 9.62646 25.5 9.62646H29.934L30.252 4.67646C30.2601 4.52813 30.2979 4.38292 30.3629 4.24937C30.428 4.11582 30.5191 3.99663 30.6309 3.8988C30.7427 3.80097 30.873 3.72649 31.014 3.67972C31.155 3.63295 31.3039 3.61484 31.452 3.62646C31.5998 3.63618 31.7442 3.67495 31.877 3.74054C32.0098 3.80614 32.1283 3.89727 32.2258 4.00873C32.3234 4.12019 32.398 4.24978 32.4453 4.3901C32.4927 4.53041 32.512 4.6787 32.502 4.82646L32.115 10.8265C32.0959 11.1119 31.9688 11.3794 31.7596 11.5744C31.5503 11.7695 31.2746 11.8775 30.9885 11.8765Z" fill="white"/>
<path d="M18.1217 34.25C15.2913 34.2494 12.5109 33.5038 10.06 32.0882C7.60904 30.6726 5.5739 28.6367 4.15909 26.1853C2.74428 23.7339 1.99963 20.9533 2 18.1229C2.00037 15.2925 2.74573 12.5121 4.16118 10.0611C5.57662 7.61001 7.61229 5.57472 10.0636 4.15971C12.5149 2.74471 15.2954 1.99985 18.1258 2C20.9562 2.00015 23.7367 2.74529 26.1879 4.16055C28.639 5.57581 30.6745 7.61131 32.0897 10.0625C32.2388 10.3211 32.2792 10.6283 32.2018 10.9167C32.1245 11.205 31.9357 11.4508 31.6772 11.6C31.4186 11.7492 31.1113 11.7895 30.823 11.7122C30.5346 11.6348 30.2888 11.4461 30.1397 11.1875C28.457 8.27063 25.7713 6.06497 22.583 4.98149C19.3946 3.89801 15.9211 4.0106 12.8097 5.2983C9.69818 6.58599 7.16096 8.96095 5.67074 11.9807C4.18053 15.0004 3.83896 18.4589 4.70968 21.7118C5.58039 24.9647 7.60401 27.7901 10.4035 29.6615C13.2029 31.533 16.5873 32.3229 19.926 31.884C23.2647 31.4452 26.33 29.8075 28.5507 27.2761C30.7714 24.7448 31.9962 21.4924 31.9967 18.125C31.9967 17.8266 32.1152 17.5405 32.3262 17.3295C32.5371 17.1185 32.8233 17 33.1217 17C33.42 17 33.7062 17.1185 33.9172 17.3295C34.1281 17.5405 34.2467 17.8266 34.2467 18.125C34.2419 22.4002 32.5415 26.4988 29.5185 29.5218C26.4955 32.5448 22.3968 34.2452 18.1217 34.25Z" fill="white"/>
<path d="M13.568 22.25V16.13C13.028 16.61 12.416 16.922 11.444 17.21L11.06 15.902C11.708 15.71 12.224 15.482 12.62 15.218C13.016 14.942 13.4 14.57 13.76 14.102H15.008V22.25H13.568ZM16.9334 18.17C16.9334 15.446 18.0494 13.922 20.0174 13.922C21.9854 13.922 23.1014 15.446 23.1014 18.17C23.1014 20.894 21.9854 22.43 20.0174 22.43C18.0494 22.43 16.9334 20.906 16.9334 18.17ZM21.6614 18.17C21.6614 16.226 21.1094 15.254 20.0174 15.254C18.9254 15.254 18.3734 16.226 18.3734 18.17C18.3734 20.126 18.9254 21.098 20.0174 21.098C21.1094 21.098 21.6614 20.126 21.6614 18.17Z" fill="white"/>
</svg>
