<svg width="36" height="37" viewBox="0 0 36 37" fill="none" xmlns="http://www.w3.org/2000/svg">
<path d="M5.0115 11.8765H10.5C10.7984 11.8765 11.0845 11.7579 11.2955 11.547C11.5065 11.336 11.625 11.0498 11.625 10.7515C11.625 10.4531 11.5065 10.1669 11.2955 9.95597C11.0845 9.74499 10.7984 9.62646 10.5 9.62646H6.066L5.748 4.67646C5.73986 4.52813 5.70214 4.38292 5.63707 4.24937C5.572 4.11582 5.48088 3.99663 5.36908 3.8988C5.25728 3.80097 5.12704 3.72649 4.98604 3.67972C4.84504 3.63295 4.6961 3.61484 4.548 3.62646C4.40022 3.63618 4.2558 3.67495 4.12302 3.74054C3.99023 3.80614 3.87169 3.89727 3.77416 4.00873C3.67664 4.12019 3.60205 4.24978 3.55466 4.3901C3.50727 4.53041 3.48802 4.6787 3.498 4.82646L3.885 10.8265C3.90407 11.1119 4.03117 11.3794 4.24044 11.5744C4.44971 11.7695 4.72542 11.8775 5.0115 11.8765Z" fill="white"/>
<path d="M18.0004 34.375C20.8308 34.3744 23.6112 33.6288 26.0621 32.2132C28.513 30.7976 30.5482 28.7617 31.963 26.3103C33.3778 23.8589 34.1224 21.0783 34.1221 18.2479C34.1217 15.4175 33.3763 12.6371 31.9609 10.1861C30.5454 7.73501 28.5098 5.69972 26.0585 4.28471C23.6072 2.86971 20.8266 2.12485 17.9962 2.125C15.1658 2.12515 12.3854 2.87029 9.93421 4.28555C7.48306 5.70081 5.44761 7.73631 4.03241 10.1875C3.88323 10.4461 3.84288 10.7533 3.92024 11.0417C3.99759 11.33 4.18633 11.5758 4.44491 11.725C4.7035 11.8742 5.01076 11.9145 5.29909 11.8372C5.58743 11.7598 5.83323 11.5711 5.98241 11.3125C7.66507 8.39563 10.3508 6.18997 13.5391 5.10649C16.7274 4.02301 20.2009 4.1356 23.3124 5.4233C26.4239 6.71099 28.9611 9.08595 30.4513 12.1057C31.9415 15.1254 32.2831 18.5839 31.4124 21.8368C30.5417 25.0897 28.5181 27.9151 25.7186 29.7865C22.9191 31.658 19.5347 32.4479 16.1961 32.009C12.8574 31.5702 9.7921 29.9325 7.57137 27.4011C5.35063 24.8698 4.12592 21.6174 4.12541 18.25C4.12541 17.9516 4.00689 17.6655 3.79591 17.4545C3.58493 17.2435 3.29878 17.125 3.00041 17.125C2.70204 17.125 2.41589 17.2435 2.20492 17.4545C1.99394 17.6655 1.87541 17.9516 1.87541 18.25C1.88018 22.5252 3.58059 26.6238 6.60358 29.6468C9.62657 32.6698 13.7253 34.3702 18.0004 34.375Z" fill="white"/>
<path d="M13.568 22.25V16.13C13.028 16.61 12.416 16.922 11.444 17.21L11.06 15.902C11.708 15.71 12.224 15.482 12.62 15.218C13.016 14.942 13.4 14.57 13.76 14.102H15.008V22.25H13.568ZM16.9334 18.17C16.9334 15.446 18.0494 13.922 20.0174 13.922C21.9854 13.922 23.1014 15.446 23.1014 18.17C23.1014 20.894 21.9854 22.43 20.0174 22.43C18.0494 22.43 16.9334 20.906 16.9334 18.17ZM21.6614 18.17C21.6614 16.226 21.1094 15.254 20.0174 15.254C18.9254 15.254 18.3734 16.226 18.3734 18.17C18.3734 20.126 18.9254 21.098 20.0174 21.098C21.1094 21.098 21.6614 20.126 21.6614 18.17Z" fill="white"/>
</svg>
