<svg width="25" height="24" viewBox="0 0 25 24" fill="black" xmlns="http://www.w3.org/2000/svg">
<path d="M17.7497 4L17.6497 4.007C17.4698 4.03121 17.3048 4.11985 17.1853 4.25648C17.0657 4.39311 16.9998 4.56846 16.9997 4.75V17.442L13.7797 14.224L13.6957 14.152C13.5435 14.0389 13.3541 13.9876 13.1656 14.0085C12.9771 14.0294 12.8036 14.1209 12.6799 14.2647C12.5562 14.4084 12.4915 14.5937 12.4989 14.7832C12.5063 14.9727 12.5852 15.1523 12.7197 15.286L17.2237 19.786L17.3077 19.858C17.4522 19.9647 17.6302 20.016 17.8093 20.0026C17.9884 19.9892 18.1567 19.912 18.2837 19.785L22.7807 15.285L22.8527 15.201C22.9597 15.0564 23.0112 14.8783 22.9978 14.6989C22.9844 14.5196 22.907 14.351 22.7797 14.224L22.6957 14.152C22.5512 14.045 22.373 13.9935 22.1937 14.0069C22.0143 14.0203 21.8458 14.0977 21.7187 14.225L18.4997 17.446V4.75L18.4937 4.648C18.4691 4.46845 18.3803 4.30389 18.2437 4.18477C18.1071 4.06564 17.931 4.00001 17.7497 4ZM6.71473 4.22L2.21973 8.715L2.14673 8.799C2.04002 8.94347 1.98869 9.12144 2.00209 9.30055C2.01549 9.47966 2.09271 9.64801 2.21973 9.775L2.30373 9.848C2.4482 9.95471 2.62617 10.006 2.80528 9.99264C2.98439 9.97925 3.15274 9.90202 3.27973 9.775L6.49673 6.557V19.255L6.50473 19.357C6.52938 19.5366 6.61821 19.7011 6.7548 19.8202C6.89139 19.9394 7.06649 20.005 7.24773 20.005L7.34873 19.998C7.52847 19.9736 7.69326 19.8848 7.81259 19.7482C7.93192 19.6116 7.99769 19.4364 7.99773 19.255L7.99673 6.559L11.2197 9.776L11.3037 9.848C11.456 9.95971 11.6449 10.0098 11.8326 9.98838C12.0202 9.96691 12.1929 9.87543 12.316 9.7322C12.4392 9.58897 12.5037 9.40456 12.4968 9.2158C12.4899 9.02704 12.412 8.84784 12.2787 8.714L7.77473 4.22L7.68973 4.148C7.54526 4.04129 7.36729 3.98996 7.18818 4.00336C7.00907 4.01675 6.84072 4.09398 6.71373 4.221" />
</svg>
