<svg width="22" height="25" viewBox="0 0 22 25" fill="none" xmlns="http://www.w3.org/2000/svg">
<g clip-path="url(#clip0_149_5423)">
<path d="M3.5 2.47498C1.84531 2.47498 0.5 3.82029 0.5 5.47498V20.475C0.5 22.1297 1.84531 23.475 3.5 23.475H18.5C20.1547 23.475 21.5 22.1297 21.5 20.475V5.47498C21.5 3.82029 20.1547 2.47498 18.5 2.47498H3.5ZM17.4266 6.41248L12.5609 11.9719L18.2844 19.5375H13.8031L10.2969 14.9484L6.27969 19.5375H4.05313L9.25625 13.589L3.76719 6.41248H8.36094L11.5344 10.6078L15.2 6.41248H17.4266ZM15.6547 18.2062L7.69062 7.67341H6.36406L14.4172 18.2062H15.65H15.6547Z" fill="white"/>
</g>
<defs>
<clipPath id="clip0_149_5423">
<rect width="21" height="24" fill="white" transform="translate(0.5 0.974976)"/>
</clipPath>
</defs>
</svg>
