<svg width="35" height="33" viewBox="0 0 35 33" fill="#FFD12D" xmlns="http://www.w3.org/2000/svg">
<path d="M16.5489 0.927051C16.8483 0.00574017 18.1517 0.00574017 18.4511 0.927051L21.7658 11.1287C21.8996 11.5407 22.2836 11.8197 22.7168 11.8197H33.4434C34.4122 11.8197 34.8149 13.0593 34.0312 13.6287L25.3532 19.9336C25.0027 20.1883 24.8561 20.6396 24.9899 21.0517L28.3046 31.2533C28.604 32.1746 27.5495 32.9407 26.7658 32.3713L18.0878 26.0664C17.7373 25.8117 17.2627 25.8117 16.9122 26.0664L8.23419 32.3713C7.45048 32.9407 6.396 32.1746 6.69535 31.2533L10.0101 21.0517C10.1439 20.6396 9.99728 20.1883 9.64679 19.9336L0.968768 13.6287C0.185055 13.0593 0.58783 11.8197 1.55655 11.8197H12.2832C12.7164 11.8197 13.1004 11.5407 13.2342 11.1287L16.5489 0.927051Z" fill="#FFD12D"/>
</svg>
