<svg width="72" height="72" viewBox="0 0 72 72" fill="none" xmlns="http://www.w3.org/2000/svg">
<rect y="0.0090332" width="72" height="71.982" rx="35.991" fill="#FAFAFA"/>
<path d="M20.008 24.007H52.008V28.007H20.008V24.007ZM24.008 16.009H48.008V20.009H24.008V16.009ZM51.994 31.991H20.006C18.9412 31.9947 17.9214 32.4207 17.1704 33.1755C16.4193 33.9303 15.9984 34.9522 16 36.017V51.965C15.9984 53.0298 16.4193 54.0517 17.1704 54.8065C17.9214 55.5613 18.9412 55.9873 20.006 55.991H51.994C53.0588 55.9873 54.0786 55.5613 54.8296 54.8065C55.5807 54.0517 56.0016 53.0298 56 51.965V36.017C56.0016 34.9522 55.5807 33.9303 54.8296 33.1755C54.0786 32.4207 53.0588 31.9947 51.994 31.991ZM52 52.009H20V36.009H52V52.009Z" fill="#F3CA3B"/>
<path d="M34 49.9767H38V46.0002H42V41.9937H38V37.9812H34V41.9997H30V46.0002H34V49.9767Z" fill="#F3CA3B"/>
</svg>
