<svg width="28" height="28" viewBox="0 0 28 28" fill="none" xmlns="http://www.w3.org/2000/svg">
<path d="M16.0549 24.4002C16.0549 24.4002 17.4231 24.4002 18.7912 27.0002C18.7912 27.0002 23.1378 20.5002 27 19.2002M7.16207 19.2002H12.6346M7.16207 12.7002H18.1071M6.478 2.9502C4.34919 3.0113 3.08093 3.2362 2.20259 4.0708C1 5.2148 1 7.05429 1 10.7346V19.1924C1 22.874 1 24.7135 2.20259 25.8575C3.40381 27.0002 5.33972 27.0002 9.2088 27.0002H12.6291M18.7803 2.9502C20.9091 3.0113 22.1787 3.2362 23.0557 4.0708C24.2596 5.2148 24.2596 7.05429 24.2596 10.7346V15.9502" stroke="white" stroke-width="1.5" stroke-linecap="round" stroke-linejoin="round"/>
<path d="M6.47266 3.275C6.47266 2.0192 7.54527 1 8.86689 1H16.3916C17.0266 1 17.6356 1.23969 18.0846 1.66633C18.5336 2.09298 18.7859 2.67163 18.7859 3.275C18.7859 3.87837 18.5336 4.45702 18.0846 4.88367C17.6356 5.31031 17.0266 5.55 16.3916 5.55H8.86689C8.2319 5.55 7.62292 5.31031 7.17391 4.88367C6.72491 4.45702 6.47266 3.87837 6.47266 3.275Z" stroke="white" stroke-width="1.5" stroke-linecap="round" stroke-linejoin="round"/>
</svg>
