<svg width="40" height="40" viewBox="0 0 40 40" fill="none" xmlns="http://www.w3.org/2000/svg">
<g clip-path="url(#clip0_1053_4215)">
<path d="M23 22.9161L22 15.5161L22.8 11.3765L24 9.12906L27.4 8.51611L31 10.355L33.4 14.8499L36 23.6355L36.8 32.6255L35.2 36.9161H29.4L23.4 33.8514L22.6 28.1161L23 22.9161Z" fill="#FEA8A7"/>
<path d="M16.5977 33.8514L17.1977 26.9046L16.5977 22.1161L17.1977 19.3161L17.5977 15.4629L17.1977 11.3765L15.9977 9.12906L12.5977 8.51611L8.99766 10.355L6.59766 14.8499L3.99766 23.6355L3.19766 32.6255L4.79766 36.9161H10.5977L16.5977 33.8514Z" fill="#FEA8A7"/>
<path d="M12.0195 7.84102C10.543 8.16133 9.07422 9.21602 7.87891 10.8332C6.47266 12.7316 5.16016 15.7941 3.94141 20.0207C2.73047 24.2473 2.41797 26.2473 2.41797 29.9035C2.41797 32.8879 2.69922 34.802 3.33203 36.177C3.66797 36.9113 4.01172 37.2551 4.59766 37.4816C6.35547 38.1535 11.5742 37.302 14.4102 35.8801C16.668 34.7473 17.4648 33.5676 17.8945 30.7082C18.0039 29.9973 18.0273 29.302 18.0273 27.6379C18.0273 25.4113 16.8945 21.4285 16.6836 21.116C16.457 20.7645 16.257 21.3254 15.9992 21.716C15.8898 21.8879 16.7992 23.9988 16.7992 24.716C17.1148 25.5988 16.8164 29.4191 16.6836 30.3332C16.3555 32.6379 15.9102 33.4895 14.6055 34.341C12.7305 35.5598 8.64453 36.5598 5.98047 36.4426C4.93359 36.4035 4.78516 36.3254 4.46484 35.6848C3.90234 34.5598 3.66797 32.8645 3.66797 29.8645C3.66016 26.2238 3.91797 24.6379 5.22266 20.1379C7.18359 13.3879 9.20703 10.0598 11.9023 9.15352C12.2148 9.04414 12.5664 9.00508 13.1914 9.00508C13.9961 9.00508 14.082 9.02071 14.582 9.25508C15.8867 9.87227 16.9133 11.3473 16.9992 13.316C17.1977 14.2598 17.2352 16.752 17.3992 16.916C17.7039 17.2129 17.8555 16.5301 18.0273 16.116C18.1602 15.7879 18.043 12.427 17.8398 11.716C17.543 10.6535 16.957 9.59102 16.3477 8.97383C15.9492 8.58321 15.2383 8.13789 14.6914 7.95039C14.043 7.72383 12.7773 7.66914 12.0195 7.84102Z" fill="#FFC7C7"/>
<path d="M27.8125 7.81709C29.2891 8.13741 30.7578 9.19209 31.9531 10.8093C33.3594 12.7077 34.6719 15.7702 35.8906 19.9968C37.1016 24.2233 37.4141 26.2233 37.4141 29.8796C37.4141 32.864 37.1328 34.778 36.5 36.153C36.1641 36.8874 35.8203 37.2312 35.2344 37.4577C33.4766 38.1296 28.2578 37.278 25.4219 35.8562C23.1641 34.7233 22.3672 33.5437 21.9375 30.6843C21.8281 29.9733 21.8047 29.278 21.8047 27.614C21.8047 25.3874 22.8219 22.2286 23.0328 21.9161C23.2594 21.5645 23.5413 22.3255 23.7991 22.7161C23.9085 22.888 23.0328 23.9749 23.0328 24.6921C22.7172 25.5749 23.0156 29.3952 23.1484 30.3093C23.4766 32.614 23.9219 33.4655 25.2266 34.3171C27.1016 35.5358 31.1875 36.5358 33.8516 36.4187C34.8984 36.3796 35.0469 36.3015 35.3672 35.6608C35.9297 34.5358 36.1641 32.8405 36.1641 29.8405C36.1719 26.1999 35.9141 24.614 34.6094 20.114C32.6484 13.364 30.625 10.0358 27.9297 9.12959C27.6172 9.02022 27.2656 8.98116 26.6406 8.98116C25.8359 8.98116 25.75 8.99678 25.25 9.23116C23.9453 9.84834 22.9187 11.3233 22.8328 13.2921C22.6344 14.2358 22.3632 16.152 22.1991 16.3161C21.8944 16.613 21.9766 16.3302 21.8047 15.9161C21.6719 15.588 21.7891 12.403 21.9922 11.6921C22.2891 10.6296 22.875 9.56709 23.4844 8.94991C23.8828 8.55928 24.5938 8.11397 25.1406 7.92647C25.7891 7.69991 27.0547 7.64522 27.8125 7.81709Z" fill="#FFC7C7"/>
<path d="M18.3984 8.30364C18.4009 8.97745 18.892 8.91456 19.8069 8.91456C20.7217 8.91456 21.1768 8.98044 21.1792 8.30364C21.1816 7.52502 20.6375 7.67176 19.79 7.67176C18.9401 7.67176 18.396 7.56695 18.3984 8.30364ZM18.4177 6.30319C18.4201 6.97699 18.9113 6.91411 19.8261 6.91411C20.741 6.91411 21.196 6.97999 21.1984 6.30319C21.2008 5.52457 20.6567 5.67131 19.8093 5.67131C18.9594 5.66832 18.4153 5.5635 18.4177 6.30319ZM18.4177 4.29974C18.4201 4.97355 18.9113 4.91066 19.8261 4.91066C20.741 4.91066 21.196 4.97654 21.1984 4.29974C21.2008 3.52112 20.6567 3.66786 19.8093 3.66786C18.9594 3.66786 18.4153 3.56005 18.4177 4.29974ZM18.4177 2.35918C18.4201 3.03299 18.9113 2.9701 19.8261 2.9701C20.741 2.9701 21.196 3.03598 21.1984 2.35918C21.2008 1.58056 20.6567 1.7273 19.8093 1.7273C18.9594 1.7273 18.4153 1.62249 18.4177 2.35918Z" fill="#F2A159"/>
<circle cx="8.4" cy="12.9161" r="2.4" fill="#469F80"/>
<path d="M8.69546 11.8743C8.57993 11.9196 8.47266 12.0723 8.47266 12.1878C8.47266 12.2373 8.50979 12.324 8.5593 12.3859C8.62532 12.4684 8.67896 12.4932 8.80274 12.4932C9.08744 12.4932 9.22773 12.192 9.04205 11.9815C8.93065 11.8619 8.81512 11.8247 8.69546 11.8743Z" fill="#87E4C3"/>
<path d="M7.37829 12.6374C7.11835 12.8932 7.40304 13.3017 7.74964 13.1697C7.8239 13.1408 7.93531 12.9427 7.93531 12.8437C7.93531 12.7364 7.70837 12.5343 7.58459 12.5343C7.52683 12.5343 7.43193 12.5797 7.37829 12.6374Z" fill="#87E4C3"/>
<path d="M8.70444 13.4465C8.49401 13.6115 8.63017 14.02 8.89836 14.02C9.1253 14.02 9.31097 13.7436 9.21194 13.5538C9.10054 13.3475 8.89011 13.3021 8.70444 13.4465Z" fill="#87E4C3"/>
<path d="M7.70966 9.41927C7.49511 9.6297 7.66015 9.97629 7.97786 9.97629C8.05625 9.97629 8.06451 9.99692 8.05213 10.2527L8.03975 10.5251L7.79219 10.5952C7.53224 10.6653 7.24754 10.7891 7.06187 10.9129L6.94634 10.983L6.74004 10.7809L6.53373 10.5787L6.61625 10.492C6.80605 10.2899 6.66577 9.95978 6.38932 9.95978C6.25316 9.95978 6.19952 9.99692 5.82817 10.3724C5.38256 10.8263 5.33304 10.9418 5.50221 11.1233C5.63425 11.2636 5.77866 11.2801 5.91482 11.177C5.98084 11.1316 6.05098 11.0903 6.07161 11.0903C6.08812 11.0903 6.18714 11.1728 6.28617 11.276L6.46772 11.4617L6.39757 11.5772C6.26554 11.7753 6.11287 12.1383 6.06749 12.357L6.0221 12.5757H5.74153C5.46921 12.5757 5.46095 12.5716 5.46095 12.4684C5.46095 12.3488 5.25878 12.1218 5.1515 12.1218C5.05247 12.1218 4.85442 12.2332 4.82554 12.3075C4.81316 12.3447 4.80078 12.6252 4.80078 12.9306C4.80078 13.4669 4.80491 13.4917 4.90393 13.5866C5.11436 13.8012 5.46095 13.6361 5.46095 13.3184C5.46095 13.24 5.48158 13.2318 5.73327 13.2441L6.00972 13.2565L6.06336 13.4834C6.09637 13.6072 6.19539 13.8589 6.28617 14.0405L6.45121 14.3664L6.27792 14.5438C6.18302 14.6429 6.08812 14.7213 6.06749 14.7213C6.04686 14.7213 5.98496 14.6841 5.9272 14.6387C5.78279 14.5273 5.68376 14.5356 5.53935 14.6759C5.33304 14.8822 5.36605 14.9688 5.82817 15.4392C6.19952 15.8147 6.25316 15.8518 6.38932 15.8518C6.66577 15.8518 6.80605 15.5217 6.61625 15.3196L6.53373 15.2329L6.73178 15.039L6.93396 14.8409L7.23929 15.0018C7.52812 15.1586 7.68491 15.2164 7.94898 15.2742C8.06451 15.303 8.06451 15.303 8.05213 15.5795L8.03975 15.8559L7.90772 15.8683C7.75505 15.8848 7.60651 16.0416 7.60651 16.1902C7.60651 16.2397 7.6519 16.3387 7.70554 16.4006L7.80456 16.5161H8.38634C8.93098 16.5161 8.97224 16.512 9.05889 16.4253C9.26107 16.219 9.12491 15.8766 8.84021 15.8766H8.72055V15.5877C8.72055 15.3072 8.72468 15.2989 8.83608 15.2783C9.07539 15.2247 9.45087 15.0802 9.64479 14.9606L9.84697 14.8409L10.0244 15.0142C10.1234 15.1132 10.2059 15.2081 10.2059 15.2288C10.2059 15.2494 10.1688 15.3113 10.1234 15.3691C10.078 15.4268 10.0409 15.5217 10.0409 15.5754C10.0409 15.7198 10.2142 15.8766 10.3751 15.8766C10.4865 15.8766 10.569 15.8147 10.9239 15.4681C11.2993 15.0967 11.3365 15.0431 11.3365 14.9069C11.3365 14.6305 11.0188 14.4985 10.7836 14.68L10.6804 14.7584L10.5071 14.5851C10.4081 14.4943 10.3297 14.3994 10.3297 14.3829C10.3297 14.3664 10.3834 14.2633 10.4494 14.156C10.5649 13.9662 10.7093 13.5866 10.763 13.3473C10.7836 13.24 10.7918 13.2359 11.0724 13.2359H11.3612V13.3762C11.3612 13.4793 11.3901 13.5412 11.4685 13.6031C11.6129 13.7186 11.745 13.7104 11.8853 13.5907L12.0008 13.4917V12.9099C12.0008 12.3653 11.9967 12.324 11.91 12.2374C11.7037 12.0352 11.3612 12.1714 11.3612 12.4561V12.5757H11.0724H10.7877L10.7423 12.3983C10.7176 12.3034 10.6846 12.1879 10.6722 12.1425C10.6598 12.0971 10.5773 11.9238 10.4865 11.7546L10.3256 11.4452L10.5071 11.2636L10.6887 11.0862L10.8537 11.1728C11.0435 11.2719 11.1838 11.243 11.2952 11.0821C11.4273 10.8964 11.386 10.8098 10.9363 10.36C10.4865 9.91027 10.3999 9.86901 10.2142 10.001C10.0533 10.1124 10.0244 10.2527 10.1234 10.4425L10.2101 10.6076L10.0285 10.7932L9.84697 10.9748L9.62004 10.8469C9.36422 10.7025 8.95986 10.5539 8.81545 10.5539C8.72468 10.5539 8.72055 10.5416 8.72055 10.2651C8.72055 9.98041 8.72468 9.97629 8.82783 9.97629C8.94749 9.97629 9.17442 9.77411 9.17442 9.66683C9.17442 9.5678 9.06302 9.36975 8.98875 9.34087C8.95161 9.32849 8.67104 9.31611 8.36571 9.31611C7.82932 9.31611 7.80456 9.32024 7.70966 9.41927ZM9.1084 11.3296C9.4715 11.4988 9.78921 11.8041 9.9625 12.1549C10.0987 12.4189 10.1028 12.4478 10.1028 12.9058C10.1028 13.3638 10.0987 13.3927 9.96663 13.6609C9.78921 14.0157 9.50038 14.3045 9.14554 14.482C8.87734 14.614 8.84846 14.6181 8.39047 14.6181C7.94072 14.6181 7.90359 14.6099 7.64365 14.4861C7.30118 14.3169 6.9876 13.991 6.81018 13.6196C6.69052 13.3597 6.67815 13.306 6.67815 12.9264C6.68227 12.4354 6.77304 12.1507 7.04537 11.8206C7.41259 11.3709 7.88709 11.1605 8.48124 11.1894C8.77419 11.2017 8.8856 11.2265 9.1084 11.3296Z" fill="#87E4C3"/>
<path d="M7.81622 18.6544C7.53391 18.4489 7.12279 18.0381 7.35302 17.756C7.58325 17.4739 8.20267 17.8601 8.50964 18.0901C8.67001 18.2093 8.89212 18.3842 9.06903 18.5252C9.25519 18.6736 9.49274 18.7424 9.7291 18.7139C10.4864 18.6226 10.7758 17.6762 10.199 17.1771C9.84544 16.8711 9.53512 16.6027 9.41136 16.4961C9.05232 16.1866 8.27941 15.5703 8.61379 15.2115C8.94817 14.8527 9.56485 15.4416 9.89923 15.7511C10.0114 15.8549 10.338 16.1147 10.7225 16.4142C11.2711 16.8415 12.0399 16.3096 11.8288 15.647C11.6753 15.1595 11.2367 14.1817 11.6999 14.0009C12.1631 13.8201 12.4454 14.7979 12.6784 15.3375C12.8787 15.807 13.9383 18.2428 14.21 18.8672C14.2524 18.9645 14.3086 19.0546 14.3894 19.1233C14.5689 19.2757 14.9297 19.5112 15.2767 19.3144C15.681 19.0852 17.2853 16.8182 17.8227 16.0488C17.9388 15.8827 17.9992 15.6864 17.9992 15.4837V1.93779C17.9992 1.37716 18.4601 0.926818 19.0207 0.927182C19.2955 0.92736 19.5777 0.924715 19.7992 0.916235C20.0656 0.90604 20.4538 0.904278 20.8174 0.905718C21.3626 0.907876 21.7992 1.35302 21.7992 1.89822V15.5169C21.7992 15.6988 21.8483 15.8765 21.9437 16.0313C22.4215 16.807 23.946 19.2294 24.3992 19.3144C24.9392 19.4158 24.7187 19.5226 24.9736 19.3172C25.2313 19.1118 26.9552 16.2852 27.1087 15.7949C27.2622 15.3074 26.7497 13.8667 27.1087 13.6613C27.4678 13.4558 27.7007 14.0474 27.8295 14.4829C27.8328 14.4941 27.8361 14.5053 27.8395 14.5165C27.9855 15.0098 28.4975 15.3044 28.9905 15.1574C28.9974 15.1553 29.0041 15.1533 29.0108 15.1512C29.3452 15.0472 29.7837 15.0472 29.8331 15.3046C29.8851 15.5621 29.0355 15.9976 28.649 16.255C28.2626 16.5125 27.6459 16.7179 27.7501 17.1288C27.8542 17.5396 28.6765 17.4109 29.2411 17.4383C29.8057 17.4629 30.1674 17.5423 30.1674 17.8491C30.1674 18.1586 29.2931 18.3038 28.597 18.3339C28.2636 18.3484 27.8764 18.3489 27.5641 18.3456C27.2016 18.3418 26.8577 18.5247 26.6912 18.8468C26.5725 19.0766 26.4619 19.3205 26.4619 19.4322C26.4619 19.6732 27.9035 19.854 28.7505 20.0074C29.6001 20.1608 31.5296 20.2813 31.5022 20.7223C31.4776 21.1632 30.817 21.1139 30.3703 21.1523C29.9235 21.1906 28.8108 20.9085 28.8272 21.1523C28.8436 21.396 29.855 22.3465 29.4439 22.6039C29.0328 22.8614 28.4407 21.9877 28.0543 21.6015C27.9157 21.4629 27.7936 21.3445 27.6941 21.2496C27.5134 21.0772 27.2727 20.9867 27.0231 20.991C26.1435 21.006 24.0688 21.0532 24.0472 21.1632C24.0226 21.3029 26.1577 24.0802 26.5414 24.2089C26.9278 24.3377 28.8053 24.6718 29.474 24.7732C30.1428 24.8772 30.8115 25.0827 30.7595 25.4031C30.7074 25.7236 29.9098 25.6989 29.3699 25.6989C28.8583 25.6989 28.6156 26.3349 28.9925 26.6808C29.4389 27.0905 29.8912 27.5173 30.0633 27.7175C30.447 28.164 31.9928 29.4239 31.505 29.7854C31.0171 30.1442 28.9725 28.0928 28.4901 27.7175C28.0077 27.3423 26.8483 26.4686 26.7469 26.5699C26.6455 26.6713 27.4678 28.0353 27.6459 28.3694C27.8241 28.7036 28.5805 29.7827 28.0241 30.0265C27.5911 30.2155 26.3879 28.0106 26.2317 28.0106C26.0782 28.0106 26.0014 30.273 25.615 30.1689C25.2285 30.0648 25.2039 29.2705 25.1518 27.8819C25.0997 26.4932 25.382 25.7236 25.075 25.4004C24.7653 25.0799 23.5046 22.8943 23.0167 22.5081C22.6892 22.2488 21.3513 20.6008 20.5073 19.5455C20.1301 19.074 19.4248 19.0372 19.0009 19.4673C17.9637 20.5195 16.2331 22.2607 15.7919 22.6149C15.1479 23.1298 13.9145 24.1323 13.7857 24.3897C13.6569 24.6472 13.476 25.4963 13.5034 25.803C13.528 26.1125 14.353 28.0407 14.5065 28.3475C14.66 28.657 15.1753 29.7882 14.7641 29.9169C14.353 30.0456 13.8378 28.9391 13.6322 28.605C13.3676 28.1749 12.7091 28.2758 12.5884 28.7661C12.4635 29.2737 12.3299 29.7855 12.2426 30.0319C12.0371 30.6099 11.5739 32.4094 11.0586 32.0752C10.5433 31.7411 10.801 30.9166 11.0586 30.0319C11.3162 29.1473 11.5218 28.4269 11.4971 28.3228C11.4724 28.2188 9.72107 29.1966 9.3867 29.4294C9.05232 29.6595 8.10126 30.2511 7.86829 29.8402C7.63807 29.4294 8.69053 28.7611 9.07699 28.5036C9.3627 28.3133 10.772 27.4208 11.4873 26.9684C11.7513 26.8015 11.9252 26.5217 11.9823 26.2147C12.008 26.0769 12.0418 25.9071 12.0864 25.7017C12.2169 25.1 11.734 24.5726 11.119 24.6021L11.0646 24.6047C10.8255 24.6162 10.5985 24.7129 10.4256 24.8785C10.1249 25.1665 9.6574 25.6186 9.48811 25.8057C9.23047 26.0879 8.63846 26.8329 8.40823 26.4494C8.32677 26.3128 8.40589 26.0798 8.54216 25.8357C8.77012 25.4274 8.54029 24.8494 8.07385 24.8827C7.6874 24.9074 7.2242 24.9348 7.19954 24.5732C7.17487 24.2144 8.58912 23.9214 9.28255 23.7707C9.83311 23.6511 11.4549 23.3036 12.0998 23.1655C12.2765 23.1276 12.4385 23.0429 12.5708 22.9198L13.7096 21.8596C14.1178 21.4796 14.137 20.8384 13.7386 20.4482C13.3394 20.0571 12.8985 19.6504 12.7798 19.6376C12.6005 19.6184 10.875 19.7222 10.1206 19.769C9.89369 19.7831 9.67885 19.8743 9.51202 20.0287C9.32889 20.1981 9.09122 20.4205 8.94817 20.5634C8.69053 20.8209 8.25475 21.4673 7.92037 21.1687C7.58599 20.8702 7.97244 20.4593 8.178 20.1772L8.61653 19.435" fill="#FEE5C3"/>
<circle cx="32.1695" cy="31.0304" r="2.4" fill="#469F80"/>
<path d="M32.465 29.9885C32.3495 30.0339 32.2422 30.1866 32.2422 30.3021C32.2422 30.3516 32.2793 30.4383 32.3288 30.5001C32.3949 30.5827 32.4485 30.6074 32.5723 30.6074C32.857 30.6074 32.9973 30.3062 32.8116 30.0958C32.7002 29.9761 32.5847 29.939 32.465 29.9885Z" fill="#87E4C3"/>
<path d="M31.1478 30.7517C30.8879 31.0075 31.1726 31.416 31.5192 31.2839C31.5934 31.2551 31.7048 31.057 31.7048 30.958C31.7048 30.8507 31.4779 30.6485 31.3541 30.6485C31.2964 30.6485 31.2015 30.6939 31.1478 30.7517Z" fill="#87E4C3"/>
<path d="M32.474 31.5608C32.2635 31.7258 32.3997 32.1343 32.6679 32.1343C32.8948 32.1343 33.0805 31.8578 32.9815 31.668C32.8701 31.4617 32.6596 31.4163 32.474 31.5608Z" fill="#87E4C3"/>
<path d="M31.4792 27.5335C31.2646 27.7439 31.4297 28.0905 31.7474 28.0905C31.8258 28.0905 31.834 28.1112 31.8217 28.367L31.8093 28.6393L31.5617 28.7095C31.3018 28.7796 31.0171 28.9034 30.8314 29.0272L30.7159 29.0973L30.5096 28.8951L30.3033 28.6929L30.3858 28.6063C30.5756 28.4041 30.4353 28.074 30.1589 28.074C30.0227 28.074 29.9691 28.1112 29.5977 28.4866C29.1521 28.9405 29.1026 29.056 29.2717 29.2376C29.4038 29.3779 29.5482 29.3944 29.6844 29.2912C29.7504 29.2458 29.8205 29.2046 29.8411 29.2046C29.8576 29.2046 29.9567 29.2871 30.0557 29.3903L30.2372 29.5759L30.1671 29.6915C30.0351 29.8895 29.8824 30.2526 29.837 30.4713L29.7916 30.69H29.5111C29.2387 30.69 29.2305 30.6858 29.2305 30.5827C29.2305 30.463 29.0283 30.2361 28.921 30.2361C28.822 30.2361 28.624 30.3475 28.5951 30.4218C28.5827 30.4589 28.5703 30.7395 28.5703 31.0448C28.5703 31.5812 28.5744 31.606 28.6735 31.7009C28.8839 31.9154 29.2305 31.7504 29.2305 31.4327C29.2305 31.3543 29.2511 31.346 29.5028 31.3584L29.7793 31.3708L29.8329 31.5977C29.8659 31.7215 29.9649 31.9732 30.0557 32.1547L30.2207 32.4807L30.0474 32.6581C29.9525 32.7571 29.8576 32.8355 29.837 32.8355C29.8164 32.8355 29.7545 32.7984 29.6967 32.753C29.5523 32.6416 29.4533 32.6499 29.3089 32.7901C29.1026 32.9964 29.1356 33.0831 29.5977 33.5535C29.9691 33.9289 30.0227 33.9661 30.1589 33.9661C30.4353 33.9661 30.5756 33.636 30.3858 33.4338L30.3033 33.3472L30.5013 33.1532L30.7035 32.9552L31.0088 33.1161C31.2976 33.2729 31.4544 33.3307 31.7185 33.3884C31.834 33.4173 31.834 33.4173 31.8217 33.6938L31.8093 33.9702L31.6772 33.9826C31.5246 33.9991 31.376 34.1559 31.376 34.3044C31.376 34.3539 31.4214 34.4529 31.4751 34.5148L31.5741 34.6304H32.1559C32.7005 34.6304 32.7418 34.6262 32.8284 34.5396C33.0306 34.3333 32.8944 33.9908 32.6097 33.9908H32.4901V33.702C32.4901 33.4214 32.4942 33.4132 32.6056 33.3925C32.8449 33.3389 33.2204 33.1945 33.4143 33.0748L33.6165 32.9552L33.7939 33.1285C33.8929 33.2275 33.9755 33.3224 33.9755 33.343C33.9755 33.3637 33.9383 33.4256 33.8929 33.4833C33.8476 33.5411 33.8104 33.636 33.8104 33.6896C33.8104 33.834 33.9837 33.9908 34.1446 33.9908C34.256 33.9908 34.3386 33.9289 34.6934 33.5823C35.0689 33.211 35.106 33.1574 35.106 33.0212C35.106 32.7448 34.7883 32.6127 34.5531 32.7943L34.45 32.8727L34.2767 32.6994C34.1776 32.6086 34.0993 32.5137 34.0993 32.4972C34.0993 32.4807 34.1529 32.3775 34.2189 32.2703C34.3344 32.0805 34.4789 31.7009 34.5325 31.4615C34.5531 31.3543 34.5614 31.3501 34.8419 31.3501H35.1308V31.4904C35.1308 31.5936 35.1597 31.6555 35.238 31.7174C35.3825 31.8329 35.5145 31.8246 35.6548 31.705L35.7703 31.606V31.0242C35.7703 30.4795 35.7662 30.4383 35.6795 30.3516C35.4732 30.1495 35.1308 30.2856 35.1308 30.5703V30.69H34.8419H34.5572L34.5119 30.5125C34.4871 30.4176 34.4541 30.3021 34.4417 30.2567C34.4293 30.2113 34.3468 30.038 34.256 29.8689L34.0951 29.5594L34.2767 29.3779L34.4582 29.2005L34.6233 29.2871C34.8131 29.3861 34.9533 29.3572 35.0648 29.1963C35.1968 29.0107 35.1555 28.924 34.7058 28.4743C34.256 28.0245 34.1694 27.9833 33.9837 28.1153C33.8228 28.2267 33.7939 28.367 33.8929 28.5568L33.9796 28.7218L33.798 28.9075L33.6165 29.0891L33.3896 28.9611C33.1337 28.8167 32.7294 28.6682 32.585 28.6682C32.4942 28.6682 32.4901 28.6558 32.4901 28.3794C32.4901 28.0947 32.4942 28.0905 32.5974 28.0905C32.717 28.0905 32.944 27.8884 32.944 27.7811C32.944 27.6821 32.8325 27.484 32.7583 27.4551C32.7211 27.4427 32.4406 27.4304 32.1352 27.4304C31.5989 27.4304 31.5741 27.4345 31.4792 27.5335ZM32.8779 29.4439C33.241 29.6131 33.5587 29.9184 33.732 30.2691C33.8682 30.5332 33.8723 30.5621 33.8723 31.0201C33.8723 31.478 33.8682 31.5069 33.7362 31.7751C33.5587 32.13 33.2699 32.4188 32.9151 32.5962C32.6469 32.7283 32.618 32.7324 32.16 32.7324C31.7103 32.7324 31.6731 32.7241 31.4132 32.6003C31.0707 32.4312 30.7571 32.1052 30.5797 31.7339C30.4601 31.4739 30.4477 31.4203 30.4477 31.0407C30.4518 30.5497 30.5426 30.265 30.8149 29.9349C31.1821 29.4852 31.6566 29.2747 32.2508 29.3036C32.5437 29.316 32.6551 29.3407 32.8779 29.4439Z" fill="#87E4C3"/>
<path d="M14.2852 15.0991L20.0022 13.4307L25.7137 15.0991V18.5207C25.7137 22.1171 23.4122 25.3098 20.0003 26.4467C16.5874 25.3099 14.2852 22.1164 14.2852 18.5191V15.0991Z" fill="#F5F5F5" stroke="#B0B0B0" stroke-linejoin="round"/>
<path d="M19.9844 17.2241V22.3035" stroke="#FF5353" stroke-linecap="round" stroke-linejoin="round"/>
<path d="M17.4453 19.7637H22.5247" stroke="#FF5353" stroke-linecap="round" stroke-linejoin="round"/>
</g>
<defs>
<clipPath id="clip0_1053_4215">
<rect width="40" height="40" fill="white" transform="translate(0 0.00195312)"/>
</clipPath>
</defs>
</svg>
