<svg width="30" height="29" viewBox="0 0 30 29" fill="none" xmlns="http://www.w3.org/2000/svg">
<path d="M27.5303 14.5016H24.5826C24.1917 14.5016 23.8168 14.6491 23.5404 14.9116C23.264 15.1741 23.1087 15.5302 23.1087 15.9015C23.1087 16.2727 23.264 16.6288 23.5404 16.8913C23.8168 17.1538 24.1917 17.3013 24.5826 17.3013V20.101H22.8346C23.0097 19.6528 23.1019 19.1792 23.1073 18.7011C23.1072 17.7767 22.786 16.8781 22.1935 16.1448C21.601 15.4114 20.7703 14.8842 19.8301 14.6449C18.89 14.4056 17.893 14.4677 16.9938 14.8214C16.0946 15.1752 15.3434 15.8008 14.8567 16.6014C14.7584 16.7606 14.6942 16.9368 14.6679 17.1197C14.6416 17.3026 14.6536 17.4887 14.7033 17.6671C14.7529 17.8456 14.8393 18.013 14.9574 18.1597C15.0754 18.3063 15.2229 18.4293 15.3912 18.5216C15.5595 18.6139 15.7454 18.6737 15.9382 18.6975C16.1309 18.7213 16.3267 18.7086 16.5143 18.6603C16.7019 18.6119 16.8775 18.5288 17.0312 18.4157C17.1848 18.3026 17.3133 18.1617 17.4094 18.0012C17.5387 17.7884 17.7248 17.6117 17.9488 17.4889C18.1729 17.366 18.427 17.3013 18.6857 17.3013C19.0766 17.3013 19.4515 17.4488 19.7279 17.7113C20.0043 17.9738 20.1596 18.3299 20.1596 18.7011C20.1596 19.0724 20.0043 19.4285 19.7279 19.691C19.4515 19.9535 19.0766 20.101 18.6857 20.101C18.2948 20.101 17.92 20.2485 17.6436 20.511C17.3672 20.7735 17.2119 21.1296 17.2119 21.5008C17.2119 21.8721 17.3672 22.2281 17.6436 22.4906C17.92 22.7532 18.2948 22.9007 18.6857 22.9007C19.0766 22.9007 19.4515 23.0481 19.7279 23.3107C20.0043 23.5732 20.1596 23.9292 20.1596 24.3005C20.1596 24.6717 20.0043 25.0278 19.7279 25.2903C19.4515 25.5528 19.0766 25.7003 18.6857 25.7003C18.427 25.7003 18.1729 25.6356 17.9488 25.5128C17.7248 25.3899 17.5387 25.2132 17.4094 25.0004C17.3133 24.8399 17.1848 24.6991 17.0312 24.586C16.8775 24.4729 16.7019 24.3897 16.5143 24.3413C16.3267 24.293 16.1309 24.2803 15.9382 24.3041C15.7454 24.3279 15.5595 24.3877 15.3912 24.48C15.2229 24.5723 15.0754 24.6953 14.9574 24.842C14.8393 24.9886 14.7529 25.156 14.7033 25.3345C14.6536 25.513 14.6416 25.699 14.6679 25.8819C14.6942 26.0648 14.7584 26.241 14.8567 26.4002C15.3434 27.2008 16.0946 27.8265 16.9938 28.1802C17.893 28.5339 18.89 28.596 19.8301 28.3567C20.7703 28.1175 21.601 27.5903 22.1935 26.8569C22.786 26.1235 23.1072 25.2249 23.1073 24.3005C23.1019 23.8224 23.0097 23.3489 22.8346 22.9007H24.5811V27.1002C24.5811 27.4714 24.7364 27.8275 25.0128 28.09C25.2892 28.3525 25.6641 28.5 26.0549 28.5C26.4458 28.5 26.8207 28.3525 27.0971 28.09C27.3735 27.8275 27.5288 27.4714 27.5288 27.1002V17.3013C27.9197 17.3013 28.2945 17.1538 28.5709 16.8913C28.8473 16.6288 29.0026 16.2727 29.0026 15.9015C29.0026 15.5302 28.8473 15.1741 28.5709 14.9116C28.2945 14.6491 27.9211 14.5016 27.5303 14.5016ZM9.8869 13.4419C9.9328 13.6214 10.0156 13.7905 10.1306 13.9394C10.2456 14.0883 10.3905 14.2141 10.5569 14.3096C10.7233 14.4051 10.908 14.4684 11.1003 14.4958C11.2925 14.5232 11.4886 14.5142 11.6772 14.4694C11.8658 14.4245 12.0432 14.3446 12.1992 14.2343C12.3552 14.1241 12.4866 13.9856 12.586 13.8268C12.6853 13.6681 12.7506 13.4922 12.7781 13.3094C12.8056 13.1266 12.7947 12.9404 12.7461 12.7616L10.1566 2.92077C9.97546 2.22951 9.55604 1.61568 8.96512 1.17699C8.3742 0.738311 7.64574 0.5 6.89573 0.5C6.14572 0.5 5.41727 0.738311 4.82635 1.17699C4.23542 1.61568 3.816 2.22951 3.63486 2.92077L1.04384 12.7616C0.995249 12.9404 0.984386 13.1266 1.01188 13.3094C1.03937 13.4922 1.10468 13.6681 1.20404 13.8268C1.3034 13.9856 1.43484 14.1241 1.5908 14.2343C1.74676 14.3446 1.92415 14.4245 2.11276 14.4694C2.30136 14.5142 2.49746 14.5232 2.68973 14.4958C2.88201 14.4684 3.06668 14.4051 3.23309 14.3096C3.39951 14.2141 3.54439 14.0883 3.65938 13.9394C3.77437 13.7905 3.8572 13.6214 3.9031 13.4419L4.72845 10.3021H9.06154L9.8869 13.4419ZM5.46684 7.50244L6.49411 3.60109C6.52509 3.52356 6.58017 3.45681 6.65204 3.40971C6.7239 3.3626 6.80915 3.33738 6.89647 3.33738C6.98379 3.33738 7.06904 3.3626 7.1409 3.40971C7.21277 3.45681 7.26785 3.52356 7.29883 3.60109L8.3261 7.50244H5.46684ZM17.2134 7.50244H18.6872C19.078 7.50281 19.4526 7.65041 19.7289 7.91285C20.0053 8.17529 20.1607 8.53113 20.161 8.90228V10.3021C20.161 10.6734 20.3163 11.0294 20.5927 11.2919C20.8691 11.5545 21.244 11.702 21.6349 11.702C22.0258 11.702 22.4007 11.5545 22.6771 11.2919C22.9535 11.0294 23.1087 10.6734 23.1087 10.3021V8.90228C23.1076 7.78884 22.6413 6.72132 21.8124 5.934C20.9835 5.14668 19.8595 4.70388 18.6872 4.70276H17.2134C16.8225 4.70276 16.4476 4.85025 16.1712 5.11277C15.8948 5.37529 15.7395 5.73134 15.7395 6.1026C15.7395 6.47386 15.8948 6.82992 16.1712 7.09244C16.4476 7.35496 16.8225 7.50244 17.2134 7.50244ZM11.318 20.101H9.84415C9.45339 20.1006 9.07874 19.953 8.80242 19.6906C8.52611 19.4281 8.3707 19.0723 8.37031 18.7011V17.3013C8.37031 16.93 8.21503 16.574 7.93863 16.3115C7.66223 16.0489 7.28736 15.9015 6.89647 15.9015C6.50558 15.9015 6.13071 16.0489 5.85431 16.3115C5.57791 16.574 5.42263 16.93 5.42263 17.3013V18.7011C5.4238 19.8146 5.89001 20.8821 6.71896 21.6694C7.5479 22.4567 8.67185 22.8995 9.84415 22.9007H11.318C11.7089 22.9007 12.0838 22.7532 12.3602 22.4906C12.6366 22.2281 12.7918 21.8721 12.7918 21.5008C12.7918 21.1296 12.6366 20.7735 12.3602 20.511C12.0838 20.2485 11.7089 20.101 11.318 20.101Z" fill="#495555" stroke="#FAFAFA" stroke-width="0.5"/>
</svg>
