<svg width="88" height="88" viewBox="0 0 88 88" fill="none" xmlns="http://www.w3.org/2000/svg">
<g filter="url(#filter0_d_166_5308)">
<circle cx="44" cy="40" r="39.75" fill="white" stroke="#F4F4F4" stroke-width="0.5"/>
<path d="M30 49.75L23.25 56L27 62.5C29.2182 60.4604 30.4142 59.6699 32 59L45.75 58.75C46.5249 58.7934 46.9622 58.4276 47.75 58L64 49.5C65 48 64 46.25 62.25 46.5L51 51.5C50.75 52.25 50.5 54 48.5 54.75H38.5C38 54.25 37.75 54.25 38.25 53.5L48.25 53.25C50.25 51.75 49.5 50.5 48.25 49.75L37.75 49.5L35 49C33.0353 48.6158 31.75 48.75 30 49.75Z" fill="#FFDCC9"/>
<path d="M61.627 44.9707C61.2461 45.0684 60.4258 45.4883 55.4746 48.1055C53.2188 49.2871 51.2949 50.332 51.207 50.4199C51.1094 50.5078 51.0215 50.5566 51.002 50.5371C50.9922 50.5176 50.8848 50.293 50.7578 50.0293C50.4551 49.375 49.8691 48.7793 49.2051 48.4375L48.6387 48.1543L43.3164 48.0957L37.9941 48.0469L36.7734 47.6855C35.1914 47.2363 34.1465 47.0898 32.9746 47.1582C31.7637 47.2363 30.6797 47.5195 29.6445 48.0176C28.9512 48.3594 28.6582 48.584 27.8867 49.375C27.3789 49.8926 25.9531 51.2305 24.7129 52.3438C23.4824 53.457 22.3887 54.4629 22.3008 54.5703C22.2031 54.6777 22.125 54.9219 22.125 55.1074C22.125 55.8203 22.9453 56.1621 23.5508 55.7031C24.1758 55.2148 28.0918 51.6309 28.9121 50.791C29.8496 49.8242 30.3184 49.5117 31.2656 49.1895C32.7012 48.7109 34.332 48.7402 36.1387 49.2773C36.6855 49.4336 37.4277 49.6094 37.7988 49.668C38.1797 49.7168 40.5625 49.7656 43.1992 49.7656C48.1992 49.7656 48.3066 49.7754 48.8145 50.2344C49.6348 50.9668 49.5078 52.3438 48.5703 52.959L48.1602 53.2324L43.2773 53.2617C38.4336 53.291 38.3848 53.291 38.1699 53.4961C37.8379 53.8086 37.8574 54.4629 38.209 54.7461C38.4629 54.9512 38.5117 54.9512 43.5117 54.9219L48.541 54.8926L49.1953 54.5703C50.25 54.0527 50.875 53.1836 51.0801 51.9336C51.1387 51.543 51.1582 51.5234 51.3145 51.6602C51.7051 52.0117 51.9785 51.8945 57.0371 49.2285C61.4512 46.9043 61.9883 46.6406 62.4082 46.6406C63.9512 46.6406 64.752 48.418 63.6875 49.4824C63.502 49.668 61.0605 51.0156 57.3789 52.959C48.4629 57.666 47.2129 58.291 46.2949 58.5059C45.582 58.6719 44.8887 58.6914 38.7754 58.75L32.0371 58.7988L31.3926 59.0625C30.2891 59.502 29.8496 59.834 27.7207 61.8457C27.1738 62.3535 27.1055 62.4609 27.1055 62.7832C27.1055 63.2715 27.4473 63.6328 27.9258 63.6328C28.2871 63.6328 28.4629 63.5059 30.2305 61.8848C30.8164 61.3574 31.3535 60.9668 31.7832 60.7617L32.4277 60.459L39.2148 60.4004C45.7285 60.3516 46.0312 60.3418 46.793 60.1367C47.2324 60.0293 47.7793 59.8535 48.0137 59.7656C48.248 59.6777 52.0469 57.7051 56.4512 55.3906C65.084 50.8594 65.0742 50.8594 65.582 49.8145C65.7969 49.3848 65.8262 49.1895 65.8262 48.3008C65.8262 47.373 65.7969 47.2266 65.5527 46.7578C64.9473 45.6055 63.9316 44.9609 62.6523 44.9219C62.252 44.9023 61.793 44.9219 61.627 44.9707Z" fill="#717171"/>
<path d="M33.75 34L33.5 37.25L34 39L35 41.25L37.75 42.25L40.5 43L52.25 32.75L55.75 27.25L53.75 22.5L51 21.25L48.5 20.5L40.75 26.75L33.75 34Z" fill="#64CAE0"/>
<path d="M59.5004 35.25C59.5004 37.7353 60.2504 41.75 51.0004 41C46.5821 41 41.7504 40.75 42.5004 35.25C42.5004 32.7647 46.5821 31.5 51.0004 31.5C55.4186 31.5 59.5004 32.7647 59.5004 35.25Z" fill="#E7D88E"/>
<path d="M49.3533 30.5363C45.7415 30.8331 43.0924 31.8175 41.9922 33.2723C41.5217 33.8948 41.5 34.0251 41.5 36.3557C41.5 38.9325 41.5145 38.9904 42.3613 39.8228C43.4543 40.9013 45.3796 41.6468 48.0505 42.0449C49.2882 42.2258 52.748 42.2258 53.9857 42.0449C57.3008 41.5527 59.5229 40.4887 60.2973 39.0121L60.5 38.6285V36.3485V34.0685L60.2901 33.6777C59.4432 32.0636 56.6493 30.8765 52.9724 30.558C52.1762 30.4929 50.041 30.4784 49.3533 30.5363ZM52.169 31.7668L52.9507 31.8102L50.1857 34.5752L47.4135 37.3474L46.972 37.246C44.7933 36.7394 43.1792 35.8925 42.8318 35.0674C42.6943 34.7489 42.7015 34.5824 42.8752 34.2567C43.6787 32.6716 48.007 31.5062 52.169 31.7668ZM55.665 32.2952C57.5903 32.8018 58.9004 33.5618 59.2044 34.358C59.3202 34.662 59.3202 34.7055 59.2044 35.0022C58.8859 35.8274 57.5541 36.6018 55.5781 37.1085C53.9495 37.5211 51.5899 37.7382 49.8672 37.6152L49.0783 37.5645L51.8215 34.8213C53.6093 33.0262 54.6154 32.078 54.7095 32.078C54.7891 32.078 55.2234 32.1721 55.665 32.2952ZM43.9899 37.6079C47.1457 39.099 53.0158 39.3234 56.7724 38.0857C57.6482 37.8034 58.4733 37.4197 59.0017 37.0578L59.3057 36.8479V37.4849C59.3057 37.9481 59.2695 38.2015 59.1682 38.4114C58.5891 39.6636 55.7518 40.6986 52.2703 40.923C48.5354 41.1691 44.6775 40.3222 43.2589 38.9397C42.8101 38.5055 42.7305 38.2811 42.7305 37.5211V36.8624L43.0996 37.1157C43.3023 37.2533 43.7004 37.4704 43.9899 37.6079Z" fill="#717171"/>
<path d="M47.9029 19.6431C46.9208 19.8931 46.037 20.3662 45.1978 21.1161C44.7872 21.4732 41.9482 24.2765 38.904 27.3386C33.1725 33.0879 32.8869 33.4093 32.4137 34.5966C31.6995 36.3821 31.9227 38.6229 32.9851 40.2209C33.485 40.9887 35.1277 42.6135 35.8954 43.1045C36.199 43.3009 36.806 43.5776 37.2345 43.7205C37.9398 43.9526 38.1362 43.9794 39.1807 43.9794C40.2163 43.9704 40.4216 43.9437 41.0555 43.7205C41.9661 43.408 42.5821 43.0509 43.1981 42.4885C43.6355 42.0957 44.75 40.7298 44.75 40.4173C44.75 40.1495 44.4196 39.9196 44.25 39.75C43.9197 39.4197 42.6624 40.8548 42.1089 41.3458C41.2698 42.0957 39.7699 42.5867 38.7344 42.4617C37.4309 42.301 36.5471 41.7832 35.2259 40.4173C34.4938 39.6674 34.2438 39.3371 34.0028 38.8193C33.3065 37.3106 33.4047 35.775 34.2885 34.3913C34.476 34.1056 35.6187 32.8915 37.0114 31.4988C39.1986 29.3205 39.4307 29.1151 39.6539 29.1687C41.243 29.5169 41.8752 29.6609 43.75 31.5C44.732 32.4641 44.6965 32 45 32C44.9722 32.0013 45.75 31.5 45.75 31.5C45.75 31.1072 45.5 31 45.5 31C43.9913 29.5359 42.5999 28.5259 41.359 28.0439L40.752 27.8117L43.8051 24.7764C47.1619 21.4375 47.2422 21.384 48.5903 21.1072C49.1527 20.9912 49.3848 20.9822 49.983 21.0626C51.1257 21.2322 51.822 21.6161 52.9469 22.7052C53.4647 23.2141 54.0449 23.8658 54.2414 24.1515C55.3305 25.8298 55.1787 28.0974 53.8753 29.5794C53.4647 30.0436 53.3486 30.4186 53.5182 30.731C53.795 31.2577 54.3128 31.3202 54.8127 30.8739C55.3305 30.4275 55.9554 29.4008 56.2411 28.5259C56.4732 27.8117 56.5 27.6153 56.5 26.5708C56.4911 25.5352 56.4643 25.3299 56.2411 24.6961C55.8751 23.6426 55.4644 23.0266 54.3663 21.8928C52.6612 20.143 51.4917 19.5628 49.5812 19.5092C48.7956 19.4824 48.4028 19.5181 47.9029 19.6431Z" fill="#717171"/>
<path d="M38.9536 30.8008C38.6411 30.9278 35.9555 33.7305 35.5942 34.2872C35.1645 34.9805 34.8032 36.045 34.7348 36.836C34.686 37.4122 34.7153 37.5196 34.9008 37.754C35.0668 37.9786 35.1938 38.0274 35.5258 38.0274C36.102 38.0274 36.3168 37.7735 36.4536 36.9239C36.6391 35.6837 36.9711 35.1563 38.6606 33.4376C39.9399 32.129 40.1743 31.8555 40.1743 31.6016C40.1743 31.1719 40.0864 31.0059 39.7739 30.8497C39.4711 30.6837 39.2465 30.6739 38.9536 30.8008Z" fill="#717171"/>
<path d="M22.75 55L27.5 63" stroke="#717171" stroke-width="2" stroke-linecap="round"/>
</g>
<defs>
<filter id="filter0_d_166_5308" x="0" y="0" width="88" height="88" filterUnits="userSpaceOnUse" color-interpolation-filters="sRGB">
<feFlood flood-opacity="0" result="BackgroundImageFix"/>
<feColorMatrix in="SourceAlpha" type="matrix" values="0 0 0 0 0 0 0 0 0 0 0 0 0 0 0 0 0 0 127 0" result="hardAlpha"/>
<feOffset dy="4"/>
<feGaussianBlur stdDeviation="2"/>
<feComposite in2="hardAlpha" operator="out"/>
<feColorMatrix type="matrix" values="0 0 0 0 0 0 0 0 0 0 0 0 0 0 0 0 0 0 0.25 0"/>
<feBlend mode="normal" in2="BackgroundImageFix" result="effect1_dropShadow_166_5308"/>
<feBlend mode="normal" in="SourceGraphic" in2="effect1_dropShadow_166_5308" result="shape"/>
</filter>
</defs>
</svg>
