<svg width="40" height="40" viewBox="0 0 40 40" fill="none" xmlns="http://www.w3.org/2000/svg">
<path d="M8.7999 27.8L3.3999 32.8L6.3999 38C8.17443 36.3684 9.13129 35.7359 10.3999 35.2L21.3999 35C22.0198 35.0348 22.3696 34.7421 22.9999 34.4L35.9999 27.6C36.7999 26.4 35.9999 25 34.5999 25.2L25.5999 29.2C25.3999 29.8 25.1999 31.2 23.5999 31.8H15.5999C15.1999 31.4 14.9999 31.4 15.3999 30.8L23.3999 30.6C24.9999 29.4 24.3999 28.4 23.3999 27.8L14.9999 27.6L12.7999 27.2C11.2281 26.8926 10.1999 27 8.7999 27.8Z" fill="#FFDCC9"/>
<path d="M34.1016 23.9766C33.7969 24.0547 33.1406 24.3906 29.1797 26.4844C27.375 27.4297 25.8359 28.2656 25.7656 28.3359C25.6875 28.4063 25.6172 28.4453 25.6016 28.4297C25.5938 28.4141 25.5078 28.2344 25.4062 28.0234C25.1641 27.5 24.6953 27.0234 24.1641 26.75L23.7109 26.5234L19.4531 26.4766L15.1953 26.4375L14.2188 26.1484C12.9531 25.7891 12.1172 25.6719 11.1797 25.7266C10.2109 25.7891 9.34375 26.0156 8.51562 26.4141C7.96094 26.6875 7.72656 26.8672 7.10938 27.5C6.70312 27.9141 5.5625 28.9844 4.57031 29.875C3.58594 30.7656 2.71094 31.5703 2.64062 31.6563C2.5625 31.7422 2.5 31.9375 2.5 32.0859C2.5 32.6563 3.15625 32.9297 3.64062 32.5625C4.14062 32.1719 7.27344 29.3047 7.92969 28.6328C8.67969 27.8594 9.05469 27.6094 9.8125 27.3516C10.9609 26.9688 12.2656 26.9922 13.7109 27.4219C14.1484 27.5469 14.7422 27.6875 15.0391 27.7344C15.3438 27.7734 17.25 27.8125 19.3594 27.8125C23.3594 27.8125 23.4453 27.8203 23.8516 28.1875C24.5078 28.7734 24.4062 29.875 23.6562 30.3672L23.3281 30.5859L19.4219 30.6094C15.5469 30.6328 15.5078 30.6328 15.3359 30.7969C15.0703 31.0469 15.0859 31.5703 15.3672 31.7969C15.5703 31.9609 15.6094 31.9609 19.6094 31.9375L23.6328 31.9141L24.1562 31.6563C25 31.2422 25.5 30.5469 25.6641 29.5469C25.7109 29.2344 25.7266 29.2188 25.8516 29.3281C26.1641 29.6094 26.3828 29.5156 30.4297 27.3828C33.9609 25.5234 34.3906 25.3125 34.7266 25.3125C35.9609 25.3125 36.6016 26.7344 35.75 27.5859C35.6016 27.7344 33.6484 28.8125 30.7031 30.3672C23.5703 34.1328 22.5703 34.6328 21.8359 34.8047C21.2656 34.9375 20.7109 34.9531 15.8203 35L10.4297 35.0391L9.91406 35.25C9.03125 35.6016 8.67969 35.8672 6.97656 37.4766C6.53906 37.8828 6.48438 37.9688 6.48438 38.2266C6.48438 38.6172 6.75781 38.9062 7.14062 38.9062C7.42969 38.9062 7.57031 38.8047 8.98438 37.5078C9.45312 37.0859 9.88281 36.7734 10.2266 36.6094L10.7422 36.3672L16.1719 36.3203C21.3828 36.2813 21.625 36.2734 22.2344 36.1094C22.5859 36.0234 23.0234 35.8828 23.2109 35.8125C23.3984 35.7422 26.4375 34.1641 29.9609 32.3125C36.8672 28.6875 36.8594 28.6875 37.2656 27.8516C37.4375 27.5078 37.4609 27.3516 37.4609 26.6406C37.4609 25.8984 37.4375 25.7813 37.2422 25.4063C36.7578 24.4844 35.9453 23.9688 34.9219 23.9375C34.6016 23.9219 34.2344 23.9375 34.1016 23.9766Z" fill="#717171"/>
<path d="M11.8001 15.2L11.6001 17.8L12.0001 19.2L12.8001 21L15.0001 21.8L17.2001 22.4L26.6001 14.2L29.4001 9.80002L27.8001 6.00002L25.6001 5.00002L23.6001 4.40002L17.4001 9.40002L11.8001 15.2Z" fill="#64CAE0"/>
<path d="M32.3998 16.2C32.3998 18.1882 32.9998 21.4 25.5998 20.8C22.0652 20.8 18.1998 20.6 18.7998 16.2C18.7998 14.2118 22.0652 13.2 25.5998 13.2C29.1344 13.2 32.3998 14.2118 32.3998 16.2Z" fill="#E7D88E"/>
<path d="M24.2827 12.429C21.3932 12.6664 19.2739 13.4539 18.3938 14.6178C18.0174 15.1158 18 15.22 18 17.0846C18 19.146 18.0116 19.1923 18.6891 19.8582C19.5634 20.721 21.1037 21.3174 23.2404 21.6359C24.2306 21.7806 26.9984 21.7806 27.9886 21.6359C30.6406 21.2421 32.4183 20.3909 33.0379 19.2097L33.2 18.9028V17.0788V15.2548L33.0321 14.9421C32.3546 13.6508 30.1195 12.7012 27.1779 12.4464C26.541 12.3943 24.8328 12.3827 24.2827 12.429ZM26.5352 13.4134L27.1605 13.4481L24.9486 15.6601L22.7308 17.8779L22.3776 17.7968C20.6347 17.3915 19.3434 16.714 19.0654 16.0539C18.9554 15.7991 18.9612 15.6659 19.1002 15.4053C19.7429 14.1372 23.2056 13.2049 26.5352 13.4134ZM29.332 13.8361C30.8722 14.2414 31.9203 14.8494 32.1635 15.4864C32.2562 15.7296 32.2562 15.7643 32.1635 16.0017C31.9087 16.6619 30.8433 17.2814 29.2625 17.6868C27.9596 18.0168 26.0719 18.1905 24.6938 18.0921L24.0626 18.0516L26.2572 15.857C27.6875 14.4209 28.4923 13.6624 28.5676 13.6624C28.6313 13.6624 28.9787 13.7377 29.332 13.8361ZM19.9919 18.0863C22.5166 19.2792 27.2126 19.4587 30.2179 18.4685C30.9186 18.2427 31.5787 17.9358 32.0014 17.6462L32.2446 17.4783V17.9879C32.2446 18.3585 32.2156 18.5611 32.1346 18.7291C31.6713 19.7308 29.4014 20.5588 26.6162 20.7384C23.6283 20.9352 20.542 20.2577 19.4071 19.1518C19.0481 18.8043 18.9844 18.6248 18.9844 18.0168V17.4899L19.2797 17.6926C19.4418 17.8026 19.7603 17.9763 19.9919 18.0863Z" fill="#717171"/>
<path d="M23.1222 3.71453C22.3366 3.9145 21.6295 4.29302 20.9582 4.89295C20.6296 5.17863 18.3585 7.42121 15.9231 9.8709C11.3379 14.4703 11.1094 14.7274 10.7309 15.6773C10.1595 17.1057 10.3381 18.8984 11.188 20.1768C11.5879 20.791 12.902 22.0908 13.5162 22.4836C13.7591 22.6407 14.2447 22.8621 14.5875 22.9764C15.1517 23.1621 15.3089 23.1835 16.1445 23.1835C16.973 23.1764 17.1372 23.155 17.6443 22.9764C18.3728 22.7264 18.8656 22.4408 19.3584 21.9908C19.7083 21.6766 20.5999 20.5839 20.5999 20.3339C20.5999 20.1196 20.3356 19.9357 20.1999 19.8C19.9356 19.5358 18.9299 20.6838 18.487 21.0767C17.8157 21.6766 16.6159 22.0694 15.7874 21.9694C14.7447 21.8408 14.0376 21.4266 12.9806 20.3339C12.3949 19.734 12.195 19.4697 12.0021 19.0555C11.4451 17.8485 11.5236 16.6201 12.2307 15.5131C12.3807 15.2845 13.2948 14.3132 14.409 13.1991C16.1588 11.4564 16.3445 11.2922 16.523 11.335C17.7943 11.6135 18.3001 11.7288 19.7999 13.2C20.5855 13.9713 20.5571 13.6 20.7999 13.6C20.7776 13.6011 21.3999 13.2 21.3999 13.2C21.3999 12.8858 21.1999 12.8 21.1999 12.8C19.9929 11.6287 18.8799 10.8208 17.8871 10.4351L17.4015 10.2494L19.844 7.82116C22.5294 5.15006 22.5937 5.10721 23.6721 4.88581C24.1221 4.79296 24.3078 4.78582 24.7863 4.8501C25.7004 4.98579 26.2575 5.2929 27.1574 6.16422C27.5716 6.57131 28.0359 7.09268 28.193 7.32122C29.0643 8.66391 28.9429 10.478 27.9002 11.6635C27.5716 12.0349 27.4788 12.3349 27.6145 12.5849C27.8359 13.0062 28.2501 13.0562 28.6501 12.6991C29.0643 12.342 29.5642 11.5207 29.7928 10.8208C29.9785 10.2494 29.9999 10.0923 29.9999 9.25669C29.9928 8.42823 29.9713 8.26396 29.7928 7.75688C29.5 6.91413 29.1714 6.42133 28.293 5.5143C26.9289 4.11448 25.9933 3.65025 24.4649 3.6074C23.8364 3.58597 23.5221 3.61454 23.1222 3.71453Z" fill="#717171"/>
<path d="M15.963 12.6407C15.713 12.7422 13.5646 14.9844 13.2755 15.4297C12.9318 15.9844 12.6427 16.836 12.588 17.4688C12.549 17.9297 12.5724 18.0157 12.7208 18.2032C12.8537 18.3829 12.9552 18.4219 13.2208 18.4219C13.6818 18.4219 13.8537 18.2188 13.963 17.5391C14.1115 16.5469 14.3771 16.1251 15.7287 14.7501C16.7521 13.7032 16.9396 13.4844 16.9396 13.2813C16.9396 12.9376 16.8693 12.8047 16.6193 12.6797C16.3771 12.5469 16.1974 12.5391 15.963 12.6407Z" fill="#717171"/>
<path d="M3 32L6.8 38.4" stroke="#717171" stroke-width="2" stroke-linecap="round"/>
</svg>
