<svg width="25" height="25" viewBox="0 0 25 25" fill="none" xmlns="http://www.w3.org/2000/svg">
<path d="M20.4261 21.0895C20.3616 21.2071 20.2666 21.3052 20.1512 21.3737C20.0358 21.4421 19.9041 21.4783 19.7699 21.4785H15.2699C15.1437 21.4785 15.0195 21.4466 14.9089 21.3858C14.7983 21.325 14.7048 21.2372 14.6371 21.1307L10.8411 15.1654L5.3249 21.2329C5.19042 21.3773 5.00443 21.463 4.80725 21.4712C4.61007 21.4794 4.41759 21.4096 4.27153 21.2769C4.12548 21.1442 4.03763 20.9592 4.02703 20.7622C4.01642 20.5651 4.08393 20.3718 4.2149 20.2241L10.0058 13.8491L4.13708 4.63164C4.0648 4.51824 4.02434 4.3875 4.01993 4.2531C4.01553 4.1187 4.04734 3.98558 4.11203 3.86769C4.17673 3.7498 4.27193 3.65148 4.38767 3.58301C4.5034 3.51454 4.63542 3.47845 4.7699 3.47852H9.2699C9.39612 3.47855 9.5203 3.51045 9.63092 3.57125C9.74154 3.63205 9.83502 3.71979 9.90271 3.82633L13.6986 9.79164L19.2149 3.72414C19.3494 3.57969 19.5354 3.49406 19.7325 3.48582C19.9297 3.47759 20.1222 3.5474 20.2683 3.68013C20.4143 3.81286 20.5022 3.99781 20.5128 4.19488C20.5234 4.39195 20.4559 4.58526 20.3249 4.73289L14.534 11.1032L20.4027 20.3263C20.4746 20.4398 20.5147 20.5704 20.5188 20.7047C20.5229 20.8389 20.4909 20.9718 20.4261 21.0895Z" fill="#242E49"/>
</svg>
