<svg width="31" height="30" viewBox="0 0 31 30" fill="none" xmlns="http://www.w3.org/2000/svg">
<g filter="url(#filter0_d_3514_59367)">
<path d="M9.46299 3.5666C9.46299 3.3411 9.64579 3.1583 9.87129 3.1583H21.5791C21.8046 3.1583 21.9874 3.3411 21.9874 3.5666V26.4314C21.9874 26.6569 21.8046 26.8397 21.5791 26.8397H9.87129C9.64579 26.8397 9.46299 26.6569 9.46299 26.4314V3.5666Z" fill="#2D58E0" stroke="#2626BC" stroke-width="0.816602"/>
<path d="M9.87109 4.38301C9.87109 3.93201 10.2367 3.56641 10.6877 3.56641H20.4869C20.9379 3.56641 21.3035 3.93201 21.3035 4.38301V6.01621H9.87109V4.38301Z" fill="#6583FE"/>
<path d="M9.47852 15.8479C9.47852 15.3969 9.84412 15.0312 10.2951 15.0312H21.1559C21.6069 15.0312 21.9725 15.3969 21.9725 15.8479V24.3488H9.47852V15.8479Z" fill="white"/>
<path d="M9.47852 24.3516H21.9725V26.0761C21.9725 26.5271 21.6069 26.8927 21.1559 26.8927H10.2951C9.84412 26.8927 9.47852 26.5271 9.47852 26.0761V24.3516Z" fill="#6583FE"/>
<rect x="14.1367" y="4.01953" width="3.81171" height="0.372436" rx="0.186218" fill="white"/>
<rect x="11.0723" y="16.3477" width="1.69409" height="1.77389" rx="0.816602" fill="#02FFB3"/>
<rect x="14.9844" y="8.46875" width="4.02347" height="4.213" rx="0.816602" fill="#02FFB3"/>
<rect x="10.1133" y="8.46875" width="4.02347" height="4.213" rx="0.816602" fill="#FF7EB8"/>
<path d="M19.8555 9.28535C19.8555 8.83435 20.2211 8.46875 20.6721 8.46875H21.9731V12.704H20.6721C20.2211 12.704 19.8555 12.3384 19.8555 11.8874V9.28535Z" fill="#9FB0FE"/>
<rect x="11.0723" y="19.0078" width="1.69409" height="1.77389" rx="0.816602" fill="#FF7EB8"/>
<rect x="11.0723" y="21.7969" width="1.69409" height="1.77389" rx="0.816602" fill="#9FB0FE"/>
<rect x="13.3223" y="16.4062" width="5.46528" height="0.34749" rx="0.173745" fill="#00D890"/>
<rect x="13.5332" y="19.1328" width="5.46528" height="0.34749" rx="0.173745" fill="#9FB0FE"/>
<rect x="13.5332" y="22.0703" width="5.46528" height="0.34749" rx="0.173745" fill="#9FB0FE"/>
<rect x="13.3223" y="17.1016" width="2.7529" height="0.34749" rx="0.173745" fill="#9FB0FE"/>
<rect x="13.5332" y="19.8242" width="4.34008" height="0.34749" rx="0.173745" fill="#FF5BA8"/>
<rect x="13.5332" y="22.7656" width="2.54114" height="0.34749" rx="0.173745" fill="#6583FE"/>
<rect x="11.5957" y="10.5859" width="2.32938" height="0.423523" rx="0.211762" fill="white"/>
<rect x="16.4668" y="10.5859" width="2.32938" height="0.423523" rx="0.211762" fill="white"/>
<rect x="15.6191" y="11.4336" width="2.32938" height="0.423523" rx="0.211762" fill="white"/>
<rect x="10.9609" y="11.4336" width="2.32938" height="0.423523" rx="0.211762" fill="white"/>
</g>
<defs>
<filter id="filter0_d_3514_59367" x="9.05469" y="2.75" width="14.1584" height="25.3166" filterUnits="userSpaceOnUse" color-interpolation-filters="sRGB">
<feFlood flood-opacity="0" result="BackgroundImageFix"/>
<feColorMatrix in="SourceAlpha" type="matrix" values="0 0 0 0 0 0 0 0 0 0 0 0 0 0 0 0 0 0 127 0" result="hardAlpha"/>
<feOffset dx="0.816602" dy="0.816602"/>
<feComposite in2="hardAlpha" operator="out"/>
<feColorMatrix type="matrix" values="0 0 0 0 0.804375 0 0 0 0 0.837831 0 0 0 0 0.975 0 0 0 1 0"/>
<feBlend mode="normal" in2="BackgroundImageFix" result="effect1_dropShadow_3514_59367"/>
<feBlend mode="normal" in="SourceGraphic" in2="effect1_dropShadow_3514_59367" result="shape"/>
</filter>
</defs>
</svg>
