<svg width="73" height="72" viewBox="0 0 73 72" fill="none" xmlns="http://www.w3.org/2000/svg">
<rect x="0.333008" width="72" height="72" rx="36" fill="#FAFAFA"/>
<path d="M45.7627 36H55.1924M50.4775 40.7148V31.2852M17.4736 50.1445V47.7871C17.4736 45.9114 18.2187 44.1126 19.5451 42.7863C20.8714 41.46 22.6702 40.7148 24.5459 40.7148H33.9756C35.8513 40.7148 37.6501 41.46 38.9764 42.7863C40.3027 44.1126 41.0479 45.9114 41.0479 47.7871V50.1445C41.0479 50.7698 40.7995 51.3694 40.3574 51.8115C39.9153 52.2536 39.3157 52.502 38.6904 52.502H19.8311C19.2058 52.502 18.6062 52.2536 18.1641 51.8115C17.722 51.3694 17.4736 50.7698 17.4736 50.1445ZM36.333 26.5703C36.333 28.446 35.5879 30.2449 34.2616 31.5712C32.9353 32.8975 31.1364 33.6426 29.2607 33.6426C27.3851 33.6426 25.5862 32.8975 24.2599 31.5712C22.9336 30.2449 22.1885 28.446 22.1885 26.5703C22.1885 24.6946 22.9336 22.8958 24.2599 21.5695C25.5862 20.2432 27.3851 19.498 29.2607 19.498C31.1364 19.498 32.9353 20.2432 34.2616 21.5695C35.5879 22.8958 36.333 24.6946 36.333 26.5703Z" stroke="#3FDD6C" stroke-width="3.5" stroke-linecap="round" stroke-linejoin="round"/>
</svg>
