<svg width="29" height="28" viewBox="0 0 29 28" fill="none" xmlns="http://www.w3.org/2000/svg">
<g clip-path="url(#clip0_103_783)">
<path d="M25.7657 20.8359C25.3938 21.0328 25.011 21.2078 24.6173 21.35C23.3595 21.8203 22.036 22.0609 20.6907 22.0609C15.5173 22.0609 11.011 18.5063 11.011 13.9344C11.022 12.6875 11.711 11.5391 12.8048 10.9484C8.12354 11.1453 6.92041 16.0234 6.92041 18.8781C6.92041 26.9609 14.3688 27.7813 15.9767 27.7813C16.8407 27.7813 18.1423 27.5297 18.9298 27.2781L19.072 27.2344C22.0907 26.1953 24.6501 24.1609 26.3563 21.4594C26.4876 21.2516 26.422 20.9891 26.2251 20.8578C26.0829 20.7703 25.9079 20.7594 25.7657 20.8359Z" fill="url(#paint0_linear_103_783)"/>
<path opacity="0.35" d="M25.7657 20.8359C25.3938 21.0328 25.011 21.2078 24.6173 21.35C23.3595 21.8203 22.036 22.0609 20.6907 22.0609C15.5173 22.0609 11.011 18.5063 11.011 13.9344C11.022 12.6875 11.711 11.5391 12.8048 10.9484C8.12354 11.1453 6.92041 16.0234 6.92041 18.8781C6.92041 26.9609 14.3688 27.7813 15.9767 27.7813C16.8407 27.7813 18.1423 27.5297 18.9298 27.2781L19.072 27.2344C22.0907 26.1953 24.6501 24.1609 26.3563 21.4594C26.4876 21.2516 26.422 20.9891 26.2251 20.8578C26.0829 20.7703 25.9079 20.7594 25.7657 20.8359Z" fill="url(#paint1_radial_103_783)"/>
<path d="M12.061 26.4031C11.0876 25.8016 10.2454 25.0031 9.57819 24.0734C6.70163 20.1359 7.56569 14.6125 11.5032 11.7359C11.9188 11.4406 12.3454 11.1672 12.8048 10.9484C13.1438 10.7844 13.7235 10.5 14.5001 10.5109C15.6048 10.5219 16.6438 11.0469 17.311 11.9328C17.7485 12.5234 18.0001 13.2344 18.011 13.9781C18.011 13.9563 20.6907 5.27188 9.261 5.27188C4.45944 5.27188 0.511 9.83282 0.511 13.825C0.489125 15.9359 0.9485 18.0359 1.83444 19.95C4.85319 26.3813 12.2032 29.5313 18.9407 27.2891C16.6329 28.0109 14.1172 27.6938 12.061 26.4031Z" fill="url(#paint2_linear_103_783)"/>
<path opacity="0.41" d="M12.061 26.4031C11.0876 25.8016 10.2454 25.0031 9.57819 24.0734C6.70163 20.1359 7.56569 14.6125 11.5032 11.7359C11.9188 11.4406 12.3454 11.1672 12.8048 10.9484C13.1438 10.7844 13.7235 10.5 14.5001 10.5109C15.6048 10.5219 16.6438 11.0469 17.311 11.9328C17.7485 12.5234 18.0001 13.2344 18.011 13.9781C18.011 13.9563 20.6907 5.27188 9.261 5.27188C4.45944 5.27188 0.511 9.83282 0.511 13.825C0.489125 15.9359 0.9485 18.0359 1.83444 19.95C4.85319 26.3813 12.2032 29.5313 18.9407 27.2891C16.6329 28.0109 14.1172 27.6938 12.061 26.4031Z" fill="url(#paint3_radial_103_783)"/>
<path d="M17.1578 16.2859C17.0703 16.3953 16.7969 16.5594 16.7969 16.9094C16.7969 17.1937 16.9828 17.4672 17.3109 17.6969C18.8859 18.7906 21.85 18.6484 21.8609 18.6484C23.0313 18.6484 24.1688 18.3312 25.175 17.7406C27.2313 16.5375 28.5 14.3391 28.5 11.9547C28.5328 9.50469 27.625 7.875 27.2641 7.15312C24.9453 2.61406 19.9359 0 14.5 0C6.84375 0 0.609375 6.14687 0.5 13.8031C0.554688 9.81094 4.525 6.58437 9.25 6.58437C9.63281 6.58437 11.8203 6.61719 13.8438 7.68906C15.6266 8.62969 16.5672 9.75625 17.2125 10.8828C17.8906 12.0531 18.0109 13.5187 18.0109 14.1094C18.0109 14.6891 17.7156 15.5641 17.1578 16.2859Z" fill="url(#paint4_radial_103_783)"/>
<path d="M17.1578 16.2859C17.0703 16.3953 16.7969 16.5594 16.7969 16.9094C16.7969 17.1937 16.9828 17.4672 17.3109 17.6969C18.8859 18.7906 21.85 18.6484 21.8609 18.6484C23.0313 18.6484 24.1688 18.3312 25.175 17.7406C27.2313 16.5375 28.5 14.3391 28.5 11.9547C28.5328 9.50469 27.625 7.875 27.2641 7.15312C24.9453 2.61406 19.9359 0 14.5 0C6.84375 0 0.609375 6.14687 0.5 13.8031C0.554688 9.81094 4.525 6.58437 9.25 6.58437C9.63281 6.58437 11.8203 6.61719 13.8438 7.68906C15.6266 8.62969 16.5672 9.75625 17.2125 10.8828C17.8906 12.0531 18.0109 13.5187 18.0109 14.1094C18.0109 14.6891 17.7156 15.5641 17.1578 16.2859Z" fill="url(#paint5_radial_103_783)"/>
</g>
<defs>
<linearGradient id="paint0_linear_103_783" x1="6.92085" y1="19.3616" x2="26.4205" y2="19.3616" gradientUnits="userSpaceOnUse">
<stop stop-color="#0C59A4"/>
<stop offset="1" stop-color="#114A8B"/>
</linearGradient>
<radialGradient id="paint1_radial_103_783" cx="0" cy="0" r="1" gradientUnits="userSpaceOnUse" gradientTransform="translate(17.693 19.5165) scale(10.4311 9.90849)">
<stop offset="0.72" stop-opacity="0"/>
<stop offset="0.95" stop-opacity="0.53"/>
<stop offset="1"/>
</radialGradient>
<linearGradient id="paint2_linear_103_783" x1="17.2094" y1="10.9097" x2="5.02797" y2="24.1782" gradientUnits="userSpaceOnUse">
<stop stop-color="#1B9DE2"/>
<stop offset="0.16" stop-color="#1595DF"/>
<stop offset="0.67" stop-color="#0680D7"/>
<stop offset="1" stop-color="#0078D4"/>
</linearGradient>
<radialGradient id="paint3_radial_103_783" cx="0" cy="0" r="1" gradientUnits="userSpaceOnUse" gradientTransform="translate(8.22288 21.7667) rotate(-81.3826) scale(15.6841 12.6737)">
<stop offset="0.76" stop-opacity="0"/>
<stop offset="0.95" stop-opacity="0.5"/>
<stop offset="1"/>
</radialGradient>
<radialGradient id="paint4_radial_103_783" cx="0" cy="0" r="1" gradientUnits="userSpaceOnUse" gradientTransform="translate(3.32752 5.18359) rotate(92.2911) scale(22.1541 47.1907)">
<stop stop-color="#35C1F1"/>
<stop offset="0.11" stop-color="#34C1ED"/>
<stop offset="0.23" stop-color="#2FC2DF"/>
<stop offset="0.31" stop-color="#2BC3D2"/>
<stop offset="0.67" stop-color="#36C752"/>
</radialGradient>
<radialGradient id="paint5_radial_103_783" cx="0" cy="0" r="1" gradientUnits="userSpaceOnUse" gradientTransform="translate(26.7566 8.46626) rotate(73.7366) scale(10.6445 8.65779)">
<stop stop-color="#66EB6E"/>
<stop offset="1" stop-color="#66EB6E" stop-opacity="0"/>
</radialGradient>
<clipPath id="clip0_103_783">
<rect width="28" height="28" fill="white" transform="translate(0.5)"/>
</clipPath>
</defs>
</svg>
